<?xml version="1.0" encoding="UTF-8" standalone="no"?>
<svg
   xmlns:dc="http://purl.org/dc/elements/1.1/"
   xmlns:cc="http://creativecommons.org/ns#"
   xmlns:rdf="http://www.w3.org/1999/02/22-rdf-syntax-ns#"
   xmlns:svg="http://www.w3.org/2000/svg"
   xmlns="http://www.w3.org/2000/svg"
   xmlns:xlink="http://www.w3.org/1999/xlink"
   xmlns:sodipodi="http://sodipodi.sourceforge.net/DTD/sodipodi-0.dtd"
   xmlns:inkscape="http://www.inkscape.org/namespaces/inkscape"
   version="1.2"
   width="191.39702mm"
   height="30.481403mm"
   viewBox="0 0 136.14434 21.681997"
   id="svg562"
   sodipodi:docname="test.svg"
   inkscape:version="0.92.1 r15371">
  <metadata
     id="metadata568">
    <rdf:RDF>
      <cc:Work
         rdf:about="">
        <dc:format>image/svg+xml</dc:format>
        <dc:type
           rdf:resource="http://purl.org/dc/dcmitype/StillImage" />
        <dc:title></dc:title>
      </cc:Work>
    </rdf:RDF>
  </metadata>
  <defs
     id="defs566" />
  <sodipodi:namedview
     pagecolor="#ffffff"
     bordercolor="#666666"
     borderopacity="1"
     objecttolerance="10"
     gridtolerance="10"
     guidetolerance="10"
     inkscape:pageopacity="0"
     inkscape:pageshadow="2"
     inkscape:window-width="1920"
     inkscape:window-height="1018"
     id="namedview564"
     showgrid="false"
     fit-margin-top="0"
     fit-margin-left="0"
     fit-margin-right="0"
     fit-margin-bottom="0"
     inkscape:zoom="0.2102413"
     inkscape:cx="-1374.1479"
     inkscape:cy="-421.84347"
     inkscape:window-x="-8"
     inkscape:window-y="-8"
     inkscape:window-maximized="1"
     inkscape:current-layer="svg562" />
  <!-- Page: 1/1 -->
  <text
     font-size="2.1999"
     id="text4"
     style="font-size:2.19989991px;font-family:serif;text-anchor:start;fill:currentColor"
     x="0.99288207"
     y="-1">
    <tspan
       id="tspan2" />
  </text>
  <line
     x1="11.720882"
     y1="6.8319998"
     x2="136.08528"
     y2="6.8319998"
     id="line6"
     style="stroke:currentColor;stroke-width:0.1164;stroke-linecap:round;stroke-linejoin:round" />
  <line
     x1="11.720882"
     y1="5.8319998"
     x2="136.08528"
     y2="5.8319998"
     id="line8"
     style="stroke:currentColor;stroke-width:0.1164;stroke-linecap:round;stroke-linejoin:round" />
  <line
     x1="11.720882"
     y1="4.8319998"
     x2="136.08528"
     y2="4.8319998"
     id="line10"
     style="stroke:currentColor;stroke-width:0.1164;stroke-linecap:round;stroke-linejoin:round" />
  <line
     x1="11.720882"
     y1="3.832"
     x2="136.08528"
     y2="3.832"
     id="line12"
     style="stroke:currentColor;stroke-width:0.1164;stroke-linecap:round;stroke-linejoin:round" />
  <line
     x1="11.720882"
     y1="2.832"
     x2="136.08528"
     y2="2.832"
     id="line14"
     style="stroke:currentColor;stroke-width:0.1164;stroke-linecap:round;stroke-linejoin:round" />
  <rect
     x="101.22868"
     y="2.832"
     width="0.2212"
     height="4"
     ry="0.0000"
     id="rect16"
     style="fill:currentColor" />
  <rect
     x="38.009781"
     y="2.832"
     width="0.2212"
     height="4"
     ry="0.0000"
     id="rect18"
     style="fill:currentColor" />
  <rect
     x="117.51109"
     y="2.832"
     width="0.2212"
     height="4"
     ry="0.0000"
     id="rect20"
     style="fill:currentColor" />
  <rect
     x="135.92229"
     y="2.832"
     width="0.2212"
     height="4"
     ry="0.0000"
     id="rect22"
     style="fill:currentColor" />
  <rect
     x="67.639786"
     y="2.832"
     width="0.2212"
     height="4"
     ry="0.0000"
     id="rect24"
     style="fill:currentColor" />
  <rect
     x="65.101479"
     y="1.7237999"
     width="1.9962"
     height="0.2164"
     ry="0.1082"
     id="rect26"
     style="fill:currentColor" />
  <rect
     x="96.251984"
     y="3.5033"
     width="0.1514"
     height="5.1272998"
     ry="0.050000001"
     id="rect28"
     style="fill:currentColor" />
  <a
     style="color:inherit"
     xlink:href="textedit://C:/Users/tikeda/Documents/git/LotusRoot/sco.txt:4:52:53"
     id="a32"
     transform="translate(-6.1203179,-4.5566)">
    <path
       transform="matrix(0.004,0,0,-0.004,102.3724,7.8886)"
       d="m 212,138 c 59,0 113,-31 113,-95 0,-71 -52,-120 -99,-148 -34,-21 -73,-33 -113,-33 -59,0 -113,31 -113,95 0,71 53,120 100,148 34,21 72,33 112,33 z"
       id="path30"
       inkscape:connector-curvature="0"
       style="fill:currentColor" />
  </a>
  <rect
     x="92.948181"
     y="4.0033002"
     width="0.1514"
     height="4.7382998"
     ry="0.050000001"
     id="rect34"
     style="fill:currentColor" />
  <a
     style="color:inherit"
     xlink:href="textedit://C:/Users/tikeda/Documents/git/LotusRoot/sco.txt:4:46:47"
     id="a38"
     transform="translate(-6.1203179,-4.5566)">
    <path
       transform="matrix(0.004,0,0,-0.004,99.0685,8.3886)"
       d="m 212,138 c 59,0 113,-31 113,-95 0,-71 -52,-120 -99,-148 -34,-21 -73,-33 -113,-33 -59,0 -113,31 -113,95 0,71 53,120 100,148 34,21 72,33 112,33 z"
       id="path36"
       inkscape:connector-curvature="0"
       style="fill:currentColor" />
  </a>
  <a
     style="color:inherit"
     xlink:href="textedit://C:/Users/tikeda/Documents/git/LotusRoot/sco.txt:2:15:16"
     id="a42"
     transform="translate(-6.1203179,-4.5566)">
    <path
       transform="translate(26.4659,9.3886)"
       d="m 0.8919,-1.1924 c 0.9994,-0.8792 5.1929,-0.8792 6.1922,0 v 0 c -0.9993,-0.7395 -5.1928,-0.7395 -6.1922,0 z"
       id="path40"
       inkscape:connector-curvature="0"
       style="fill:currentColor;stroke:currentColor;stroke-width:0.0931;stroke-linecap:round;stroke-linejoin:round" />
  </a>
  <path
     d="m 95.226082,3.184 -0.008,0.248 v 0.044 c 0,0.088 0.008,0.172 0.02,0.256 0.172,-0.152 0.356,-0.32 0.356,-0.548 0,-0.128 -0.056,-0.26 -0.168,-0.26 -0.124,0 -0.196,0.128 -0.2,0.26 z m -0.188,0.708 -0.056,-2.36 c 0.036,-0.02 0.08,-0.032 0.12,-0.032 0.04,0 0.084,0.012 0.12,0.032 l -0.032,1.36 c 0.1,-0.096 0.236,-0.152 0.376,-0.152 0.2,0 0.336,0.2 0.336,0.416 0,0.312 -0.332,0.468 -0.564,0.676 -0.068,0.06 -0.1,0.176 -0.196,0.176 -0.06,0 -0.104,-0.052 -0.104,-0.116 z"
     id="path44"
     inkscape:connector-curvature="0"
     style="fill:currentColor;stroke-width:0.004" />
  <a
     style="color:inherit"
     xlink:href="textedit://C:/Users/tikeda/Documents/git/LotusRoot/sco.txt:4:60:61"
     id="a48"
     transform="translate(-6.1203179,-4.5566)">
    <path
       transform="matrix(0.004,0,0,-0.004,104.9857,7.3886)"
       d="m 212,138 c 59,0 113,-31 113,-95 0,-71 -52,-120 -99,-148 -34,-21 -73,-33 -113,-33 -59,0 -113,31 -113,95 0,71 53,120 100,148 34,21 72,33 112,33 z"
       id="path46"
       inkscape:connector-curvature="0"
       style="fill:currentColor" />
  </a>
  <rect
     x="98.86528"
     y="3.0033"
     width="0.1514"
     height="5.5394001"
     ry="0.050000001"
     id="rect50"
     style="fill:currentColor" />
  <a
     style="color:inherit"
     xlink:href="textedit://C:/Users/tikeda/Documents/git/LotusRoot/sco.txt:5:0:1"
     id="a54"
     transform="translate(-6.1203179,-4.5566)">
    <path
       transform="matrix(0.004,0,0,-0.004,108.5123,9.3886)"
       d="m 212,138 c 59,0 113,-31 113,-95 0,-71 -52,-120 -99,-148 -34,-21 -73,-33 -113,-33 -59,0 -113,31 -113,95 0,71 53,120 100,148 34,21 72,33 112,33 z"
       id="path52"
       inkscape:connector-curvature="0"
       style="fill:currentColor" />
  </a>
  <rect
     x="103.54148"
     y="0.54600024"
     width="0.1514"
     height="4.1146998"
     ry="0.050000001"
     id="rect56"
     style="fill:currentColor" />
  <rect
     x="80.120079"
     y="3.0033"
     width="0.1514"
     height="4.9190001"
     ry="0.050000001"
     id="rect58"
     style="fill:currentColor" />
  <a
     style="color:inherit"
     xlink:href="textedit://C:/Users/tikeda/Documents/git/LotusRoot/sco.txt:4:21:22"
     id="a62"
     transform="translate(-6.1203179,-4.5566)">
    <path
       transform="matrix(0.004,0,0,-0.004,86.2404,7.3886)"
       d="m 212,138 c 59,0 113,-31 113,-95 0,-71 -52,-120 -99,-148 -34,-21 -73,-33 -113,-33 -59,0 -113,31 -113,95 0,71 53,120 100,148 34,21 72,33 112,33 z"
       id="path60"
       inkscape:connector-curvature="0"
       style="fill:currentColor" />
  </a>
  <path
     d="m 76.480882,3.184 -0.008,0.248 v 0.044 c 0,0.088 0.008,0.172 0.02,0.256 0.172,-0.152 0.356,-0.32 0.356,-0.548 0,-0.128 -0.056,-0.26 -0.168,-0.26 -0.124,0 -0.196,0.128 -0.2,0.26 z m -0.188,0.708 -0.056,-2.36 c 0.036,-0.02 0.08,-0.032 0.12,-0.032 0.04,0 0.084,0.012 0.12,0.032 l -0.032,1.36 c 0.1,-0.096 0.236,-0.152 0.376,-0.152 0.2,0 0.336,0.2 0.336,0.416 0,0.312 -0.332,0.468 -0.564,0.676 -0.068,0.06 -0.1,0.176 -0.196,0.176 -0.06,0 -0.104,-0.052 -0.104,-0.116 z"
     id="path64"
     inkscape:connector-curvature="0"
     style="fill:currentColor;stroke-width:0.004" />
  <rect
     x="77.506783"
     y="3.5033"
     width="0.1514"
     height="4.5068998"
     ry="0.050000001"
     id="rect66"
     style="fill:currentColor" />
  <a
     style="color:inherit"
     xlink:href="textedit://C:/Users/tikeda/Documents/git/LotusRoot/sco.txt:4:13:14"
     id="a70"
     transform="translate(-6.1203179,-4.5566)">
    <path
       transform="matrix(0.004,0,0,-0.004,83.6272,7.8886)"
       d="m 212,138 c 59,0 113,-31 113,-95 0,-71 -52,-120 -99,-148 -34,-21 -73,-33 -113,-33 -59,0 -113,31 -113,95 0,71 53,120 100,148 34,21 72,33 112,33 z"
       id="path68"
       inkscape:connector-curvature="0"
       style="fill:currentColor" />
  </a>
  <a
     style="color:inherit"
     xlink:href="textedit://C:/Users/tikeda/Documents/git/LotusRoot/sco.txt:4:7:8"
     id="a74"
     transform="translate(-6.1203179,-4.5566)">
    <path
       transform="matrix(0.004,0,0,-0.004,80.3233,8.3886)"
       d="m 212,138 c 59,0 113,-31 113,-95 0,-71 -52,-120 -99,-148 -34,-21 -73,-33 -113,-33 -59,0 -113,31 -113,95 0,71 53,120 100,148 34,21 72,33 112,33 z"
       id="path72"
       inkscape:connector-curvature="0"
       style="fill:currentColor" />
  </a>
  <rect
     x="90.334885"
     y="4.5033002"
     width="0.1514"
     height="4.3260999"
     ry="0.050000001"
     id="rect76"
     style="fill:currentColor" />
  <a
     style="color:inherit"
     xlink:href="textedit://C:/Users/tikeda/Documents/git/LotusRoot/sco.txt:4:40:41"
     id="a80"
     transform="translate(-6.1203179,-4.5566)">
    <path
       transform="matrix(0.004,0,0,-0.004,96.4553,8.8886)"
       d="m 212,138 c 59,0 113,-31 113,-95 0,-71 -52,-120 -99,-148 -34,-21 -73,-33 -113,-33 -59,0 -113,31 -113,95 0,71 53,120 100,148 34,21 72,33 112,33 z"
       id="path78"
       inkscape:connector-curvature="0"
       style="fill:currentColor" />
  </a>
  <rect
     x="85.09668"
     y="4.5033002"
     width="0.1514"
     height="3.3287001"
     ry="0.050000001"
     id="rect82"
     style="fill:currentColor" />
  <a
     style="color:inherit"
     xlink:href="textedit://C:/Users/tikeda/Documents/git/LotusRoot/sco.txt:4:33:34"
     id="a86"
     transform="translate(-6.1203179,-4.5566)">
    <path
       transform="matrix(0.004,0,0,-0.004,91.217,8.8886)"
       d="m 212,138 c 59,0 113,-31 113,-95 0,-71 -52,-120 -99,-148 -34,-21 -73,-33 -113,-33 -59,0 -113,31 -113,95 0,71 53,120 100,148 34,21 72,33 112,33 z"
       id="path84"
       inkscape:connector-curvature="0"
       style="fill:currentColor" />
  </a>
  <rect
     x="74.20298"
     y="4.0033002"
     width="0.1514"
     height="4.1178999"
     ry="0.050000001"
     id="rect88"
     style="fill:currentColor" />
  <rect
     x="82.733383"
     y="2.5033"
     width="0.1514"
     height="5.3312001"
     ry="0.050000001"
     id="rect90"
     style="fill:currentColor" />
  <a
     style="color:inherit"
     xlink:href="textedit://C:/Users/tikeda/Documents/git/LotusRoot/sco.txt:4:27:28"
     id="a94"
     transform="translate(-6.1203179,-4.5566)">
    <path
       transform="matrix(0.004,0,0,-0.004,88.8537,6.8886)"
       d="m 212,138 c 59,0 113,-31 113,-95 0,-71 -52,-120 -99,-148 -34,-21 -73,-33 -113,-33 -59,0 -113,31 -113,95 0,71 53,120 100,148 34,21 72,33 112,33 z"
       id="path92"
       inkscape:connector-curvature="0"
       style="fill:currentColor" />
  </a>
  <rect
     x="126.29868"
     y="3.5033"
     width="0.1514"
     height="3.3287001"
     ry="0.050000001"
     id="rect96"
     style="fill:currentColor" />
  <path
     d="m 133.29728,2.382 c 0,0.788 0.828,1.336 0.828,2.124 0,0.284 -0.06,0.56 -0.164,0.824 -0.02,0.036 -0.056,0.052 -0.088,0.052 -0.056,0 -0.116,-0.048 -0.104,-0.12 0.104,-0.24 0.172,-0.496 0.172,-0.756 0,-0.408 -0.368,-0.824 -0.644,-1.124 h -0.076 v -1 z"
     id="path98"
     inkscape:connector-curvature="0"
     style="fill:currentColor;stroke-width:0.004" />
  <rect
     x="133.14598"
     y="2.332"
     width="0.1514"
     height="3.3287001"
     ry="0.050000001"
     id="rect100"
     style="fill:currentColor" />
  <a
     style="color:inherit"
     xlink:href="textedit://C:/Users/tikeda/Documents/git/LotusRoot/sco.txt:6:17:18"
     id="a104"
     transform="translate(-6.1203179,-4.5566)">
    <path
       transform="matrix(0.004,0,0,-0.004,138.1168,10.3886)"
       d="m 212,138 c 59,0 113,-31 113,-95 0,-71 -52,-120 -99,-148 -34,-21 -73,-33 -113,-33 -59,0 -113,31 -113,95 0,71 53,120 100,148 34,21 72,33 112,33 z"
       id="path102"
       inkscape:connector-curvature="0"
       style="fill:currentColor" />
  </a>
  <path
     d="m 128.04098,3.332 c 0,-0.12 0.1,-0.22 0.22,-0.22 0.12,0 0.22,0.1 0.22,0.22 0,0.12 -0.1,0.22 -0.22,0.22 -0.12,0 -0.22,-0.1 -0.22,-0.22 z"
     id="path106"
     inkscape:connector-curvature="0"
     style="fill:currentColor;stroke-width:0.004" />
  <a
     style="color:inherit"
     xlink:href="textedit://C:/Users/tikeda/Documents/git/LotusRoot/sco.txt:6:9:10"
     id="a110"
     transform="translate(-6.1203179,-4.5566)">
    <path
       transform="matrix(0.004,0,0,-0.004,132.419,7.8886)"
       d="m 212,138 c 59,0 113,-31 113,-95 0,-71 -52,-120 -99,-148 -34,-21 -73,-33 -113,-33 -59,0 -113,31 -113,95 0,71 53,120 100,148 34,21 72,33 112,33 z"
       id="path108"
       inkscape:connector-curvature="0"
       style="fill:currentColor" />
  </a>
  <polygon
     transform="translate(74.202982,6.9923)"
     points="8.6318,-0.5918 8.6318,0.0082 0.05,0.3 0.05,-0.3 "
     id="polygon112"
     style="fill:currentColor;stroke:currentColor;stroke-width:0.1;stroke-linecap:round;stroke-linejoin:round" />
  <polygon
     transform="translate(74.202982,8.1238)"
     points="8.6318,-0.5918 8.6318,0.0082 0.05,0.3 0.05,-0.3 "
     id="polygon114"
     style="fill:currentColor;stroke:currentColor;stroke-width:0.1;stroke-linecap:round;stroke-linejoin:round" />
  <polygon
     transform="translate(32.985182,6.9923)"
     points="2.7147,-0.0918 2.7147,0.5082 0.05,0.3 0.05,-0.3 "
     id="polygon116"
     style="fill:currentColor;stroke:currentColor;stroke-width:0.1;stroke-linecap:round;stroke-linejoin:round" />
  <polygon
     transform="translate(32.985182,8.1238)"
     points="2.7147,-0.0918 2.7147,0.5082 0.05,0.3 0.05,-0.3 "
     id="polygon118"
     style="fill:currentColor;stroke:currentColor;stroke-width:0.1;stroke-linecap:round;stroke-linejoin:round" />
  <polygon
     transform="translate(45.590682,6.4087)"
     points="3.4052,-0.0082 3.4052,0.5918 0.05,0.3 0.05,-0.3 "
     id="polygon120"
     style="fill:currentColor;stroke:currentColor;stroke-width:0.1;stroke-linecap:round;stroke-linejoin:round" />
  <polygon
     transform="translate(45.590682,7.5402)"
     points="3.4052,-0.0082 3.4052,0.5918 0.05,0.3 0.05,-0.3 "
     id="polygon122"
     style="fill:currentColor;stroke:currentColor;stroke-width:0.1;stroke-linecap:round;stroke-linejoin:round" />
  <a
     style="color:inherit"
     xlink:href="textedit://C:/Users/tikeda/Documents/git/LotusRoot/sco.txt:3:27:28"
     id="a126"
     transform="translate(-6.1203179,-4.5566)">
    <path
       transform="translate(57.6282,9.3886)"
       d="m 1.5008,-2 c 0.7266,-0.7544 2.8109,-0.7544 3.5374,0 v 0 C 4.3117,-2.6147 2.2274,-2.6147 1.5008,-2 Z"
       id="path124"
       inkscape:connector-curvature="0"
       style="fill:currentColor;stroke:currentColor;stroke-width:0.0931;stroke-linecap:round;stroke-linejoin:round" />
  </a>
  <polygon
     transform="translate(56.746082,6.7005)"
     points="8.6318,-0.5918 8.6318,0.0082 0.05,0.3 0.05,-0.3 "
     id="polygon128"
     style="fill:currentColor;stroke:currentColor;stroke-width:0.1;stroke-linecap:round;stroke-linejoin:round" />
  <polygon
     transform="translate(56.746082,7.832)"
     points="8.6318,-0.5918 8.6318,0.0082 0.05,0.3 0.05,-0.3 "
     id="polygon130"
     style="fill:currentColor;stroke:currentColor;stroke-width:0.1;stroke-linecap:round;stroke-linejoin:round" />
  <a
     style="color:inherit"
     xlink:href="textedit://C:/Users/tikeda/Documents/git/LotusRoot/sco.txt:4:5:6"
     id="a134"
     transform="translate(-6.1203179,-4.5566)">
    <path
       transform="translate(75.0851,9.3886)"
       d="m 1.5008,-1.2085 c 0.7266,-0.7545 2.8109,-0.7545 3.5374,0 v 0 c -0.7265,-0.6148 -2.8108,-0.6148 -3.5374,0 z"
       id="path132"
       inkscape:connector-curvature="0"
       style="fill:currentColor;stroke:currentColor;stroke-width:0.0931;stroke-linecap:round;stroke-linejoin:round" />
  </a>
  <a
     style="color:inherit"
     xlink:href="textedit://C:/Users/tikeda/Documents/git/LotusRoot/sco.txt:4:38:39"
     id="a138"
     transform="translate(-6.1203179,-4.5566)">
    <path
       transform="translate(91.217,9.3886)"
       d="m 0.8504,-1.2085 c 0.8766,-0.8303 3.9616,-0.8303 4.8382,0 v 0 c -0.8766,-0.6906 -3.9616,-0.6906 -4.8382,0 z"
       id="path136"
       inkscape:connector-curvature="0"
       style="fill:currentColor;stroke:currentColor;stroke-width:0.0931;stroke-linecap:round;stroke-linejoin:round" />
  </a>
  <polygon
     transform="translate(90.334982,7.7005)"
     points="8.6318,-0.5918 8.6318,0.0082 0.05,0.3 0.05,-0.3 "
     id="polygon140"
     style="fill:currentColor;stroke:currentColor;stroke-width:0.1;stroke-linecap:round;stroke-linejoin:round" />
  <polygon
     transform="translate(90.334982,8.832)"
     points="8.6318,-0.5918 8.6318,0.0082 0.05,0.3 0.05,-0.3 "
     id="polygon142"
     style="fill:currentColor;stroke:currentColor;stroke-width:0.1;stroke-linecap:round;stroke-linejoin:round" />
  <polygon
     transform="translate(103.54148,0.5402)"
     points="3.7771,-0.0082 3.7771,0.5918 0.05,0.3 0.05,-0.3 "
     id="polygon144"
     style="fill:currentColor;stroke:currentColor;stroke-width:0.1;stroke-linecap:round;stroke-linejoin:round" />
  <a
     style="color:inherit"
     xlink:href="textedit://C:/Users/tikeda/Documents/git/LotusRoot/sco.txt:6:7:8"
     id="a148"
     transform="translate(-6.1203179,-4.5566)">
    <path
       transform="translate(125.7853,9.3886)"
       d="m 1.5839,-2 c 0.8778,-0.8308 3.972,-0.8308 4.8498,0 v 0 C 5.5559,-2.6911 2.4617,-2.6911 1.5839,-2 Z"
       id="path146"
       inkscape:connector-curvature="0"
       style="fill:currentColor;stroke:currentColor;stroke-width:0.0931;stroke-linecap:round;stroke-linejoin:round" />
  </a>
  <a
     style="color:inherit"
     xlink:href="textedit://C:/Users/tikeda/Documents/git/LotusRoot/sco.txt:5:8:9"
     id="a152"
     transform="translate(-6.1203179,-4.5566)">
    <path
       transform="matrix(0.004,0,0,-0.004,116.1139,9.3886)"
       d="M 362,0 H 13 C 6,0 0,6 0,13 v 131 c 0,7 6,12 13,12 h 349 c 7,0 13,-5 13,-12 V 13 C 375,6 369,0 362,0 Z"
       id="path150"
       inkscape:connector-curvature="0"
       style="fill:currentColor" />
  </a>
  <rect
     x="107.21729"
     y="0.82620025"
     width="0.1514"
     height="4.8344002"
     ry="0.050000001"
     id="rect154"
     style="fill:currentColor" />
  <a
     style="color:inherit"
     xlink:href="textedit://C:/Users/tikeda/Documents/git/LotusRoot/sco.txt:5:4:5"
     id="a158"
     transform="translate(-6.1203179,-4.5566)">
    <path
       transform="matrix(0.004,0,0,-0.004,112.1881,10.3886)"
       d="m 212,138 c 59,0 113,-31 113,-95 0,-71 -52,-120 -99,-148 -34,-21 -73,-33 -113,-33 -59,0 -113,31 -113,95 0,71 53,120 100,148 34,21 72,33 112,33 z"
       id="path156"
       inkscape:connector-curvature="0"
       style="fill:currentColor" />
  </a>
  <path
     d="m 111.93498,4.332 c 0,-0.12 0.1,-0.22 0.22,-0.22 0.12,0 0.22,0.1 0.22,0.22 0,0.12 -0.1,0.22 -0.22,0.22 -0.12,0 -0.22,-0.1 -0.22,-0.22 z"
     id="path160"
     inkscape:connector-curvature="0"
     style="fill:currentColor;stroke-width:0.004" />
  <rect
     x="119.66499"
     y="3.5776"
     width="0.1514"
     height="3.2544"
     ry="0.050000001"
     id="rect162"
     style="fill:currentColor" />
  <path
     d="m 118.63898,3.184 -0.008,0.248 v 0.044 c 0,0.088 0.008,0.172 0.02,0.256 0.172,-0.152 0.356,-0.32 0.356,-0.548 0,-0.128 -0.056,-0.26 -0.168,-0.26 -0.124,0 -0.196,0.128 -0.2,0.26 z m -0.188,0.708 -0.056,-2.36 c 0.036,-0.02 0.08,-0.032 0.12,-0.032 0.04,0 0.084,0.012 0.12,0.032 l -0.032,1.36 c 0.1,-0.096 0.236,-0.152 0.376,-0.152 0.2,0 0.336,0.2 0.336,0.416 0,0.312 -0.332,0.468 -0.564,0.676 -0.068,0.06 -0.1,0.176 -0.196,0.176 -0.06,0 -0.104,-0.052 -0.104,-0.116 z"
     id="path164"
     inkscape:connector-curvature="0"
     style="fill:currentColor;stroke-width:0.004" />
  <a
     style="color:inherit"
     xlink:href="textedit://C:/Users/tikeda/Documents/git/LotusRoot/sco.txt:6:0:1"
     id="a168"
     transform="translate(-6.1203179,-4.5566)">
    <path
       transform="matrix(0.004,0,0,-0.004,125.7853,7.8886)"
       d="m 310,63 c 0,23 -19,40 -40,40 -4,0 -8,-1 -12,-2 C 228,93 183,63 147,40 111,17 66,-12 46,-36 39,-44 36,-53 36,-63 c 0,-23 19,-40 40,-40 4,0 8,1 12,2 30,8 75,38 111,61 36,23 81,52 101,76 7,8 10,17 10,27 z m -54,75 c 50,0 90,-22 90,-77 0,-18 -5,-37 -10,-55 -11,-38 -30,-74 -63,-96 -53,-35 -111,-48 -183,-48 -50,0 -90,22 -90,77 0,18 5,37 10,55 11,38 30,74 63,96 53,36 111,48 183,48 z"
       id="path166"
       inkscape:connector-curvature="0"
       style="fill:currentColor" />
  </a>
  <path
     d="m 41.077082,3.332 c 0,-0.12 0.1,-0.22 0.22,-0.22 0.12,0 0.22,0.1 0.22,0.22 0,0.12 -0.1,0.22 -0.22,0.22 -0.12,0 -0.22,-0.1 -0.22,-0.22 z"
     id="path170"
     inkscape:connector-curvature="0"
     style="fill:currentColor;stroke-width:0.004" />
  <rect
     x="39.334782"
     y="4.0033002"
     width="0.1514"
     height="3.3287001"
     ry="0.050000001"
     id="rect172"
     style="fill:currentColor" />
  <a
     style="color:inherit"
     xlink:href="textedit://C:/Users/tikeda/Documents/git/LotusRoot/sco.txt:3:0:1"
     id="a176"
     transform="translate(-6.1203179,-4.5566)">
    <path
       transform="matrix(0.004,0,0,-0.004,45.4551,8.3886)"
       d="m 212,138 c 59,0 113,-31 113,-95 0,-71 -52,-120 -99,-148 -34,-21 -73,-33 -113,-33 -59,0 -113,31 -113,95 0,71 53,120 100,148 34,21 72,33 112,33 z"
       id="path174"
       inkscape:connector-curvature="0"
       style="fill:currentColor" />
  </a>
  <rect
     x="35.59848"
     y="4.0033002"
     width="0.1514"
     height="4.323"
     ry="0.050000001"
     id="rect178"
     style="fill:currentColor" />
  <a
     style="color:inherit"
     xlink:href="textedit://C:/Users/tikeda/Documents/git/LotusRoot/sco.txt:2:31:32"
     id="a182"
     transform="translate(-6.1203179,-4.5566)">
    <path
       transform="matrix(0.004,0,0,-0.004,41.7188,8.3886)"
       d="m 212,138 c 59,0 113,-31 113,-95 0,-71 -52,-120 -99,-148 -34,-21 -73,-33 -113,-33 -59,0 -113,31 -113,95 0,71 53,120 100,148 34,21 72,33 112,33 z"
       id="path180"
       inkscape:connector-curvature="0"
       style="fill:currentColor" />
  </a>
  <rect
     x="45.590683"
     y="3.0033"
     width="0.1514"
     height="4.5433002"
     ry="0.050000001"
     id="rect184"
     style="fill:currentColor" />
  <rect
     x="48.894581"
     y="3.5033"
     width="0.1514"
     height="4.3223"
     ry="0.050000001"
     id="rect186"
     style="fill:currentColor" />
  <a
     style="color:inherit"
     xlink:href="textedit://C:/Users/tikeda/Documents/git/LotusRoot/sco.txt:3:12:13"
     id="a190"
     transform="translate(-6.1203179,-4.5566)">
    <path
       transform="matrix(0.004,0,0,-0.004,55.0149,7.8886)"
       d="m 212,138 c 59,0 113,-31 113,-95 0,-71 -52,-120 -99,-148 -34,-21 -73,-33 -113,-33 -59,0 -113,31 -113,95 0,71 53,120 100,148 34,21 72,33 112,33 z"
       id="path188"
       inkscape:connector-curvature="0"
       style="fill:currentColor" />
  </a>
  <a
     style="color:inherit"
     xlink:href="textedit://C:/Users/tikeda/Documents/git/LotusRoot/sco.txt:3:6:7"
     id="a194"
     transform="translate(-6.1203179,-4.5566)">
    <path
       transform="matrix(0.004,0,0,-0.004,51.711,7.3886)"
       d="m 212,138 c 59,0 113,-31 113,-95 0,-71 -52,-120 -99,-148 -34,-21 -73,-33 -113,-33 -59,0 -113,31 -113,95 0,71 53,120 100,148 34,21 72,33 112,33 z"
       id="path192"
       inkscape:connector-curvature="0"
       style="fill:currentColor" />
  </a>
  <rect
     x="20.345482"
     y="4.5776"
     width="0.1514"
     height="3.2544"
     ry="0.050000001"
     id="rect196"
     style="fill:currentColor" />
  <a
     style="color:inherit"
     xlink:href="textedit://C:/Users/tikeda/Documents/git/LotusRoot/sco.txt:2:0:1"
     id="a200"
     transform="translate(-6.1203179,-4.5566)">
    <path
       transform="matrix(0.004,0,0,-0.004,22.783,9.3886)"
       d="m 356,30 c -48,0 -72,40 -72,72 0,37 26,75 70,75 3,0 6,-1 9,-1 -26,36 -67,59 -113,59 -107,0 -113,-74 -113,-189 0,-15 1,-30 1,-46 0,-16 -1,-31 -1,-46 0,-115 6,-189 113,-189 78,0 133,70 151,149 2,8 8,11 14,11 7,0 15,-5 15,-14 0,-95 -103,-176 -180,-176 -68,0 -137,20 -184,70 C 17,-143 0,-71 0,0 c 0,71 17,143 66,195 47,50 116,70 184,70 86,0 156,-67 171,-153 1,-4 1,-9 1,-13 0,-38 -30,-69 -66,-69 z"
       id="path198"
       inkscape:connector-curvature="0"
       style="fill:currentColor" />
  </a>
  <path
     d="m 13.978682,4.776 c 0.012,0 0.028,-0.004 0.04,-0.004 0.628,0 1.032,0.516 1.032,1.052 0,0.308 -0.132,0.62 -0.432,0.844 -0.088,0.064 -0.184,0.116 -0.288,0.148 0.012,0.132 0.016,0.264 0.016,0.396 0,0.084 0,0.164 -0.004,0.248 -0.028,0.484 -0.364,0.916 -0.844,0.916 -0.432,0 -0.784,-0.352 -0.784,-0.788 0,-0.232 0.216,-0.412 0.452,-0.412 0.216,0 0.38,0.188 0.38,0.412 0,0.208 -0.172,0.38 -0.38,0.38 -0.036,0 -0.072,-0.004 -0.108,-0.016 0.1,0.148 0.264,0.244 0.452,0.244 0.38,0 0.624,-0.372 0.648,-0.764 0.004,-0.076 0.008,-0.152 0.008,-0.228 0,-0.116 -0.004,-0.232 -0.012,-0.348 -0.116,0.02 -0.232,0.032 -0.352,0.032 -0.756,0 -1.332,-0.692 -1.332,-1.504 0,-0.708 0.516,-1.232 0.976,-1.772 -0.08,-0.248 -0.16,-0.496 -0.192,-0.756 -0.028,-0.208 -0.028,-0.42 -0.028,-0.632 0,-0.456 0.216,-0.884 0.588,-1.152 0.016,-0.012 0.032,-0.016 0.048,-0.016 0.02,0 0.036,0.008 0.052,0.02 0.288,0.332 0.54,0.972 0.54,1.424 0,0.568 -0.336,1.02 -0.704,1.456 0.084,0.272 0.16,0.544 0.228,0.82 z m 0.336,1.86 c 0.26,-0.096 0.44,-0.376 0.44,-0.644 0,-0.352 -0.256,-0.7 -0.668,-0.752 0.096,0.456 0.176,0.908 0.228,1.396 z m -1.544,-0.904 c 0,0.532 0.512,0.972 1.044,0.972 0.108,0 0.22,-0.004 0.324,-0.02 -0.052,-0.504 -0.14,-0.976 -0.24,-1.448 -0.316,0.032 -0.496,0.24 -0.496,0.472 0,0.172 0.1,0.352 0.32,0.48 0.02,0.02 0.028,0.044 0.028,0.068 0,0.048 -0.04,0.092 -0.092,0.092 -0.012,0 -0.028,-0.004 -0.04,-0.008 -0.324,-0.172 -0.472,-0.46 -0.472,-0.744 0,-0.356 0.24,-0.708 0.652,-0.8 -0.056,-0.228 -0.12,-0.452 -0.188,-0.676 -0.42,0.488 -0.84,0.972 -0.84,1.612 z m 1.304,-4.052 c -0.396,0.184 -0.644,0.58 -0.644,1.016 0,0.284 0.084,0.52 0.156,0.752 0.312,-0.388 0.568,-0.796 0.568,-1.296 0,-0.204 -0.016,-0.288 -0.08,-0.472 z"
     id="path202"
     inkscape:connector-curvature="0"
     style="fill:currentColor;stroke-width:0.004" />
  <a
     style="color:inherit"
     xlink:href="textedit://C:/Users/tikeda/Documents/git/LotusRoot/sco.txt:2:10:11"
     id="a206"
     transform="translate(-6.1203179,-4.5566)">
    <path
       transform="matrix(0.004,0,0,-0.004,26.4659,8.8886)"
       d="m 310,63 c 0,23 -19,40 -40,40 -4,0 -8,-1 -12,-2 C 228,93 183,63 147,40 111,17 66,-12 46,-36 39,-44 36,-53 36,-63 c 0,-23 19,-40 40,-40 4,0 8,1 12,2 30,8 75,38 111,61 36,23 81,52 101,76 7,8 10,17 10,27 z m -54,75 c 50,0 90,-22 90,-77 0,-18 -5,-37 -10,-55 -11,-38 -30,-74 -63,-96 -53,-35 -111,-48 -183,-48 -50,0 -90,22 -90,77 0,18 5,37 10,55 11,38 30,74 63,96 53,36 111,48 183,48 z"
       id="path204"
       inkscape:connector-curvature="0"
       style="fill:currentColor" />
  </a>
  <path
     d="m 31.959182,3.184 -0.008,0.248 v 0.044 c 0,0.088 0.008,0.172 0.02,0.256 0.172,-0.152 0.356,-0.32 0.356,-0.548 0,-0.128 -0.056,-0.26 -0.168,-0.26 -0.124,0 -0.196,0.128 -0.2,0.26 z m -0.188,0.708 -0.056,-2.36 c 0.036,-0.02 0.08,-0.032 0.12,-0.032 0.04,0 0.084,0.012 0.12,0.032 l -0.032,1.36 c 0.1,-0.096 0.236,-0.152 0.376,-0.152 0.2,0 0.336,0.2 0.336,0.416 0,0.312 -0.332,0.468 -0.564,0.676 -0.068,0.06 -0.1,0.176 -0.196,0.176 -0.06,0 -0.104,-0.052 -0.104,-0.116 z"
     id="path208"
     inkscape:connector-curvature="0"
     style="fill:currentColor;stroke-width:0.004" />
  <rect
     x="32.985184"
     y="3.5033"
     width="0.1514"
     height="4.6262002"
     ry="0.050000001"
     id="rect210"
     style="fill:currentColor" />
  <a
     style="color:inherit"
     xlink:href="textedit://C:/Users/tikeda/Documents/git/LotusRoot/sco.txt:2:23:24"
     id="a214"
     transform="translate(-6.1203179,-4.5566)">
    <path
       transform="matrix(0.004,0,0,-0.004,39.1055,7.8886)"
       d="m 212,138 c 59,0 113,-31 113,-95 0,-71 -52,-120 -99,-148 -34,-21 -73,-33 -113,-33 -59,0 -113,31 -113,95 0,71 53,120 100,148 34,21 72,33 112,33 z"
       id="path212"
       inkscape:connector-curvature="0"
       style="fill:currentColor" />
  </a>
  <rect
     x="26.979282"
     y="4.5033002"
     width="0.1514"
     height="3.3287001"
     ry="0.050000001"
     id="rect216"
     style="fill:currentColor" />
  <path
     d="m 28.721582,4.332 c 0,-0.12 0.1,-0.22 0.22,-0.22 0.12,0 0.22,0.1 0.22,0.22 0,0.12 -0.1,0.22 -0.22,0.22 -0.12,0 -0.22,-0.1 -0.22,-0.22 z"
     id="path218"
     inkscape:connector-curvature="0"
     style="fill:currentColor;stroke-width:0.004" />
  <a
     style="color:inherit"
     xlink:href="textedit://C:/Users/tikeda/Documents/git/LotusRoot/sco.txt:2:17:18"
     id="a222"
     transform="translate(-6.1203179,-4.5566)">
    <path
       transform="matrix(0.004,0,0,-0.004,33.0996,8.8886)"
       d="m 212,138 c 59,0 113,-31 113,-95 0,-71 -52,-120 -99,-148 -34,-21 -73,-33 -113,-33 -59,0 -113,31 -113,95 0,71 53,120 100,148 34,21 72,33 112,33 z"
       id="path220"
       inkscape:connector-curvature="0"
       style="fill:currentColor" />
  </a>
  <rect
     x="59.359383"
     y="3.0033"
     width="0.1514"
     height="4.7382998"
     ry="0.050000001"
     id="rect224"
     style="fill:currentColor" />
  <rect
     x="61.972683"
     y="2.5033"
     width="0.1514"
     height="5.1504998"
     ry="0.050000001"
     id="rect226"
     style="fill:currentColor" />
  <a
     style="color:inherit"
     xlink:href="textedit://C:/Users/tikeda/Documents/git/LotusRoot/sco.txt:3:49:50"
     id="a230"
     transform="translate(-6.1203179,-4.5566)">
    <path
       transform="matrix(0.004,0,0,-0.004,71.3968,6.3886)"
       d="m 212,138 c 59,0 113,-31 113,-95 0,-71 -52,-120 -99,-148 -34,-21 -73,-33 -113,-33 -59,0 -113,31 -113,95 0,71 53,120 100,148 34,21 72,33 112,33 z"
       id="path228"
       inkscape:connector-curvature="0"
       style="fill:currentColor" />
  </a>
  <rect
     x="65.276482"
     y="2.0033"
     width="0.1514"
     height="5.5394001"
     ry="0.050000001"
     id="rect232"
     style="fill:currentColor" />
  <a
     style="color:inherit"
     xlink:href="textedit://C:/Users/tikeda/Documents/git/LotusRoot/sco.txt:3:43:44"
     id="a236"
     transform="translate(-6.1203179,-4.5566)">
    <path
       transform="matrix(0.004,0,0,-0.004,68.093,6.8886)"
       d="m 212,138 c 59,0 113,-31 113,-95 0,-71 -52,-120 -99,-148 -34,-21 -73,-33 -113,-33 -59,0 -113,31 -113,95 0,71 53,120 100,148 34,21 72,33 112,33 z"
       id="path234"
       inkscape:connector-curvature="0"
       style="fill:currentColor" />
  </a>
  <path
     d="m 64.250482,1.684 -0.008,0.248 v 0.044 c 0,0.088 0.008,0.172 0.02,0.256 0.172,-0.152 0.356,-0.32 0.356,-0.548 0,-0.128 -0.056,-0.26 -0.168,-0.26 -0.124,0 -0.196,0.128 -0.2,0.26 z m -0.188,0.708 -0.056,-2.36 c 0.036,-0.02 0.08,-0.032 0.12,-0.032 0.04,0 0.084,0.012 0.12,0.032 l -0.032,1.36 c 0.1,-0.096 0.236,-0.152 0.376,-0.152 0.2,0 0.336,0.2 0.336,0.416 0,0.312 -0.332,0.468 -0.564,0.676 -0.068,0.06 -0.1,0.176 -0.196,0.176 -0.06,0 -0.104,-0.052 -0.104,-0.116 z"
     id="path238"
     inkscape:connector-curvature="0"
     style="fill:currentColor;stroke-width:0.004" />
  <a
     style="color:inherit"
     xlink:href="textedit://C:/Users/tikeda/Documents/git/LotusRoot/sco.txt:4:0:1"
     id="a242"
     transform="translate(-6.1203179,-4.5566)">
    <path
       transform="matrix(0.004,0,0,-0.004,75.0851,8.3886)"
       d="m 212,138 c 59,0 113,-31 113,-95 0,-71 -52,-120 -99,-148 -34,-21 -73,-33 -113,-33 -59,0 -113,31 -113,95 0,71 53,120 100,148 34,21 72,33 112,33 z"
       id="path240"
       inkscape:connector-curvature="0"
       style="fill:currentColor" />
  </a>
  <rect
     x="68.964783"
     y="4.0033002"
     width="0.1514"
     height="3.3287001"
     ry="0.050000001"
     id="rect244"
     style="fill:currentColor" />
  <rect
     x="51.507782"
     y="3.5033"
     width="0.1514"
     height="3.3287001"
     ry="0.050000001"
     id="rect246"
     style="fill:currentColor" />
  <a
     style="color:inherit"
     xlink:href="textedit://C:/Users/tikeda/Documents/git/LotusRoot/sco.txt:3:20:21"
     id="a250"
     transform="translate(-6.1203179,-4.5566)">
    <path
       transform="matrix(0.004,0,0,-0.004,57.6282,7.8886)"
       d="m 212,138 c 59,0 113,-31 113,-95 0,-71 -52,-120 -99,-148 -34,-21 -73,-33 -113,-33 -59,0 -113,31 -113,95 0,71 53,120 100,148 34,21 72,33 112,33 z"
       id="path248"
       inkscape:connector-curvature="0"
       style="fill:currentColor" />
  </a>
  <a
     style="color:inherit"
     xlink:href="textedit://C:/Users/tikeda/Documents/git/LotusRoot/sco.txt:3:29:30"
     id="a254"
     transform="translate(-6.1203179,-4.5566)">
    <path
       transform="matrix(0.004,0,0,-0.004,62.8664,7.8886)"
       d="m 212,138 c 59,0 113,-31 113,-95 0,-71 -52,-120 -99,-148 -34,-21 -73,-33 -113,-33 -59,0 -113,31 -113,95 0,71 53,120 100,148 34,21 72,33 112,33 z"
       id="path252"
       inkscape:connector-curvature="0"
       style="fill:currentColor" />
  </a>
  <rect
     x="56.746082"
     y="3.5033"
     width="0.1514"
     height="4.3260999"
     ry="0.050000001"
     id="rect256"
     style="fill:currentColor" />
  <a
     style="color:inherit"
     xlink:href="textedit://C:/Users/tikeda/Documents/git/LotusRoot/sco.txt:3:37:38"
     id="a260"
     transform="translate(-6.1203179,-4.5566)">
    <path
       transform="matrix(0.004,0,0,-0.004,65.4797,7.3886)"
       d="m 212,138 c 59,0 113,-31 113,-95 0,-71 -52,-120 -99,-148 -34,-21 -73,-33 -113,-33 -59,0 -113,31 -113,95 0,71 53,120 100,148 34,21 72,33 112,33 z"
       id="path258"
       inkscape:connector-curvature="0"
       style="fill:currentColor" />
  </a>
  <path
     d="m 47.868582,3.184 -0.008,0.248 v 0.044 c 0,0.088 0.008,0.172 0.02,0.256 0.172,-0.152 0.356,-0.32 0.356,-0.548 0,-0.128 -0.056,-0.26 -0.168,-0.26 -0.124,0 -0.196,0.128 -0.2,0.26 z m -0.188,0.708 -0.056,-2.36 c 0.036,-0.02 0.08,-0.032 0.12,-0.032 0.04,0 0.084,0.012 0.12,0.032 l -0.032,1.36 c 0.1,-0.096 0.236,-0.152 0.376,-0.152 0.2,0 0.336,0.2 0.336,0.416 0,0.312 -0.332,0.468 -0.564,0.676 -0.068,0.06 -0.1,0.176 -0.196,0.176 -0.06,0 -0.104,-0.052 -0.104,-0.116 z"
     id="path262"
     inkscape:connector-curvature="0"
     style="fill:currentColor;stroke-width:0.004" />
  <line
     x1="1.0510821"
     y1="18.832001"
     x2="136.0853"
     y2="18.832001"
     id="line264"
     style="stroke:currentColor;stroke-width:0.1164;stroke-linecap:round;stroke-linejoin:round" />
  <line
     x1="1.0510821"
     y1="17.832001"
     x2="136.0853"
     y2="17.832001"
     id="line266"
     style="stroke:currentColor;stroke-width:0.1164;stroke-linecap:round;stroke-linejoin:round" />
  <line
     x1="1.0510821"
     y1="16.832001"
     x2="136.0853"
     y2="16.832001"
     id="line268"
     style="stroke:currentColor;stroke-width:0.1164;stroke-linecap:round;stroke-linejoin:round" />
  <line
     x1="1.0510821"
     y1="15.832"
     x2="136.0853"
     y2="15.832"
     id="line270"
     style="stroke:currentColor;stroke-width:0.1164;stroke-linecap:round;stroke-linejoin:round" />
  <line
     x1="1.0510821"
     y1="14.832"
     x2="136.0853"
     y2="14.832"
     id="line272"
     style="stroke:currentColor;stroke-width:0.1164;stroke-linecap:round;stroke-linejoin:round" />
  <rect
     x="122.71088"
     y="14.832"
     width="0.2212"
     height="4"
     ry="0.0000"
     id="rect274"
     style="fill:currentColor" />
  <rect
     x="91.785278"
     y="14.832"
     width="0.2212"
     height="4"
     ry="0.0000"
     id="rect276"
     style="fill:currentColor" />
  <rect
     x="135.92229"
     y="14.832"
     width="0.2212"
     height="4"
     ry="0.0000"
     id="rect278"
     style="fill:currentColor" />
  <rect
     x="60.052681"
     y="14.832"
     width="0.2212"
     height="4"
     ry="0.0000"
     id="rect280"
     style="fill:currentColor" />
  <rect
     x="32.547382"
     y="14.832"
     width="0.2212"
     height="4"
     ry="0.0000"
     id="rect282"
     style="fill:currentColor" />
  <rect
     x="93.048386"
     y="16.5033"
     width="0.1514"
     height="3.3287001"
     ry="0.050000001"
     id="rect284"
     style="fill:currentColor" />
  <path
     d="m 94.790682,16.332 c 0,-0.12 0.1,-0.22 0.22,-0.22 0.12,0 0.22,0.1 0.22,0.22 0,0.12 -0.1,0.22 -0.22,0.22 -0.12,0 -0.22,-0.1 -0.22,-0.22 z"
     id="path286"
     inkscape:connector-curvature="0"
     style="fill:currentColor;stroke-width:0.004" />
  <a
     style="color:inherit"
     xlink:href="textedit://C:/Users/tikeda/Documents/git/LotusRoot/sco.txt:10:0:1"
     id="a290"
     transform="translate(-6.1203179,-4.5566)">
    <path
       transform="matrix(0.004,0,0,-0.004,99.1688,20.8886)"
       d="m 212,138 c 59,0 113,-31 113,-95 0,-71 -52,-120 -99,-148 -34,-21 -73,-33 -113,-33 -59,0 -113,31 -113,95 0,71 53,120 100,148 34,21 72,33 112,33 z"
       id="path288"
       inkscape:connector-curvature="0"
       style="fill:currentColor" />
  </a>
  <a
     style="color:inherit"
     xlink:href="textedit://C:/Users/tikeda/Documents/git/LotusRoot/sco.txt:10:19:20"
     id="a294"
     transform="translate(-6.1203179,-4.5566)">
    <path
       transform="matrix(0.004,0,0,-0.004,110.8782,20.8886)"
       d="m 212,138 c 59,0 113,-31 113,-95 0,-71 -52,-120 -99,-148 -34,-21 -73,-33 -113,-33 -59,0 -113,31 -113,95 0,71 53,120 100,148 34,21 72,33 112,33 z"
       id="path292"
       inkscape:connector-curvature="0"
       style="fill:currentColor" />
  </a>
  <rect
     x="102.48348"
     y="14.5033"
     width="0.1514"
     height="5.8287001"
     ry="0.050000001"
     id="rect296"
     style="fill:currentColor" />
  <a
     style="color:inherit"
     xlink:href="textedit://C:/Users/tikeda/Documents/git/LotusRoot/sco.txt:10:13:14"
     id="a300"
     transform="translate(-6.1203179,-4.5566)">
    <path
       transform="matrix(0.004,0,0,-0.004,108.6039,18.8886)"
       d="m 212,138 c 59,0 113,-31 113,-95 0,-71 -52,-120 -99,-148 -34,-21 -73,-33 -113,-33 -59,0 -113,31 -113,95 0,71 53,120 100,148 34,21 72,33 112,33 z"
       id="path298"
       inkscape:connector-curvature="0"
       style="fill:currentColor" />
  </a>
  <path
     d="m 98.077582,16.148 c -0.048,0 -0.084,-0.036 -0.084,-0.084 v -0.552 l -0.316,0.12 v 0.616 c 0,0.048 -0.036,0.084 -0.084,0.084 -0.048,0 -0.084,-0.036 -0.084,-0.084 v -0.552 l -0.088,0.032 c -0.012,0.004 -0.024,0.008 -0.036,0.008 -0.052,0 -0.1,-0.044 -0.1,-0.1 V 15.42 c 0,-0.04 0.024,-0.08 0.064,-0.096 l 0.16,-0.06 v -0.62 l -0.088,0.036 c -0.012,0.004 -0.024,0.004 -0.036,0.004 -0.052,0 -0.1,-0.044 -0.1,-0.1 v -0.216 c 0,-0.04 0.024,-0.076 0.064,-0.092 l 0.16,-0.06 V 13.6 c 0,-0.048 0.036,-0.084 0.084,-0.084 0.048,0 0.084,0.036 0.084,0.084 v 0.552 l 0.316,-0.12 v -0.616 c 0,-0.048 0.036,-0.084 0.084,-0.084 0.048,0 0.084,0.036 0.084,0.084 v 0.552 l 0.088,-0.032 c 0.012,-0.004 0.024,-0.008 0.036,-0.008 0.052,0 0.1,0.044 0.1,0.1 v 0.216 c 0,0.04 -0.024,0.08 -0.064,0.096 l -0.16,0.06 v 0.62 l 0.088,-0.036 c 0.012,-0.004 0.024,-0.004 0.036,-0.004 0.052,0 0.1,0.044 0.1,0.1 v 0.216 c 0,0.04 -0.024,0.076 -0.064,0.092 l -0.16,0.06 v 0.616 c 0,0.048 -0.036,0.084 -0.084,0.084 z m -0.4,-1.564 V 15.2 l 0.316,-0.12 v -0.616 z"
     id="path302"
     inkscape:connector-curvature="0"
     style="fill:currentColor;stroke-width:0.004" />
  <rect
     x="104.75788"
     y="16.5033"
     width="0.1514"
     height="3.8287001"
     ry="0.050000001"
     id="rect304"
     style="fill:currentColor" />
  <path
     d="m 98.886982,18.282 h -0.076 v -1 h 0.076 c 0.38,-0.236 0.88,-0.596 0.88,-1.036 0,-0.224 -0.064,-0.444 -0.164,-0.644 -0.012,-0.072 0.048,-0.12 0.104,-0.12 0.032,0 0.068,0.016 0.088,0.052 0.1,0.224 0.16,0.464 0.16,0.712 0,0.812 -1.068,1.224 -1.068,2.036 z"
     id="path306"
     inkscape:connector-curvature="0"
     style="fill:currentColor;stroke-width:0.004" />
  <rect
     x="98.73558"
     y="15.0033"
     width="0.1514"
     height="3.3287001"
     ry="0.050000001"
     id="rect308"
     style="fill:currentColor" />
  <a
     style="color:inherit"
     xlink:href="textedit://C:/Users/tikeda/Documents/git/LotusRoot/sco.txt:10:6:7"
     id="a312"
     transform="translate(-6.1203179,-4.5566)">
    <path
       transform="matrix(0.004,0,0,-0.004,104.8559,19.3886)"
       d="m 212,138 c 59,0 113,-31 113,-95 0,-71 -52,-120 -99,-148 -34,-21 -73,-33 -113,-33 -59,0 -113,31 -113,95 0,71 53,120 100,148 34,21 72,33 112,33 z"
       id="path310"
       inkscape:connector-curvature="0"
       style="fill:currentColor" />
  </a>
  <rect
     x="76.614082"
     y="16.5033"
     width="0.1514"
     height="4.6244998"
     ry="0.050000001"
     id="rect314"
     style="fill:currentColor" />
  <a
     style="color:inherit"
     xlink:href="textedit://C:/Users/tikeda/Documents/git/LotusRoot/sco.txt:9:21:22"
     id="a318"
     transform="translate(-6.1203179,-4.5566)">
    <path
       transform="matrix(0.004,0,0,-0.004,82.7344,20.8886)"
       d="m 212,138 c 59,0 113,-31 113,-95 0,-71 -52,-120 -99,-148 -34,-21 -73,-33 -113,-33 -59,0 -113,31 -113,95 0,71 53,120 100,148 34,21 72,33 112,33 z"
       id="path316"
       inkscape:connector-curvature="0"
       style="fill:currentColor" />
  </a>
  <path
     d="m 71.840182,16.684 -0.008,0.248 v 0.044 c 0,0.088 0.008,0.172 0.02,0.256 0.172,-0.152 0.356,-0.32 0.356,-0.548 0,-0.128 -0.056,-0.26 -0.168,-0.26 -0.124,0 -0.196,0.128 -0.2,0.26 z m -0.188,0.708 -0.056,-2.36 c 0.036,-0.02 0.08,-0.032 0.12,-0.032 0.04,0 0.084,0.012 0.12,0.032 l -0.032,1.36 c 0.1,-0.096 0.236,-0.152 0.376,-0.152 0.2,0 0.336,0.2 0.336,0.416 0,0.312 -0.332,0.468 -0.564,0.676 -0.068,0.06 -0.1,0.176 -0.196,0.176 -0.06,0 -0.104,-0.052 -0.104,-0.116 z"
     id="path320"
     inkscape:connector-curvature="0"
     style="fill:currentColor;stroke-width:0.004" />
  <path
     d="m 73.017482,20.157 h -0.076 v -1 h 0.076 c 0.38,-0.236 0.88,-0.596 0.88,-1.036 0,-0.224 -0.064,-0.444 -0.164,-0.644 -0.012,-0.072 0.048,-0.12 0.104,-0.12 0.032,0 0.068,0.016 0.088,0.052 0.1,0.224 0.16,0.464 0.16,0.712 0,0.812 -1.068,1.224 -1.068,2.036 z"
     id="path322"
     inkscape:connector-curvature="0"
     style="fill:currentColor;stroke-width:0.004" />
  <rect
     x="72.866081"
     y="17.0033"
     width="0.1514"
     height="3.2037001"
     ry="0.050000001"
     id="rect324"
     style="fill:currentColor" />
  <a
     style="color:inherit"
     xlink:href="textedit://C:/Users/tikeda/Documents/git/LotusRoot/sco.txt:9:15:16"
     id="a328"
     transform="translate(-6.1203179,-4.5566)">
    <path
       transform="matrix(0.004,0,0,-0.004,78.9865,21.3886)"
       d="m 212,138 c 59,0 113,-31 113,-95 0,-71 -52,-120 -99,-148 -34,-21 -73,-33 -113,-33 -59,0 -113,31 -113,95 0,71 53,120 100,148 34,21 72,33 112,33 z"
       id="path326"
       inkscape:connector-curvature="0"
       style="fill:currentColor" />
  </a>
  <a
     style="color:inherit"
     xlink:href="textedit://C:/Users/tikeda/Documents/git/LotusRoot/sco.txt:9:12:13"
     id="a332"
     transform="translate(-6.1203179,-4.5566)">
    <path
       transform="matrix(0.004,0,0,-0.004,75.5394,21.3886)"
       d="M 67,-250 185,76 C 152,64 119,54 84,54 38,54 -3,88 -3,133 c 0,40 33,72 73,72 25,0 49,-14 57,-37 10,-27 4,-59 33,-59 14,0 50,42 56,55 7,14 28,14 34,0 L 131,-250 c -9,-8 -21,-12 -32,-12 -11,0 -23,4 -32,12 z"
       id="path330"
       inkscape:connector-curvature="0"
       style="fill:currentColor" />
  </a>
  <polygon
     transform="translate(13.629582,12.832)"
     points="2.6257,-0.0082 2.6257,0.5918 0.05,0.3 0.05,-0.3 "
     id="polygon334"
     style="fill:currentColor;stroke:currentColor;stroke-width:0.1;stroke-linecap:round;stroke-linejoin:round" />
  <polygon
     transform="translate(13.629582,13.9635)"
     points="2.6257,-0.0082 2.6257,0.5918 0.05,0.3 0.05,-0.3 "
     id="polygon336"
     style="fill:currentColor;stroke:currentColor;stroke-width:0.1;stroke-linecap:round;stroke-linejoin:round" />
  <a
     style="color:inherit"
     xlink:href="textedit://C:/Users/tikeda/Documents/git/LotusRoot/sco.txt:9:32:33"
     id="a340"
     transform="translate(-6.1203179,-4.5566)">
    <path
       transform="matrix(0.004,0,0,-0.004,90.2078,21.8886)"
       d="m 212,138 c 59,0 113,-31 113,-95 0,-71 -52,-120 -99,-148 -34,-21 -73,-33 -113,-33 -59,0 -113,31 -113,95 0,71 53,120 100,148 34,21 72,33 112,33 z"
       id="path338"
       inkscape:connector-curvature="0"
       style="fill:currentColor" />
  </a>
  <rect
     x="88.984779"
     y="13.1181"
     width="0.1514"
     height="4.5425"
     ry="0.050000001"
     id="rect342"
     style="fill:currentColor" />
  <a
     style="color:inherit"
     xlink:href="textedit://C:/Users/tikeda/Documents/git/LotusRoot/sco.txt:9:38:39"
     id="a346"
     transform="translate(-6.1203179,-4.5566)">
    <path
       transform="matrix(0.004,0,0,-0.004,93.9557,22.3886)"
       d="m 212,138 c 59,0 113,-31 113,-95 0,-71 -52,-120 -99,-148 -34,-21 -73,-33 -113,-33 -59,0 -113,31 -113,95 0,71 53,120 100,148 34,21 72,33 112,33 z"
       id="path344"
       inkscape:connector-curvature="0"
       style="fill:currentColor" />
  </a>
  <path
     d="m 83.061482,17.184 -0.008,0.248 v 0.044 c 0,0.088 0.008,0.172 0.02,0.256 0.172,-0.152 0.356,-0.32 0.356,-0.548 0,-0.128 -0.056,-0.26 -0.168,-0.26 -0.124,0 -0.196,0.128 -0.2,0.26 z m -0.188,0.708 -0.056,-2.36 c 0.036,-0.02 0.08,-0.032 0.12,-0.032 0.04,0 0.084,0.012 0.12,0.032 l -0.032,1.36 c 0.1,-0.096 0.236,-0.152 0.376,-0.152 0.2,0 0.336,0.2 0.336,0.416 0,0.312 -0.332,0.468 -0.564,0.676 -0.068,0.06 -0.1,0.176 -0.196,0.176 -0.06,0 -0.104,-0.052 -0.104,-0.116 z"
     id="path348"
     inkscape:connector-curvature="0"
     style="fill:currentColor;stroke-width:0.004" />
  <rect
     x="85.236885"
     y="12.8377"
     width="0.1514"
     height="4.323"
     ry="0.050000001"
     id="rect350"
     style="fill:currentColor" />
  <path
     d="m 79.335982,16.684 -0.008,0.248 v 0.044 c 0,0.088 0.008,0.172 0.02,0.256 0.172,-0.152 0.356,-0.32 0.356,-0.548 0,-0.128 -0.056,-0.26 -0.168,-0.26 -0.124,0 -0.196,0.128 -0.2,0.26 z m -0.188,0.708 -0.056,-2.36 c 0.036,-0.02 0.08,-0.032 0.12,-0.032 0.04,0 0.084,0.012 0.12,0.032 l -0.032,1.36 c 0.1,-0.096 0.236,-0.152 0.376,-0.152 0.2,0 0.336,0.2 0.336,0.416 0,0.312 -0.332,0.468 -0.564,0.676 -0.068,0.06 -0.1,0.176 -0.196,0.176 -0.06,0 -0.104,-0.052 -0.104,-0.116 z"
     id="path352"
     inkscape:connector-curvature="0"
     style="fill:currentColor;stroke-width:0.004" />
  <rect
     x="80.361984"
     y="17.0033"
     width="0.1514"
     height="4.3246002"
     ry="0.050000001"
     id="rect354"
     style="fill:currentColor" />
  <a
     style="color:inherit"
     xlink:href="textedit://C:/Users/tikeda/Documents/git/LotusRoot/sco.txt:9:26:27"
     id="a358"
     transform="translate(-6.1203179,-4.5566)">
    <path
       transform="matrix(0.004,0,0,-0.004,86.4823,21.3886)"
       d="m 212,138 c 59,0 113,-31 113,-95 0,-71 -52,-120 -99,-148 -34,-21 -73,-33 -113,-33 -59,0 -113,31 -113,95 0,71 53,120 100,148 34,21 72,33 112,33 z"
       id="path356"
       inkscape:connector-curvature="0"
       style="fill:currentColor" />
  </a>
  <path
     d="m 130.75378,16.332 c 0,-0.12 0.1,-0.22 0.22,-0.22 0.12,0 0.22,0.1 0.22,0.22 0,0.12 -0.1,0.22 -0.22,0.22 -0.12,0 -0.22,-0.1 -0.22,-0.22 z"
     id="path360"
     inkscape:connector-curvature="0"
     style="fill:currentColor;stroke-width:0.004" />
  <a
     style="color:inherit"
     xlink:href="textedit://C:/Users/tikeda/Documents/git/LotusRoot/sco.txt:11:4:5"
     id="a364"
     transform="translate(-6.1203179,-4.5566)">
    <path
       transform="matrix(0.004,0,0,-0.004,134.9327,21.3886)"
       d="M 362,0 H 13 C 6,0 0,6 0,13 v 131 c 0,7 6,12 13,12 h 349 c 7,0 13,-5 13,-12 V 13 C 375,6 369,0 362,0 Z"
       id="path362"
       inkscape:connector-curvature="0"
       style="fill:currentColor" />
  </a>
  <polygon
     transform="translate(114.86158,12.5402)"
     points="6.3737,-0.0082 6.3737,0.5918 0.05,0.3 0.05,-0.3 "
     id="polygon366"
     style="fill:currentColor;stroke:currentColor;stroke-width:0.1;stroke-linecap:round;stroke-linejoin:round" />
  <polygon
     transform="translate(118.60948,13.842)"
     points="2.6257,-0.1785 2.6257,0.4215 0.05,0.3 0.05,-0.3 "
     id="polygon368"
     style="fill:currentColor;stroke:currentColor;stroke-width:0.1;stroke-linecap:round;stroke-linejoin:round" />
  <polygon
     transform="translate(18.678282,13.5402)"
     points="7.0642,-0.0082 7.0642,0.5918 0.05,0.3 0.05,-0.3 "
     id="polygon370"
     style="fill:currentColor;stroke:currentColor;stroke-width:0.1;stroke-linecap:round;stroke-linejoin:round" />
  <polygon
     transform="translate(22.426182,14.8254)"
     points="3.3163,-0.1619 3.3163,0.4381 0.05,0.3 0.05,-0.3 "
     id="polygon372"
     style="fill:currentColor;stroke:currentColor;stroke-width:0.1;stroke-linecap:round;stroke-linejoin:round" />
  <a
     style="color:inherit"
     xlink:href="textedit://C:/Users/tikeda/Documents/git/LotusRoot/sco.txt:7:39:40"
     id="a376"
     transform="translate(-6.1203179,-4.5566)">
    <path
       transform="translate(33.8269,21.3886)"
       d="m 1.5008,-0.1978 c 0.8274,-0.8075 3.5472,-0.8075 4.3746,0 v 0 c -0.8274,-0.6678 -3.5472,-0.6678 -4.3746,0 z"
       id="path374"
       inkscape:connector-curvature="0"
       style="fill:currentColor;stroke:currentColor;stroke-width:0.0931;stroke-linecap:round;stroke-linejoin:round" />
  </a>
  <polygon
     transform="translate(33.781982,21.1238)"
     points="4.0993,-0.5918 4.0993,0.0082 0.05,0.3 0.05,-0.3 "
     id="polygon378"
     style="fill:currentColor;stroke:currentColor;stroke-width:0.1;stroke-linecap:round;stroke-linejoin:round" />
  <polygon
     transform="translate(42.297682,12.5402)"
     points="4.565,-0.5082 4.565,0.0918 0.05,0.3 0.05,-0.3 "
     id="polygon380"
     style="fill:currentColor;stroke:currentColor;stroke-width:0.1;stroke-linecap:round;stroke-linejoin:round" />
  <polygon
     transform="translate(45.736982,13.5165)"
     points="1.1257,-0.353 1.1257,0.247 0.05,0.3 0.05,-0.3 "
     id="polygon382"
     style="fill:currentColor;stroke:currentColor;stroke-width:0.1;stroke-linecap:round;stroke-linejoin:round" />
  <polygon
     transform="translate(62.173182,20.1238)"
     points="3.8493,-0.0918 3.8493,0.5082 0.05,0.3 0.05,-0.3 "
     id="polygon384"
     style="fill:currentColor;stroke:currentColor;stroke-width:0.1;stroke-linecap:round;stroke-linejoin:round" />
  <polygon
     transform="translate(76.614082,21.1238)"
     points="3.8493,-0.0918 3.8493,0.5082 0.05,0.3 0.05,-0.3 "
     id="polygon386"
     style="fill:currentColor;stroke:currentColor;stroke-width:0.1;stroke-linecap:round;stroke-linejoin:round" />
  <polygon
     transform="translate(85.236882,12.832)"
     points="3.8493,-0.0082 3.8493,0.5918 0.05,0.3 0.05,-0.3 "
     id="polygon388"
     style="fill:currentColor;stroke:currentColor;stroke-width:0.1;stroke-linecap:round;stroke-linejoin:round" />
  <polygon
     transform="translate(102.48358,19.2005)"
     points="8.115,-0.3 8.115,0.3 0.05,0.3 0.05,-0.3 "
     id="polygon390"
     style="fill:currentColor;stroke:currentColor;stroke-width:0.1;stroke-linecap:round;stroke-linejoin:round" />
  <polygon
     transform="translate(102.48358,20.332)"
     points="8.115,-0.3 8.115,0.3 0.05,0.3 0.05,-0.3 "
     id="polygon392"
     style="fill:currentColor;stroke:currentColor;stroke-width:0.1;stroke-linecap:round;stroke-linejoin:round" />
  <rect
     x="124.99038"
     y="14.332"
     width="0.1514"
     height="3.3287001"
     ry="0.050000001"
     id="rect394"
     style="fill:currentColor" />
  <rect
     x="48.136181"
     y="17.0033"
     width="0.1514"
     height="3.1619999"
     ry="0.050000001"
     id="rect396"
     style="fill:currentColor" />
  <rect
     x="114.86158"
     y="12.5437"
     width="0.1514"
     height="4.1170001"
     ry="0.050000001"
     id="rect398"
     style="fill:currentColor" />
  <a
     style="color:inherit"
     xlink:href="textedit://C:/Users/tikeda/Documents/git/LotusRoot/sco.txt:10:39:40"
     id="a402"
     transform="translate(-6.1203179,-4.5566)">
    <path
       transform="matrix(0.004,0,0,-0.004,119.8324,21.3886)"
       d="m 212,138 c 59,0 113,-31 113,-95 0,-71 -52,-120 -99,-148 -34,-21 -73,-33 -113,-33 -59,0 -113,31 -113,95 0,71 53,120 100,148 34,21 72,33 112,33 z"
       id="path400"
       inkscape:connector-curvature="0"
       style="fill:currentColor" />
  </a>
  <path
     d="m 109.47118,15.184 -0.008,0.248 v 0.044 c 0,0.088 0.008,0.172 0.02,0.256 0.172,-0.152 0.356,-0.32 0.356,-0.548 0,-0.128 -0.056,-0.26 -0.168,-0.26 -0.124,0 -0.196,0.128 -0.2,0.26 z m -0.188,0.708 -0.056,-2.36 c 0.036,-0.02 0.08,-0.032 0.12,-0.032 0.04,0 0.084,0.012 0.12,0.032 l -0.032,1.36 c 0.1,-0.096 0.236,-0.152 0.376,-0.152 0.2,0 0.336,0.2 0.336,0.416 0,0.312 -0.332,0.468 -0.564,0.676 -0.068,0.06 -0.1,0.176 -0.196,0.176 -0.06,0 -0.104,-0.052 -0.104,-0.116 z"
     id="path404"
     inkscape:connector-curvature="0"
     style="fill:currentColor;stroke-width:0.004" />
  <rect
     x="110.49718"
     y="15.5033"
     width="0.1514"
     height="4.8287001"
     ry="0.050000001"
     id="rect406"
     style="fill:currentColor" />
  <a
     style="color:inherit"
     xlink:href="textedit://C:/Users/tikeda/Documents/git/LotusRoot/sco.txt:10:31:32"
     id="a410"
     transform="translate(-6.1203179,-4.5566)">
    <path
       transform="matrix(0.004,0,0,-0.004,116.6175,19.8886)"
       d="m 212,138 c 59,0 113,-31 113,-95 0,-71 -52,-120 -99,-148 -34,-21 -73,-33 -113,-33 -59,0 -113,31 -113,95 0,71 53,120 100,148 34,21 72,33 112,33 z"
       id="path408"
       inkscape:connector-curvature="0"
       style="fill:currentColor" />
  </a>
  <rect
     x="107.28228"
     y="16.0033"
     width="0.1514"
     height="4.3287001"
     ry="0.050000001"
     id="rect412"
     style="fill:currentColor" />
  <a
     style="color:inherit"
     xlink:href="textedit://C:/Users/tikeda/Documents/git/LotusRoot/sco.txt:10:25:26"
     id="a416"
     transform="translate(-6.1203179,-4.5566)">
    <path
       transform="matrix(0.004,0,0,-0.004,113.4026,20.3886)"
       d="m 212,138 c 59,0 113,-31 113,-95 0,-71 -52,-120 -99,-148 -34,-21 -73,-33 -113,-33 -59,0 -113,31 -113,95 0,71 53,120 100,148 34,21 72,33 112,33 z"
       id="path414"
       inkscape:connector-curvature="0"
       style="fill:currentColor" />
  </a>
  <path
     d="m 116.38448,15.832 c 0.032,-0.02 0.072,-0.028 0.108,-0.028 0.036,0 0.072,0.008 0.104,0.028 l -0.012,0.768 0.408,-0.092 h 0.016 c 0.04,0 0.076,0.032 0.076,0.072 l 0.032,2.252 c -0.032,0.02 -0.072,0.028 -0.108,0.028 -0.036,0 -0.072,-0.008 -0.104,-0.028 l 0.008,-0.768 -0.404,0.092 h -0.016 c -0.04,0 -0.076,-0.032 -0.076,-0.072 z m 0.544,1.06 -0.348,0.076 -0.012,0.804 0.352,-0.076 z"
     id="path418"
     inkscape:connector-curvature="0"
     style="fill:currentColor;stroke-width:0.004" />
  <a
     style="color:inherit"
     xlink:href="textedit://C:/Users/tikeda/Documents/git/LotusRoot/sco.txt:11:0:1"
     id="a422"
     transform="translate(-6.1203179,-4.5566)">
    <path
       transform="matrix(0.004,0,0,-0.004,129.9612,22.3886)"
       d="m 212,138 c 59,0 113,-31 113,-95 0,-71 -52,-120 -99,-148 -34,-21 -73,-33 -113,-33 -59,0 -113,31 -113,95 0,71 53,120 100,148 34,21 72,33 112,33 z"
       id="path420"
       inkscape:connector-curvature="0"
       style="fill:currentColor" />
  </a>
  <rect
     x="121.13388"
     y="12.8286"
     width="0.1514"
     height="4.8320999"
     ry="0.050000001"
     id="rect424"
     style="fill:currentColor" />
  <a
     style="color:inherit"
     xlink:href="textedit://C:/Users/tikeda/Documents/git/LotusRoot/sco.txt:10:50:51"
     id="a428"
     transform="translate(-6.1203179,-4.5566)">
    <path
       transform="matrix(0.004,0,0,-0.004,126.1047,22.3886)"
       d="m 212,138 c 59,0 113,-31 113,-95 0,-71 -52,-120 -99,-148 -34,-21 -73,-33 -113,-33 -59,0 -113,31 -113,95 0,71 53,120 100,148 34,21 72,33 112,33 z"
       id="path426"
       inkscape:connector-curvature="0"
       style="fill:currentColor" />
  </a>
  <rect
     x="118.60948"
     y="12.7139"
     width="0.1514"
     height="4.4468002"
     ry="0.050000001"
     id="rect430"
     style="fill:currentColor" />
  <a
     style="color:inherit"
     xlink:href="textedit://C:/Users/tikeda/Documents/git/LotusRoot/sco.txt:10:45:46"
     id="a434"
     transform="translate(-6.1203179,-4.5566)">
    <path
       transform="matrix(0.004,0,0,-0.004,123.5804,21.8886)"
       d="m 212,138 c 59,0 113,-31 113,-95 0,-71 -52,-120 -99,-148 -34,-21 -73,-33 -113,-33 -59,0 -113,31 -113,95 0,71 53,120 100,148 34,21 72,33 112,33 z"
       id="path432"
       inkscape:connector-curvature="0"
       style="fill:currentColor" />
  </a>
  <path
     d="m 112.68608,16.684 -0.008,0.248 v 0.044 c 0,0.088 0.008,0.172 0.02,0.256 0.172,-0.152 0.356,-0.32 0.356,-0.548 0,-0.128 -0.056,-0.26 -0.168,-0.26 -0.124,0 -0.196,0.128 -0.2,0.26 z m -0.188,0.708 -0.056,-2.36 c 0.036,-0.02 0.08,-0.032 0.12,-0.032 0.04,0 0.084,0.012 0.12,0.032 l -0.032,1.36 c 0.1,-0.096 0.236,-0.152 0.376,-0.152 0.2,0 0.336,0.2 0.336,0.416 0,0.312 -0.332,0.468 -0.564,0.676 -0.068,0.06 -0.1,0.176 -0.196,0.176 -0.06,0 -0.104,-0.052 -0.104,-0.116 z"
     id="path436"
     inkscape:connector-curvature="0"
     style="fill:currentColor;stroke-width:0.004" />
  <rect
     x="27.706482"
     y="17.0033"
     width="0.1514"
     height="3.1619999"
     ry="0.050000001"
     id="rect438"
     style="fill:currentColor" />
  <a
     style="color:inherit"
     xlink:href="textedit://C:/Users/tikeda/Documents/git/LotusRoot/sco.txt:7:33:34"
     id="a442"
     transform="translate(-6.1203179,-4.5566)">
    <path
       transform="matrix(0.004,0,0,-0.004,33.8269,21.3886)"
       d="m 212,138 c 59,0 113,-31 113,-95 0,-71 -52,-120 -99,-148 -34,-21 -73,-33 -113,-33 -59,0 -113,31 -113,95 0,71 53,120 100,148 34,21 72,33 112,33 z"
       id="path440"
       inkscape:connector-curvature="0"
       style="fill:currentColor" />
  </a>
  <path
     d="m 23.465682,18.684 -0.008,0.248 v 0.044 c 0,0.088 0.008,0.172 0.02,0.256 0.172,-0.152 0.356,-0.32 0.356,-0.548 0,-0.128 -0.056,-0.26 -0.168,-0.26 -0.124,0 -0.196,0.128 -0.2,0.26 z m -0.188,0.708 -0.056,-2.36 c 0.036,-0.02 0.08,-0.032 0.12,-0.032 0.04,0 0.084,0.012 0.12,0.032 l -0.032,1.36 c 0.1,-0.096 0.236,-0.152 0.376,-0.152 0.2,0 0.336,0.2 0.336,0.416 0,0.312 -0.332,0.468 -0.564,0.676 -0.068,0.06 -0.1,0.176 -0.196,0.176 -0.06,0 -0.104,-0.052 -0.104,-0.116 z"
     id="path444"
     inkscape:connector-curvature="0"
     style="fill:currentColor;stroke-width:0.004" />
  <path
     d="m 26.680582,16.684 -0.008,0.248 v 0.044 c 0,0.088 0.008,0.172 0.02,0.256 0.172,-0.152 0.356,-0.32 0.356,-0.548 0,-0.128 -0.056,-0.26 -0.168,-0.26 -0.124,0 -0.196,0.128 -0.2,0.26 z m -0.188,0.708 -0.056,-2.36 c 0.036,-0.02 0.08,-0.032 0.12,-0.032 0.04,0 0.084,0.012 0.12,0.032 l -0.032,1.36 c 0.1,-0.096 0.236,-0.152 0.376,-0.152 0.2,0 0.336,0.2 0.336,0.416 0,0.312 -0.332,0.468 -0.564,0.676 -0.068,0.06 -0.1,0.176 -0.196,0.176 -0.06,0 -0.104,-0.052 -0.104,-0.116 z"
     id="path446"
     inkscape:connector-curvature="0"
     style="fill:currentColor;stroke-width:0.004" />
  <rect
     x="25.641083"
     y="13.8289"
     width="0.1514"
     height="4.8318"
     ry="0.050000001"
     id="rect448"
     style="fill:currentColor" />
  <a
     style="color:inherit"
     xlink:href="textedit://C:/Users/tikeda/Documents/git/LotusRoot/sco.txt:7:26:27"
     id="a452"
     transform="translate(-6.1203179,-4.5566)">
    <path
       transform="matrix(0.004,0,0,-0.004,30.612,23.3886)"
       d="m 212,138 c 59,0 113,-31 113,-95 0,-71 -52,-120 -99,-148 -34,-21 -73,-33 -113,-33 -59,0 -113,31 -113,95 0,71 53,120 100,148 34,21 72,33 112,33 z"
       id="path450"
       inkscape:connector-curvature="0"
       style="fill:currentColor" />
  </a>
  <rect
     x="22.426182"
     y="13.697"
     width="0.1514"
     height="4.4636002"
     ry="0.050000001"
     id="rect454"
     style="fill:currentColor" />
  <a
     style="color:inherit"
     xlink:href="textedit://C:/Users/tikeda/Documents/git/LotusRoot/sco.txt:7:21:22"
     id="a458"
     transform="translate(-6.1203179,-4.5566)">
    <path
       transform="matrix(0.004,0,0,-0.004,27.3971,22.8886)"
       d="m 212,138 c 59,0 113,-31 113,-95 0,-71 -52,-120 -99,-148 -34,-21 -73,-33 -113,-33 -59,0 -113,31 -113,95 0,71 53,120 100,148 34,21 72,33 112,33 z"
       id="path456"
       inkscape:connector-curvature="0"
       style="fill:currentColor" />
  </a>
  <rect
     x="33.781883"
     y="17.0033"
     width="0.1514"
     height="4.1150999"
     ry="0.050000001"
     id="rect460"
     style="fill:currentColor" />
  <a
     style="color:inherit"
     xlink:href="textedit://C:/Users/tikeda/Documents/git/LotusRoot/sco.txt:8:0:1"
     id="a464"
     transform="translate(-6.1203179,-4.5566)">
    <path
       transform="matrix(0.004,0,0,-0.004,39.9023,21.3886)"
       d="m 212,138 c 59,0 113,-31 113,-95 0,-71 -52,-120 -99,-148 -34,-21 -73,-33 -113,-33 -59,0 -113,31 -113,95 0,71 53,120 100,148 34,21 72,33 112,33 z"
       id="path462"
       inkscape:connector-curvature="0"
       style="fill:currentColor" />
  </a>
  <rect
     x="7.9422822"
     y="14.832"
     width="0.1514"
     height="3.3287001"
     ry="0.050000001"
     id="rect466"
     style="fill:currentColor" />
  <path
     d="m 3.3088821,16.776 c 0.012,0 0.028,-0.004 0.04,-0.004 0.628,0 1.032,0.516 1.032,1.052 0,0.308 -0.132,0.62 -0.432,0.844 -0.088,0.064 -0.184,0.116 -0.288,0.148 0.012,0.132 0.016,0.264 0.016,0.396 0,0.084 0,0.164 -0.004,0.248 -0.028,0.484 -0.364,0.916 -0.844,0.916 -0.432,0 -0.784,-0.352 -0.784,-0.788 0,-0.232 0.216,-0.412 0.452,-0.412 0.216,0 0.38,0.188 0.38,0.412 0,0.208 -0.172,0.38 -0.38,0.38 -0.036,0 -0.072,-0.004 -0.108,-0.016 0.1,0.148 0.264,0.244 0.452,0.244 0.38,0 0.624,-0.372 0.648,-0.764 0.004,-0.076 0.008,-0.152 0.008,-0.228 0,-0.116 -0.004,-0.232 -0.012,-0.348 -0.116,0.02 -0.232,0.032 -0.352,0.032 -0.756,0 -1.332,-0.692 -1.332,-1.504 0,-0.708 0.516,-1.232 0.976,-1.772 -0.08,-0.248 -0.16,-0.496 -0.192,-0.756 -0.028,-0.208 -0.028,-0.42 -0.028,-0.632 0,-0.456 0.216,-0.884 0.588,-1.152 0.016,-0.012 0.032,-0.016 0.048,-0.016 0.02,0 0.036,0.008 0.052,0.02 0.288,0.332 0.54,0.972 0.54,1.424 0,0.568 -0.336,1.02 -0.704,1.456 0.084,0.272 0.16,0.544 0.228,0.82 z m 0.336,1.86 c 0.26,-0.096 0.44,-0.376 0.44,-0.644 0,-0.352 -0.256,-0.7 -0.668,-0.752 0.096,0.456 0.176,0.908 0.228,1.396 z m -1.544,-0.904 c 0,0.532 0.512,0.972 1.044,0.972 0.108,0 0.22,-0.004 0.324,-0.02 -0.052,-0.504 -0.14,-0.976 -0.24,-1.448 -0.316,0.032 -0.496,0.24 -0.496,0.472 0,0.172 0.1,0.352 0.32,0.48 0.02,0.02 0.028,0.044 0.028,0.068 0,0.048 -0.04,0.092 -0.092,0.092 -0.012,0 -0.028,-0.004 -0.04,-0.008 -0.324,-0.172 -0.472,-0.46 -0.472,-0.744 0,-0.356 0.24,-0.708 0.652,-0.8 -0.056,-0.228 -0.12,-0.452 -0.188,-0.676 -0.42,0.488 -0.84,0.972 -0.84,1.612 z m 1.304,-4.052 c -0.396,0.184 -0.644,0.58 -0.644,1.016 0,0.284 0.084,0.52 0.156,0.752 0.312,-0.388 0.568,-0.796 0.568,-1.296 0,-0.204 -0.016,-0.288 -0.08,-0.472 z"
     id="path468"
     inkscape:connector-curvature="0"
     style="fill:currentColor;stroke-width:0.004" />
  <path
     d="m 8.5351821,18.332 c 0,-0.12 0.1,-0.22 0.22,-0.22 0.12,0 0.22,0.1 0.22,0.22 0,0.12 -0.1,0.22 -0.22,0.22 -0.12,0 -0.22,-0.1 -0.22,-0.22 z"
     id="path470"
     inkscape:connector-curvature="0"
     style="fill:currentColor;stroke-width:0.004" />
  <text
     font-size="1.7463"
     id="text474"
     style="font-size:1.74629998px;font-family:serif;text-anchor:start;fill:currentColor"
     x="-0.11681792"
     y="13.7393">
    <tspan
       id="tspan472">6</tspan>
  </text>
  <a
     style="color:inherit"
     xlink:href="textedit://C:/Users/tikeda/Documents/git/LotusRoot/sco.txt:7:12:13"
     id="a478"
     transform="translate(-6.1203179,-4.5566)">
    <path
       transform="matrix(0.004,0,0,-0.004,21.1248,22.3886)"
       d="m 212,138 c 59,0 113,-31 113,-95 0,-71 -52,-120 -99,-148 -34,-21 -73,-33 -113,-33 -59,0 -113,31 -113,95 0,71 53,120 100,148 34,21 72,33 112,33 z"
       id="path476"
       inkscape:connector-curvature="0"
       style="fill:currentColor" />
  </a>
  <rect
     x="18.678282"
     y="13.5433"
     width="0.1514"
     height="4.1173"
     ry="0.050000001"
     id="rect480"
     style="fill:currentColor" />
  <a
     style="color:inherit"
     xlink:href="textedit://C:/Users/tikeda/Documents/git/LotusRoot/sco.txt:7:17:18"
     id="a484"
     transform="translate(-6.1203179,-4.5566)">
    <path
       transform="matrix(0.004,0,0,-0.004,23.6491,22.3886)"
       d="m 212,138 c 59,0 113,-31 113,-95 0,-71 -52,-120 -99,-148 -34,-21 -73,-33 -113,-33 -59,0 -113,31 -113,95 0,71 53,120 100,148 34,21 72,33 112,33 z"
       id="path482"
       inkscape:connector-curvature="0"
       style="fill:currentColor" />
  </a>
  <rect
     x="16.153883"
     y="13.115499"
     width="0.1514"
     height="4.5451002"
     ry="0.050000001"
     id="rect486"
     style="fill:currentColor" />
  <path
     d="m 11.454082,17.184 -0.008,0.248 v 0.044 c 0,0.088 0.008,0.172 0.02,0.256 0.172,-0.152 0.356,-0.32 0.356,-0.548 0,-0.128 -0.056,-0.26 -0.168,-0.26 -0.124,0 -0.196,0.128 -0.2,0.26 z m -0.188,0.708 -0.056,-2.36 c 0.036,-0.02 0.08,-0.032 0.12,-0.032 0.04,0 0.084,0.012 0.12,0.032 l -0.032,1.36 c 0.1,-0.096 0.236,-0.152 0.376,-0.152 0.2,0 0.336,0.2 0.336,0.416 0,0.312 -0.332,0.468 -0.564,0.676 -0.068,0.06 -0.1,0.176 -0.196,0.176 -0.06,0 -0.104,-0.052 -0.104,-0.116 z"
     id="path488"
     inkscape:connector-curvature="0"
     style="fill:currentColor;stroke-width:0.004" />
  <rect
     x="13.629482"
     y="12.8403"
     width="0.1514"
     height="4.3204002"
     ry="0.050000001"
     id="rect490"
     style="fill:currentColor" />
  <a
     style="color:inherit"
     xlink:href="textedit://C:/Users/tikeda/Documents/git/LotusRoot/sco.txt:7:5:6"
     id="a494"
     transform="translate(-6.1203179,-4.5566)">
    <path
       transform="matrix(0.004,0,0,-0.004,18.6004,21.8886)"
       d="m 212,138 c 59,0 113,-31 113,-95 0,-71 -52,-120 -99,-148 -34,-21 -73,-33 -113,-33 -59,0 -113,31 -113,95 0,71 53,120 100,148 34,21 72,33 112,33 z"
       id="path492"
       inkscape:connector-curvature="0"
       style="fill:currentColor" />
  </a>
  <a
     style="color:inherit"
     xlink:href="textedit://C:/Users/tikeda/Documents/git/LotusRoot/sco.txt:7:0:1"
     id="a498"
     transform="translate(-6.1203179,-4.5566)">
    <path
       transform="matrix(0.004,0,0,-0.004,12.9132,22.8886)"
       d="m 212,138 c 59,0 113,-31 113,-95 0,-71 -52,-120 -99,-148 -34,-21 -73,-33 -113,-33 -59,0 -113,31 -113,95 0,71 53,120 100,148 34,21 72,33 112,33 z"
       id="path496"
       inkscape:connector-curvature="0"
       style="fill:currentColor" />
  </a>
  <a
     style="color:inherit"
     xlink:href="textedit://C:/Users/tikeda/Documents/git/LotusRoot/sco.txt:9:0:1"
     id="a502"
     transform="translate(-6.1203179,-4.5566)">
    <path
       transform="matrix(0.004,0,0,-0.004,68.2935,19.8886)"
       d="m 212,138 c 59,0 113,-31 113,-95 0,-71 -52,-120 -99,-148 -34,-21 -73,-33 -113,-33 -59,0 -113,31 -113,95 0,71 53,120 100,148 34,21 72,33 112,33 z"
       id="path500"
       inkscape:connector-curvature="0"
       style="fill:currentColor" />
  </a>
  <path
     d="m 56.456082,19.282 h -0.076 v -1 h 0.076 c 0.38,-0.236 0.88,-0.596 0.88,-1.036 0,-0.224 -0.064,-0.444 -0.164,-0.644 -0.012,-0.072 0.048,-0.12 0.104,-0.12 0.032,0 0.068,0.016 0.088,0.052 0.1,0.224 0.16,0.464 0.16,0.712 0,0.812 -1.068,1.224 -1.068,2.036 z"
     id="path504"
     inkscape:connector-curvature="0"
     style="fill:currentColor;stroke-width:0.004" />
  <rect
     x="56.304684"
     y="16.0033"
     width="0.1514"
     height="3.3287001"
     ry="0.050000001"
     id="rect506"
     style="fill:currentColor" />
  <a
     style="color:inherit"
     xlink:href="textedit://C:/Users/tikeda/Documents/git/LotusRoot/sco.txt:8:38:39"
     id="a510"
     transform="translate(-6.1203179,-4.5566)">
    <path
       transform="matrix(0.004,0,0,-0.004,62.4251,20.3886)"
       d="m 212,138 c 59,0 113,-31 113,-95 0,-71 -52,-120 -99,-148 -34,-21 -73,-33 -113,-33 -59,0 -113,31 -113,95 0,71 53,120 100,148 34,21 72,33 112,33 z"
       id="path508"
       inkscape:connector-curvature="0"
       style="fill:currentColor" />
  </a>
  <rect
     x="62.173183"
     y="15.5033"
     width="0.1514"
     height="4.6244998"
     ry="0.050000001"
     id="rect512"
     style="fill:currentColor" />
  <a
     style="color:inherit"
     xlink:href="textedit://C:/Users/tikeda/Documents/git/LotusRoot/sco.txt:8:35:36"
     id="a516"
     transform="translate(-6.1203179,-4.5566)">
    <path
       transform="matrix(0.004,0,0,-0.004,58.978,21.3886)"
       d="M 67,-250 185,76 C 152,64 119,54 84,54 38,54 -3,88 -3,133 c 0,40 33,72 73,72 25,0 49,-14 57,-37 10,-27 4,-59 33,-59 14,0 50,42 56,55 7,14 28,14 34,0 L 131,-250 c -9,-8 -21,-12 -32,-12 -11,0 -23,4 -32,12 z"
       id="path514"
       inkscape:connector-curvature="0"
       style="fill:currentColor" />
  </a>
  <a
     style="color:inherit"
     xlink:href="textedit://C:/Users/tikeda/Documents/git/LotusRoot/sco.txt:8:29:30"
     id="a520"
     transform="translate(-6.1203179,-4.5566)">
    <path
       transform="matrix(0.004,0,0,-0.004,54.2565,21.3886)"
       d="m 212,138 c 59,0 113,-31 113,-95 0,-71 -52,-120 -99,-148 -34,-21 -73,-33 -113,-33 -59,0 -113,31 -113,95 0,71 53,120 100,148 34,21 72,33 112,33 z"
       id="path518"
       inkscape:connector-curvature="0"
       style="fill:currentColor" />
  </a>
  <rect
     x="65.921082"
     y="16.0033"
     width="0.1514"
     height="4.3246002"
     ry="0.050000001"
     id="rect522"
     style="fill:currentColor" />
  <a
     style="color:inherit"
     xlink:href="textedit://C:/Users/tikeda/Documents/git/LotusRoot/sco.txt:9:7:8"
     id="a526"
     transform="translate(-6.1203179,-4.5566)">
    <path
       transform="matrix(0.004,0,0,-0.004,72.0415,20.3886)"
       d="m 212,138 c 59,0 113,-31 113,-95 0,-71 -52,-120 -99,-148 -34,-21 -73,-33 -113,-33 -59,0 -113,31 -113,95 0,71 53,120 100,148 34,21 72,33 112,33 z"
       id="path524"
       inkscape:connector-curvature="0"
       style="fill:currentColor" />
  </a>
  <a
     style="color:inherit"
     xlink:href="textedit://C:/Users/tikeda/Documents/git/LotusRoot/sco.txt:8:6:7"
     id="a530"
     transform="translate(-6.1203179,-4.5566)">
    <path
       transform="matrix(0.004,0,0,-0.004,43.9002,18.8886)"
       d="m 212,138 c 59,0 113,-31 113,-95 0,-71 -52,-120 -99,-148 -34,-21 -73,-33 -113,-33 -59,0 -113,31 -113,95 0,71 53,120 100,148 34,21 72,33 112,33 z"
       id="path528"
       inkscape:connector-curvature="0"
       style="fill:currentColor" />
  </a>
  <path
     d="m 61.147182,15.184 -0.008,0.248 v 0.044 c 0,0.088 0.008,0.172 0.02,0.256 0.172,-0.152 0.356,-0.32 0.356,-0.548 0,-0.128 -0.056,-0.26 -0.168,-0.26 -0.124,0 -0.196,0.128 -0.2,0.26 z m -0.188,0.708 -0.056,-2.36 c 0.036,-0.02 0.08,-0.032 0.12,-0.032 0.04,0 0.084,0.012 0.12,0.032 l -0.032,1.36 c 0.1,-0.096 0.236,-0.152 0.376,-0.152 0.2,0 0.336,0.2 0.336,0.416 0,0.312 -0.332,0.468 -0.564,0.676 -0.068,0.06 -0.1,0.176 -0.196,0.176 -0.06,0 -0.104,-0.052 -0.104,-0.116 z"
     id="path532"
     inkscape:connector-curvature="0"
     style="fill:currentColor;stroke-width:0.004" />
  <path
     d="m 40.072582,15.832 c 0.032,-0.02 0.072,-0.028 0.108,-0.028 0.036,0 0.072,0.008 0.104,0.028 l -0.012,0.768 0.408,-0.092 h 0.016 c 0.04,0 0.076,0.032 0.076,0.072 l 0.032,2.252 c -0.032,0.02 -0.072,0.028 -0.108,0.028 -0.036,0 -0.072,-0.008 -0.104,-0.028 l 0.008,-0.768 -0.404,0.092 h -0.016 c -0.04,0 -0.076,-0.032 -0.076,-0.072 z m 0.544,1.06 -0.348,0.076 -0.012,0.804 0.352,-0.076 z"
     id="path534"
     inkscape:connector-curvature="0"
     style="fill:currentColor;stroke-width:0.004" />
  <path
     d="m 42.890482,17.332 c 0,-0.12 0.1,-0.22 0.22,-0.22 0.12,0 0.22,0.1 0.22,0.22 0,0.12 -0.1,0.22 -0.22,0.22 -0.12,0 -0.22,-0.1 -0.22,-0.22 z"
     id="path536"
     inkscape:connector-curvature="0"
     style="fill:currentColor;stroke-width:0.004" />
  <a
     style="color:inherit"
     xlink:href="textedit://C:/Users/tikeda/Documents/git/LotusRoot/sco.txt:8:15:16"
     id="a540"
     transform="translate(-6.1203179,-4.5566)">
    <path
       transform="matrix(0.004,0,0,-0.004,47.9189,16.5034)"
       d="m -292,228 c 0,-20 16,-28 37,-28 39,0 69,13 100,27 l 4,20 c -22,17 -49,29 -79,29 -30,0 -62,-15 -62,-48 z M -26,105 c 0,-62 -46,-115 -98,-115 -39,0 -56,43 -56,90 0,14 1,28 4,41 l 15,74 c -31,-13 -61,-24 -100,-24 -36,0 -61,17 -61,51 0,52 49,83 98,83 30,0 57,-9 80,-24 l 46,229 c 6,-3 13,-5 20,-5 22,0 48,16 68,35 L -63,276 0,311 c 26,14 52,21 74,21 28,0 51,-10 63,-27 18,18 44,27 68,27 37,0 71,-22 71,-72 0,-46 -27,-91 -66,-91 -26,0 -39,21 -39,48 0,42 30,65 61,65 h 2 c -8,14 -22,21 -37,21 -23,0 -48,-16 -53,-41 L 90,-9 C 79,-2 65,2 51,2 37,2 22,-2 8,-9 l 54,271 c 0,2 1,4 1,6 0,15 -12,25 -28,25 -7,0 -16,-2 -24,-6 l -81,-45 -5,-27 c 26,-32 49,-67 49,-110 z M -88,39 c 22,0 32,34 32,61 0,28 -11,52 -27,74 l -5,-23 c -4,-19 -14,-59 -14,-86 0,-16 3,-26 14,-26 z"
       id="path538"
       inkscape:connector-curvature="0"
       style="fill:currentColor" />
  </a>
  <a
     style="color:inherit"
     xlink:href="textedit://C:/Users/tikeda/Documents/git/LotusRoot/sco.txt:8:11:12"
     id="a544"
     transform="translate(-6.1203179,-4.5566)">
    <path
       transform="matrix(0.004,0,0,-0.004,47.2685,21.8886)"
       d="m 212,138 c 59,0 113,-31 113,-95 0,-71 -52,-120 -99,-148 -34,-21 -73,-33 -113,-33 -59,0 -113,31 -113,95 0,71 53,120 100,148 34,21 72,33 112,33 z"
       id="path542"
       inkscape:connector-curvature="0"
       style="fill:currentColor" />
  </a>
  <rect
     x="42.297581"
     y="12.5368"
     width="0.1514"
     height="4.6238999"
     ry="0.050000001"
     id="rect546"
     style="fill:currentColor" />
  <a
     style="color:inherit"
     xlink:href="textedit://C:/Users/tikeda/Documents/git/LotusRoot/sco.txt:8:22:23"
     id="a550"
     transform="translate(-6.1203179,-4.5566)">
    <path
       transform="matrix(0.004,0,0,-0.004,51.7321,21.3886)"
       d="m 212,138 c 59,0 113,-31 113,-95 0,-71 -52,-120 -99,-148 -34,-21 -73,-33 -113,-33 -59,0 -113,31 -113,95 0,71 53,120 100,148 34,21 72,33 112,33 z"
       id="path548"
       inkscape:connector-curvature="0"
       style="fill:currentColor" />
  </a>
  <rect
     x="46.761284"
     y="12.3354"
     width="0.1514"
     height="4.3253002"
     ry="0.050000001"
     id="rect552"
     style="fill:currentColor" />
  <path
     d="m 44.585782,16.684 -0.008,0.248 v 0.044 c 0,0.088 0.008,0.172 0.02,0.256 0.172,-0.152 0.356,-0.32 0.356,-0.548 0,-0.128 -0.056,-0.26 -0.168,-0.26 -0.124,0 -0.196,0.128 -0.2,0.26 z m -0.188,0.708 -0.056,-2.36 c 0.036,-0.02 0.08,-0.032 0.12,-0.032 0.04,0 0.084,0.012 0.12,0.032 l -0.032,1.36 c 0.1,-0.096 0.236,-0.152 0.376,-0.152 0.2,0 0.336,0.2 0.336,0.416 0,0.312 -0.332,0.468 -0.564,0.676 -0.068,0.06 -0.1,0.176 -0.196,0.176 -0.06,0 -0.104,-0.052 -0.104,-0.116 z"
     id="path554"
     inkscape:connector-curvature="0"
     style="fill:currentColor;stroke-width:0.004" />
  <rect
     x="37.779881"
     y="14.5033"
     width="0.1514"
     height="6.3340001"
     ry="0.050000001"
     id="rect556"
     style="fill:currentColor" />
  <text
     font-size="2.1999"
     id="text560"
     style="font-size:2.19989991px;font-family:serif;text-anchor:start;fill:currentColor"
     x="68.568184"
     y="202.43719">
    <tspan
       id="tspan558" />
  </text>
</svg>
