<?xml version="1.0" encoding="UTF-8" standalone="no"?>
<svg
   xmlns:dc="http://purl.org/dc/elements/1.1/"
   xmlns:cc="http://creativecommons.org/ns#"
   xmlns:rdf="http://www.w3.org/1999/02/22-rdf-syntax-ns#"
   xmlns:svg="http://www.w3.org/2000/svg"
   xmlns="http://www.w3.org/2000/svg"
   xmlns:sodipodi="http://sodipodi.sourceforge.net/DTD/sodipodi-0.dtd"
   xmlns:inkscape="http://www.inkscape.org/namespaces/inkscape"
   version="1.2"
   width="678.38226"
   height="101.49935"
   viewBox="0 0 136.18527 20.375994"
   id="svg2"
   inkscape:version="0.48.2 r9819"
   sodipodi:docname="test.svg">
  <metadata
     id="metadata430">
    <rdf:RDF>
      <cc:Work
         rdf:about="">
        <dc:format>image/svg+xml</dc:format>
        <dc:type
           rdf:resource="http://purl.org/dc/dcmitype/StillImage" />
      </cc:Work>
    </rdf:RDF>
  </metadata>
  <defs
     id="defs428" />
  <sodipodi:namedview
     pagecolor="#ffffff"
     bordercolor="#666666"
     borderopacity="1"
     objecttolerance="10"
     gridtolerance="10"
     guidetolerance="10"
     inkscape:pageopacity="0"
     inkscape:pageshadow="2"
     inkscape:window-width="769"
     inkscape:window-height="480"
     id="namedview426"
     showgrid="false"
     fit-margin-top="0"
     fit-margin-left="0"
     fit-margin-right="0"
     fit-margin-bottom="0"
     inkscape:zoom="0.22425739"
     inkscape:cx="341.76811"
     inkscape:cy="-401.98372"
     inkscape:window-x="0"
     inkscape:window-y="0"
     inkscape:window-maximized="0"
     inkscape:current-layer="svg2" />
  <!-- Page: 1/1 -->
  <text
     font-size="2.1999"
     id="text4"
     style="font-size:2.19989991px;text-anchor:start;fill:currentColor;font-family:serif"
     x="1.0346637"
     y="-1.0000272">
    <tspan
       id="tspan6" />
  </text>
  <line
     x1="11.762664"
     y1="6.8319726"
     x2="136.12706"
     y2="6.8319726"
     id="line8"
     style="stroke:currentColor;stroke-width:0.1164;stroke-linecap:round;stroke-linejoin:round" />
  <line
     x1="11.762664"
     y1="5.8319726"
     x2="136.12706"
     y2="5.8319726"
     id="line10"
     style="stroke:currentColor;stroke-width:0.1164;stroke-linecap:round;stroke-linejoin:round" />
  <line
     x1="11.762664"
     y1="4.8319726"
     x2="136.12706"
     y2="4.8319726"
     id="line12"
     style="stroke:currentColor;stroke-width:0.1164;stroke-linecap:round;stroke-linejoin:round" />
  <line
     x1="11.762664"
     y1="3.8319728"
     x2="136.12706"
     y2="3.8319728"
     id="line14"
     style="stroke:currentColor;stroke-width:0.1164;stroke-linecap:round;stroke-linejoin:round" />
  <line
     x1="11.762664"
     y1="2.8319728"
     x2="136.12706"
     y2="2.8319728"
     id="line16"
     style="stroke:currentColor;stroke-width:0.1164;stroke-linecap:round;stroke-linejoin:round" />
  <rect
     x="98.817963"
     y="2.8319728"
     width="0.2212"
     height="4"
     ry="0"
     id="rect18"
     style="fill:currentColor" />
  <rect
     x="37.414864"
     y="2.8319728"
     width="0.2212"
     height="4"
     ry="0"
     id="rect20"
     style="fill:currentColor" />
  <rect
     x="118.21446"
     y="2.8319728"
     width="0.2212"
     height="4"
     ry="0"
     id="rect22"
     style="fill:currentColor" />
  <rect
     x="135.96407"
     y="2.8319728"
     width="0.2212"
     height="4"
     ry="0"
     id="rect24"
     style="fill:currentColor" />
  <rect
     x="66.18396"
     y="2.8319728"
     width="0.2212"
     height="4"
     ry="0"
     id="rect26"
     style="fill:currentColor" />
  <rect
     x="63.712166"
     y="1.7237729"
     width="1.9962"
     height="0.2164"
     ry="0.1082"
     id="rect28"
     style="fill:currentColor" />
  <path
     d="m 92.948264,3.1839728 -0.008,0.248 v 0.044 c 0,0.088 0.008,0.172 0.02,0.256 0.172,-0.152 0.356,-0.32 0.356,-0.548 0,-0.128 -0.056,-0.26 -0.168,-0.26 -0.124,0 -0.196,0.128 -0.2,0.26 z m -0.188,0.708 -0.056,-2.36 c 0.036,-0.02 0.08,-0.032 0.12,-0.032 0.04,0 0.084,0.012 0.12,0.032 l -0.032,1.36 c 0.1,-0.096 0.236,-0.152 0.376,-0.152 0.2,0 0.336,0.2 0.336,0.416 0,0.312 -0.332,0.468 -0.564,0.676 -0.068,0.06 -0.1,0.176 -0.196,0.176 -0.06,0 -0.104,-0.052 -0.104,-0.116 z"
     id="path30"
     inkscape:connector-curvature="0"
     style="fill:currentColor" />
  <rect
     x="93.974266"
     y="3.5032728"
     width="0.1514"
     height="3.4189"
     ry="0.050000001"
     id="rect32"
     style="fill:currentColor" />
  <path
     d="m 94.822264,2.7799728 c 0.236,0 0.452,0.124 0.452,0.38 0,0.284 -0.208,0.48 -0.396,0.592 -0.136,0.084 -0.292,0.132 -0.452,0.132 -0.236,0 -0.452,-0.124 -0.452,-0.38 0,-0.284 0.212,-0.48 0.4,-0.592 0.136,-0.084 0.288,-0.132 0.448,-0.132 z"
     id="path34"
     inkscape:connector-curvature="0"
     style="fill:currentColor" />
  <rect
     x="90.736862"
     y="4.003273"
     width="0.1514"
     height="3.0302"
     ry="0.050000001"
     id="rect36"
     style="fill:currentColor" />
  <path
     d="m 91.584864,3.2799728 c 0.236,0 0.452,0.124 0.452,0.38 0,0.284 -0.208,0.48 -0.396,0.592 -0.136,0.084 -0.292,0.132 -0.452,0.132 -0.236,0 -0.452,-0.124 -0.452,-0.38 0,-0.284 0.212,-0.48 0.4,-0.592 0.136,-0.084 0.288,-0.132 0.448,-0.132 z"
     id="path38"
     inkscape:connector-curvature="0"
     style="fill:currentColor" />
  <path
     d="m 21.279264,3.6368728 c 0.9775,-0.8712 4.9491,-0.8712 5.9265,0 l 0,0 c -0.9774,-0.7314 -4.949,-0.7314 -5.9265,0 z"
     id="path40"
     inkscape:connector-curvature="0"
     style="fill:currentColor;stroke:currentColor;stroke-width:0.0931;stroke-linecap:round;stroke-linejoin:round" />
  <path
     d="m 97.369164,2.2799728 c 0.236,0 0.452,0.124 0.452,0.38 0,0.284 -0.208,0.48 -0.396,0.592 -0.136,0.084 -0.292,0.132 -0.452,0.132 -0.236,0 -0.452,-0.124 -0.452,-0.38 0,-0.284 0.212,-0.48 0.4,-0.592 0.136,-0.084 0.288,-0.132 0.448,-0.132 z"
     id="path42"
     inkscape:connector-curvature="0"
     style="fill:currentColor" />
  <rect
     x="96.521065"
     y="3.0032728"
     width="0.1514"
     height="3.8313"
     ry="0.050000001"
     id="rect44"
     style="fill:currentColor" />
  <path
     d="m 100.80446,4.2799728 c 0.236,0 0.452,0.124 0.452,0.38 0,0.284 -0.208,0.48 -0.396,0.592 -0.136,0.084 -0.292,0.132 -0.452,0.132 -0.236,0 -0.451996,-0.124 -0.451996,-0.38 0,-0.284 0.211996,-0.48 0.399996,-0.592 0.136,-0.084 0.288,-0.132 0.448,-0.132 z"
     id="path46"
     inkscape:connector-curvature="0"
     style="fill:currentColor" />
  <rect
     x="101.10596"
     y="1.8379729"
     width="0.1514"
     height="2.8227"
     ry="0.050000001"
     id="rect48"
     style="fill:currentColor" />
  <rect
     x="78.307266"
     y="3.0032728"
     width="0.1514"
     height="3.6271"
     ry="0.050000001"
     id="rect50"
     style="fill:currentColor" />
  <path
     d="m 79.155264,2.2799728 c 0.236,0 0.452,0.124 0.452,0.38 0,0.284 -0.208,0.48 -0.396,0.592 -0.136,0.084 -0.292,0.132 -0.452,0.132 -0.236,0 -0.452,-0.124 -0.452,-0.38 0,-0.284 0.212,-0.48 0.4,-0.592 0.136,-0.084 0.288,-0.132 0.448,-0.132 z"
     id="path52"
     inkscape:connector-curvature="0"
     style="fill:currentColor" />
  <path
     d="m 74.734464,3.1839728 -0.008,0.248 v 0.044 c 0,0.088 0.008,0.172 0.02,0.256 0.172,-0.152 0.356,-0.32 0.356,-0.548 0,-0.128 -0.056,-0.26 -0.168,-0.26 -0.124,0 -0.196,0.128 -0.2,0.26 z m -0.188,0.708 -0.056,-2.36 c 0.036,-0.02 0.08,-0.032 0.12,-0.032 0.04,0 0.084,0.012 0.12,0.032 l -0.032,1.36 c 0.1,-0.096 0.236,-0.152 0.376,-0.152 0.2,0 0.336,0.2 0.336,0.416 0,0.312 -0.332,0.468 -0.564,0.676 -0.068,0.06 -0.1,0.176 -0.196,0.176 -0.06,0 -0.104,-0.052 -0.104,-0.116 z"
     id="path54"
     inkscape:connector-curvature="0"
     style="fill:currentColor" />
  <rect
     x="75.760361"
     y="3.5032728"
     width="0.1514"
     height="3.2147"
     ry="0.050000001"
     id="rect56"
     style="fill:currentColor" />
  <rect
     x="72.523064"
     y="4.003273"
     width="0.1514"
     height="2.8261001"
     ry="0.050000001"
     id="rect58"
     style="fill:currentColor" />
  <path
     d="m 76.608464,2.7799728 c 0.236,0 0.452,0.124 0.452,0.38 0,0.284 -0.208,0.48 -0.396,0.592 -0.136,0.084 -0.292,0.132 -0.452,0.132 -0.236,0 -0.452,-0.124 -0.452,-0.38 0,-0.284 0.212,-0.48 0.4,-0.592 0.136,-0.084 0.288,-0.132 0.448,-0.132 z"
     id="path60"
     inkscape:connector-curvature="0"
     style="fill:currentColor" />
  <path
     d="m 83.999064,3.7799728 c 0.236,0 0.452,0.124 0.452,0.38 0,0.284 -0.208,0.48 -0.396,0.592 -0.136,0.084 -0.292,0.132 -0.452,0.132 -0.236,0 -0.452,-0.124 -0.452,-0.38 0,-0.284 0.212,-0.48 0.4,-0.592 0.136,-0.084 0.288,-0.132 0.448,-0.132 z"
     id="path62"
     inkscape:connector-curvature="0"
     style="fill:currentColor" />
  <rect
     x="88.189964"
     y="4.503273"
     width="0.1514"
     height="2.6178999"
     ry="0.050000001"
     id="rect64"
     style="fill:currentColor" />
  <path
     d="m 73.371064,3.2799728 c 0.236,0 0.452,0.124 0.452,0.38 0,0.284 -0.208,0.48 -0.396,0.592 -0.136,0.084 -0.292,0.132 -0.452,0.132 -0.236,0 -0.452,-0.124 -0.452,-0.38 0,-0.284 0.212,-0.48 0.4,-0.592 0.136,-0.084 0.288,-0.132 0.448,-0.132 z"
     id="path66"
     inkscape:connector-curvature="0"
     style="fill:currentColor" />
  <path
     d="m 89.037964,3.7799728 c 0.236,0 0.452,0.124 0.452,0.38 0,0.284 -0.208,0.48 -0.396,0.592 -0.136,0.084 -0.292,0.132 -0.452,0.132 -0.236,0 -0.452,-0.124 -0.452,-0.38 0,-0.284 0.212,-0.48 0.4,-0.592 0.136,-0.084 0.288,-0.132 0.448,-0.132 z"
     id="path68"
     inkscape:connector-curvature="0"
     style="fill:currentColor" />
  <rect
     x="83.151062"
     y="4.503273"
     width="0.1514"
     height="3.3287001"
     ry="0.050000001"
     id="rect70"
     style="fill:currentColor" />
  <rect
     x="80.854164"
     y="2.5032728"
     width="0.1514"
     height="4.0395002"
     ry="0.050000001"
     id="rect72"
     style="fill:currentColor" />
  <path
     d="m 81.702164,1.7799728 c 0.236,0 0.452,0.124 0.452,0.38 0,0.284 -0.208,0.48 -0.396,0.592 -0.136,0.084 -0.292,0.132 -0.452,0.132 -0.236,0 -0.452,-0.124 -0.452,-0.38 0,-0.284 0.212,-0.48 0.4,-0.592 0.136,-0.084 0.288,-0.132 0.448,-0.132 z"
     id="path74"
     inkscape:connector-curvature="0"
     style="fill:currentColor" />
  <rect
     x="126.71146"
     y="3.5032728"
     width="0.1514"
     height="3.3287001"
     ry="0.050000001"
     id="rect76"
     style="fill:currentColor" />
  <path
     d="m 133.47196,2.3819728 c 0,0.788 0.828,1.336 0.828,2.124 0,0.284 -0.06,0.56 -0.164,0.824 -0.02,0.036 -0.056,0.052 -0.088,0.052 -0.056,0 -0.116,-0.048 -0.104,-0.12 0.104,-0.24 0.172,-0.496 0.172,-0.756 0,-0.408 -0.368,-0.824 -0.644,-1.124 h -0.076 v -1 h 0.076 z"
     id="path78"
     inkscape:connector-curvature="0"
     style="fill:currentColor" />
  <rect
     x="133.32056"
     y="2.3319728"
     width="0.1514"
     height="3.3287001"
     ry="0.050000001"
     id="rect80"
     style="fill:currentColor" />
  <path
     d="m 133.01916,5.2799728 c 0.236,0 0.452,0.124 0.452,0.38 0,0.284 -0.208,0.48 -0.396,0.592 -0.136,0.084 -0.292,0.132 -0.452,0.132 -0.236,0 -0.452,-0.124 -0.452,-0.38 0,-0.284 0.212,-0.48 0.4,-0.592 0.136,-0.084 0.288,-0.132 0.448,-0.132 z"
     id="path82"
     inkscape:connector-curvature="0"
     style="fill:currentColor" />
  <path
     d="m 128.45376,3.3319728 c 0,-0.12 0.1,-0.22 0.22,-0.22 0.12,0 0.22,0.1 0.22,0.22 0,0.12 -0.1,0.22 -0.22,0.22 -0.12,0 -0.22,-0.1 -0.22,-0.22 z"
     id="path84"
     inkscape:connector-curvature="0"
     style="fill:currentColor" />
  <path
     d="m 127.55946,2.7799728 c 0.236,0 0.452,0.124 0.452,0.38 0,0.284 -0.208,0.48 -0.396,0.592 -0.136,0.084 -0.292,0.132 -0.452,0.132 -0.236,0 -0.452,-0.124 -0.452,-0.38 0,-0.284 0.212,-0.48 0.4,-0.592 0.136,-0.084 0.288,-0.132 0.448,-0.132 z"
     id="path86"
     inkscape:connector-curvature="0"
     style="fill:currentColor" />
  <polygon
     transform="translate(72.523064,5.7004728)"
     points="0.05,-0.3 8.4325,-0.5918 8.4325,0.0082 0.05,0.3 "
     id="polygon88"
     style="fill:currentColor;stroke:currentColor;stroke-width:0.1;stroke-linecap:round;stroke-linejoin:round" />
  <polygon
     transform="translate(72.523064,6.8319728)"
     points="0.05,-0.3 8.4325,-0.5918 8.4325,0.0082 0.05,0.3 "
     id="polygon90"
     style="fill:currentColor;stroke:currentColor;stroke-width:0.1;stroke-linecap:round;stroke-linejoin:round" />
  <polygon
     transform="translate(32.523164,5.4086728)"
     points="0.05,-0.3 2.6482,-0.0082 2.6482,0.5918 0.05,0.3 "
     id="polygon92"
     style="fill:currentColor;stroke:currentColor;stroke-width:0.1;stroke-linecap:round;stroke-linejoin:round" />
  <polygon
     transform="translate(32.523164,6.5401728)"
     points="0.05,-0.3 2.6482,-0.0082 2.6482,0.5918 0.05,0.3 "
     id="polygon94"
     style="fill:currentColor;stroke:currentColor;stroke-width:0.1;stroke-linecap:round;stroke-linejoin:round" />
  <polygon
     transform="translate(44.732764,4.9922728)"
     points="0.05,-0.3 3.3388,-0.0918 3.3388,0.5082 0.05,0.3 "
     id="polygon96"
     style="fill:currentColor;stroke:currentColor;stroke-width:0.1;stroke-linecap:round;stroke-linejoin:round" />
  <polygon
     transform="translate(44.732764,6.1237728)"
     points="0.05,-0.3 3.3388,-0.0918 3.3388,0.5082 0.05,0.3 "
     id="polygon98"
     style="fill:currentColor;stroke:currentColor;stroke-width:0.1;stroke-linecap:round;stroke-linejoin:round" />
  <path
     d="m 52.017864,2.8319728 c 0.7,-0.7387 2.6382,-0.7387 3.3381,0 l 0,0 c -0.6999,-0.599 -2.6381,-0.599 -3.3381,0 z"
     id="path100"
     inkscape:connector-curvature="0"
     style="fill:currentColor;stroke:currentColor;stroke-width:0.0931;stroke-linecap:round;stroke-linejoin:round" />
  <polygon
     transform="translate(55.555964,4.9922728)"
     points="0.05,-0.3 8.4325,-0.5918 8.4325,0.0082 0.05,0.3 "
     id="polygon102"
     style="fill:currentColor;stroke:currentColor;stroke-width:0.1;stroke-linecap:round;stroke-linejoin:round" />
  <polygon
     transform="translate(55.555964,6.1237728)"
     points="0.05,-0.3 8.4325,-0.5918 8.4325,0.0082 0.05,0.3 "
     id="polygon104"
     style="fill:currentColor;stroke:currentColor;stroke-width:0.1;stroke-linecap:round;stroke-linejoin:round" />
  <path
     d="m 68.984864,3.6203728 c 0.7,-0.7387 2.6382,-0.7387 3.3381,0 l 0,0 c -0.6999,-0.599 -2.6381,-0.599 -3.3381,0 z"
     id="path106"
     inkscape:connector-curvature="0"
     style="fill:currentColor;stroke:currentColor;stroke-width:0.0931;stroke-linecap:round;stroke-linejoin:round" />
  <path
     d="m 84.001464,3.6203728 c 0.856,-0.821 3.783,-0.821 4.639,0 l 0,0 c -0.856,-0.6813 -3.783,-0.6813 -4.639,0 z"
     id="path108"
     inkscape:connector-curvature="0"
     style="fill:currentColor;stroke:currentColor;stroke-width:0.0931;stroke-linecap:round;stroke-linejoin:round" />
  <polygon
     transform="translate(88.189964,5.9922728)"
     points="0.05,-0.3 8.4325,-0.5918 8.4325,0.0082 0.05,0.3 "
     id="polygon110"
     style="fill:currentColor;stroke:currentColor;stroke-width:0.1;stroke-linecap:round;stroke-linejoin:round" />
  <polygon
     transform="translate(88.189964,7.1237728)"
     points="0.05,-0.3 8.4325,-0.5918 8.4325,0.0082 0.05,0.3 "
     id="polygon112"
     style="fill:currentColor;stroke:currentColor;stroke-width:0.1;stroke-linecap:round;stroke-linejoin:round" />
  <polygon
     transform="translate(101.10596,1.8319728)"
     points="0.05,-0.3 3.6443,-0.0082 3.6443,0.5918 0.05,0.3 "
     id="polygon114"
     style="fill:currentColor;stroke:currentColor;stroke-width:0.1;stroke-linecap:round;stroke-linejoin:round" />
  <path
     d="m 121.92736,2.8319728 c 0.8501,-0.8183 3.7339,-0.8183 4.5841,0 l 0,0 c -0.8502,-0.6786 -3.734,-0.6786 -4.5841,0 z"
     id="path116"
     inkscape:connector-curvature="0"
     style="fill:currentColor;stroke:currentColor;stroke-width:0.0931;stroke-linecap:round;stroke-linejoin:round" />
  <rect
     x="104.64886"
     y="2.1177728"
     width="0.1514"
     height="3.5429001"
     ry="0.050000001"
     id="rect118"
     style="fill:currentColor" />
  <path
     d="m 107.19626,5.3079728 c 0,-0.124 0.056,-0.172 0.184,-0.172 0.12,0 0.276,0.036 0.424,0.092 l -0.504,-0.604 c -0.028,-0.036 -0.044,-0.068 -0.044,-0.104 0,-0.136 0.204,-0.264 0.352,-0.404 0.092,-0.088 0.144,-0.204 0.144,-0.324 0,-0.1 -0.036,-0.2 -0.104,-0.28 l -0.124,-0.148 c -0.012,-0.016 -0.016,-0.032 -0.016,-0.048 0,-0.04 0.036,-0.072 0.076,-0.072 0.02,0 0.036,0.004 0.052,0.024 l 0.596,0.712 c 0.028,0.036 0.044,0.068 0.044,0.104 0,0.136 -0.208,0.264 -0.356,0.404 -0.092,0.088 -0.14,0.204 -0.14,0.324 0,0.1 0.036,0.204 0.104,0.284 l 0.316,0.376 c 0.012,0.016 0.016,0.032 0.016,0.048 0,0.04 -0.036,0.072 -0.076,0.072 -0.02,0 -0.036,-0.008 -0.052,-0.028 -0.064,-0.076 -0.228,-0.132 -0.356,-0.132 -0.164,0 -0.22,0.092 -0.22,0.26 0,0.132 0.044,0.292 0.108,0.368 0.024,0.028 0,0.06 -0.028,0.06 -0.008,0 -0.02,-0.008 -0.028,-0.016 -0.176,-0.212 -0.368,-0.58 -0.368,-0.796 z"
     id="path120"
     inkscape:connector-curvature="0"
     style="fill:currentColor" />
  <path
     d="m 104.34736,5.2799728 c 0.236,0 0.452,0.124 0.452,0.38 0,0.284 -0.208,0.48 -0.396,0.592 -0.136,0.084 -0.292,0.132 -0.452,0.132 -0.236,0 -0.452,-0.124 -0.452,-0.38 0,-0.284 0.212,-0.48 0.4,-0.592 0.136,-0.084 0.288,-0.132 0.448,-0.132 z"
     id="path122"
     inkscape:connector-curvature="0"
     style="fill:currentColor" />
  <path
     d="m 119.31746,3.1839728 -0.008,0.248 v 0.044 c 0,0.088 0.008,0.172 0.02,0.256 0.172,-0.152 0.356,-0.32 0.356,-0.548 0,-0.128 -0.056,-0.26 -0.168,-0.26 -0.124,0 -0.196,0.128 -0.2,0.26 z m -0.188,0.708 -0.056,-2.36 c 0.036,-0.02 0.08,-0.032 0.12,-0.032 0.04,0 0.084,0.012 0.12,0.032 l -0.032,1.36 c 0.1,-0.096 0.236,-0.152 0.376,-0.152 0.2,0 0.336,0.2 0.336,0.416 0,0.312 -0.332,0.468 -0.564,0.676 -0.068,0.06 -0.1,0.176 -0.196,0.176 -0.06,0 -0.104,-0.052 -0.104,-0.116 z"
     id="path124"
     inkscape:connector-curvature="0"
     style="fill:currentColor" />
  <rect
     x="120.34346"
     y="3.5775728"
     width="0.1514"
     height="3.2544"
     ry="0.050000001"
     id="rect126"
     style="fill:currentColor" />
  <path
     d="m 121.58346,3.0799728 c 0,-0.092 -0.076,-0.16 -0.16,-0.16 -0.016,0 -0.032,0.004 -0.048,0.008 -0.12,0.032 -0.3,0.152 -0.444,0.244 -0.144,0.092 -0.324,0.208 -0.404,0.304 -0.028,0.032 -0.04,0.068 -0.04,0.108 0,0.092 0.076,0.16 0.16,0.16 0.016,0 0.032,-0.004 0.048,-0.008 0.12,-0.032 0.3,-0.152 0.444,-0.244 0.144,-0.092 0.324,-0.208 0.404,-0.304 0.028,-0.032 0.04,-0.068 0.04,-0.108 z m -0.216,-0.3 c 0.2,0 0.36,0.088 0.36,0.308 0,0.072 -0.02,0.148 -0.04,0.22 -0.044,0.152 -0.12,0.296 -0.252,0.384 -0.212,0.14 -0.444,0.192 -0.732,0.192 -0.2,0 -0.36,-0.088 -0.36,-0.308 0,-0.072 0.02,-0.148 0.04,-0.22 0.044,-0.152 0.12,-0.296 0.252,-0.384 0.212,-0.144 0.444,-0.192 0.732,-0.192 z"
     id="path128"
     inkscape:connector-curvature="0"
     style="fill:currentColor" />
  <path
     d="m 113.17836,4.8319728 h -1.396 c -0.028,0 -0.052,-0.024 -0.052,-0.052 v -0.524 c 0,-0.028 0.024,-0.048 0.052,-0.048 h 1.396 c 0.028,0 0.052,0.02 0.052,0.048 v 0.524 c 0,0.028 -0.024,0.052 -0.052,0.052 z"
     id="path130"
     inkscape:connector-curvature="0"
     style="fill:currentColor" />
  <path
     d="m 40.457264,3.3319728 c 0,-0.12 0.1,-0.22 0.22,-0.22 0.12,0 0.22,0.1 0.22,0.22 0,0.12 -0.1,0.22 -0.22,0.22 -0.12,0 -0.22,-0.1 -0.22,-0.22 z"
     id="path132"
     inkscape:connector-curvature="0"
     style="fill:currentColor" />
  <rect
     x="38.714962"
     y="4.003273"
     width="0.1514"
     height="3.3287001"
     ry="0.050000001"
     id="rect134"
     style="fill:currentColor" />
  <path
     d="m 39.562964,3.2799728 c 0.236,0 0.452,0.124 0.452,0.38 0,0.284 -0.208,0.48 -0.396,0.592 -0.136,0.084 -0.292,0.132 -0.452,0.132 -0.236,0 -0.452,-0.124 -0.452,-0.38 0,-0.284 0.212,-0.48 0.4,-0.592 0.136,-0.084 0.288,-0.132 0.448,-0.132 z"
     id="path136"
     inkscape:connector-curvature="0"
     style="fill:currentColor" />
  <rect
     x="35.069965"
     y="4.003273"
     width="0.1514"
     height="2.8204999"
     ry="0.050000001"
     id="rect138"
     style="fill:currentColor" />
  <path
     d="m 35.918064,3.2799728 c 0.236,0 0.452,0.124 0.452,0.38 0,0.284 -0.208,0.48 -0.396,0.592 -0.136,0.084 -0.292,0.132 -0.452,0.132 -0.236,0 -0.452,-0.124 -0.452,-0.38 0,-0.284 0.212,-0.48 0.4,-0.592 0.136,-0.084 0.288,-0.132 0.448,-0.132 z"
     id="path140"
     inkscape:connector-curvature="0"
     style="fill:currentColor" />
  <rect
     x="47.970165"
     y="3.5032728"
     width="0.1514"
     height="2.8239999"
     ry="0.050000001"
     id="rect142"
     style="fill:currentColor" />
  <path
     d="m 48.818164,2.7799728 c 0.236,0 0.452,0.124 0.452,0.38 0,0.284 -0.208,0.48 -0.396,0.592 -0.136,0.084 -0.292,0.132 -0.452,0.132 -0.236,0 -0.452,-0.124 -0.452,-0.38 0,-0.284 0.212,-0.48 0.4,-0.592 0.136,-0.084 0.288,-0.132 0.448,-0.132 z"
     id="path144"
     inkscape:connector-curvature="0"
     style="fill:currentColor" />
  <rect
     x="44.732765"
     y="3.0032728"
     width="0.1514"
     height="3.1250999"
     ry="0.050000001"
     id="rect146"
     style="fill:currentColor" />
  <path
     d="m 45.580764,2.2799728 c 0.236,0 0.452,0.124 0.452,0.38 0,0.284 -0.208,0.48 -0.396,0.592 -0.136,0.084 -0.292,0.132 -0.452,0.132 -0.236,0 -0.452,-0.124 -0.452,-0.38 0,-0.284 0.212,-0.48 0.4,-0.592 0.136,-0.084 0.288,-0.132 0.448,-0.132 z"
     id="path148"
     inkscape:connector-curvature="0"
     style="fill:currentColor" />
  <rect
     x="20.387264"
     y="4.5775728"
     width="0.1514"
     height="3.2544"
     ry="0.050000001"
     id="rect150"
     style="fill:currentColor" />
  <path
     d="m 18.128464,4.7119728 c -0.192,0 -0.288,-0.16 -0.288,-0.288 0,-0.148 0.104,-0.3 0.28,-0.3 0.012,0 0.024,0.004 0.036,0.004 -0.104,-0.144 -0.268,-0.236 -0.452,-0.236 -0.428,0 -0.452,0.296 -0.452,0.756 0,0.06 0.004,0.12 0.004,0.184 0,0.064 -0.004,0.124 -0.004,0.184 0,0.46 0.024,0.756 0.452,0.756 0.312,0 0.532,-0.28 0.604,-0.596 0.008,-0.032 0.032,-0.044 0.056,-0.044 0.028,0 0.06,0.02 0.06,0.056 0,0.38 -0.412,0.704 -0.72,0.704 -0.272,0 -0.548,-0.08 -0.736,-0.28 -0.196,-0.208 -0.264,-0.496 -0.264,-0.78 0,-0.284 0.068,-0.572 0.264,-0.78 0.188,-0.2 0.464,-0.28 0.736,-0.28 0.344,0 0.624,0.268 0.684,0.612 0.004,0.016 0.004,0.036 0.004,0.052 0,0.152 -0.12,0.276 -0.264,0.276 z"
     id="path152"
     inkscape:connector-curvature="0"
     style="fill:currentColor" />
  <path
     d="m 14.020464,4.7759728 c 0.012,0 0.028,-0.004 0.04,-0.004 0.628,0 1.032,0.516 1.032,1.052 0,0.308 -0.132,0.62 -0.432,0.844 -0.088,0.064 -0.184,0.116 -0.288,0.148 0.012,0.132 0.016,0.264 0.016,0.396 0,0.084 0,0.164 -0.004,0.248 -0.028,0.484 -0.364,0.916 -0.844,0.916 -0.432,0 -0.784,-0.352 -0.784,-0.788 0,-0.232 0.216,-0.412 0.452,-0.412 0.216,0 0.38,0.188 0.38,0.412 0,0.208 -0.172,0.38 -0.38,0.38 -0.036,0 -0.072,-0.004 -0.108,-0.016 0.1,0.148 0.264,0.244 0.452,0.244 0.38,0 0.624,-0.372 0.648,-0.764 0.004,-0.076 0.008,-0.152 0.008,-0.228 0,-0.116 -0.004,-0.232 -0.012,-0.348 -0.116,0.02 -0.232,0.032 -0.352,0.032 -0.756,0 -1.332,-0.692 -1.332,-1.504 0,-0.708 0.516,-1.232 0.976,-1.772 -0.08,-0.248 -0.16,-0.496 -0.192,-0.756 -0.028,-0.208 -0.028,-0.42 -0.028,-0.632 0,-0.456 0.216,-0.884 0.588,-1.152 0.016,-0.012 0.032,-0.016 0.048,-0.016 0.02,0 0.036,0.008 0.052,0.02 0.288,0.332 0.54,0.972 0.54,1.424 0,0.568 -0.336,1.02 -0.704,1.456 0.084,0.272 0.16,0.544 0.228,0.82 z m 0.336,1.86 c 0.26,-0.096 0.44,-0.376 0.44,-0.644 0,-0.352 -0.256,-0.7 -0.668,-0.752 0.096,0.456 0.176,0.908 0.228,1.396 z m -1.544,-0.904 c 0,0.532 0.512,0.972 1.044,0.972 0.108,0 0.22,-0.004 0.324,-0.02 -0.052,-0.504 -0.14,-0.976 -0.24,-1.448 -0.316,0.032 -0.496,0.24 -0.496,0.472 0,0.172 0.1,0.352 0.32,0.48 0.02,0.02 0.028,0.044 0.028,0.068 0,0.048 -0.04,0.092 -0.092,0.092 -0.012,0 -0.028,-0.004 -0.04,-0.008 -0.324,-0.172 -0.472,-0.46 -0.472,-0.744 0,-0.356 0.24,-0.708 0.652,-0.8 -0.056,-0.228 -0.12,-0.452 -0.188,-0.676 -0.42,0.488 -0.84,0.972 -0.84,1.612 z m 1.304,-4.052 c -0.396,0.184 -0.644,0.58 -0.644,1.016 0,0.284 0.084,0.52 0.156,0.752 0.312,-0.388 0.568,-0.796 0.568,-1.296 0,-0.204 -0.016,-0.288 -0.08,-0.472 z"
     id="path154"
     inkscape:connector-curvature="0"
     style="fill:currentColor" />
  <path
     d="m 21.627364,4.0799728 c 0,-0.092 -0.076,-0.16 -0.16,-0.16 -0.016,0 -0.032,0.004 -0.048,0.008 -0.12,0.032 -0.3,0.152 -0.444,0.244 -0.144,0.092 -0.324,0.208 -0.404,0.304 -0.028,0.032 -0.04,0.068 -0.04,0.108 0,0.092 0.076,0.16 0.16,0.16 0.016,0 0.032,-0.004 0.048,-0.008 0.12,-0.032 0.3,-0.152 0.444,-0.244 0.144,-0.092 0.324,-0.208 0.404,-0.304 0.028,-0.032 0.04,-0.068 0.04,-0.108 z m -0.216,-0.3 c 0.2,0 0.36,0.088 0.36,0.308 0,0.072 -0.02,0.148 -0.04,0.22 -0.044,0.152 -0.12,0.296 -0.252,0.384 -0.212,0.14 -0.444,0.192 -0.732,0.192 -0.2,0 -0.36,-0.088 -0.36,-0.308 0,-0.072 0.02,-0.148 0.04,-0.22 0.044,-0.152 0.12,-0.296 0.252,-0.384 0.212,-0.144 0.444,-0.192 0.732,-0.192 z"
     id="path156"
     inkscape:connector-curvature="0"
     style="fill:currentColor" />
  <path
     d="m 31.497164,3.1839728 -0.008,0.248 v 0.044 c 0,0.088 0.008,0.172 0.02,0.256 0.172,-0.152 0.356,-0.32 0.356,-0.548 0,-0.128 -0.056,-0.26 -0.168,-0.26 -0.124,0 -0.196,0.128 -0.2,0.26 z m -0.188,0.708 -0.056,-2.36 c 0.036,-0.02 0.08,-0.032 0.12,-0.032 0.04,0 0.084,0.012 0.12,0.032 l -0.032,1.36 c 0.1,-0.096 0.236,-0.152 0.376,-0.152 0.2,0 0.336,0.2 0.336,0.416 0,0.312 -0.332,0.468 -0.564,0.676 -0.068,0.06 -0.1,0.176 -0.196,0.176 -0.06,0 -0.104,-0.052 -0.104,-0.116 z"
     id="path158"
     inkscape:connector-curvature="0"
     style="fill:currentColor" />
  <rect
     x="32.523163"
     y="3.5032728"
     width="0.1514"
     height="3.0451"
     ry="0.050000001"
     id="rect160"
     style="fill:currentColor" />
  <path
     d="m 33.371164,2.7799728 c 0.236,0 0.452,0.124 0.452,0.38 0,0.284 -0.208,0.48 -0.396,0.592 -0.136,0.084 -0.292,0.132 -0.452,0.132 -0.236,0 -0.452,-0.124 -0.452,-0.38 0,-0.284 0.212,-0.48 0.4,-0.592 0.136,-0.084 0.288,-0.132 0.448,-0.132 z"
     id="path162"
     inkscape:connector-curvature="0"
     style="fill:currentColor" />
  <rect
     x="26.755363"
     y="4.503273"
     width="0.1514"
     height="3.3287001"
     ry="0.050000001"
     id="rect164"
     style="fill:currentColor" />
  <path
     d="m 28.497664,4.3319728 c 0,-0.12 0.1,-0.22 0.22,-0.22 0.12,0 0.22,0.1 0.22,0.22 0,0.12 -0.1,0.22 -0.22,0.22 -0.12,0 -0.22,-0.1 -0.22,-0.22 z"
     id="path166"
     inkscape:connector-curvature="0"
     style="fill:currentColor" />
  <path
     d="m 27.603364,3.7799728 c 0.236,0 0.452,0.124 0.452,0.38 0,0.284 -0.208,0.48 -0.396,0.592 -0.136,0.084 -0.292,0.132 -0.452,0.132 -0.236,0 -0.452,-0.124 -0.452,-0.38 0,-0.284 0.212,-0.48 0.4,-0.592 0.136,-0.084 0.288,-0.132 0.448,-0.132 z"
     id="path168"
     inkscape:connector-curvature="0"
     style="fill:currentColor" />
  <rect
     x="63.887062"
     y="2.0032728"
     width="0.1514"
     height="3.8313"
     ry="0.050000001"
     id="rect170"
     style="fill:currentColor" />
  <path
     d="m 64.735164,1.2799728 c 0.236,0 0.452,0.124 0.452,0.38 0,0.284 -0.208,0.48 -0.396,0.592 -0.136,0.084 -0.292,0.132 -0.452,0.132 -0.236,0 -0.452,-0.124 -0.452,-0.38 0,-0.284 0.212,-0.48 0.4,-0.592 0.136,-0.084 0.288,-0.132 0.448,-0.132 z"
     id="path172"
     inkscape:connector-curvature="0"
     style="fill:currentColor" />
  <rect
     x="60.649662"
     y="2.5032728"
     width="0.1514"
     height="3.4426"
     ry="0.050000001"
     id="rect174"
     style="fill:currentColor" />
  <path
     d="m 61.497764,1.7799728 c 0.236,0 0.452,0.124 0.452,0.38 0,0.284 -0.208,0.48 -0.396,0.592 -0.136,0.084 -0.292,0.132 -0.452,0.132 -0.236,0 -0.452,-0.124 -0.452,-0.38 0,-0.284 0.212,-0.48 0.4,-0.592 0.136,-0.084 0.288,-0.132 0.448,-0.132 z"
     id="path176"
     inkscape:connector-curvature="0"
     style="fill:currentColor" />
  <path
     d="m 62.861164,1.6839728 -0.008,0.248 v 0.044 c 0,0.088 0.008,0.172 0.02,0.256 0.172,-0.152 0.356,-0.32 0.356,-0.548 0,-0.128 -0.056,-0.26 -0.168,-0.26 -0.124,0 -0.196,0.128 -0.2,0.26 z m -0.188,0.708 -0.056,-2.35999997 c 0.036,-0.02 0.08,-0.03200000111 0.12,-0.03200000111 0.04,0 0.084,0.01200000111 0.12,0.03200000111 l -0.032,1.35999997 c 0.1,-0.096 0.236,-0.152 0.376,-0.152 0.2,0 0.336,0.2 0.336,0.416 0,0.312 -0.332,0.468 -0.564,0.676 -0.068,0.06 -0.1,0.176 -0.196,0.176 -0.06,0 -0.104,-0.052 -0.104,-0.116 z"
     id="path178"
     inkscape:connector-curvature="0"
     style="fill:currentColor" />
  <path
     d="m 68.332064,3.2799728 c 0.236,0 0.452,0.124 0.452,0.38 0,0.284 -0.208,0.48 -0.396,0.592 -0.136,0.084 -0.292,0.132 -0.452,0.132 -0.236,0 -0.452,-0.124 -0.452,-0.38 0,-0.284 0.212,-0.48 0.4,-0.592 0.136,-0.084 0.288,-0.132 0.448,-0.132 z"
     id="path180"
     inkscape:connector-curvature="0"
     style="fill:currentColor" />
  <rect
     x="67.484062"
     y="4.003273"
     width="0.1514"
     height="3.3287001"
     ry="0.050000001"
     id="rect182"
     style="fill:currentColor" />
  <rect
     x="58.102863"
     y="3.0032728"
     width="0.1514"
     height="3.0302"
     ry="0.050000001"
     id="rect184"
     style="fill:currentColor" />
  <path
     d="m 56.403964,2.7799728 c 0.236,0 0.452,0.124 0.452,0.38 0,0.284 -0.208,0.48 -0.396,0.592 -0.136,0.084 -0.292,0.132 -0.452,0.132 -0.236,0 -0.452,-0.124 -0.452,-0.38 0,-0.284 0.212,-0.48 0.4,-0.592 0.136,-0.084 0.288,-0.132 0.448,-0.132 z"
     id="path186"
     inkscape:connector-curvature="0"
     style="fill:currentColor" />
  <rect
     x="50.517063"
     y="3.5032728"
     width="0.1514"
     height="3.3287001"
     ry="0.050000001"
     id="rect188"
     style="fill:currentColor" />
  <rect
     x="55.555965"
     y="3.5032728"
     width="0.1514"
     height="2.6178999"
     ry="0.050000001"
     id="rect190"
     style="fill:currentColor" />
  <path
     d="m 51.365064,2.7799728 c 0.236,0 0.452,0.124 0.452,0.38 0,0.284 -0.208,0.48 -0.396,0.592 -0.136,0.084 -0.292,0.132 -0.452,0.132 -0.236,0 -0.452,-0.124 -0.452,-0.38 0,-0.284 0.212,-0.48 0.4,-0.592 0.136,-0.084 0.288,-0.132 0.448,-0.132 z"
     id="path192"
     inkscape:connector-curvature="0"
     style="fill:currentColor" />
  <path
     d="m 46.944164,3.1839728 -0.008,0.248 v 0.044 c 0,0.088 0.008,0.172 0.02,0.256 0.172,-0.152 0.356,-0.32 0.356,-0.548 0,-0.128 -0.056,-0.26 -0.168,-0.26 -0.124,0 -0.196,0.128 -0.2,0.26 z m -0.188,0.708 -0.056,-2.36 c 0.036,-0.02 0.08,-0.032 0.12,-0.032 0.04,0 0.084,0.012 0.12,0.032 l -0.032,1.36 c 0.1,-0.096 0.236,-0.152 0.376,-0.152 0.2,0 0.336,0.2 0.336,0.416 0,0.312 -0.332,0.468 -0.564,0.676 -0.068,0.06 -0.1,0.176 -0.196,0.176 -0.06,0 -0.104,-0.052 -0.104,-0.116 z"
     id="path194"
     inkscape:connector-curvature="0"
     style="fill:currentColor" />
  <path
     d="m 58.950864,2.2799728 c 0.236,0 0.452,0.124 0.452,0.38 0,0.284 -0.208,0.48 -0.396,0.592 -0.136,0.084 -0.292,0.132 -0.452,0.132 -0.236,0 -0.452,-0.124 -0.452,-0.38 0,-0.284 0.212,-0.48 0.4,-0.592 0.136,-0.084 0.288,-0.132 0.448,-0.132 z"
     id="path196"
     inkscape:connector-curvature="0"
     style="fill:currentColor" />
  <line
     x1="1.0928637"
     y1="18.831972"
     x2="136.12708"
     y2="18.831972"
     id="line198"
     style="stroke:currentColor;stroke-width:0.1164;stroke-linecap:round;stroke-linejoin:round" />
  <line
     x1="1.0928637"
     y1="17.831972"
     x2="136.12708"
     y2="17.831972"
     id="line200"
     style="stroke:currentColor;stroke-width:0.1164;stroke-linecap:round;stroke-linejoin:round" />
  <line
     x1="1.0928637"
     y1="16.831972"
     x2="136.12708"
     y2="16.831972"
     id="line202"
     style="stroke:currentColor;stroke-width:0.1164;stroke-linecap:round;stroke-linejoin:round" />
  <line
     x1="1.0928637"
     y1="15.831973"
     x2="136.12708"
     y2="15.831973"
     id="line204"
     style="stroke:currentColor;stroke-width:0.1164;stroke-linecap:round;stroke-linejoin:round" />
  <line
     x1="1.0928637"
     y1="14.831973"
     x2="136.12708"
     y2="14.831973"
     id="line206"
     style="stroke:currentColor;stroke-width:0.1164;stroke-linecap:round;stroke-linejoin:round" />
  <rect
     x="32.589165"
     y="14.831973"
     width="0.2212"
     height="4"
     ry="0"
     id="rect208"
     style="fill:currentColor" />
  <rect
     x="135.96407"
     y="14.831973"
     width="0.2212"
     height="4"
     ry="0"
     id="rect210"
     style="fill:currentColor" />
  <rect
     x="122.75266"
     y="14.831973"
     width="0.2212"
     height="4"
     ry="0"
     id="rect212"
     style="fill:currentColor" />
  <rect
     x="60.094463"
     y="14.831973"
     width="0.2212"
     height="4"
     ry="0"
     id="rect214"
     style="fill:currentColor" />
  <rect
     x="91.827065"
     y="14.831973"
     width="0.2212"
     height="4"
     ry="0"
     id="rect216"
     style="fill:currentColor" />
  <rect
     x="93.090164"
     y="16.503273"
     width="0.1514"
     height="3.3287001"
     ry="0.050000001"
     id="rect218"
     style="fill:currentColor" />
  <path
     d="m 94.832464,16.331973 c 0,-0.12 0.1,-0.22 0.22,-0.22 0.12,0 0.22,0.1 0.22,0.22 0,0.12 -0.1,0.22 -0.22,0.22 -0.12,0 -0.22,-0.1 -0.22,-0.22 z"
     id="path220"
     inkscape:connector-curvature="0"
     style="fill:currentColor" />
  <path
     d="m 93.938264,15.779973 c 0.236,0 0.452,0.124 0.452,0.38 0,0.284 -0.208,0.48 -0.396,0.592 -0.136,0.084 -0.292,0.132 -0.452,0.132 -0.236,0 -0.452,-0.124 -0.452,-0.38 0,-0.284 0.212,-0.48 0.4,-0.592 0.136,-0.084 0.288,-0.132 0.448,-0.132 z"
     id="path222"
     inkscape:connector-curvature="0"
     style="fill:currentColor" />
  <path
     d="m 103.37336,13.779973 c 0.236,0 0.452,0.124 0.452,0.38 0,0.284 -0.208,0.48 -0.396,0.592 -0.136,0.084 -0.292,0.132 -0.452,0.132 -0.236,0 -0.452,-0.124 -0.452,-0.38 0,-0.284 0.212,-0.48 0.4,-0.592 0.136,-0.084 0.288,-0.132 0.448,-0.132 z"
     id="path224"
     inkscape:connector-curvature="0"
     style="fill:currentColor" />
  <rect
     x="104.79967"
     y="16.503273"
     width="0.1514"
     height="2.6205001"
     ry="0.050000001"
     id="rect226"
     style="fill:currentColor" />
  <path
     d="m 105.64766,15.779973 c 0.236,0 0.452,0.124 0.452,0.38 0,0.284 -0.208,0.48 -0.396,0.592 -0.136,0.084 -0.292,0.132 -0.452,0.132 -0.236,0 -0.452,-0.124 -0.452,-0.38 0,-0.284 0.212,-0.48 0.4,-0.592 0.136,-0.084 0.288,-0.132 0.448,-0.132 z"
     id="path228"
     inkscape:connector-curvature="0"
     style="fill:currentColor" />
  <rect
     x="102.52526"
     y="14.503273"
     width="0.1514"
     height="4.6205001"
     ry="0.050000001"
     id="rect230"
     style="fill:currentColor" />
  <path
     d="m 98.119364,16.147973 c -0.048,0 -0.084,-0.036 -0.084,-0.084 v -0.552 l -0.316,0.12 v 0.616 c 0,0.048 -0.036,0.084 -0.084,0.084 -0.048,0 -0.084,-0.036 -0.084,-0.084 v -0.552 l -0.088,0.032 c -0.012,0.004 -0.024,0.008 -0.036,0.008 -0.052,0 -0.1,-0.044 -0.1,-0.1 v -0.216 c 0,-0.04 0.024,-0.08 0.064,-0.096 l 0.16,-0.06 v -0.62 l -0.088,0.036 c -0.012,0.004 -0.024,0.004 -0.036,0.004 -0.052,0 -0.1,-0.044 -0.1,-0.1 v -0.216 c 0,-0.04 0.024,-0.076 0.064,-0.092 l 0.16,-0.06 v -0.616 c 0,-0.048 0.036,-0.084 0.084,-0.084 0.048,0 0.084,0.036 0.084,0.084 v 0.552 l 0.316,-0.12 v -0.616 c 0,-0.048 0.036,-0.084 0.084,-0.084 0.048,0 0.084,0.036 0.084,0.084 v 0.552 l 0.088,-0.032 c 0.012,-0.004 0.024,-0.008 0.036,-0.008 0.052,0 0.1,0.044 0.1,0.1 v 0.216 c 0,0.04 -0.024,0.08 -0.064,0.096 l -0.16,0.06 v 0.62 l 0.088,-0.036 c 0.012,-0.004 0.024,-0.004 0.036,-0.004 0.052,0 0.1,0.044 0.1,0.1 v 0.216 c 0,0.04 -0.024,0.076 -0.064,0.092 l -0.16,0.06 v 0.616 c 0,0.048 -0.036,0.084 -0.084,0.084 z m -0.4,-1.564 v 0.616 l 0.316,-0.12 v -0.616 z"
     id="path232"
     inkscape:connector-curvature="0"
     style="fill:currentColor" />
  <path
     d="m 98.928764,18.281973 h -0.076 v -1 h 0.076 c 0.38,-0.236 0.88,-0.596 0.88,-1.036 0,-0.224 -0.064,-0.444 -0.164,-0.644 -0.012,-0.072 0.048,-0.12 0.104,-0.12 0.032,0 0.068,0.016 0.088,0.052 0.1,0.224 0.16,0.464 0.16,0.712 0,0.812 -1.068,1.224 -1.068,2.036 z"
     id="path234"
     inkscape:connector-curvature="0"
     style="fill:currentColor" />
  <rect
     x="98.777367"
     y="15.003273"
     width="0.1514"
     height="3.3287001"
     ry="0.050000001"
     id="rect236"
     style="fill:currentColor" />
  <path
     d="m 99.625364,14.279973 c 0.236,0 0.451996,0.124 0.451996,0.38 0,0.284 -0.207996,0.48 -0.395996,0.592 -0.136,0.084 -0.292,0.132 -0.452,0.132 -0.236,0 -0.452,-0.124 -0.452,-0.38 0,-0.284 0.212,-0.48 0.4,-0.592 0.136,-0.084 0.288,-0.132 0.448,-0.132 z"
     id="path238"
     inkscape:connector-curvature="0"
     style="fill:currentColor" />
  <rect
     x="76.655861"
     y="16.503273"
     width="0.1514"
     height="3.0425"
     ry="0.050000001"
     id="rect240"
     style="fill:currentColor" />
  <path
     d="m 77.503864,15.779973 c 0.236,0 0.452,0.124 0.452,0.38 0,0.284 -0.208,0.48 -0.396,0.592 -0.136,0.084 -0.292,0.132 -0.452,0.132 -0.236,0 -0.452,-0.124 -0.452,-0.38 0,-0.284 0.212,-0.48 0.4,-0.592 0.136,-0.084 0.288,-0.132 0.448,-0.132 z"
     id="path242"
     inkscape:connector-curvature="0"
     style="fill:currentColor" />
  <path
     d="m 71.881964,16.683973 -0.008,0.248 v 0.044 c 0,0.088 0.008,0.172 0.02,0.256 0.172,-0.152 0.356,-0.32 0.356,-0.548 0,-0.128 -0.056,-0.26 -0.168,-0.26 -0.124,0 -0.196,0.128 -0.2,0.26 z m -0.188,0.708 -0.056,-2.36 c 0.036,-0.02 0.08,-0.032 0.12,-0.032 0.04,0 0.084,0.012 0.12,0.032 l -0.032,1.36 c 0.1,-0.096 0.236,-0.152 0.376,-0.152 0.2,0 0.336,0.2 0.336,0.416 0,0.312 -0.332,0.468 -0.564,0.676 -0.068,0.06 -0.1,0.176 -0.196,0.176 -0.06,0 -0.104,-0.052 -0.104,-0.116 z"
     id="path244"
     inkscape:connector-curvature="0"
     style="fill:currentColor" />
  <path
     d="m 73.059264,20.156973 h -0.076 v -1 h 0.076 c 0.38,-0.236 0.88,-0.596 0.88,-1.036 0,-0.224 -0.064,-0.444 -0.164,-0.644 -0.012,-0.072 0.048,-0.12 0.104,-0.12 0.032,0 0.068,0.016 0.088,0.052 0.1,0.224 0.16,0.464 0.16,0.712 0,0.812 -1.068,1.224 -1.068,2.036 z"
     id="path246"
     inkscape:connector-curvature="0"
     style="fill:currentColor" />
  <rect
     x="72.907867"
     y="17.003273"
     width="0.1514"
     height="3.2037001"
     ry="0.050000001"
     id="rect248"
     style="fill:currentColor" />
  <path
     d="m 73.755964,16.279973 c 0.236,0 0.452,0.124 0.452,0.38 0,0.284 -0.208,0.48 -0.396,0.592 -0.136,0.084 -0.292,0.132 -0.452,0.132 -0.236,0 -0.452,-0.124 -0.452,-0.38 0,-0.284 0.212,-0.48 0.4,-0.592 0.136,-0.084 0.288,-0.132 0.448,-0.132 z"
     id="path250"
     inkscape:connector-curvature="0"
     style="fill:currentColor" />
  <path
     d="m 69.728864,17.831973 0.472,-1.304 c -0.132,0.048 -0.264,0.088 -0.404,0.088 -0.184,0 -0.348,-0.136 -0.348,-0.316 0,-0.16 0.132,-0.288 0.292,-0.288 0.1,0 0.196,0.056 0.228,0.148 0.04,0.108 0.016,0.236 0.132,0.236 0.056,0 0.2,-0.168 0.224,-0.22 0.028,-0.056 0.112,-0.056 0.136,0 l -0.476,1.656 c -0.036,0.032 -0.084,0.048 -0.128,0.048 -0.044,0 -0.092,-0.016 -0.128,-0.048 z"
     id="path252"
     inkscape:connector-curvature="0"
     style="fill:currentColor" />
  <polygon
     transform="translate(13.671364,14.540173)"
     points="0.05,-0.3 2.6257,-0.0082 2.6257,0.5918 0.05,0.3 "
     id="polygon254"
     style="fill:currentColor;stroke:currentColor;stroke-width:0.1;stroke-linecap:round;stroke-linejoin:round" />
  <polygon
     transform="translate(13.671364,15.671673)"
     points="0.05,-0.3 2.6257,-0.0082 2.6257,0.5918 0.05,0.3 "
     id="polygon256"
     style="fill:currentColor;stroke:currentColor;stroke-width:0.1;stroke-linecap:round;stroke-linejoin:round" />
  <path
     d="m 84.977264,16.779973 c 0.236,0 0.452,0.124 0.452,0.38 0,0.284 -0.208,0.48 -0.396,0.592 -0.136,0.084 -0.292,0.132 -0.452,0.132 -0.236,0 -0.452,-0.124 -0.452,-0.38 0,-0.284 0.212,-0.48 0.4,-0.592 0.136,-0.084 0.288,-0.132 0.448,-0.132 z"
     id="path258"
     inkscape:connector-curvature="0"
     style="fill:currentColor" />
  <rect
     x="89.026566"
     y="14.826273"
     width="0.1514"
     height="2.8343"
     ry="0.050000001"
     id="rect260"
     style="fill:currentColor" />
  <path
     d="m 88.725164,17.279973 c 0.236,0 0.452,0.124 0.452,0.38 0,0.284 -0.208,0.48 -0.396,0.592 -0.136,0.084 -0.292,0.132 -0.452,0.132 -0.236,0 -0.452,-0.124 -0.452,-0.38 0,-0.284 0.212,-0.48 0.4,-0.592 0.136,-0.084 0.288,-0.132 0.448,-0.132 z"
     id="path262"
     inkscape:connector-curvature="0"
     style="fill:currentColor" />
  <path
     d="m 83.103264,17.183973 -0.008,0.248 v 0.044 c 0,0.088 0.008,0.172 0.02,0.256 0.172,-0.152 0.356,-0.32 0.356,-0.548 0,-0.128 -0.056,-0.26 -0.168,-0.26 -0.124,0 -0.196,0.128 -0.2,0.26 z m -0.188,0.708 -0.056,-2.36 c 0.036,-0.02 0.08,-0.032 0.12,-0.032 0.04,0 0.084,0.012 0.12,0.032 l -0.032,1.36 c 0.1,-0.096 0.236,-0.152 0.376,-0.152 0.2,0 0.336,0.2 0.336,0.416 0,0.312 -0.332,0.468 -0.564,0.676 -0.068,0.06 -0.1,0.176 -0.196,0.176 -0.06,0 -0.104,-0.052 -0.104,-0.116 z"
     id="path264"
     inkscape:connector-curvature="0"
     style="fill:currentColor" />
  <rect
     x="85.278664"
     y="14.545873"
     width="0.1514"
     height="2.6148"
     ry="0.050000001"
     id="rect266"
     style="fill:currentColor" />
  <path
     d="m 79.377764,16.683973 -0.008,0.248 v 0.044 c 0,0.088 0.008,0.172 0.02,0.256 0.172,-0.152 0.356,-0.32 0.356,-0.548 0,-0.128 -0.056,-0.26 -0.168,-0.26 -0.124,0 -0.196,0.128 -0.2,0.26 z m -0.188,0.708 -0.056,-2.36 c 0.036,-0.02 0.08,-0.032 0.12,-0.032 0.04,0 0.084,0.012 0.12,0.032 l -0.032,1.36 c 0.1,-0.096 0.236,-0.152 0.376,-0.152 0.2,0 0.336,0.2 0.336,0.416 0,0.312 -0.332,0.468 -0.564,0.676 -0.068,0.06 -0.1,0.176 -0.196,0.176 -0.06,0 -0.104,-0.052 -0.104,-0.116 z"
     id="path268"
     inkscape:connector-curvature="0"
     style="fill:currentColor" />
  <rect
     x="80.403763"
     y="17.003273"
     width="0.1514"
     height="2.823"
     ry="0.050000001"
     id="rect270"
     style="fill:currentColor" />
  <path
     d="m 81.251764,16.279973 c 0.236,0 0.452,0.124 0.452,0.38 0,0.284 -0.208,0.48 -0.396,0.592 -0.136,0.084 -0.292,0.132 -0.452,0.132 -0.236,0 -0.452,-0.124 -0.452,-0.38 0,-0.284 0.212,-0.48 0.4,-0.592 0.136,-0.084 0.288,-0.132 0.448,-0.132 z"
     id="path272"
     inkscape:connector-curvature="0"
     style="fill:currentColor" />
  <path
     d="m 130.79556,16.331973 c 0,-0.12 0.1,-0.22 0.22,-0.22 0.12,0 0.22,0.1 0.22,0.22 0,0.12 -0.1,0.22 -0.22,0.22 -0.12,0 -0.22,-0.1 -0.22,-0.22 z"
     id="path274"
     inkscape:connector-curvature="0"
     style="fill:currentColor" />
  <path
     d="m 130.30216,16.831973 h -1.396 c -0.028,0 -0.052,-0.024 -0.052,-0.052 v -0.524 c 0,-0.028 0.024,-0.048 0.052,-0.048 h 1.396 c 0.028,0 0.052,0.02 0.052,0.048 v 0.524 c 0,0.028 -0.024,0.052 -0.052,0.052 z"
     id="path276"
     inkscape:connector-curvature="0"
     style="fill:currentColor" />
  <polygon
     transform="translate(114.90336,13.831973)"
     points="0.05,-0.3 6.3737,-0.0082 6.3737,0.5918 0.05,0.3 "
     id="polygon278"
     style="fill:currentColor;stroke:currentColor;stroke-width:0.1;stroke-linecap:round;stroke-linejoin:round" />
  <polygon
     transform="translate(118.65126,15.133673)"
     points="0.05,-0.3 2.6257,-0.1785 2.6257,0.4215 0.05,0.3 "
     id="polygon280"
     style="fill:currentColor;stroke:currentColor;stroke-width:0.1;stroke-linecap:round;stroke-linejoin:round" />
  <polygon
     transform="translate(18.720064,14.540173)"
     points="0.05,-0.3 7.0642,-0.0082 7.0642,0.5918 0.05,0.3 "
     id="polygon282"
     style="fill:currentColor;stroke:currentColor;stroke-width:0.1;stroke-linecap:round;stroke-linejoin:round" />
  <polygon
     transform="translate(22.467964,15.825373)"
     points="0.05,-0.3 3.3163,-0.1619 3.3163,0.4381 0.05,0.3 "
     id="polygon284"
     style="fill:currentColor;stroke:currentColor;stroke-width:0.1;stroke-linecap:round;stroke-linejoin:round" />
  <path
     d="m 29.249164,16.634173 c 0.8274,-0.8075 3.5472,-0.8075 4.3746,0 l 0,0 c -0.8274,-0.6678 -3.5472,-0.6678 -4.3746,0 z"
     id="path286"
     inkscape:connector-curvature="0"
     style="fill:currentColor;stroke:currentColor;stroke-width:0.0931;stroke-linecap:round;stroke-linejoin:round" />
  <polygon
     transform="translate(33.823764,19.831973)"
     points="0.05,-0.3 4.0993,-0.5918 4.0993,0.0082 0.05,0.3 "
     id="polygon288"
     style="fill:currentColor;stroke:currentColor;stroke-width:0.1;stroke-linecap:round;stroke-linejoin:round" />
  <polygon
     transform="translate(42.339464,13.831973)"
     points="0.05,-0.3 4.565,-0.5918 4.565,0.0082 0.05,0.3 "
     id="polygon290"
     style="fill:currentColor;stroke:currentColor;stroke-width:0.1;stroke-linecap:round;stroke-linejoin:round" />
  <polygon
     transform="translate(45.778764,14.745973)"
     points="0.05,-0.3 1.1257,-0.3743 1.1257,0.2257 0.05,0.3 "
     id="polygon292"
     style="fill:currentColor;stroke:currentColor;stroke-width:0.1;stroke-linecap:round;stroke-linejoin:round" />
  <polygon
     transform="translate(62.214964,18.540173)"
     points="0.05,-0.3 3.8493,-0.0082 3.8493,0.5918 0.05,0.3 "
     id="polygon294"
     style="fill:currentColor;stroke:currentColor;stroke-width:0.1;stroke-linecap:round;stroke-linejoin:round" />
  <polygon
     transform="translate(76.655864,19.540173)"
     points="0.05,-0.3 3.8493,-0.0082 3.8493,0.5918 0.05,0.3 "
     id="polygon296"
     style="fill:currentColor;stroke:currentColor;stroke-width:0.1;stroke-linecap:round;stroke-linejoin:round" />
  <polygon
     transform="translate(85.278664,14.540173)"
     points="0.05,-0.3 3.8493,-0.0082 3.8493,0.5918 0.05,0.3 "
     id="polygon298"
     style="fill:currentColor;stroke:currentColor;stroke-width:0.1;stroke-linecap:round;stroke-linejoin:round" />
  <polygon
     transform="translate(102.52536,17.992273)"
     points="0.05,-0.3 8.115,-0.3 8.115,0.3 0.05,0.3 "
     id="polygon300"
     style="fill:currentColor;stroke:currentColor;stroke-width:0.1;stroke-linecap:round;stroke-linejoin:round" />
  <polygon
     transform="translate(102.52536,19.123773)"
     points="0.05,-0.3 8.115,-0.3 8.115,0.3 0.05,0.3 "
     id="polygon302"
     style="fill:currentColor;stroke:currentColor;stroke-width:0.1;stroke-linecap:round;stroke-linejoin:round" />
  <rect
     x="125.03217"
     y="14.331973"
     width="0.1514"
     height="3.3287001"
     ry="0.050000001"
     id="rect304"
     style="fill:currentColor" />
  <rect
     x="114.90337"
     y="13.835373"
     width="0.1514"
     height="2.8252001"
     ry="0.050000001"
     id="rect306"
     style="fill:currentColor" />
  <path
     d="m 114.60186,16.279973 c 0.236,0 0.452,0.124 0.452,0.38 0,0.284 -0.208,0.48 -0.396,0.592 -0.136,0.084 -0.292,0.132 -0.452,0.132 -0.236,0 -0.452,-0.124 -0.452,-0.38 0,-0.284 0.212,-0.48 0.4,-0.592 0.136,-0.084 0.288,-0.132 0.448,-0.132 z"
     id="path308"
     inkscape:connector-curvature="0"
     style="fill:currentColor" />
  <path
     d="m 109.51296,15.183973 -0.008,0.248 v 0.044 c 0,0.088 0.008,0.172 0.02,0.256 0.172,-0.152 0.356,-0.32 0.356,-0.548 0,-0.128 -0.056,-0.26 -0.168,-0.26 -0.124,0 -0.196,0.128 -0.2,0.26 z m -0.188,0.708 -0.056,-2.36 c 0.036,-0.02 0.08,-0.032 0.12,-0.032 0.04,0 0.084,0.012 0.12,0.032 l -0.032,1.36 c 0.1,-0.096 0.236,-0.152 0.376,-0.152 0.2,0 0.336,0.2 0.336,0.416 0,0.312 -0.332,0.468 -0.564,0.676 -0.068,0.06 -0.1,0.176 -0.196,0.176 -0.06,0 -0.104,-0.052 -0.104,-0.116 z"
     id="path310"
     inkscape:connector-curvature="0"
     style="fill:currentColor" />
  <rect
     x="110.53896"
     y="15.503273"
     width="0.1514"
     height="3.6205001"
     ry="0.050000001"
     id="rect312"
     style="fill:currentColor" />
  <path
     d="m 111.38696,14.779973 c 0.236,0 0.452,0.124 0.452,0.38 0,0.284 -0.208,0.48 -0.396,0.592 -0.136,0.084 -0.292,0.132 -0.452,0.132 -0.236,0 -0.452,-0.124 -0.452,-0.38 0,-0.284 0.212,-0.48 0.4,-0.592 0.136,-0.084 0.288,-0.132 0.448,-0.132 z"
     id="path314"
     inkscape:connector-curvature="0"
     style="fill:currentColor" />
  <rect
     x="107.32407"
     y="16.003273"
     width="0.1514"
     height="3.1205001"
     ry="0.050000001"
     id="rect316"
     style="fill:currentColor" />
  <path
     d="m 108.17206,15.279973 c 0.236,0 0.452,0.124 0.452,0.38 0,0.284 -0.208,0.48 -0.396,0.592 -0.136,0.084 -0.292,0.132 -0.452,0.132 -0.236,0 -0.452,-0.124 -0.452,-0.38 0,-0.284 0.212,-0.48 0.4,-0.592 0.136,-0.084 0.288,-0.132 0.448,-0.132 z"
     id="path318"
     inkscape:connector-curvature="0"
     style="fill:currentColor" />
  <path
     d="m 116.42626,15.831973 c 0.032,-0.02 0.072,-0.028 0.108,-0.028 0.036,0 0.072,0.008 0.104,0.028 l -0.012,0.768 0.408,-0.092 h 0.016 c 0.04,0 0.076,0.032 0.076,0.072 l 0.032,2.252 c -0.032,0.02 -0.072,0.028 -0.108,0.028 -0.036,0 -0.072,-0.008 -0.104,-0.028 l 0.008,-0.768 -0.404,0.092 h -0.016 c -0.04,0 -0.076,-0.032 -0.076,-0.072 z m 0.544,1.06 -0.348,0.076 -0.012,0.804 0.352,-0.076 z"
     id="path320"
     inkscape:connector-curvature="0"
     style="fill:currentColor" />
  <path
     d="m 124.73066,17.279973 c 0.236,0 0.452,0.124 0.452,0.38 0,0.284 -0.208,0.48 -0.396,0.592 -0.136,0.084 -0.292,0.132 -0.452,0.132 -0.236,0 -0.452,-0.124 -0.452,-0.38 0,-0.284 0.212,-0.48 0.4,-0.592 0.136,-0.084 0.288,-0.132 0.448,-0.132 z"
     id="path322"
     inkscape:connector-curvature="0"
     style="fill:currentColor" />
  <rect
     x="121.17567"
     y="14.120273"
     width="0.1514"
     height="3.5402999"
     ry="0.050000001"
     id="rect324"
     style="fill:currentColor" />
  <path
     d="m 120.87416,17.279973 c 0.236,0 0.452,0.124 0.452,0.38 0,0.284 -0.208,0.48 -0.396,0.592 -0.136,0.084 -0.292,0.132 -0.452,0.132 -0.236,0 -0.452,-0.124 -0.452,-0.38 0,-0.284 0.212,-0.48 0.4,-0.592 0.136,-0.084 0.288,-0.132 0.448,-0.132 z"
     id="path326"
     inkscape:connector-curvature="0"
     style="fill:currentColor" />
  <rect
     x="118.65126"
     y="14.005672"
     width="0.1514"
     height="3.155"
     ry="0.050000001"
     id="rect328"
     style="fill:currentColor" />
  <path
     d="m 118.34986,16.779973 c 0.236,0 0.452,0.124 0.452,0.38 0,0.284 -0.208,0.48 -0.396,0.592 -0.136,0.084 -0.292,0.132 -0.452,0.132 -0.236,0 -0.452,-0.124 -0.452,-0.38 0,-0.284 0.212,-0.48 0.4,-0.592 0.136,-0.084 0.288,-0.132 0.448,-0.132 z"
     id="path330"
     inkscape:connector-curvature="0"
     style="fill:currentColor" />
  <path
     d="m 112.72786,16.683973 -0.008,0.248 v 0.044 c 0,0.088 0.008,0.172 0.02,0.256 0.172,-0.152 0.356,-0.32 0.356,-0.548 0,-0.128 -0.056,-0.26 -0.168,-0.26 -0.124,0 -0.196,0.128 -0.2,0.26 z m -0.188,0.708 -0.056,-2.36 c 0.036,-0.02 0.08,-0.032 0.12,-0.032 0.04,0 0.084,0.012 0.12,0.032 l -0.032,1.36 c 0.1,-0.096 0.236,-0.152 0.376,-0.152 0.2,0 0.336,0.2 0.336,0.416 0,0.312 -0.332,0.468 -0.564,0.676 -0.068,0.06 -0.1,0.176 -0.196,0.176 -0.06,0 -0.104,-0.052 -0.104,-0.116 z"
     id="path332"
     inkscape:connector-curvature="0"
     style="fill:currentColor" />
  <rect
     x="27.748264"
     y="17.003273"
     width="0.1514"
     height="3.1619999"
     ry="0.050000001"
     id="rect334"
     style="fill:currentColor" />
  <path
     d="m 28.596364,16.279973 c 0.236,0 0.452,0.124 0.452,0.38 0,0.284 -0.208,0.48 -0.396,0.592 -0.136,0.084 -0.292,0.132 -0.452,0.132 -0.236,0 -0.452,-0.124 -0.452,-0.38 0,-0.284 0.212,-0.48 0.4,-0.592 0.136,-0.084 0.288,-0.132 0.448,-0.132 z"
     id="path336"
     inkscape:connector-curvature="0"
     style="fill:currentColor" />
  <path
     d="m 23.507464,18.683973 -0.008,0.248 v 0.044 c 0,0.088 0.008,0.172 0.02,0.256 0.172,-0.152 0.356,-0.32 0.356,-0.548 0,-0.128 -0.056,-0.26 -0.168,-0.26 -0.124,0 -0.196,0.128 -0.2,0.26 z m -0.188,0.708 -0.056,-2.36 c 0.036,-0.02 0.08,-0.032 0.12,-0.032 0.04,0 0.084,0.012 0.12,0.032 l -0.032,1.36 c 0.1,-0.096 0.236,-0.152 0.376,-0.152 0.2,0 0.336,0.2 0.336,0.416 0,0.312 -0.332,0.468 -0.564,0.676 -0.068,0.06 -0.1,0.176 -0.196,0.176 -0.06,0 -0.104,-0.052 -0.104,-0.116 z"
     id="path338"
     inkscape:connector-curvature="0"
     style="fill:currentColor" />
  <path
     d="m 26.722364,16.683973 -0.008,0.248 v 0.044 c 0,0.088 0.008,0.172 0.02,0.256 0.172,-0.152 0.356,-0.32 0.356,-0.548 0,-0.128 -0.056,-0.26 -0.168,-0.26 -0.124,0 -0.196,0.128 -0.2,0.26 z m -0.188,0.708 -0.056,-2.36 c 0.036,-0.02 0.08,-0.032 0.12,-0.032 0.04,0 0.084,0.012 0.12,0.032 l -0.032,1.36 c 0.1,-0.096 0.236,-0.152 0.376,-0.152 0.2,0 0.336,0.2 0.336,0.416 0,0.312 -0.332,0.468 -0.564,0.676 -0.068,0.06 -0.1,0.176 -0.196,0.176 -0.06,0 -0.104,-0.052 -0.104,-0.116 z"
     id="path340"
     inkscape:connector-curvature="0"
     style="fill:currentColor" />
  <rect
     x="25.682863"
     y="14.828873"
     width="0.1514"
     height="3.8318"
     ry="0.050000001"
     id="rect342"
     style="fill:currentColor" />
  <path
     d="m 25.381464,18.279973 c 0.236,0 0.452,0.124 0.452,0.38 0,0.284 -0.208,0.48 -0.396,0.592 -0.136,0.084 -0.292,0.132 -0.452,0.132 -0.236,0 -0.452,-0.124 -0.452,-0.38 0,-0.284 0.212,-0.48 0.4,-0.592 0.136,-0.084 0.288,-0.132 0.448,-0.132 z"
     id="path344"
     inkscape:connector-curvature="0"
     style="fill:currentColor" />
  <rect
     x="22.467964"
     y="14.696973"
     width="0.1514"
     height="3.4635999"
     ry="0.050000001"
     id="rect346"
     style="fill:currentColor" />
  <path
     d="m 22.166564,17.779973 c 0.236,0 0.452,0.124 0.452,0.38 0,0.284 -0.208,0.48 -0.396,0.592 -0.136,0.084 -0.292,0.132 -0.452,0.132 -0.236,0 -0.452,-0.124 -0.452,-0.38 0,-0.284 0.212,-0.48 0.4,-0.592 0.136,-0.084 0.288,-0.132 0.448,-0.132 z"
     id="path348"
     inkscape:connector-curvature="0"
     style="fill:currentColor" />
  <rect
     x="33.823662"
     y="17.003273"
     width="0.1514"
     height="2.8232999"
     ry="0.050000001"
     id="rect350"
     style="fill:currentColor" />
  <path
     d="m 34.671764,16.279973 c 0.236,0 0.452,0.124 0.452,0.38 0,0.284 -0.208,0.48 -0.396,0.592 -0.136,0.084 -0.292,0.132 -0.452,0.132 -0.236,0 -0.452,-0.124 -0.452,-0.38 0,-0.284 0.212,-0.48 0.4,-0.592 0.136,-0.084 0.288,-0.132 0.448,-0.132 z"
     id="path352"
     inkscape:connector-curvature="0"
     style="fill:currentColor" />
  <text
     font-size="1.7463"
     id="text354"
     style="font-size:1.74629998px;text-anchor:start;fill:currentColor;font-family:serif"
     x="-0.075036325"
     y="13.739273">
    <tspan
       id="tspan356">6</tspan>
  </text>
  <rect
     x="7.9840636"
     y="14.831973"
     width="0.1514"
     height="3.3287001"
     ry="0.050000001"
     id="rect358"
     style="fill:currentColor" />
  <path
     d="m 3.3506637,16.775973 c 0.012,0 0.028,-0.004 0.04,-0.004 0.628,0 1.032,0.516 1.032,1.052 0,0.308 -0.132,0.62 -0.432,0.844 -0.088,0.064 -0.184,0.116 -0.288,0.148 0.012,0.132 0.016,0.264 0.016,0.396 0,0.084 0,0.164 -0.004,0.248 -0.028,0.484 -0.364,0.916 -0.844,0.916 -0.432,0 -0.784,-0.352 -0.784,-0.788 0,-0.232 0.216,-0.412 0.452,-0.412 0.216,0 0.38,0.188 0.38,0.412 0,0.208 -0.172,0.38 -0.38,0.38 -0.036,0 -0.072,-0.004 -0.108,-0.016 0.1,0.148 0.264,0.244 0.452,0.244 0.38,0 0.624,-0.372 0.648,-0.764 0.004,-0.076 0.008,-0.152 0.008,-0.228 0,-0.116 -0.004,-0.232 -0.012,-0.348 -0.116,0.02 -0.232,0.032 -0.352,0.032 -0.756,0 -1.332,-0.692 -1.332,-1.504 0,-0.708 0.516,-1.232 0.976,-1.772 -0.08,-0.248 -0.16,-0.496 -0.192,-0.756 -0.028,-0.208 -0.028,-0.42 -0.028,-0.632 0,-0.456 0.216,-0.884 0.588,-1.152 0.016,-0.012 0.032,-0.016 0.048,-0.016 0.02,0 0.036,0.008 0.052,0.02 0.288,0.332 0.54,0.972 0.54,1.424 0,0.568 -0.336,1.02 -0.704,1.456 0.084,0.272 0.16,0.544 0.228,0.82 z m 0.336,1.86 c 0.26,-0.096 0.44,-0.376 0.44,-0.644 0,-0.352 -0.256,-0.7 -0.668,-0.752 0.096,0.456 0.176,0.908 0.228,1.396 z m -1.544,-0.904 c 0,0.532 0.512,0.972 1.044,0.972 0.108,0 0.22,-0.004 0.324,-0.02 -0.052,-0.504 -0.14,-0.976 -0.24,-1.448 -0.316,0.032 -0.496,0.24 -0.496,0.472 0,0.172 0.1,0.352 0.32,0.48 0.02,0.02 0.028,0.044 0.028,0.068 0,0.048 -0.04,0.092 -0.092,0.092 -0.012,0 -0.028,-0.004 -0.04,-0.008 -0.324,-0.172 -0.472,-0.46 -0.472,-0.744 0,-0.356 0.24,-0.708 0.652,-0.8 -0.056,-0.228 -0.12,-0.452 -0.188,-0.676 -0.42,0.488 -0.84,0.972 -0.84,1.612 z m 1.304,-4.052 c -0.396,0.184 -0.644,0.58 -0.644,1.016 0,0.284 0.084,0.52 0.156,0.752 0.312,-0.388 0.568,-0.796 0.568,-1.296 0,-0.204 -0.016,-0.288 -0.08,-0.472 z"
     id="path360"
     inkscape:connector-curvature="0"
     style="fill:currentColor" />
  <path
     d="m 8.5769637,18.331973 c 0,-0.12 0.1,-0.22 0.22,-0.22 0.12,0 0.22,0.1 0.22,0.22 0,0.12 -0.1,0.22 -0.22,0.22 -0.12,0 -0.22,-0.1 -0.22,-0.22 z"
     id="path362"
     inkscape:connector-curvature="0"
     style="fill:currentColor" />
  <path
     d="m 15.894264,17.279973 c 0.236,0 0.452,0.124 0.452,0.38 0,0.284 -0.208,0.48 -0.396,0.592 -0.136,0.084 -0.292,0.132 -0.452,0.132 -0.236,0 -0.452,-0.124 -0.452,-0.38 0,-0.284 0.212,-0.48 0.4,-0.592 0.136,-0.084 0.288,-0.132 0.448,-0.132 z"
     id="path364"
     inkscape:connector-curvature="0"
     style="fill:currentColor" />
  <rect
     x="18.720064"
     y="14.543273"
     width="0.1514"
     height="3.1173"
     ry="0.050000001"
     id="rect366"
     style="fill:currentColor" />
  <path
     d="m 18.418564,17.279973 c 0.236,0 0.452,0.124 0.452,0.38 0,0.284 -0.208,0.48 -0.396,0.592 -0.136,0.084 -0.292,0.132 -0.452,0.132 -0.236,0 -0.452,-0.124 -0.452,-0.38 0,-0.284 0.212,-0.48 0.4,-0.592 0.136,-0.084 0.288,-0.132 0.448,-0.132 z"
     id="path368"
     inkscape:connector-curvature="0"
     style="fill:currentColor" />
  <rect
     x="16.195663"
     y="14.823672"
     width="0.1514"
     height="2.8369"
     ry="0.050000001"
     id="rect370"
     style="fill:currentColor" />
  <path
     d="m 11.495864,17.183973 -0.008,0.248 v 0.044 c 0,0.088 0.008,0.172 0.02,0.256 0.172,-0.152 0.356,-0.32 0.356,-0.548 0,-0.128 -0.056,-0.26 -0.168,-0.26 -0.124,0 -0.196,0.128 -0.2,0.26 z m -0.188,0.708 -0.056,-2.36 c 0.036,-0.02 0.08,-0.032 0.12,-0.032 0.04,0 0.084,0.012 0.12,0.032 l -0.032,1.36 c 0.1,-0.096 0.236,-0.152 0.376,-0.152 0.2,0 0.336,0.2 0.336,0.416 0,0.312 -0.332,0.468 -0.564,0.676 -0.068,0.06 -0.1,0.176 -0.196,0.176 -0.06,0 -0.104,-0.052 -0.104,-0.116 z"
     id="path372"
     inkscape:connector-curvature="0"
     style="fill:currentColor" />
  <rect
     x="13.671264"
     y="14.548472"
     width="0.1514"
     height="2.6122"
     ry="0.050000001"
     id="rect374"
     style="fill:currentColor" />
  <path
     d="m 13.369864,16.779973 c 0.236,0 0.452,0.124 0.452,0.38 0,0.284 -0.208,0.48 -0.396,0.592 -0.136,0.084 -0.292,0.132 -0.452,0.132 -0.236,0 -0.452,-0.124 -0.452,-0.38 0,-0.284 0.212,-0.48 0.4,-0.592 0.136,-0.084 0.288,-0.132 0.448,-0.132 z"
     id="path376"
     inkscape:connector-curvature="0"
     style="fill:currentColor" />
  <path
     d="m 7.6826637,17.779973 c 0.236,0 0.452,0.124 0.452,0.38 0,0.284 -0.208,0.48 -0.396,0.592 -0.136,0.084 -0.292,0.132 -0.452,0.132 -0.236,0 -0.452,-0.124 -0.452,-0.38 0,-0.284 0.212,-0.48 0.4,-0.592 0.136,-0.084 0.288,-0.132 0.448,-0.132 z"
     id="path378"
     inkscape:connector-curvature="0"
     style="fill:currentColor" />
  <path
     d="m 63.062964,14.779973 c 0.236,0 0.452,0.124 0.452,0.38 0,0.284 -0.208,0.48 -0.396,0.592 -0.136,0.084 -0.292,0.132 -0.452,0.132 -0.236,0 -0.452,-0.124 -0.452,-0.38 0,-0.284 0.212,-0.48 0.4,-0.592 0.136,-0.084 0.288,-0.132 0.448,-0.132 z"
     id="path380"
     inkscape:connector-curvature="0"
     style="fill:currentColor" />
  <path
     d="m 56.497864,19.281973 h -0.076 v -1 h 0.076 c 0.38,-0.236 0.88,-0.596 0.88,-1.036 0,-0.224 -0.064,-0.444 -0.164,-0.644 -0.012,-0.072 0.048,-0.12 0.104,-0.12 0.032,0 0.068,0.016 0.088,0.052 0.1,0.224 0.16,0.464 0.16,0.712 0,0.812 -1.068,1.224 -1.068,2.036 z"
     id="path382"
     inkscape:connector-curvature="0"
     style="fill:currentColor" />
  <rect
     x="56.346462"
     y="16.003273"
     width="0.1514"
     height="3.3287001"
     ry="0.050000001"
     id="rect384"
     style="fill:currentColor" />
  <path
     d="m 57.194564,15.279973 c 0.236,0 0.452,0.124 0.452,0.38 0,0.284 -0.208,0.48 -0.396,0.592 -0.136,0.084 -0.292,0.132 -0.452,0.132 -0.236,0 -0.452,-0.124 -0.452,-0.38 0,-0.284 0.212,-0.48 0.4,-0.592 0.136,-0.084 0.288,-0.132 0.448,-0.132 z"
     id="path386"
     inkscape:connector-curvature="0"
     style="fill:currentColor" />
  <rect
     x="62.214962"
     y="15.503273"
     width="0.1514"
     height="3.0425"
     ry="0.050000001"
     id="rect388"
     style="fill:currentColor" />
  <rect
     x="48.177963"
     y="17.003273"
     width="0.1514"
     height="3.1619999"
     ry="0.050000001"
     id="rect390"
     style="fill:currentColor" />
  <path
     d="m 49.025964,16.279973 c 0.236,0 0.452,0.124 0.452,0.38 0,0.284 -0.208,0.48 -0.396,0.592 -0.136,0.084 -0.292,0.132 -0.452,0.132 -0.236,0 -0.452,-0.124 -0.452,-0.38 0,-0.284 0.212,-0.48 0.4,-0.592 0.136,-0.084 0.288,-0.132 0.448,-0.132 z"
     id="path392"
     inkscape:connector-curvature="0"
     style="fill:currentColor" />
  <rect
     x="65.96286"
     y="16.003273"
     width="0.1514"
     height="2.823"
     ry="0.050000001"
     id="rect394"
     style="fill:currentColor" />
  <path
     d="m 66.810964,15.279973 c 0.236,0 0.452,0.124 0.452,0.38 0,0.284 -0.208,0.48 -0.396,0.592 -0.136,0.084 -0.292,0.132 -0.452,0.132 -0.236,0 -0.452,-0.124 -0.452,-0.38 0,-0.284 0.212,-0.48 0.4,-0.592 0.136,-0.084 0.288,-0.132 0.448,-0.132 z"
     id="path396"
     inkscape:connector-curvature="0"
     style="fill:currentColor" />
  <path
     d="m 53.167464,17.831973 0.472,-1.304 c -0.132,0.048 -0.264,0.088 -0.404,0.088 -0.184,0 -0.348,-0.136 -0.348,-0.316 0,-0.16 0.132,-0.288 0.292,-0.288 0.1,0 0.196,0.056 0.228,0.148 0.04,0.108 0.016,0.236 0.132,0.236 0.056,0 0.2,-0.168 0.224,-0.22 0.028,-0.056 0.112,-0.056 0.136,0 l -0.476,1.656 c -0.036,0.032 -0.084,0.048 -0.128,0.048 -0.044,0 -0.092,-0.016 -0.128,-0.048 z"
     id="path398"
     inkscape:connector-curvature="0"
     style="fill:currentColor" />
  <path
     d="m 61.188964,15.183973 -0.008,0.248 v 0.044 c 0,0.088 0.008,0.172 0.02,0.256 0.172,-0.152 0.356,-0.32 0.356,-0.548 0,-0.128 -0.056,-0.26 -0.168,-0.26 -0.124,0 -0.196,0.128 -0.2,0.26 z m -0.188,0.708 -0.056,-2.36 c 0.036,-0.02 0.08,-0.032 0.12,-0.032 0.04,0 0.084,0.012 0.12,0.032 l -0.032,1.36 c 0.1,-0.096 0.236,-0.152 0.376,-0.152 0.2,0 0.336,0.2 0.336,0.416 0,0.312 -0.332,0.468 -0.564,0.676 -0.068,0.06 -0.1,0.176 -0.196,0.176 -0.06,0 -0.104,-0.052 -0.104,-0.116 z"
     id="path400"
     inkscape:connector-curvature="0"
     style="fill:currentColor" />
  <path
     d="m 40.672364,12.325173 c 0,0.08 0.064,0.112 0.148,0.112 0.156,0 0.276,-0.052 0.4,-0.108 l 0.016,-0.08 c -0.088,-0.068 -0.196,-0.116 -0.316,-0.116 -0.12,0 -0.248,0.06 -0.248,0.192 z m 1.064,0.492 c 0,0.248 -0.184,0.46 -0.392,0.46 -0.156,0 -0.224,-0.172 -0.224,-0.36 0,-0.056 0.004,-0.112 0.016,-0.164 l 0.06,-0.296 c -0.124,0.052 -0.244,0.096 -0.4,0.096 -0.144,0 -0.244,-0.068 -0.244,-0.204 0,-0.208 0.196,-0.332 0.392,-0.332 0.12,0 0.228,0.036 0.32,0.096 l 0.184,-0.916 c 0.024,0.012 0.052,0.02 0.08,0.02 0.088,0 0.192,-0.064 0.272,-0.14 l -0.212,1.056 0.252,-0.14 c 0.104,-0.056 0.208,-0.084 0.296,-0.084 0.112,0 0.204,0.04 0.252,0.108 0.072,-0.072 0.176,-0.108 0.272,-0.108 0.148,0 0.284,0.088 0.284,0.288 0,0.184 -0.108,0.364 -0.264,0.364 -0.104,0 -0.156,-0.084 -0.156,-0.192 0,-0.168 0.12,-0.26 0.244,-0.26 h 0.008 c -0.032,-0.056 -0.088,-0.084 -0.148,-0.084 -0.092,0 -0.192,0.064 -0.212,0.164 l -0.216,1.084 c -0.044,-0.028 -0.1,-0.044 -0.156,-0.044 -0.056,0 -0.116,0.016 -0.172,0.044 l 0.216,-1.084 c 0,-0.008 0.004,-0.016 0.004,-0.024 0,-0.06 -0.048,-0.1 -0.112,-0.1 -0.028,0 -0.064,0.008 -0.096,0.024 l -0.324,0.18 -0.02,0.108 c 0.104,0.128 0.196,0.268 0.196,0.44 z m -0.248,0.264 c 0.088,0 0.128,-0.136 0.128,-0.244 0,-0.112 -0.044,-0.208 -0.108,-0.296 l -0.02,0.092 c -0.016,0.076 -0.056,0.236 -0.056,0.344 0,0.064 0.012,0.104 0.056,0.104 z"
     id="path402"
     inkscape:connector-curvature="0"
     style="fill:currentColor" />
  <path
     d="m 40.114364,15.831973 c 0.032,-0.02 0.072,-0.028 0.108,-0.028 0.036,0 0.072,0.008 0.104,0.028 l -0.012,0.768 0.408,-0.092 h 0.016 c 0.04,0 0.076,0.032 0.076,0.072 l 0.032,2.252 c -0.032,0.02 -0.072,0.028 -0.108,0.028 -0.036,0 -0.072,-0.008 -0.104,-0.028 l 0.008,-0.768 -0.404,0.092 h -0.016 c -0.04,0 -0.076,-0.032 -0.076,-0.072 z m 0.544,1.06 -0.348,0.076 -0.012,0.804 0.352,-0.076 z"
     id="path404"
     inkscape:connector-curvature="0"
     style="fill:currentColor" />
  <path
     d="m 42.932264,17.331973 c 0,-0.12 0.1,-0.22 0.22,-0.22 0.12,0 0.22,0.1 0.22,0.22 0,0.12 -0.1,0.22 -0.22,0.22 -0.12,0 -0.22,-0.1 -0.22,-0.22 z"
     id="path406"
     inkscape:connector-curvature="0"
     style="fill:currentColor" />
  <path
     d="m 42.037964,16.779973 c 0.236,0 0.452,0.124 0.452,0.38 0,0.284 -0.208,0.48 -0.396,0.592 -0.136,0.084 -0.292,0.132 -0.452,0.132 -0.236,0 -0.452,-0.124 -0.452,-0.38 0,-0.284 0.212,-0.48 0.4,-0.592 0.136,-0.084 0.288,-0.132 0.448,-0.132 z"
     id="path408"
     inkscape:connector-curvature="0"
     style="fill:currentColor" />
  <rect
     x="42.339363"
     y="13.827172"
     width="0.1514"
     height="3.3334999"
     ry="0.050000001"
     id="rect410"
     style="fill:currentColor" />
  <path
     d="m 46.501564,16.279973 c 0.236,0 0.452,0.124 0.452,0.38 0,0.284 -0.208,0.48 -0.396,0.592 -0.136,0.084 -0.292,0.132 -0.452,0.132 -0.236,0 -0.452,-0.124 -0.452,-0.38 0,-0.284 0.212,-0.48 0.4,-0.592 0.136,-0.084 0.288,-0.132 0.448,-0.132 z"
     id="path412"
     inkscape:connector-curvature="0"
     style="fill:currentColor" />
  <rect
     x="46.803062"
     y="13.544972"
     width="0.1514"
     height="3.1157"
     ry="0.050000001"
     id="rect414"
     style="fill:currentColor" />
  <rect
     x="37.821663"
     y="14.503273"
     width="0.1514"
     height="5.0422001"
     ry="0.050000001"
     id="rect416"
     style="fill:currentColor" />
  <path
     d="m 44.627564,16.683973 -0.008,0.248 v 0.044 c 0,0.088 0.008,0.172 0.02,0.256 0.172,-0.152 0.356,-0.32 0.356,-0.548 0,-0.128 -0.056,-0.26 -0.168,-0.26 -0.124,0 -0.196,0.128 -0.2,0.26 z m -0.188,0.708 -0.056,-2.36 c 0.036,-0.02 0.08,-0.032 0.12,-0.032 0.04,0 0.084,0.012 0.12,0.032 l -0.032,1.36 c 0.1,-0.096 0.236,-0.152 0.376,-0.152 0.2,0 0.336,0.2 0.336,0.416 0,0.312 -0.332,0.468 -0.564,0.676 -0.068,0.06 -0.1,0.176 -0.196,0.176 -0.06,0 -0.104,-0.052 -0.104,-0.116 z"
     id="path418"
     inkscape:connector-curvature="0"
     style="fill:currentColor" />
  <path
     d="m 38.669664,13.779973 c 0.236,0 0.452,0.124 0.452,0.38 0,0.284 -0.208,0.48 -0.396,0.592 -0.136,0.084 -0.292,0.132 -0.452,0.132 -0.236,0 -0.452,-0.124 -0.452,-0.38 0,-0.284 0.212,-0.48 0.4,-0.592 0.136,-0.084 0.288,-0.132 0.448,-0.132 z"
     id="path420"
     inkscape:connector-curvature="0"
     style="fill:currentColor" />
  <text
     font-size="2.1999"
     id="text422"
     style="font-size:2.19989991px;text-anchor:start;fill:currentColor;font-family:serif"
     x="68.609962"
     y="202.43718">
    <tspan
       id="tspan424" />
  </text>
</svg>
