<?xml version="1.0" encoding="UTF-8" standalone="no"?>
<svg
   xmlns:dc="http://purl.org/dc/elements/1.1/"
   xmlns:cc="http://creativecommons.org/ns#"
   xmlns:rdf="http://www.w3.org/1999/02/22-rdf-syntax-ns#"
   xmlns:svg="http://www.w3.org/2000/svg"
   xmlns="http://www.w3.org/2000/svg"
   xmlns:xlink="http://www.w3.org/1999/xlink"
   xmlns:sodipodi="http://sodipodi.sourceforge.net/DTD/sodipodi-0.dtd"
   xmlns:inkscape="http://www.inkscape.org/namespaces/inkscape"
   version="1.2"
   width="678.38226"
   height="101.49935"
   viewBox="0 0 136.18527 20.375994"
   id="svg2"
   inkscape:version="0.48.2 r9819"
   sodipodi:docname="test.svg">
  <metadata
     id="metadata570">
    <rdf:RDF>
      <cc:Work
         rdf:about="">
        <dc:format>image/svg+xml</dc:format>
        <dc:type
           rdf:resource="http://purl.org/dc/dcmitype/StillImage" />
      </cc:Work>
    </rdf:RDF>
  </metadata>
  <defs
     id="defs568" />
  <sodipodi:namedview
     pagecolor="#ffffff"
     bordercolor="#666666"
     borderopacity="1"
     objecttolerance="10"
     gridtolerance="10"
     guidetolerance="10"
     inkscape:pageopacity="0"
     inkscape:pageshadow="2"
     inkscape:window-width="769"
     inkscape:window-height="480"
     id="namedview566"
     showgrid="false"
     fit-margin-top="0"
     fit-margin-left="0"
     fit-margin-right="0"
     fit-margin-bottom="0"
     inkscape:zoom="0.22425739"
     inkscape:cx="341.76811"
     inkscape:cy="-401.98372"
     inkscape:window-x="0"
     inkscape:window-y="0"
     inkscape:window-maximized="0"
     inkscape:current-layer="svg2" />
  <!-- Page: 1/1 -->
  <text
     font-size="2.1999"
     id="text4"
     style="font-size:2.19989991px;text-anchor:start;fill:currentColor;font-family:serif"
     x="1.0346637"
     y="-1.0000272">
    <tspan
       id="tspan6" />
  </text>
  <line
     x1="11.762664"
     y1="6.8319726"
     x2="136.12706"
     y2="6.8319726"
     id="line8"
     style="stroke:currentColor;stroke-width:0.1164;stroke-linecap:round;stroke-linejoin:round" />
  <line
     x1="11.762664"
     y1="5.8319726"
     x2="136.12706"
     y2="5.8319726"
     id="line10"
     style="stroke:currentColor;stroke-width:0.1164;stroke-linecap:round;stroke-linejoin:round" />
  <line
     x1="11.762664"
     y1="4.8319726"
     x2="136.12706"
     y2="4.8319726"
     id="line12"
     style="stroke:currentColor;stroke-width:0.1164;stroke-linecap:round;stroke-linejoin:round" />
  <line
     x1="11.762664"
     y1="3.8319728"
     x2="136.12706"
     y2="3.8319728"
     id="line14"
     style="stroke:currentColor;stroke-width:0.1164;stroke-linecap:round;stroke-linejoin:round" />
  <line
     x1="11.762664"
     y1="2.8319728"
     x2="136.12706"
     y2="2.8319728"
     id="line16"
     style="stroke:currentColor;stroke-width:0.1164;stroke-linecap:round;stroke-linejoin:round" />
  <rect
     x="98.817963"
     y="2.8319728"
     width="0.2212"
     height="4"
     ry="0"
     id="rect18"
     style="fill:currentColor" />
  <rect
     x="37.414864"
     y="2.8319728"
     width="0.2212"
     height="4"
     ry="0"
     id="rect20"
     style="fill:currentColor" />
  <rect
     x="118.21446"
     y="2.8319728"
     width="0.2212"
     height="4"
     ry="0"
     id="rect22"
     style="fill:currentColor" />
  <rect
     x="135.96407"
     y="2.8319728"
     width="0.2212"
     height="4"
     ry="0"
     id="rect24"
     style="fill:currentColor" />
  <rect
     x="66.18396"
     y="2.8319728"
     width="0.2212"
     height="4"
     ry="0"
     id="rect26"
     style="fill:currentColor" />
  <rect
     x="63.712166"
     y="1.7237729"
     width="1.9962"
     height="0.2164"
     ry="0.1082"
     id="rect28"
     style="fill:currentColor" />
  <path
     d="m 92.948264,3.1839728 -0.008,0.248 v 0.044 c 0,0.088 0.008,0.172 0.02,0.256 0.172,-0.152 0.356,-0.32 0.356,-0.548 0,-0.128 -0.056,-0.26 -0.168,-0.26 -0.124,0 -0.196,0.128 -0.2,0.26 z m -0.188,0.708 -0.056,-2.36 c 0.036,-0.02 0.08,-0.032 0.12,-0.032 0.04,0 0.084,0.012 0.12,0.032 l -0.032,1.36 c 0.1,-0.096 0.236,-0.152 0.376,-0.152 0.2,0 0.336,0.2 0.336,0.416 0,0.312 -0.332,0.468 -0.564,0.676 -0.068,0.06 -0.1,0.176 -0.196,0.176 -0.06,0 -0.104,-0.052 -0.104,-0.116 z"
     id="path30"
     inkscape:connector-curvature="0"
     style="fill:currentColor" />
  <rect
     x="93.974266"
     y="3.5032728"
     width="0.1514"
     height="3.4189"
     ry="0.050000001"
     id="rect32"
     style="fill:currentColor" />
  <a
     xlink:href="textedit://C:/Users/tikeda/Documents/git/LotusRoot/sco.txt:4:52:53"
     id="a34"
     transform="translate(-6.0785363,-4.5566272)">
    <path
       transform="matrix(0.004,0,0,-0.004,100.0528,7.8886)"
       d="m 212,138 c 59,0 113,-31 113,-95 0,-71 -52,-120 -99,-148 -34,-21 -73,-33 -113,-33 -59,0 -113,31 -113,95 0,71 53,120 100,148 34,21 72,33 112,33 z"
       id="path36"
       inkscape:connector-curvature="0"
       style="fill:currentColor" />
  </a>
  <rect
     x="90.736862"
     y="4.003273"
     width="0.1514"
     height="3.0302"
     ry="0.050000001"
     id="rect38"
     style="fill:currentColor" />
  <a
     xlink:href="textedit://C:/Users/tikeda/Documents/git/LotusRoot/sco.txt:4:46:47"
     id="a40"
     transform="translate(-6.0785363,-4.5566272)">
    <path
       transform="matrix(0.004,0,0,-0.004,96.8154,8.3886)"
       d="m 212,138 c 59,0 113,-31 113,-95 0,-71 -52,-120 -99,-148 -34,-21 -73,-33 -113,-33 -59,0 -113,31 -113,95 0,71 53,120 100,148 34,21 72,33 112,33 z"
       id="path42"
       inkscape:connector-curvature="0"
       style="fill:currentColor" />
  </a>
  <a
     xlink:href="textedit://C:/Users/tikeda/Documents/git/LotusRoot/sco.txt:2:15:16"
     id="a44"
     transform="translate(-6.0785363,-4.5566272)">
    <path
       transform="translate(26.4659,9.3886)"
       d="m 0.8919,-1.1951 c 0.9775,-0.8712 4.9491,-0.8712 5.9265,0 l 0,0 c -0.9774,-0.7314 -4.949,-0.7314 -5.9265,0 z"
       id="path46"
       inkscape:connector-curvature="0"
       style="fill:currentColor;stroke:currentColor;stroke-width:0.0931;stroke-linecap:round;stroke-linejoin:round" />
  </a>
  <a
     xlink:href="textedit://C:/Users/tikeda/Documents/git/LotusRoot/sco.txt:4:60:61"
     id="a48"
     transform="translate(-6.0785363,-4.5566272)">
    <path
       transform="matrix(0.004,0,0,-0.004,102.5997,7.3886)"
       d="m 212,138 c 59,0 113,-31 113,-95 0,-71 -52,-120 -99,-148 -34,-21 -73,-33 -113,-33 -59,0 -113,31 -113,95 0,71 53,120 100,148 34,21 72,33 112,33 z"
       id="path50"
       inkscape:connector-curvature="0"
       style="fill:currentColor" />
  </a>
  <rect
     x="96.521065"
     y="3.0032728"
     width="0.1514"
     height="3.8313"
     ry="0.050000001"
     id="rect52"
     style="fill:currentColor" />
  <a
     xlink:href="textedit://C:/Users/tikeda/Documents/git/LotusRoot/sco.txt:5:0:1"
     id="a54"
     transform="translate(-6.0785363,-4.5566272)">
    <path
       transform="matrix(0.004,0,0,-0.004,106.035,9.3886)"
       d="m 212,138 c 59,0 113,-31 113,-95 0,-71 -52,-120 -99,-148 -34,-21 -73,-33 -113,-33 -59,0 -113,31 -113,95 0,71 53,120 100,148 34,21 72,33 112,33 z"
       id="path56"
       inkscape:connector-curvature="0"
       style="fill:currentColor" />
  </a>
  <rect
     x="101.10596"
     y="1.8379729"
     width="0.1514"
     height="2.8227"
     ry="0.050000001"
     id="rect58"
     style="fill:currentColor" />
  <rect
     x="78.307266"
     y="3.0032728"
     width="0.1514"
     height="3.6271"
     ry="0.050000001"
     id="rect60"
     style="fill:currentColor" />
  <a
     xlink:href="textedit://C:/Users/tikeda/Documents/git/LotusRoot/sco.txt:4:21:22"
     id="a62"
     transform="translate(-6.0785363,-4.5566272)">
    <path
       transform="matrix(0.004,0,0,-0.004,84.3858,7.3886)"
       d="m 212,138 c 59,0 113,-31 113,-95 0,-71 -52,-120 -99,-148 -34,-21 -73,-33 -113,-33 -59,0 -113,31 -113,95 0,71 53,120 100,148 34,21 72,33 112,33 z"
       id="path64"
       inkscape:connector-curvature="0"
       style="fill:currentColor" />
  </a>
  <path
     d="m 74.734464,3.1839728 -0.008,0.248 v 0.044 c 0,0.088 0.008,0.172 0.02,0.256 0.172,-0.152 0.356,-0.32 0.356,-0.548 0,-0.128 -0.056,-0.26 -0.168,-0.26 -0.124,0 -0.196,0.128 -0.2,0.26 z m -0.188,0.708 -0.056,-2.36 c 0.036,-0.02 0.08,-0.032 0.12,-0.032 0.04,0 0.084,0.012 0.12,0.032 l -0.032,1.36 c 0.1,-0.096 0.236,-0.152 0.376,-0.152 0.2,0 0.336,0.2 0.336,0.416 0,0.312 -0.332,0.468 -0.564,0.676 -0.068,0.06 -0.1,0.176 -0.196,0.176 -0.06,0 -0.104,-0.052 -0.104,-0.116 z"
     id="path66"
     inkscape:connector-curvature="0"
     style="fill:currentColor" />
  <rect
     x="75.760361"
     y="3.5032728"
     width="0.1514"
     height="3.2147"
     ry="0.050000001"
     id="rect68"
     style="fill:currentColor" />
  <rect
     x="72.523064"
     y="4.003273"
     width="0.1514"
     height="2.8261001"
     ry="0.050000001"
     id="rect70"
     style="fill:currentColor" />
  <a
     xlink:href="textedit://C:/Users/tikeda/Documents/git/LotusRoot/sco.txt:4:13:14"
     id="a72"
     transform="translate(-6.0785363,-4.5566272)">
    <path
       transform="matrix(0.004,0,0,-0.004,81.839,7.8886)"
       d="m 212,138 c 59,0 113,-31 113,-95 0,-71 -52,-120 -99,-148 -34,-21 -73,-33 -113,-33 -59,0 -113,31 -113,95 0,71 53,120 100,148 34,21 72,33 112,33 z"
       id="path74"
       inkscape:connector-curvature="0"
       style="fill:currentColor" />
  </a>
  <a
     xlink:href="textedit://C:/Users/tikeda/Documents/git/LotusRoot/sco.txt:4:33:34"
     id="a76"
     transform="translate(-6.0785363,-4.5566272)">
    <path
       transform="matrix(0.004,0,0,-0.004,89.2296,8.8886)"
       d="m 212,138 c 59,0 113,-31 113,-95 0,-71 -52,-120 -99,-148 -34,-21 -73,-33 -113,-33 -59,0 -113,31 -113,95 0,71 53,120 100,148 34,21 72,33 112,33 z"
       id="path78"
       inkscape:connector-curvature="0"
       style="fill:currentColor" />
  </a>
  <rect
     x="88.189964"
     y="4.503273"
     width="0.1514"
     height="2.6178999"
     ry="0.050000001"
     id="rect80"
     style="fill:currentColor" />
  <a
     xlink:href="textedit://C:/Users/tikeda/Documents/git/LotusRoot/sco.txt:4:7:8"
     id="a82"
     transform="translate(-6.0785363,-4.5566272)">
    <path
       transform="matrix(0.004,0,0,-0.004,78.6016,8.3886)"
       d="m 212,138 c 59,0 113,-31 113,-95 0,-71 -52,-120 -99,-148 -34,-21 -73,-33 -113,-33 -59,0 -113,31 -113,95 0,71 53,120 100,148 34,21 72,33 112,33 z"
       id="path84"
       inkscape:connector-curvature="0"
       style="fill:currentColor" />
  </a>
  <a
     xlink:href="textedit://C:/Users/tikeda/Documents/git/LotusRoot/sco.txt:4:40:41"
     id="a86"
     transform="translate(-6.0785363,-4.5566272)">
    <path
       transform="matrix(0.004,0,0,-0.004,94.2685,8.8886)"
       d="m 212,138 c 59,0 113,-31 113,-95 0,-71 -52,-120 -99,-148 -34,-21 -73,-33 -113,-33 -59,0 -113,31 -113,95 0,71 53,120 100,148 34,21 72,33 112,33 z"
       id="path88"
       inkscape:connector-curvature="0"
       style="fill:currentColor" />
  </a>
  <rect
     x="83.151062"
     y="4.503273"
     width="0.1514"
     height="3.3287001"
     ry="0.050000001"
     id="rect90"
     style="fill:currentColor" />
  <rect
     x="80.854164"
     y="2.5032728"
     width="0.1514"
     height="4.0395002"
     ry="0.050000001"
     id="rect92"
     style="fill:currentColor" />
  <a
     xlink:href="textedit://C:/Users/tikeda/Documents/git/LotusRoot/sco.txt:4:27:28"
     id="a94"
     transform="translate(-6.0785363,-4.5566272)">
    <path
       transform="matrix(0.004,0,0,-0.004,86.9327,6.8886)"
       d="m 212,138 c 59,0 113,-31 113,-95 0,-71 -52,-120 -99,-148 -34,-21 -73,-33 -113,-33 -59,0 -113,31 -113,95 0,71 53,120 100,148 34,21 72,33 112,33 z"
       id="path96"
       inkscape:connector-curvature="0"
       style="fill:currentColor" />
  </a>
  <rect
     x="126.71146"
     y="3.5032728"
     width="0.1514"
     height="3.3287001"
     ry="0.050000001"
     id="rect98"
     style="fill:currentColor" />
  <path
     d="m 133.47196,2.3819728 c 0,0.788 0.828,1.336 0.828,2.124 0,0.284 -0.06,0.56 -0.164,0.824 -0.02,0.036 -0.056,0.052 -0.088,0.052 -0.056,0 -0.116,-0.048 -0.104,-0.12 0.104,-0.24 0.172,-0.496 0.172,-0.756 0,-0.408 -0.368,-0.824 -0.644,-1.124 h -0.076 v -1 h 0.076 z"
     id="path100"
     inkscape:connector-curvature="0"
     style="fill:currentColor" />
  <rect
     x="133.32056"
     y="2.3319728"
     width="0.1514"
     height="3.3287001"
     ry="0.050000001"
     id="rect102"
     style="fill:currentColor" />
  <a
     xlink:href="textedit://C:/Users/tikeda/Documents/git/LotusRoot/sco.txt:6:17:18"
     id="a104"
     transform="translate(-6.0785363,-4.5566272)">
    <path
       transform="matrix(0.004,0,0,-0.004,138.2497,10.3886)"
       d="m 212,138 c 59,0 113,-31 113,-95 0,-71 -52,-120 -99,-148 -34,-21 -73,-33 -113,-33 -59,0 -113,31 -113,95 0,71 53,120 100,148 34,21 72,33 112,33 z"
       id="path106"
       inkscape:connector-curvature="0"
       style="fill:currentColor" />
  </a>
  <path
     d="m 128.45376,3.3319728 c 0,-0.12 0.1,-0.22 0.22,-0.22 0.12,0 0.22,0.1 0.22,0.22 0,0.12 -0.1,0.22 -0.22,0.22 -0.12,0 -0.22,-0.1 -0.22,-0.22 z"
     id="path108"
     inkscape:connector-curvature="0"
     style="fill:currentColor" />
  <a
     xlink:href="textedit://C:/Users/tikeda/Documents/git/LotusRoot/sco.txt:6:9:10"
     id="a110"
     transform="translate(-6.0785363,-4.5566272)">
    <path
       transform="matrix(0.004,0,0,-0.004,132.79,7.8886)"
       d="m 212,138 c 59,0 113,-31 113,-95 0,-71 -52,-120 -99,-148 -34,-21 -73,-33 -113,-33 -59,0 -113,31 -113,95 0,71 53,120 100,148 34,21 72,33 112,33 z"
       id="path112"
       inkscape:connector-curvature="0"
       style="fill:currentColor" />
  </a>
  <polygon
     transform="translate(72.523064,5.7004728)"
     points="0.05,-0.3 8.4325,-0.5918 8.4325,0.0082 0.05,0.3 "
     id="polygon114"
     style="fill:currentColor;stroke:currentColor;stroke-width:0.1;stroke-linecap:round;stroke-linejoin:round" />
  <polygon
     transform="translate(72.523064,6.8319728)"
     points="0.05,-0.3 8.4325,-0.5918 8.4325,0.0082 0.05,0.3 "
     id="polygon116"
     style="fill:currentColor;stroke:currentColor;stroke-width:0.1;stroke-linecap:round;stroke-linejoin:round" />
  <polygon
     transform="translate(32.523164,5.4086728)"
     points="0.05,-0.3 2.6482,-0.0082 2.6482,0.5918 0.05,0.3 "
     id="polygon118"
     style="fill:currentColor;stroke:currentColor;stroke-width:0.1;stroke-linecap:round;stroke-linejoin:round" />
  <polygon
     transform="translate(32.523164,6.5401728)"
     points="0.05,-0.3 2.6482,-0.0082 2.6482,0.5918 0.05,0.3 "
     id="polygon120"
     style="fill:currentColor;stroke:currentColor;stroke-width:0.1;stroke-linecap:round;stroke-linejoin:round" />
  <polygon
     transform="translate(44.732764,4.9922728)"
     points="0.05,-0.3 3.3388,-0.0918 3.3388,0.5082 0.05,0.3 "
     id="polygon122"
     style="fill:currentColor;stroke:currentColor;stroke-width:0.1;stroke-linecap:round;stroke-linejoin:round" />
  <polygon
     transform="translate(44.732764,6.1237728)"
     points="0.05,-0.3 3.3388,-0.0918 3.3388,0.5082 0.05,0.3 "
     id="polygon124"
     style="fill:currentColor;stroke:currentColor;stroke-width:0.1;stroke-linecap:round;stroke-linejoin:round" />
  <a
     xlink:href="textedit://C:/Users/tikeda/Documents/git/LotusRoot/sco.txt:3:27:28"
     id="a126"
     transform="translate(-6.0785363,-4.5566272)">
    <path
       transform="translate(56.5956,9.3886)"
       d="m 1.5008,-2 c 0.7,-0.7387 2.6382,-0.7387 3.3381,0 l 0,0 C 4.139,-2.599 2.2008,-2.599 1.5008,-2 z"
       id="path128"
       inkscape:connector-curvature="0"
       style="fill:currentColor;stroke:currentColor;stroke-width:0.0931;stroke-linecap:round;stroke-linejoin:round" />
  </a>
  <polygon
     transform="translate(55.555964,4.9922728)"
     points="0.05,-0.3 8.4325,-0.5918 8.4325,0.0082 0.05,0.3 "
     id="polygon130"
     style="fill:currentColor;stroke:currentColor;stroke-width:0.1;stroke-linecap:round;stroke-linejoin:round" />
  <polygon
     transform="translate(55.555964,6.1237728)"
     points="0.05,-0.3 8.4325,-0.5918 8.4325,0.0082 0.05,0.3 "
     id="polygon132"
     style="fill:currentColor;stroke:currentColor;stroke-width:0.1;stroke-linecap:round;stroke-linejoin:round" />
  <a
     xlink:href="textedit://C:/Users/tikeda/Documents/git/LotusRoot/sco.txt:4:5:6"
     id="a134"
     transform="translate(-6.0785363,-4.5566272)">
    <path
       transform="translate(73.5626,9.3886)"
       d="m 1.5008,-1.2116 c 0.7,-0.7387 2.6382,-0.7387 3.3381,0 l 0,0 c -0.6999,-0.599 -2.6381,-0.599 -3.3381,0 z"
       id="path136"
       inkscape:connector-curvature="0"
       style="fill:currentColor;stroke:currentColor;stroke-width:0.0931;stroke-linecap:round;stroke-linejoin:round" />
  </a>
  <a
     xlink:href="textedit://C:/Users/tikeda/Documents/git/LotusRoot/sco.txt:4:38:39"
     id="a138"
     transform="translate(-6.0785363,-4.5566272)">
    <path
       transform="translate(89.2296,9.3886)"
       d="m 0.8504,-1.2116 c 0.856,-0.821 3.783,-0.821 4.639,0 l 0,0 c -0.856,-0.6813 -3.783,-0.6813 -4.639,0 z"
       id="path140"
       inkscape:connector-curvature="0"
       style="fill:currentColor;stroke:currentColor;stroke-width:0.0931;stroke-linecap:round;stroke-linejoin:round" />
  </a>
  <polygon
     transform="translate(88.189964,5.9922728)"
     points="0.05,-0.3 8.4325,-0.5918 8.4325,0.0082 0.05,0.3 "
     id="polygon142"
     style="fill:currentColor;stroke:currentColor;stroke-width:0.1;stroke-linecap:round;stroke-linejoin:round" />
  <polygon
     transform="translate(88.189964,7.1237728)"
     points="0.05,-0.3 8.4325,-0.5918 8.4325,0.0082 0.05,0.3 "
     id="polygon144"
     style="fill:currentColor;stroke:currentColor;stroke-width:0.1;stroke-linecap:round;stroke-linejoin:round" />
  <polygon
     transform="translate(101.10596,1.8319728)"
     points="0.05,-0.3 3.6443,-0.0082 3.6443,0.5918 0.05,0.3 "
     id="polygon146"
     style="fill:currentColor;stroke:currentColor;stroke-width:0.1;stroke-linecap:round;stroke-linejoin:round" />
  <a
     xlink:href="textedit://C:/Users/tikeda/Documents/git/LotusRoot/sco.txt:6:7:8"
     id="a148"
     transform="translate(-6.0785363,-4.5566272)">
    <path
       transform="translate(126.422,9.3886)"
       d="M 1.5839,-2 C 2.434,-2.8183 5.3178,-2.8183 6.168,-2 l 0,0 C 5.3178,-2.6786 2.434,-2.6786 1.5839,-2 z"
       id="path150"
       inkscape:connector-curvature="0"
       style="fill:currentColor;stroke:currentColor;stroke-width:0.0931;stroke-linecap:round;stroke-linejoin:round" />
  </a>
  <rect
     x="104.64886"
     y="2.1177728"
     width="0.1514"
     height="3.5429001"
     ry="0.050000001"
     id="rect152"
     style="fill:currentColor" />
  <a
     xlink:href="textedit://C:/Users/tikeda/Documents/git/LotusRoot/sco.txt:5:8:9"
     id="a154"
     transform="translate(-6.0785363,-4.5566272)">
    <path
       transform="matrix(0.004,0,0,-0.004,113.3708,9.3886)"
       d="m -24,-119 c 0,31 14,43 46,43 30,0 69,-9 106,-23 L 2,52 c -7,9 -11,17 -11,26 0,34 51,66 88,101 23,22 36,51 36,81 0,25 -9,50 -26,70 l -31,37 c -3,4 -4,8 -4,12 0,10 9,18 19,18 5,0 9,-1 13,-6 L 235,213 c 7,-9 11,-17 11,-26 0,-34 -52,-66 -89,-101 -23,-22 -35,-51 -35,-81 0,-25 9,-51 26,-71 l 79,-94 c 3,-4 4,-8 4,-12 0,-10 -9,-18 -19,-18 -5,0 -9,2 -13,7 -16,19 -57,33 -89,33 -41,0 -55,-23 -55,-65 0,-33 11,-73 27,-92 6,-7 0,-15 -7,-15 -2,0 -5,2 -7,4 -44,53 -92,145 -92,199 z"
       id="path156"
       inkscape:connector-curvature="0"
       style="fill:currentColor" />
  </a>
  <a
     xlink:href="textedit://C:/Users/tikeda/Documents/git/LotusRoot/sco.txt:5:4:5"
     id="a158"
     transform="translate(-6.0785363,-4.5566272)">
    <path
       transform="matrix(0.004,0,0,-0.004,109.5779,10.3886)"
       d="m 212,138 c 59,0 113,-31 113,-95 0,-71 -52,-120 -99,-148 -34,-21 -73,-33 -113,-33 -59,0 -113,31 -113,95 0,71 53,120 100,148 34,21 72,33 112,33 z"
       id="path160"
       inkscape:connector-curvature="0"
       style="fill:currentColor" />
  </a>
  <path
     d="m 119.31746,3.1839728 -0.008,0.248 v 0.044 c 0,0.088 0.008,0.172 0.02,0.256 0.172,-0.152 0.356,-0.32 0.356,-0.548 0,-0.128 -0.056,-0.26 -0.168,-0.26 -0.124,0 -0.196,0.128 -0.2,0.26 z m -0.188,0.708 -0.056,-2.36 c 0.036,-0.02 0.08,-0.032 0.12,-0.032 0.04,0 0.084,0.012 0.12,0.032 l -0.032,1.36 c 0.1,-0.096 0.236,-0.152 0.376,-0.152 0.2,0 0.336,0.2 0.336,0.416 0,0.312 -0.332,0.468 -0.564,0.676 -0.068,0.06 -0.1,0.176 -0.196,0.176 -0.06,0 -0.104,-0.052 -0.104,-0.116 z"
     id="path162"
     inkscape:connector-curvature="0"
     style="fill:currentColor" />
  <rect
     x="120.34346"
     y="3.5775728"
     width="0.1514"
     height="3.2544"
     ry="0.050000001"
     id="rect164"
     style="fill:currentColor" />
  <a
     xlink:href="textedit://C:/Users/tikeda/Documents/git/LotusRoot/sco.txt:6:0:1"
     id="a166"
     transform="translate(-6.0785363,-4.5566272)">
    <path
       transform="matrix(0.004,0,0,-0.004,126.422,7.8886)"
       d="m 310,63 c 0,23 -19,40 -40,40 -4,0 -8,-1 -12,-2 C 228,93 183,63 147,40 111,17 66,-12 46,-36 39,-44 36,-53 36,-63 c 0,-23 19,-40 40,-40 4,0 8,1 12,2 30,8 75,38 111,61 36,23 81,52 101,76 7,8 10,17 10,27 z m -54,75 c 50,0 90,-22 90,-77 0,-18 -5,-37 -10,-55 -11,-38 -30,-74 -63,-96 -53,-35 -111,-48 -183,-48 -50,0 -90,22 -90,77 0,18 5,37 10,55 11,38 30,74 63,96 53,36 111,48 183,48 z"
       id="path168"
       inkscape:connector-curvature="0"
       style="fill:currentColor" />
  </a>
  <a
     xlink:href="textedit://C:/Users/tikeda/Documents/git/LotusRoot/sco.txt:5:11:12"
     id="a170"
     transform="translate(-6.0785363,-4.5566272)">
    <path
       transform="matrix(0.004,0,0,-0.004,117.8089,9.3886)"
       d="M 362,0 H 13 C 6,0 0,6 0,13 v 131 c 0,7 6,12 13,12 h 349 c 7,0 13,-5 13,-12 V 13 C 375,6 369,0 362,0 z"
       id="path172"
       inkscape:connector-curvature="0"
       style="fill:currentColor" />
  </a>
  <path
     d="m 40.457264,3.3319728 c 0,-0.12 0.1,-0.22 0.22,-0.22 0.12,0 0.22,0.1 0.22,0.22 0,0.12 -0.1,0.22 -0.22,0.22 -0.12,0 -0.22,-0.1 -0.22,-0.22 z"
     id="path174"
     inkscape:connector-curvature="0"
     style="fill:currentColor" />
  <rect
     x="38.714962"
     y="4.003273"
     width="0.1514"
     height="3.3287001"
     ry="0.050000001"
     id="rect176"
     style="fill:currentColor" />
  <a
     xlink:href="textedit://C:/Users/tikeda/Documents/git/LotusRoot/sco.txt:3:0:1"
     id="a178"
     transform="translate(-6.0785363,-4.5566272)">
    <path
       transform="matrix(0.004,0,0,-0.004,44.7935,8.3886)"
       d="m 212,138 c 59,0 113,-31 113,-95 0,-71 -52,-120 -99,-148 -34,-21 -73,-33 -113,-33 -59,0 -113,31 -113,95 0,71 53,120 100,148 34,21 72,33 112,33 z"
       id="path180"
       inkscape:connector-curvature="0"
       style="fill:currentColor" />
  </a>
  <rect
     x="35.069965"
     y="4.003273"
     width="0.1514"
     height="2.8204999"
     ry="0.050000001"
     id="rect182"
     style="fill:currentColor" />
  <a
     xlink:href="textedit://C:/Users/tikeda/Documents/git/LotusRoot/sco.txt:2:31:32"
     id="a184"
     transform="translate(-6.0785363,-4.5566272)">
    <path
       transform="matrix(0.004,0,0,-0.004,41.1486,8.3886)"
       d="m 212,138 c 59,0 113,-31 113,-95 0,-71 -52,-120 -99,-148 -34,-21 -73,-33 -113,-33 -59,0 -113,31 -113,95 0,71 53,120 100,148 34,21 72,33 112,33 z"
       id="path186"
       inkscape:connector-curvature="0"
       style="fill:currentColor" />
  </a>
  <rect
     x="47.970165"
     y="3.5032728"
     width="0.1514"
     height="2.8239999"
     ry="0.050000001"
     id="rect188"
     style="fill:currentColor" />
  <a
     xlink:href="textedit://C:/Users/tikeda/Documents/git/LotusRoot/sco.txt:3:12:13"
     id="a190"
     transform="translate(-6.0785363,-4.5566272)">
    <path
       transform="matrix(0.004,0,0,-0.004,54.0487,7.8886)"
       d="m 212,138 c 59,0 113,-31 113,-95 0,-71 -52,-120 -99,-148 -34,-21 -73,-33 -113,-33 -59,0 -113,31 -113,95 0,71 53,120 100,148 34,21 72,33 112,33 z"
       id="path192"
       inkscape:connector-curvature="0"
       style="fill:currentColor" />
  </a>
  <rect
     x="44.732765"
     y="3.0032728"
     width="0.1514"
     height="3.1250999"
     ry="0.050000001"
     id="rect194"
     style="fill:currentColor" />
  <a
     xlink:href="textedit://C:/Users/tikeda/Documents/git/LotusRoot/sco.txt:3:6:7"
     id="a196"
     transform="translate(-6.0785363,-4.5566272)">
    <path
       transform="matrix(0.004,0,0,-0.004,50.8113,7.3886)"
       d="m 212,138 c 59,0 113,-31 113,-95 0,-71 -52,-120 -99,-148 -34,-21 -73,-33 -113,-33 -59,0 -113,31 -113,95 0,71 53,120 100,148 34,21 72,33 112,33 z"
       id="path198"
       inkscape:connector-curvature="0"
       style="fill:currentColor" />
  </a>
  <rect
     x="20.387264"
     y="4.5775728"
     width="0.1514"
     height="3.2544"
     ry="0.050000001"
     id="rect200"
     style="fill:currentColor" />
  <a
     xlink:href="textedit://C:/Users/tikeda/Documents/git/LotusRoot/sco.txt:2:0:1"
     id="a202"
     transform="translate(-6.0785363,-4.5566272)">
    <path
       transform="matrix(0.004,0,0,-0.004,22.783,9.3886)"
       d="m 356,30 c -48,0 -72,40 -72,72 0,37 26,75 70,75 3,0 6,-1 9,-1 -26,36 -67,59 -113,59 -107,0 -113,-74 -113,-189 0,-15 1,-30 1,-46 0,-16 -1,-31 -1,-46 0,-115 6,-189 113,-189 78,0 133,70 151,149 2,8 8,11 14,11 7,0 15,-5 15,-14 0,-95 -103,-176 -180,-176 -68,0 -137,20 -184,70 C 17,-143 0,-71 0,0 c 0,71 17,143 66,195 47,50 116,70 184,70 86,0 156,-67 171,-153 1,-4 1,-9 1,-13 0,-38 -30,-69 -66,-69 z"
       id="path204"
       inkscape:connector-curvature="0"
       style="fill:currentColor" />
  </a>
  <path
     d="m 14.020464,4.7759728 c 0.012,0 0.028,-0.004 0.04,-0.004 0.628,0 1.032,0.516 1.032,1.052 0,0.308 -0.132,0.62 -0.432,0.844 -0.088,0.064 -0.184,0.116 -0.288,0.148 0.012,0.132 0.016,0.264 0.016,0.396 0,0.084 0,0.164 -0.004,0.248 -0.028,0.484 -0.364,0.916 -0.844,0.916 -0.432,0 -0.784,-0.352 -0.784,-0.788 0,-0.232 0.216,-0.412 0.452,-0.412 0.216,0 0.38,0.188 0.38,0.412 0,0.208 -0.172,0.38 -0.38,0.38 -0.036,0 -0.072,-0.004 -0.108,-0.016 0.1,0.148 0.264,0.244 0.452,0.244 0.38,0 0.624,-0.372 0.648,-0.764 0.004,-0.076 0.008,-0.152 0.008,-0.228 0,-0.116 -0.004,-0.232 -0.012,-0.348 -0.116,0.02 -0.232,0.032 -0.352,0.032 -0.756,0 -1.332,-0.692 -1.332,-1.504 0,-0.708 0.516,-1.232 0.976,-1.772 -0.08,-0.248 -0.16,-0.496 -0.192,-0.756 -0.028,-0.208 -0.028,-0.42 -0.028,-0.632 0,-0.456 0.216,-0.884 0.588,-1.152 0.016,-0.012 0.032,-0.016 0.048,-0.016 0.02,0 0.036,0.008 0.052,0.02 0.288,0.332 0.54,0.972 0.54,1.424 0,0.568 -0.336,1.02 -0.704,1.456 0.084,0.272 0.16,0.544 0.228,0.82 z m 0.336,1.86 c 0.26,-0.096 0.44,-0.376 0.44,-0.644 0,-0.352 -0.256,-0.7 -0.668,-0.752 0.096,0.456 0.176,0.908 0.228,1.396 z m -1.544,-0.904 c 0,0.532 0.512,0.972 1.044,0.972 0.108,0 0.22,-0.004 0.324,-0.02 -0.052,-0.504 -0.14,-0.976 -0.24,-1.448 -0.316,0.032 -0.496,0.24 -0.496,0.472 0,0.172 0.1,0.352 0.32,0.48 0.02,0.02 0.028,0.044 0.028,0.068 0,0.048 -0.04,0.092 -0.092,0.092 -0.012,0 -0.028,-0.004 -0.04,-0.008 -0.324,-0.172 -0.472,-0.46 -0.472,-0.744 0,-0.356 0.24,-0.708 0.652,-0.8 -0.056,-0.228 -0.12,-0.452 -0.188,-0.676 -0.42,0.488 -0.84,0.972 -0.84,1.612 z m 1.304,-4.052 c -0.396,0.184 -0.644,0.58 -0.644,1.016 0,0.284 0.084,0.52 0.156,0.752 0.312,-0.388 0.568,-0.796 0.568,-1.296 0,-0.204 -0.016,-0.288 -0.08,-0.472 z"
     id="path206"
     inkscape:connector-curvature="0"
     style="fill:currentColor" />
  <a
     xlink:href="textedit://C:/Users/tikeda/Documents/git/LotusRoot/sco.txt:2:10:11"
     id="a208"
     transform="translate(-6.0785363,-4.5566272)">
    <path
       transform="matrix(0.004,0,0,-0.004,26.4659,8.8886)"
       d="m 310,63 c 0,23 -19,40 -40,40 -4,0 -8,-1 -12,-2 C 228,93 183,63 147,40 111,17 66,-12 46,-36 39,-44 36,-53 36,-63 c 0,-23 19,-40 40,-40 4,0 8,1 12,2 30,8 75,38 111,61 36,23 81,52 101,76 7,8 10,17 10,27 z m -54,75 c 50,0 90,-22 90,-77 0,-18 -5,-37 -10,-55 -11,-38 -30,-74 -63,-96 -53,-35 -111,-48 -183,-48 -50,0 -90,22 -90,77 0,18 5,37 10,55 11,38 30,74 63,96 53,36 111,48 183,48 z"
       id="path210"
       inkscape:connector-curvature="0"
       style="fill:currentColor" />
  </a>
  <path
     d="m 31.497164,3.1839728 -0.008,0.248 v 0.044 c 0,0.088 0.008,0.172 0.02,0.256 0.172,-0.152 0.356,-0.32 0.356,-0.548 0,-0.128 -0.056,-0.26 -0.168,-0.26 -0.124,0 -0.196,0.128 -0.2,0.26 z m -0.188,0.708 -0.056,-2.36 c 0.036,-0.02 0.08,-0.032 0.12,-0.032 0.04,0 0.084,0.012 0.12,0.032 l -0.032,1.36 c 0.1,-0.096 0.236,-0.152 0.376,-0.152 0.2,0 0.336,0.2 0.336,0.416 0,0.312 -0.332,0.468 -0.564,0.676 -0.068,0.06 -0.1,0.176 -0.196,0.176 -0.06,0 -0.104,-0.052 -0.104,-0.116 z"
     id="path212"
     inkscape:connector-curvature="0"
     style="fill:currentColor" />
  <rect
     x="32.523163"
     y="3.5032728"
     width="0.1514"
     height="3.0451"
     ry="0.050000001"
     id="rect214"
     style="fill:currentColor" />
  <a
     xlink:href="textedit://C:/Users/tikeda/Documents/git/LotusRoot/sco.txt:2:23:24"
     id="a216"
     transform="translate(-6.0785363,-4.5566272)">
    <path
       transform="matrix(0.004,0,0,-0.004,38.6017,7.8886)"
       d="m 212,138 c 59,0 113,-31 113,-95 0,-71 -52,-120 -99,-148 -34,-21 -73,-33 -113,-33 -59,0 -113,31 -113,95 0,71 53,120 100,148 34,21 72,33 112,33 z"
       id="path218"
       inkscape:connector-curvature="0"
       style="fill:currentColor" />
  </a>
  <rect
     x="26.755363"
     y="4.503273"
     width="0.1514"
     height="3.3287001"
     ry="0.050000001"
     id="rect220"
     style="fill:currentColor" />
  <path
     d="m 28.497664,4.3319728 c 0,-0.12 0.1,-0.22 0.22,-0.22 0.12,0 0.22,0.1 0.22,0.22 0,0.12 -0.1,0.22 -0.22,0.22 -0.12,0 -0.22,-0.1 -0.22,-0.22 z"
     id="path222"
     inkscape:connector-curvature="0"
     style="fill:currentColor" />
  <a
     xlink:href="textedit://C:/Users/tikeda/Documents/git/LotusRoot/sco.txt:2:17:18"
     id="a224"
     transform="translate(-6.0785363,-4.5566272)">
    <path
       transform="matrix(0.004,0,0,-0.004,32.8339,8.8886)"
       d="m 212,138 c 59,0 113,-31 113,-95 0,-71 -52,-120 -99,-148 -34,-21 -73,-33 -113,-33 -59,0 -113,31 -113,95 0,71 53,120 100,148 34,21 72,33 112,33 z"
       id="path226"
       inkscape:connector-curvature="0"
       style="fill:currentColor" />
  </a>
  <rect
     x="63.887062"
     y="2.0032728"
     width="0.1514"
     height="3.8313"
     ry="0.050000001"
     id="rect228"
     style="fill:currentColor" />
  <a
     xlink:href="textedit://C:/Users/tikeda/Documents/git/LotusRoot/sco.txt:3:49:50"
     id="a230"
     transform="translate(-6.0785363,-4.5566272)">
    <path
       transform="matrix(0.004,0,0,-0.004,69.9657,6.3886)"
       d="m 212,138 c 59,0 113,-31 113,-95 0,-71 -52,-120 -99,-148 -34,-21 -73,-33 -113,-33 -59,0 -113,31 -113,95 0,71 53,120 100,148 34,21 72,33 112,33 z"
       id="path232"
       inkscape:connector-curvature="0"
       style="fill:currentColor" />
  </a>
  <rect
     x="60.649662"
     y="2.5032728"
     width="0.1514"
     height="3.4426"
     ry="0.050000001"
     id="rect234"
     style="fill:currentColor" />
  <a
     xlink:href="textedit://C:/Users/tikeda/Documents/git/LotusRoot/sco.txt:3:43:44"
     id="a236"
     transform="translate(-6.0785363,-4.5566272)">
    <path
       transform="matrix(0.004,0,0,-0.004,66.7283,6.8886)"
       d="m 212,138 c 59,0 113,-31 113,-95 0,-71 -52,-120 -99,-148 -34,-21 -73,-33 -113,-33 -59,0 -113,31 -113,95 0,71 53,120 100,148 34,21 72,33 112,33 z"
       id="path238"
       inkscape:connector-curvature="0"
       style="fill:currentColor" />
  </a>
  <path
     d="m 62.861164,1.6839728 -0.008,0.248 v 0.044 c 0,0.088 0.008,0.172 0.02,0.256 0.172,-0.152 0.356,-0.32 0.356,-0.548 0,-0.128 -0.056,-0.26 -0.168,-0.26 -0.124,0 -0.196,0.128 -0.2,0.26 z m -0.188,0.708 -0.056,-2.35999997 c 0.036,-0.02 0.08,-0.03200000111 0.12,-0.03200000111 0.04,0 0.084,0.01200000111 0.12,0.03200000111 l -0.032,1.35999997 c 0.1,-0.096 0.236,-0.152 0.376,-0.152 0.2,0 0.336,0.2 0.336,0.416 0,0.312 -0.332,0.468 -0.564,0.676 -0.068,0.06 -0.1,0.176 -0.196,0.176 -0.06,0 -0.104,-0.052 -0.104,-0.116 z"
     id="path240"
     inkscape:connector-curvature="0"
     style="fill:currentColor" />
  <a
     xlink:href="textedit://C:/Users/tikeda/Documents/git/LotusRoot/sco.txt:4:0:1"
     id="a242"
     transform="translate(-6.0785363,-4.5566272)">
    <path
       transform="matrix(0.004,0,0,-0.004,73.5626,8.3886)"
       d="m 212,138 c 59,0 113,-31 113,-95 0,-71 -52,-120 -99,-148 -34,-21 -73,-33 -113,-33 -59,0 -113,31 -113,95 0,71 53,120 100,148 34,21 72,33 112,33 z"
       id="path244"
       inkscape:connector-curvature="0"
       style="fill:currentColor" />
  </a>
  <rect
     x="67.484062"
     y="4.003273"
     width="0.1514"
     height="3.3287001"
     ry="0.050000001"
     id="rect246"
     style="fill:currentColor" />
  <rect
     x="58.102863"
     y="3.0032728"
     width="0.1514"
     height="3.0302"
     ry="0.050000001"
     id="rect248"
     style="fill:currentColor" />
  <a
     xlink:href="textedit://C:/Users/tikeda/Documents/git/LotusRoot/sco.txt:3:29:30"
     id="a250"
     transform="translate(-6.0785363,-4.5566272)">
    <path
       transform="matrix(0.004,0,0,-0.004,61.6345,7.8886)"
       d="m 212,138 c 59,0 113,-31 113,-95 0,-71 -52,-120 -99,-148 -34,-21 -73,-33 -113,-33 -59,0 -113,31 -113,95 0,71 53,120 100,148 34,21 72,33 112,33 z"
       id="path252"
       inkscape:connector-curvature="0"
       style="fill:currentColor" />
  </a>
  <rect
     x="50.517063"
     y="3.5032728"
     width="0.1514"
     height="3.3287001"
     ry="0.050000001"
     id="rect254"
     style="fill:currentColor" />
  <rect
     x="55.555965"
     y="3.5032728"
     width="0.1514"
     height="2.6178999"
     ry="0.050000001"
     id="rect256"
     style="fill:currentColor" />
  <a
     xlink:href="textedit://C:/Users/tikeda/Documents/git/LotusRoot/sco.txt:3:20:21"
     id="a258"
     transform="translate(-6.0785363,-4.5566272)">
    <path
       transform="matrix(0.004,0,0,-0.004,56.5956,7.8886)"
       d="m 212,138 c 59,0 113,-31 113,-95 0,-71 -52,-120 -99,-148 -34,-21 -73,-33 -113,-33 -59,0 -113,31 -113,95 0,71 53,120 100,148 34,21 72,33 112,33 z"
       id="path260"
       inkscape:connector-curvature="0"
       style="fill:currentColor" />
  </a>
  <path
     d="m 46.944164,3.1839728 -0.008,0.248 v 0.044 c 0,0.088 0.008,0.172 0.02,0.256 0.172,-0.152 0.356,-0.32 0.356,-0.548 0,-0.128 -0.056,-0.26 -0.168,-0.26 -0.124,0 -0.196,0.128 -0.2,0.26 z m -0.188,0.708 -0.056,-2.36 c 0.036,-0.02 0.08,-0.032 0.12,-0.032 0.04,0 0.084,0.012 0.12,0.032 l -0.032,1.36 c 0.1,-0.096 0.236,-0.152 0.376,-0.152 0.2,0 0.336,0.2 0.336,0.416 0,0.312 -0.332,0.468 -0.564,0.676 -0.068,0.06 -0.1,0.176 -0.196,0.176 -0.06,0 -0.104,-0.052 -0.104,-0.116 z"
     id="path262"
     inkscape:connector-curvature="0"
     style="fill:currentColor" />
  <a
     xlink:href="textedit://C:/Users/tikeda/Documents/git/LotusRoot/sco.txt:3:37:38"
     id="a264"
     transform="translate(-6.0785363,-4.5566272)">
    <path
       transform="matrix(0.004,0,0,-0.004,64.1814,7.3886)"
       d="m 212,138 c 59,0 113,-31 113,-95 0,-71 -52,-120 -99,-148 -34,-21 -73,-33 -113,-33 -59,0 -113,31 -113,95 0,71 53,120 100,148 34,21 72,33 112,33 z"
       id="path266"
       inkscape:connector-curvature="0"
       style="fill:currentColor" />
  </a>
  <line
     x1="1.0928637"
     y1="18.831972"
     x2="136.12708"
     y2="18.831972"
     id="line268"
     style="stroke:currentColor;stroke-width:0.1164;stroke-linecap:round;stroke-linejoin:round" />
  <line
     x1="1.0928637"
     y1="17.831972"
     x2="136.12708"
     y2="17.831972"
     id="line270"
     style="stroke:currentColor;stroke-width:0.1164;stroke-linecap:round;stroke-linejoin:round" />
  <line
     x1="1.0928637"
     y1="16.831972"
     x2="136.12708"
     y2="16.831972"
     id="line272"
     style="stroke:currentColor;stroke-width:0.1164;stroke-linecap:round;stroke-linejoin:round" />
  <line
     x1="1.0928637"
     y1="15.831973"
     x2="136.12708"
     y2="15.831973"
     id="line274"
     style="stroke:currentColor;stroke-width:0.1164;stroke-linecap:round;stroke-linejoin:round" />
  <line
     x1="1.0928637"
     y1="14.831973"
     x2="136.12708"
     y2="14.831973"
     id="line276"
     style="stroke:currentColor;stroke-width:0.1164;stroke-linecap:round;stroke-linejoin:round" />
  <rect
     x="32.589165"
     y="14.831973"
     width="0.2212"
     height="4"
     ry="0"
     id="rect278"
     style="fill:currentColor" />
  <rect
     x="135.96407"
     y="14.831973"
     width="0.2212"
     height="4"
     ry="0"
     id="rect280"
     style="fill:currentColor" />
  <rect
     x="122.75266"
     y="14.831973"
     width="0.2212"
     height="4"
     ry="0"
     id="rect282"
     style="fill:currentColor" />
  <rect
     x="60.094463"
     y="14.831973"
     width="0.2212"
     height="4"
     ry="0"
     id="rect284"
     style="fill:currentColor" />
  <rect
     x="91.827065"
     y="14.831973"
     width="0.2212"
     height="4"
     ry="0"
     id="rect286"
     style="fill:currentColor" />
  <rect
     x="93.090164"
     y="16.503273"
     width="0.1514"
     height="3.3287001"
     ry="0.050000001"
     id="rect288"
     style="fill:currentColor" />
  <path
     d="m 94.832464,16.331973 c 0,-0.12 0.1,-0.22 0.22,-0.22 0.12,0 0.22,0.1 0.22,0.22 0,0.12 -0.1,0.22 -0.22,0.22 -0.12,0 -0.22,-0.1 -0.22,-0.22 z"
     id="path290"
     inkscape:connector-curvature="0"
     style="fill:currentColor" />
  <a
     xlink:href="textedit://C:/Users/tikeda/Documents/git/LotusRoot/sco.txt:10:0:1"
     id="a292"
     transform="translate(-6.0785363,-4.5566272)">
    <path
       transform="matrix(0.004,0,0,-0.004,99.1688,20.8886)"
       d="m 212,138 c 59,0 113,-31 113,-95 0,-71 -52,-120 -99,-148 -34,-21 -73,-33 -113,-33 -59,0 -113,31 -113,95 0,71 53,120 100,148 34,21 72,33 112,33 z"
       id="path294"
       inkscape:connector-curvature="0"
       style="fill:currentColor" />
  </a>
  <a
     xlink:href="textedit://C:/Users/tikeda/Documents/git/LotusRoot/sco.txt:10:13:14"
     id="a296"
     transform="translate(-6.0785363,-4.5566272)">
    <path
       transform="matrix(0.004,0,0,-0.004,108.6039,18.8886)"
       d="m 212,138 c 59,0 113,-31 113,-95 0,-71 -52,-120 -99,-148 -34,-21 -73,-33 -113,-33 -59,0 -113,31 -113,95 0,71 53,120 100,148 34,21 72,33 112,33 z"
       id="path298"
       inkscape:connector-curvature="0"
       style="fill:currentColor" />
  </a>
  <rect
     x="104.79967"
     y="16.503273"
     width="0.1514"
     height="2.6205001"
     ry="0.050000001"
     id="rect300"
     style="fill:currentColor" />
  <a
     xlink:href="textedit://C:/Users/tikeda/Documents/git/LotusRoot/sco.txt:10:19:20"
     id="a302"
     transform="translate(-6.0785363,-4.5566272)">
    <path
       transform="matrix(0.004,0,0,-0.004,110.8782,20.8886)"
       d="m 212,138 c 59,0 113,-31 113,-95 0,-71 -52,-120 -99,-148 -34,-21 -73,-33 -113,-33 -59,0 -113,31 -113,95 0,71 53,120 100,148 34,21 72,33 112,33 z"
       id="path304"
       inkscape:connector-curvature="0"
       style="fill:currentColor" />
  </a>
  <rect
     x="102.52526"
     y="14.503273"
     width="0.1514"
     height="4.6205001"
     ry="0.050000001"
     id="rect306"
     style="fill:currentColor" />
  <path
     d="m 98.119364,16.147973 c -0.048,0 -0.084,-0.036 -0.084,-0.084 v -0.552 l -0.316,0.12 v 0.616 c 0,0.048 -0.036,0.084 -0.084,0.084 -0.048,0 -0.084,-0.036 -0.084,-0.084 v -0.552 l -0.088,0.032 c -0.012,0.004 -0.024,0.008 -0.036,0.008 -0.052,0 -0.1,-0.044 -0.1,-0.1 v -0.216 c 0,-0.04 0.024,-0.08 0.064,-0.096 l 0.16,-0.06 v -0.62 l -0.088,0.036 c -0.012,0.004 -0.024,0.004 -0.036,0.004 -0.052,0 -0.1,-0.044 -0.1,-0.1 v -0.216 c 0,-0.04 0.024,-0.076 0.064,-0.092 l 0.16,-0.06 v -0.616 c 0,-0.048 0.036,-0.084 0.084,-0.084 0.048,0 0.084,0.036 0.084,0.084 v 0.552 l 0.316,-0.12 v -0.616 c 0,-0.048 0.036,-0.084 0.084,-0.084 0.048,0 0.084,0.036 0.084,0.084 v 0.552 l 0.088,-0.032 c 0.012,-0.004 0.024,-0.008 0.036,-0.008 0.052,0 0.1,0.044 0.1,0.1 v 0.216 c 0,0.04 -0.024,0.08 -0.064,0.096 l -0.16,0.06 v 0.62 l 0.088,-0.036 c 0.012,-0.004 0.024,-0.004 0.036,-0.004 0.052,0 0.1,0.044 0.1,0.1 v 0.216 c 0,0.04 -0.024,0.076 -0.064,0.092 l -0.16,0.06 v 0.616 c 0,0.048 -0.036,0.084 -0.084,0.084 z m -0.4,-1.564 v 0.616 l 0.316,-0.12 v -0.616 z"
     id="path308"
     inkscape:connector-curvature="0"
     style="fill:currentColor" />
  <path
     d="m 98.928764,18.281973 h -0.076 v -1 h 0.076 c 0.38,-0.236 0.88,-0.596 0.88,-1.036 0,-0.224 -0.064,-0.444 -0.164,-0.644 -0.012,-0.072 0.048,-0.12 0.104,-0.12 0.032,0 0.068,0.016 0.088,0.052 0.1,0.224 0.16,0.464 0.16,0.712 0,0.812 -1.068,1.224 -1.068,2.036 z"
     id="path310"
     inkscape:connector-curvature="0"
     style="fill:currentColor" />
  <rect
     x="98.777367"
     y="15.003273"
     width="0.1514"
     height="3.3287001"
     ry="0.050000001"
     id="rect312"
     style="fill:currentColor" />
  <a
     xlink:href="textedit://C:/Users/tikeda/Documents/git/LotusRoot/sco.txt:10:6:7"
     id="a314"
     transform="translate(-6.0785363,-4.5566272)">
    <path
       transform="matrix(0.004,0,0,-0.004,104.8559,19.3886)"
       d="m 212,138 c 59,0 113,-31 113,-95 0,-71 -52,-120 -99,-148 -34,-21 -73,-33 -113,-33 -59,0 -113,31 -113,95 0,71 53,120 100,148 34,21 72,33 112,33 z"
       id="path316"
       inkscape:connector-curvature="0"
       style="fill:currentColor" />
  </a>
  <rect
     x="76.655861"
     y="16.503273"
     width="0.1514"
     height="3.0425"
     ry="0.050000001"
     id="rect318"
     style="fill:currentColor" />
  <a
     xlink:href="textedit://C:/Users/tikeda/Documents/git/LotusRoot/sco.txt:9:21:22"
     id="a320"
     transform="translate(-6.0785363,-4.5566272)">
    <path
       transform="matrix(0.004,0,0,-0.004,82.7344,20.8886)"
       d="m 212,138 c 59,0 113,-31 113,-95 0,-71 -52,-120 -99,-148 -34,-21 -73,-33 -113,-33 -59,0 -113,31 -113,95 0,71 53,120 100,148 34,21 72,33 112,33 z"
       id="path322"
       inkscape:connector-curvature="0"
       style="fill:currentColor" />
  </a>
  <path
     d="m 71.881964,16.683973 -0.008,0.248 v 0.044 c 0,0.088 0.008,0.172 0.02,0.256 0.172,-0.152 0.356,-0.32 0.356,-0.548 0,-0.128 -0.056,-0.26 -0.168,-0.26 -0.124,0 -0.196,0.128 -0.2,0.26 z m -0.188,0.708 -0.056,-2.36 c 0.036,-0.02 0.08,-0.032 0.12,-0.032 0.04,0 0.084,0.012 0.12,0.032 l -0.032,1.36 c 0.1,-0.096 0.236,-0.152 0.376,-0.152 0.2,0 0.336,0.2 0.336,0.416 0,0.312 -0.332,0.468 -0.564,0.676 -0.068,0.06 -0.1,0.176 -0.196,0.176 -0.06,0 -0.104,-0.052 -0.104,-0.116 z"
     id="path324"
     inkscape:connector-curvature="0"
     style="fill:currentColor" />
  <path
     d="m 73.059264,20.156973 h -0.076 v -1 h 0.076 c 0.38,-0.236 0.88,-0.596 0.88,-1.036 0,-0.224 -0.064,-0.444 -0.164,-0.644 -0.012,-0.072 0.048,-0.12 0.104,-0.12 0.032,0 0.068,0.016 0.088,0.052 0.1,0.224 0.16,0.464 0.16,0.712 0,0.812 -1.068,1.224 -1.068,2.036 z"
     id="path326"
     inkscape:connector-curvature="0"
     style="fill:currentColor" />
  <rect
     x="72.907867"
     y="17.003273"
     width="0.1514"
     height="3.2037001"
     ry="0.050000001"
     id="rect328"
     style="fill:currentColor" />
  <a
     xlink:href="textedit://C:/Users/tikeda/Documents/git/LotusRoot/sco.txt:9:15:16"
     id="a330"
     transform="translate(-6.0785363,-4.5566272)">
    <path
       transform="matrix(0.004,0,0,-0.004,78.9865,21.3886)"
       d="m 212,138 c 59,0 113,-31 113,-95 0,-71 -52,-120 -99,-148 -34,-21 -73,-33 -113,-33 -59,0 -113,31 -113,95 0,71 53,120 100,148 34,21 72,33 112,33 z"
       id="path332"
       inkscape:connector-curvature="0"
       style="fill:currentColor" />
  </a>
  <a
     xlink:href="textedit://C:/Users/tikeda/Documents/git/LotusRoot/sco.txt:9:12:13"
     id="a334"
     transform="translate(-6.0785363,-4.5566272)">
    <path
       transform="matrix(0.004,0,0,-0.004,75.5394,21.3886)"
       d="M 67,-250 185,76 C 152,64 119,54 84,54 38,54 -3,88 -3,133 c 0,40 33,72 73,72 25,0 49,-14 57,-37 10,-27 4,-59 33,-59 14,0 50,42 56,55 7,14 28,14 34,0 L 131,-250 c -9,-8 -21,-12 -32,-12 -11,0 -23,4 -32,12 z"
       id="path336"
       inkscape:connector-curvature="0"
       style="fill:currentColor" />
  </a>
  <polygon
     transform="translate(13.671364,14.540173)"
     points="0.05,-0.3 2.6257,-0.0082 2.6257,0.5918 0.05,0.3 "
     id="polygon338"
     style="fill:currentColor;stroke:currentColor;stroke-width:0.1;stroke-linecap:round;stroke-linejoin:round" />
  <polygon
     transform="translate(13.671364,15.671673)"
     points="0.05,-0.3 2.6257,-0.0082 2.6257,0.5918 0.05,0.3 "
     id="polygon340"
     style="fill:currentColor;stroke:currentColor;stroke-width:0.1;stroke-linecap:round;stroke-linejoin:round" />
  <a
     xlink:href="textedit://C:/Users/tikeda/Documents/git/LotusRoot/sco.txt:9:32:33"
     id="a342"
     transform="translate(-6.0785363,-4.5566272)">
    <path
       transform="matrix(0.004,0,0,-0.004,90.2078,21.8886)"
       d="m 212,138 c 59,0 113,-31 113,-95 0,-71 -52,-120 -99,-148 -34,-21 -73,-33 -113,-33 -59,0 -113,31 -113,95 0,71 53,120 100,148 34,21 72,33 112,33 z"
       id="path344"
       inkscape:connector-curvature="0"
       style="fill:currentColor" />
  </a>
  <rect
     x="89.026566"
     y="14.826273"
     width="0.1514"
     height="2.8343"
     ry="0.050000001"
     id="rect346"
     style="fill:currentColor" />
  <a
     xlink:href="textedit://C:/Users/tikeda/Documents/git/LotusRoot/sco.txt:9:38:39"
     id="a348"
     transform="translate(-6.0785363,-4.5566272)">
    <path
       transform="matrix(0.004,0,0,-0.004,93.9557,22.3886)"
       d="m 212,138 c 59,0 113,-31 113,-95 0,-71 -52,-120 -99,-148 -34,-21 -73,-33 -113,-33 -59,0 -113,31 -113,95 0,71 53,120 100,148 34,21 72,33 112,33 z"
       id="path350"
       inkscape:connector-curvature="0"
       style="fill:currentColor" />
  </a>
  <path
     d="m 83.103264,17.183973 -0.008,0.248 v 0.044 c 0,0.088 0.008,0.172 0.02,0.256 0.172,-0.152 0.356,-0.32 0.356,-0.548 0,-0.128 -0.056,-0.26 -0.168,-0.26 -0.124,0 -0.196,0.128 -0.2,0.26 z m -0.188,0.708 -0.056,-2.36 c 0.036,-0.02 0.08,-0.032 0.12,-0.032 0.04,0 0.084,0.012 0.12,0.032 l -0.032,1.36 c 0.1,-0.096 0.236,-0.152 0.376,-0.152 0.2,0 0.336,0.2 0.336,0.416 0,0.312 -0.332,0.468 -0.564,0.676 -0.068,0.06 -0.1,0.176 -0.196,0.176 -0.06,0 -0.104,-0.052 -0.104,-0.116 z"
     id="path352"
     inkscape:connector-curvature="0"
     style="fill:currentColor" />
  <rect
     x="85.278664"
     y="14.545873"
     width="0.1514"
     height="2.6148"
     ry="0.050000001"
     id="rect354"
     style="fill:currentColor" />
  <path
     d="m 79.377764,16.683973 -0.008,0.248 v 0.044 c 0,0.088 0.008,0.172 0.02,0.256 0.172,-0.152 0.356,-0.32 0.356,-0.548 0,-0.128 -0.056,-0.26 -0.168,-0.26 -0.124,0 -0.196,0.128 -0.2,0.26 z m -0.188,0.708 -0.056,-2.36 c 0.036,-0.02 0.08,-0.032 0.12,-0.032 0.04,0 0.084,0.012 0.12,0.032 l -0.032,1.36 c 0.1,-0.096 0.236,-0.152 0.376,-0.152 0.2,0 0.336,0.2 0.336,0.416 0,0.312 -0.332,0.468 -0.564,0.676 -0.068,0.06 -0.1,0.176 -0.196,0.176 -0.06,0 -0.104,-0.052 -0.104,-0.116 z"
     id="path356"
     inkscape:connector-curvature="0"
     style="fill:currentColor" />
  <rect
     x="80.403763"
     y="17.003273"
     width="0.1514"
     height="2.823"
     ry="0.050000001"
     id="rect358"
     style="fill:currentColor" />
  <a
     xlink:href="textedit://C:/Users/tikeda/Documents/git/LotusRoot/sco.txt:9:26:27"
     id="a360"
     transform="translate(-6.0785363,-4.5566272)">
    <path
       transform="matrix(0.004,0,0,-0.004,86.4823,21.3886)"
       d="m 212,138 c 59,0 113,-31 113,-95 0,-71 -52,-120 -99,-148 -34,-21 -73,-33 -113,-33 -59,0 -113,31 -113,95 0,71 53,120 100,148 34,21 72,33 112,33 z"
       id="path362"
       inkscape:connector-curvature="0"
       style="fill:currentColor" />
  </a>
  <path
     d="m 130.79556,16.331973 c 0,-0.12 0.1,-0.22 0.22,-0.22 0.12,0 0.22,0.1 0.22,0.22 0,0.12 -0.1,0.22 -0.22,0.22 -0.12,0 -0.22,-0.1 -0.22,-0.22 z"
     id="path364"
     inkscape:connector-curvature="0"
     style="fill:currentColor" />
  <a
     xlink:href="textedit://C:/Users/tikeda/Documents/git/LotusRoot/sco.txt:11:4:5"
     id="a366"
     transform="translate(-6.0785363,-4.5566272)">
    <path
       transform="matrix(0.004,0,0,-0.004,134.9327,21.3886)"
       d="M 362,0 H 13 C 6,0 0,6 0,13 v 131 c 0,7 6,12 13,12 h 349 c 7,0 13,-5 13,-12 V 13 C 375,6 369,0 362,0 z"
       id="path368"
       inkscape:connector-curvature="0"
       style="fill:currentColor" />
  </a>
  <polygon
     transform="translate(114.90336,13.831973)"
     points="0.05,-0.3 6.3737,-0.0082 6.3737,0.5918 0.05,0.3 "
     id="polygon370"
     style="fill:currentColor;stroke:currentColor;stroke-width:0.1;stroke-linecap:round;stroke-linejoin:round" />
  <polygon
     transform="translate(118.65126,15.133673)"
     points="0.05,-0.3 2.6257,-0.1785 2.6257,0.4215 0.05,0.3 "
     id="polygon372"
     style="fill:currentColor;stroke:currentColor;stroke-width:0.1;stroke-linecap:round;stroke-linejoin:round" />
  <polygon
     transform="translate(18.720064,14.540173)"
     points="0.05,-0.3 7.0642,-0.0082 7.0642,0.5918 0.05,0.3 "
     id="polygon374"
     style="fill:currentColor;stroke:currentColor;stroke-width:0.1;stroke-linecap:round;stroke-linejoin:round" />
  <polygon
     transform="translate(22.467964,15.825373)"
     points="0.05,-0.3 3.3163,-0.1619 3.3163,0.4381 0.05,0.3 "
     id="polygon376"
     style="fill:currentColor;stroke:currentColor;stroke-width:0.1;stroke-linecap:round;stroke-linejoin:round" />
  <a
     xlink:href="textedit://C:/Users/tikeda/Documents/git/LotusRoot/sco.txt:7:39:40"
     id="a378"
     transform="translate(-6.0785363,-4.5566272)">
    <path
       transform="translate(33.8269,21.3886)"
       d="m 1.5008,-0.1978 c 0.8274,-0.8075 3.5472,-0.8075 4.3746,0 l 0,0 c -0.8274,-0.6678 -3.5472,-0.6678 -4.3746,0 z"
       id="path380"
       inkscape:connector-curvature="0"
       style="fill:currentColor;stroke:currentColor;stroke-width:0.0931;stroke-linecap:round;stroke-linejoin:round" />
  </a>
  <polygon
     transform="translate(33.823764,19.831973)"
     points="0.05,-0.3 4.0993,-0.5918 4.0993,0.0082 0.05,0.3 "
     id="polygon382"
     style="fill:currentColor;stroke:currentColor;stroke-width:0.1;stroke-linecap:round;stroke-linejoin:round" />
  <polygon
     transform="translate(42.339464,13.831973)"
     points="0.05,-0.3 4.565,-0.5918 4.565,0.0082 0.05,0.3 "
     id="polygon384"
     style="fill:currentColor;stroke:currentColor;stroke-width:0.1;stroke-linecap:round;stroke-linejoin:round" />
  <polygon
     transform="translate(45.778764,14.745973)"
     points="0.05,-0.3 1.1257,-0.3743 1.1257,0.2257 0.05,0.3 "
     id="polygon386"
     style="fill:currentColor;stroke:currentColor;stroke-width:0.1;stroke-linecap:round;stroke-linejoin:round" />
  <polygon
     transform="translate(62.214964,18.540173)"
     points="0.05,-0.3 3.8493,-0.0082 3.8493,0.5918 0.05,0.3 "
     id="polygon388"
     style="fill:currentColor;stroke:currentColor;stroke-width:0.1;stroke-linecap:round;stroke-linejoin:round" />
  <polygon
     transform="translate(76.655864,19.540173)"
     points="0.05,-0.3 3.8493,-0.0082 3.8493,0.5918 0.05,0.3 "
     id="polygon390"
     style="fill:currentColor;stroke:currentColor;stroke-width:0.1;stroke-linecap:round;stroke-linejoin:round" />
  <polygon
     transform="translate(85.278664,14.540173)"
     points="0.05,-0.3 3.8493,-0.0082 3.8493,0.5918 0.05,0.3 "
     id="polygon392"
     style="fill:currentColor;stroke:currentColor;stroke-width:0.1;stroke-linecap:round;stroke-linejoin:round" />
  <polygon
     transform="translate(102.52536,17.992273)"
     points="0.05,-0.3 8.115,-0.3 8.115,0.3 0.05,0.3 "
     id="polygon394"
     style="fill:currentColor;stroke:currentColor;stroke-width:0.1;stroke-linecap:round;stroke-linejoin:round" />
  <polygon
     transform="translate(102.52536,19.123773)"
     points="0.05,-0.3 8.115,-0.3 8.115,0.3 0.05,0.3 "
     id="polygon396"
     style="fill:currentColor;stroke:currentColor;stroke-width:0.1;stroke-linecap:round;stroke-linejoin:round" />
  <rect
     x="125.03217"
     y="14.331973"
     width="0.1514"
     height="3.3287001"
     ry="0.050000001"
     id="rect398"
     style="fill:currentColor" />
  <rect
     x="114.90337"
     y="13.835373"
     width="0.1514"
     height="2.8252001"
     ry="0.050000001"
     id="rect400"
     style="fill:currentColor" />
  <a
     xlink:href="textedit://C:/Users/tikeda/Documents/git/LotusRoot/sco.txt:10:39:40"
     id="a402"
     transform="translate(-6.0785363,-4.5566272)">
    <path
       transform="matrix(0.004,0,0,-0.004,119.8324,21.3886)"
       d="m 212,138 c 59,0 113,-31 113,-95 0,-71 -52,-120 -99,-148 -34,-21 -73,-33 -113,-33 -59,0 -113,31 -113,95 0,71 53,120 100,148 34,21 72,33 112,33 z"
       id="path404"
       inkscape:connector-curvature="0"
       style="fill:currentColor" />
  </a>
  <path
     d="m 109.51296,15.183973 -0.008,0.248 v 0.044 c 0,0.088 0.008,0.172 0.02,0.256 0.172,-0.152 0.356,-0.32 0.356,-0.548 0,-0.128 -0.056,-0.26 -0.168,-0.26 -0.124,0 -0.196,0.128 -0.2,0.26 z m -0.188,0.708 -0.056,-2.36 c 0.036,-0.02 0.08,-0.032 0.12,-0.032 0.04,0 0.084,0.012 0.12,0.032 l -0.032,1.36 c 0.1,-0.096 0.236,-0.152 0.376,-0.152 0.2,0 0.336,0.2 0.336,0.416 0,0.312 -0.332,0.468 -0.564,0.676 -0.068,0.06 -0.1,0.176 -0.196,0.176 -0.06,0 -0.104,-0.052 -0.104,-0.116 z"
     id="path406"
     inkscape:connector-curvature="0"
     style="fill:currentColor" />
  <rect
     x="110.53896"
     y="15.503273"
     width="0.1514"
     height="3.6205001"
     ry="0.050000001"
     id="rect408"
     style="fill:currentColor" />
  <a
     xlink:href="textedit://C:/Users/tikeda/Documents/git/LotusRoot/sco.txt:10:31:32"
     id="a410"
     transform="translate(-6.0785363,-4.5566272)">
    <path
       transform="matrix(0.004,0,0,-0.004,116.6175,19.8886)"
       d="m 212,138 c 59,0 113,-31 113,-95 0,-71 -52,-120 -99,-148 -34,-21 -73,-33 -113,-33 -59,0 -113,31 -113,95 0,71 53,120 100,148 34,21 72,33 112,33 z"
       id="path412"
       inkscape:connector-curvature="0"
       style="fill:currentColor" />
  </a>
  <rect
     x="107.32407"
     y="16.003273"
     width="0.1514"
     height="3.1205001"
     ry="0.050000001"
     id="rect414"
     style="fill:currentColor" />
  <a
     xlink:href="textedit://C:/Users/tikeda/Documents/git/LotusRoot/sco.txt:10:25:26"
     id="a416"
     transform="translate(-6.0785363,-4.5566272)">
    <path
       transform="matrix(0.004,0,0,-0.004,113.4026,20.3886)"
       d="m 212,138 c 59,0 113,-31 113,-95 0,-71 -52,-120 -99,-148 -34,-21 -73,-33 -113,-33 -59,0 -113,31 -113,95 0,71 53,120 100,148 34,21 72,33 112,33 z"
       id="path418"
       inkscape:connector-curvature="0"
       style="fill:currentColor" />
  </a>
  <path
     d="m 116.42626,15.831973 c 0.032,-0.02 0.072,-0.028 0.108,-0.028 0.036,0 0.072,0.008 0.104,0.028 l -0.012,0.768 0.408,-0.092 h 0.016 c 0.04,0 0.076,0.032 0.076,0.072 l 0.032,2.252 c -0.032,0.02 -0.072,0.028 -0.108,0.028 -0.036,0 -0.072,-0.008 -0.104,-0.028 l 0.008,-0.768 -0.404,0.092 h -0.016 c -0.04,0 -0.076,-0.032 -0.076,-0.072 z m 0.544,1.06 -0.348,0.076 -0.012,0.804 0.352,-0.076 z"
     id="path420"
     inkscape:connector-curvature="0"
     style="fill:currentColor" />
  <a
     xlink:href="textedit://C:/Users/tikeda/Documents/git/LotusRoot/sco.txt:11:0:1"
     id="a422"
     transform="translate(-6.0785363,-4.5566272)">
    <path
       transform="matrix(0.004,0,0,-0.004,129.9612,22.3886)"
       d="m 212,138 c 59,0 113,-31 113,-95 0,-71 -52,-120 -99,-148 -34,-21 -73,-33 -113,-33 -59,0 -113,31 -113,95 0,71 53,120 100,148 34,21 72,33 112,33 z"
       id="path424"
       inkscape:connector-curvature="0"
       style="fill:currentColor" />
  </a>
  <rect
     x="121.17567"
     y="14.120273"
     width="0.1514"
     height="3.5402999"
     ry="0.050000001"
     id="rect426"
     style="fill:currentColor" />
  <a
     xlink:href="textedit://C:/Users/tikeda/Documents/git/LotusRoot/sco.txt:10:50:51"
     id="a428"
     transform="translate(-6.0785363,-4.5566272)">
    <path
       transform="matrix(0.004,0,0,-0.004,126.1047,22.3886)"
       d="m 212,138 c 59,0 113,-31 113,-95 0,-71 -52,-120 -99,-148 -34,-21 -73,-33 -113,-33 -59,0 -113,31 -113,95 0,71 53,120 100,148 34,21 72,33 112,33 z"
       id="path430"
       inkscape:connector-curvature="0"
       style="fill:currentColor" />
  </a>
  <rect
     x="118.65126"
     y="14.005672"
     width="0.1514"
     height="3.155"
     ry="0.050000001"
     id="rect432"
     style="fill:currentColor" />
  <a
     xlink:href="textedit://C:/Users/tikeda/Documents/git/LotusRoot/sco.txt:10:45:46"
     id="a434"
     transform="translate(-6.0785363,-4.5566272)">
    <path
       transform="matrix(0.004,0,0,-0.004,123.5804,21.8886)"
       d="m 212,138 c 59,0 113,-31 113,-95 0,-71 -52,-120 -99,-148 -34,-21 -73,-33 -113,-33 -59,0 -113,31 -113,95 0,71 53,120 100,148 34,21 72,33 112,33 z"
       id="path436"
       inkscape:connector-curvature="0"
       style="fill:currentColor" />
  </a>
  <path
     d="m 112.72786,16.683973 -0.008,0.248 v 0.044 c 0,0.088 0.008,0.172 0.02,0.256 0.172,-0.152 0.356,-0.32 0.356,-0.548 0,-0.128 -0.056,-0.26 -0.168,-0.26 -0.124,0 -0.196,0.128 -0.2,0.26 z m -0.188,0.708 -0.056,-2.36 c 0.036,-0.02 0.08,-0.032 0.12,-0.032 0.04,0 0.084,0.012 0.12,0.032 l -0.032,1.36 c 0.1,-0.096 0.236,-0.152 0.376,-0.152 0.2,0 0.336,0.2 0.336,0.416 0,0.312 -0.332,0.468 -0.564,0.676 -0.068,0.06 -0.1,0.176 -0.196,0.176 -0.06,0 -0.104,-0.052 -0.104,-0.116 z"
     id="path438"
     inkscape:connector-curvature="0"
     style="fill:currentColor" />
  <rect
     x="27.748264"
     y="17.003273"
     width="0.1514"
     height="3.1619999"
     ry="0.050000001"
     id="rect440"
     style="fill:currentColor" />
  <a
     xlink:href="textedit://C:/Users/tikeda/Documents/git/LotusRoot/sco.txt:7:33:34"
     id="a442"
     transform="translate(-6.0785363,-4.5566272)">
    <path
       transform="matrix(0.004,0,0,-0.004,33.8269,21.3886)"
       d="m 212,138 c 59,0 113,-31 113,-95 0,-71 -52,-120 -99,-148 -34,-21 -73,-33 -113,-33 -59,0 -113,31 -113,95 0,71 53,120 100,148 34,21 72,33 112,33 z"
       id="path444"
       inkscape:connector-curvature="0"
       style="fill:currentColor" />
  </a>
  <path
     d="m 23.507464,18.683973 -0.008,0.248 v 0.044 c 0,0.088 0.008,0.172 0.02,0.256 0.172,-0.152 0.356,-0.32 0.356,-0.548 0,-0.128 -0.056,-0.26 -0.168,-0.26 -0.124,0 -0.196,0.128 -0.2,0.26 z m -0.188,0.708 -0.056,-2.36 c 0.036,-0.02 0.08,-0.032 0.12,-0.032 0.04,0 0.084,0.012 0.12,0.032 l -0.032,1.36 c 0.1,-0.096 0.236,-0.152 0.376,-0.152 0.2,0 0.336,0.2 0.336,0.416 0,0.312 -0.332,0.468 -0.564,0.676 -0.068,0.06 -0.1,0.176 -0.196,0.176 -0.06,0 -0.104,-0.052 -0.104,-0.116 z"
     id="path446"
     inkscape:connector-curvature="0"
     style="fill:currentColor" />
  <path
     d="m 26.722364,16.683973 -0.008,0.248 v 0.044 c 0,0.088 0.008,0.172 0.02,0.256 0.172,-0.152 0.356,-0.32 0.356,-0.548 0,-0.128 -0.056,-0.26 -0.168,-0.26 -0.124,0 -0.196,0.128 -0.2,0.26 z m -0.188,0.708 -0.056,-2.36 c 0.036,-0.02 0.08,-0.032 0.12,-0.032 0.04,0 0.084,0.012 0.12,0.032 l -0.032,1.36 c 0.1,-0.096 0.236,-0.152 0.376,-0.152 0.2,0 0.336,0.2 0.336,0.416 0,0.312 -0.332,0.468 -0.564,0.676 -0.068,0.06 -0.1,0.176 -0.196,0.176 -0.06,0 -0.104,-0.052 -0.104,-0.116 z"
     id="path448"
     inkscape:connector-curvature="0"
     style="fill:currentColor" />
  <rect
     x="25.682863"
     y="14.828873"
     width="0.1514"
     height="3.8318"
     ry="0.050000001"
     id="rect450"
     style="fill:currentColor" />
  <a
     xlink:href="textedit://C:/Users/tikeda/Documents/git/LotusRoot/sco.txt:7:26:27"
     id="a452"
     transform="translate(-6.0785363,-4.5566272)">
    <path
       transform="matrix(0.004,0,0,-0.004,30.612,23.3886)"
       d="m 212,138 c 59,0 113,-31 113,-95 0,-71 -52,-120 -99,-148 -34,-21 -73,-33 -113,-33 -59,0 -113,31 -113,95 0,71 53,120 100,148 34,21 72,33 112,33 z"
       id="path454"
       inkscape:connector-curvature="0"
       style="fill:currentColor" />
  </a>
  <rect
     x="22.467964"
     y="14.696973"
     width="0.1514"
     height="3.4635999"
     ry="0.050000001"
     id="rect456"
     style="fill:currentColor" />
  <a
     xlink:href="textedit://C:/Users/tikeda/Documents/git/LotusRoot/sco.txt:7:21:22"
     id="a458"
     transform="translate(-6.0785363,-4.5566272)">
    <path
       transform="matrix(0.004,0,0,-0.004,27.3971,22.8886)"
       d="m 212,138 c 59,0 113,-31 113,-95 0,-71 -52,-120 -99,-148 -34,-21 -73,-33 -113,-33 -59,0 -113,31 -113,95 0,71 53,120 100,148 34,21 72,33 112,33 z"
       id="path460"
       inkscape:connector-curvature="0"
       style="fill:currentColor" />
  </a>
  <rect
     x="33.823662"
     y="17.003273"
     width="0.1514"
     height="2.8232999"
     ry="0.050000001"
     id="rect462"
     style="fill:currentColor" />
  <a
     xlink:href="textedit://C:/Users/tikeda/Documents/git/LotusRoot/sco.txt:8:0:1"
     id="a464"
     transform="translate(-6.0785363,-4.5566272)">
    <path
       transform="matrix(0.004,0,0,-0.004,39.9023,21.3886)"
       d="m 212,138 c 59,0 113,-31 113,-95 0,-71 -52,-120 -99,-148 -34,-21 -73,-33 -113,-33 -59,0 -113,31 -113,95 0,71 53,120 100,148 34,21 72,33 112,33 z"
       id="path466"
       inkscape:connector-curvature="0"
       style="fill:currentColor" />
  </a>
  <text
     font-size="1.7463"
     id="text468"
     style="font-size:1.74629998px;text-anchor:start;fill:currentColor;font-family:serif"
     x="-0.075036325"
     y="13.739273">
    <tspan
       id="tspan470">6</tspan>
  </text>
  <rect
     x="7.9840636"
     y="14.831973"
     width="0.1514"
     height="3.3287001"
     ry="0.050000001"
     id="rect472"
     style="fill:currentColor" />
  <path
     d="m 3.3506637,16.775973 c 0.012,0 0.028,-0.004 0.04,-0.004 0.628,0 1.032,0.516 1.032,1.052 0,0.308 -0.132,0.62 -0.432,0.844 -0.088,0.064 -0.184,0.116 -0.288,0.148 0.012,0.132 0.016,0.264 0.016,0.396 0,0.084 0,0.164 -0.004,0.248 -0.028,0.484 -0.364,0.916 -0.844,0.916 -0.432,0 -0.784,-0.352 -0.784,-0.788 0,-0.232 0.216,-0.412 0.452,-0.412 0.216,0 0.38,0.188 0.38,0.412 0,0.208 -0.172,0.38 -0.38,0.38 -0.036,0 -0.072,-0.004 -0.108,-0.016 0.1,0.148 0.264,0.244 0.452,0.244 0.38,0 0.624,-0.372 0.648,-0.764 0.004,-0.076 0.008,-0.152 0.008,-0.228 0,-0.116 -0.004,-0.232 -0.012,-0.348 -0.116,0.02 -0.232,0.032 -0.352,0.032 -0.756,0 -1.332,-0.692 -1.332,-1.504 0,-0.708 0.516,-1.232 0.976,-1.772 -0.08,-0.248 -0.16,-0.496 -0.192,-0.756 -0.028,-0.208 -0.028,-0.42 -0.028,-0.632 0,-0.456 0.216,-0.884 0.588,-1.152 0.016,-0.012 0.032,-0.016 0.048,-0.016 0.02,0 0.036,0.008 0.052,0.02 0.288,0.332 0.54,0.972 0.54,1.424 0,0.568 -0.336,1.02 -0.704,1.456 0.084,0.272 0.16,0.544 0.228,0.82 z m 0.336,1.86 c 0.26,-0.096 0.44,-0.376 0.44,-0.644 0,-0.352 -0.256,-0.7 -0.668,-0.752 0.096,0.456 0.176,0.908 0.228,1.396 z m -1.544,-0.904 c 0,0.532 0.512,0.972 1.044,0.972 0.108,0 0.22,-0.004 0.324,-0.02 -0.052,-0.504 -0.14,-0.976 -0.24,-1.448 -0.316,0.032 -0.496,0.24 -0.496,0.472 0,0.172 0.1,0.352 0.32,0.48 0.02,0.02 0.028,0.044 0.028,0.068 0,0.048 -0.04,0.092 -0.092,0.092 -0.012,0 -0.028,-0.004 -0.04,-0.008 -0.324,-0.172 -0.472,-0.46 -0.472,-0.744 0,-0.356 0.24,-0.708 0.652,-0.8 -0.056,-0.228 -0.12,-0.452 -0.188,-0.676 -0.42,0.488 -0.84,0.972 -0.84,1.612 z m 1.304,-4.052 c -0.396,0.184 -0.644,0.58 -0.644,1.016 0,0.284 0.084,0.52 0.156,0.752 0.312,-0.388 0.568,-0.796 0.568,-1.296 0,-0.204 -0.016,-0.288 -0.08,-0.472 z"
     id="path474"
     inkscape:connector-curvature="0"
     style="fill:currentColor" />
  <path
     d="m 8.5769637,18.331973 c 0,-0.12 0.1,-0.22 0.22,-0.22 0.12,0 0.22,0.1 0.22,0.22 0,0.12 -0.1,0.22 -0.22,0.22 -0.12,0 -0.22,-0.1 -0.22,-0.22 z"
     id="path476"
     inkscape:connector-curvature="0"
     style="fill:currentColor" />
  <a
     xlink:href="textedit://C:/Users/tikeda/Documents/git/LotusRoot/sco.txt:7:12:13"
     id="a478"
     transform="translate(-6.0785363,-4.5566272)">
    <path
       transform="matrix(0.004,0,0,-0.004,21.1248,22.3886)"
       d="m 212,138 c 59,0 113,-31 113,-95 0,-71 -52,-120 -99,-148 -34,-21 -73,-33 -113,-33 -59,0 -113,31 -113,95 0,71 53,120 100,148 34,21 72,33 112,33 z"
       id="path480"
       inkscape:connector-curvature="0"
       style="fill:currentColor" />
  </a>
  <rect
     x="18.720064"
     y="14.543273"
     width="0.1514"
     height="3.1173"
     ry="0.050000001"
     id="rect482"
     style="fill:currentColor" />
  <a
     xlink:href="textedit://C:/Users/tikeda/Documents/git/LotusRoot/sco.txt:7:17:18"
     id="a484"
     transform="translate(-6.0785363,-4.5566272)">
    <path
       transform="matrix(0.004,0,0,-0.004,23.6491,22.3886)"
       d="m 212,138 c 59,0 113,-31 113,-95 0,-71 -52,-120 -99,-148 -34,-21 -73,-33 -113,-33 -59,0 -113,31 -113,95 0,71 53,120 100,148 34,21 72,33 112,33 z"
       id="path486"
       inkscape:connector-curvature="0"
       style="fill:currentColor" />
  </a>
  <rect
     x="16.195663"
     y="14.823672"
     width="0.1514"
     height="2.8369"
     ry="0.050000001"
     id="rect488"
     style="fill:currentColor" />
  <path
     d="m 11.495864,17.183973 -0.008,0.248 v 0.044 c 0,0.088 0.008,0.172 0.02,0.256 0.172,-0.152 0.356,-0.32 0.356,-0.548 0,-0.128 -0.056,-0.26 -0.168,-0.26 -0.124,0 -0.196,0.128 -0.2,0.26 z m -0.188,0.708 -0.056,-2.36 c 0.036,-0.02 0.08,-0.032 0.12,-0.032 0.04,0 0.084,0.012 0.12,0.032 l -0.032,1.36 c 0.1,-0.096 0.236,-0.152 0.376,-0.152 0.2,0 0.336,0.2 0.336,0.416 0,0.312 -0.332,0.468 -0.564,0.676 -0.068,0.06 -0.1,0.176 -0.196,0.176 -0.06,0 -0.104,-0.052 -0.104,-0.116 z"
     id="path490"
     inkscape:connector-curvature="0"
     style="fill:currentColor" />
  <rect
     x="13.671264"
     y="14.548472"
     width="0.1514"
     height="2.6122"
     ry="0.050000001"
     id="rect492"
     style="fill:currentColor" />
  <a
     xlink:href="textedit://C:/Users/tikeda/Documents/git/LotusRoot/sco.txt:7:5:6"
     id="a494"
     transform="translate(-6.0785363,-4.5566272)">
    <path
       transform="matrix(0.004,0,0,-0.004,18.6004,21.8886)"
       d="m 212,138 c 59,0 113,-31 113,-95 0,-71 -52,-120 -99,-148 -34,-21 -73,-33 -113,-33 -59,0 -113,31 -113,95 0,71 53,120 100,148 34,21 72,33 112,33 z"
       id="path496"
       inkscape:connector-curvature="0"
       style="fill:currentColor" />
  </a>
  <a
     xlink:href="textedit://C:/Users/tikeda/Documents/git/LotusRoot/sco.txt:7:0:1"
     id="a498"
     transform="translate(-6.0785363,-4.5566272)">
    <path
       transform="matrix(0.004,0,0,-0.004,12.9132,22.8886)"
       d="m 212,138 c 59,0 113,-31 113,-95 0,-71 -52,-120 -99,-148 -34,-21 -73,-33 -113,-33 -59,0 -113,31 -113,95 0,71 53,120 100,148 34,21 72,33 112,33 z"
       id="path500"
       inkscape:connector-curvature="0"
       style="fill:currentColor" />
  </a>
  <a
     xlink:href="textedit://C:/Users/tikeda/Documents/git/LotusRoot/sco.txt:9:0:1"
     id="a502"
     transform="translate(-6.0785363,-4.5566272)">
    <path
       transform="matrix(0.004,0,0,-0.004,68.2935,19.8886)"
       d="m 212,138 c 59,0 113,-31 113,-95 0,-71 -52,-120 -99,-148 -34,-21 -73,-33 -113,-33 -59,0 -113,31 -113,95 0,71 53,120 100,148 34,21 72,33 112,33 z"
       id="path504"
       inkscape:connector-curvature="0"
       style="fill:currentColor" />
  </a>
  <path
     d="m 56.497864,19.281973 h -0.076 v -1 h 0.076 c 0.38,-0.236 0.88,-0.596 0.88,-1.036 0,-0.224 -0.064,-0.444 -0.164,-0.644 -0.012,-0.072 0.048,-0.12 0.104,-0.12 0.032,0 0.068,0.016 0.088,0.052 0.1,0.224 0.16,0.464 0.16,0.712 0,0.812 -1.068,1.224 -1.068,2.036 z"
     id="path506"
     inkscape:connector-curvature="0"
     style="fill:currentColor" />
  <rect
     x="56.346462"
     y="16.003273"
     width="0.1514"
     height="3.3287001"
     ry="0.050000001"
     id="rect508"
     style="fill:currentColor" />
  <a
     xlink:href="textedit://C:/Users/tikeda/Documents/git/LotusRoot/sco.txt:8:38:39"
     id="a510"
     transform="translate(-6.0785363,-4.5566272)">
    <path
       transform="matrix(0.004,0,0,-0.004,62.4251,20.3886)"
       d="m 212,138 c 59,0 113,-31 113,-95 0,-71 -52,-120 -99,-148 -34,-21 -73,-33 -113,-33 -59,0 -113,31 -113,95 0,71 53,120 100,148 34,21 72,33 112,33 z"
       id="path512"
       inkscape:connector-curvature="0"
       style="fill:currentColor" />
  </a>
  <rect
     x="62.214962"
     y="15.503273"
     width="0.1514"
     height="3.0425"
     ry="0.050000001"
     id="rect514"
     style="fill:currentColor" />
  <rect
     x="48.177963"
     y="17.003273"
     width="0.1514"
     height="3.1619999"
     ry="0.050000001"
     id="rect516"
     style="fill:currentColor" />
  <a
     xlink:href="textedit://C:/Users/tikeda/Documents/git/LotusRoot/sco.txt:8:29:30"
     id="a518"
     transform="translate(-6.0785363,-4.5566272)">
    <path
       transform="matrix(0.004,0,0,-0.004,54.2565,21.3886)"
       d="m 212,138 c 59,0 113,-31 113,-95 0,-71 -52,-120 -99,-148 -34,-21 -73,-33 -113,-33 -59,0 -113,31 -113,95 0,71 53,120 100,148 34,21 72,33 112,33 z"
       id="path520"
       inkscape:connector-curvature="0"
       style="fill:currentColor" />
  </a>
  <rect
     x="65.96286"
     y="16.003273"
     width="0.1514"
     height="2.823"
     ry="0.050000001"
     id="rect522"
     style="fill:currentColor" />
  <a
     xlink:href="textedit://C:/Users/tikeda/Documents/git/LotusRoot/sco.txt:9:7:8"
     id="a524"
     transform="translate(-6.0785363,-4.5566272)">
    <path
       transform="matrix(0.004,0,0,-0.004,72.0415,20.3886)"
       d="m 212,138 c 59,0 113,-31 113,-95 0,-71 -52,-120 -99,-148 -34,-21 -73,-33 -113,-33 -59,0 -113,31 -113,95 0,71 53,120 100,148 34,21 72,33 112,33 z"
       id="path526"
       inkscape:connector-curvature="0"
       style="fill:currentColor" />
  </a>
  <a
     xlink:href="textedit://C:/Users/tikeda/Documents/git/LotusRoot/sco.txt:8:35:36"
     id="a528"
     transform="translate(-6.0785363,-4.5566272)">
    <path
       transform="matrix(0.004,0,0,-0.004,58.978,21.3886)"
       d="M 67,-250 185,76 C 152,64 119,54 84,54 38,54 -3,88 -3,133 c 0,40 33,72 73,72 25,0 49,-14 57,-37 10,-27 4,-59 33,-59 14,0 50,42 56,55 7,14 28,14 34,0 L 131,-250 c -9,-8 -21,-12 -32,-12 -11,0 -23,4 -32,12 z"
       id="path530"
       inkscape:connector-curvature="0"
       style="fill:currentColor" />
  </a>
  <path
     d="m 61.188964,15.183973 -0.008,0.248 v 0.044 c 0,0.088 0.008,0.172 0.02,0.256 0.172,-0.152 0.356,-0.32 0.356,-0.548 0,-0.128 -0.056,-0.26 -0.168,-0.26 -0.124,0 -0.196,0.128 -0.2,0.26 z m -0.188,0.708 -0.056,-2.36 c 0.036,-0.02 0.08,-0.032 0.12,-0.032 0.04,0 0.084,0.012 0.12,0.032 l -0.032,1.36 c 0.1,-0.096 0.236,-0.152 0.376,-0.152 0.2,0 0.336,0.2 0.336,0.416 0,0.312 -0.332,0.468 -0.564,0.676 -0.068,0.06 -0.1,0.176 -0.196,0.176 -0.06,0 -0.104,-0.052 -0.104,-0.116 z"
     id="path532"
     inkscape:connector-curvature="0"
     style="fill:currentColor" />
  <a
     xlink:href="textedit://C:/Users/tikeda/Documents/git/LotusRoot/sco.txt:8:15:16"
     id="a534"
     transform="translate(-6.0785363,-4.5566272)">
    <path
       transform="matrix(0.004,0,0,-0.004,47.9189,17.7938)"
       d="m -292,228 c 0,-20 16,-28 37,-28 39,0 69,13 100,27 l 4,20 c -22,17 -49,29 -79,29 -30,0 -62,-15 -62,-48 z M -26,105 c 0,-62 -46,-115 -98,-115 -39,0 -56,43 -56,90 0,14 1,28 4,41 l 15,74 c -31,-13 -61,-24 -100,-24 -36,0 -61,17 -61,51 0,52 49,83 98,83 30,0 57,-9 80,-24 l 46,229 c 6,-3 13,-5 20,-5 22,0 48,16 68,35 L -63,276 0,311 c 26,14 52,21 74,21 28,0 51,-10 63,-27 18,18 44,27 68,27 37,0 71,-22 71,-72 0,-46 -27,-91 -66,-91 -26,0 -39,21 -39,48 0,42 30,65 61,65 h 2 c -8,14 -22,21 -37,21 -23,0 -48,-16 -53,-41 L 90,-9 C 79,-2 65,2 51,2 37,2 22,-2 8,-9 l 54,271 c 0,2 1,4 1,6 0,15 -12,25 -28,25 -7,0 -16,-2 -24,-6 l -81,-45 -5,-27 c 26,-32 49,-67 49,-110 z M -88,39 c 22,0 32,34 32,61 0,28 -11,52 -27,74 l -5,-23 c -4,-19 -14,-59 -14,-86 0,-16 3,-26 14,-26 z"
       id="path536"
       inkscape:connector-curvature="0"
       style="fill:currentColor" />
  </a>
  <path
     d="m 40.114364,15.831973 c 0.032,-0.02 0.072,-0.028 0.108,-0.028 0.036,0 0.072,0.008 0.104,0.028 l -0.012,0.768 0.408,-0.092 h 0.016 c 0.04,0 0.076,0.032 0.076,0.072 l 0.032,2.252 c -0.032,0.02 -0.072,0.028 -0.108,0.028 -0.036,0 -0.072,-0.008 -0.104,-0.028 l 0.008,-0.768 -0.404,0.092 h -0.016 c -0.04,0 -0.076,-0.032 -0.076,-0.072 z m 0.544,1.06 -0.348,0.076 -0.012,0.804 0.352,-0.076 z"
     id="path538"
     inkscape:connector-curvature="0"
     style="fill:currentColor" />
  <path
     d="m 42.932264,17.331973 c 0,-0.12 0.1,-0.22 0.22,-0.22 0.12,0 0.22,0.1 0.22,0.22 0,0.12 -0.1,0.22 -0.22,0.22 -0.12,0 -0.22,-0.1 -0.22,-0.22 z"
     id="path540"
     inkscape:connector-curvature="0"
     style="fill:currentColor" />
  <a
     xlink:href="textedit://C:/Users/tikeda/Documents/git/LotusRoot/sco.txt:8:11:12"
     id="a542"
     transform="translate(-6.0785363,-4.5566272)">
    <path
       transform="matrix(0.004,0,0,-0.004,47.2685,21.8886)"
       d="m 212,138 c 59,0 113,-31 113,-95 0,-71 -52,-120 -99,-148 -34,-21 -73,-33 -113,-33 -59,0 -113,31 -113,95 0,71 53,120 100,148 34,21 72,33 112,33 z"
       id="path544"
       inkscape:connector-curvature="0"
       style="fill:currentColor" />
  </a>
  <rect
     x="42.339363"
     y="13.827172"
     width="0.1514"
     height="3.3334999"
     ry="0.050000001"
     id="rect546"
     style="fill:currentColor" />
  <a
     xlink:href="textedit://C:/Users/tikeda/Documents/git/LotusRoot/sco.txt:8:22:23"
     id="a548"
     transform="translate(-6.0785363,-4.5566272)">
    <path
       transform="matrix(0.004,0,0,-0.004,51.7321,21.3886)"
       d="m 212,138 c 59,0 113,-31 113,-95 0,-71 -52,-120 -99,-148 -34,-21 -73,-33 -113,-33 -59,0 -113,31 -113,95 0,71 53,120 100,148 34,21 72,33 112,33 z"
       id="path550"
       inkscape:connector-curvature="0"
       style="fill:currentColor" />
  </a>
  <rect
     x="46.803062"
     y="13.544972"
     width="0.1514"
     height="3.1157"
     ry="0.050000001"
     id="rect552"
     style="fill:currentColor" />
  <rect
     x="37.821663"
     y="14.503273"
     width="0.1514"
     height="5.0422001"
     ry="0.050000001"
     id="rect554"
     style="fill:currentColor" />
  <path
     d="m 44.627564,16.683973 -0.008,0.248 v 0.044 c 0,0.088 0.008,0.172 0.02,0.256 0.172,-0.152 0.356,-0.32 0.356,-0.548 0,-0.128 -0.056,-0.26 -0.168,-0.26 -0.124,0 -0.196,0.128 -0.2,0.26 z m -0.188,0.708 -0.056,-2.36 c 0.036,-0.02 0.08,-0.032 0.12,-0.032 0.04,0 0.084,0.012 0.12,0.032 l -0.032,1.36 c 0.1,-0.096 0.236,-0.152 0.376,-0.152 0.2,0 0.336,0.2 0.336,0.416 0,0.312 -0.332,0.468 -0.564,0.676 -0.068,0.06 -0.1,0.176 -0.196,0.176 -0.06,0 -0.104,-0.052 -0.104,-0.116 z"
     id="path556"
     inkscape:connector-curvature="0"
     style="fill:currentColor" />
  <a
     xlink:href="textedit://C:/Users/tikeda/Documents/git/LotusRoot/sco.txt:8:6:7"
     id="a558"
     transform="translate(-6.0785363,-4.5566272)">
    <path
       transform="matrix(0.004,0,0,-0.004,43.9002,18.8886)"
       d="m 212,138 c 59,0 113,-31 113,-95 0,-71 -52,-120 -99,-148 -34,-21 -73,-33 -113,-33 -59,0 -113,31 -113,95 0,71 53,120 100,148 34,21 72,33 112,33 z"
       id="path560"
       inkscape:connector-curvature="0"
       style="fill:currentColor" />
  </a>
  <text
     font-size="2.1999"
     id="text562"
     style="font-size:2.19989991px;text-anchor:start;fill:currentColor;font-family:serif"
     x="68.609962"
     y="202.43718">
    <tspan
       id="tspan564" />
  </text>
</svg>
