<?xml version="1.0" encoding="UTF-8" standalone="no"?>
<svg
   xmlns:dc="http://purl.org/dc/elements/1.1/"
   xmlns:cc="http://creativecommons.org/ns#"
   xmlns:rdf="http://www.w3.org/1999/02/22-rdf-syntax-ns#"
   xmlns:svg="http://www.w3.org/2000/svg"
   xmlns="http://www.w3.org/2000/svg"
   xmlns:xlink="http://www.w3.org/1999/xlink"
   xmlns:sodipodi="http://sodipodi.sourceforge.net/DTD/sodipodi-0.dtd"
   xmlns:inkscape="http://www.inkscape.org/namespaces/inkscape"
   version="1.2"
   width="142.62712"
   height="36.503105"
   viewBox="0 0 28.632401 7.3279981"
   id="svg2"
   inkscape:version="0.48.2 r9819"
   sodipodi:docname="test.svg">
  <metadata
     id="metadata90">
    <rdf:RDF>
      <cc:Work
         rdf:about="">
        <dc:format>image/svg+xml</dc:format>
        <dc:type
           rdf:resource="http://purl.org/dc/dcmitype/StillImage" />
      </cc:Work>
    </rdf:RDF>
  </metadata>
  <defs
     id="defs88" />
  <sodipodi:namedview
     pagecolor="#ffffff"
     bordercolor="#666666"
     borderopacity="1"
     objecttolerance="10"
     gridtolerance="10"
     guidetolerance="10"
     inkscape:pageopacity="0"
     inkscape:pageshadow="2"
     inkscape:window-width="769"
     inkscape:window-height="480"
     id="namedview86"
     showgrid="false"
     fit-margin-top="0"
     fit-margin-left="0"
     fit-margin-right="0"
     fit-margin-bottom="0"
     inkscape:zoom="0.22425739"
     inkscape:cx="283.46445"
     inkscape:cy="-466.97997"
     inkscape:window-x="0"
     inkscape:window-y="0"
     inkscape:window-maximized="0"
     inkscape:current-layer="svg2" />
  <!-- Page: 1/1 -->
  <text
     font-size="2.1999"
     id="text4"
     style="font-size:2.19989991px;text-anchor:start;fill:currentColor;font-family:serif"
     x="-10.6698"
     y="-1.0000272">
    <tspan
       id="tspan6" />
  </text>
  <line
     x1="0.058200002"
     y1="5.7759728"
     x2="28.5742"
     y2="5.7759728"
     id="line8"
     style="stroke:currentColor;stroke-width:0.1164;stroke-linecap:round;stroke-linejoin:round" />
  <line
     x1="0.058200002"
     y1="4.7759728"
     x2="28.5742"
     y2="4.7759728"
     id="line10"
     style="stroke:currentColor;stroke-width:0.1164;stroke-linecap:round;stroke-linejoin:round" />
  <line
     x1="0.058200002"
     y1="3.7759728"
     x2="28.5742"
     y2="3.7759728"
     id="line12"
     style="stroke:currentColor;stroke-width:0.1164;stroke-linecap:round;stroke-linejoin:round" />
  <line
     x1="0.058200002"
     y1="2.7759728"
     x2="28.5742"
     y2="2.7759728"
     id="line14"
     style="stroke:currentColor;stroke-width:0.1164;stroke-linecap:round;stroke-linejoin:round" />
  <line
     x1="0.058200002"
     y1="1.7759728"
     x2="28.5742"
     y2="1.7759728"
     id="line16"
     style="stroke:currentColor;stroke-width:0.1164;stroke-linecap:round;stroke-linejoin:round" />
  <rect
     x="8.1625004"
     y="6.6677728"
     width="2.3415"
     height="0.2164"
     ry="0.1082"
     id="rect18"
     style="fill:currentColor" />
  <rect
     x="28.4112"
     y="1.7759728"
     width="0.2212"
     height="4"
     ry="0"
     id="rect20"
     style="fill:currentColor" />
  <rect
     x="17.334801"
     y="2.4924729"
     width="0.1514"
     height="2.6120999"
     ry="0.050000001"
     id="rect22"
     style="fill:currentColor" />
  <rect
     x="22.3365"
     y="1.4924729"
     width="0.1514"
     height="2.6120999"
     ry="0.050000001"
     id="rect24"
     style="fill:currentColor" />
  <a
     xlink:href="textedit://C:/Users/tikeda/Documents/git/LotusRoot/sco.txt:2:30:31"
     id="a26"
     transform="translate(-17.783,-4.5566272)">
    <path
       transform="matrix(0.004,0,0,-0.004,38.9701,8.8326)"
       d="m 212,138 c 59,0 113,-31 113,-95 0,-71 -52,-120 -99,-148 -34,-21 -73,-33 -113,-33 -59,0 -113,31 -113,95 0,71 53,120 100,148 34,21 72,33 112,33 z"
       id="path28"
       inkscape:connector-curvature="0"
       style="fill:currentColor" />
  </a>
  <rect
     x="19.835699"
     y="1.7676728"
     width="0.1514"
     height="2.8369999"
     ry="0.050000001"
     id="rect30"
     style="fill:currentColor" />
  <a
     xlink:href="textedit://C:/Users/tikeda/Documents/git/LotusRoot/sco.txt:2:26:27"
     id="a32"
     transform="translate(-17.783,-4.5566272)">
    <path
       transform="matrix(0.004,0,0,-0.004,36.4692,9.3326)"
       d="m 212,138 c 59,0 113,-31 113,-95 0,-71 -52,-120 -99,-148 -34,-21 -73,-33 -113,-33 -59,0 -113,31 -113,95 0,71 53,120 100,148 34,21 72,33 112,33 z"
       id="path34"
       inkscape:connector-curvature="0"
       style="fill:currentColor" />
  </a>
  <polygon
     transform="translate(9.8324,3.7759728)"
     points="0.05,-0.3 2.6022,-0.5918 2.6022,0.0082 0.05,0.3 "
     id="polygon36"
     style="fill:currentColor;stroke:currentColor;stroke-width:0.1;stroke-linecap:round;stroke-linejoin:round" />
  <a
     xlink:href="textedit://C:/Users/tikeda/Documents/git/LotusRoot/sco.txt:2:38:39"
     id="a38"
     transform="translate(-17.783,-4.5566272)">
    <path
       transform="matrix(0.004,0,0,-0.004,43.9942,8.3326)"
       d="M 67,-250 185,76 C 152,64 119,54 84,54 38,54 -3,88 -3,133 c 0,40 33,72 73,72 25,0 49,-14 57,-37 10,-27 4,-59 33,-59 14,0 50,42 56,55 7,14 28,14 34,0 L 131,-250 c -9,-8 -21,-12 -32,-12 -11,0 -23,4 -32,12 z"
       id="path40"
       inkscape:connector-curvature="0"
       style="fill:currentColor" />
  </a>
  <polygon
     transform="translate(14.834,2.7759728)"
     points="0.05,-0.3 2.6022,-0.5918 2.6022,0.0082 0.05,0.3 "
     id="polygon42"
     style="fill:currentColor;stroke:currentColor;stroke-width:0.1;stroke-linecap:round;stroke-linejoin:round" />
  <polygon
     transform="translate(19.8357,1.7759728)"
     points="0.05,-0.3 2.6022,-0.5918 2.6022,0.0082 0.05,0.3 "
     id="polygon44"
     style="fill:currentColor;stroke:currentColor;stroke-width:0.1;stroke-linecap:round;stroke-linejoin:round" />
  <path
     d="m 23.8617,7.1009728 h -0.076 v -1 h 0.076 c 0.38,-0.236 0.88,-0.596 0.88,-1.036 0,-0.224 -0.064,-0.444 -0.164,-0.644 -0.012,-0.072 0.048,-0.12 0.104,-0.12 0.032,0 0.068,0.016 0.088,0.052 0.1,0.224 0.16,0.464 0.16,0.712 0,0.812 -1.068,1.224 -1.068,2.036 z"
     id="path46"
     inkscape:connector-curvature="0"
     style="fill:currentColor" />
  <rect
     x="23.7103"
     y="3.9472728"
     width="0.1514"
     height="3.2037001"
     ry="0.050000001"
     id="rect48"
     style="fill:currentColor" />
  <a
     xlink:href="textedit://C:/Users/tikeda/Documents/git/LotusRoot/sco.txt:2:34:35"
     id="a50"
     transform="translate(-17.783,-4.5566272)">
    <path
       transform="matrix(0.004,0,0,-0.004,41.4934,8.3326)"
       d="m 212,138 c 59,0 113,-31 113,-95 0,-71 -52,-120 -99,-148 -34,-21 -73,-33 -113,-33 -59,0 -113,31 -113,95 0,71 53,120 100,148 34,21 72,33 112,33 z"
       id="path52"
       inkscape:connector-curvature="0"
       style="fill:currentColor" />
  </a>
  <a
     xlink:href="textedit://C:/Users/tikeda/Documents/git/LotusRoot/sco.txt:2:22:23"
     id="a54"
     transform="translate(-17.783,-4.5566272)">
    <path
       transform="matrix(0.004,0,0,-0.004,33.9684,9.8326)"
       d="m 212,138 c 59,0 113,-31 113,-95 0,-71 -52,-120 -99,-148 -34,-21 -73,-33 -113,-33 -59,0 -113,31 -113,95 0,71 53,120 100,148 34,21 72,33 112,33 z"
       id="path56"
       inkscape:connector-curvature="0"
       style="fill:currentColor" />
  </a>
  <a
     xlink:href="textedit://C:/Users/tikeda/Documents/git/LotusRoot/sco.txt:2:14:15"
     id="a58"
     transform="translate(-17.783,-4.5566272)">
    <path
       transform="matrix(0.004,0,0,-0.004,28.9667,10.8326)"
       d="m 212,138 c 59,0 113,-31 113,-95 0,-71 -52,-120 -99,-148 -34,-21 -73,-33 -113,-33 -59,0 -113,31 -113,95 0,71 53,120 100,148 34,21 72,33 112,33 z"
       id="path60"
       inkscape:connector-curvature="0"
       style="fill:currentColor" />
  </a>
  <rect
     x="9.8323002"
     y="3.7676728"
     width="0.1514"
     height="2.8369999"
     ry="0.050000001"
     id="rect62"
     style="fill:currentColor" />
  <a
     xlink:href="textedit://C:/Users/tikeda/Documents/git/LotusRoot/sco.txt:2:0:1"
     id="a64"
     transform="translate(-17.783,-4.5566272)">
    <path
       transform="matrix(0.004,0,0,-0.004,22.783,8.3326)"
       d="m 356,30 c -48,0 -72,40 -72,72 0,37 26,75 70,75 3,0 6,-1 9,-1 -26,36 -67,59 -113,59 -107,0 -113,-74 -113,-189 0,-15 1,-30 1,-46 0,-16 -1,-31 -1,-46 0,-115 6,-189 113,-189 78,0 133,70 151,149 2,8 8,11 14,11 7,0 15,-5 15,-14 0,-95 -103,-176 -180,-176 -68,0 -137,20 -184,70 C 17,-143 0,-71 0,0 c 0,71 17,143 66,195 47,50 116,70 184,70 86,0 156,-67 171,-153 1,-4 1,-9 1,-13 0,-38 -30,-69 -66,-69 z"
       id="path66"
       inkscape:connector-curvature="0"
       style="fill:currentColor" />
  </a>
  <path
     d="m 2.316,3.7199728 c 0.012,0 0.028,-0.004 0.04,-0.004 0.628,0 1.032,0.516 1.032,1.052 0,0.308 -0.132,0.62 -0.432,0.844 -0.088,0.064 -0.184,0.116 -0.288,0.148 0.012,0.132 0.016,0.264 0.016,0.396 0,0.084 0,0.164 -0.004,0.248 -0.028,0.484 -0.364,0.916 -0.844,0.916 -0.432,0 -0.784,-0.352 -0.784,-0.788 0,-0.232 0.216,-0.412 0.452,-0.412 0.216,0 0.38,0.188 0.38,0.412 0,0.208 -0.172,0.38 -0.38,0.38 -0.036,0 -0.072,-0.004 -0.108,-0.016 0.1,0.148 0.264,0.244 0.452,0.244 0.38,0 0.624,-0.372 0.648,-0.764 0.004,-0.076 0.008,-0.152 0.008,-0.228 0,-0.116 -0.004,-0.232 -0.012,-0.348 -0.116,0.02 -0.232,0.032 -0.352,0.032 -0.756,0 -1.332,-0.692 -1.332,-1.504 0,-0.708 0.516,-1.232 0.976,-1.772 -0.08,-0.248 -0.16,-0.496 -0.192,-0.756 -0.028,-0.208 -0.028,-0.42 -0.028,-0.632 0,-0.45599997 0.216,-0.88399997 0.588,-1.15199997 0.016,-0.012 0.032,-0.01600000111 0.048,-0.01600000111 0.02,0 0.036,0.0080000011 0.052,0.02000000111 0.288,0.332 0.54,0.972 0.54,1.42399997 0,0.568 -0.336,1.02 -0.704,1.456 0.084,0.272 0.16,0.544 0.228,0.82 z m 0.336,1.86 c 0.26,-0.096 0.44,-0.376 0.44,-0.644 0,-0.352 -0.256,-0.7 -0.668,-0.752 0.096,0.456 0.176,0.908 0.228,1.396 z m -1.544,-0.904 c 0,0.532 0.512,0.972 1.044,0.972 0.108,0 0.22,-0.004 0.324,-0.02 -0.052,-0.504 -0.14,-0.976 -0.24,-1.448 -0.316,0.032 -0.496,0.24 -0.496,0.472 0,0.172 0.1,0.352 0.32,0.48 0.02,0.02 0.028,0.044 0.028,0.068 0,0.048 -0.04,0.092 -0.092,0.092 -0.012,0 -0.028,-0.004 -0.04,-0.008 -0.324,-0.172 -0.472,-0.46 -0.472,-0.744 0,-0.356 0.24,-0.708 0.652,-0.8 -0.056,-0.228 -0.12,-0.452 -0.188,-0.676 -0.42,0.488 -0.84,0.972 -0.84,1.612 z M 2.412,0.62397283 c -0.396,0.184 -0.644,0.57999997 -0.644,1.01599997 0,0.284 0.084,0.52 0.156,0.752 0.312,-0.388 0.568,-0.796 0.568,-1.296 0,-0.20399997 -0.016,-0.28799997 -0.08,-0.47199997 z"
     id="path68"
     inkscape:connector-curvature="0"
     style="fill:currentColor" />
  <a
     xlink:href="textedit://C:/Users/tikeda/Documents/git/LotusRoot/sco.txt:2:10:11"
     id="a70"
     transform="translate(-17.783,-4.5566272)">
    <path
       transform="matrix(0.004,0,0,-0.004,26.4659,11.3326)"
       d="m 212,138 c 59,0 113,-31 113,-95 0,-71 -52,-120 -99,-148 -34,-21 -73,-33 -113,-33 -59,0 -113,31 -113,95 0,71 53,120 100,148 34,21 72,33 112,33 z"
       id="path72"
       inkscape:connector-curvature="0"
       style="fill:currentColor" />
  </a>
  <a
     xlink:href="textedit://C:/Users/tikeda/Documents/git/LotusRoot/sco.txt:2:18:19"
     id="a74"
     transform="translate(-17.783,-4.5566272)">
    <path
       transform="matrix(0.004,0,0,-0.004,31.4675,10.3326)"
       d="m 212,138 c 59,0 113,-31 113,-95 0,-71 -52,-120 -99,-148 -34,-21 -73,-33 -113,-33 -59,0 -113,31 -113,95 0,71 53,120 100,148 34,21 72,33 112,33 z"
       id="path76"
       inkscape:connector-curvature="0"
       style="fill:currentColor" />
  </a>
  <rect
     x="14.834"
     y="2.7676728"
     width="0.1514"
     height="2.8369999"
     ry="0.050000001"
     id="rect78"
     style="fill:currentColor" />
  <rect
     x="12.3332"
     y="3.4924729"
     width="0.1514"
     height="2.6120999"
     ry="0.050000001"
     id="rect80"
     style="fill:currentColor" />
  <text
     font-size="2.1999"
     id="text82"
     style="font-size:2.19989991px;text-anchor:start;fill:currentColor;font-family:serif"
     x="56.905499"
     y="202.43718">
    <tspan
       id="tspan84" />
  </text>
</svg>
