<?xml version="1.0" encoding="UTF-8" standalone="no"?>
<svg
   xmlns:dc="http://purl.org/dc/elements/1.1/"
   xmlns:cc="http://creativecommons.org/ns#"
   xmlns:rdf="http://www.w3.org/1999/02/22-rdf-syntax-ns#"
   xmlns:svg="http://www.w3.org/2000/svg"
   xmlns="http://www.w3.org/2000/svg"
   xmlns:xlink="http://www.w3.org/1999/xlink"
   xmlns:sodipodi="http://sodipodi.sourceforge.net/DTD/sodipodi-0.dtd"
   xmlns:inkscape="http://www.inkscape.org/namespaces/inkscape"
   version="1.2"
   width="70.135986mm"
   height="13.144595mm"
   viewBox="0 0 49.889063 9.3499984"
   id="svg5177"
   sodipodi:docname="02-1.svg"
   inkscape:version="0.92.1 r15371">
  <metadata
     id="metadata5183">
    <rdf:RDF>
      <cc:Work
         rdf:about="">
        <dc:format>image/svg+xml</dc:format>
        <dc:type
           rdf:resource="http://purl.org/dc/dcmitype/StillImage" />
        <dc:title></dc:title>
      </cc:Work>
    </rdf:RDF>
  </metadata>
  <defs
     id="defs5181" />
  <sodipodi:namedview
     pagecolor="#ffffff"
     bordercolor="#666666"
     borderopacity="1"
     objecttolerance="10"
     gridtolerance="10"
     guidetolerance="10"
     inkscape:pageopacity="0"
     inkscape:pageshadow="2"
     inkscape:window-width="716"
     inkscape:window-height="480"
     id="namedview5179"
     showgrid="false"
     fit-margin-top="0"
     fit-margin-left="0"
     fit-margin-right="0"
     fit-margin-bottom="0"
     inkscape:zoom="0.2102413"
     inkscape:cx="302.36647"
     inkscape:cy="-487.36947"
     inkscape:window-x="0"
     inkscape:window-y="0"
     inkscape:window-maximized="0"
     inkscape:current-layer="svg5177" />
  <!-- Page: 1/1 -->
  <text
     font-size="2.1999"
     id="text5049"
     style="font-size:2.19989991px;font-family:serif;text-anchor:start;fill:currentColor"
     x="-10.668971"
     y="-0.99980044">
    <tspan
       id="tspan5047" />
  </text>
  <line
     x1="0.059028916"
     y1="6.8499994"
     x2="49.830029"
     y2="6.8499994"
     id="line5051"
     style="stroke:currentColor;stroke-width:0.1164;stroke-linecap:round;stroke-linejoin:round" />
  <line
     x1="0.059028916"
     y1="5.8499994"
     x2="49.830029"
     y2="5.8499994"
     id="line5053"
     style="stroke:currentColor;stroke-width:0.1164;stroke-linecap:round;stroke-linejoin:round" />
  <line
     x1="0.059028916"
     y1="4.8499994"
     x2="49.830029"
     y2="4.8499994"
     id="line5055"
     style="stroke:currentColor;stroke-width:0.1164;stroke-linecap:round;stroke-linejoin:round" />
  <line
     x1="0.059028916"
     y1="3.8499997"
     x2="49.830029"
     y2="3.8499997"
     id="line5057"
     style="stroke:currentColor;stroke-width:0.1164;stroke-linecap:round;stroke-linejoin:round" />
  <line
     x1="0.059028916"
     y1="2.8499997"
     x2="49.830029"
     y2="2.8499997"
     id="line5059"
     style="stroke:currentColor;stroke-width:0.1164;stroke-linecap:round;stroke-linejoin:round" />
  <rect
     x="49.66703"
     y="2.8499997"
     width="0.2212"
     height="4"
     ry="0.0000"
     id="rect5061"
     style="fill:currentColor" />
  <rect
     x="31.442429"
     y="2.8499997"
     width="0.2212"
     height="4"
     ry="0.0000"
     id="rect5063"
     style="fill:currentColor" />
  <rect
     x="11.859529"
     y="7.7417994"
     width="1.9962"
     height="0.2164"
     ry="0.1082"
     id="rect5065"
     style="fill:currentColor" />
  <rect
     x="8.1633291"
     y="7.7417994"
     width="2.3415"
     height="0.2164"
     ry="0.1082"
     id="rect5067"
     style="fill:currentColor" />
  <path
     d="m 33.055629,7.1659996 c -0.048,0 -0.084,-0.036 -0.084,-0.084 v -0.552 l -0.316,0.12 v 0.616 c 0,0.048 -0.036,0.084 -0.084,0.084 -0.048,0 -0.084,-0.036 -0.084,-0.084 v -0.552 l -0.088,0.032 c -0.012,0.004 -0.024,0.008 -0.036,0.008 -0.052,0 -0.1,-0.044 -0.1,-0.1 v -0.216 c 0,-0.04 0.024,-0.08 0.064,-0.096 l 0.16,-0.06 v -0.62 l -0.088,0.036 c -0.012,0.004 -0.024,0.004 -0.036,0.004 -0.052,0 -0.1,-0.044 -0.1,-0.1 v -0.216 c 0,-0.04 0.024,-0.076 0.064,-0.092 l 0.16,-0.06 v -0.616 c 0,-0.048 0.036,-0.084 0.084,-0.084 0.048,0 0.084,0.036 0.084,0.084 v 0.552 l 0.316,-0.12 v -0.616 c 0,-0.048 0.036,-0.084 0.084,-0.084 0.048,0 0.084,0.036 0.084,0.084 v 0.552 l 0.088,-0.032 c 0.012,-0.004 0.024,-0.008 0.036,-0.008 0.052,0 0.1,0.044 0.1,0.1 v 0.216 c 0,0.04 -0.024,0.08 -0.064,0.096 l -0.16,0.06 v 0.62 l 0.088,-0.036 c 0.012,-0.004 0.024,-0.004 0.036,-0.004 0.052,0 0.1,0.044 0.1,0.1 v 0.216 c 0,0.04 -0.024,0.076 -0.064,0.092 l -0.16,0.06 v 0.616 c 0,0.048 -0.036,0.084 -0.084,0.084 z m -0.4,-1.564 v 0.616 l 0.316,-0.12 v -0.616 z"
     id="path5069"
     inkscape:connector-curvature="0"
     style="fill:currentColor;stroke-width:0.004" />
  <rect
     x="29.889029"
     y="1.3558995"
     width="0.1514"
     height="4.3227"
     ry="0.050000001"
     id="rect5071"
     style="fill:currentColor" />
  <polygon
     transform="translate(9.8332289,3.1417996)"
     points="0.05,0.3 0.05,-0.3 3.4522,-0.3 3.4522,0.3 "
     id="polygon5073"
     style="fill:currentColor;stroke:currentColor;stroke-width:0.1;stroke-linecap:round;stroke-linejoin:round" />
  <path
     d="m 25.580729,7.6659996 c -0.048,0 -0.084,-0.036 -0.084,-0.084 v -0.552 l -0.316,0.12 v 0.616 c 0,0.048 -0.036,0.084 -0.084,0.084 -0.048,0 -0.084,-0.036 -0.084,-0.084 v -0.552 l -0.088,0.032 c -0.012,0.004 -0.024,0.008 -0.036,0.008 -0.052,0 -0.1,-0.044 -0.1,-0.1 v -0.216 c 0,-0.04 0.024,-0.08 0.064,-0.096 l 0.16,-0.06 v -0.62 l -0.088,0.036 c -0.012,0.004 -0.024,0.004 -0.036,0.004 -0.052,0 -0.1,-0.044 -0.1,-0.1 v -0.216 c 0,-0.04 0.024,-0.076 0.064,-0.092 l 0.16,-0.06 v -0.616 c 0,-0.048 0.036,-0.084 0.084,-0.084 0.048,0 0.084,0.036 0.084,0.084 v 0.552 l 0.316,-0.12 v -0.616 c 0,-0.048 0.036,-0.084 0.084,-0.084 0.048,0 0.084,0.036 0.084,0.084 v 0.552 l 0.088,-0.032 c 0.012,-0.004 0.024,-0.008 0.036,-0.008 0.052,0 0.1,0.044 0.1,0.1 v 0.216 c 0,0.04 -0.024,0.08 -0.064,0.096 l -0.16,0.06 v 0.62 l 0.088,-0.036 c 0.012,-0.004 0.024,-0.004 0.036,-0.004 0.052,0 0.1,0.044 0.1,0.1 v 0.216 c 0,0.04 -0.024,0.076 -0.064,0.092 l -0.16,0.06 v 0.616 c 0,0.048 -0.036,0.084 -0.084,0.084 z m -0.4,-1.564 v 0.616 l 0.316,-0.12 v -0.616 z"
     id="path5075"
     inkscape:connector-curvature="0"
     style="fill:currentColor;stroke-width:0.004" />
  <a
     style="color:inherit"
     xlink:href="textedit://C:/Users/tikeda/Documents/git/LotusRoot/sco.txt:2:44:45"
     id="a5079"
     transform="translate(-17.782171,-4.5564004)">
    <path
       transform="matrix(0.004,0,0,-0.004,46.5217,10.4064)"
       d="m 212,138 c 59,0 113,-31 113,-95 0,-71 -52,-120 -99,-148 -34,-21 -73,-33 -113,-33 -59,0 -113,31 -113,95 0,71 53,120 100,148 34,21 72,33 112,33 z"
       id="path5077"
       inkscape:connector-curvature="0"
       style="fill:currentColor" />
  </a>
  <a
     style="color:inherit"
     xlink:href="textedit://C:/Users/tikeda/Documents/git/LotusRoot/sco.txt:3:0:1"
     id="a5083"
     transform="translate(-17.782171,-4.5564004)">
    <path
       transform="matrix(0.004,0,0,-0.004,51.4958,10.4064)"
       d="m 212,138 c 59,0 113,-31 113,-95 0,-71 -52,-120 -99,-148 -34,-21 -73,-33 -113,-33 -59,0 -113,31 -113,95 0,71 53,120 100,148 34,21 72,33 112,33 z"
       id="path5081"
       inkscape:connector-curvature="0"
       style="fill:currentColor" />
  </a>
  <rect
     x="34.863129"
     y="1.1334995"
     width="0.1514"
     height="4.5451999"
     ry="0.050000001"
     id="rect5085"
     style="fill:currentColor" />
  <rect
     x="43.21563"
     y="0.35589948"
     width="0.1514"
     height="4.3227"
     ry="0.050000001"
     id="rect5087"
     style="fill:currentColor" />
  <a
     style="color:inherit"
     xlink:href="textedit://C:/Users/tikeda/Documents/git/LotusRoot/sco.txt:3:20:21"
     id="a5091"
     transform="translate(-17.782171,-4.5564004)">
    <path
       transform="matrix(0.004,0,0,-0.004,62.3492,9.4064)"
       d="M 362,0 H 13 C 6,0 0,6 0,13 v 131 c 0,7 6,12 13,12 h 349 c 7,0 13,-5 13,-12 V 13 C 375,6 369,0 362,0 Z"
       id="path5089"
       inkscape:connector-curvature="0"
       style="fill:currentColor" />
  </a>
  <a
     style="color:inherit"
     xlink:href="textedit://C:/Users/tikeda/Documents/git/LotusRoot/sco.txt:3:16:17"
     id="a5095"
     transform="translate(-17.782171,-4.5564004)">
    <path
       transform="matrix(0.004,0,0,-0.004,59.8483,9.4064)"
       d="m 212,138 c 59,0 113,-31 113,-95 0,-71 -52,-120 -99,-148 -34,-21 -73,-33 -113,-33 -59,0 -113,31 -113,95 0,71 53,120 100,148 34,21 72,33 112,33 z"
       id="path5093"
       inkscape:connector-curvature="0"
       style="fill:currentColor" />
  </a>
  <polygon
     transform="translate(40.714829,0.55819958)"
     points="0.05,0.3 0.05,-0.3 2.6022,-0.5082 2.6022,0.0918 "
     id="polygon5097"
     style="fill:currentColor;stroke:currentColor;stroke-width:0.1;stroke-linecap:round;stroke-linejoin:round" />
  <polygon
     transform="translate(34.863129,1.1417996)"
     points="0.05,0.3 0.05,-0.3 2.6022,-0.5918 2.6022,0.0082 "
     id="polygon5099"
     style="fill:currentColor;stroke:currentColor;stroke-width:0.1;stroke-linecap:round;stroke-linejoin:round" />
  <polygon
     transform="translate(27.388229,1.5581996)"
     points="0.05,0.3 0.05,-0.3 2.6022,-0.5082 2.6022,0.0918 "
     id="polygon5101"
     style="fill:currentColor;stroke:currentColor;stroke-width:0.1;stroke-linecap:round;stroke-linejoin:round" />
  <polygon
     transform="translate(21.536529,2.1417996)"
     points="0.05,0.3 0.05,-0.3 2.6022,-0.5918 2.6022,0.0082 "
     id="polygon5103"
     style="fill:currentColor;stroke:currentColor;stroke-width:0.1;stroke-linecap:round;stroke-linejoin:round" />
  <polygon
     transform="translate(15.684829,2.5581996)"
     points="0.05,0.3 0.05,-0.3 3.4522,-0.3 3.4522,0.3 "
     id="polygon5105"
     style="fill:currentColor;stroke:currentColor;stroke-width:0.1;stroke-linecap:round;stroke-linejoin:round" />
  <path
     d="m 38.907329,6.6659996 c -0.048,0 -0.084,-0.036 -0.084,-0.084 v -0.552 l -0.316,0.12 v 0.616 c 0,0.048 -0.036,0.084 -0.084,0.084 -0.048,0 -0.084,-0.036 -0.084,-0.084 v -0.552 l -0.088,0.032 c -0.012,0.004 -0.024,0.008 -0.036,0.008 -0.052,0 -0.1,-0.044 -0.1,-0.1 v -0.216 c 0,-0.04 0.024,-0.08 0.064,-0.096 l 0.16,-0.06 v -0.62 l -0.088,0.036 c -0.012,0.004 -0.024,0.004 -0.036,0.004 -0.052,0 -0.1,-0.044 -0.1,-0.1 v -0.216 c 0,-0.04 0.024,-0.076 0.064,-0.092 l 0.16,-0.06 v -0.616 c 0,-0.048 0.036,-0.084 0.084,-0.084 0.048,0 0.084,0.036 0.084,0.084 v 0.552 l 0.316,-0.12 v -0.616 c 0,-0.048 0.036,-0.084 0.084,-0.084 0.048,0 0.084,0.036 0.084,0.084 v 0.552 l 0.088,-0.032 c 0.012,-0.004 0.024,-0.008 0.036,-0.008 0.052,0 0.1,0.044 0.1,0.1 v 0.216 c 0,0.04 -0.024,0.08 -0.064,0.096 l -0.16,0.06 v 0.62 l 0.088,-0.036 c 0.012,-0.004 0.024,-0.004 0.036,-0.004 0.052,0 0.1,0.044 0.1,0.1 v 0.216 c 0,0.04 -0.024,0.076 -0.064,0.092 l -0.16,0.06 v 0.616 c 0,0.048 -0.036,0.084 -0.084,0.084 z m -0.4,-1.564 v 0.616 l 0.316,-0.12 v -0.616 z"
     id="path5107"
     inkscape:connector-curvature="0"
     style="fill:currentColor;stroke-width:0.004" />
  <rect
     x="40.714828"
     y="0.55229962"
     width="0.1514"
     height="4.6264"
     ry="0.050000001"
     id="rect5109"
     style="fill:currentColor" />
  <a
     style="color:inherit"
     xlink:href="textedit://C:/Users/tikeda/Documents/git/LotusRoot/sco.txt:3:10:11"
     id="a5113"
     transform="translate(-17.782171,-4.5564004)">
    <path
       transform="matrix(0.004,0,0,-0.004,57.3475,9.9064)"
       d="m 212,138 c 59,0 113,-31 113,-95 0,-71 -52,-120 -99,-148 -34,-21 -73,-33 -113,-33 -59,0 -113,31 -113,95 0,71 53,120 100,148 34,21 72,33 112,33 z"
       id="path5111"
       inkscape:connector-curvature="0"
       style="fill:currentColor" />
  </a>
  <rect
     x="37.36393"
     y="0.85829961"
     width="0.1514"
     height="4.3203001"
     ry="0.050000001"
     id="rect5115"
     style="fill:currentColor" />
  <a
     style="color:inherit"
     xlink:href="textedit://C:/Users/tikeda/Documents/git/LotusRoot/sco.txt:3:6:7"
     id="a5119"
     transform="translate(-17.782171,-4.5564004)">
    <path
       transform="matrix(0.004,0,0,-0.004,53.9967,9.9064)"
       d="m 212,138 c 59,0 113,-31 113,-95 0,-71 -52,-120 -99,-148 -34,-21 -73,-33 -113,-33 -59,0 -113,31 -113,95 0,71 53,120 100,148 34,21 72,33 112,33 z"
       id="path5117"
       inkscape:connector-curvature="0"
       style="fill:currentColor" />
  </a>
  <path
     d="m 11.376529,9.1659996 c -0.048,0 -0.084,-0.036 -0.084,-0.084 v -0.552 l -0.316,0.12 v 0.616 c 0,0.048 -0.036,0.084 -0.084,0.084 -0.048,0 -0.084,-0.036 -0.084,-0.084 v -0.552 l -0.088,0.032 c -0.012,0.004 -0.024,0.008 -0.036,0.008 -0.052,0 -0.1,-0.044 -0.1,-0.1 v -0.216 c 0,-0.04 0.024,-0.08 0.064,-0.096 l 0.16,-0.06 v -0.62 l -0.088,0.036 c -0.012,0.004 -0.024,0.004 -0.036,0.004 -0.052,0 -0.1,-0.044 -0.1,-0.1 v -0.216 c 0,-0.04 0.024,-0.076 0.064,-0.092 l 0.16,-0.06 v -0.616 c 0,-0.048 0.036,-0.084 0.084,-0.084 0.048,0 0.084,0.036 0.084,0.084 v 0.552 l 0.316,-0.12 v -0.616 c 0,-0.048 0.036,-0.084 0.084,-0.084 0.048,0 0.084,0.036 0.084,0.084 v 0.552 l 0.088,-0.032 c 0.012,-0.004 0.024,-0.008 0.036,-0.008 0.052,0 0.1,0.044 0.1,0.1 v 0.216 c 0,0.04 -0.024,0.08 -0.064,0.096 l -0.16,0.06 v 0.62 l 0.088,-0.036 c 0.012,-0.004 0.024,-0.004 0.036,-0.004 0.052,0 0.1,0.044 0.1,0.1 v 0.216 c 0,0.04 -0.024,0.076 -0.064,0.092 l -0.16,0.06 v 0.616 c 0,0.048 -0.036,0.084 -0.084,0.084 z m -0.4,-1.564 v 0.616 l 0.316,-0.12 v -0.616 z"
     id="path5121"
     inkscape:connector-curvature="0"
     style="fill:currentColor;stroke-width:0.004" />
  <a
     style="color:inherit"
     xlink:href="textedit://C:/Users/tikeda/Documents/git/LotusRoot/sco.txt:2:14:15"
     id="a5125"
     transform="translate(-17.782171,-4.5564004)">
    <path
       transform="matrix(0.004,0,0,-0.004,29.8167,12.4064)"
       d="m 212,138 c 59,0 113,-31 113,-95 0,-71 -52,-120 -99,-148 -34,-21 -73,-33 -113,-33 -59,0 -113,31 -113,95 0,71 53,120 100,148 34,21 72,33 112,33 z"
       id="path5123"
       inkscape:connector-curvature="0"
       style="fill:currentColor" />
  </a>
  <rect
     x="13.184029"
     y="3.1417997"
     width="0.1514"
     height="4.5369"
     ry="0.050000001"
     id="rect5127"
     style="fill:currentColor" />
  <a
     style="color:inherit"
     xlink:href="textedit://C:/Users/tikeda/Documents/git/LotusRoot/sco.txt:2:20:21"
     id="a5131"
     transform="translate(-17.782171,-4.5564004)">
    <path
       transform="matrix(0.004,0,0,-0.004,32.3175,11.9064)"
       d="m 212,138 c 59,0 113,-31 113,-95 0,-71 -52,-120 -99,-148 -34,-21 -73,-33 -113,-33 -59,0 -113,31 -113,95 0,71 53,120 100,148 34,21 72,33 112,33 z"
       id="path5129"
       inkscape:connector-curvature="0"
       style="fill:currentColor" />
  </a>
  <rect
     x="27.388229"
     y="1.5522996"
     width="0.1514"
     height="4.6264"
     ry="0.050000001"
     id="rect5133"
     style="fill:currentColor" />
  <a
     style="color:inherit"
     xlink:href="textedit://C:/Users/tikeda/Documents/git/LotusRoot/sco.txt:2:10:11"
     id="a5137"
     transform="translate(-17.782171,-4.5564004)">
    <path
       transform="matrix(0.004,0,0,-0.004,26.4659,12.4064)"
       d="m 212,138 c 59,0 113,-31 113,-95 0,-71 -52,-120 -99,-148 -34,-21 -73,-33 -113,-33 -59,0 -113,31 -113,95 0,71 53,120 100,148 34,21 72,33 112,33 z"
       id="path5135"
       inkscape:connector-curvature="0"
       style="fill:currentColor" />
  </a>
  <path
     d="m 2.3168289,4.7939996 c 0.012,0 0.028,-0.004 0.04,-0.004 0.628,0 1.032,0.516 1.032,1.052 0,0.308 -0.132,0.62 -0.432,0.844 -0.088,0.064 -0.184,0.116 -0.288,0.148 0.012,0.132 0.016,0.264 0.016,0.396 0,0.084 0,0.164 -0.004,0.248 -0.028,0.484 -0.364,0.916 -0.844,0.916 -0.432,0 -0.784,-0.352 -0.784,-0.788 0,-0.232 0.216,-0.412 0.452,-0.412 0.216,0 0.38,0.188 0.38,0.412 0,0.208 -0.172,0.38 -0.38,0.38 -0.036,0 -0.072,-0.004 -0.108,-0.016 0.1,0.148 0.264,0.244 0.452,0.244 0.38,0 0.624,-0.372 0.648,-0.764 0.004,-0.076 0.008,-0.152 0.008,-0.228 0,-0.116 -0.004,-0.232 -0.012,-0.348 -0.116,0.02 -0.232,0.032 -0.352,0.032 -0.756,0 -1.33199999,-0.692 -1.33199999,-1.504 0,-0.708 0.51599999,-1.232 0.97599999,-1.772 -0.08,-0.248 -0.16,-0.496 -0.192,-0.756 -0.028,-0.208 -0.028,-0.42 -0.028,-0.632 0,-0.456 0.216,-0.884 0.588,-1.152 0.016,-0.012 0.032,-0.016 0.048,-0.016 0.02,0 0.036,0.008 0.052,0.02 0.288,0.332 0.54,0.972 0.54,1.424 0,0.568 -0.336,1.02 -0.704,1.456 0.084,0.272 0.16,0.544 0.228,0.82 z m 0.336,1.86 c 0.26,-0.096 0.44,-0.376 0.44,-0.644 0,-0.352 -0.256,-0.7 -0.668,-0.752 0.096,0.456 0.176,0.908 0.228,1.396 z m -1.544,-0.904 c 0,0.532 0.512,0.972 1.044,0.972 0.108,0 0.22,-0.004 0.324,-0.02 -0.052,-0.504 -0.14,-0.976 -0.24,-1.448 -0.316,0.032 -0.496,0.24 -0.496,0.472 0,0.172 0.1,0.352 0.32,0.48 0.02,0.02 0.028,0.044 0.028,0.068 0,0.048 -0.04,0.092 -0.092,0.092 -0.012,0 -0.028,-0.004 -0.04,-0.008 -0.324,-0.172 -0.472,-0.46 -0.472,-0.744 0,-0.356 0.24,-0.708 0.652,-0.8 -0.056,-0.228 -0.12,-0.452 -0.188,-0.676 -0.42,0.488 -0.84,0.972 -0.84,1.612 z m 1.304,-4.052 c -0.396,0.184 -0.644,0.58 -0.644,1.016 0,0.284 0.084,0.52 0.156,0.752 0.312,-0.388 0.568,-0.796 0.568,-1.296 0,-0.204 -0.016,-0.288 -0.08,-0.472 z"
     id="path5139"
     inkscape:connector-curvature="0"
     style="fill:currentColor;stroke-width:0.004" />
  <a
     style="color:inherit"
     xlink:href="textedit://C:/Users/tikeda/Documents/git/LotusRoot/sco.txt:2:0:1"
     id="a5143"
     transform="translate(-17.782171,-4.5564004)">
    <path
       transform="matrix(0.004,0,0,-0.004,22.783,9.4064)"
       d="m 356,30 c -48,0 -72,40 -72,72 0,37 26,75 70,75 3,0 6,-1 9,-1 -26,36 -67,59 -113,59 -107,0 -113,-74 -113,-189 0,-15 1,-30 1,-46 0,-16 -1,-31 -1,-46 0,-115 6,-189 113,-189 78,0 133,70 151,149 2,8 8,11 14,11 7,0 15,-5 15,-14 0,-95 -103,-176 -180,-176 -68,0 -137,20 -184,70 C 17,-143 0,-71 0,0 c 0,71 17,143 66,195 47,50 116,70 184,70 86,0 156,-67 171,-153 1,-4 1,-9 1,-13 0,-38 -30,-69 -66,-69 z"
       id="path5141"
       inkscape:connector-curvature="0"
       style="fill:currentColor" />
  </a>
  <rect
     x="9.8331289"
     y="3.1417997"
     width="0.1514"
     height="4.5369"
     ry="0.050000001"
     id="rect5145"
     style="fill:currentColor" />
  <rect
     x="15.684829"
     y="2.5581996"
     width="0.1514"
     height="4.6205001"
     ry="0.050000001"
     id="rect5147"
     style="fill:currentColor" />
  <a
     style="color:inherit"
     xlink:href="textedit://C:/Users/tikeda/Documents/git/LotusRoot/sco.txt:2:38:39"
     id="a5151"
     transform="translate(-17.782171,-4.5564004)">
    <path
       transform="matrix(0.004,0,0,-0.004,44.0209,10.9064)"
       d="m 212,138 c 59,0 113,-31 113,-95 0,-71 -52,-120 -99,-148 -34,-21 -73,-33 -113,-33 -59,0 -113,31 -113,95 0,71 53,120 100,148 34,21 72,33 112,33 z"
       id="path5149"
       inkscape:connector-curvature="0"
       style="fill:currentColor" />
  </a>
  <rect
     x="24.037329"
     y="1.8582996"
     width="0.1514"
     height="4.3203001"
     ry="0.050000001"
     id="rect5153"
     style="fill:currentColor" />
  <a
     style="color:inherit"
     xlink:href="textedit://C:/Users/tikeda/Documents/git/LotusRoot/sco.txt:2:34:35"
     id="a5157"
     transform="translate(-17.782171,-4.5564004)">
    <path
       transform="matrix(0.004,0,0,-0.004,40.6701,10.9064)"
       d="m 212,138 c 59,0 113,-31 113,-95 0,-71 -52,-120 -99,-148 -34,-21 -73,-33 -113,-33 -59,0 -113,31 -113,95 0,71 53,120 100,148 34,21 72,33 112,33 z"
       id="path5155"
       inkscape:connector-curvature="0"
       style="fill:currentColor" />
  </a>
  <rect
     x="21.53653"
     y="2.1334996"
     width="0.1514"
     height="4.5451999"
     ry="0.050000001"
     id="rect5159"
     style="fill:currentColor" />
  <a
     style="color:inherit"
     xlink:href="textedit://C:/Users/tikeda/Documents/git/LotusRoot/sco.txt:2:30:31"
     id="a5163"
     transform="translate(-17.782171,-4.5564004)">
    <path
       transform="matrix(0.004,0,0,-0.004,38.1692,11.4064)"
       d="m 212,138 c 59,0 113,-31 113,-95 0,-71 -52,-120 -99,-148 -34,-21 -73,-33 -113,-33 -59,0 -113,31 -113,95 0,71 53,120 100,148 34,21 72,33 112,33 z"
       id="path5161"
       inkscape:connector-curvature="0"
       style="fill:currentColor" />
  </a>
  <rect
     x="19.035629"
     y="2.5581996"
     width="0.1514"
     height="4.6205001"
     ry="0.050000001"
     id="rect5165"
     style="fill:currentColor" />
  <a
     style="color:inherit"
     xlink:href="textedit://C:/Users/tikeda/Documents/git/LotusRoot/sco.txt:2:24:25"
     id="a5169"
     transform="translate(-17.782171,-4.5564004)">
    <path
       transform="matrix(0.004,0,0,-0.004,35.6684,11.9064)"
       d="m 212,138 c 59,0 113,-31 113,-95 0,-71 -52,-120 -99,-148 -34,-21 -73,-33 -113,-33 -59,0 -113,31 -113,95 0,71 53,120 100,148 34,21 72,33 112,33 z"
       id="path5167"
       inkscape:connector-curvature="0"
       style="fill:currentColor" />
  </a>
  <path
     d="m 17.228229,8.6659996 c -0.048,0 -0.084,-0.036 -0.084,-0.084 v -0.552 l -0.316,0.12 v 0.616 c 0,0.048 -0.036,0.084 -0.084,0.084 -0.048,0 -0.084,-0.036 -0.084,-0.084 v -0.552 l -0.088,0.032 c -0.012,0.004 -0.024,0.008 -0.036,0.008 -0.052,0 -0.1,-0.044 -0.1,-0.1 v -0.216 c 0,-0.04 0.024,-0.08 0.064,-0.096 l 0.16,-0.06 v -0.62 l -0.088,0.036 c -0.012,0.004 -0.024,0.004 -0.036,0.004 -0.052,0 -0.1,-0.044 -0.1,-0.1 v -0.216 c 0,-0.04 0.024,-0.076 0.064,-0.092 l 0.16,-0.06 v -0.616 c 0,-0.048 0.036,-0.084 0.084,-0.084 0.048,0 0.084,0.036 0.084,0.084 v 0.552 l 0.316,-0.12 v -0.616 c 0,-0.048 0.036,-0.084 0.084,-0.084 0.048,0 0.084,0.036 0.084,0.084 v 0.552 l 0.088,-0.032 c 0.012,-0.004 0.024,-0.008 0.036,-0.008 0.052,0 0.1,0.044 0.1,0.1 v 0.216 c 0,0.04 -0.024,0.08 -0.064,0.096 l -0.16,0.06 v 0.62 l 0.088,-0.036 c 0.012,-0.004 0.024,-0.004 0.036,-0.004 0.052,0 0.1,0.044 0.1,0.1 v 0.216 c 0,0.04 -0.024,0.076 -0.064,0.092 l -0.16,0.06 v 0.616 c 0,0.048 -0.036,0.084 -0.084,0.084 z m -0.4,-1.564 v 0.616 l 0.316,-0.12 v -0.616 z"
     id="path5171"
     inkscape:connector-curvature="0"
     style="fill:currentColor;stroke-width:0.004" />
  <text
     font-size="2.1999"
     id="text5175"
     style="font-size:2.19989991px;font-family:serif;text-anchor:start;fill:currentColor"
     x="56.90633"
     y="202.43739">
    <tspan
       id="tspan5173" />
  </text>
</svg>
