<?xml version="1.0" encoding="UTF-8" standalone="no"?>
<svg
   xmlns:dc="http://purl.org/dc/elements/1.1/"
   xmlns:cc="http://creativecommons.org/ns#"
   xmlns:rdf="http://www.w3.org/1999/02/22-rdf-syntax-ns#"
   xmlns:svg="http://www.w3.org/2000/svg"
   xmlns="http://www.w3.org/2000/svg"
   xmlns:sodipodi="http://sodipodi.sourceforge.net/DTD/sodipodi-0.dtd"
   xmlns:inkscape="http://www.inkscape.org/namespaces/inkscape"
   version="1.2"
   width="428.01883"
   height="41.225395"
   viewBox="0 0 85.924799 8.2759978"
   id="svg2"
   inkscape:version="0.48.2 r9819"
   sodipodi:docname="test.svg">
  <metadata
     id="metadata198">
    <rdf:RDF>
      <cc:Work
         rdf:about="">
        <dc:format>image/svg+xml</dc:format>
        <dc:type
           rdf:resource="http://purl.org/dc/dcmitype/StillImage" />
      </cc:Work>
    </rdf:RDF>
  </metadata>
  <defs
     id="defs196" />
  <sodipodi:namedview
     pagecolor="#ffffff"
     bordercolor="#666666"
     borderopacity="1"
     objecttolerance="10"
     gridtolerance="10"
     guidetolerance="10"
     inkscape:pageopacity="0"
     inkscape:pageshadow="2"
     inkscape:window-width="769"
     inkscape:window-height="480"
     id="namedview194"
     showgrid="false"
     fit-margin-top="0"
     fit-margin-left="0"
     fit-margin-right="0"
     fit-margin-bottom="0"
     inkscape:zoom="0.22425739"
     inkscape:cx="283.46445"
     inkscape:cy="-462.25768"
     inkscape:window-x="0"
     inkscape:window-y="0"
     inkscape:window-maximized="0"
     inkscape:current-layer="svg2" />
  <!-- Page: 1/1 -->
  <text
     font-size="2.1999"
     id="text4"
     style="font-size:2.19989991px;text-anchor:start;fill:currentColor;font-family:serif"
     x="-10.6698"
     y="-1.0000272">
    <tspan
       id="tspan6" />
  </text>
  <line
     x1="0.058200002"
     y1="5.7759728"
     x2="85.8666"
     y2="5.7759728"
     id="line8"
     style="stroke:currentColor;stroke-width:0.1164;stroke-linecap:round;stroke-linejoin:round" />
  <line
     x1="0.058200002"
     y1="4.7759728"
     x2="85.8666"
     y2="4.7759728"
     id="line10"
     style="stroke:currentColor;stroke-width:0.1164;stroke-linecap:round;stroke-linejoin:round" />
  <line
     x1="0.058200002"
     y1="3.7759728"
     x2="85.8666"
     y2="3.7759728"
     id="line12"
     style="stroke:currentColor;stroke-width:0.1164;stroke-linecap:round;stroke-linejoin:round" />
  <line
     x1="0.058200002"
     y1="2.7759728"
     x2="85.8666"
     y2="2.7759728"
     id="line14"
     style="stroke:currentColor;stroke-width:0.1164;stroke-linecap:round;stroke-linejoin:round" />
  <line
     x1="0.058200002"
     y1="1.7759728"
     x2="85.8666"
     y2="1.7759728"
     id="line16"
     style="stroke:currentColor;stroke-width:0.1164;stroke-linecap:round;stroke-linejoin:round" />
  <rect
     x="34.203899"
     y="1.7759728"
     width="0.2212"
     height="4"
     ry="0"
     id="rect18"
     style="fill:currentColor" />
  <rect
     x="59.083801"
     y="1.7759728"
     width="0.2212"
     height="4"
     ry="0"
     id="rect20"
     style="fill:currentColor" />
  <rect
     x="85.703598"
     y="1.7759728"
     width="0.2212"
     height="4"
     ry="0"
     id="rect22"
     style="fill:currentColor" />
  <rect
     x="18.6604"
     y="6.6677728"
     width="1.9962"
     height="0.2164"
     ry="0.1082"
     id="rect24"
     style="fill:currentColor" />
  <rect
     x="14.809601"
     y="6.6677728"
     width="1.9962"
     height="0.2164"
     ry="0.1082"
     id="rect26"
     style="fill:currentColor" />
  <rect
     x="11.4587"
     y="6.6677728"
     width="1.9962"
     height="0.2164"
     ry="0.1082"
     id="rect28"
     style="fill:currentColor" />
  <rect
     x="8.1625004"
     y="6.6677728"
     width="2.3415"
     height="0.2164"
     ry="0.1082"
     id="rect30"
     style="fill:currentColor" />
  <path
     d="m 57.2289,4.2239728 c 0.236,0 0.452,0.124 0.452,0.38 0,0.284 -0.208,0.48 -0.396,0.592 -0.136,0.084 -0.292,0.132 -0.452,0.132 -0.236,0 -0.452,-0.124 -0.452,-0.38 0,-0.284 0.212,-0.48 0.4,-0.592 0.136,-0.084 0.288,-0.132 0.448,-0.132 z"
     id="path32"
     inkscape:connector-curvature="0"
     style="fill:currentColor" />
  <rect
     x="57.530399"
     y="1.7759728"
     width="0.1514"
     height="2.8287001"
     ry="0.050000001"
     id="rect34"
     style="fill:currentColor" />
  <rect
     x="66.355301"
     y="1.7759728"
     width="0.1514"
     height="2.8287001"
     ry="0.050000001"
     id="rect36"
     style="fill:currentColor" />
  <path
     d="m 55.7629,6.0239728 c 0,0.048 -0.036,0.08 -0.084,0.08 -0.048,0 -0.08,-0.032 -0.08,-0.08 v -0.448 l -0.116,0.068 c -0.016,0.008 -0.036,0.016 -0.052,0.016 -0.052,0 -0.1,-0.044 -0.1,-0.104 v -0.216 c 0,-0.036 0.016,-0.064 0.048,-0.084 l 0.22,-0.132 v -0.6 l -0.116,0.068 c -0.016,0.008 -0.036,0.016 -0.052,0.016 -0.052,0 -0.1,-0.04 -0.1,-0.1 v -0.216 c 0,-0.036 0.016,-0.068 0.048,-0.088 l 0.22,-0.128 v -0.548 c 0,-0.048 0.032,-0.08 0.08,-0.08 0.048,0 0.084,0.032 0.084,0.08 v 0.448 l 0.116,-0.068 c 0.016,-0.008 0.036,-0.016 0.052,-0.016 0.052,0 0.1,0.044 0.1,0.104 v 0.216 c 0,0.036 -0.016,0.064 -0.048,0.084 l -0.22,0.132 v 0.6 l 0.116,-0.068 c 0.016,-0.008 0.036,-0.016 0.052,-0.016 0.052,0 0.1,0.04 0.1,0.1 v 0.216 c 0,0.036 -0.016,0.068 -0.048,0.088 l -0.22,0.128 v 0.548 z"
     id="path38"
     inkscape:connector-curvature="0"
     style="fill:currentColor" />
  <path
     d="m 62.203,4.2239728 c 0.236,0 0.452,0.124 0.452,0.38 0,0.284 -0.208,0.48 -0.396,0.592 -0.136,0.084 -0.292,0.132 -0.452,0.132 -0.236,0 -0.452,-0.124 -0.452,-0.38 0,-0.284 0.212,-0.48 0.4,-0.592 0.136,-0.084 0.288,-0.132 0.448,-0.132 z"
     id="path40"
     inkscape:connector-curvature="0"
     style="fill:currentColor" />
  <rect
     x="62.504501"
     y="1.7759728"
     width="0.1514"
     height="2.8287001"
     ry="0.050000001"
     id="rect42"
     style="fill:currentColor" />
  <path
     d="m 66.0539,4.2239728 c 0.236,0 0.452,0.124 0.452,0.38 0,0.284 -0.208,0.48 -0.396,0.592 -0.136,0.084 -0.292,0.132 -0.452,0.132 -0.236,0 -0.452,-0.124 -0.452,-0.38 0,-0.284 0.212,-0.48 0.4,-0.592 0.136,-0.084 0.288,-0.132 0.448,-0.132 z"
     id="path44"
     inkscape:connector-curvature="0"
     style="fill:currentColor" />
  <path
     d="m 60.697,6.0919728 c -0.048,0 -0.084,-0.036 -0.084,-0.084 v -0.552 l -0.316,0.12 v 0.616 c 0,0.048 -0.036,0.084 -0.084,0.084 -0.048,0 -0.084,-0.036 -0.084,-0.084 v -0.552 l -0.088,0.032 c -0.012,0.004 -0.024,0.008 -0.036,0.008 -0.052,0 -0.1,-0.044 -0.1,-0.1 v -0.216 c 0,-0.04 0.024,-0.08 0.064,-0.096 l 0.16,-0.06 v -0.62 l -0.088,0.036 c -0.012,0.004 -0.024,0.004 -0.036,0.004 -0.052,0 -0.1,-0.044 -0.1,-0.1 v -0.216 c 0,-0.04 0.024,-0.076 0.064,-0.092 l 0.16,-0.06 v -0.616 c 0,-0.048 0.036,-0.084 0.084,-0.084 0.048,0 0.084,0.036 0.084,0.084 v 0.552 l 0.316,-0.12 v -0.616 c 0,-0.048 0.036,-0.084 0.084,-0.084 0.048,0 0.084,0.036 0.084,0.084 v 0.552 l 0.088,-0.032 c 0.012,-0.004 0.024,-0.008 0.036,-0.008 0.052,0 0.1,0.044 0.1,0.1 v 0.216 c 0,0.04 -0.024,0.08 -0.064,0.096 l -0.16,0.06 v 0.62 l 0.088,-0.036 c 0.012,-0.004 0.024,-0.004 0.036,-0.004 0.052,0 0.1,0.044 0.1,0.1 v 0.216 c 0,0.04 -0.024,0.076 -0.064,0.092 l -0.16,0.06 v 0.616 c 0,0.048 -0.036,0.084 -0.084,0.084 z m -0.4,-1.564 v 0.616 l 0.316,-0.12 v -0.616 z"
     id="path46"
     inkscape:connector-curvature="0"
     style="fill:currentColor" />
  <polygon
     transform="translate(9.8324,3.7759728)"
     points="0.05,-0.3 3.0522,-0.3 3.0522,0.3 0.05,0.3 "
     id="polygon48"
     style="fill:currentColor;stroke:currentColor;stroke-width:0.1;stroke-linecap:round;stroke-linejoin:round" />
  <path
     d="m 44.5756,4.7239728 c 0.236,0 0.452,0.124 0.452,0.38 0,0.284 -0.208,0.48 -0.396,0.592 -0.136,0.084 -0.292,0.132 -0.452,0.132 -0.236,0 -0.452,-0.124 -0.452,-0.38 0,-0.284 0.212,-0.48 0.4,-0.592 0.136,-0.084 0.288,-0.132 0.448,-0.132 z"
     id="path50"
     inkscape:connector-curvature="0"
     style="fill:currentColor" />
  <rect
     x="44.876999"
     y="2.4841728"
     width="0.1514"
     height="2.6205001"
     ry="0.050000001"
     id="rect52"
     style="fill:currentColor" />
  <path
     d="m 43.1096,6.5239728 c 0,0.048 -0.036,0.08 -0.084,0.08 -0.048,0 -0.08,-0.032 -0.08,-0.08 v -0.448 l -0.116,0.068 c -0.016,0.008 -0.036,0.016 -0.052,0.016 -0.052,0 -0.1,-0.044 -0.1,-0.104 v -0.216 c 0,-0.036 0.016,-0.064 0.048,-0.084 l 0.22,-0.132 v -0.6 l -0.116,0.068 c -0.016,0.008 -0.036,0.016 -0.052,0.016 -0.052,0 -0.1,-0.04 -0.1,-0.1 v -0.216 c 0,-0.036 0.016,-0.068 0.048,-0.088 l 0.22,-0.128 v -0.548 c 0,-0.048 0.032,-0.08 0.08,-0.08 0.048,0 0.084,0.032 0.084,0.08 v 0.448 l 0.116,-0.068 c 0.016,-0.008 0.036,-0.016 0.052,-0.016 0.052,0 0.1,0.044 0.1,0.104 v 0.216 c 0,0.036 -0.016,0.064 -0.048,0.084 l -0.22,0.132 v 0.6 l 0.116,-0.068 c 0.016,-0.008 0.036,-0.016 0.052,-0.016 0.052,0 0.1,0.04 0.1,0.1 v 0.216 c 0,0.036 -0.016,0.068 -0.048,0.088 l -0.22,0.128 v 0.548 z"
     id="path54"
     inkscape:connector-curvature="0"
     style="fill:currentColor" />
  <path
     d="m 47.9264,4.7239728 c 0.236,0 0.452,0.124 0.452,0.38 0,0.284 -0.208,0.48 -0.396,0.592 -0.136,0.084 -0.292,0.132 -0.452,0.132 -0.236,0 -0.452,-0.124 -0.452,-0.38 0,-0.284 0.212,-0.48 0.4,-0.592 0.136,-0.084 0.288,-0.132 0.448,-0.132 z"
     id="path56"
     inkscape:connector-curvature="0"
     style="fill:currentColor" />
  <rect
     x="48.227901"
     y="2.4841728"
     width="0.1514"
     height="2.6205001"
     ry="0.050000001"
     id="rect58"
     style="fill:currentColor" />
  <path
     d="m 46.4204,6.5919728 c -0.048,0 -0.084,-0.036 -0.084,-0.084 v -0.552 l -0.316,0.12 v 0.616 c 0,0.048 -0.036,0.084 -0.084,0.084 -0.048,0 -0.084,-0.036 -0.084,-0.084 v -0.552 l -0.088,0.032 c -0.012,0.004 -0.024,0.008 -0.036,0.008 -0.052,0 -0.1,-0.044 -0.1,-0.1 v -0.216 c 0,-0.04 0.024,-0.08 0.064,-0.096 l 0.16,-0.06 v -0.62 l -0.088,0.036 c -0.012,0.004 -0.024,0.004 -0.036,0.004 -0.052,0 -0.1,-0.044 -0.1,-0.1 v -0.216 c 0,-0.04 0.024,-0.076 0.064,-0.092 l 0.16,-0.06 v -0.616 c 0,-0.048 0.036,-0.084 0.084,-0.084 0.048,0 0.084,0.036 0.084,0.084 v 0.552 l 0.316,-0.12 v -0.616 c 0,-0.048 0.036,-0.084 0.084,-0.084 0.048,0 0.084,0.036 0.084,0.084 v 0.552 l 0.088,-0.032 c 0.012,-0.004 0.024,-0.008 0.036,-0.008 0.052,0 0.1,0.044 0.1,0.1 v 0.216 c 0,0.04 -0.024,0.08 -0.064,0.096 l -0.16,0.06 v 0.62 l 0.088,-0.036 c 0.012,-0.004 0.024,-0.004 0.036,-0.004 0.052,0 0.1,0.044 0.1,0.1 v 0.216 c 0,0.04 -0.024,0.076 -0.064,0.092 l -0.16,0.06 v 0.616 c 0,0.048 -0.036,0.084 -0.084,0.084 z m -0.4,-1.564 v 0.616 l 0.316,-0.12 v -0.616 z"
     id="path60"
     inkscape:connector-curvature="0"
     style="fill:currentColor" />
  <path
     d="m 51.7772,4.7239728 c 0.236,0 0.452,0.124 0.452,0.38 0,0.284 -0.208,0.48 -0.396,0.592 -0.136,0.084 -0.292,0.132 -0.452,0.132 -0.236,0 -0.452,-0.124 -0.452,-0.38 0,-0.284 0.212,-0.48 0.4,-0.592 0.136,-0.084 0.288,-0.132 0.448,-0.132 z"
     id="path62"
     inkscape:connector-curvature="0"
     style="fill:currentColor" />
  <rect
     x="52.078701"
     y="2.4841728"
     width="0.1514"
     height="2.6205001"
     ry="0.050000001"
     id="rect64"
     style="fill:currentColor" />
  <path
     d="m 49.7792,6.6599728 c -0.048,0 -0.084,-0.036 -0.084,-0.084 v -0.54 l -0.284,0.072 v 0.584 c 0,0.048 -0.032,0.084 -0.08,0.084 -0.048,0 -0.084,-0.036 -0.084,-0.084 v -0.54 l -0.14,0.036 c -0.008,0.004 -0.02,0.004 -0.028,0.004 -0.052,0 -0.1,-0.044 -0.1,-0.1 v -0.216 c 0,-0.044 0.032,-0.088 0.076,-0.1 l 0.192,-0.048 v -0.624 l -0.14,0.036 c -0.008,0.004 -0.02,0 -0.028,0 -0.052,0 -0.1,-0.044 -0.1,-0.1 v -0.216 c 0,-0.044 0.032,-0.084 0.076,-0.096 l 0.192,-0.048 v -0.584 c 0,-0.048 0.036,-0.084 0.084,-0.084 0.048,0 0.08,0.036 0.08,0.084 v 0.54 l 0.284,-0.076 v -0.584 c 0,-0.048 0.036,-0.084 0.084,-0.084 0.048,0 0.084,0.036 0.084,0.084 v 0.54 l 0.284,-0.072 v -0.584 c 0,-0.048 0.032,-0.084 0.08,-0.084 0.048,0 0.084,0.036 0.084,0.084 v 0.54 l 0.14,-0.036 c 0.008,-0.004 0.02,-0.004 0.028,-0.004 0.052,0 0.1,0.044 0.1,0.1 v 0.216 c 0,0.044 -0.032,0.088 -0.076,0.1 l -0.192,0.048 v 0.624 l 0.14,-0.036 c 0.008,-0.004 0.02,0 0.028,0 0.052,0 0.1,0.044 0.1,0.1 v 0.216 c 0,0.044 -0.032,0.084 -0.076,0.096 l -0.192,0.048 v 0.584 c 0,0.048 -0.036,0.084 -0.084,0.084 -0.048,0 -0.08,-0.036 -0.08,-0.084 v -0.54 l -0.284,0.076 v 0.584 c 0,0.048 -0.036,0.084 -0.084,0.084 z m -0.368,-1.6 v 0.624 l 0.284,-0.072 v -0.628 z m 0.736,-0.192 -0.284,0.072 v 0.628 l 0.284,-0.076 v -0.624 z"
     id="path66"
     inkscape:connector-curvature="0"
     style="fill:currentColor" />
  <path
     d="m 54.2781,4.2239728 c 0.236,0 0.452,0.124 0.452,0.38 0,0.284 -0.208,0.48 -0.396,0.592 -0.136,0.084 -0.292,0.132 -0.452,0.132 -0.236,0 -0.452,-0.124 -0.452,-0.38 0,-0.284 0.212,-0.48 0.4,-0.592 0.136,-0.084 0.288,-0.132 0.448,-0.132 z"
     id="path68"
     inkscape:connector-curvature="0"
     style="fill:currentColor" />
  <rect
     x="54.579498"
     y="1.7759728"
     width="0.1514"
     height="2.8287001"
     ry="0.050000001"
     id="rect70"
     style="fill:currentColor" />
  <path
     d="m 76.7092,5.6599728 c -0.048,0 -0.084,-0.036 -0.084,-0.084 v -0.54 l -0.284,0.072 v 0.584 c 0,0.048 -0.032,0.084 -0.08,0.084 -0.048,0 -0.084,-0.036 -0.084,-0.084 v -0.54 l -0.14,0.036 c -0.008,0.004 -0.02,0.004 -0.028,0.004 -0.052,0 -0.1,-0.044 -0.1,-0.1 v -0.216 c 0,-0.044 0.032,-0.088 0.076,-0.1 l 0.192,-0.048 v -0.624 l -0.14,0.036 c -0.008,0.004 -0.02,0 -0.028,0 -0.052,0 -0.1,-0.044 -0.1,-0.1 v -0.216 c 0,-0.044 0.032,-0.084 0.076,-0.096 l 0.192,-0.048 v -0.584 c 0,-0.048 0.036,-0.084 0.084,-0.084 0.048,0 0.08,0.036 0.08,0.084 v 0.54 l 0.284,-0.076 v -0.584 c 0,-0.048 0.036,-0.084 0.084,-0.084 0.048,0 0.084,0.036 0.084,0.084 v 0.54 l 0.284,-0.072 v -0.584 c 0,-0.048 0.032,-0.084 0.08,-0.084 0.048,0 0.084,0.036 0.084,0.084 v 0.54 l 0.14,-0.036 c 0.008,-0.004 0.02,-0.004 0.028,-0.004 0.052,0 0.1,0.044 0.1,0.1 v 0.216 c 0,0.044 -0.032,0.088 -0.076,0.1 l -0.192,0.048 v 0.624 l 0.14,-0.036 c 0.008,-0.004 0.02,0 0.028,0 0.052,0 0.1,0.044 0.1,0.1 v 0.216 c 0,0.044 -0.032,0.084 -0.076,0.096 l -0.192,0.048 v 0.584 c 0,0.048 -0.036,0.084 -0.084,0.084 -0.048,0 -0.08,-0.036 -0.08,-0.084 v -0.54 l -0.284,0.076 v 0.584 c 0,0.048 -0.036,0.084 -0.084,0.084 z m -0.368,-1.6 v 0.624 l 0.284,-0.072 v -0.628 z m 0.736,-0.192 -0.284,0.072 v 0.628 l 0.284,-0.076 v -0.624 z"
     id="path72"
     inkscape:connector-curvature="0"
     style="fill:currentColor" />
  <path
     d="m 81.2305,3.2239728 c 0.236,0 0.452,0.124 0.452,0.38 0,0.284 -0.208,0.48 -0.396,0.592 -0.136,0.084 -0.292,0.132 -0.452,0.132 -0.236,0 -0.452,-0.124 -0.452,-0.38 0,-0.284 0.212,-0.48 0.4,-0.592 0.136,-0.084 0.288,-0.132 0.448,-0.132 z"
     id="path74"
     inkscape:connector-curvature="0"
     style="fill:currentColor" />
  <rect
     x="80.3825"
     y="3.9472728"
     width="0.1514"
     height="2.8287001"
     ry="0.050000001"
     id="rect76"
     style="fill:currentColor" />
  <path
     d="m 84.1814,3.2239728 c 0.236,0 0.452,0.124 0.452,0.38 0,0.284 -0.208,0.48 -0.396,0.592 -0.136,0.084 -0.292,0.132 -0.452,0.132 -0.236,0 -0.452,-0.124 -0.452,-0.38 0,-0.284 0.212,-0.48 0.4,-0.592 0.136,-0.084 0.288,-0.132 0.448,-0.132 z"
     id="path78"
     inkscape:connector-curvature="0"
     style="fill:currentColor" />
  <rect
     x="83.333298"
     y="3.9472728"
     width="0.1514"
     height="2.8287001"
     ry="0.050000001"
     id="rect80"
     style="fill:currentColor" />
  <path
     d="m 82.7154,5.0239728 c 0,0.048 -0.036,0.08 -0.084,0.08 -0.048,0 -0.08,-0.032 -0.08,-0.08 v -0.448 l -0.116,0.068 c -0.016,0.008 -0.036,0.016 -0.052,0.016 -0.052,0 -0.1,-0.044 -0.1,-0.104 v -0.216 c 0,-0.036 0.016,-0.064 0.048,-0.084 l 0.22,-0.132 v -0.6 l -0.116,0.068 c -0.016,0.008 -0.036,0.016 -0.052,0.016 -0.052,0 -0.1,-0.04 -0.1,-0.1 v -0.216 c 0,-0.036 0.016,-0.068 0.048,-0.088 l 0.22,-0.128 v -0.548 c 0,-0.048 0.032,-0.08 0.08,-0.08 0.048,0 0.084,0.032 0.084,0.08 v 0.448 l 0.116,-0.068 c 0.016,-0.008 0.036,-0.016 0.052,-0.016 0.052,0 0.1,0.044 0.1,0.104 v 0.216 c 0,0.036 -0.016,0.064 -0.048,0.084 l -0.22,0.132 v 0.6 l 0.116,-0.068 c 0.016,-0.008 0.036,-0.016 0.052,-0.016 0.052,0 0.1,0.04 0.1,0.1 v 0.216 c 0,0.036 -0.016,0.068 -0.048,0.088 l -0.22,0.128 v 0.548 z"
     id="path82"
     inkscape:connector-curvature="0"
     style="fill:currentColor" />
  <polygon
     transform="translate(80.3825,6.7759728)"
     points="0.05,-0.3 3.0522,-0.3 3.0522,0.3 0.05,0.3 "
     id="polygon84"
     style="fill:currentColor;stroke:currentColor;stroke-width:0.1;stroke-linecap:round;stroke-linejoin:round" />
  <polygon
     transform="translate(75.1578,1.4841728)"
     points="0.05,-0.3 3.9522,-0.3 3.9522,0.3 0.05,0.3 "
     id="polygon86"
     style="fill:currentColor;stroke:currentColor;stroke-width:0.1;stroke-linecap:round;stroke-linejoin:round" />
  <polygon
     transform="translate(68.8562,1.4841728)"
     points="0.05,-0.3 3.0522,-0.3 3.0522,0.3 0.05,0.3 "
     id="polygon88"
     style="fill:currentColor;stroke:currentColor;stroke-width:0.1;stroke-linecap:round;stroke-linejoin:round" />
  <polygon
     transform="translate(62.5045,1.7759728)"
     points="0.05,-0.3 3.9522,-0.3 3.9522,0.3 0.05,0.3 "
     id="polygon90"
     style="fill:currentColor;stroke:currentColor;stroke-width:0.1;stroke-linecap:round;stroke-linejoin:round" />
  <polygon
     transform="translate(54.5796,1.7759728)"
     points="0.05,-0.3 3.0522,-0.3 3.0522,0.3 0.05,0.3 "
     id="polygon92"
     style="fill:currentColor;stroke:currentColor;stroke-width:0.1;stroke-linecap:round;stroke-linejoin:round" />
  <polygon
     transform="translate(48.2279,2.4841728)"
     points="0.05,-0.3 3.9522,-0.3 3.9522,0.3 0.05,0.3 "
     id="polygon94"
     style="fill:currentColor;stroke:currentColor;stroke-width:0.1;stroke-linecap:round;stroke-linejoin:round" />
  <polygon
     transform="translate(41.9262,2.4841728)"
     points="0.05,-0.3 3.0522,-0.3 3.0522,0.3 0.05,0.3 "
     id="polygon96"
     style="fill:currentColor;stroke:currentColor;stroke-width:0.1;stroke-linecap:round;stroke-linejoin:round" />
  <polygon
     transform="translate(36.4745,2.7759728)"
     points="0.05,-0.3 3.0522,-0.3 3.0522,0.3 0.05,0.3 "
     id="polygon98"
     style="fill:currentColor;stroke:currentColor;stroke-width:0.1;stroke-linecap:round;stroke-linejoin:round" />
  <polygon
     transform="translate(28.7874,3.4841728)"
     points="0.05,-0.3 3.9522,-0.3 3.9522,0.3 0.05,0.3 "
     id="polygon100"
     style="fill:currentColor;stroke:currentColor;stroke-width:0.1;stroke-linecap:round;stroke-linejoin:round" />
  <polygon
     transform="translate(22.4857,3.4841728)"
     points="0.05,-0.3 3.0522,-0.3 3.0522,0.3 0.05,0.3 "
     id="polygon102"
     style="fill:currentColor;stroke:currentColor;stroke-width:0.1;stroke-linecap:round;stroke-linejoin:round" />
  <polygon
     transform="translate(16.134,3.7759728)"
     points="0.05,-0.3 3.9522,-0.3 3.9522,0.3 0.05,0.3 "
     id="polygon104"
     style="fill:currentColor;stroke:currentColor;stroke-width:0.1;stroke-linecap:round;stroke-linejoin:round" />
  <path
     d="m 64.0559,6.1599728 c -0.048,0 -0.084,-0.036 -0.084,-0.084 v -0.54 l -0.284,0.072 v 0.584 c 0,0.048 -0.032,0.084 -0.08,0.084 -0.048,0 -0.084,-0.036 -0.084,-0.084 v -0.54 l -0.14,0.036 c -0.008,0.004 -0.02,0.004 -0.028,0.004 -0.052,0 -0.1,-0.044 -0.1,-0.1 v -0.216 c 0,-0.044 0.032,-0.088 0.076,-0.1 l 0.192,-0.048 v -0.624 l -0.14,0.036 c -0.008,0.004 -0.02,0 -0.028,0 -0.052,0 -0.1,-0.044 -0.1,-0.1 v -0.216 c 0,-0.044 0.032,-0.084 0.076,-0.096 l 0.192,-0.048 v -0.584 c 0,-0.048 0.036,-0.084 0.084,-0.084 0.048,0 0.08,0.036 0.08,0.084 v 0.54 l 0.284,-0.076 v -0.584 c 0,-0.048 0.036,-0.084 0.084,-0.084 0.048,0 0.084,0.036 0.084,0.084 v 0.54 l 0.284,-0.072 v -0.584 c 0,-0.048 0.032,-0.084 0.08,-0.084 0.048,0 0.084,0.036 0.084,0.084 v 0.54 l 0.14,-0.036 c 0.008,-0.004 0.02,-0.004 0.028,-0.004 0.052,0 0.1,0.044 0.1,0.1 v 0.216 c 0,0.044 -0.032,0.088 -0.076,0.1 l -0.192,0.048 v 0.624 l 0.14,-0.036 c 0.008,-0.004 0.02,0 0.028,0 0.052,0 0.1,0.044 0.1,0.1 v 0.216 c 0,0.044 -0.032,0.084 -0.076,0.096 l -0.192,0.048 v 0.584 c 0,0.048 -0.036,0.084 -0.084,0.084 -0.048,0 -0.08,-0.036 -0.08,-0.084 v -0.54 l -0.284,0.076 v 0.584 c 0,0.048 -0.036,0.084 -0.084,0.084 z m -0.368,-1.6 v 0.624 l 0.284,-0.072 v -0.628 z m 0.736,-0.192 -0.284,0.072 v 0.628 l 0.284,-0.076 v -0.624 z"
     id="path106"
     inkscape:connector-curvature="0"
     style="fill:currentColor" />
  <path
     d="m 68.5547,3.7239728 c 0.236,0 0.452,0.124 0.452,0.38 0,0.284 -0.208,0.48 -0.396,0.592 -0.136,0.084 -0.292,0.132 -0.452,0.132 -0.236,0 -0.452,-0.124 -0.452,-0.38 0,-0.284 0.212,-0.48 0.4,-0.592 0.136,-0.084 0.288,-0.132 0.448,-0.132 z"
     id="path108"
     inkscape:connector-curvature="0"
     style="fill:currentColor" />
  <rect
     x="68.856201"
     y="1.4841728"
     width="0.1514"
     height="2.6205001"
     ry="0.050000001"
     id="rect110"
     style="fill:currentColor" />
  <path
     d="m 71.5055,3.7239728 c 0.236,0 0.452,0.124 0.452,0.38 0,0.284 -0.208,0.48 -0.396,0.592 -0.136,0.084 -0.292,0.132 -0.452,0.132 -0.236,0 -0.452,-0.124 -0.452,-0.38 0,-0.284 0.212,-0.48 0.4,-0.592 0.136,-0.084 0.288,-0.132 0.448,-0.132 z"
     id="path112"
     inkscape:connector-curvature="0"
     style="fill:currentColor" />
  <rect
     x="71.806999"
     y="1.4841728"
     width="0.1514"
     height="2.6205001"
     ry="0.050000001"
     id="rect114"
     style="fill:currentColor" />
  <path
     d="m 70.0395,5.5239728 c 0,0.048 -0.036,0.08 -0.084,0.08 -0.048,0 -0.08,-0.032 -0.08,-0.08 v -0.448 l -0.116,0.068 c -0.016,0.008 -0.036,0.016 -0.052,0.016 -0.052,0 -0.1,-0.044 -0.1,-0.104 v -0.216 c 0,-0.036 0.016,-0.064 0.048,-0.084 l 0.22,-0.132 v -0.6 l -0.116,0.068 c -0.016,0.008 -0.036,0.016 -0.052,0.016 -0.052,0 -0.1,-0.04 -0.1,-0.1 v -0.216 c 0,-0.036 0.016,-0.068 0.048,-0.088 l 0.22,-0.128 v -0.548 c 0,-0.048 0.032,-0.08 0.08,-0.08 0.048,0 0.084,0.032 0.084,0.08 v 0.448 l 0.116,-0.068 c 0.016,-0.008 0.036,-0.016 0.052,-0.016 0.052,0 0.1,0.044 0.1,0.104 v 0.216 c 0,0.036 -0.016,0.064 -0.048,0.084 l -0.22,0.132 v 0.6 l 0.116,-0.068 c 0.016,-0.008 0.036,-0.016 0.052,-0.016 0.052,0 0.1,0.04 0.1,0.1 v 0.216 c 0,0.036 -0.016,0.068 -0.048,0.088 l -0.22,0.128 v 0.548 z"
     id="path116"
     inkscape:connector-curvature="0"
     style="fill:currentColor" />
  <path
     d="m 74.8564,3.7239728 c 0.236,0 0.452,0.124 0.452,0.38 0,0.284 -0.208,0.48 -0.396,0.592 -0.136,0.084 -0.292,0.132 -0.452,0.132 -0.236,0 -0.452,-0.124 -0.452,-0.38 0,-0.284 0.212,-0.48 0.4,-0.592 0.136,-0.084 0.288,-0.132 0.448,-0.132 z"
     id="path118"
     inkscape:connector-curvature="0"
     style="fill:currentColor" />
  <rect
     x="75.157799"
     y="1.4841728"
     width="0.1514"
     height="2.6205001"
     ry="0.050000001"
     id="rect120"
     style="fill:currentColor" />
  <path
     d="m 73.3504,5.5919728 c -0.048,0 -0.084,-0.036 -0.084,-0.084 v -0.552 l -0.316,0.12 v 0.616 c 0,0.048 -0.036,0.084 -0.084,0.084 -0.048,0 -0.084,-0.036 -0.084,-0.084 v -0.552 l -0.088,0.032 c -0.012,0.004 -0.024,0.008 -0.036,0.008 -0.052,0 -0.1,-0.044 -0.1,-0.1 v -0.216 c 0,-0.04 0.024,-0.08 0.064,-0.096 l 0.16,-0.06 v -0.62 l -0.088,0.036 c -0.012,0.004 -0.024,0.004 -0.036,0.004 -0.052,0 -0.1,-0.044 -0.1,-0.1 v -0.216 c 0,-0.04 0.024,-0.076 0.064,-0.092 l 0.16,-0.06 v -0.616 c 0,-0.048 0.036,-0.084 0.084,-0.084 0.048,0 0.084,0.036 0.084,0.084 v 0.552 l 0.316,-0.12 v -0.616 c 0,-0.048 0.036,-0.084 0.084,-0.084 0.048,0 0.084,0.036 0.084,0.084 v 0.552 l 0.088,-0.032 c 0.012,-0.004 0.024,-0.008 0.036,-0.008 0.052,0 0.1,0.044 0.1,0.1 v 0.216 c 0,0.04 -0.024,0.08 -0.064,0.096 l -0.16,0.06 v 0.62 l 0.088,-0.036 c 0.012,-0.004 0.024,-0.004 0.036,-0.004 0.052,0 0.1,0.044 0.1,0.1 v 0.216 c 0,0.04 -0.024,0.076 -0.064,0.092 l -0.16,0.06 v 0.616 c 0,0.048 -0.036,0.084 -0.084,0.084 z m -0.4,-1.564 v 0.616 l 0.316,-0.12 v -0.616 z"
     id="path122"
     inkscape:connector-curvature="0"
     style="fill:currentColor" />
  <path
     d="m 78.7072,3.7239728 c 0.236,0 0.452,0.124 0.452,0.38 0,0.284 -0.208,0.48 -0.396,0.592 -0.136,0.084 -0.292,0.132 -0.452,0.132 -0.236,0 -0.452,-0.124 -0.452,-0.38 0,-0.284 0.212,-0.48 0.4,-0.592 0.136,-0.084 0.288,-0.132 0.448,-0.132 z"
     id="path124"
     inkscape:connector-curvature="0"
     style="fill:currentColor" />
  <rect
     x="79.008698"
     y="1.4841728"
     width="0.1514"
     height="2.6205001"
     ry="0.050000001"
     id="rect126"
     style="fill:currentColor" />
  <path
     d="m 22.1842,5.7239728 c 0.236,0 0.452,0.124 0.452,0.38 0,0.284 -0.208,0.48 -0.396,0.592 -0.136,0.084 -0.292,0.132 -0.452,0.132 -0.236,0 -0.452,-0.124 -0.452,-0.38 0,-0.284 0.212,-0.48 0.4,-0.592 0.136,-0.084 0.288,-0.132 0.448,-0.132 z"
     id="path128"
     inkscape:connector-curvature="0"
     style="fill:currentColor" />
  <path
     d="m 14.3265,8.0919728 c -0.048,0 -0.084,-0.036 -0.084,-0.084 v -0.552 l -0.316,0.12 v 0.616 c 0,0.048 -0.036,0.084 -0.084,0.084 -0.048,0 -0.084,-0.036 -0.084,-0.084 v -0.552 l -0.088,0.032 c -0.012,0.004 -0.024,0.008 -0.036,0.008 -0.052,0 -0.1,-0.044 -0.1,-0.1 v -0.216 c 0,-0.04 0.024,-0.08 0.064,-0.096 l 0.16,-0.06 v -0.62 l -0.088,0.036 c -0.012,0.004 -0.024,0.004 -0.036,0.004 -0.052,0 -0.1,-0.044 -0.1,-0.1 v -0.216 c 0,-0.04 0.024,-0.076 0.064,-0.092 l 0.16,-0.06 v -0.616 c 0,-0.048 0.036,-0.084 0.084,-0.084 0.048,0 0.084,0.036 0.084,0.084 v 0.552 l 0.316,-0.12 v -0.616 c 0,-0.048 0.036,-0.084 0.084,-0.084 0.048,0 0.084,0.036 0.084,0.084 v 0.552 l 0.088,-0.032 c 0.012,-0.004 0.024,-0.008 0.036,-0.008 0.052,0 0.1,0.044 0.1,0.1 v 0.216 c 0,0.04 -0.024,0.08 -0.064,0.096 l -0.16,0.06 v 0.62 l 0.088,-0.036 c 0.012,-0.004 0.024,-0.004 0.036,-0.004 0.052,0 0.1,0.044 0.1,0.1 v 0.216 c 0,0.04 -0.024,0.076 -0.064,0.092 l -0.16,0.06 v 0.616 c 0,0.048 -0.036,0.084 -0.084,0.084 z m -0.4,-1.564 v 0.616 l 0.316,-0.12 v -0.616 z"
     id="path130"
     inkscape:connector-curvature="0"
     style="fill:currentColor" />
  <path
     d="m 19.6834,6.2239728 c 0.236,0 0.452,0.124 0.452,0.38 0,0.284 -0.208,0.48 -0.396,0.592 -0.136,0.084 -0.292,0.132 -0.452,0.132 -0.236,0 -0.452,-0.124 -0.452,-0.38 0,-0.284 0.212,-0.48 0.4,-0.592 0.136,-0.084 0.288,-0.132 0.448,-0.132 z"
     id="path132"
     inkscape:connector-curvature="0"
     style="fill:currentColor" />
  <rect
     x="19.9848"
     y="3.7759728"
     width="0.1514"
     height="2.8287001"
     ry="0.050000001"
     id="rect134"
     style="fill:currentColor" />
  <path
     d="m 17.6854,8.1599728 c -0.048,0 -0.084,-0.036 -0.084,-0.084 v -0.54 l -0.284,0.072 v 0.584 c 0,0.048 -0.032,0.084 -0.08,0.084 -0.048,0 -0.084,-0.036 -0.084,-0.084 v -0.54 l -0.14,0.036 c -0.008,0.004 -0.02,0.004 -0.028,0.004 -0.052,0 -0.1,-0.044 -0.1,-0.1 v -0.216 c 0,-0.044 0.032,-0.088 0.076,-0.1 l 0.192,-0.048 v -0.624 l -0.14,0.036 c -0.008,0.004 -0.02,0 -0.028,0 -0.052,0 -0.1,-0.044 -0.1,-0.1 v -0.216 c 0,-0.044 0.032,-0.084 0.076,-0.096 l 0.192,-0.048 v -0.584 c 0,-0.048 0.036,-0.084 0.084,-0.084 0.048,0 0.08,0.036 0.08,0.084 v 0.54 l 0.284,-0.076 v -0.584 c 0,-0.048 0.036,-0.084 0.084,-0.084 0.048,0 0.084,0.036 0.084,0.084 v 0.54 l 0.284,-0.072 v -0.584 c 0,-0.048 0.032,-0.084 0.08,-0.084 0.048,0 0.084,0.036 0.084,0.084 v 0.54 l 0.14,-0.036 c 0.008,-0.004 0.02,-0.004 0.028,-0.004 0.052,0 0.1,0.044 0.1,0.1 v 0.216 c 0,0.044 -0.032,0.088 -0.076,0.1 l -0.192,0.048 v 0.624 l 0.14,-0.036 c 0.008,-0.004 0.02,0 0.028,0 0.052,0 0.1,0.044 0.1,0.1 v 0.216 c 0,0.044 -0.032,0.084 -0.076,0.096 l -0.192,0.048 v 0.584 c 0,0.048 -0.036,0.084 -0.084,0.084 -0.048,0 -0.08,-0.036 -0.08,-0.084 v -0.54 l -0.284,0.076 v 0.584 c 0,0.048 -0.036,0.084 -0.084,0.084 z m -0.368,-1.6 v 0.624 l 0.284,-0.072 v -0.628 z m 0.736,-0.192 -0.284,0.072 v 0.628 l 0.284,-0.076 v -0.624 z"
     id="path136"
     inkscape:connector-curvature="0"
     style="fill:currentColor" />
  <rect
     x="22.485701"
     y="3.4841728"
     width="0.1514"
     height="2.6205001"
     ry="0.050000001"
     id="rect138"
     style="fill:currentColor" />
  <path
     d="m 25.1351,5.7239728 c 0.236,0 0.452,0.124 0.452,0.38 0,0.284 -0.208,0.48 -0.396,0.592 -0.136,0.084 -0.292,0.132 -0.452,0.132 -0.236,0 -0.452,-0.124 -0.452,-0.38 0,-0.284 0.212,-0.48 0.4,-0.592 0.136,-0.084 0.288,-0.132 0.448,-0.132 z"
     id="path140"
     inkscape:connector-curvature="0"
     style="fill:currentColor" />
  <rect
     x="25.436501"
     y="3.4841728"
     width="0.1514"
     height="2.6205001"
     ry="0.050000001"
     id="rect142"
     style="fill:currentColor" />
  <path
     d="m 23.6691,7.5239728 c 0,0.048 -0.036,0.08 -0.084,0.08 -0.048,0 -0.08,-0.032 -0.08,-0.08 v -0.448 l -0.116,0.068 c -0.016,0.008 -0.036,0.016 -0.052,0.016 -0.052,0 -0.1,-0.044 -0.1,-0.104 v -0.216 c 0,-0.036 0.016,-0.064 0.048,-0.084 l 0.22,-0.132 v -0.6 l -0.116,0.068 c -0.016,0.008 -0.036,0.016 -0.052,0.016 -0.052,0 -0.1,-0.04 -0.1,-0.1 v -0.216 c 0,-0.036 0.016,-0.068 0.048,-0.088 l 0.22,-0.128 v -0.548 c 0,-0.048 0.032,-0.08 0.08,-0.08 0.048,0 0.084,0.032 0.084,0.08 v 0.448 l 0.116,-0.068 c 0.016,-0.008 0.036,-0.016 0.052,-0.016 0.052,0 0.1,0.044 0.1,0.104 v 0.216 c 0,0.036 -0.016,0.064 -0.048,0.084 l -0.22,0.132 v 0.6 l 0.116,-0.068 c 0.016,-0.008 0.036,-0.016 0.052,-0.016 0.052,0 0.1,0.04 0.1,0.1 v 0.216 c 0,0.036 -0.016,0.068 -0.048,0.088 l -0.22,0.128 v 0.548 z"
     id="path144"
     inkscape:connector-curvature="0"
     style="fill:currentColor" />
  <path
     d="m 9.5309,6.2239728 c 0.236,0 0.452,0.124 0.452,0.38 0,0.284 -0.208,0.48 -0.396,0.592 -0.136,0.084 -0.292,0.132 -0.452,0.132 -0.236,0 -0.452,-0.124 -0.452,-0.38 0,-0.284 0.212,-0.48 0.4,-0.592 0.136,-0.084 0.288,-0.132 0.448,-0.132 z"
     id="path146"
     inkscape:connector-curvature="0"
     style="fill:currentColor" />
  <path
     d="m 2.316,3.7199728 c 0.012,0 0.028,-0.004 0.04,-0.004 0.628,0 1.032,0.516 1.032,1.052 0,0.308 -0.132,0.62 -0.432,0.844 -0.088,0.064 -0.184,0.116 -0.288,0.148 0.012,0.132 0.016,0.264 0.016,0.396 0,0.084 0,0.164 -0.004,0.248 -0.028,0.484 -0.364,0.916 -0.844,0.916 -0.432,0 -0.784,-0.352 -0.784,-0.788 0,-0.232 0.216,-0.412 0.452,-0.412 0.216,0 0.38,0.188 0.38,0.412 0,0.208 -0.172,0.38 -0.38,0.38 -0.036,0 -0.072,-0.004 -0.108,-0.016 0.1,0.148 0.264,0.244 0.452,0.244 0.38,0 0.624,-0.372 0.648,-0.764 0.004,-0.076 0.008,-0.152 0.008,-0.228 0,-0.116 -0.004,-0.232 -0.012,-0.348 -0.116,0.02 -0.232,0.032 -0.352,0.032 -0.756,0 -1.332,-0.692 -1.332,-1.504 0,-0.708 0.516,-1.232 0.976,-1.772 -0.08,-0.248 -0.16,-0.496 -0.192,-0.756 -0.028,-0.208 -0.028,-0.42 -0.028,-0.632 0,-0.45599997 0.216,-0.88399997 0.588,-1.15199997 0.016,-0.012 0.032,-0.01600000111 0.048,-0.01600000111 0.02,0 0.036,0.0080000011 0.052,0.02000000111 0.288,0.332 0.54,0.972 0.54,1.42399997 0,0.568 -0.336,1.02 -0.704,1.456 0.084,0.272 0.16,0.544 0.228,0.82 z m 0.336,1.86 c 0.26,-0.096 0.44,-0.376 0.44,-0.644 0,-0.352 -0.256,-0.7 -0.668,-0.752 0.096,0.456 0.176,0.908 0.228,1.396 z m -1.544,-0.904 c 0,0.532 0.512,0.972 1.044,0.972 0.108,0 0.22,-0.004 0.324,-0.02 -0.052,-0.504 -0.14,-0.976 -0.24,-1.448 -0.316,0.032 -0.496,0.24 -0.496,0.472 0,0.172 0.1,0.352 0.32,0.48 0.02,0.02 0.028,0.044 0.028,0.068 0,0.048 -0.04,0.092 -0.092,0.092 -0.012,0 -0.028,-0.004 -0.04,-0.008 -0.324,-0.172 -0.472,-0.46 -0.472,-0.744 0,-0.356 0.24,-0.708 0.652,-0.8 -0.056,-0.228 -0.12,-0.452 -0.188,-0.676 -0.42,0.488 -0.84,0.972 -0.84,1.612 z M 2.412,0.62397283 c -0.396,0.184 -0.644,0.57999997 -0.644,1.01599997 0,0.284 0.084,0.52 0.156,0.752 0.312,-0.388 0.568,-0.796 0.568,-1.296 0,-0.20399997 -0.016,-0.28799997 -0.08,-0.47199997 z"
     id="path148"
     inkscape:connector-curvature="0"
     style="fill:currentColor" />
  <path
     d="m 6.424,3.6559728 c -0.192,0 -0.288,-0.16 -0.288,-0.288 0,-0.148 0.104,-0.3 0.28,-0.3 0.012,0 0.024,0.004 0.036,0.004 -0.104,-0.144 -0.268,-0.236 -0.452,-0.236 -0.428,0 -0.452,0.296 -0.452,0.756 0,0.06 0.004,0.12 0.004,0.184 0,0.064 -0.004,0.124 -0.004,0.184 0,0.46 0.024,0.756 0.452,0.756 0.312,0 0.532,-0.28 0.604,-0.596 0.008,-0.032 0.032,-0.044 0.056,-0.044 0.028,0 0.06,0.02 0.06,0.056 0,0.38 -0.412,0.704 -0.72,0.704 -0.272,0 -0.548,-0.08 -0.736,-0.28 -0.196,-0.208 -0.264,-0.496 -0.264,-0.78 0,-0.284 0.068,-0.572 0.264,-0.78 0.188,-0.2 0.464,-0.28 0.736,-0.28 0.344,0 0.624,0.268 0.684,0.612 0.004,0.016 0.004,0.036 0.004,0.052 0,0.152 -0.12,0.276 -0.264,0.276 z"
     id="path150"
     inkscape:connector-curvature="0"
     style="fill:currentColor" />
  <rect
     x="9.8323002"
     y="3.7759728"
     width="0.1514"
     height="2.8287001"
     ry="0.050000001"
     id="rect152"
     style="fill:currentColor" />
  <path
     d="m 12.4817,6.2239728 c 0.236,0 0.452,0.124 0.452,0.38 0,0.284 -0.208,0.48 -0.396,0.592 -0.136,0.084 -0.292,0.132 -0.452,0.132 -0.236,0 -0.452,-0.124 -0.452,-0.38 0,-0.284 0.212,-0.48 0.4,-0.592 0.136,-0.084 0.288,-0.132 0.448,-0.132 z"
     id="path154"
     inkscape:connector-curvature="0"
     style="fill:currentColor" />
  <rect
     x="12.7832"
     y="3.7759728"
     width="0.1514"
     height="2.8287001"
     ry="0.050000001"
     id="rect156"
     style="fill:currentColor" />
  <path
     d="m 11.0157,8.0239728 c 0,0.048 -0.036,0.08 -0.084,0.08 -0.048,0 -0.08,-0.032 -0.08,-0.08 v -0.448 l -0.116,0.068 c -0.016,0.008 -0.036,0.016 -0.052,0.016 -0.052,0 -0.1,-0.044 -0.1,-0.104 v -0.216 c 0,-0.036 0.016,-0.064 0.048,-0.084 l 0.22,-0.132 v -0.6 l -0.116,0.068 c -0.016,0.008 -0.036,0.016 -0.052,0.016 -0.052,0 -0.1,-0.04 -0.1,-0.1 v -0.216 c 0,-0.036 0.016,-0.068 0.048,-0.088 l 0.22,-0.128 v -0.548 c 0,-0.048 0.032,-0.08 0.08,-0.08 0.048,0 0.084,0.032 0.084,0.08 v 0.448 l 0.116,-0.068 c 0.016,-0.008 0.036,-0.016 0.052,-0.016 0.052,0 0.1,0.044 0.1,0.104 v 0.216 c 0,0.036 -0.016,0.064 -0.048,0.084 l -0.22,0.132 v 0.6 l 0.116,-0.068 c 0.016,-0.008 0.036,-0.016 0.052,-0.016 0.052,0 0.1,0.04 0.1,0.1 v 0.216 c 0,0.036 -0.016,0.068 -0.048,0.088 l -0.22,0.128 v 0.548 z"
     id="path158"
     inkscape:connector-curvature="0"
     style="fill:currentColor" />
  <path
     d="m 15.8325,6.2239728 c 0.236,0 0.452,0.124 0.452,0.38 0,0.284 -0.208,0.48 -0.396,0.592 -0.136,0.084 -0.292,0.132 -0.452,0.132 -0.236,0 -0.452,-0.124 -0.452,-0.38 0,-0.284 0.212,-0.48 0.4,-0.592 0.136,-0.084 0.288,-0.132 0.448,-0.132 z"
     id="path160"
     inkscape:connector-curvature="0"
     style="fill:currentColor" />
  <rect
     x="16.134001"
     y="3.7759728"
     width="0.1514"
     height="2.8287001"
     ry="0.050000001"
     id="rect162"
     style="fill:currentColor" />
  <path
     d="m 37.6579,7.0239728 c 0,0.048 -0.036,0.08 -0.084,0.08 -0.048,0 -0.08,-0.032 -0.08,-0.08 v -0.448 l -0.116,0.068 c -0.016,0.008 -0.036,0.016 -0.052,0.016 -0.052,0 -0.1,-0.044 -0.1,-0.104 v -0.216 c 0,-0.036 0.016,-0.064 0.048,-0.084 l 0.22,-0.132 v -0.6 l -0.116,0.068 c -0.016,0.008 -0.036,0.016 -0.052,0.016 -0.052,0 -0.1,-0.04 -0.1,-0.1 v -0.216 c 0,-0.036 0.016,-0.068 0.048,-0.088 l 0.22,-0.128 v -0.548 c 0,-0.048 0.032,-0.08 0.08,-0.08 0.048,0 0.084,0.032 0.084,0.08 v 0.448 l 0.116,-0.068 c 0.016,-0.008 0.036,-0.016 0.052,-0.016 0.052,0 0.1,0.044 0.1,0.104 v 0.216 c 0,0.036 -0.016,0.064 -0.048,0.084 l -0.22,0.132 v 0.6 l 0.116,-0.068 c 0.016,-0.008 0.036,-0.016 0.052,-0.016 0.052,0 0.1,0.04 0.1,0.1 v 0.216 c 0,0.036 -0.016,0.068 -0.048,0.088 l -0.22,0.128 v 0.548 z"
     id="path164"
     inkscape:connector-curvature="0"
     style="fill:currentColor" />
  <path
     d="m 36.1731,5.2239728 c 0.236,0 0.452,0.124 0.452,0.38 0,0.284 -0.208,0.48 -0.396,0.592 -0.136,0.084 -0.292,0.132 -0.452,0.132 -0.236,0 -0.452,-0.124 -0.452,-0.38 0,-0.284 0.212,-0.48 0.4,-0.592 0.136,-0.084 0.288,-0.132 0.448,-0.132 z"
     id="path166"
     inkscape:connector-curvature="0"
     style="fill:currentColor" />
  <rect
     x="36.474499"
     y="2.7759728"
     width="0.1514"
     height="2.8287001"
     ry="0.050000001"
     id="rect168"
     style="fill:currentColor" />
  <rect
     x="39.4254"
     y="2.7759728"
     width="0.1514"
     height="2.8287001"
     ry="0.050000001"
     id="rect170"
     style="fill:currentColor" />
  <path
     d="m 39.1239,5.2239728 c 0.236,0 0.452,0.124 0.452,0.38 0,0.284 -0.208,0.48 -0.396,0.592 -0.136,0.084 -0.292,0.132 -0.452,0.132 -0.236,0 -0.452,-0.124 -0.452,-0.38 0,-0.284 0.212,-0.48 0.4,-0.592 0.136,-0.084 0.288,-0.132 0.448,-0.132 z"
     id="path172"
     inkscape:connector-curvature="0"
     style="fill:currentColor" />
  <rect
     x="32.638199"
     y="3.4841728"
     width="0.1514"
     height="2.6205001"
     ry="0.050000001"
     id="rect174"
     style="fill:currentColor" />
  <path
     d="m 26.9799,7.5919728 c -0.048,0 -0.084,-0.036 -0.084,-0.084 v -0.552 l -0.316,0.12 v 0.616 c 0,0.048 -0.036,0.084 -0.084,0.084 -0.048,0 -0.084,-0.036 -0.084,-0.084 v -0.552 l -0.088,0.032 c -0.012,0.004 -0.024,0.008 -0.036,0.008 -0.052,0 -0.1,-0.044 -0.1,-0.1 v -0.216 c 0,-0.04 0.024,-0.08 0.064,-0.096 l 0.16,-0.06 v -0.62 l -0.088,0.036 c -0.012,0.004 -0.024,0.004 -0.036,0.004 -0.052,0 -0.1,-0.044 -0.1,-0.1 v -0.216 c 0,-0.04 0.024,-0.076 0.064,-0.092 l 0.16,-0.06 v -0.616 c 0,-0.048 0.036,-0.084 0.084,-0.084 0.048,0 0.084,0.036 0.084,0.084 v 0.552 l 0.316,-0.12 v -0.616 c 0,-0.048 0.036,-0.084 0.084,-0.084 0.048,0 0.084,0.036 0.084,0.084 v 0.552 l 0.088,-0.032 c 0.012,-0.004 0.024,-0.008 0.036,-0.008 0.052,0 0.1,0.044 0.1,0.1 v 0.216 c 0,0.04 -0.024,0.08 -0.064,0.096 l -0.16,0.06 v 0.62 l 0.088,-0.036 c 0.012,-0.004 0.024,-0.004 0.036,-0.004 0.052,0 0.1,0.044 0.1,0.1 v 0.216 c 0,0.04 -0.024,0.076 -0.064,0.092 l -0.16,0.06 v 0.616 c 0,0.048 -0.036,0.084 -0.084,0.084 z m -0.4,-1.564 v 0.616 l 0.316,-0.12 v -0.616 z"
     id="path176"
     inkscape:connector-curvature="0"
     style="fill:currentColor" />
  <path
     d="m 30.3387,7.6599728 c -0.048,0 -0.084,-0.036 -0.084,-0.084 v -0.54 l -0.284,0.072 v 0.584 c 0,0.048 -0.032,0.084 -0.08,0.084 -0.048,0 -0.084,-0.036 -0.084,-0.084 v -0.54 l -0.14,0.036 c -0.008,0.004 -0.02,0.004 -0.028,0.004 -0.052,0 -0.1,-0.044 -0.1,-0.1 v -0.216 c 0,-0.044 0.032,-0.088 0.076,-0.1 l 0.192,-0.048 v -0.624 l -0.14,0.036 c -0.008,0.004 -0.02,0 -0.028,0 -0.052,0 -0.1,-0.044 -0.1,-0.1 v -0.216 c 0,-0.044 0.032,-0.084 0.076,-0.096 l 0.192,-0.048 v -0.584 c 0,-0.048 0.036,-0.084 0.084,-0.084 0.048,0 0.08,0.036 0.08,0.084 v 0.54 l 0.284,-0.076 v -0.584 c 0,-0.048 0.036,-0.084 0.084,-0.084 0.048,0 0.084,0.036 0.084,0.084 v 0.54 l 0.284,-0.072 v -0.584 c 0,-0.048 0.032,-0.084 0.08,-0.084 0.048,0 0.084,0.036 0.084,0.084 v 0.54 l 0.14,-0.036 c 0.008,-0.004 0.02,-0.004 0.028,-0.004 0.052,0 0.1,0.044 0.1,0.1 v 0.216 c 0,0.044 -0.032,0.088 -0.076,0.1 l -0.192,0.048 v 0.624 l 0.14,-0.036 c 0.008,-0.004 0.02,0 0.028,0 0.052,0 0.1,0.044 0.1,0.1 v 0.216 c 0,0.044 -0.032,0.084 -0.076,0.096 l -0.192,0.048 v 0.584 c 0,0.048 -0.036,0.084 -0.084,0.084 -0.048,0 -0.08,-0.036 -0.08,-0.084 v -0.54 l -0.284,0.076 v 0.584 c 0,0.048 -0.036,0.084 -0.084,0.084 z m -0.368,-1.6 v 0.624 l 0.284,-0.072 v -0.628 z m 0.736,-0.192 -0.284,0.072 v 0.628 l 0.284,-0.076 v -0.624 z"
     id="path178"
     inkscape:connector-curvature="0"
     style="fill:currentColor" />
  <path
     d="m 32.3367,5.7239728 c 0.236,0 0.452,0.124 0.452,0.38 0,0.284 -0.208,0.48 -0.396,0.592 -0.136,0.084 -0.292,0.132 -0.452,0.132 -0.236,0 -0.452,-0.124 -0.452,-0.38 0,-0.284 0.212,-0.48 0.4,-0.592 0.136,-0.084 0.288,-0.132 0.448,-0.132 z"
     id="path180"
     inkscape:connector-curvature="0"
     style="fill:currentColor" />
  <rect
     x="41.926201"
     y="2.4841728"
     width="0.1514"
     height="2.6205001"
     ry="0.050000001"
     id="rect182"
     style="fill:currentColor" />
  <path
     d="m 41.6247,4.7239728 c 0.236,0 0.452,0.124 0.452,0.38 0,0.284 -0.208,0.48 -0.396,0.592 -0.136,0.084 -0.292,0.132 -0.452,0.132 -0.236,0 -0.452,-0.124 -0.452,-0.38 0,-0.284 0.212,-0.48 0.4,-0.592 0.136,-0.084 0.288,-0.132 0.448,-0.132 z"
     id="path184"
     inkscape:connector-curvature="0"
     style="fill:currentColor" />
  <rect
     x="28.787399"
     y="3.4841728"
     width="0.1514"
     height="2.6205001"
     ry="0.050000001"
     id="rect186"
     style="fill:currentColor" />
  <path
     d="m 28.4859,5.7239728 c 0.236,0 0.452,0.124 0.452,0.38 0,0.284 -0.208,0.48 -0.396,0.592 -0.136,0.084 -0.292,0.132 -0.452,0.132 -0.236,0 -0.452,-0.124 -0.452,-0.38 0,-0.284 0.212,-0.48 0.4,-0.592 0.136,-0.084 0.288,-0.132 0.448,-0.132 z"
     id="path188"
     inkscape:connector-curvature="0"
     style="fill:currentColor" />
  <text
     font-size="2.1999"
     id="text190"
     style="font-size:2.19989991px;text-anchor:start;fill:currentColor;font-family:serif"
     x="56.905499"
     y="202.43718">
    <tspan
       id="tspan192" />
  </text>
</svg>
