<?xml version="1.0" encoding="UTF-8" standalone="no"?>
<svg
   xmlns:dc="http://purl.org/dc/elements/1.1/"
   xmlns:cc="http://creativecommons.org/ns#"
   xmlns:rdf="http://www.w3.org/1999/02/22-rdf-syntax-ns#"
   xmlns:svg="http://www.w3.org/2000/svg"
   xmlns="http://www.w3.org/2000/svg"
   xmlns:xlink="http://www.w3.org/1999/xlink"
   xmlns:sodipodi="http://sodipodi.sourceforge.net/DTD/sodipodi-0.dtd"
   xmlns:inkscape="http://www.inkscape.org/namespaces/inkscape"
   version="1.2"
   width="678.62012"
   height="96.757141"
   viewBox="0 0 136.23302 19.423995"
   id="svg2"
   inkscape:version="0.48.2 r9819"
   sodipodi:docname="test.svg">
  <metadata
     id="metadata504">
    <rdf:RDF>
      <cc:Work
         rdf:about="">
        <dc:format>image/svg+xml</dc:format>
        <dc:type
           rdf:resource="http://purl.org/dc/dcmitype/StillImage" />
      </cc:Work>
    </rdf:RDF>
  </metadata>
  <defs
     id="defs502" />
  <sodipodi:namedview
     pagecolor="#ffffff"
     bordercolor="#666666"
     borderopacity="1"
     objecttolerance="10"
     gridtolerance="10"
     guidetolerance="10"
     inkscape:pageopacity="0"
     inkscape:pageshadow="2"
     inkscape:window-width="769"
     inkscape:window-height="480"
     id="namedview500"
     showgrid="false"
     fit-margin-top="0"
     fit-margin-left="0"
     fit-margin-right="0"
     fit-margin-bottom="0"
     inkscape:zoom="0.22425739"
     inkscape:cx="342.00597"
     inkscape:cy="-406.72594"
     inkscape:window-x="0"
     inkscape:window-y="0"
     inkscape:window-maximized="0"
     inkscape:current-layer="svg2" />
  <!-- Page: 1/1 -->
  <text
     font-size="2.1999"
     id="text4"
     style="font-size:2.19989991px;text-anchor:start;fill:currentColor;font-family:serif"
     x="1.082414"
     y="-1.0000272">
    <tspan
       id="tspan6" />
  </text>
  <line
     x1="11.810414"
     y1="5.7759728"
     x2="136.17482"
     y2="5.7759728"
     id="line8"
     style="stroke:currentColor;stroke-width:0.1164;stroke-linecap:round;stroke-linejoin:round" />
  <line
     x1="11.810414"
     y1="4.7759728"
     x2="136.17482"
     y2="4.7759728"
     id="line10"
     style="stroke:currentColor;stroke-width:0.1164;stroke-linecap:round;stroke-linejoin:round" />
  <line
     x1="11.810414"
     y1="3.7759728"
     x2="136.17482"
     y2="3.7759728"
     id="line12"
     style="stroke:currentColor;stroke-width:0.1164;stroke-linecap:round;stroke-linejoin:round" />
  <line
     x1="11.810414"
     y1="2.7759728"
     x2="136.17482"
     y2="2.7759728"
     id="line14"
     style="stroke:currentColor;stroke-width:0.1164;stroke-linecap:round;stroke-linejoin:round" />
  <line
     x1="11.810414"
     y1="1.7759728"
     x2="136.17482"
     y2="1.7759728"
     id="line16"
     style="stroke:currentColor;stroke-width:0.1164;stroke-linecap:round;stroke-linejoin:round" />
  <rect
     x="97.810814"
     y="1.7759728"
     width="0.2212"
     height="4"
     ry="0"
     id="rect18"
     style="fill:currentColor" />
  <rect
     x="57.897114"
     y="1.7759728"
     width="0.2212"
     height="4"
     ry="0"
     id="rect20"
     style="fill:currentColor" />
  <rect
     x="136.01181"
     y="1.7759728"
     width="0.2212"
     height="4"
     ry="0"
     id="rect22"
     style="fill:currentColor" />
  <rect
     x="49.073711"
     y="6.6677728"
     width="1.9962"
     height="0.2164"
     ry="0.1082"
     id="rect24"
     style="fill:currentColor" />
  <rect
     x="43.720314"
     y="6.6677728"
     width="1.9962"
     height="0.2164"
     ry="0.1082"
     id="rect26"
     style="fill:currentColor" />
  <rect
     x="38.867012"
     y="6.6677728"
     width="1.9962"
     height="0.2164"
     ry="0.1082"
     id="rect28"
     style="fill:currentColor" />
  <rect
     x="34.013714"
     y="6.6677728"
     width="1.9962"
     height="0.2164"
     ry="0.1082"
     id="rect30"
     style="fill:currentColor" />
  <rect
     x="29.160315"
     y="6.6677728"
     width="1.9962"
     height="0.2164"
     ry="0.1082"
     id="rect32"
     style="fill:currentColor" />
  <rect
     x="24.693514"
     y="6.6677728"
     width="2.0095999"
     height="0.2164"
     ry="0.1082"
     id="rect34"
     style="fill:currentColor" />
  <rect
     x="19.914715"
     y="6.6677728"
     width="2.3415"
     height="0.2164"
     ry="0.1082"
     id="rect36"
     style="fill:currentColor" />
  <rect
     x="101.38851"
     y="2.7759728"
     width="0.1514"
     height="2.8287001"
     ry="0.050000001"
     id="rect38"
     style="fill:currentColor" />
  <a
     xlink:href="textedit://C:/Users/tikeda/Documents/git/LotusRoot/sco.txt:4:0:1"
     id="a40"
     transform="translate(-6.0307859,-4.5566272)">
    <path
       transform="matrix(0.004,0,0,-0.004,106.2699,10.3326)"
       d="m 212,138 c 59,0 113,-31 113,-95 0,-71 -52,-120 -99,-148 -34,-21 -73,-33 -113,-33 -59,0 -113,31 -113,95 0,71 53,120 100,148 34,21 72,33 112,33 z"
       id="path42"
       inkscape:connector-curvature="0"
       style="fill:currentColor" />
  </a>
  <path
     d="m 92.510214,4.2759728 c 0.032,-0.02 0.072,-0.028 0.108,-0.028 0.036,0 0.072,0.008 0.104,0.028 l -0.012,0.768 0.408,-0.092 h 0.016 c 0.04,0 0.076,0.032 0.076,0.072 0.004,0.82 0.012,1.636 0.016,2.456 0,0.052 0.02,0.072 0.052,0.072 0.068,0 0.192,-0.092 0.304,-0.156 0.008,-0.004 0.016,-0.008 0.024,-0.008 0.024,0 0.048,0.024 0.048,0.048 0,0.008 0,0.02 -0.008,0.028 -0.2,0.288 -0.344,0.608 -0.476,0.936 -0.008,0.016 -0.02,0.024 -0.036,0.024 -0.016,0 -0.028,-0.008 -0.036,-0.024 -0.132,-0.328 -0.272,-0.648 -0.472,-0.936 -0.008,-0.008 -0.012,-0.02 -0.012,-0.028 0,-0.024 0.024,-0.048 0.048,-0.048 0.008,0 0.016,0.004 0.024,0.008 0.112,0.064 0.236,0.156 0.304,0.156 0.032,0 0.052,-0.02 0.052,-0.072 0.004,-0.324 0.004,-0.648 0.008,-0.972 l -0.416,0.092 h -0.016 c -0.04,0 -0.076,-0.032 -0.076,-0.072 z m 0.548,1.06 -0.352,0.076 -0.012,0.804 0.36,-0.08 z"
     id="path44"
     inkscape:connector-curvature="0"
     style="fill:currentColor" />
  <rect
     x="94.719215"
     y="2.7807729"
     width="0.1514"
     height="2.8238001"
     ry="0.050000001"
     id="rect46"
     style="fill:currentColor" />
  <a
     xlink:href="textedit://C:/Users/tikeda/Documents/git/LotusRoot/sco.txt:3:43:44"
     id="a48"
     transform="translate(-6.0307859,-4.5566272)">
    <path
       transform="matrix(0.004,0,0,-0.004,99.6005,10.3326)"
       d="m 212,138 c 59,0 113,-31 113,-95 0,-71 -52,-120 -99,-148 -34,-21 -73,-33 -113,-33 -59,0 -113,31 -113,95 0,71 53,120 100,148 34,21 72,33 112,33 z"
       id="path50"
       inkscape:connector-curvature="0"
       style="fill:currentColor" />
  </a>
  <path
     d="m 87.988914,7.6599728 c -0.048,0 -0.084,-0.036 -0.084,-0.084 v -0.54 l -0.284,0.072 v 0.584 c 0,0.048 -0.032,0.084 -0.08,0.084 -0.048,0 -0.084,-0.036 -0.084,-0.084 v -0.54 l -0.14,0.036 c -0.008,0.004 -0.02,0.004 -0.028,0.004 -0.052,0 -0.1,-0.044 -0.1,-0.1 v -0.216 c 0,-0.044 0.032,-0.088 0.076,-0.1 l 0.192,-0.048 v -0.624 l -0.14,0.036 c -0.008,0.004 -0.02,0 -0.028,0 -0.052,0 -0.1,-0.044 -0.1,-0.1 v -0.216 c 0,-0.044 0.032,-0.084 0.076,-0.096 l 0.192,-0.048 v -0.584 c 0,-0.048 0.036,-0.084 0.084,-0.084 0.048,0 0.08,0.036 0.08,0.084 v 0.54 l 0.284,-0.076 v -0.584 c 0,-0.048 0.036,-0.084 0.084,-0.084 0.048,0 0.084,0.036 0.084,0.084 v 0.54 l 0.284,-0.072 v -0.584 c 0,-0.048 0.032,-0.084 0.08,-0.084 0.048,0 0.084,0.036 0.084,0.084 v 0.54 l 0.14,-0.036 c 0.008,-0.004 0.02,-0.004 0.028,-0.004 0.052,0 0.1,0.044 0.1,0.1 v 0.216 c 0,0.044 -0.032,0.088 -0.076,0.1 l -0.192,0.048 v 0.624 l 0.14,-0.036 c 0.008,-0.004 0.02,0 0.028,0 0.052,0 0.1,0.044 0.1,0.1 v 0.216 c 0,0.044 -0.032,0.084 -0.076,0.096 l -0.192,0.048 v 0.584 c 0,0.048 -0.036,0.084 -0.084,0.084 -0.048,0 -0.08,-0.036 -0.08,-0.084 v -0.54 l -0.284,0.076 v 0.584 c 0,0.048 -0.036,0.084 -0.084,0.084 z m -0.368,-1.6 v 0.624 l 0.284,-0.072 v -0.628 z m 0.736,-0.192 -0.284,0.072 v 0.628 l 0.284,-0.076 v -0.624 z"
     id="path52"
     inkscape:connector-curvature="0"
     style="fill:currentColor" />
  <path
     d="m 99.163514,4.2759728 c 0.032,-0.02 0.072,-0.028 0.108,-0.028 0.036,0 0.072,0.008 0.104,0.028 l -0.012,0.768 0.408,-0.092 h 0.016 c 0.04,0 0.076,0.032 0.076,0.072 l 0.032,2.252 c -0.032,0.02 -0.072,0.028 -0.108,0.028 -0.036,0 -0.072,-0.008 -0.104,-0.028 l 0.008,-0.768 -0.404,0.092 h -0.016 c -0.04,0 -0.076,-0.032 -0.076,-0.072 z m 0.544,1.06 -0.348,0.076 -0.012,0.804 0.352,-0.076 z"
     id="path54"
     inkscape:connector-curvature="0"
     style="fill:currentColor" />
  <a
     xlink:href="textedit://C:/Users/tikeda/Documents/git/LotusRoot/sco.txt:4:4:5"
     id="a56"
     transform="translate(-6.0307859,-4.5566272)">
    <path
       transform="matrix(0.004,0,0,-0.004,110.7168,10.3326)"
       d="m 212,138 c 59,0 113,-31 113,-95 0,-71 -52,-120 -99,-148 -34,-21 -73,-33 -113,-33 -59,0 -113,31 -113,95 0,71 53,120 100,148 34,21 72,33 112,33 z"
       id="path58"
       inkscape:connector-curvature="0"
       style="fill:currentColor" />
  </a>
  <rect
     x="105.83551"
     y="2.7759728"
     width="0.1514"
     height="2.8287001"
     ry="0.050000001"
     id="rect60"
     style="fill:currentColor" />
  <rect
     x="75.228416"
     y="3.4841728"
     width="0.1514"
     height="2.6205001"
     ry="0.050000001"
     id="rect62"
     style="fill:currentColor" />
  <path
     d="m 73.420914,7.5919728 c -0.048,0 -0.084,-0.036 -0.084,-0.084 v -0.552 l -0.316,0.12 v 0.9 c 0,0.052 0.02,0.076 0.052,0.076 0.068,0 0.196,-0.092 0.308,-0.156 0.04,-0.024 0.084,0.02 0.056,0.06 -0.204,0.288 -0.332,0.616 -0.464,0.944 -0.008,0.016 -0.024,0.024 -0.036,0.024 -0.012,0 -0.024,-0.008 -0.032,-0.024 -0.132,-0.328 -0.26,-0.656 -0.464,-0.944 -0.004,-0.008 -0.008,-0.016 -0.008,-0.024 0,-0.032 0.032,-0.056 0.064,-0.036 0.112,0.064 0.24,0.156 0.308,0.156 0.032,0 0.048,-0.024 0.048,-0.076 v -0.836 l -0.088,0.032 c -0.012,0.004 -0.024,0.008 -0.036,0.008 -0.052,0 -0.1,-0.044 -0.1,-0.1 v -0.216 c 0,-0.04 0.024,-0.08 0.064,-0.096 l 0.16,-0.06 v -0.62 l -0.088,0.036 c -0.012,0.004 -0.024,0.004 -0.036,0.004 -0.052,0 -0.1,-0.044 -0.1,-0.1 v -0.216 c 0,-0.04 0.024,-0.076 0.064,-0.092 l 0.16,-0.06 v -0.616 c 0,-0.048 0.036,-0.084 0.084,-0.084 0.048,0 0.084,0.036 0.084,0.084 v 0.552 l 0.316,-0.12 v -0.616 c 0,-0.048 0.036,-0.084 0.084,-0.084 0.048,0 0.084,0.036 0.084,0.084 v 0.552 l 0.088,-0.032 c 0.012,-0.004 0.024,-0.008 0.036,-0.008 0.052,0 0.1,0.044 0.1,0.1 v 0.216 c 0,0.04 -0.024,0.08 -0.064,0.096 l -0.16,0.06 v 0.62 l 0.088,-0.036 c 0.012,-0.004 0.024,-0.004 0.036,-0.004 0.052,0 0.1,0.044 0.1,0.1 v 0.216 c 0,0.04 -0.024,0.076 -0.064,0.092 l -0.16,0.06 v 0.616 c 0,0.048 -0.036,0.084 -0.084,0.084 z m -0.4,-1.564 v 0.616 l 0.316,-0.12 v -0.616 z"
     id="path64"
     inkscape:connector-curvature="0"
     style="fill:currentColor" />
  <polygon
     transform="translate(21.584614,3.7759728)"
     points="0.05,-0.3 4.5483,-0.3 4.5483,0.3 0.05,0.3 "
     id="polygon66"
     style="fill:currentColor;stroke:currentColor;stroke-width:0.1;stroke-linecap:round;stroke-linejoin:round" />
  <a
     xlink:href="textedit://C:/Users/tikeda/Documents/git/LotusRoot/sco.txt:3:22:23"
     id="a68"
     transform="translate(-6.0307859,-4.5566272)">
    <path
       transform="matrix(0.004,0,0,-0.004,84.9631,10.8326)"
       d="m 212,138 c 59,0 113,-31 113,-95 0,-71 -52,-120 -99,-148 -34,-21 -73,-33 -113,-33 -59,0 -113,31 -113,95 0,71 53,120 100,148 34,21 72,33 112,33 z"
       id="path70"
       inkscape:connector-curvature="0"
       style="fill:currentColor" />
  </a>
  <rect
     x="80.081711"
     y="3.4841728"
     width="0.1514"
     height="2.6205001"
     ry="0.050000001"
     id="rect72"
     style="fill:currentColor" />
  <path
     d="m 78.274314,7.5919728 c -0.048,0 -0.084,-0.036 -0.084,-0.084 v -0.552 l -0.316,0.12 v 0.616 c 0,0.048 -0.036,0.084 -0.084,0.084 -0.048,0 -0.084,-0.036 -0.084,-0.084 v -0.552 l -0.088,0.032 c -0.012,0.004 -0.024,0.008 -0.036,0.008 -0.052,0 -0.1,-0.044 -0.1,-0.1 v -0.216 c 0,-0.04 0.024,-0.08 0.064,-0.096 l 0.16,-0.06 v -0.62 l -0.088,0.036 c -0.012,0.004 -0.024,0.004 -0.036,0.004 -0.052,0 -0.1,-0.044 -0.1,-0.1 v -0.216 c 0,-0.04 0.024,-0.076 0.064,-0.092 l 0.16,-0.06 v -0.616 c 0,-0.048 0.036,-0.084 0.084,-0.084 0.048,0 0.084,0.036 0.084,0.084 v 0.552 l 0.316,-0.12 v -0.616 c 0,-0.048 0.036,-0.084 0.084,-0.084 0.048,0 0.084,0.036 0.084,0.084 v 0.552 l 0.088,-0.032 c 0.012,-0.004 0.024,-0.008 0.036,-0.008 0.052,0 0.1,0.044 0.1,0.1 v 0.216 c 0,0.04 -0.024,0.08 -0.064,0.096 l -0.16,0.06 v 0.62 l 0.088,-0.036 c 0.012,-0.004 0.024,-0.004 0.036,-0.004 0.052,0 0.1,0.044 0.1,0.1 v 0.216 c 0,0.04 -0.024,0.076 -0.064,0.092 l -0.16,0.06 v 0.616 c 0,0.048 -0.036,0.084 -0.084,0.084 z m -0.4,-1.564 v 0.616 l 0.316,-0.12 v -0.616 z"
     id="path74"
     inkscape:connector-curvature="0"
     style="fill:currentColor" />
  <a
     xlink:href="textedit://C:/Users/tikeda/Documents/git/LotusRoot/sco.txt:3:15:16"
     id="a76"
     transform="translate(-6.0307859,-4.5566272)">
    <path
       transform="matrix(0.004,0,0,-0.004,80.1097,10.8326)"
       d="m 212,138 c 59,0 113,-31 113,-95 0,-71 -52,-120 -99,-148 -34,-21 -73,-33 -113,-33 -59,0 -113,31 -113,95 0,71 53,120 100,148 34,21 72,33 112,33 z"
       id="path78"
       inkscape:connector-curvature="0"
       style="fill:currentColor" />
  </a>
  <a
     xlink:href="textedit://C:/Users/tikeda/Documents/git/LotusRoot/sco.txt:3:28:29"
     id="a80"
     transform="translate(-6.0307859,-4.5566272)">
    <path
       transform="matrix(0.004,0,0,-0.004,89.8164,10.8326)"
       d="m 212,138 c 59,0 113,-31 113,-95 0,-71 -52,-120 -99,-148 -34,-21 -73,-33 -113,-33 -59,0 -113,31 -113,95 0,71 53,120 100,148 34,21 72,33 112,33 z"
       id="path82"
       inkscape:connector-curvature="0"
       style="fill:currentColor" />
  </a>
  <rect
     x="84.935013"
     y="3.4841728"
     width="0.1514"
     height="2.6205001"
     ry="0.050000001"
     id="rect84"
     style="fill:currentColor" />
  <path
     d="m 83.127614,7.5919728 c -0.048,0 -0.084,-0.036 -0.084,-0.084 v -0.552 l -0.316,0.12 v 0.616 c 0,0.048 -0.036,0.084 -0.084,0.084 -0.048,0 -0.084,-0.036 -0.084,-0.084 v -0.552 l -0.088,0.032 c -0.012,0.004 -0.024,0.008 -0.036,0.008 -0.052,0 -0.1,-0.044 -0.1,-0.1 v -0.216 c 0,-0.04 0.024,-0.08 0.064,-0.096 l 0.16,-0.06 v -0.62 l -0.088,0.036 c -0.012,0.004 -0.024,0.004 -0.036,0.004 -0.052,0 -0.1,-0.044 -0.1,-0.1 v -0.216 c 0,-0.04 0.024,-0.076 0.064,-0.092 l 0.16,-0.06 v -0.616 c 0,-0.048 0.036,-0.084 0.084,-0.084 0.048,0 0.084,0.036 0.084,0.084 v 0.552 l 0.316,-0.12 v -0.9 c 0,-0.052 -0.02,-0.076 -0.052,-0.076 -0.068,0 -0.196,0.092 -0.308,0.156 -0.04,0.024 -0.084,-0.02 -0.056,-0.06 0.204,-0.288 0.332,-0.616 0.464,-0.944 0.008,-0.016 0.024,-0.024 0.036,-0.024 0.012,0 0.024,0.008 0.032,0.024 0.132,0.328 0.26,0.656 0.464,0.944 0.004,0.008 0.008,0.016 0.008,0.024 0,0.032 -0.032,0.056 -0.064,0.036 -0.112,-0.064 -0.24,-0.156 -0.308,-0.156 -0.032,0 -0.048,0.024 -0.048,0.076 v 0.836 l 0.088,-0.032 c 0.012,-0.004 0.024,-0.008 0.036,-0.008 0.052,0 0.1,0.044 0.1,0.1 v 0.216 c 0,0.04 -0.024,0.08 -0.064,0.096 l -0.16,0.06 v 0.62 l 0.088,-0.036 c 0.012,-0.004 0.024,-0.004 0.036,-0.004 0.052,0 0.1,0.044 0.1,0.1 v 0.216 c 0,0.04 -0.024,0.076 -0.064,0.092 l -0.16,0.06 v 0.616 c 0,0.048 -0.036,0.084 -0.084,0.084 z m -0.4,-1.564 v 0.616 l 0.316,-0.12 v -0.616 z"
     id="path86"
     inkscape:connector-curvature="0"
     style="fill:currentColor" />
  <a
     xlink:href="textedit://C:/Users/tikeda/Documents/git/LotusRoot/sco.txt:3:35:36"
     id="a88"
     transform="translate(-6.0307859,-4.5566272)">
    <path
       transform="matrix(0.004,0,0,-0.004,95.1697,10.8326)"
       d="m 212,138 c 59,0 113,-31 113,-95 0,-71 -52,-120 -99,-148 -34,-21 -73,-33 -113,-33 -59,0 -113,31 -113,95 0,71 53,120 100,148 34,21 72,33 112,33 z"
       id="path90"
       inkscape:connector-curvature="0"
       style="fill:currentColor" />
  </a>
  <rect
     x="90.288414"
     y="3.0629728"
     width="0.1514"
     height="3.0416999"
     ry="0.050000001"
     id="rect92"
     style="fill:currentColor" />
  <rect
     x="132.92012"
     y="2.4841728"
     width="0.1514"
     height="2.6205001"
     ry="0.050000001"
     id="rect94"
     style="fill:currentColor" />
  <a
     xlink:href="textedit://C:/Users/tikeda/Documents/git/LotusRoot/sco.txt:4:35:36"
     id="a96"
     transform="translate(-6.0307859,-4.5566272)">
    <path
       transform="matrix(0.004,0,0,-0.004,137.8015,9.8326)"
       d="m 212,138 c 59,0 113,-31 113,-95 0,-71 -52,-120 -99,-148 -34,-21 -73,-33 -113,-33 -59,0 -113,31 -113,95 0,71 53,120 100,148 34,21 72,33 112,33 z"
       id="path98"
       inkscape:connector-curvature="0"
       style="fill:currentColor" />
  </a>
  <path
     d="m 126.29931,6.5239728 c 0,0.048 -0.036,0.08 -0.084,0.08 -0.048,0 -0.08,-0.032 -0.08,-0.08 v -0.448 l -0.116,0.068 c -0.016,0.008 -0.036,0.016 -0.052,0.016 -0.052,0 -0.1,-0.044 -0.1,-0.104 v -0.216 c 0,-0.036 0.016,-0.064 0.048,-0.084 l 0.22,-0.132 v -0.6 l -0.116,0.068 c -0.016,0.008 -0.036,0.016 -0.052,0.016 -0.052,0 -0.1,-0.04 -0.1,-0.1 v -0.216 c 0,-0.036 0.016,-0.068 0.048,-0.088 l 0.22,-0.128 v -0.548 c 0,-0.048 0.032,-0.08 0.08,-0.08 0.048,0 0.084,0.032 0.084,0.08 v 0.448 l 0.116,-0.068 c 0.016,-0.008 0.036,-0.016 0.052,-0.016 0.052,0 0.1,0.044 0.1,0.104 v 0.216 c 0,0.036 -0.016,0.064 -0.048,0.084 l -0.22,0.132 v 0.6 l 0.116,-0.068 c 0.016,-0.008 0.036,-0.016 0.052,-0.016 0.052,0 0.1,0.04 0.1,0.1 v 0.216 c 0,0.036 -0.016,0.068 -0.048,0.088 l -0.22,0.128 v 0.548 z"
     id="path100"
     inkscape:connector-curvature="0"
     style="fill:currentColor" />
  <rect
     x="128.06682"
     y="2.4841728"
     width="0.1514"
     height="2.6205001"
     ry="0.050000001"
     id="rect102"
     style="fill:currentColor" />
  <a
     xlink:href="textedit://C:/Users/tikeda/Documents/git/LotusRoot/sco.txt:4:29:30"
     id="a104"
     transform="translate(-6.0307859,-4.5566272)">
    <path
       transform="matrix(0.004,0,0,-0.004,132.9481,9.8326)"
       d="m 212,138 c 59,0 113,-31 113,-95 0,-71 -52,-120 -99,-148 -34,-21 -73,-33 -113,-33 -59,0 -113,31 -113,95 0,71 53,120 100,148 34,21 72,33 112,33 z"
       id="path106"
       inkscape:connector-curvature="0"
       style="fill:currentColor" />
  </a>
  <path
     d="m 121.99641,4.4519728 h 0.016 c 0.04,0 0.076,0.032 0.076,0.072 l 0.032,2.252 c -0.032,0.02 -0.072,0.028 -0.108,0.028 -0.036,0 -0.072,-0.008 -0.104,-0.028 l 0.008,-0.768 -0.404,0.092 h -0.016 c -0.04,0 -0.076,-0.032 -0.076,-0.072 -0.004,-0.82 -0.012,-1.636 -0.016,-2.456 0,-0.052 -0.02,-0.072 -0.052,-0.072 -0.068,0 -0.192,0.092 -0.304,0.156 -0.008,0.004 -0.016,0.008 -0.024,0.008 -0.024,0 -0.048,-0.024 -0.048,-0.048 0,-0.008 0,-0.02 0.008,-0.028 0.2,-0.288 0.344,-0.608 0.476,-0.936 0.008,-0.016 0.02,-0.024 0.036,-0.024 0.016,0 0.028,0.008 0.036,0.024 0.132,0.328 0.272,0.648 0.472,0.936 0.008,0.008 0.008,0.02 0.008,0.028 0,0.024 -0.02,0.048 -0.044,0.048 -0.008,0 -0.016,-0.004 -0.024,-0.008 -0.112,-0.064 -0.24,-0.156 -0.308,-0.156 -0.032,0 -0.052,0.02 -0.052,0.072 -0.004,0.324 0,0.648 -0.004,0.972 z m -0.064,0.384 -0.356,0.08 -0.004,0.8 0.352,-0.076 z"
     id="path108"
     inkscape:connector-curvature="0"
     style="fill:currentColor" />
  <path
     d="m 131.11271,6.5919728 c -0.048,0 -0.084,-0.036 -0.084,-0.084 v -0.552 l -0.316,0.12 v 0.9 c 0,0.052 0.02,0.076 0.052,0.076 0.068,0 0.196,-0.092 0.308,-0.156 0.04,-0.024 0.084,0.02 0.056,0.06 -0.204,0.288 -0.332,0.616 -0.464,0.944 -0.008,0.016 -0.024,0.024 -0.036,0.024 -0.012,0 -0.024,-0.008 -0.032,-0.024 -0.132,-0.328 -0.26,-0.656 -0.464,-0.944 -0.004,-0.008 -0.008,-0.016 -0.008,-0.024 0,-0.032 0.032,-0.056 0.064,-0.036 0.112,0.064 0.24,0.156 0.308,0.156 0.032,0 0.048,-0.024 0.048,-0.076 v -0.836 l -0.088,0.032 c -0.012,0.004 -0.024,0.008 -0.036,0.008 -0.052,0 -0.1,-0.044 -0.1,-0.1 v -0.216 c 0,-0.04 0.024,-0.08 0.064,-0.096 l 0.16,-0.06 v -0.62 l -0.088,0.036 c -0.012,0.004 -0.024,0.004 -0.036,0.004 -0.052,0 -0.1,-0.044 -0.1,-0.1 v -0.216 c 0,-0.04 0.024,-0.076 0.064,-0.092 l 0.16,-0.06 v -0.616 c 0,-0.048 0.036,-0.084 0.084,-0.084 0.048,0 0.084,0.036 0.084,0.084 v 0.552 l 0.316,-0.12 v -0.616 c 0,-0.048 0.036,-0.084 0.084,-0.084 0.048,0 0.084,0.036 0.084,0.084 v 0.552 l 0.088,-0.032 c 0.012,-0.004 0.024,-0.008 0.036,-0.008 0.052,0 0.1,0.044 0.1,0.1 v 0.216 c 0,0.04 -0.024,0.08 -0.064,0.096 l -0.16,0.06 v 0.62 l 0.088,-0.036 c 0.012,-0.004 0.024,-0.004 0.036,-0.004 0.052,0 0.1,0.044 0.1,0.1 v 0.216 c 0,0.04 -0.024,0.076 -0.064,0.092 l -0.16,0.06 v 0.616 c 0,0.048 -0.036,0.084 -0.084,0.084 z m -0.4,-1.564 v 0.616 l 0.316,-0.12 v -0.616 z"
     id="path110"
     inkscape:connector-curvature="0"
     style="fill:currentColor" />
  <polygon
     transform="translate(128.06681,2.4841728)"
     points="0.05,-0.3 4.9547,-0.3 4.9547,0.3 0.05,0.3 "
     id="polygon112"
     style="fill:currentColor;stroke:currentColor;stroke-width:0.1;stroke-linecap:round;stroke-linejoin:round" />
  <polygon
     transform="translate(119.16661,2.4841728)"
     points="0.05,-0.3 4.5483,-0.3 4.5483,0.3 0.05,0.3 "
     id="polygon114"
     style="fill:currentColor;stroke:currentColor;stroke-width:0.1;stroke-linecap:round;stroke-linejoin:round" />
  <polygon
     transform="translate(110.28881,2.7759728)"
     points="0.05,-0.3 4.5322,-0.5918 4.5322,0.0082 0.05,0.3 "
     id="polygon116"
     style="fill:currentColor;stroke:currentColor;stroke-width:0.1;stroke-linecap:round;stroke-linejoin:round" />
  <polygon
     transform="translate(101.38861,2.7759728)"
     points="0.05,-0.3 4.5483,-0.3 4.5483,0.3 0.05,0.3 "
     id="polygon118"
     style="fill:currentColor;stroke:currentColor;stroke-width:0.1;stroke-linecap:round;stroke-linejoin:round" />
  <polygon
     transform="translate(90.288414,3.0677728)"
     points="0.05,-0.3 4.5322,-0.5918 4.5322,0.0082 0.05,0.3 "
     id="polygon120"
     style="fill:currentColor;stroke:currentColor;stroke-width:0.1;stroke-linecap:round;stroke-linejoin:round" />
  <polygon
     transform="translate(80.081714,3.4841728)"
     points="0.05,-0.3 4.9547,-0.3 4.9547,0.3 0.05,0.3 "
     id="polygon122"
     style="fill:currentColor;stroke:currentColor;stroke-width:0.1;stroke-linecap:round;stroke-linejoin:round" />
  <polygon
     transform="translate(70.375114,3.4841728)"
     points="0.05,-0.3 4.9547,-0.3 4.9547,0.3 0.05,0.3 "
     id="polygon124"
     style="fill:currentColor;stroke:currentColor;stroke-width:0.1;stroke-linecap:round;stroke-linejoin:round" />
  <polygon
     transform="translate(61.474814,3.4841728)"
     points="0.05,-0.3 4.5483,-0.3 4.5483,0.3 0.05,0.3 "
     id="polygon126"
     style="fill:currentColor;stroke:currentColor;stroke-width:0.1;stroke-linecap:round;stroke-linejoin:round" />
  <polygon
     transform="translate(50.398114,3.7759728)"
     points="0.05,-0.3 4.5322,-0.5918 4.5322,0.0082 0.05,0.3 "
     id="polygon128"
     style="fill:currentColor;stroke:currentColor;stroke-width:0.1;stroke-linecap:round;stroke-linejoin:round" />
  <polygon
     transform="translate(40.191514,3.7759728)"
     points="0.05,-0.3 4.9547,-0.3 4.9547,0.3 0.05,0.3 "
     id="polygon130"
     style="fill:currentColor;stroke:currentColor;stroke-width:0.1;stroke-linecap:round;stroke-linejoin:round" />
  <polygon
     transform="translate(30.484814,3.7759728)"
     points="0.05,-0.3 4.9547,-0.3 4.9547,0.3 0.05,0.3 "
     id="polygon132"
     style="fill:currentColor;stroke:currentColor;stroke-width:0.1;stroke-linecap:round;stroke-linejoin:round" />
  <path
     d="m 104.21841,4.9519728 h 0.016 c 0.04,0 0.076,0.032 0.076,0.072 l 0.032,2.252 c -0.032,0.02 -0.072,0.028 -0.108,0.028 -0.036,0 -0.072,-0.008 -0.104,-0.028 l 0.008,-0.768 -0.404,0.092 h -0.016 c -0.04,0 -0.076,-0.032 -0.076,-0.072 -0.004,-0.82 -0.012,-1.636 -0.016,-2.456 0,-0.052 -0.02,-0.072 -0.052,-0.072 -0.068,0 -0.192,0.092 -0.304,0.156 -0.008,0.004 -0.016,0.008 -0.024,0.008 -0.024,0 -0.048,-0.024 -0.048,-0.048 0,-0.008 0,-0.02 0.008,-0.028 0.2,-0.288 0.344,-0.608 0.476,-0.936 0.008,-0.016 0.02,-0.024 0.036,-0.024 0.016,0 0.028,0.008 0.036,0.024 0.132,0.328 0.272,0.648 0.472,0.936 0.008,0.008 0.008,0.02 0.008,0.028 0,0.024 -0.02,0.048 -0.044,0.048 -0.008,0 -0.016,-0.004 -0.024,-0.008 -0.112,-0.064 -0.24,-0.156 -0.308,-0.156 -0.032,0 -0.052,0.02 -0.052,0.072 -0.004,0.324 0,0.648 -0.004,0.972 z m -0.064,0.384 -0.356,0.08 -0.004,0.8 0.352,-0.076 z"
     id="path134"
     inkscape:connector-curvature="0"
     style="fill:currentColor" />
  <a
     xlink:href="textedit://C:/Users/tikeda/Documents/git/LotusRoot/sco.txt:4:9:10"
     id="a136"
     transform="translate(-6.0307859,-4.5566272)">
    <path
       transform="matrix(0.004,0,0,-0.004,115.1701,10.3326)"
       d="m 212,138 c 59,0 113,-31 113,-95 0,-71 -52,-120 -99,-148 -34,-21 -73,-33 -113,-33 -59,0 -113,31 -113,95 0,71 53,120 100,148 34,21 72,33 112,33 z"
       id="path138"
       inkscape:connector-curvature="0"
       style="fill:currentColor" />
  </a>
  <rect
     x="110.28881"
     y="2.7711728"
     width="0.1514"
     height="2.8334999"
     ry="0.050000001"
     id="rect140"
     style="fill:currentColor" />
  <path
     d="m 108.52131,7.0239728 c 0,0.048 -0.036,0.08 -0.084,0.08 -0.048,0 -0.08,-0.032 -0.08,-0.08 v -0.448 l -0.116,0.068 c -0.016,0.008 -0.036,0.016 -0.052,0.016 -0.052,0 -0.1,-0.044 -0.1,-0.104 v -0.216 c 0,-0.036 0.016,-0.064 0.048,-0.084 l 0.22,-0.132 v -0.6 l -0.116,0.068 c -0.016,0.008 -0.036,0.016 -0.052,0.016 -0.052,0 -0.1,-0.04 -0.1,-0.1 v -0.216 c 0,-0.036 0.016,-0.068 0.048,-0.088 l 0.22,-0.128 v -0.548 c 0,-0.048 0.032,-0.08 0.08,-0.08 0.048,0 0.084,0.032 0.084,0.08 v 0.448 l 0.116,-0.068 c 0.016,-0.008 0.036,-0.016 0.052,-0.016 0.052,0 0.1,0.044 0.1,0.104 v 0.216 c 0,0.036 -0.016,0.064 -0.048,0.084 l -0.22,0.132 v 0.6 l 0.116,-0.068 c 0.016,-0.008 0.036,-0.016 0.052,-0.016 0.052,0 0.1,0.04 0.1,0.1 v 0.216 c 0,0.036 -0.016,0.068 -0.048,0.088 l -0.22,0.128 v 0.548 z"
     id="path142"
     inkscape:connector-curvature="0"
     style="fill:currentColor" />
  <a
     xlink:href="textedit://C:/Users/tikeda/Documents/git/LotusRoot/sco.txt:4:15:16"
     id="a144"
     transform="translate(-6.0307859,-4.5566272)">
    <path
       transform="matrix(0.004,0,0,-0.004,119.601,9.8326)"
       d="m 212,138 c 59,0 113,-31 113,-95 0,-71 -52,-120 -99,-148 -34,-21 -73,-33 -113,-33 -59,0 -113,31 -113,95 0,71 53,120 100,148 34,21 72,33 112,33 z"
       id="path146"
       inkscape:connector-curvature="0"
       style="fill:currentColor" />
  </a>
  <rect
     x="114.71961"
     y="2.4889729"
     width="0.1514"
     height="2.6156001"
     ry="0.050000001"
     id="rect148"
     style="fill:currentColor" />
  <path
     d="m 112.51071,3.7759728 c 0.032,-0.02 0.072,-0.028 0.108,-0.028 0.036,0 0.072,0.008 0.104,0.028 l -0.012,0.768 0.408,-0.092 h 0.016 c 0.04,0 0.076,0.032 0.076,0.072 0.004,0.82 0.012,1.636 0.016,2.456 0,0.052 0.02,0.072 0.052,0.072 0.068,0 0.192,-0.092 0.304,-0.156 0.008,-0.004 0.016,-0.008 0.024,-0.008 0.024,0 0.048,0.024 0.048,0.048 0,0.008 0,0.02 -0.008,0.028 -0.2,0.288 -0.344,0.608 -0.476,0.936 -0.008,0.016 -0.02,0.024 -0.036,0.024 -0.016,0 -0.028,-0.008 -0.036,-0.024 -0.132,-0.328 -0.272,-0.648 -0.472,-0.936 -0.008,-0.008 -0.012,-0.02 -0.012,-0.028 0,-0.024 0.024,-0.048 0.048,-0.048 0.008,0 0.016,0.004 0.024,0.008 0.112,0.064 0.236,0.156 0.304,0.156 0.032,0 0.052,-0.02 0.052,-0.072 0.004,-0.324 0.004,-0.648 0.008,-0.972 l -0.416,0.092 h -0.016 c -0.04,0 -0.076,-0.032 -0.076,-0.072 z m 0.548,1.06 -0.352,0.076 -0.012,0.804 0.36,-0.08 z"
     id="path150"
     inkscape:connector-curvature="0"
     style="fill:currentColor" />
  <a
     xlink:href="textedit://C:/Users/tikeda/Documents/git/LotusRoot/sco.txt:4:20:21"
     id="a152"
     transform="translate(-6.0307859,-4.5566272)">
    <path
       transform="matrix(0.004,0,0,-0.004,124.0479,9.8326)"
       d="m 212,138 c 59,0 113,-31 113,-95 0,-71 -52,-120 -99,-148 -34,-21 -73,-33 -113,-33 -59,0 -113,31 -113,95 0,71 53,120 100,148 34,21 72,33 112,33 z"
       id="path154"
       inkscape:connector-curvature="0"
       style="fill:currentColor" />
  </a>
  <rect
     x="119.16651"
     y="2.4841728"
     width="0.1514"
     height="2.6205001"
     ry="0.050000001"
     id="rect156"
     style="fill:currentColor" />
  <path
     d="m 116.94151,3.7759728 c 0.032,-0.02 0.072,-0.028 0.108,-0.028 0.036,0 0.072,0.008 0.104,0.028 l -0.012,0.768 0.408,-0.092 h 0.016 c 0.04,0 0.076,0.032 0.076,0.072 l 0.032,2.252 c -0.032,0.02 -0.072,0.028 -0.108,0.028 -0.036,0 -0.072,-0.008 -0.104,-0.028 l 0.008,-0.768 -0.404,0.092 h -0.016 c -0.04,0 -0.076,-0.032 -0.076,-0.072 z m 0.544,1.06 -0.348,0.076 -0.012,0.804 0.352,-0.076 z"
     id="path158"
     inkscape:connector-curvature="0"
     style="fill:currentColor" />
  <a
     xlink:href="textedit://C:/Users/tikeda/Documents/git/LotusRoot/sco.txt:4:24:25"
     id="a160"
     transform="translate(-6.0307859,-4.5566272)">
    <path
       transform="matrix(0.004,0,0,-0.004,128.4948,9.8326)"
       d="m 212,138 c 59,0 113,-31 113,-95 0,-71 -52,-120 -99,-148 -34,-21 -73,-33 -113,-33 -59,0 -113,31 -113,95 0,71 53,120 100,148 34,21 72,33 112,33 z"
       id="path162"
       inkscape:connector-curvature="0"
       style="fill:currentColor" />
  </a>
  <rect
     x="123.61352"
     y="2.4841728"
     width="0.1514"
     height="2.6205001"
     ry="0.050000001"
     id="rect164"
     style="fill:currentColor" />
  <rect
     x="40.191414"
     y="3.7759728"
     width="0.1514"
     height="2.8287001"
     ry="0.050000001"
     id="rect166"
     style="fill:currentColor" />
  <a
     xlink:href="textedit://C:/Users/tikeda/Documents/git/LotusRoot/sco.txt:2:32:33"
     id="a168"
     transform="translate(-6.0307859,-4.5566272)">
    <path
       transform="matrix(0.004,0,0,-0.004,45.0728,11.3326)"
       d="m 212,138 c 59,0 113,-31 113,-95 0,-71 -52,-120 -99,-148 -34,-21 -73,-33 -113,-33 -59,0 -113,31 -113,95 0,71 53,120 100,148 34,21 72,33 112,33 z"
       id="path170"
       inkscape:connector-curvature="0"
       style="fill:currentColor" />
  </a>
  <path
     d="m 33.530714,8.0919728 c -0.048,0 -0.084,-0.036 -0.084,-0.084 v -0.552 l -0.316,0.12 v 0.9 c 0,0.052 0.02,0.076 0.052,0.076 0.068,0 0.196,-0.092 0.308,-0.156 0.04,-0.024 0.084,0.02 0.056,0.06 -0.204,0.288 -0.332,0.616 -0.464,0.944 -0.008,0.016 -0.024,0.024 -0.036,0.024 -0.012,0 -0.024,-0.008 -0.032,-0.024 -0.132,-0.328 -0.26,-0.656 -0.464,-0.944 -0.004,-0.008 -0.008,-0.016 -0.008,-0.024 0,-0.032 0.032,-0.056 0.064,-0.036 0.112,0.064 0.24,0.156 0.308,0.156 0.032,0 0.048,-0.024 0.048,-0.076 v -0.836 l -0.088,0.032 c -0.012,0.004 -0.024,0.008 -0.036,0.008 -0.052,0 -0.1,-0.044 -0.1,-0.1 v -0.216 c 0,-0.04 0.024,-0.08 0.064,-0.096 l 0.16,-0.06 v -0.62 l -0.088,0.036 c -0.012,0.004 -0.024,0.004 -0.036,0.004 -0.052,0 -0.1,-0.044 -0.1,-0.1 v -0.216 c 0,-0.04 0.024,-0.076 0.064,-0.092 l 0.16,-0.06 v -0.616 c 0,-0.048 0.036,-0.084 0.084,-0.084 0.048,0 0.084,0.036 0.084,0.084 v 0.552 l 0.316,-0.12 v -0.616 c 0,-0.048 0.036,-0.084 0.084,-0.084 0.048,0 0.084,0.036 0.084,0.084 v 0.552 l 0.088,-0.032 c 0.012,-0.004 0.024,-0.008 0.036,-0.008 0.052,0 0.1,0.044 0.1,0.1 v 0.216 c 0,0.04 -0.024,0.08 -0.064,0.096 l -0.16,0.06 v 0.62 l 0.088,-0.036 c 0.012,-0.004 0.024,-0.004 0.036,-0.004 0.052,0 0.1,0.044 0.1,0.1 v 0.216 c 0,0.04 -0.024,0.076 -0.064,0.092 l -0.16,0.06 v 0.616 c 0,0.048 -0.036,0.084 -0.084,0.084 z m -0.4,-1.564 v 0.616 l 0.316,-0.12 v -0.616 z"
     id="path172"
     inkscape:connector-curvature="0"
     style="fill:currentColor" />
  <rect
     x="35.338116"
     y="3.7759728"
     width="0.1514"
     height="2.8287001"
     ry="0.050000001"
     id="rect174"
     style="fill:currentColor" />
  <a
     xlink:href="textedit://C:/Users/tikeda/Documents/git/LotusRoot/sco.txt:2:25:26"
     id="a176"
     transform="translate(-6.0307859,-4.5566272)">
    <path
       transform="matrix(0.004,0,0,-0.004,40.2195,11.3326)"
       d="m 212,138 c 59,0 113,-31 113,-95 0,-71 -52,-120 -99,-148 -34,-21 -73,-33 -113,-33 -59,0 -113,31 -113,95 0,71 53,120 100,148 34,21 72,33 112,33 z"
       id="path178"
       inkscape:connector-curvature="0"
       style="fill:currentColor" />
  </a>
  <path
     d="m 28.717314,8.0239728 c 0,0.048 -0.036,0.08 -0.084,0.08 -0.048,0 -0.08,-0.032 -0.08,-0.08 v -0.448 l -0.116,0.068 c -0.016,0.008 -0.036,0.016 -0.052,0.016 -0.052,0 -0.1,-0.044 -0.1,-0.104 v -0.216 c 0,-0.036 0.016,-0.064 0.048,-0.084 l 0.22,-0.132 v -0.6 l -0.116,0.068 c -0.016,0.008 -0.036,0.016 -0.052,0.016 -0.052,0 -0.1,-0.04 -0.1,-0.1 v -0.216 c 0,-0.036 0.016,-0.068 0.048,-0.088 l 0.22,-0.128 v -0.548 c 0,-0.048 0.032,-0.08 0.08,-0.08 0.048,0 0.084,0.032 0.084,0.08 v 0.448 l 0.116,-0.068 c 0.016,-0.008 0.036,-0.016 0.052,-0.016 0.052,0 0.1,0.044 0.1,0.104 v 0.216 c 0,0.036 -0.016,0.064 -0.048,0.084 l -0.22,0.132 v 0.6 l 0.116,-0.068 c 0.016,-0.008 0.036,-0.016 0.052,-0.016 0.052,0 0.1,0.04 0.1,0.1 v 0.216 c 0,0.036 -0.016,0.068 -0.048,0.088 l -0.22,0.128 v 0.548 z"
     id="path180"
     inkscape:connector-curvature="0"
     style="fill:currentColor" />
  <path
     d="m 38.384014,8.0919728 c -0.048,0 -0.084,-0.036 -0.084,-0.084 v -0.552 l -0.316,0.12 v 0.616 c 0,0.048 -0.036,0.084 -0.084,0.084 -0.048,0 -0.084,-0.036 -0.084,-0.084 v -0.552 l -0.088,0.032 c -0.012,0.004 -0.024,0.008 -0.036,0.008 -0.052,0 -0.1,-0.044 -0.1,-0.1 v -0.216 c 0,-0.04 0.024,-0.08 0.064,-0.096 l 0.16,-0.06 v -0.62 l -0.088,0.036 c -0.012,0.004 -0.024,0.004 -0.036,0.004 -0.052,0 -0.1,-0.044 -0.1,-0.1 v -0.216 c 0,-0.04 0.024,-0.076 0.064,-0.092 l 0.16,-0.06 v -0.616 c 0,-0.048 0.036,-0.084 0.084,-0.084 0.048,0 0.084,0.036 0.084,0.084 v 0.552 l 0.316,-0.12 v -0.616 c 0,-0.048 0.036,-0.084 0.084,-0.084 0.048,0 0.084,0.036 0.084,0.084 v 0.552 l 0.088,-0.032 c 0.012,-0.004 0.024,-0.008 0.036,-0.008 0.052,0 0.1,0.044 0.1,0.1 v 0.216 c 0,0.04 -0.024,0.08 -0.064,0.096 l -0.16,0.06 v 0.62 l 0.088,-0.036 c 0.012,-0.004 0.024,-0.004 0.036,-0.004 0.052,0 0.1,0.044 0.1,0.1 v 0.216 c 0,0.04 -0.024,0.076 -0.064,0.092 l -0.16,0.06 v 0.616 c 0,0.048 -0.036,0.084 -0.084,0.084 z m -0.4,-1.564 v 0.616 l 0.316,-0.12 v -0.616 z"
     id="path182"
     inkscape:connector-curvature="0"
     style="fill:currentColor" />
  <a
     xlink:href="textedit://C:/Users/tikeda/Documents/git/LotusRoot/sco.txt:2:38:39"
     id="a184"
     transform="translate(-6.0307859,-4.5566272)">
    <path
       transform="matrix(0.004,0,0,-0.004,49.9261,11.3326)"
       d="m 212,138 c 59,0 113,-31 113,-95 0,-71 -52,-120 -99,-148 -34,-21 -73,-33 -113,-33 -59,0 -113,31 -113,95 0,71 53,120 100,148 34,21 72,33 112,33 z"
       id="path186"
       inkscape:connector-curvature="0"
       style="fill:currentColor" />
  </a>
  <rect
     x="45.044815"
     y="3.7759728"
     width="0.1514"
     height="2.8287001"
     ry="0.050000001"
     id="rect188"
     style="fill:currentColor" />
  <path
     d="m 43.237314,8.0919728 c -0.048,0 -0.084,-0.036 -0.084,-0.084 v -0.552 l -0.316,0.12 v 0.616 c 0,0.048 -0.036,0.084 -0.084,0.084 -0.048,0 -0.084,-0.036 -0.084,-0.084 v -0.552 l -0.088,0.032 c -0.012,0.004 -0.024,0.008 -0.036,0.008 -0.052,0 -0.1,-0.044 -0.1,-0.1 v -0.216 c 0,-0.04 0.024,-0.08 0.064,-0.096 l 0.16,-0.06 v -0.62 l -0.088,0.036 c -0.012,0.004 -0.024,0.004 -0.036,0.004 -0.052,0 -0.1,-0.044 -0.1,-0.1 v -0.216 c 0,-0.04 0.024,-0.076 0.064,-0.092 l 0.16,-0.06 v -0.616 c 0,-0.048 0.036,-0.084 0.084,-0.084 0.048,0 0.084,0.036 0.084,0.084 v 0.552 l 0.316,-0.12 v -0.9 c 0,-0.052 -0.02,-0.076 -0.052,-0.076 -0.068,0 -0.196,0.092 -0.308,0.156 -0.04,0.024 -0.084,-0.02 -0.056,-0.06 0.204,-0.288 0.332,-0.616 0.464,-0.944 0.008,-0.016 0.024,-0.024 0.036,-0.024 0.012,0 0.024,0.008 0.032,0.024 0.132,0.328 0.26,0.656 0.464,0.944 0.004,0.008 0.008,0.016 0.008,0.024 0,0.032 -0.032,0.056 -0.064,0.036 -0.112,-0.064 -0.24,-0.156 -0.308,-0.156 -0.032,0 -0.048,0.024 -0.048,0.076 v 0.836 l 0.088,-0.032 c 0.012,-0.004 0.024,-0.008 0.036,-0.008 0.052,0 0.1,0.044 0.1,0.1 v 0.216 c 0,0.04 -0.024,0.08 -0.064,0.096 l -0.16,0.06 v 0.62 l 0.088,-0.036 c 0.012,-0.004 0.024,-0.004 0.036,-0.004 0.052,0 0.1,0.044 0.1,0.1 v 0.216 c 0,0.04 -0.024,0.076 -0.064,0.092 l -0.16,0.06 v 0.616 c 0,0.048 -0.036,0.084 -0.084,0.084 z m -0.4,-1.564 v 0.616 l 0.316,-0.12 v -0.616 z"
     id="path190"
     inkscape:connector-curvature="0"
     style="fill:currentColor" />
  <a
     xlink:href="textedit://C:/Users/tikeda/Documents/git/LotusRoot/sco.txt:2:10:11"
     id="a192"
     transform="translate(-6.0307859,-4.5566272)">
    <path
       transform="matrix(0.004,0,0,-0.004,26.4659,11.3326)"
       d="m 212,138 c 59,0 113,-31 113,-95 0,-71 -52,-120 -99,-148 -34,-21 -73,-33 -113,-33 -59,0 -113,31 -113,95 0,71 53,120 100,148 34,21 72,33 112,33 z"
       id="path194"
       inkscape:connector-curvature="0"
       style="fill:currentColor" />
  </a>
  <path
     d="m 14.068214,3.7199728 c 0.012,0 0.028,-0.004 0.04,-0.004 0.628,0 1.032,0.516 1.032,1.052 0,0.308 -0.132,0.62 -0.432,0.844 -0.088,0.064 -0.184,0.116 -0.288,0.148 0.012,0.132 0.016,0.264 0.016,0.396 0,0.084 0,0.164 -0.004,0.248 -0.028,0.484 -0.364,0.916 -0.844,0.916 -0.432,0 -0.784,-0.352 -0.784,-0.788 0,-0.232 0.216,-0.412 0.452,-0.412 0.216,0 0.38,0.188 0.38,0.412 0,0.208 -0.172,0.38 -0.38,0.38 -0.036,0 -0.072,-0.004 -0.108,-0.016 0.1,0.148 0.264,0.244 0.452,0.244 0.38,0 0.624,-0.372 0.648,-0.764 0.004,-0.076 0.008,-0.152 0.008,-0.228 0,-0.116 -0.004,-0.232 -0.012,-0.348 -0.116,0.02 -0.232,0.032 -0.352,0.032 -0.756,0 -1.332,-0.692 -1.332,-1.504 0,-0.708 0.516,-1.232 0.976,-1.772 -0.08,-0.248 -0.16,-0.496 -0.192,-0.756 -0.028,-0.208 -0.028,-0.42 -0.028,-0.632 0,-0.45599997 0.216,-0.88399997 0.588,-1.15199997 0.016,-0.012 0.032,-0.01600000111 0.048,-0.01600000111 0.02,0 0.036,0.0080000011 0.052,0.02000000111 0.288,0.332 0.54,0.972 0.54,1.42399997 0,0.568 -0.336,1.02 -0.704,1.456 0.084,0.272 0.16,0.544 0.228,0.82 z m 0.336,1.86 c 0.26,-0.096 0.44,-0.376 0.44,-0.644 0,-0.352 -0.256,-0.7 -0.668,-0.752 0.096,0.456 0.176,0.908 0.228,1.396 z m -1.544,-0.904 c 0,0.532 0.512,0.972 1.044,0.972 0.108,0 0.22,-0.004 0.324,-0.02 -0.052,-0.504 -0.14,-0.976 -0.24,-1.448 -0.316,0.032 -0.496,0.24 -0.496,0.472 0,0.172 0.1,0.352 0.32,0.48 0.02,0.02 0.028,0.044 0.028,0.068 0,0.048 -0.04,0.092 -0.092,0.092 -0.012,0 -0.028,-0.004 -0.04,-0.008 -0.324,-0.172 -0.472,-0.46 -0.472,-0.744 0,-0.356 0.24,-0.708 0.652,-0.8 -0.056,-0.228 -0.12,-0.452 -0.188,-0.676 -0.42,0.488 -0.84,0.972 -0.84,1.612 z m 1.304,-4.05199997 c -0.396,0.184 -0.644,0.57999997 -0.644,1.01599997 0,0.284 0.084,0.52 0.156,0.752 0.312,-0.388 0.568,-0.796 0.568,-1.296 0,-0.20399997 -0.016,-0.28799997 -0.08,-0.47199997 z"
     id="path196"
     inkscape:connector-curvature="0"
     style="fill:currentColor" />
  <a
     xlink:href="textedit://C:/Users/tikeda/Documents/git/LotusRoot/sco.txt:2:0:1"
     id="a198"
     transform="translate(-6.0307859,-4.5566272)">
    <path
       transform="matrix(0.004,0,0,-0.004,22.783,8.3326)"
       d="m 356,30 c -48,0 -72,40 -72,72 0,37 26,75 70,75 3,0 6,-1 9,-1 -26,36 -67,59 -113,59 -107,0 -113,-74 -113,-189 0,-15 1,-30 1,-46 0,-16 -1,-31 -1,-46 0,-115 6,-189 113,-189 78,0 133,70 151,149 2,8 8,11 14,11 7,0 15,-5 15,-14 0,-95 -103,-176 -180,-176 -68,0 -137,20 -184,70 C 17,-143 0,-71 0,0 c 0,71 17,143 66,195 47,50 116,70 184,70 86,0 156,-67 171,-153 1,-4 1,-9 1,-13 0,-38 -30,-69 -66,-69 z"
       id="path200"
       inkscape:connector-curvature="0"
       style="fill:currentColor" />
  </a>
  <rect
     x="21.584515"
     y="3.7759728"
     width="0.1514"
     height="2.8287001"
     ry="0.050000001"
     id="rect202"
     style="fill:currentColor" />
  <a
     xlink:href="textedit://C:/Users/tikeda/Documents/git/LotusRoot/sco.txt:2:14:15"
     id="a204"
     transform="translate(-6.0307859,-4.5566272)">
    <path
       transform="matrix(0.004,0,0,-0.004,30.9128,11.3326)"
       d="m 212,138 c 59,0 113,-31 113,-95 0,-71 -52,-120 -99,-148 -34,-21 -73,-33 -113,-33 -59,0 -113,31 -113,95 0,71 53,120 100,148 34,21 72,33 112,33 z"
       id="path206"
       inkscape:connector-curvature="0"
       style="fill:currentColor" />
  </a>
  <rect
     x="26.031513"
     y="3.7759728"
     width="0.1514"
     height="2.8287001"
     ry="0.050000001"
     id="rect208"
     style="fill:currentColor" />
  <path
     d="m 24.414414,5.9519728 h 0.016 c 0.04,0 0.076,0.032 0.076,0.072 l 0.032,2.252 c -0.032,0.02 -0.072,0.028 -0.108,0.028 -0.036,0 -0.072,-0.008 -0.104,-0.028 l 0.008,-0.768 -0.404,0.092 h -0.016 c -0.04,0 -0.076,-0.032 -0.076,-0.072 -0.004,-0.82 -0.012,-1.636 -0.016,-2.456 0,-0.052 -0.02,-0.072 -0.052,-0.072 -0.068,0 -0.192,0.092 -0.304,0.156 -0.008,0.004 -0.016,0.008 -0.024,0.008 -0.024,0 -0.048,-0.024 -0.048,-0.048 0,-0.008 0,-0.02 0.008,-0.028 0.2,-0.288 0.344,-0.608 0.476,-0.936 0.008,-0.016 0.02,-0.024 0.036,-0.024 0.016,0 0.028,0.008 0.036,0.024 0.132,0.328 0.272,0.648 0.472,0.936 0.008,0.008 0.008,0.02 0.008,0.028 0,0.024 -0.02,0.048 -0.044,0.048 -0.008,0 -0.016,-0.004 -0.024,-0.008 -0.112,-0.064 -0.24,-0.156 -0.308,-0.156 -0.032,0 -0.052,0.02 -0.052,0.072 -0.004,0.324 0,0.648 -0.004,0.972 z m -0.064,0.384 -0.356,0.08 -0.004,0.8 0.352,-0.076 z"
     id="path210"
     inkscape:connector-curvature="0"
     style="fill:currentColor" />
  <a
     xlink:href="textedit://C:/Users/tikeda/Documents/git/LotusRoot/sco.txt:2:19:20"
     id="a212"
     transform="translate(-6.0307859,-4.5566272)">
    <path
       transform="matrix(0.004,0,0,-0.004,35.3661,11.3326)"
       d="m 212,138 c 59,0 113,-31 113,-95 0,-71 -52,-120 -99,-148 -34,-21 -73,-33 -113,-33 -59,0 -113,31 -113,95 0,71 53,120 100,148 34,21 72,33 112,33 z"
       id="path214"
       inkscape:connector-curvature="0"
       style="fill:currentColor" />
  </a>
  <rect
     x="30.484814"
     y="3.7759728"
     width="0.1514"
     height="2.8287001"
     ry="0.050000001"
     id="rect216"
     style="fill:currentColor" />
  <a
     xlink:href="textedit://C:/Users/tikeda/Documents/git/LotusRoot/sco.txt:3:0:1"
     id="a218"
     transform="translate(-6.0307859,-4.5566272)">
    <path
       transform="matrix(0.004,0,0,-0.004,66.3561,10.8326)"
       d="m 212,138 c 59,0 113,-31 113,-95 0,-71 -52,-120 -99,-148 -34,-21 -73,-33 -113,-33 -59,0 -113,31 -113,95 0,71 53,120 100,148 34,21 72,33 112,33 z"
       id="path220"
       inkscape:connector-curvature="0"
       style="fill:currentColor" />
  </a>
  <rect
     x="61.474815"
     y="3.4841728"
     width="0.1514"
     height="2.6205001"
     ry="0.050000001"
     id="rect222"
     style="fill:currentColor" />
  <path
     d="m 59.249714,4.7759728 c 0.032,-0.02 0.072,-0.028 0.108,-0.028 0.036,0 0.072,0.008 0.104,0.028 l -0.012,0.768 0.408,-0.092 h 0.016 c 0.04,0 0.076,0.032 0.076,0.072 l 0.032,2.252 c -0.032,0.02 -0.072,0.028 -0.108,0.028 -0.036,0 -0.072,-0.008 -0.104,-0.028 l 0.008,-0.768 -0.404,0.092 h -0.016 c -0.04,0 -0.076,-0.032 -0.076,-0.072 z m 0.544,1.06 -0.348,0.076 -0.012,0.804 0.352,-0.076 z"
     id="path224"
     inkscape:connector-curvature="0"
     style="fill:currentColor" />
  <path
     d="m 64.304714,5.4519728 h 0.016 c 0.04,0 0.076,0.032 0.076,0.072 l 0.032,2.252 c -0.032,0.02 -0.072,0.028 -0.108,0.028 -0.036,0 -0.072,-0.008 -0.104,-0.028 l 0.008,-0.768 -0.404,0.092 h -0.016 c -0.04,0 -0.076,-0.032 -0.076,-0.072 -0.004,-0.82 -0.012,-1.636 -0.016,-2.456 0,-0.052 -0.02,-0.072 -0.052,-0.072 -0.068,0 -0.192,0.092 -0.304,0.156 -0.008,0.004 -0.016,0.008 -0.024,0.008 -0.024,0 -0.048,-0.024 -0.048,-0.048 0,-0.008 0,-0.02 0.008,-0.028 0.2,-0.288 0.344,-0.608 0.476,-0.936 0.008,-0.016 0.02,-0.024 0.036,-0.024 0.016,0 0.028,0.008 0.036,0.024 0.132,0.328 0.272,0.648 0.472,0.936 0.008,0.008 0.008,0.02 0.008,0.028 0,0.024 -0.02,0.048 -0.044,0.048 -0.008,0 -0.016,-0.004 -0.024,-0.008 -0.112,-0.064 -0.24,-0.156 -0.308,-0.156 -0.032,0 -0.052,0.02 -0.052,0.072 -0.004,0.324 0,0.648 -0.004,0.972 z m -0.064,0.384 -0.356,0.08 -0.004,0.8 0.352,-0.076 z"
     id="path226"
     inkscape:connector-curvature="0"
     style="fill:currentColor" />
  <rect
     x="65.921715"
     y="3.4841728"
     width="0.1514"
     height="2.6205001"
     ry="0.050000001"
     id="rect228"
     style="fill:currentColor" />
  <a
     xlink:href="textedit://C:/Users/tikeda/Documents/git/LotusRoot/sco.txt:3:4:5"
     id="a230"
     transform="translate(-6.0307859,-4.5566272)">
    <path
       transform="matrix(0.004,0,0,-0.004,70.8031,10.8326)"
       d="m 212,138 c 59,0 113,-31 113,-95 0,-71 -52,-120 -99,-148 -34,-21 -73,-33 -113,-33 -59,0 -113,31 -113,95 0,71 53,120 100,148 34,21 72,33 112,33 z"
       id="path232"
       inkscape:connector-curvature="0"
       style="fill:currentColor" />
  </a>
  <a
     xlink:href="textedit://C:/Users/tikeda/Documents/git/LotusRoot/sco.txt:2:45:46"
     id="a234"
     transform="translate(-6.0307859,-4.5566272)">
    <path
       transform="matrix(0.004,0,0,-0.004,55.2794,11.3326)"
       d="m 212,138 c 59,0 113,-31 113,-95 0,-71 -52,-120 -99,-148 -34,-21 -73,-33 -113,-33 -59,0 -113,31 -113,95 0,71 53,120 100,148 34,21 72,33 112,33 z"
       id="path236"
       inkscape:connector-curvature="0"
       style="fill:currentColor" />
  </a>
  <rect
     x="50.398113"
     y="3.7711728"
     width="0.1514"
     height="2.8334999"
     ry="0.050000001"
     id="rect238"
     style="fill:currentColor" />
  <path
     d="m 48.098614,8.1599728 c -0.048,0 -0.084,-0.036 -0.084,-0.084 v -0.54 l -0.284,0.072 v 0.584 c 0,0.048 -0.032,0.084 -0.08,0.084 -0.048,0 -0.084,-0.036 -0.084,-0.084 v -0.54 l -0.14,0.036 c -0.008,0.004 -0.02,0.004 -0.028,0.004 -0.052,0 -0.1,-0.044 -0.1,-0.1 v -0.216 c 0,-0.044 0.032,-0.088 0.076,-0.1 l 0.192,-0.048 v -0.624 l -0.14,0.036 c -0.008,0.004 -0.02,0 -0.028,0 -0.052,0 -0.1,-0.044 -0.1,-0.1 v -0.216 c 0,-0.044 0.032,-0.084 0.076,-0.096 l 0.192,-0.048 v -0.584 c 0,-0.048 0.036,-0.084 0.084,-0.084 0.048,0 0.08,0.036 0.08,0.084 v 0.54 l 0.284,-0.076 v -0.584 c 0,-0.048 0.036,-0.084 0.084,-0.084 0.048,0 0.084,0.036 0.084,0.084 v 0.54 l 0.284,-0.072 v -0.584 c 0,-0.048 0.032,-0.084 0.08,-0.084 0.048,0 0.084,0.036 0.084,0.084 v 0.54 l 0.14,-0.036 c 0.008,-0.004 0.02,-0.004 0.028,-0.004 0.052,0 0.1,0.044 0.1,0.1 v 0.216 c 0,0.044 -0.032,0.088 -0.076,0.1 l -0.192,0.048 v 0.624 l 0.14,-0.036 c 0.008,-0.004 0.02,0 0.028,0 0.052,0 0.1,0.044 0.1,0.1 v 0.216 c 0,0.044 -0.032,0.084 -0.076,0.096 l -0.192,0.048 v 0.584 c 0,0.048 -0.036,0.084 -0.084,0.084 -0.048,0 -0.08,-0.036 -0.08,-0.084 v -0.54 l -0.284,0.076 v 0.584 c 0,0.048 -0.036,0.084 -0.084,0.084 z m -0.368,-1.6 v 0.624 l 0.284,-0.072 v -0.628 z m 0.736,-0.192 -0.284,0.072 v 0.628 l 0.284,-0.076 v -0.624 z"
     id="path240"
     inkscape:connector-curvature="0"
     style="fill:currentColor" />
  <path
     d="m 68.607614,7.5239728 c 0,0.048 -0.036,0.08 -0.084,0.08 -0.048,0 -0.08,-0.032 -0.08,-0.08 v -0.448 l -0.116,0.068 c -0.016,0.008 -0.036,0.016 -0.052,0.016 -0.052,0 -0.1,-0.044 -0.1,-0.104 v -0.216 c 0,-0.036 0.016,-0.064 0.048,-0.084 l 0.22,-0.132 v -0.6 l -0.116,0.068 c -0.016,0.008 -0.036,0.016 -0.052,0.016 -0.052,0 -0.1,-0.04 -0.1,-0.1 v -0.216 c 0,-0.036 0.016,-0.068 0.048,-0.088 l 0.22,-0.128 v -0.548 c 0,-0.048 0.032,-0.08 0.08,-0.08 0.048,0 0.084,0.032 0.084,0.08 v 0.448 l 0.116,-0.068 c 0.016,-0.008 0.036,-0.016 0.052,-0.016 0.052,0 0.1,0.044 0.1,0.104 v 0.216 c 0,0.036 -0.016,0.064 -0.048,0.084 l -0.22,0.132 v 0.6 l 0.116,-0.068 c 0.016,-0.008 0.036,-0.016 0.052,-0.016 0.052,0 0.1,0.04 0.1,0.1 v 0.216 c 0,0.036 -0.016,0.068 -0.048,0.088 l -0.22,0.128 v 0.548 z"
     id="path242"
     inkscape:connector-curvature="0"
     style="fill:currentColor" />
  <a
     xlink:href="textedit://C:/Users/tikeda/Documents/git/LotusRoot/sco.txt:2:53:54"
     id="a244"
     transform="translate(-6.0307859,-4.5566272)">
    <path
       transform="matrix(0.004,0,0,-0.004,59.7103,10.8326)"
       d="m 212,138 c 59,0 113,-31 113,-95 0,-71 -52,-120 -99,-148 -34,-21 -73,-33 -113,-33 -59,0 -113,31 -113,95 0,71 53,120 100,148 34,21 72,33 112,33 z"
       id="path246"
       inkscape:connector-curvature="0"
       style="fill:currentColor" />
  </a>
  <rect
     x="54.828915"
     y="3.4889729"
     width="0.1514"
     height="2.6156001"
     ry="0.050000001"
     id="rect248"
     style="fill:currentColor" />
  <a
     xlink:href="textedit://C:/Users/tikeda/Documents/git/LotusRoot/sco.txt:3:9:10"
     id="a250"
     transform="translate(-6.0307859,-4.5566272)">
    <path
       transform="matrix(0.004,0,0,-0.004,75.2564,10.8326)"
       d="m 212,138 c 59,0 113,-31 113,-95 0,-71 -52,-120 -99,-148 -34,-21 -73,-33 -113,-33 -59,0 -113,31 -113,95 0,71 53,120 100,148 34,21 72,33 112,33 z"
       id="path252"
       inkscape:connector-curvature="0"
       style="fill:currentColor" />
  </a>
  <path
     d="m 52.620014,4.7759728 c 0.032,-0.02 0.072,-0.028 0.108,-0.028 0.036,0 0.072,0.008 0.104,0.028 l -0.012,0.768 0.408,-0.092 h 0.016 c 0.04,0 0.076,0.032 0.076,0.072 0.004,0.82 0.012,1.636 0.016,2.456 0,0.052 0.02,0.072 0.052,0.072 0.068,0 0.192,-0.092 0.304,-0.156 0.008,-0.004 0.016,-0.008 0.024,-0.008 0.024,0 0.048,0.024 0.048,0.048 0,0.008 0,0.02 -0.008,0.028 -0.2,0.288 -0.344,0.608 -0.476,0.936 -0.008,0.016 -0.02,0.024 -0.036,0.024 -0.016,0 -0.028,-0.008 -0.036,-0.024 -0.132,-0.328 -0.272,-0.648 -0.472,-0.936 -0.008,-0.008 -0.012,-0.02 -0.012,-0.028 0,-0.024 0.024,-0.048 0.048,-0.048 0.008,0 0.016,0.004 0.024,0.008 0.112,0.064 0.236,0.156 0.304,0.156 0.032,0 0.052,-0.02 0.052,-0.072 0.004,-0.324 0.004,-0.648 0.008,-0.972 l -0.416,0.092 h -0.016 c -0.04,0 -0.076,-0.032 -0.076,-0.072 z m 0.548,1.06 -0.352,0.076 -0.012,0.804 0.36,-0.08 z"
     id="path254"
     inkscape:connector-curvature="0"
     style="fill:currentColor" />
  <rect
     x="70.375114"
     y="3.4841728"
     width="0.1514"
     height="2.6205001"
     ry="0.050000001"
     id="rect256"
     style="fill:currentColor" />
  <line
     x1="1.140614"
     y1="17.775972"
     x2="136.17482"
     y2="17.775972"
     id="line258"
     style="stroke:currentColor;stroke-width:0.1164;stroke-linecap:round;stroke-linejoin:round" />
  <line
     x1="1.140614"
     y1="16.775972"
     x2="136.17482"
     y2="16.775972"
     id="line260"
     style="stroke:currentColor;stroke-width:0.1164;stroke-linecap:round;stroke-linejoin:round" />
  <line
     x1="1.140614"
     y1="15.775972"
     x2="136.17482"
     y2="15.775972"
     id="line262"
     style="stroke:currentColor;stroke-width:0.1164;stroke-linecap:round;stroke-linejoin:round" />
  <line
     x1="1.140614"
     y1="14.775972"
     x2="136.17482"
     y2="14.775972"
     id="line264"
     style="stroke:currentColor;stroke-width:0.1164;stroke-linecap:round;stroke-linejoin:round" />
  <line
     x1="1.140614"
     y1="13.775972"
     x2="136.17482"
     y2="13.775972"
     id="line266"
     style="stroke:currentColor;stroke-width:0.1164;stroke-linecap:round;stroke-linejoin:round" />
  <rect
     x="48.033813"
     y="13.775972"
     width="0.2212"
     height="4"
     ry="0"
     id="rect268"
     style="fill:currentColor" />
  <rect
     x="136.01181"
     y="13.775972"
     width="0.2212"
     height="4"
     ry="0"
     id="rect270"
     style="fill:currentColor" />
  <rect
     x="92.176712"
     y="13.775972"
     width="0.2212"
     height="4"
     ry="0"
     id="rect272"
     style="fill:currentColor" />
  <a
     xlink:href="textedit://C:/Users/tikeda/Documents/git/LotusRoot/sco.txt:7:0:1"
     id="a274"
     transform="translate(-6.0307859,-4.5566272)">
    <path
       transform="matrix(0.004,0,0,-0.004,101.2347,20.8326)"
       d="m 212,138 c 59,0 113,-31 113,-95 0,-71 -52,-120 -99,-148 -34,-21 -73,-33 -113,-33 -59,0 -113,31 -113,95 0,71 53,120 100,148 34,21 72,33 112,33 z"
       id="path276"
       inkscape:connector-curvature="0"
       style="fill:currentColor" />
  </a>
  <path
     d="m 94.545914,17.591973 c -0.048,0 -0.084,-0.036 -0.084,-0.084 v -0.552 l -0.316,0.12 v 0.616 c 0,0.048 -0.036,0.084 -0.084,0.084 -0.048,0 -0.084,-0.036 -0.084,-0.084 v -0.552 l -0.088,0.032 c -0.012,0.004 -0.024,0.008 -0.036,0.008 -0.052,0 -0.1,-0.044 -0.1,-0.1 v -0.216 c 0,-0.04 0.024,-0.08 0.064,-0.096 l 0.16,-0.06 v -0.62 l -0.088,0.036 c -0.012,0.004 -0.024,0.004 -0.036,0.004 -0.052,0 -0.1,-0.044 -0.1,-0.1 v -0.216 c 0,-0.04 0.024,-0.076 0.064,-0.092 l 0.16,-0.06 v -0.616 c 0,-0.048 0.036,-0.084 0.084,-0.084 0.048,0 0.084,0.036 0.084,0.084 v 0.552 l 0.316,-0.12 v -0.616 c 0,-0.048 0.036,-0.084 0.084,-0.084 0.048,0 0.084,0.036 0.084,0.084 v 0.552 l 0.088,-0.032 c 0.012,-0.004 0.024,-0.008 0.036,-0.008 0.052,0 0.1,0.044 0.1,0.1 v 0.216 c 0,0.04 -0.024,0.08 -0.064,0.096 l -0.16,0.06 v 0.62 l 0.088,-0.036 c 0.012,-0.004 0.024,-0.004 0.036,-0.004 0.052,0 0.1,0.044 0.1,0.1 v 0.216 c 0,0.04 -0.024,0.076 -0.064,0.092 l -0.16,0.06 v 0.616 c 0,0.048 -0.036,0.084 -0.084,0.084 z m -0.4,-1.564 v 0.616 l 0.316,-0.12 v -0.616 z"
     id="path278"
     inkscape:connector-curvature="0"
     style="fill:currentColor" />
  <rect
     x="96.353416"
     y="13.484173"
     width="0.1514"
     height="2.6205001"
     ry="0.050000001"
     id="rect280"
     style="fill:currentColor" />
  <rect
     x="107.58711"
     y="13.063473"
     width="0.1514"
     height="3.0411999"
     ry="0.050000001"
     id="rect282"
     style="fill:currentColor" />
  <a
     xlink:href="textedit://C:/Users/tikeda/Documents/git/LotusRoot/sco.txt:7:13:14"
     id="a284"
     transform="translate(-6.0307859,-4.5566272)">
    <path
       transform="matrix(0.004,0,0,-0.004,112.4684,20.8326)"
       d="m 212,138 c 59,0 113,-31 113,-95 0,-71 -52,-120 -99,-148 -34,-21 -73,-33 -113,-33 -59,0 -113,31 -113,95 0,71 53,120 100,148 34,21 72,33 112,33 z"
       id="path286"
       inkscape:connector-curvature="0"
       style="fill:currentColor" />
  </a>
  <path
     d="m 99.912814,17.591973 c -0.048,0 -0.084,-0.036 -0.084,-0.084 v -0.552 l -0.316,0.12 v 0.616 c 0,0.048 -0.036,0.084 -0.084,0.084 -0.048,0 -0.084,-0.036 -0.084,-0.084 v -0.552 l -0.088,0.032 c -0.012,0.004 -0.024,0.008 -0.036,0.008 -0.052,0 -0.1,-0.044 -0.1,-0.1 v -0.216 c 0,-0.04 0.024,-0.08 0.064,-0.096 l 0.16,-0.06 v -0.62 l -0.088,0.036 c -0.012,0.004 -0.024,0.004 -0.036,0.004 -0.052,0 -0.1,-0.044 -0.1,-0.1 v -0.216 c 0,-0.04 0.024,-0.076 0.064,-0.092 l 0.16,-0.06 v -0.616 c 0,-0.048 0.036,-0.084 0.084,-0.084 0.048,0 0.084,0.036 0.084,0.084 v 0.552 l 0.316,-0.12 v -0.9 c 0,-0.052 -0.02,-0.076 -0.052,-0.076 -0.068,0 -0.196,0.092 -0.308,0.156 -0.04,0.024 -0.084,-0.02 -0.056,-0.06 0.204,-0.288 0.332,-0.616 0.464,-0.944 0.008,-0.016 0.024,-0.024 0.036,-0.024 0.012,0 0.024,0.008 0.032,0.024 0.131996,0.328 0.259996,0.656 0.463996,0.944 0.004,0.008 0.008,0.016 0.008,0.024 0,0.032 -0.032,0.056 -0.064,0.036 -0.112,-0.064 -0.24,-0.156 -0.308,-0.156 -0.032,0 -0.048,0.024 -0.048,0.076 v 0.836 l 0.088,-0.032 c 0.012,-0.004 0.024,-0.008 0.036,-0.008 0.052,0 0.1,0.044 0.1,0.1 v 0.216 c 0,0.04 -0.024,0.08 -0.064,0.096 l -0.159996,0.06 v 0.62 l 0.088,-0.036 c 0.012,-0.004 0.024,-0.004 0.036,-0.004 0.052,0 0.1,0.044 0.1,0.1 v 0.216 c 0,0.04 -0.024,0.076 -0.064,0.092 l -0.159996,0.06 v 0.616 c 0,0.048 -0.036,0.084 -0.084,0.084 z m -0.4,-1.564 v 0.616 l 0.316,-0.12 v -0.616 z"
     id="path288"
     inkscape:connector-curvature="0"
     style="fill:currentColor" />
  <rect
     x="101.72021"
     y="13.484173"
     width="0.1514"
     height="2.6205001"
     ry="0.050000001"
     id="rect290"
     style="fill:currentColor" />
  <a
     xlink:href="textedit://C:/Users/tikeda/Documents/git/LotusRoot/sco.txt:7:6:7"
     id="a292"
     transform="translate(-6.0307859,-4.5566272)">
    <path
       transform="matrix(0.004,0,0,-0.004,106.6016,20.8326)"
       d="m 212,138 c 59,0 113,-31 113,-95 0,-71 -52,-120 -99,-148 -34,-21 -73,-33 -113,-33 -59,0 -113,31 -113,95 0,71 53,120 100,148 34,21 72,33 112,33 z"
       id="path294"
       inkscape:connector-curvature="0"
       style="fill:currentColor" />
  </a>
  <path
     d="m 71.123814,14.775973 c 0.032,-0.02 0.072,-0.028 0.108,-0.028 0.036,0 0.072,0.008 0.104,0.028 l -0.012,0.768 0.408,-0.092 h 0.016 c 0.04,0 0.076,0.032 0.076,0.072 l 0.032,2.252 c -0.032,0.02 -0.072,0.028 -0.108,0.028 -0.036,0 -0.072,-0.008 -0.104,-0.028 l 0.008,-0.768 -0.404,0.092 h -0.016 c -0.04,0 -0.076,-0.032 -0.076,-0.072 z m 0.544,1.06 -0.348,0.076 -0.012,0.804 0.352,-0.076 z"
     id="path296"
     inkscape:connector-curvature="0"
     style="fill:currentColor" />
  <path
     d="m 76.692314,15.451973 h 0.016 c 0.04,0 0.076,0.032 0.076,0.072 l 0.032,2.252 c -0.032,0.02 -0.072,0.028 -0.108,0.028 -0.036,0 -0.072,-0.008 -0.104,-0.028 l 0.008,-0.768 -0.404,0.092 h -0.016 c -0.04,0 -0.076,-0.032 -0.076,-0.072 -0.004,-0.82 -0.012,-1.636 -0.016,-2.456 0,-0.052 -0.02,-0.072 -0.052,-0.072 -0.068,0 -0.192,0.092 -0.304,0.156 -0.008,0.004 -0.016,0.008 -0.024,0.008 -0.024,0 -0.048,-0.024 -0.048,-0.048 0,-0.008 0,-0.02 0.008,-0.028 0.2,-0.288 0.344,-0.608 0.476,-0.936 0.008,-0.016 0.02,-0.024 0.036,-0.024 0.016,0 0.028,0.008 0.036,0.024 0.132,0.328 0.272,0.648 0.472,0.936 0.008,0.008 0.008,0.02 0.008,0.028 0,0.024 -0.02,0.048 -0.044,0.048 -0.008,0 -0.016,-0.004 -0.024,-0.008 -0.112,-0.064 -0.24,-0.156 -0.308,-0.156 -0.032,0 -0.052,0.02 -0.052,0.072 -0.004,0.324 0,0.648 -0.004,0.972 z m -0.064,0.384 -0.356,0.08 -0.004,0.8 0.352,-0.076 z"
     id="path298"
     inkscape:connector-curvature="0"
     style="fill:currentColor" />
  <rect
     x="78.309311"
     y="13.484173"
     width="0.1514"
     height="2.6205001"
     ry="0.050000001"
     id="rect300"
     style="fill:currentColor" />
  <a
     xlink:href="textedit://C:/Users/tikeda/Documents/git/LotusRoot/sco.txt:6:30:31"
     id="a302"
     transform="translate(-6.0307859,-4.5566272)">
    <path
       transform="matrix(0.004,0,0,-0.004,83.1907,20.8326)"
       d="m 212,138 c 59,0 113,-31 113,-95 0,-71 -52,-120 -99,-148 -34,-21 -73,-33 -113,-33 -59,0 -113,31 -113,95 0,71 53,120 100,148 34,21 72,33 112,33 z"
       id="path304"
       inkscape:connector-curvature="0"
       style="fill:currentColor" />
  </a>
  <rect
     x="73.348915"
     y="13.484173"
     width="0.1514"
     height="2.6205001"
     ry="0.050000001"
     id="rect306"
     style="fill:currentColor" />
  <a
     xlink:href="textedit://C:/Users/tikeda/Documents/git/LotusRoot/sco.txt:6:26:27"
     id="a308"
     transform="translate(-6.0307859,-4.5566272)">
    <path
       transform="matrix(0.004,0,0,-0.004,78.2302,20.8326)"
       d="m 212,138 c 59,0 113,-31 113,-95 0,-71 -52,-120 -99,-148 -34,-21 -73,-33 -113,-33 -59,0 -113,31 -113,95 0,71 53,120 100,148 34,21 72,33 112,33 z"
       id="path310"
       inkscape:connector-curvature="0"
       style="fill:currentColor" />
  </a>
  <polygon
     transform="translate(8.0319141,14.484173)"
     points="0.05,-0.3 5.4682,-0.3 5.4682,0.3 0.05,0.3 "
     id="polygon312"
     style="fill:currentColor;stroke:currentColor;stroke-width:0.1;stroke-linecap:round;stroke-linejoin:round" />
  <a
     xlink:href="textedit://C:/Users/tikeda/Documents/git/LotusRoot/sco.txt:6:35:36"
     id="a314"
     transform="translate(-6.0307859,-4.5566272)">
    <path
       transform="matrix(0.004,0,0,-0.004,88.1575,20.8326)"
       d="m 212,138 c 59,0 113,-31 113,-95 0,-71 -52,-120 -99,-148 -34,-21 -73,-33 -113,-33 -59,0 -113,31 -113,95 0,71 53,120 100,148 34,21 72,33 112,33 z"
       id="path316"
       inkscape:connector-curvature="0"
       style="fill:currentColor" />
  </a>
  <rect
     x="83.276215"
     y="13.484173"
     width="0.1514"
     height="2.6205001"
     ry="0.050000001"
     id="rect318"
     style="fill:currentColor" />
  <path
     d="m 81.508714,17.523973 c 0,0.048 -0.036,0.08 -0.084,0.08 -0.048,0 -0.08,-0.032 -0.08,-0.08 v -0.448 l -0.116,0.068 c -0.016,0.008 -0.036,0.016 -0.052,0.016 -0.052,0 -0.1,-0.044 -0.1,-0.104 v -0.216 c 0,-0.036 0.016,-0.064 0.048,-0.084 l 0.22,-0.132 v -0.6 l -0.116,0.068 c -0.016,0.008 -0.036,0.016 -0.052,0.016 -0.052,0 -0.1,-0.04 -0.1,-0.1 v -0.216 c 0,-0.036 0.016,-0.068 0.048,-0.088 l 0.22,-0.128 v -0.548 c 0,-0.048 0.032,-0.08 0.08,-0.08 0.048,0 0.084,0.032 0.084,0.08 v 0.448 l 0.116,-0.068 c 0.016,-0.008 0.036,-0.016 0.052,-0.016 0.052,0 0.1,0.044 0.1,0.104 v 0.216 c 0,0.036 -0.016,0.064 -0.048,0.084 l -0.22,0.132 v 0.6 l 0.116,-0.068 c 0.016,-0.008 0.036,-0.016 0.052,-0.016 0.052,0 0.1,0.04 0.1,0.1 v 0.216 c 0,0.036 -0.016,0.068 -0.048,0.088 l -0.22,0.128 v 0.548 z"
     id="path320"
     inkscape:connector-curvature="0"
     style="fill:currentColor" />
  <a
     xlink:href="textedit://C:/Users/tikeda/Documents/git/LotusRoot/sco.txt:6:41:42"
     id="a322"
     transform="translate(-6.0307859,-4.5566272)">
    <path
       transform="matrix(0.004,0,0,-0.004,93.5244,20.8326)"
       d="m 212,138 c 59,0 113,-31 113,-95 0,-71 -52,-120 -99,-148 -34,-21 -73,-33 -113,-33 -59,0 -113,31 -113,95 0,71 53,120 100,148 34,21 72,33 112,33 z"
       id="path324"
       inkscape:connector-curvature="0"
       style="fill:currentColor" />
  </a>
  <rect
     x="88.643013"
     y="13.484173"
     width="0.1514"
     height="2.6205001"
     ry="0.050000001"
     id="rect326"
     style="fill:currentColor" />
  <path
     d="m 86.835614,17.591973 c -0.048,0 -0.084,-0.036 -0.084,-0.084 v -0.552 l -0.316,0.12 v 0.9 c 0,0.052 0.02,0.076 0.052,0.076 0.068,0 0.196,-0.092 0.308,-0.156 0.04,-0.024 0.084,0.02 0.056,0.06 -0.204,0.288 -0.332,0.616 -0.464,0.944 -0.008,0.016 -0.024,0.024 -0.036,0.024 -0.012,0 -0.024,-0.008 -0.032,-0.024 -0.132,-0.328 -0.26,-0.656 -0.464,-0.944 -0.004,-0.008 -0.008,-0.016 -0.008,-0.024 0,-0.032 0.032,-0.056 0.064,-0.036 0.112,0.064 0.24,0.156 0.308,0.156 0.032,0 0.048,-0.024 0.048,-0.076 v -0.836 l -0.088,0.032 c -0.012,0.004 -0.024,0.008 -0.036,0.008 -0.052,0 -0.1,-0.044 -0.1,-0.1 v -0.216 c 0,-0.04 0.024,-0.08 0.064,-0.096 l 0.16,-0.06 v -0.62 l -0.088,0.036 c -0.012,0.004 -0.024,0.004 -0.036,0.004 -0.052,0 -0.1,-0.044 -0.1,-0.1 v -0.216 c 0,-0.04 0.024,-0.076 0.064,-0.092 l 0.16,-0.06 v -0.616 c 0,-0.048 0.036,-0.084 0.084,-0.084 0.048,0 0.084,0.036 0.084,0.084 v 0.552 l 0.316,-0.12 v -0.616 c 0,-0.048 0.036,-0.084 0.084,-0.084 0.048,0 0.084,0.036 0.084,0.084 v 0.552 l 0.088,-0.032 c 0.012,-0.004 0.024,-0.008 0.036,-0.008 0.052,0 0.1,0.044 0.1,0.1 v 0.216 c 0,0.04 -0.024,0.08 -0.064,0.096 l -0.16,0.06 v 0.62 l 0.088,-0.036 c 0.012,-0.004 0.024,-0.004 0.036,-0.004 0.052,0 0.1,0.044 0.1,0.1 v 0.216 c 0,0.04 -0.024,0.076 -0.064,0.092 l -0.16,0.06 v 0.616 c 0,0.048 -0.036,0.084 -0.084,0.084 z m -0.4,-1.564 v 0.616 l 0.316,-0.12 v -0.616 z"
     id="path328"
     inkscape:connector-curvature="0"
     style="fill:currentColor" />
  <path
     d="m 130.16731,13.775973 c 0.032,-0.02 0.072,-0.028 0.108,-0.028 0.036,0 0.072,0.008 0.104,0.028 l -0.012,0.768 0.408,-0.092 h 0.016 c 0.04,0 0.076,0.032 0.076,0.072 0.004,0.82 0.012,1.636 0.016,2.456 0,0.052 0.02,0.072 0.052,0.072 0.068,0 0.192,-0.092 0.304,-0.156 0.008,-0.004 0.016,-0.008 0.024,-0.008 0.024,0 0.048,0.024 0.048,0.048 0,0.008 0,0.02 -0.008,0.028 -0.2,0.288 -0.344,0.608 -0.476,0.936 -0.008,0.016 -0.02,0.024 -0.036,0.024 -0.016,0 -0.028,-0.008 -0.036,-0.024 -0.132,-0.328 -0.272,-0.648 -0.472,-0.936 -0.008,-0.008 -0.012,-0.02 -0.012,-0.028 0,-0.024 0.024,-0.048 0.048,-0.048 0.008,0 0.016,0.004 0.024,0.008 0.112,0.064 0.236,0.156 0.304,0.156 0.032,0 0.052,-0.02 0.052,-0.072 0.004,-0.324 0.004,-0.648 0.008,-0.972 l -0.416,0.092 h -0.016 c -0.04,0 -0.076,-0.032 -0.076,-0.072 z m 0.548,1.06 -0.352,0.076 -0.012,0.804 0.36,-0.08 z"
     id="path330"
     inkscape:connector-curvature="0"
     style="fill:currentColor" />
  <rect
     x="131.66121"
     y="15.447273"
     width="0.1514"
     height="3.0409"
     ry="0.050000001"
     id="rect332"
     style="fill:currentColor" />
  <a
     xlink:href="textedit://C:/Users/tikeda/Documents/git/LotusRoot/sco.txt:7:41:42"
     id="a334"
     transform="translate(-6.0307859,-4.5566272)">
    <path
       transform="matrix(0.004,0,0,-0.004,137.6921,19.8326)"
       d="m 212,138 c 59,0 113,-31 113,-95 0,-71 -52,-120 -99,-148 -34,-21 -73,-33 -113,-33 -59,0 -113,31 -113,95 0,71 53,120 100,148 34,21 72,33 112,33 z"
       id="path336"
       inkscape:connector-curvature="0"
       style="fill:currentColor" />
  </a>
  <path
     d="m 125.66441,17.023973 c 0,0.048 -0.036,0.08 -0.084,0.08 -0.048,0 -0.08,-0.032 -0.08,-0.08 v -0.448 l -0.116,0.068 c -0.016,0.008 -0.036,0.016 -0.052,0.016 -0.052,0 -0.1,-0.044 -0.1,-0.104 v -0.216 c 0,-0.036 0.016,-0.064 0.048,-0.084 l 0.22,-0.132 v -0.6 l -0.116,0.068 c -0.016,0.008 -0.036,0.016 -0.052,0.016 -0.052,0 -0.1,-0.04 -0.1,-0.1 v -0.216 c 0,-0.036 0.016,-0.068 0.048,-0.088 l 0.22,-0.128 v -0.548 c 0,-0.048 0.032,-0.08 0.08,-0.08 0.048,0 0.084,0.032 0.084,0.08 v 0.448 l 0.116,-0.068 c 0.016,-0.008 0.036,-0.016 0.052,-0.016 0.052,0 0.1,0.044 0.1,0.104 v 0.216 c 0,0.036 -0.016,0.064 -0.048,0.084 l -0.22,0.132 v 0.6 l 0.116,-0.068 c 0.016,-0.008 0.036,-0.016 0.052,-0.016 0.052,0 0.1,0.04 0.1,0.1 v 0.216 c 0,0.036 -0.016,0.068 -0.048,0.088 l -0.22,0.128 v 0.548 z"
     id="path338"
     inkscape:connector-curvature="0"
     style="fill:currentColor" />
  <rect
     x="39.097515"
     y="13.775972"
     width="0.1514"
     height="2.8287001"
     ry="0.050000001"
     id="rect340"
     style="fill:currentColor" />
  <polygon
     transform="translate(126.28241,18.775973)"
     points="0.05,-0.3 5.4802,-0.5918 5.4802,0.0082 0.05,0.3 "
     id="polygon342"
     style="fill:currentColor;stroke:currentColor;stroke-width:0.1;stroke-linecap:round;stroke-linejoin:round" />
  <polygon
     transform="translate(116.34881,18.775973)"
     points="0.05,-0.3 5.0682,-0.3 5.0682,0.3 0.05,0.3 "
     id="polygon344"
     style="fill:currentColor;stroke:currentColor;stroke-width:0.1;stroke-linecap:round;stroke-linejoin:round" />
  <polygon
     transform="translate(107.58711,13.067773)"
     points="0.05,-0.3 5.0457,-0.5918 5.0457,0.0082 0.05,0.3 "
     id="polygon346"
     style="fill:currentColor;stroke:currentColor;stroke-width:0.1;stroke-linecap:round;stroke-linejoin:round" />
  <polygon
     transform="translate(96.353414,13.484173)"
     points="0.05,-0.3 5.4682,-0.3 5.4682,0.3 0.05,0.3 "
     id="polygon348"
     style="fill:currentColor;stroke:currentColor;stroke-width:0.1;stroke-linecap:round;stroke-linejoin:round" />
  <polygon
     transform="translate(83.276214,13.484173)"
     points="0.05,-0.3 5.4682,-0.3 5.4682,0.3 0.05,0.3 "
     id="polygon350"
     style="fill:currentColor;stroke:currentColor;stroke-width:0.1;stroke-linecap:round;stroke-linejoin:round" />
  <polygon
     transform="translate(73.348914,13.484173)"
     points="0.05,-0.3 5.0618,-0.3 5.0618,0.3 0.05,0.3 "
     id="polygon352"
     style="fill:currentColor;stroke:currentColor;stroke-width:0.1;stroke-linecap:round;stroke-linejoin:round" />
  <polygon
     transform="translate(63.444214,13.775973)"
     points="0.05,-0.3 5.0457,-0.5918 5.0457,0.0082 0.05,0.3 "
     id="polygon354"
     style="fill:currentColor;stroke:currentColor;stroke-width:0.1;stroke-linecap:round;stroke-linejoin:round" />
  <polygon
     transform="translate(52.210514,13.775973)"
     points="0.05,-0.3 5.4682,-0.3 5.4682,0.3 0.05,0.3 "
     id="polygon356"
     style="fill:currentColor;stroke:currentColor;stroke-width:0.1;stroke-linecap:round;stroke-linejoin:round" />
  <polygon
     transform="translate(39.097614,13.775973)"
     points="0.05,-0.3 5.4682,-0.3 5.4682,0.3 0.05,0.3 "
     id="polygon358"
     style="fill:currentColor;stroke:currentColor;stroke-width:0.1;stroke-linecap:round;stroke-linejoin:round" />
  <polygon
     transform="translate(29.170314,13.775973)"
     points="0.05,-0.3 5.0618,-0.3 5.0618,0.3 0.05,0.3 "
     id="polygon360"
     style="fill:currentColor;stroke:currentColor;stroke-width:0.1;stroke-linecap:round;stroke-linejoin:round" />
  <polygon
     transform="translate(19.265514,14.067773)"
     points="0.05,-0.3 5.0457,-0.5918 5.0457,0.0082 0.05,0.3 "
     id="polygon362"
     style="fill:currentColor;stroke:currentColor;stroke-width:0.1;stroke-linecap:round;stroke-linejoin:round" />
  <rect
     x="116.34872"
     y="15.947273"
     width="0.1514"
     height="2.8287001"
     ry="0.050000001"
     id="rect364"
     style="fill:currentColor" />
  <a
     xlink:href="textedit://C:/Users/tikeda/Documents/git/LotusRoot/sco.txt:7:26:27"
     id="a366"
     transform="translate(-6.0307859,-4.5566272)">
    <path
       transform="matrix(0.004,0,0,-0.004,122.3796,20.3326)"
       d="m 212,138 c 59,0 113,-31 113,-95 0,-71 -52,-120 -99,-148 -34,-21 -73,-33 -113,-33 -59,0 -113,31 -113,95 0,71 53,120 100,148 34,21 72,33 112,33 z"
       id="path368"
       inkscape:connector-curvature="0"
       style="fill:currentColor" />
  </a>
  <path
     d="m 110.32241,14.275973 c 0.032,-0.02 0.072,-0.028 0.108,-0.028 0.036,0 0.072,0.008 0.104,0.028 l -0.012,0.768 0.408,-0.092 h 0.016 c 0.04,0 0.076,0.032 0.076,0.072 0.004,0.82 0.012,1.636 0.016,2.456 0,0.052 0.02,0.072 0.052,0.072 0.068,0 0.192,-0.092 0.304,-0.156 0.008,-0.004 0.016,-0.008 0.024,-0.008 0.024,0 0.048,0.024 0.048,0.048 0,0.008 0,0.02 -0.008,0.028 -0.2,0.288 -0.344,0.608 -0.476,0.936 -0.008,0.016 -0.02,0.024 -0.036,0.024 -0.016,0 -0.028,-0.008 -0.036,-0.024 -0.132,-0.328 -0.272,-0.648 -0.472,-0.936 -0.008,-0.008 -0.012,-0.02 -0.012,-0.028 0,-0.024 0.024,-0.048 0.048,-0.048 0.008,0 0.016,0.004 0.024,0.008 0.112,0.064 0.236,0.156 0.304,0.156 0.032,0 0.052,-0.02 0.052,-0.072 0.004,-0.324 0.004,-0.648 0.008,-0.972 l -0.416,0.092 h -0.016 c -0.04,0 -0.076,-0.032 -0.076,-0.072 z m 0.548,1.06 -0.352,0.076 -0.012,0.804 0.36,-0.08 z"
     id="path370"
     inkscape:connector-curvature="0"
     style="fill:currentColor" />
  <rect
     x="112.53142"
     y="12.780272"
     width="0.1514"
     height="2.8243001"
     ry="0.050000001"
     id="rect372"
     style="fill:currentColor" />
  <a
     xlink:href="textedit://C:/Users/tikeda/Documents/git/LotusRoot/sco.txt:7:21:22"
     id="a374"
     transform="translate(-6.0307859,-4.5566272)">
    <path
       transform="matrix(0.004,0,0,-0.004,117.4127,20.3326)"
       d="m 212,138 c 59,0 113,-31 113,-95 0,-71 -52,-120 -99,-148 -34,-21 -73,-33 -113,-33 -59,0 -113,31 -113,95 0,71 53,120 100,148 34,21 72,33 112,33 z"
       id="path376"
       inkscape:connector-curvature="0"
       style="fill:currentColor" />
  </a>
  <path
     d="m 105.28761,17.659973 c -0.048,0 -0.084,-0.036 -0.084,-0.084 v -0.54 l -0.284,0.072 v 0.584 c 0,0.048 -0.032,0.084 -0.08,0.084 -0.048,0 -0.084,-0.036 -0.084,-0.084 v -0.54 l -0.14,0.036 c -0.008,0.004 -0.02,0.004 -0.028,0.004 -0.052,0 -0.1,-0.044 -0.1,-0.1 v -0.216 c 0,-0.044 0.032,-0.088 0.076,-0.1 l 0.192,-0.048 v -0.624 l -0.14,0.036 c -0.008,0.004 -0.02,0 -0.028,0 -0.052,0 -0.1,-0.044 -0.1,-0.1 v -0.216 c 0,-0.044 0.032,-0.084 0.076,-0.096 l 0.192,-0.048 v -0.584 c 0,-0.048 0.036,-0.084 0.084,-0.084 0.048,0 0.08,0.036 0.08,0.084 v 0.54 l 0.284,-0.076 v -0.584 c 0,-0.048 0.036,-0.084 0.084,-0.084 0.048,0 0.084,0.036 0.084,0.084 v 0.54 l 0.284,-0.072 v -0.584 c 0,-0.048 0.032,-0.084 0.08,-0.084 0.048,0 0.084,0.036 0.084,0.084 v 0.54 l 0.14,-0.036 c 0.008,-0.004 0.02,-0.004 0.028,-0.004 0.052,0 0.1,0.044 0.1,0.1 v 0.216 c 0,0.044 -0.032,0.088 -0.076,0.1 l -0.192,0.048 v 0.624 l 0.14,-0.036 c 0.008,-0.004 0.02,0 0.028,0 0.052,0 0.1,0.044 0.1,0.1 v 0.216 c 0,0.044 -0.032,0.084 -0.076,0.096 l -0.192,0.048 v 0.584 c 0,0.048 -0.036,0.084 -0.084,0.084 -0.048,0 -0.08,-0.036 -0.08,-0.084 v -0.54 l -0.284,0.076 v 0.584 c 0,0.048 -0.036,0.084 -0.084,0.084 z m -0.368,-1.6 v 0.624 l 0.284,-0.072 v -0.628 z m 0.736,-0.192 -0.284,0.072 v 0.628 l 0.284,-0.076 v -0.624 z"
     id="path378"
     inkscape:connector-curvature="0"
     style="fill:currentColor" />
  <path
     d="m 115.26681,14.275973 c 0.032,-0.02 0.072,-0.028 0.108,-0.028 0.036,0 0.072,0.008 0.104,0.028 l -0.012,0.768 0.408,-0.092 h 0.016 c 0.04,0 0.076,0.032 0.076,0.072 l 0.032,2.252 c -0.032,0.02 -0.072,0.028 -0.108,0.028 -0.036,0 -0.072,-0.008 -0.104,-0.028 l 0.008,-0.768 -0.404,0.092 h -0.016 c -0.04,0 -0.076,-0.032 -0.076,-0.072 z m 0.544,1.06 -0.348,0.076 -0.012,0.804 0.352,-0.076 z"
     id="path380"
     inkscape:connector-curvature="0"
     style="fill:currentColor" />
  <a
     xlink:href="textedit://C:/Users/tikeda/Documents/git/LotusRoot/sco.txt:7:30:31"
     id="a382"
     transform="translate(-6.0307859,-4.5566272)">
    <path
       transform="matrix(0.004,0,0,-0.004,127.3464,20.3326)"
       d="m 212,138 c 59,0 113,-31 113,-95 0,-71 -52,-120 -99,-148 -34,-21 -73,-33 -113,-33 -59,0 -113,31 -113,95 0,71 53,120 100,148 34,21 72,33 112,33 z"
       id="path384"
       inkscape:connector-curvature="0"
       style="fill:currentColor" />
  </a>
  <rect
     x="121.31561"
     y="15.947273"
     width="0.1514"
     height="2.8287001"
     ry="0.050000001"
     id="rect386"
     style="fill:currentColor" />
  <path
     d="m 120.84161,14.951973 h 0.016 c 0.04,0 0.076,0.032 0.076,0.072 l 0.032,2.252 c -0.032,0.02 -0.072,0.028 -0.108,0.028 -0.036,0 -0.072,-0.008 -0.104,-0.028 l 0.008,-0.768 -0.404,0.092 h -0.016 c -0.04,0 -0.076,-0.032 -0.076,-0.072 -0.004,-0.82 -0.012,-1.636 -0.016,-2.456 0,-0.052 -0.02,-0.072 -0.052,-0.072 -0.068,0 -0.192,0.092 -0.304,0.156 -0.008,0.004 -0.016,0.008 -0.024,0.008 -0.024,0 -0.048,-0.024 -0.048,-0.048 0,-0.008 0,-0.02 0.008,-0.028 0.2,-0.288 0.344,-0.608 0.476,-0.936 0.008,-0.016 0.02,-0.024 0.036,-0.024 0.016,0 0.028,0.008 0.036,0.024 0.132,0.328 0.272,0.648 0.472,0.936 0.008,0.008 0.008,0.02 0.008,0.028 0,0.024 -0.02,0.048 -0.044,0.048 -0.008,0 -0.016,-0.004 -0.024,-0.008 -0.112,-0.064 -0.24,-0.156 -0.308,-0.156 -0.032,0 -0.052,0.02 -0.052,0.072 -0.004,0.324 0,0.648 -0.004,0.972 z m -0.064,0.384 -0.356,0.08 -0.004,0.8 0.352,-0.076 z"
     id="path388"
     inkscape:connector-curvature="0"
     style="fill:currentColor" />
  <a
     xlink:href="textedit://C:/Users/tikeda/Documents/git/LotusRoot/sco.txt:7:35:36"
     id="a390"
     transform="translate(-6.0307859,-4.5566272)">
    <path
       transform="matrix(0.004,0,0,-0.004,132.3132,20.3326)"
       d="m 212,138 c 59,0 113,-31 113,-95 0,-71 -52,-120 -99,-148 -34,-21 -73,-33 -113,-33 -59,0 -113,31 -113,95 0,71 53,120 100,148 34,21 72,33 112,33 z"
       id="path392"
       inkscape:connector-curvature="0"
       style="fill:currentColor" />
  </a>
  <rect
     x="126.28242"
     y="15.947273"
     width="0.1514"
     height="2.8247001"
     ry="0.050000001"
     id="rect394"
     style="fill:currentColor" />
  <rect
     x="24.209814"
     y="13.780272"
     width="0.1514"
     height="2.8243001"
     ry="0.050000001"
     id="rect396"
     style="fill:currentColor" />
  <rect
     x="29.170315"
     y="13.775972"
     width="0.1514"
     height="2.8287001"
     ry="0.050000001"
     id="rect398"
     style="fill:currentColor" />
  <a
     xlink:href="textedit://C:/Users/tikeda/Documents/git/LotusRoot/sco.txt:5:26:27"
     id="a400"
     transform="translate(-6.0307859,-4.5566272)">
    <path
       transform="matrix(0.004,0,0,-0.004,34.0516,21.3326)"
       d="m 212,138 c 59,0 113,-31 113,-95 0,-71 -52,-120 -99,-148 -34,-21 -73,-33 -113,-33 -59,0 -113,31 -113,95 0,71 53,120 100,148 34,21 72,33 112,33 z"
       id="path402"
       inkscape:connector-curvature="0"
       style="fill:currentColor" />
  </a>
  <path
     d="m 22.000914,15.275973 c 0.032,-0.02 0.072,-0.028 0.108,-0.028 0.036,0 0.072,0.008 0.104,0.028 l -0.012,0.768 0.408,-0.092 h 0.016 c 0.04,0 0.076,0.032 0.076,0.072 0.004,0.82 0.012,1.636 0.016,2.456 0,0.052 0.02,0.072 0.052,0.072 0.068,0 0.192,-0.092 0.304,-0.156 0.008,-0.004 0.016,-0.008 0.024,-0.008 0.024,0 0.048,0.024 0.048,0.048 0,0.008 0,0.02 -0.008,0.028 -0.2,0.288 -0.344,0.608 -0.476,0.936 -0.008,0.016 -0.02,0.024 -0.036,0.024 -0.016,0 -0.028,-0.008 -0.036,-0.024 -0.132,-0.328 -0.272,-0.648 -0.472,-0.936 -0.008,-0.008 -0.012,-0.02 -0.012,-0.028 0,-0.024 0.024,-0.048 0.048,-0.048 0.008,0 0.016,0.004 0.024,0.008 0.112,0.064 0.236,0.156 0.304,0.156 0.032,0 0.052,-0.02 0.052,-0.072 0.004,-0.324 0.004,-0.648 0.008,-0.972 l -0.416,0.092 h -0.016 c -0.04,0 -0.076,-0.032 -0.076,-0.072 z m 0.548,1.06 -0.352,0.076 -0.012,0.804 0.36,-0.08 z"
     id="path404"
     inkscape:connector-curvature="0"
     style="fill:currentColor" />
  <a
     xlink:href="textedit://C:/Users/tikeda/Documents/git/LotusRoot/sco.txt:5:21:22"
     id="a406"
     transform="translate(-6.0307859,-4.5566272)">
    <path
       transform="matrix(0.004,0,0,-0.004,29.0912,21.3326)"
       d="m 212,138 c 59,0 113,-31 113,-95 0,-71 -52,-120 -99,-148 -34,-21 -73,-33 -113,-33 -59,0 -113,31 -113,95 0,71 53,120 100,148 34,21 72,33 112,33 z"
       id="path408"
       inkscape:connector-curvature="0"
       style="fill:currentColor" />
  </a>
  <path
     d="m 16.966114,18.659973 c -0.048,0 -0.084,-0.036 -0.084,-0.084 v -0.54 l -0.284,0.072 v 0.584 c 0,0.048 -0.032,0.084 -0.08,0.084 -0.048,0 -0.084,-0.036 -0.084,-0.084 v -0.54 l -0.14,0.036 c -0.008,0.004 -0.02,0.004 -0.028,0.004 -0.052,0 -0.1,-0.044 -0.1,-0.1 v -0.216 c 0,-0.044 0.032,-0.088 0.076,-0.1 l 0.192,-0.048 v -0.624 l -0.14,0.036 c -0.008,0.004 -0.02,0 -0.028,0 -0.052,0 -0.1,-0.044 -0.1,-0.1 v -0.216 c 0,-0.044 0.032,-0.084 0.076,-0.096 l 0.192,-0.048 v -0.584 c 0,-0.048 0.036,-0.084 0.084,-0.084 0.048,0 0.08,0.036 0.08,0.084 v 0.54 l 0.284,-0.076 v -0.584 c 0,-0.048 0.036,-0.084 0.084,-0.084 0.048,0 0.084,0.036 0.084,0.084 v 0.54 l 0.284,-0.072 v -0.584 c 0,-0.048 0.032,-0.084 0.08,-0.084 0.048,0 0.084,0.036 0.084,0.084 v 0.54 l 0.14,-0.036 c 0.008,-0.004 0.02,-0.004 0.028,-0.004 0.052,0 0.1,0.044 0.1,0.1 v 0.216 c 0,0.044 -0.032,0.088 -0.076,0.1 l -0.192,0.048 v 0.624 l 0.14,-0.036 c 0.008,-0.004 0.02,0 0.028,0 0.052,0 0.1,0.044 0.1,0.1 v 0.216 c 0,0.044 -0.032,0.084 -0.076,0.096 l -0.192,0.048 v 0.584 c 0,0.048 -0.036,0.084 -0.084,0.084 -0.048,0 -0.08,-0.036 -0.08,-0.084 v -0.54 l -0.284,0.076 v 0.584 c 0,0.048 -0.036,0.084 -0.084,0.084 z m -0.368,-1.6 v 0.624 l 0.284,-0.072 v -0.628 z m 0.736,-0.192 -0.284,0.072 v 0.628 l 0.284,-0.076 v -0.624 z"
     id="path410"
     inkscape:connector-curvature="0"
     style="fill:currentColor" />
  <rect
     x="19.265514"
     y="14.063473"
     width="0.1514"
     height="3.0411999"
     ry="0.050000001"
     id="rect412"
     style="fill:currentColor" />
  <path
     d="m 26.945214,15.275973 c 0.032,-0.02 0.072,-0.028 0.108,-0.028 0.036,0 0.072,0.008 0.104,0.028 l -0.012,0.768 0.408,-0.092 h 0.016 c 0.04,0 0.076,0.032 0.076,0.072 l 0.032,2.252 c -0.032,0.02 -0.072,0.028 -0.108,0.028 -0.036,0 -0.072,-0.008 -0.104,-0.028 l 0.008,-0.768 -0.404,0.092 h -0.016 c -0.04,0 -0.076,-0.032 -0.076,-0.072 z m 0.544,1.06 -0.348,0.076 -0.012,0.804 0.352,-0.076 z"
     id="path414"
     inkscape:connector-curvature="0"
     style="fill:currentColor" />
  <a
     xlink:href="textedit://C:/Users/tikeda/Documents/git/LotusRoot/sco.txt:5:30:31"
     id="a416"
     transform="translate(-6.0307859,-4.5566272)">
    <path
       transform="matrix(0.004,0,0,-0.004,39.0121,21.3326)"
       d="m 212,138 c 59,0 113,-31 113,-95 0,-71 -52,-120 -99,-148 -34,-21 -73,-33 -113,-33 -59,0 -113,31 -113,95 0,71 53,120 100,148 34,21 72,33 112,33 z"
       id="path418"
       inkscape:connector-curvature="0"
       style="fill:currentColor" />
  </a>
  <rect
     x="34.130714"
     y="13.775972"
     width="0.1514"
     height="2.8287001"
     ry="0.050000001"
     id="rect420"
     style="fill:currentColor" />
  <path
     d="m 66.179514,14.775973 c 0.032,-0.02 0.072,-0.028 0.108,-0.028 0.036,0 0.072,0.008 0.104,0.028 l -0.012,0.768 0.408,-0.092 h 0.016 c 0.04,0 0.076,0.032 0.076,0.072 0.004,0.82 0.012,1.636 0.016,2.456 0,0.052 0.02,0.072 0.052,0.072 0.068,0 0.192,-0.092 0.304,-0.156 0.008,-0.004 0.016,-0.008 0.024,-0.008 0.024,0 0.048,0.024 0.048,0.048 0,0.008 0,0.02 -0.008,0.028 -0.2,0.288 -0.344,0.608 -0.476,0.936 -0.008,0.016 -0.02,0.024 -0.036,0.024 -0.016,0 -0.028,-0.008 -0.036,-0.024 -0.132,-0.328 -0.272,-0.648 -0.472,-0.936 -0.008,-0.008 -0.012,-0.02 -0.012,-0.028 0,-0.024 0.024,-0.048 0.048,-0.048 0.008,0 0.016,0.004 0.024,0.008 0.112,0.064 0.236,0.156 0.304,0.156 0.032,0 0.052,-0.02 0.052,-0.072 0.004,-0.324 0.004,-0.648 0.008,-0.972 l -0.416,0.092 h -0.016 c -0.04,0 -0.076,-0.032 -0.076,-0.072 z m 0.548,1.06 -0.352,0.076 -0.012,0.804 0.36,-0.08 z"
     id="path422"
     inkscape:connector-curvature="0"
     style="fill:currentColor" />
  <path
     d="m 32.513714,15.951973 h 0.016 c 0.04,0 0.076,0.032 0.076,0.072 l 0.032,2.252 c -0.032,0.02 -0.072,0.028 -0.108,0.028 -0.036,0 -0.072,-0.008 -0.104,-0.028 l 0.008,-0.768 -0.404,0.092 h -0.016 c -0.04,0 -0.076,-0.032 -0.076,-0.072 -0.004,-0.82 -0.012,-1.636 -0.016,-2.456 0,-0.052 -0.02,-0.072 -0.052,-0.072 -0.068,0 -0.192,0.092 -0.304,0.156 -0.008,0.004 -0.016,0.008 -0.024,0.008 -0.024,0 -0.048,-0.024 -0.048,-0.048 0,-0.008 0,-0.02 0.008,-0.028 0.2,-0.288 0.344,-0.608 0.476,-0.936 0.008,-0.016 0.02,-0.024 0.036,-0.024 0.016,0 0.028,0.008 0.036,0.024 0.132,0.328 0.272,0.648 0.472,0.936 0.008,0.008 0.008,0.02 0.008,0.028 0,0.024 -0.02,0.048 -0.044,0.048 -0.008,0 -0.016,-0.004 -0.024,-0.008 -0.112,-0.064 -0.24,-0.156 -0.308,-0.156 -0.032,0 -0.052,0.02 -0.052,0.072 -0.004,0.324 0,0.648 -0.004,0.972 z m -0.064,0.384 -0.356,0.08 -0.004,0.8 0.352,-0.076 z"
     id="path424"
     inkscape:connector-curvature="0"
     style="fill:currentColor" />
  <a
     xlink:href="textedit://C:/Users/tikeda/Documents/git/LotusRoot/sco.txt:5:35:36"
     id="a426"
     transform="translate(-6.0307859,-4.5566272)">
    <path
       transform="matrix(0.004,0,0,-0.004,43.9789,21.3326)"
       d="m 212,138 c 59,0 113,-31 113,-95 0,-71 -52,-120 -99,-148 -34,-21 -73,-33 -113,-33 -59,0 -113,31 -113,95 0,71 53,120 100,148 34,21 72,33 112,33 z"
       id="path428"
       inkscape:connector-curvature="0"
       style="fill:currentColor" />
  </a>
  <path
     d="m 3.3984141,15.719973 c 0.012,0 0.028,-0.004 0.04,-0.004 0.628,0 1.032,0.516 1.032,1.052 0,0.308 -0.132,0.62 -0.432,0.844 -0.088,0.064 -0.184,0.116 -0.288,0.148 0.012,0.132 0.016,0.264 0.016,0.396 0,0.084 0,0.164 -0.004,0.248 -0.028,0.484 -0.364,0.916 -0.844,0.916 -0.432,0 -0.784,-0.352 -0.784,-0.788 0,-0.232 0.216,-0.412 0.452,-0.412 0.216,0 0.38,0.188 0.38,0.412 0,0.208 -0.172,0.38 -0.38,0.38 -0.036,0 -0.072,-0.004 -0.108,-0.016 0.1,0.148 0.264,0.244 0.452,0.244 0.38,0 0.624,-0.372 0.648,-0.764 0.004,-0.076 0.008,-0.152 0.008,-0.228 0,-0.116 -0.004,-0.232 -0.012,-0.348 -0.116,0.02 -0.232,0.032 -0.352,0.032 -0.756,0 -1.332,-0.692 -1.332,-1.504 0,-0.708 0.516,-1.232 0.976,-1.772 -0.08,-0.248 -0.16,-0.496 -0.192,-0.756 -0.028,-0.208 -0.028,-0.42 -0.028,-0.632 0,-0.456 0.216,-0.884 0.588,-1.152 0.016,-0.012 0.032,-0.016 0.048,-0.016 0.02,0 0.036,0.008 0.052,0.02 0.288,0.332 0.54,0.972 0.54,1.424 0,0.568 -0.336,1.02 -0.704,1.456 0.084,0.272 0.16,0.544 0.228,0.82 z m 0.336,1.86 c 0.26,-0.096 0.44,-0.376 0.44,-0.644 0,-0.352 -0.256,-0.7 -0.668,-0.752 0.096,0.456 0.176,0.908 0.228,1.396 z m -1.544,-0.904 c 0,0.532 0.512,0.972 1.044,0.972 0.108,0 0.22,-0.004 0.324,-0.02 -0.052,-0.504 -0.14,-0.976 -0.24,-1.448 -0.316,0.032 -0.496,0.24 -0.496,0.472 0,0.172 0.1,0.352 0.32,0.48 0.02,0.02 0.028,0.044 0.028,0.068 0,0.048 -0.04,0.092 -0.092,0.092 -0.012,0 -0.028,-0.004 -0.04,-0.008 -0.324,-0.172 -0.472,-0.46 -0.472,-0.744 0,-0.356 0.24,-0.708 0.652,-0.8 -0.056,-0.228 -0.12,-0.452 -0.188,-0.676 -0.42,0.488 -0.84,0.972 -0.84,1.612 z m 1.304,-4.052 c -0.396,0.184 -0.644,0.58 -0.644,1.016 0,0.284 0.084,0.52 0.156,0.752 0.312,-0.388 0.568,-0.796 0.568,-1.296 0,-0.204 -0.016,-0.288 -0.08,-0.472 z"
     id="path430"
     inkscape:connector-curvature="0"
     style="fill:currentColor" />
  <path
     d="m 6.2244141,18.591973 c -0.048,0 -0.084,-0.036 -0.084,-0.084 v -0.552 l -0.316,0.12 v 0.616 c 0,0.048 -0.036,0.084 -0.084,0.084 -0.048,0 -0.084,-0.036 -0.084,-0.084 v -0.552 l -0.088,0.032 c -0.012,0.004 -0.024,0.008 -0.036,0.008 -0.052,0 -0.1,-0.044 -0.1,-0.1 v -0.216 c 0,-0.04 0.024,-0.08 0.064,-0.096 l 0.16,-0.06 v -0.62 l -0.088,0.036 c -0.012,0.004 -0.024,0.004 -0.036,0.004 -0.052,0 -0.1,-0.044 -0.1,-0.1 v -0.216 c 0,-0.04 0.024,-0.076 0.064,-0.092 l 0.16,-0.06 v -0.616 c 0,-0.048 0.036,-0.084 0.084,-0.084 0.048,0 0.084,0.036 0.084,0.084 v 0.552 l 0.316,-0.12 v -0.616 c 0,-0.048 0.036,-0.084 0.084,-0.084 0.048,0 0.084,0.036 0.084,0.084 v 0.552 l 0.088,-0.032 c 0.012,-0.004 0.024,-0.008 0.036,-0.008 0.052,0 0.1,0.044 0.1,0.1 v 0.216 c 0,0.04 -0.024,0.08 -0.064,0.096 l -0.16,0.06 v 0.62 l 0.088,-0.036 c 0.012,-0.004 0.024,-0.004 0.036,-0.004 0.052,0 0.1,0.044 0.1,0.1 v 0.216 c 0,0.04 -0.024,0.076 -0.064,0.092 l -0.16,0.06 v 0.616 c 0,0.048 -0.036,0.084 -0.084,0.084 z m -0.4,-1.564 v 0.616 l 0.316,-0.12 v -0.616 z"
     id="path432"
     inkscape:connector-curvature="0"
     style="fill:currentColor" />
  <text
     font-size="1.7463"
     id="text434"
     style="font-size:1.74629998px;text-anchor:start;fill:currentColor;font-family:serif"
     x="-0.027285937"
     y="12.725973">
    <tspan
       id="tspan436">4</tspan>
  </text>
  <rect
     x="8.0318136"
     y="14.484173"
     width="0.1514"
     height="2.6205001"
     ry="0.050000001"
     id="rect438"
     style="fill:currentColor" />
  <a
     xlink:href="textedit://C:/Users/tikeda/Documents/git/LotusRoot/sco.txt:5:0:1"
     id="a440"
     transform="translate(-6.0307859,-4.5566272)">
    <path
       transform="matrix(0.004,0,0,-0.004,12.9132,21.8326)"
       d="m 212,138 c 59,0 113,-31 113,-95 0,-71 -52,-120 -99,-148 -34,-21 -73,-33 -113,-33 -59,0 -113,31 -113,95 0,71 53,120 100,148 34,21 72,33 112,33 z"
       id="path442"
       inkscape:connector-curvature="0"
       style="fill:currentColor" />
  </a>
  <a
     xlink:href="textedit://C:/Users/tikeda/Documents/git/LotusRoot/sco.txt:5:6:7"
     id="a444"
     transform="translate(-6.0307859,-4.5566272)">
    <path
       transform="matrix(0.004,0,0,-0.004,18.28,21.8326)"
       d="m 212,138 c 59,0 113,-31 113,-95 0,-71 -52,-120 -99,-148 -34,-21 -73,-33 -113,-33 -59,0 -113,31 -113,95 0,71 53,120 100,148 34,21 72,33 112,33 z"
       id="path446"
       inkscape:connector-curvature="0"
       style="fill:currentColor" />
  </a>
  <rect
     x="13.398714"
     y="14.484173"
     width="0.1514"
     height="2.6205001"
     ry="0.050000001"
     id="rect448"
     style="fill:currentColor" />
  <path
     d="m 11.591214,18.591973 c -0.048,0 -0.084,-0.036 -0.084,-0.084 v -0.552 l -0.316,0.12 v 0.616 c 0,0.048 -0.036,0.084 -0.084,0.084 -0.048,0 -0.084,-0.036 -0.084,-0.084 v -0.552 l -0.088,0.032 c -0.012,0.004 -0.024,0.008 -0.036,0.008 -0.052,0 -0.1,-0.044 -0.1,-0.1 v -0.216 c 0,-0.04 0.024,-0.08 0.064,-0.096 l 0.16,-0.06 v -0.62 l -0.088,0.036 c -0.012,0.004 -0.024,0.004 -0.036,0.004 -0.052,0 -0.1,-0.044 -0.1,-0.1 v -0.216 c 0,-0.04 0.024,-0.076 0.064,-0.092 l 0.16,-0.06 v -0.616 c 0,-0.048 0.036,-0.084 0.084,-0.084 0.048,0 0.084,0.036 0.084,0.084 v 0.552 l 0.316,-0.12 v -0.9 c 0,-0.052 -0.02,-0.076 -0.052,-0.076 -0.068,0 -0.196,0.092 -0.308,0.156 -0.04,0.024 -0.084,-0.02 -0.056,-0.06 0.204,-0.288 0.332,-0.616 0.464,-0.944 0.008,-0.016 0.024,-0.024 0.036,-0.024 0.012,0 0.024,0.008 0.032,0.024 0.132,0.328 0.26,0.656 0.464,0.944 0.004,0.008 0.008,0.016 0.008,0.024 0,0.032 -0.032,0.056 -0.064,0.036 -0.112,-0.064 -0.24,-0.156 -0.308,-0.156 -0.032,0 -0.048,0.024 -0.048,0.076 v 0.836 l 0.088,-0.032 c 0.012,-0.004 0.024,-0.008 0.036,-0.008 0.052,0 0.1,0.044 0.1,0.1 v 0.216 c 0,0.04 -0.024,0.08 -0.064,0.096 l -0.16,0.06 v 0.62 l 0.088,-0.036 c 0.012,-0.004 0.024,-0.004 0.036,-0.004 0.052,0 0.1,0.044 0.1,0.1 v 0.216 c 0,0.04 -0.024,0.076 -0.064,0.092 l -0.16,0.06 v 0.616 c 0,0.048 -0.036,0.084 -0.084,0.084 z m -0.4,-1.564 v 0.616 l 0.316,-0.12 v -0.616 z"
     id="path450"
     inkscape:connector-curvature="0"
     style="fill:currentColor" />
  <a
     xlink:href="textedit://C:/Users/tikeda/Documents/git/LotusRoot/sco.txt:5:13:14"
     id="a452"
     transform="translate(-6.0307859,-4.5566272)">
    <path
       transform="matrix(0.004,0,0,-0.004,24.1469,21.8326)"
       d="m 212,138 c 59,0 113,-31 113,-95 0,-71 -52,-120 -99,-148 -34,-21 -73,-33 -113,-33 -59,0 -113,31 -113,95 0,71 53,120 100,148 34,21 72,33 112,33 z"
       id="path454"
       inkscape:connector-curvature="0"
       style="fill:currentColor" />
  </a>
  <path
     d="m 55.769914,18.091973 c -0.048,0 -0.084,-0.036 -0.084,-0.084 v -0.552 l -0.316,0.12 v 0.616 c 0,0.048 -0.036,0.084 -0.084,0.084 -0.048,0 -0.084,-0.036 -0.084,-0.084 v -0.552 l -0.088,0.032 c -0.012,0.004 -0.024,0.008 -0.036,0.008 -0.052,0 -0.1,-0.044 -0.1,-0.1 v -0.216 c 0,-0.04 0.024,-0.08 0.064,-0.096 l 0.16,-0.06 v -0.62 l -0.088,0.036 c -0.012,0.004 -0.024,0.004 -0.036,0.004 -0.052,0 -0.1,-0.044 -0.1,-0.1 v -0.216 c 0,-0.04 0.024,-0.076 0.064,-0.092 l 0.16,-0.06 v -0.616 c 0,-0.048 0.036,-0.084 0.084,-0.084 0.048,0 0.084,0.036 0.084,0.084 v 0.552 l 0.316,-0.12 v -0.9 c 0,-0.052 -0.02,-0.076 -0.052,-0.076 -0.068,0 -0.196,0.092 -0.308,0.156 -0.04,0.024 -0.084,-0.02 -0.056,-0.06 0.204,-0.288 0.332,-0.616 0.464,-0.944 0.008,-0.016 0.024,-0.024 0.036,-0.024 0.012,0 0.024,0.008 0.032,0.024 0.132,0.328 0.26,0.656 0.464,0.944 0.004,0.008 0.008,0.016 0.008,0.024 0,0.032 -0.032,0.056 -0.064,0.036 -0.112,-0.064 -0.24,-0.156 -0.308,-0.156 -0.032,0 -0.048,0.024 -0.048,0.076 v 0.836 l 0.088,-0.032 c 0.012,-0.004 0.024,-0.008 0.036,-0.008 0.052,0 0.1,0.044 0.1,0.1 v 0.216 c 0,0.04 -0.024,0.08 -0.064,0.096 l -0.16,0.06 v 0.62 l 0.088,-0.036 c 0.012,-0.004 0.024,-0.004 0.036,-0.004 0.052,0 0.1,0.044 0.1,0.1 v 0.216 c 0,0.04 -0.024,0.076 -0.064,0.092 l -0.16,0.06 v 0.616 c 0,0.048 -0.036,0.084 -0.084,0.084 z m -0.4,-1.564 v 0.616 l 0.316,-0.12 v -0.616 z"
     id="path456"
     inkscape:connector-curvature="0"
     style="fill:currentColor" />
  <path
     d="m 50.403014,18.091973 c -0.048,0 -0.084,-0.036 -0.084,-0.084 v -0.552 l -0.316,0.12 v 0.616 c 0,0.048 -0.036,0.084 -0.084,0.084 -0.048,0 -0.084,-0.036 -0.084,-0.084 v -0.552 l -0.088,0.032 c -0.012,0.004 -0.024,0.008 -0.036,0.008 -0.052,0 -0.1,-0.044 -0.1,-0.1 v -0.216 c 0,-0.04 0.024,-0.08 0.064,-0.096 l 0.16,-0.06 v -0.62 l -0.088,0.036 c -0.012,0.004 -0.024,0.004 -0.036,0.004 -0.052,0 -0.1,-0.044 -0.1,-0.1 v -0.216 c 0,-0.04 0.024,-0.076 0.064,-0.092 l 0.16,-0.06 v -0.616 c 0,-0.048 0.036,-0.084 0.084,-0.084 0.048,0 0.084,0.036 0.084,0.084 v 0.552 l 0.316,-0.12 v -0.616 c 0,-0.048 0.036,-0.084 0.084,-0.084 0.048,0 0.084,0.036 0.084,0.084 v 0.552 l 0.088,-0.032 c 0.012,-0.004 0.024,-0.008 0.036,-0.008 0.052,0 0.1,0.044 0.1,0.1 v 0.216 c 0,0.04 -0.024,0.08 -0.064,0.096 l -0.16,0.06 v 0.62 l 0.088,-0.036 c 0.012,-0.004 0.024,-0.004 0.036,-0.004 0.052,0 0.1,0.044 0.1,0.1 v 0.216 c 0,0.04 -0.024,0.076 -0.064,0.092 l -0.16,0.06 v 0.616 c 0,0.048 -0.036,0.084 -0.084,0.084 z m -0.4,-1.564 v 0.616 l 0.316,-0.12 v -0.616 z"
     id="path458"
     inkscape:connector-curvature="0"
     style="fill:currentColor" />
  <a
     xlink:href="textedit://C:/Users/tikeda/Documents/git/LotusRoot/sco.txt:6:6:7"
     id="a460"
     transform="translate(-6.0307859,-4.5566272)">
    <path
       transform="matrix(0.004,0,0,-0.004,62.4587,21.3326)"
       d="m 212,138 c 59,0 113,-31 113,-95 0,-71 -52,-120 -99,-148 -34,-21 -73,-33 -113,-33 -59,0 -113,31 -113,95 0,71 53,120 100,148 34,21 72,33 112,33 z"
       id="path462"
       inkscape:connector-curvature="0"
       style="fill:currentColor" />
  </a>
  <rect
     x="57.577312"
     y="13.775972"
     width="0.1514"
     height="2.8287001"
     ry="0.050000001"
     id="rect464"
     style="fill:currentColor" />
  <a
     xlink:href="textedit://C:/Users/tikeda/Documents/git/LotusRoot/sco.txt:6:13:14"
     id="a466"
     transform="translate(-6.0307859,-4.5566272)">
    <path
       transform="matrix(0.004,0,0,-0.004,68.3255,21.3326)"
       d="m 212,138 c 59,0 113,-31 113,-95 0,-71 -52,-120 -99,-148 -34,-21 -73,-33 -113,-33 -59,0 -113,31 -113,95 0,71 53,120 100,148 34,21 72,33 112,33 z"
       id="path468"
       inkscape:connector-curvature="0"
       style="fill:currentColor" />
  </a>
  <rect
     x="63.444115"
     y="13.771672"
     width="0.1514"
     height="2.8329999"
     ry="0.050000001"
     id="rect470"
     style="fill:currentColor" />
  <path
     d="m 61.144714,18.159973 c -0.048,0 -0.084,-0.036 -0.084,-0.084 v -0.54 l -0.284,0.072 v 0.584 c 0,0.048 -0.032,0.084 -0.08,0.084 -0.048,0 -0.084,-0.036 -0.084,-0.084 v -0.54 l -0.14,0.036 c -0.008,0.004 -0.02,0.004 -0.028,0.004 -0.052,0 -0.1,-0.044 -0.1,-0.1 v -0.216 c 0,-0.044 0.032,-0.088 0.076,-0.1 l 0.192,-0.048 v -0.624 l -0.14,0.036 c -0.008,0.004 -0.02,0 -0.028,0 -0.052,0 -0.1,-0.044 -0.1,-0.1 v -0.216 c 0,-0.044 0.032,-0.084 0.076,-0.096 l 0.192,-0.048 v -0.584 c 0,-0.048 0.036,-0.084 0.084,-0.084 0.048,0 0.08,0.036 0.08,0.084 v 0.54 l 0.284,-0.076 v -0.584 c 0,-0.048 0.036,-0.084 0.084,-0.084 0.048,0 0.084,0.036 0.084,0.084 v 0.54 l 0.284,-0.072 v -0.584 c 0,-0.048 0.032,-0.084 0.08,-0.084 0.048,0 0.084,0.036 0.084,0.084 v 0.54 l 0.14,-0.036 c 0.008,-0.004 0.02,-0.004 0.028,-0.004 0.052,0 0.1,0.044 0.1,0.1 v 0.216 c 0,0.044 -0.032,0.088 -0.076,0.1 l -0.192,0.048 v 0.624 l 0.14,-0.036 c 0.008,-0.004 0.02,0 0.028,0 0.052,0 0.1,0.044 0.1,0.1 v 0.216 c 0,0.044 -0.032,0.084 -0.076,0.096 l -0.192,0.048 v 0.584 c 0,0.048 -0.036,0.084 -0.084,0.084 -0.048,0 -0.08,-0.036 -0.08,-0.084 v -0.54 l -0.284,0.076 v 0.584 c 0,0.048 -0.036,0.084 -0.084,0.084 z m -0.368,-1.6 v 0.624 l 0.284,-0.072 v -0.628 z m 0.736,-0.192 -0.284,0.072 v 0.628 l 0.284,-0.076 v -0.624 z"
     id="path472"
     inkscape:connector-curvature="0"
     style="fill:currentColor" />
  <a
     xlink:href="textedit://C:/Users/tikeda/Documents/git/LotusRoot/sco.txt:6:21:22"
     id="a474"
     transform="translate(-6.0307859,-4.5566272)">
    <path
       transform="matrix(0.004,0,0,-0.004,73.2698,20.8326)"
       d="m 212,138 c 59,0 113,-31 113,-95 0,-71 -52,-120 -99,-148 -34,-21 -73,-33 -113,-33 -59,0 -113,31 -113,95 0,71 53,120 100,148 34,21 72,33 112,33 z"
       id="path476"
       inkscape:connector-curvature="0"
       style="fill:currentColor" />
  </a>
  <rect
     x="68.388512"
     y="13.488473"
     width="0.1514"
     height="2.6161001"
     ry="0.050000001"
     id="rect478"
     style="fill:currentColor" />
  <path
     d="m 37.330114,18.023973 c 0,0.048 -0.036,0.08 -0.084,0.08 -0.048,0 -0.08,-0.032 -0.08,-0.08 v -0.448 l -0.116,0.068 c -0.016,0.008 -0.036,0.016 -0.052,0.016 -0.052,0 -0.1,-0.044 -0.1,-0.104 v -0.216 c 0,-0.036 0.016,-0.064 0.048,-0.084 l 0.22,-0.132 v -0.6 l -0.116,0.068 c -0.016,0.008 -0.036,0.016 -0.052,0.016 -0.052,0 -0.1,-0.04 -0.1,-0.1 v -0.216 c 0,-0.036 0.016,-0.068 0.048,-0.088 l 0.22,-0.128 v -0.548 c 0,-0.048 0.032,-0.08 0.08,-0.08 0.048,0 0.084,0.032 0.084,0.08 v 0.448 l 0.116,-0.068 c 0.016,-0.008 0.036,-0.016 0.052,-0.016 0.052,0 0.1,0.044 0.1,0.104 v 0.216 c 0,0.036 -0.016,0.064 -0.048,0.084 l -0.22,0.132 v 0.6 l 0.116,-0.068 c 0.016,-0.008 0.036,-0.016 0.052,-0.016 0.052,0 0.1,0.04 0.1,0.1 v 0.216 c 0,0.036 -0.016,0.068 -0.048,0.088 l -0.22,0.128 v 0.548 z"
     id="path480"
     inkscape:connector-curvature="0"
     style="fill:currentColor" />
  <a
     xlink:href="textedit://C:/Users/tikeda/Documents/git/LotusRoot/sco.txt:5:41:42"
     id="a482"
     transform="translate(-6.0307859,-4.5566272)">
    <path
       transform="matrix(0.004,0,0,-0.004,49.3457,21.3326)"
       d="m 212,138 c 59,0 113,-31 113,-95 0,-71 -52,-120 -99,-148 -34,-21 -73,-33 -113,-33 -59,0 -113,31 -113,95 0,71 53,120 100,148 34,21 72,33 112,33 z"
       id="path484"
       inkscape:connector-curvature="0"
       style="fill:currentColor" />
  </a>
  <rect
     x="44.464413"
     y="13.775972"
     width="0.1514"
     height="2.8287001"
     ry="0.050000001"
     id="rect486"
     style="fill:currentColor" />
  <path
     d="m 42.656914,18.091973 c -0.048,0 -0.084,-0.036 -0.084,-0.084 v -0.552 l -0.316,0.12 v 0.9 c 0,0.052 0.02,0.076 0.052,0.076 0.068,0 0.196,-0.092 0.308,-0.156 0.04,-0.024 0.084,0.02 0.056,0.06 -0.204,0.288 -0.332,0.616 -0.464,0.944 -0.008,0.016 -0.024,0.024 -0.036,0.024 -0.012,0 -0.024,-0.008 -0.032,-0.024 -0.132,-0.328 -0.26,-0.656 -0.464,-0.944 -0.004,-0.008 -0.008,-0.016 -0.008,-0.024 0,-0.032 0.032,-0.056 0.064,-0.036 0.112,0.064 0.24,0.156 0.308,0.156 0.032,0 0.048,-0.024 0.048,-0.076 v -0.836 l -0.088,0.032 c -0.012,0.004 -0.024,0.008 -0.036,0.008 -0.052,0 -0.1,-0.044 -0.1,-0.1 v -0.216 c 0,-0.04 0.024,-0.08 0.064,-0.096 l 0.16,-0.06 v -0.62 l -0.088,0.036 c -0.012,0.004 -0.024,0.004 -0.036,0.004 -0.052,0 -0.1,-0.044 -0.1,-0.1 v -0.216 c 0,-0.04 0.024,-0.076 0.064,-0.092 l 0.16,-0.06 v -0.616 c 0,-0.048 0.036,-0.084 0.084,-0.084 0.048,0 0.084,0.036 0.084,0.084 v 0.552 l 0.316,-0.12 v -0.616 c 0,-0.048 0.036,-0.084 0.084,-0.084 0.048,0 0.084,0.036 0.084,0.084 v 0.552 l 0.088,-0.032 c 0.012,-0.004 0.024,-0.008 0.036,-0.008 0.052,0 0.1,0.044 0.1,0.1 v 0.216 c 0,0.04 -0.024,0.08 -0.064,0.096 l -0.16,0.06 v 0.62 l 0.088,-0.036 c 0.012,-0.004 0.024,-0.004 0.036,-0.004 0.052,0 0.1,0.044 0.1,0.1 v 0.216 c 0,0.04 -0.024,0.076 -0.064,0.092 l -0.16,0.06 v 0.616 c 0,0.048 -0.036,0.084 -0.084,0.084 z m -0.4,-1.564 v 0.616 l 0.316,-0.12 v -0.616 z"
     id="path488"
     inkscape:connector-curvature="0"
     style="fill:currentColor" />
  <a
     xlink:href="textedit://C:/Users/tikeda/Documents/git/LotusRoot/sco.txt:6:0:1"
     id="a490"
     transform="translate(-6.0307859,-4.5566272)">
    <path
       transform="matrix(0.004,0,0,-0.004,57.0918,21.3326)"
       d="m 212,138 c 59,0 113,-31 113,-95 0,-71 -52,-120 -99,-148 -34,-21 -73,-33 -113,-33 -59,0 -113,31 -113,95 0,71 53,120 100,148 34,21 72,33 112,33 z"
       id="path492"
       inkscape:connector-curvature="0"
       style="fill:currentColor" />
  </a>
  <rect
     x="52.210514"
     y="13.775972"
     width="0.1514"
     height="2.8287001"
     ry="0.050000001"
     id="rect494"
     style="fill:currentColor" />
  <text
     font-size="2.1999"
     id="text496"
     style="font-size:2.19989991px;text-anchor:start;fill:currentColor;font-family:serif"
     x="68.657715"
     y="202.43718">
    <tspan
       id="tspan498" />
  </text>
</svg>
