<?xml version="1.0" encoding="UTF-8" standalone="no"?>
<svg
   xmlns:dc="http://purl.org/dc/elements/1.1/"
   xmlns:cc="http://creativecommons.org/ns#"
   xmlns:rdf="http://www.w3.org/1999/02/22-rdf-syntax-ns#"
   xmlns:svg="http://www.w3.org/2000/svg"
   xmlns="http://www.w3.org/2000/svg"
   xmlns:xlink="http://www.w3.org/1999/xlink"
   xmlns:sodipodi="http://sodipodi.sourceforge.net/DTD/sodipodi-0.dtd"
   xmlns:inkscape="http://www.inkscape.org/namespaces/inkscape"
   version="1.2"
   width="191.48572mm"
   height="29.289534mm"
   viewBox="0 0 136.20744 20.834198"
   id="svg7015"
   sodipodi:docname="02-3.svg"
   inkscape:version="0.92.1 r15371">
  <metadata
     id="metadata7021">
    <rdf:RDF>
      <cc:Work
         rdf:about="">
        <dc:format>image/svg+xml</dc:format>
        <dc:type
           rdf:resource="http://purl.org/dc/dcmitype/StillImage" />
        <dc:title></dc:title>
      </cc:Work>
    </rdf:RDF>
  </metadata>
  <defs
     id="defs7019" />
  <sodipodi:namedview
     pagecolor="#ffffff"
     bordercolor="#666666"
     borderopacity="1"
     objecttolerance="10"
     gridtolerance="10"
     guidetolerance="10"
     inkscape:pageopacity="0"
     inkscape:pageshadow="2"
     inkscape:window-width="716"
     inkscape:window-height="480"
     id="namedview7017"
     showgrid="false"
     fit-margin-top="0"
     fit-margin-left="0"
     fit-margin-right="0"
     fit-margin-bottom="0"
     inkscape:zoom="0.2102413"
     inkscape:cx="364.66592"
     inkscape:cy="-426.34817"
     inkscape:window-x="0"
     inkscape:window-y="0"
     inkscape:window-maximized="0"
     inkscape:current-layer="svg7015" />
  <!-- Page: 1/1 -->
  <text
     font-size="2.1999"
     id="text6521"
     style="font-size:2.19989991px;font-family:serif;text-anchor:start;fill:currentColor"
     x="1.0559808"
     y="-1">
    <tspan
       id="tspan6519" />
  </text>
  <line
     x1="11.78398"
     y1="5.776"
     x2="136.14838"
     y2="5.776"
     id="line6523"
     style="stroke:currentColor;stroke-width:0.1164;stroke-linecap:round;stroke-linejoin:round" />
  <line
     x1="11.78398"
     y1="4.776"
     x2="136.14838"
     y2="4.776"
     id="line6525"
     style="stroke:currentColor;stroke-width:0.1164;stroke-linecap:round;stroke-linejoin:round" />
  <line
     x1="11.78398"
     y1="3.776"
     x2="136.14838"
     y2="3.776"
     id="line6527"
     style="stroke:currentColor;stroke-width:0.1164;stroke-linecap:round;stroke-linejoin:round" />
  <line
     x1="11.78398"
     y1="2.776"
     x2="136.14838"
     y2="2.776"
     id="line6529"
     style="stroke:currentColor;stroke-width:0.1164;stroke-linecap:round;stroke-linejoin:round" />
  <line
     x1="11.78398"
     y1="1.776"
     x2="136.14838"
     y2="1.776"
     id="line6531"
     style="stroke:currentColor;stroke-width:0.1164;stroke-linecap:round;stroke-linejoin:round" />
  <rect
     x="97.784378"
     y="1.776"
     width="0.2212"
     height="4"
     ry="0.0000"
     id="rect6533"
     style="fill:currentColor" />
  <rect
     x="57.870682"
     y="1.776"
     width="0.2212"
     height="4"
     ry="0.0000"
     id="rect6535"
     style="fill:currentColor" />
  <rect
     x="135.98538"
     y="1.776"
     width="0.2212"
     height="4"
     ry="0.0000"
     id="rect6537"
     style="fill:currentColor" />
  <rect
     x="49.047279"
     y="6.6677999"
     width="1.9962"
     height="0.2164"
     ry="0.1082"
     id="rect6539"
     style="fill:currentColor" />
  <rect
     x="43.693882"
     y="6.6677999"
     width="1.9962"
     height="0.2164"
     ry="0.1082"
     id="rect6541"
     style="fill:currentColor" />
  <rect
     x="38.84058"
     y="6.6677999"
     width="1.9962"
     height="0.2164"
     ry="0.1082"
     id="rect6543"
     style="fill:currentColor" />
  <rect
     x="33.987282"
     y="6.6677999"
     width="1.9962"
     height="0.2164"
     ry="0.1082"
     id="rect6545"
     style="fill:currentColor" />
  <rect
     x="29.133881"
     y="6.6677999"
     width="1.9962"
     height="0.2164"
     ry="0.1082"
     id="rect6547"
     style="fill:currentColor" />
  <rect
     x="24.66708"
     y="6.6677999"
     width="2.0095999"
     height="0.2164"
     ry="0.1082"
     id="rect6549"
     style="fill:currentColor" />
  <rect
     x="19.888281"
     y="6.6677999"
     width="2.3415"
     height="0.2164"
     ry="0.1082"
     id="rect6551"
     style="fill:currentColor" />
  <rect
     x="101.36208"
     y="1.0678"
     width="0.1514"
     height="4.5369"
     ry="0.050000001"
     id="rect6553"
     style="fill:currentColor" />
  <a
     style="color:inherit"
     xlink:href="textedit://C:/Users/tikeda/Documents/git/LotusRoot/sco.txt:4:0:1"
     id="a6557"
     transform="translate(-6.0572192,-4.5566)">
    <path
       transform="matrix(0.004,0,0,-0.004,106.2699,10.3326)"
       d="m 212,138 c 59,0 113,-31 113,-95 0,-71 -52,-120 -99,-148 -34,-21 -73,-33 -113,-33 -59,0 -113,31 -113,95 0,71 53,120 100,148 34,21 72,33 112,33 z"
       id="path6555"
       inkscape:connector-curvature="0"
       style="fill:currentColor" />
  </a>
  <path
     d="m 92.483781,4.276 c 0.032,-0.02 0.072,-0.028 0.108,-0.028 0.036,0 0.072,0.008 0.104,0.028 l -0.012,0.768 0.408,-0.092 h 0.016 c 0.04,0 0.076,0.032 0.076,0.072 0.004,0.82 0.012,1.636 0.016,2.456 0,0.052 0.02,0.072 0.052,0.072 0.068,0 0.192,-0.092 0.304,-0.156 0.008,-0.004 0.016,-0.008 0.024,-0.008 0.024,0 0.048,0.024 0.048,0.048 0,0.008 0,0.02 -0.008,0.028 -0.2,0.288 -0.344,0.608 -0.476,0.936 -0.008,0.016 -0.02,0.024 -0.036,0.024 -0.016,0 -0.028,-0.008 -0.036,-0.024 -0.132,-0.328 -0.272,-0.648 -0.472,-0.936 -0.008,-0.008 -0.012,-0.02 -0.012,-0.028 0,-0.024 0.024,-0.048 0.048,-0.048 0.008,0 0.016,0.004 0.024,0.008 0.112,0.064 0.236,0.156 0.304,0.156 0.032,0 0.052,-0.02 0.052,-0.072 0.004,-0.324 0.004,-0.648 0.008,-0.972 l -0.416,0.092 h -0.016 c -0.04,0 -0.076,-0.032 -0.076,-0.072 z m 0.548,1.06 -0.352,0.076 -0.012,0.804 0.36,-0.08 z"
     id="path6559"
     inkscape:connector-curvature="0"
     style="fill:currentColor;stroke-width:0.004" />
  <rect
     x="94.69278"
     y="1.4890001"
     width="0.1514"
     height="4.1156001"
     ry="0.050000001"
     id="rect6561"
     style="fill:currentColor" />
  <a
     style="color:inherit"
     xlink:href="textedit://C:/Users/tikeda/Documents/git/LotusRoot/sco.txt:3:43:44"
     id="a6565"
     transform="translate(-6.0572192,-4.5566)">
    <path
       transform="matrix(0.004,0,0,-0.004,99.6005,10.3326)"
       d="m 212,138 c 59,0 113,-31 113,-95 0,-71 -52,-120 -99,-148 -34,-21 -73,-33 -113,-33 -59,0 -113,31 -113,95 0,71 53,120 100,148 34,21 72,33 112,33 z"
       id="path6563"
       inkscape:connector-curvature="0"
       style="fill:currentColor" />
  </a>
  <path
     d="m 87.962481,7.66 c -0.048,0 -0.084,-0.036 -0.084,-0.084 v -0.54 l -0.284,0.072 v 0.584 c 0,0.048 -0.032,0.084 -0.08,0.084 -0.048,0 -0.084,-0.036 -0.084,-0.084 v -0.54 l -0.14,0.036 c -0.008,0.004 -0.02,0.004 -0.028,0.004 -0.052,0 -0.1,-0.044 -0.1,-0.1 V 6.876 c 0,-0.044 0.032,-0.088 0.076,-0.1 l 0.192,-0.048 V 6.104 l -0.14,0.036 c -0.008,0.004 -0.02,0 -0.028,0 -0.052,0 -0.1,-0.044 -0.1,-0.1 V 5.824 c 0,-0.044 0.032,-0.084 0.076,-0.096 l 0.192,-0.048 V 5.096 c 0,-0.048 0.036,-0.084 0.084,-0.084 0.048,0 0.08,0.036 0.08,0.084 v 0.54 l 0.284,-0.076 V 4.976 c 0,-0.048 0.036,-0.084 0.084,-0.084 0.048,0 0.084,0.036 0.084,0.084 v 0.54 l 0.284,-0.072 V 4.86 c 0,-0.048 0.032,-0.084 0.08,-0.084 0.048,0 0.084,0.036 0.084,0.084 V 5.4 l 0.14,-0.036 c 0.008,-0.004 0.02,-0.004 0.028,-0.004 0.052,0 0.1,0.044 0.1,0.1 v 0.216 c 0,0.044 -0.032,0.088 -0.076,0.1 l -0.192,0.048 v 0.624 l 0.14,-0.036 c 0.008,-0.004 0.02,0 0.028,0 0.052,0 0.1,0.044 0.1,0.1 v 0.216 c 0,0.044 -0.032,0.084 -0.076,0.096 l -0.192,0.048 v 0.584 c 0,0.048 -0.036,0.084 -0.084,0.084 -0.048,0 -0.08,-0.036 -0.08,-0.084 v -0.54 l -0.284,0.076 v 0.584 c 0,0.048 -0.036,0.084 -0.084,0.084 z m -0.368,-1.6 v 0.624 l 0.284,-0.072 V 5.984 Z m 0.736,-0.192 -0.284,0.072 v 0.628 l 0.284,-0.076 z"
     id="path6567"
     inkscape:connector-curvature="0"
     style="fill:currentColor;stroke-width:0.004" />
  <path
     d="m 99.137081,4.276 c 0.032,-0.02 0.072,-0.028 0.108,-0.028 0.036,0 0.072,0.008 0.104,0.028 l -0.012,0.768 0.408,-0.092 h 0.016 c 0.04,0 0.076,0.032 0.076,0.072 l 0.032,2.252 c -0.032,0.02 -0.072,0.028 -0.108,0.028 -0.036,0 -0.072,-0.008 -0.104,-0.028 l 0.008,-0.768 -0.404,0.092 h -0.016 c -0.04,0 -0.076,-0.032 -0.076,-0.072 z m 0.544,1.06 -0.348,0.076 -0.012,0.804 0.352,-0.076 z"
     id="path6569"
     inkscape:connector-curvature="0"
     style="fill:currentColor;stroke-width:0.004" />
  <a
     style="color:inherit"
     xlink:href="textedit://C:/Users/tikeda/Documents/git/LotusRoot/sco.txt:4:4:5"
     id="a6573"
     transform="translate(-6.0572192,-4.5566)">
    <path
       transform="matrix(0.004,0,0,-0.004,110.7168,10.3326)"
       d="m 212,138 c 59,0 113,-31 113,-95 0,-71 -52,-120 -99,-148 -34,-21 -73,-33 -113,-33 -59,0 -113,31 -113,95 0,71 53,120 100,148 34,21 72,33 112,33 z"
       id="path6571"
       inkscape:connector-curvature="0"
       style="fill:currentColor" />
  </a>
  <rect
     x="105.80908"
     y="1.0678"
     width="0.1514"
     height="4.5369"
     ry="0.050000001"
     id="rect6575"
     style="fill:currentColor" />
  <rect
     x="75.201981"
     y="1.4842"
     width="0.1514"
     height="4.6205001"
     ry="0.050000001"
     id="rect6577"
     style="fill:currentColor" />
  <path
     d="m 73.394481,7.592 c -0.048,0 -0.084,-0.036 -0.084,-0.084 V 6.956 l -0.316,0.12 v 0.9 c 0,0.052 0.02,0.076 0.052,0.076 0.068,0 0.196,-0.092 0.308,-0.156 0.04,-0.024 0.084,0.02 0.056,0.06 -0.204,0.288 -0.332,0.616 -0.464,0.944 -0.008,0.016 -0.024,0.024 -0.036,0.024 -0.012,0 -0.024,-0.008 -0.032,-0.024 -0.132,-0.328 -0.26,-0.656 -0.464,-0.944 -0.004,-0.008 -0.008,-0.016 -0.008,-0.024 0,-0.032 0.032,-0.056 0.064,-0.036 0.112,0.064 0.24,0.156 0.308,0.156 0.032,0 0.048,-0.024 0.048,-0.076 V 7.14 l -0.088,0.032 c -0.012,0.004 -0.024,0.008 -0.036,0.008 -0.052,0 -0.1,-0.044 -0.1,-0.1 V 6.864 c 0,-0.04 0.024,-0.08 0.064,-0.096 l 0.16,-0.06 v -0.62 l -0.088,0.036 c -0.012,0.004 -0.024,0.004 -0.036,0.004 -0.052,0 -0.1,-0.044 -0.1,-0.1 V 5.812 c 0,-0.04 0.024,-0.076 0.064,-0.092 l 0.16,-0.06 V 5.044 c 0,-0.048 0.036,-0.084 0.084,-0.084 0.048,0 0.084,0.036 0.084,0.084 v 0.552 l 0.316,-0.12 V 4.86 c 0,-0.048 0.036,-0.084 0.084,-0.084 0.048,0 0.084,0.036 0.084,0.084 v 0.552 l 0.088,-0.032 c 0.012,-0.004 0.024,-0.008 0.036,-0.008 0.052,0 0.1,0.044 0.1,0.1 v 0.216 c 0,0.04 -0.024,0.08 -0.064,0.096 l -0.16,0.06 v 0.62 l 0.088,-0.036 c 0.012,-0.004 0.024,-0.004 0.036,-0.004 0.052,0 0.1,0.044 0.1,0.1 V 6.74 c 0,0.04 -0.024,0.076 -0.064,0.092 l -0.16,0.06 v 0.616 c 0,0.048 -0.036,0.084 -0.084,0.084 z m -0.4,-1.564 v 0.616 l 0.316,-0.12 V 5.908 Z"
     id="path6579"
     inkscape:connector-curvature="0"
     style="fill:currentColor;stroke-width:0.004" />
  <polygon
     transform="translate(21.558181,2.0678)"
     points="0.05,0.3 0.05,-0.3 4.5483,-0.3 4.5483,0.3 "
     id="polygon6581"
     style="fill:currentColor;stroke:currentColor;stroke-width:0.1;stroke-linecap:round;stroke-linejoin:round" />
  <a
     style="color:inherit"
     xlink:href="textedit://C:/Users/tikeda/Documents/git/LotusRoot/sco.txt:3:22:23"
     id="a6585"
     transform="translate(-6.0572192,-4.5566)">
    <path
       transform="matrix(0.004,0,0,-0.004,84.9631,10.8326)"
       d="m 212,138 c 59,0 113,-31 113,-95 0,-71 -52,-120 -99,-148 -34,-21 -73,-33 -113,-33 -59,0 -113,31 -113,95 0,71 53,120 100,148 34,21 72,33 112,33 z"
       id="path6583"
       inkscape:connector-curvature="0"
       style="fill:currentColor" />
  </a>
  <rect
     x="80.055283"
     y="1.4842"
     width="0.1514"
     height="4.6205001"
     ry="0.050000001"
     id="rect6587"
     style="fill:currentColor" />
  <path
     d="m 78.247881,7.592 c -0.048,0 -0.084,-0.036 -0.084,-0.084 V 6.956 l -0.316,0.12 v 0.616 c 0,0.048 -0.036,0.084 -0.084,0.084 -0.048,0 -0.084,-0.036 -0.084,-0.084 V 7.14 l -0.088,0.032 c -0.012,0.004 -0.024,0.008 -0.036,0.008 -0.052,0 -0.1,-0.044 -0.1,-0.1 V 6.864 c 0,-0.04 0.024,-0.08 0.064,-0.096 l 0.16,-0.06 v -0.62 l -0.088,0.036 c -0.012,0.004 -0.024,0.004 -0.036,0.004 -0.052,0 -0.1,-0.044 -0.1,-0.1 V 5.812 c 0,-0.04 0.024,-0.076 0.064,-0.092 l 0.16,-0.06 V 5.044 c 0,-0.048 0.036,-0.084 0.084,-0.084 0.048,0 0.084,0.036 0.084,0.084 v 0.552 l 0.316,-0.12 V 4.86 c 0,-0.048 0.036,-0.084 0.084,-0.084 0.048,0 0.084,0.036 0.084,0.084 v 0.552 l 0.088,-0.032 c 0.012,-0.004 0.024,-0.008 0.036,-0.008 0.052,0 0.1,0.044 0.1,0.1 v 0.216 c 0,0.04 -0.024,0.08 -0.064,0.096 l -0.16,0.06 v 0.62 l 0.088,-0.036 c 0.012,-0.004 0.024,-0.004 0.036,-0.004 0.052,0 0.1,0.044 0.1,0.1 V 6.74 c 0,0.04 -0.024,0.076 -0.064,0.092 l -0.16,0.06 v 0.616 c 0,0.048 -0.036,0.084 -0.084,0.084 z m -0.4,-1.564 v 0.616 l 0.316,-0.12 V 5.908 Z"
     id="path6589"
     inkscape:connector-curvature="0"
     style="fill:currentColor;stroke-width:0.004" />
  <a
     style="color:inherit"
     xlink:href="textedit://C:/Users/tikeda/Documents/git/LotusRoot/sco.txt:3:15:16"
     id="a6593"
     transform="translate(-6.0572192,-4.5566)">
    <path
       transform="matrix(0.004,0,0,-0.004,80.1097,10.8326)"
       d="m 212,138 c 59,0 113,-31 113,-95 0,-71 -52,-120 -99,-148 -34,-21 -73,-33 -113,-33 -59,0 -113,31 -113,95 0,71 53,120 100,148 34,21 72,33 112,33 z"
       id="path6591"
       inkscape:connector-curvature="0"
       style="fill:currentColor" />
  </a>
  <a
     style="color:inherit"
     xlink:href="textedit://C:/Users/tikeda/Documents/git/LotusRoot/sco.txt:3:28:29"
     id="a6597"
     transform="translate(-6.0572192,-4.5566)">
    <path
       transform="matrix(0.004,0,0,-0.004,89.8164,10.8326)"
       d="m 212,138 c 59,0 113,-31 113,-95 0,-71 -52,-120 -99,-148 -34,-21 -73,-33 -113,-33 -59,0 -113,31 -113,95 0,71 53,120 100,148 34,21 72,33 112,33 z"
       id="path6595"
       inkscape:connector-curvature="0"
       style="fill:currentColor" />
  </a>
  <rect
     x="84.908585"
     y="1.4842"
     width="0.1514"
     height="4.6205001"
     ry="0.050000001"
     id="rect6599"
     style="fill:currentColor" />
  <path
     d="m 83.101181,7.592 c -0.048,0 -0.084,-0.036 -0.084,-0.084 V 6.956 l -0.316,0.12 v 0.616 c 0,0.048 -0.036,0.084 -0.084,0.084 -0.048,0 -0.084,-0.036 -0.084,-0.084 V 7.14 l -0.088,0.032 c -0.012,0.004 -0.024,0.008 -0.036,0.008 -0.052,0 -0.1,-0.044 -0.1,-0.1 V 6.864 c 0,-0.04 0.024,-0.08 0.064,-0.096 l 0.16,-0.06 v -0.62 l -0.088,0.036 c -0.012,0.004 -0.024,0.004 -0.036,0.004 -0.052,0 -0.1,-0.044 -0.1,-0.1 V 5.812 c 0,-0.04 0.024,-0.076 0.064,-0.092 l 0.16,-0.06 V 5.044 c 0,-0.048 0.036,-0.084 0.084,-0.084 0.048,0 0.084,0.036 0.084,0.084 v 0.552 l 0.316,-0.12 v -0.9 c 0,-0.052 -0.02,-0.076 -0.052,-0.076 -0.068,0 -0.196,0.092 -0.308,0.156 -0.04,0.024 -0.084,-0.02 -0.056,-0.06 0.204,-0.288 0.332,-0.616 0.464,-0.944 0.008,-0.016 0.024,-0.024 0.036,-0.024 0.012,0 0.024,0.008 0.032,0.024 0.132,0.328 0.26,0.656 0.464,0.944 0.004,0.008 0.008,0.016 0.008,0.024 0,0.032 -0.032,0.056 -0.064,0.036 -0.112,-0.064 -0.24,-0.156 -0.308,-0.156 -0.032,0 -0.048,0.024 -0.048,0.076 v 0.836 l 0.088,-0.032 c 0.012,-0.004 0.024,-0.008 0.036,-0.008 0.052,0 0.1,0.044 0.1,0.1 v 0.216 c 0,0.04 -0.024,0.08 -0.064,0.096 l -0.16,0.06 v 0.62 l 0.088,-0.036 c 0.012,-0.004 0.024,-0.004 0.036,-0.004 0.052,0 0.1,0.044 0.1,0.1 V 6.74 c 0,0.04 -0.024,0.076 -0.064,0.092 l -0.16,0.06 v 0.616 c 0,0.048 -0.036,0.084 -0.084,0.084 z m -0.4,-1.564 v 0.616 l 0.316,-0.12 V 5.908 Z"
     id="path6601"
     inkscape:connector-curvature="0"
     style="fill:currentColor;stroke-width:0.004" />
  <a
     style="color:inherit"
     xlink:href="textedit://C:/Users/tikeda/Documents/git/LotusRoot/sco.txt:3:35:36"
     id="a6605"
     transform="translate(-6.0572192,-4.5566)">
    <path
       transform="matrix(0.004,0,0,-0.004,95.1697,10.8326)"
       d="m 212,138 c 59,0 113,-31 113,-95 0,-71 -52,-120 -99,-148 -34,-21 -73,-33 -113,-33 -59,0 -113,31 -113,95 0,71 53,120 100,148 34,21 72,33 112,33 z"
       id="path6603"
       inkscape:connector-curvature="0"
       style="fill:currentColor" />
  </a>
  <rect
     x="90.261978"
     y="1.7711999"
     width="0.1514"
     height="4.3334999"
     ry="0.050000001"
     id="rect6607"
     style="fill:currentColor" />
  <rect
     x="132.89368"
     y="0.48419997"
     width="0.1514"
     height="4.6205001"
     ry="0.050000001"
     id="rect6609"
     style="fill:currentColor" />
  <a
     style="color:inherit"
     xlink:href="textedit://C:/Users/tikeda/Documents/git/LotusRoot/sco.txt:4:35:36"
     id="a6613"
     transform="translate(-6.0572192,-4.5566)">
    <path
       transform="matrix(0.004,0,0,-0.004,137.8015,9.8326)"
       d="m 212,138 c 59,0 113,-31 113,-95 0,-71 -52,-120 -99,-148 -34,-21 -73,-33 -113,-33 -59,0 -113,31 -113,95 0,71 53,120 100,148 34,21 72,33 112,33 z"
       id="path6611"
       inkscape:connector-curvature="0"
       style="fill:currentColor" />
  </a>
  <path
     d="m 126.27288,6.524 c 0,0.048 -0.036,0.08 -0.084,0.08 -0.048,0 -0.08,-0.032 -0.08,-0.08 V 6.076 l -0.116,0.068 c -0.016,0.008 -0.036,0.016 -0.052,0.016 -0.052,0 -0.1,-0.044 -0.1,-0.104 V 5.84 c 0,-0.036 0.016,-0.064 0.048,-0.084 l 0.22,-0.132 v -0.6 l -0.116,0.068 c -0.016,0.008 -0.036,0.016 -0.052,0.016 -0.052,0 -0.1,-0.04 -0.1,-0.1 V 4.792 c 0,-0.036 0.016,-0.068 0.048,-0.088 l 0.22,-0.128 V 4.028 c 0,-0.048 0.032,-0.08 0.08,-0.08 0.048,0 0.084,0.032 0.084,0.08 v 0.448 l 0.116,-0.068 c 0.016,-0.008 0.036,-0.016 0.052,-0.016 0.052,0 0.1,0.044 0.1,0.104 v 0.216 c 0,0.036 -0.016,0.064 -0.048,0.084 l -0.22,0.132 v 0.6 l 0.116,-0.068 c 0.016,-0.008 0.036,-0.016 0.052,-0.016 0.052,0 0.1,0.04 0.1,0.1 V 5.76 c 0,0.036 -0.016,0.068 -0.048,0.088 l -0.22,0.128 z"
     id="path6615"
     inkscape:connector-curvature="0"
     style="fill:currentColor;stroke-width:0.004" />
  <rect
     x="128.04037"
     y="0.48419997"
     width="0.1514"
     height="4.6205001"
     ry="0.050000001"
     id="rect6617"
     style="fill:currentColor" />
  <a
     style="color:inherit"
     xlink:href="textedit://C:/Users/tikeda/Documents/git/LotusRoot/sco.txt:4:29:30"
     id="a6621"
     transform="translate(-6.0572192,-4.5566)">
    <path
       transform="matrix(0.004,0,0,-0.004,132.9481,9.8326)"
       d="m 212,138 c 59,0 113,-31 113,-95 0,-71 -52,-120 -99,-148 -34,-21 -73,-33 -113,-33 -59,0 -113,31 -113,95 0,71 53,120 100,148 34,21 72,33 112,33 z"
       id="path6619"
       inkscape:connector-curvature="0"
       style="fill:currentColor" />
  </a>
  <path
     d="m 121.96998,4.452 h 0.016 c 0.04,0 0.076,0.032 0.076,0.072 l 0.032,2.252 c -0.032,0.02 -0.072,0.028 -0.108,0.028 -0.036,0 -0.072,-0.008 -0.104,-0.028 l 0.008,-0.768 -0.404,0.092 h -0.016 c -0.04,0 -0.076,-0.032 -0.076,-0.072 -0.004,-0.82 -0.012,-1.636 -0.016,-2.456 0,-0.052 -0.02,-0.072 -0.052,-0.072 -0.068,0 -0.192,0.092 -0.304,0.156 -0.008,0.004 -0.016,0.008 -0.024,0.008 -0.024,0 -0.048,-0.024 -0.048,-0.048 0,-0.008 0,-0.02 0.008,-0.028 0.2,-0.288 0.344,-0.608 0.476,-0.936 0.008,-0.016 0.02,-0.024 0.036,-0.024 0.016,0 0.028,0.008 0.036,0.024 0.132,0.328 0.272,0.648 0.472,0.936 0.008,0.008 0.008,0.02 0.008,0.028 0,0.024 -0.02,0.048 -0.044,0.048 -0.008,0 -0.016,-0.004 -0.024,-0.008 -0.112,-0.064 -0.24,-0.156 -0.308,-0.156 -0.032,0 -0.052,0.02 -0.052,0.072 -0.004,0.324 0,0.648 -0.004,0.972 z m -0.064,0.384 -0.356,0.08 -0.004,0.8 0.352,-0.076 z"
     id="path6623"
     inkscape:connector-curvature="0"
     style="fill:currentColor;stroke-width:0.004" />
  <path
     d="m 131.08628,6.592 c -0.048,0 -0.084,-0.036 -0.084,-0.084 V 5.956 l -0.316,0.12 v 0.9 c 0,0.052 0.02,0.076 0.052,0.076 0.068,0 0.196,-0.092 0.308,-0.156 0.04,-0.024 0.084,0.02 0.056,0.06 -0.204,0.288 -0.332,0.616 -0.464,0.944 -0.008,0.016 -0.024,0.024 -0.036,0.024 -0.012,0 -0.024,-0.008 -0.032,-0.024 -0.132,-0.328 -0.26,-0.656 -0.464,-0.944 -0.004,-0.008 -0.008,-0.016 -0.008,-0.024 0,-0.032 0.032,-0.056 0.064,-0.036 0.112,0.064 0.24,0.156 0.308,0.156 0.032,0 0.048,-0.024 0.048,-0.076 V 6.14 l -0.088,0.032 c -0.012,0.004 -0.024,0.008 -0.036,0.008 -0.052,0 -0.1,-0.044 -0.1,-0.1 V 5.864 c 0,-0.04 0.024,-0.08 0.064,-0.096 l 0.16,-0.06 v -0.62 l -0.088,0.036 c -0.012,0.004 -0.024,0.004 -0.036,0.004 -0.052,0 -0.1,-0.044 -0.1,-0.1 V 4.812 c 0,-0.04 0.024,-0.076 0.064,-0.092 l 0.16,-0.06 V 4.044 c 0,-0.048 0.036,-0.084 0.084,-0.084 0.048,0 0.084,0.036 0.084,0.084 v 0.552 l 0.316,-0.12 V 3.86 c 0,-0.048 0.036,-0.084 0.084,-0.084 0.048,0 0.084,0.036 0.084,0.084 v 0.552 l 0.088,-0.032 c 0.012,-0.004 0.024,-0.008 0.036,-0.008 0.052,0 0.1,0.044 0.1,0.1 v 0.216 c 0,0.04 -0.024,0.08 -0.064,0.096 l -0.16,0.06 v 0.62 l 0.088,-0.036 c 0.012,-0.004 0.024,-0.004 0.036,-0.004 0.052,0 0.1,0.044 0.1,0.1 V 5.74 c 0,0.04 -0.024,0.076 -0.064,0.092 l -0.16,0.06 v 0.616 c 0,0.048 -0.036,0.084 -0.084,0.084 z m -0.4,-1.564 v 0.616 l 0.316,-0.12 V 4.908 Z"
     id="path6625"
     inkscape:connector-curvature="0"
     style="fill:currentColor;stroke-width:0.004" />
  <polygon
     transform="translate(128.04038,0.4842)"
     points="0.05,0.3 0.05,-0.3 4.9547,-0.3 4.9547,0.3 "
     id="polygon6627"
     style="fill:currentColor;stroke:currentColor;stroke-width:0.1;stroke-linecap:round;stroke-linejoin:round" />
  <polygon
     transform="translate(119.14018,0.4842)"
     points="0.05,0.3 0.05,-0.3 4.5483,-0.3 4.5483,0.3 "
     id="polygon6629"
     style="fill:currentColor;stroke:currentColor;stroke-width:0.1;stroke-linecap:round;stroke-linejoin:round" />
  <polygon
     transform="translate(110.26238,1.0678)"
     points="0.05,0.3 0.05,-0.3 4.5322,-0.5918 4.5322,0.0082 "
     id="polygon6631"
     style="fill:currentColor;stroke:currentColor;stroke-width:0.1;stroke-linecap:round;stroke-linejoin:round" />
  <polygon
     transform="translate(101.36218,1.0678)"
     points="0.05,0.3 0.05,-0.3 4.5483,-0.3 4.5483,0.3 "
     id="polygon6633"
     style="fill:currentColor;stroke:currentColor;stroke-width:0.1;stroke-linecap:round;stroke-linejoin:round" />
  <polygon
     transform="translate(90.261981,1.776)"
     points="0.05,0.3 0.05,-0.3 4.5322,-0.5918 4.5322,0.0082 "
     id="polygon6635"
     style="fill:currentColor;stroke:currentColor;stroke-width:0.1;stroke-linecap:round;stroke-linejoin:round" />
  <polygon
     transform="translate(80.055281,1.4842)"
     points="0.05,0.3 0.05,-0.3 4.9547,-0.3 4.9547,0.3 "
     id="polygon6637"
     style="fill:currentColor;stroke:currentColor;stroke-width:0.1;stroke-linecap:round;stroke-linejoin:round" />
  <polygon
     transform="translate(70.348681,1.4842)"
     points="0.05,0.3 0.05,-0.3 4.9547,-0.3 4.9547,0.3 "
     id="polygon6639"
     style="fill:currentColor;stroke:currentColor;stroke-width:0.1;stroke-linecap:round;stroke-linejoin:round" />
  <polygon
     transform="translate(61.448381,1.4842)"
     points="0.05,0.3 0.05,-0.3 4.5483,-0.3 4.5483,0.3 "
     id="polygon6641"
     style="fill:currentColor;stroke:currentColor;stroke-width:0.1;stroke-linecap:round;stroke-linejoin:round" />
  <polygon
     transform="translate(50.371681,2.0678)"
     points="0.05,0.3 0.05,-0.3 4.5322,-0.5918 4.5322,0.0082 "
     id="polygon6643"
     style="fill:currentColor;stroke:currentColor;stroke-width:0.1;stroke-linecap:round;stroke-linejoin:round" />
  <polygon
     transform="translate(40.165081,2.0678)"
     points="0.05,0.3 0.05,-0.3 4.9547,-0.3 4.9547,0.3 "
     id="polygon6645"
     style="fill:currentColor;stroke:currentColor;stroke-width:0.1;stroke-linecap:round;stroke-linejoin:round" />
  <polygon
     transform="translate(30.458381,2.0678)"
     points="0.05,0.3 0.05,-0.3 4.9547,-0.3 4.9547,0.3 "
     id="polygon6647"
     style="fill:currentColor;stroke:currentColor;stroke-width:0.1;stroke-linecap:round;stroke-linejoin:round" />
  <path
     d="m 104.19198,4.952 h 0.016 c 0.04,0 0.076,0.032 0.076,0.072 l 0.032,2.252 c -0.032,0.02 -0.072,0.028 -0.108,0.028 -0.036,0 -0.072,-0.008 -0.104,-0.028 l 0.008,-0.768 -0.404,0.092 h -0.016 c -0.04,0 -0.076,-0.032 -0.076,-0.072 -0.004,-0.82 -0.012,-1.636 -0.016,-2.456 0,-0.052 -0.02,-0.072 -0.052,-0.072 -0.068,0 -0.192,0.092 -0.304,0.156 -0.008,0.004 -0.016,0.008 -0.024,0.008 -0.024,0 -0.048,-0.024 -0.048,-0.048 0,-0.008 0,-0.02 0.008,-0.028 0.2,-0.288 0.344,-0.608 0.476,-0.936 0.008,-0.016 0.02,-0.024 0.036,-0.024 0.016,0 0.028,0.008 0.036,0.024 0.132,0.328 0.272,0.648 0.472,0.936 0.008,0.008 0.008,0.02 0.008,0.028 0,0.024 -0.02,0.048 -0.044,0.048 -0.008,0 -0.016,-0.004 -0.024,-0.008 -0.112,-0.064 -0.24,-0.156 -0.308,-0.156 -0.032,0 -0.052,0.02 -0.052,0.072 -0.004,0.324 0,0.648 -0.004,0.972 z m -0.064,0.384 -0.356,0.08 -0.004,0.8 0.352,-0.076 z"
     id="path6649"
     inkscape:connector-curvature="0"
     style="fill:currentColor;stroke-width:0.004" />
  <a
     style="color:inherit"
     xlink:href="textedit://C:/Users/tikeda/Documents/git/LotusRoot/sco.txt:4:9:10"
     id="a6653"
     transform="translate(-6.0572192,-4.5566)">
    <path
       transform="matrix(0.004,0,0,-0.004,115.1701,10.3326)"
       d="m 212,138 c 59,0 113,-31 113,-95 0,-71 -52,-120 -99,-148 -34,-21 -73,-33 -113,-33 -59,0 -113,31 -113,95 0,71 53,120 100,148 34,21 72,33 112,33 z"
       id="path6651"
       inkscape:connector-curvature="0"
       style="fill:currentColor" />
  </a>
  <rect
     x="110.26238"
     y="1.063"
     width="0.1514"
     height="4.5416999"
     ry="0.050000001"
     id="rect6655"
     style="fill:currentColor" />
  <path
     d="m 108.49488,7.024 c 0,0.048 -0.036,0.08 -0.084,0.08 -0.048,0 -0.08,-0.032 -0.08,-0.08 V 6.576 l -0.116,0.068 c -0.016,0.008 -0.036,0.016 -0.052,0.016 -0.052,0 -0.1,-0.044 -0.1,-0.104 V 6.34 c 0,-0.036 0.016,-0.064 0.048,-0.084 l 0.22,-0.132 v -0.6 l -0.116,0.068 c -0.016,0.008 -0.036,0.016 -0.052,0.016 -0.052,0 -0.1,-0.04 -0.1,-0.1 V 5.292 c 0,-0.036 0.016,-0.068 0.048,-0.088 l 0.22,-0.128 V 4.528 c 0,-0.048 0.032,-0.08 0.08,-0.08 0.048,0 0.084,0.032 0.084,0.08 v 0.448 l 0.116,-0.068 c 0.016,-0.008 0.036,-0.016 0.052,-0.016 0.052,0 0.1,0.044 0.1,0.104 v 0.216 c 0,0.036 -0.016,0.064 -0.048,0.084 l -0.22,0.132 v 0.6 l 0.116,-0.068 c 0.016,-0.008 0.036,-0.016 0.052,-0.016 0.052,0 0.1,0.04 0.1,0.1 V 6.26 c 0,0.036 -0.016,0.068 -0.048,0.088 l -0.22,0.128 z"
     id="path6657"
     inkscape:connector-curvature="0"
     style="fill:currentColor;stroke-width:0.004" />
  <a
     style="color:inherit"
     xlink:href="textedit://C:/Users/tikeda/Documents/git/LotusRoot/sco.txt:4:15:16"
     id="a6661"
     transform="translate(-6.0572192,-4.5566)">
    <path
       transform="matrix(0.004,0,0,-0.004,119.601,9.8326)"
       d="m 212,138 c 59,0 113,-31 113,-95 0,-71 -52,-120 -99,-148 -34,-21 -73,-33 -113,-33 -59,0 -113,31 -113,95 0,71 53,120 100,148 34,21 72,33 112,33 z"
       id="path6659"
       inkscape:connector-curvature="0"
       style="fill:currentColor" />
  </a>
  <rect
     x="114.69318"
     y="0.7808001"
     width="0.1514"
     height="4.3238001"
     ry="0.050000001"
     id="rect6663"
     style="fill:currentColor" />
  <path
     d="m 112.48428,3.776 c 0.032,-0.02 0.072,-0.028 0.108,-0.028 0.036,0 0.072,0.008 0.104,0.028 l -0.012,0.768 0.408,-0.092 h 0.016 c 0.04,0 0.076,0.032 0.076,0.072 0.004,0.82 0.012,1.636 0.016,2.456 0,0.052 0.02,0.072 0.052,0.072 0.068,0 0.192,-0.092 0.304,-0.156 0.008,-0.004 0.016,-0.008 0.024,-0.008 0.024,0 0.048,0.024 0.048,0.048 0,0.008 0,0.02 -0.008,0.028 -0.2,0.288 -0.344,0.608 -0.476,0.936 -0.008,0.016 -0.02,0.024 -0.036,0.024 -0.016,0 -0.028,-0.008 -0.036,-0.024 -0.132,-0.328 -0.272,-0.648 -0.472,-0.936 -0.008,-0.008 -0.012,-0.02 -0.012,-0.028 0,-0.024 0.024,-0.048 0.048,-0.048 0.008,0 0.016,0.004 0.024,0.008 0.112,0.064 0.236,0.156 0.304,0.156 0.032,0 0.052,-0.02 0.052,-0.072 0.004,-0.324 0.004,-0.648 0.008,-0.972 l -0.416,0.092 h -0.016 c -0.04,0 -0.076,-0.032 -0.076,-0.072 z m 0.548,1.06 -0.352,0.076 -0.012,0.804 0.36,-0.08 z"
     id="path6665"
     inkscape:connector-curvature="0"
     style="fill:currentColor;stroke-width:0.004" />
  <a
     style="color:inherit"
     xlink:href="textedit://C:/Users/tikeda/Documents/git/LotusRoot/sco.txt:4:20:21"
     id="a6669"
     transform="translate(-6.0572192,-4.5566)">
    <path
       transform="matrix(0.004,0,0,-0.004,124.0479,9.8326)"
       d="m 212,138 c 59,0 113,-31 113,-95 0,-71 -52,-120 -99,-148 -34,-21 -73,-33 -113,-33 -59,0 -113,31 -113,95 0,71 53,120 100,148 34,21 72,33 112,33 z"
       id="path6667"
       inkscape:connector-curvature="0"
       style="fill:currentColor" />
  </a>
  <rect
     x="119.14008"
     y="0.48419997"
     width="0.1514"
     height="4.6205001"
     ry="0.050000001"
     id="rect6671"
     style="fill:currentColor" />
  <path
     d="m 116.91508,3.776 c 0.032,-0.02 0.072,-0.028 0.108,-0.028 0.036,0 0.072,0.008 0.104,0.028 l -0.012,0.768 0.408,-0.092 h 0.016 c 0.04,0 0.076,0.032 0.076,0.072 l 0.032,2.252 c -0.032,0.02 -0.072,0.028 -0.108,0.028 -0.036,0 -0.072,-0.008 -0.104,-0.028 l 0.008,-0.768 -0.404,0.092 h -0.016 c -0.04,0 -0.076,-0.032 -0.076,-0.072 z m 0.544,1.06 -0.348,0.076 -0.012,0.804 0.352,-0.076 z"
     id="path6673"
     inkscape:connector-curvature="0"
     style="fill:currentColor;stroke-width:0.004" />
  <a
     style="color:inherit"
     xlink:href="textedit://C:/Users/tikeda/Documents/git/LotusRoot/sco.txt:4:24:25"
     id="a6677"
     transform="translate(-6.0572192,-4.5566)">
    <path
       transform="matrix(0.004,0,0,-0.004,128.4948,9.8326)"
       d="m 212,138 c 59,0 113,-31 113,-95 0,-71 -52,-120 -99,-148 -34,-21 -73,-33 -113,-33 -59,0 -113,31 -113,95 0,71 53,120 100,148 34,21 72,33 112,33 z"
       id="path6675"
       inkscape:connector-curvature="0"
       style="fill:currentColor" />
  </a>
  <rect
     x="123.58708"
     y="0.48419997"
     width="0.1514"
     height="4.6205001"
     ry="0.050000001"
     id="rect6679"
     style="fill:currentColor" />
  <rect
     x="40.164982"
     y="2.0678"
     width="0.1514"
     height="4.5369"
     ry="0.050000001"
     id="rect6681"
     style="fill:currentColor" />
  <a
     style="color:inherit"
     xlink:href="textedit://C:/Users/tikeda/Documents/git/LotusRoot/sco.txt:2:32:33"
     id="a6685"
     transform="translate(-6.0572192,-4.5566)">
    <path
       transform="matrix(0.004,0,0,-0.004,45.0728,11.3326)"
       d="m 212,138 c 59,0 113,-31 113,-95 0,-71 -52,-120 -99,-148 -34,-21 -73,-33 -113,-33 -59,0 -113,31 -113,95 0,71 53,120 100,148 34,21 72,33 112,33 z"
       id="path6683"
       inkscape:connector-curvature="0"
       style="fill:currentColor" />
  </a>
  <path
     d="m 33.504281,8.092 c -0.048,0 -0.084,-0.036 -0.084,-0.084 V 7.456 l -0.316,0.12 v 0.9 c 0,0.052 0.02,0.076 0.052,0.076 0.068,0 0.196,-0.092 0.308,-0.156 0.04,-0.024 0.084,0.02 0.056,0.06 -0.204,0.288 -0.332,0.616 -0.464,0.944 -0.008,0.016 -0.024,0.024 -0.036,0.024 -0.012,0 -0.024,-0.008 -0.032,-0.024 -0.132,-0.328 -0.26,-0.656 -0.464,-0.944 -0.004,-0.008 -0.008,-0.016 -0.008,-0.024 0,-0.032 0.032,-0.056 0.064,-0.036 0.112,0.064 0.24,0.156 0.308,0.156 0.032,0 0.048,-0.024 0.048,-0.076 V 7.64 l -0.088,0.032 c -0.012,0.004 -0.024,0.008 -0.036,0.008 -0.052,0 -0.1,-0.044 -0.1,-0.1 V 7.364 c 0,-0.04 0.024,-0.08 0.064,-0.096 l 0.16,-0.06 v -0.62 l -0.088,0.036 c -0.012,0.004 -0.024,0.004 -0.036,0.004 -0.052,0 -0.1,-0.044 -0.1,-0.1 V 6.312 c 0,-0.04 0.024,-0.076 0.064,-0.092 l 0.16,-0.06 V 5.544 c 0,-0.048 0.036,-0.084 0.084,-0.084 0.048,0 0.084,0.036 0.084,0.084 v 0.552 l 0.316,-0.12 V 5.36 c 0,-0.048 0.036,-0.084 0.084,-0.084 0.048,0 0.084,0.036 0.084,0.084 v 0.552 l 0.088,-0.032 c 0.012,-0.004 0.024,-0.008 0.036,-0.008 0.052,0 0.1,0.044 0.1,0.1 v 0.216 c 0,0.04 -0.024,0.08 -0.064,0.096 l -0.16,0.06 v 0.62 l 0.088,-0.036 c 0.012,-0.004 0.024,-0.004 0.036,-0.004 0.052,0 0.1,0.044 0.1,0.1 V 7.24 c 0,0.04 -0.024,0.076 -0.064,0.092 l -0.16,0.06 v 0.616 c 0,0.048 -0.036,0.084 -0.084,0.084 z m -0.4,-1.564 v 0.616 l 0.316,-0.12 V 6.408 Z"
     id="path6687"
     inkscape:connector-curvature="0"
     style="fill:currentColor;stroke-width:0.004" />
  <rect
     x="35.31168"
     y="2.0678"
     width="0.1514"
     height="4.5369"
     ry="0.050000001"
     id="rect6689"
     style="fill:currentColor" />
  <a
     style="color:inherit"
     xlink:href="textedit://C:/Users/tikeda/Documents/git/LotusRoot/sco.txt:2:25:26"
     id="a6693"
     transform="translate(-6.0572192,-4.5566)">
    <path
       transform="matrix(0.004,0,0,-0.004,40.2195,11.3326)"
       d="m 212,138 c 59,0 113,-31 113,-95 0,-71 -52,-120 -99,-148 -34,-21 -73,-33 -113,-33 -59,0 -113,31 -113,95 0,71 53,120 100,148 34,21 72,33 112,33 z"
       id="path6691"
       inkscape:connector-curvature="0"
       style="fill:currentColor" />
  </a>
  <path
     d="m 28.690881,8.024 c 0,0.048 -0.036,0.08 -0.084,0.08 -0.048,0 -0.08,-0.032 -0.08,-0.08 V 7.576 l -0.116,0.068 c -0.016,0.008 -0.036,0.016 -0.052,0.016 -0.052,0 -0.1,-0.044 -0.1,-0.104 V 7.34 c 0,-0.036 0.016,-0.064 0.048,-0.084 l 0.22,-0.132 v -0.6 l -0.116,0.068 c -0.016,0.008 -0.036,0.016 -0.052,0.016 -0.052,0 -0.1,-0.04 -0.1,-0.1 V 6.292 c 0,-0.036 0.016,-0.068 0.048,-0.088 l 0.22,-0.128 V 5.528 c 0,-0.048 0.032,-0.08 0.08,-0.08 0.048,0 0.084,0.032 0.084,0.08 v 0.448 l 0.116,-0.068 c 0.016,-0.008 0.036,-0.016 0.052,-0.016 0.052,0 0.1,0.044 0.1,0.104 v 0.216 c 0,0.036 -0.016,0.064 -0.048,0.084 l -0.22,0.132 v 0.6 l 0.116,-0.068 c 0.016,-0.008 0.036,-0.016 0.052,-0.016 0.052,0 0.1,0.04 0.1,0.1 V 7.26 c 0,0.036 -0.016,0.068 -0.048,0.088 l -0.22,0.128 z"
     id="path6695"
     inkscape:connector-curvature="0"
     style="fill:currentColor;stroke-width:0.004" />
  <path
     d="m 38.357581,8.092 c -0.048,0 -0.084,-0.036 -0.084,-0.084 V 7.456 l -0.316,0.12 v 0.616 c 0,0.048 -0.036,0.084 -0.084,0.084 -0.048,0 -0.084,-0.036 -0.084,-0.084 V 7.64 l -0.088,0.032 c -0.012,0.004 -0.024,0.008 -0.036,0.008 -0.052,0 -0.1,-0.044 -0.1,-0.1 V 7.364 c 0,-0.04 0.024,-0.08 0.064,-0.096 l 0.16,-0.06 v -0.62 l -0.088,0.036 c -0.012,0.004 -0.024,0.004 -0.036,0.004 -0.052,0 -0.1,-0.044 -0.1,-0.1 V 6.312 c 0,-0.04 0.024,-0.076 0.064,-0.092 l 0.16,-0.06 V 5.544 c 0,-0.048 0.036,-0.084 0.084,-0.084 0.048,0 0.084,0.036 0.084,0.084 v 0.552 l 0.316,-0.12 V 5.36 c 0,-0.048 0.036,-0.084 0.084,-0.084 0.048,0 0.084,0.036 0.084,0.084 v 0.552 l 0.088,-0.032 c 0.012,-0.004 0.024,-0.008 0.036,-0.008 0.052,0 0.1,0.044 0.1,0.1 v 0.216 c 0,0.04 -0.024,0.08 -0.064,0.096 l -0.16,0.06 v 0.62 l 0.088,-0.036 c 0.012,-0.004 0.024,-0.004 0.036,-0.004 0.052,0 0.1,0.044 0.1,0.1 V 7.24 c 0,0.04 -0.024,0.076 -0.064,0.092 l -0.16,0.06 v 0.616 c 0,0.048 -0.036,0.084 -0.084,0.084 z m -0.4,-1.564 v 0.616 l 0.316,-0.12 V 6.408 Z"
     id="path6697"
     inkscape:connector-curvature="0"
     style="fill:currentColor;stroke-width:0.004" />
  <a
     style="color:inherit"
     xlink:href="textedit://C:/Users/tikeda/Documents/git/LotusRoot/sco.txt:2:38:39"
     id="a6701"
     transform="translate(-6.0572192,-4.5566)">
    <path
       transform="matrix(0.004,0,0,-0.004,49.9261,11.3326)"
       d="m 212,138 c 59,0 113,-31 113,-95 0,-71 -52,-120 -99,-148 -34,-21 -73,-33 -113,-33 -59,0 -113,31 -113,95 0,71 53,120 100,148 34,21 72,33 112,33 z"
       id="path6699"
       inkscape:connector-curvature="0"
       style="fill:currentColor" />
  </a>
  <rect
     x="45.018379"
     y="2.0678"
     width="0.1514"
     height="4.5369"
     ry="0.050000001"
     id="rect6703"
     style="fill:currentColor" />
  <path
     d="m 43.210881,8.092 c -0.048,0 -0.084,-0.036 -0.084,-0.084 V 7.456 l -0.316,0.12 v 0.616 c 0,0.048 -0.036,0.084 -0.084,0.084 -0.048,0 -0.084,-0.036 -0.084,-0.084 V 7.64 l -0.088,0.032 c -0.012,0.004 -0.024,0.008 -0.036,0.008 -0.052,0 -0.1,-0.044 -0.1,-0.1 V 7.364 c 0,-0.04 0.024,-0.08 0.064,-0.096 l 0.16,-0.06 v -0.62 l -0.088,0.036 c -0.012,0.004 -0.024,0.004 -0.036,0.004 -0.052,0 -0.1,-0.044 -0.1,-0.1 V 6.312 c 0,-0.04 0.024,-0.076 0.064,-0.092 l 0.16,-0.06 V 5.544 c 0,-0.048 0.036,-0.084 0.084,-0.084 0.048,0 0.084,0.036 0.084,0.084 v 0.552 l 0.316,-0.12 v -0.9 c 0,-0.052 -0.02,-0.076 -0.052,-0.076 -0.068,0 -0.196,0.092 -0.308,0.156 -0.04,0.024 -0.084,-0.02 -0.056,-0.06 0.204,-0.288 0.332,-0.616 0.464,-0.944 0.008,-0.016 0.024,-0.024 0.036,-0.024 0.012,0 0.024,0.008 0.032,0.024 0.132,0.328 0.26,0.656 0.464,0.944 0.004,0.008 0.008,0.016 0.008,0.024 0,0.032 -0.032,0.056 -0.064,0.036 -0.112,-0.064 -0.24,-0.156 -0.308,-0.156 -0.032,0 -0.048,0.024 -0.048,0.076 v 0.836 l 0.088,-0.032 c 0.012,-0.004 0.024,-0.008 0.036,-0.008 0.052,0 0.1,0.044 0.1,0.1 v 0.216 c 0,0.04 -0.024,0.08 -0.064,0.096 l -0.16,0.06 v 0.62 l 0.088,-0.036 c 0.012,-0.004 0.024,-0.004 0.036,-0.004 0.052,0 0.1,0.044 0.1,0.1 V 7.24 c 0,0.04 -0.024,0.076 -0.064,0.092 l -0.16,0.06 v 0.616 c 0,0.048 -0.036,0.084 -0.084,0.084 z m -0.4,-1.564 v 0.616 l 0.316,-0.12 V 6.408 Z"
     id="path6705"
     inkscape:connector-curvature="0"
     style="fill:currentColor;stroke-width:0.004" />
  <a
     style="color:inherit"
     xlink:href="textedit://C:/Users/tikeda/Documents/git/LotusRoot/sco.txt:2:10:11"
     id="a6709"
     transform="translate(-6.0572192,-4.5566)">
    <path
       transform="matrix(0.004,0,0,-0.004,26.4659,11.3326)"
       d="m 212,138 c 59,0 113,-31 113,-95 0,-71 -52,-120 -99,-148 -34,-21 -73,-33 -113,-33 -59,0 -113,31 -113,95 0,71 53,120 100,148 34,21 72,33 112,33 z"
       id="path6707"
       inkscape:connector-curvature="0"
       style="fill:currentColor" />
  </a>
  <path
     d="m 14.041781,3.72 c 0.012,0 0.028,-0.004 0.04,-0.004 0.628,0 1.032,0.516 1.032,1.052 0,0.308 -0.132,0.62 -0.432,0.844 -0.088,0.064 -0.184,0.116 -0.288,0.148 0.012,0.132 0.016,0.264 0.016,0.396 0,0.084 0,0.164 -0.004,0.248 -0.028,0.484 -0.364,0.916 -0.844,0.916 -0.432,0 -0.784,-0.352 -0.784,-0.788 0,-0.232 0.216,-0.412 0.452,-0.412 0.216,0 0.38,0.188 0.38,0.412 0,0.208 -0.172,0.38 -0.38,0.38 -0.036,0 -0.072,-0.004 -0.108,-0.016 0.1,0.148 0.264,0.244 0.452,0.244 0.38,0 0.624,-0.372 0.648,-0.764 0.004,-0.076 0.008,-0.152 0.008,-0.228 0,-0.116 -0.004,-0.232 -0.012,-0.348 -0.116,0.02 -0.232,0.032 -0.352,0.032 -0.756,0 -1.332,-0.692 -1.332,-1.504 0,-0.708 0.516,-1.232 0.976,-1.772 -0.08,-0.248 -0.16,-0.496 -0.192,-0.756 -0.028,-0.208 -0.028,-0.42 -0.028,-0.632 0,-0.456 0.216,-0.884 0.588,-1.152 0.016,-0.012 0.032,-0.016 0.048,-0.016 0.02,0 0.036,0.008 0.052,0.02 0.288,0.332 0.54,0.972 0.54,1.424 0,0.568 -0.336,1.02 -0.704,1.456 0.084,0.272 0.16,0.544 0.228,0.82 z m 0.336,1.86 c 0.26,-0.096 0.44,-0.376 0.44,-0.644 0,-0.352 -0.256,-0.7 -0.668,-0.752 0.096,0.456 0.176,0.908 0.228,1.396 z m -1.544,-0.904 c 0,0.532 0.512,0.972 1.044,0.972 0.108,0 0.22,-0.004 0.324,-0.02 -0.052,-0.504 -0.14,-0.976 -0.24,-1.448 -0.316,0.032 -0.496,0.24 -0.496,0.472 0,0.172 0.1,0.352 0.32,0.48 0.02,0.02 0.028,0.044 0.028,0.068 0,0.048 -0.04,0.092 -0.092,0.092 -0.012,0 -0.028,-0.004 -0.04,-0.008 -0.324,-0.172 -0.472,-0.46 -0.472,-0.744 0,-0.356 0.24,-0.708 0.652,-0.8 -0.056,-0.228 -0.12,-0.452 -0.188,-0.676 -0.42,0.488 -0.84,0.972 -0.84,1.612 z m 1.304,-4.052 c -0.396,0.184 -0.644,0.58 -0.644,1.016 0,0.284 0.084,0.52 0.156,0.752 0.312,-0.388 0.568,-0.796 0.568,-1.296 0,-0.204 -0.016,-0.288 -0.08,-0.472 z"
     id="path6711"
     inkscape:connector-curvature="0"
     style="fill:currentColor;stroke-width:0.004" />
  <a
     style="color:inherit"
     xlink:href="textedit://C:/Users/tikeda/Documents/git/LotusRoot/sco.txt:2:0:1"
     id="a6715"
     transform="translate(-6.0572192,-4.5566)">
    <path
       transform="matrix(0.004,0,0,-0.004,22.783,8.3326)"
       d="m 356,30 c -48,0 -72,40 -72,72 0,37 26,75 70,75 3,0 6,-1 9,-1 -26,36 -67,59 -113,59 -107,0 -113,-74 -113,-189 0,-15 1,-30 1,-46 0,-16 -1,-31 -1,-46 0,-115 6,-189 113,-189 78,0 133,70 151,149 2,8 8,11 14,11 7,0 15,-5 15,-14 0,-95 -103,-176 -180,-176 -68,0 -137,20 -184,70 C 17,-143 0,-71 0,0 c 0,71 17,143 66,195 47,50 116,70 184,70 86,0 156,-67 171,-153 1,-4 1,-9 1,-13 0,-38 -30,-69 -66,-69 z"
       id="path6713"
       inkscape:connector-curvature="0"
       style="fill:currentColor" />
  </a>
  <rect
     x="21.558081"
     y="2.0678"
     width="0.1514"
     height="4.5369"
     ry="0.050000001"
     id="rect6717"
     style="fill:currentColor" />
  <a
     style="color:inherit"
     xlink:href="textedit://C:/Users/tikeda/Documents/git/LotusRoot/sco.txt:2:14:15"
     id="a6721"
     transform="translate(-6.0572192,-4.5566)">
    <path
       transform="matrix(0.004,0,0,-0.004,30.9128,11.3326)"
       d="m 212,138 c 59,0 113,-31 113,-95 0,-71 -52,-120 -99,-148 -34,-21 -73,-33 -113,-33 -59,0 -113,31 -113,95 0,71 53,120 100,148 34,21 72,33 112,33 z"
       id="path6719"
       inkscape:connector-curvature="0"
       style="fill:currentColor" />
  </a>
  <rect
     x="26.005081"
     y="2.0678"
     width="0.1514"
     height="4.5369"
     ry="0.050000001"
     id="rect6723"
     style="fill:currentColor" />
  <path
     d="m 24.387981,5.952 h 0.016 c 0.04,0 0.076,0.032 0.076,0.072 l 0.032,2.252 c -0.032,0.02 -0.072,0.028 -0.108,0.028 -0.036,0 -0.072,-0.008 -0.104,-0.028 l 0.008,-0.768 -0.404,0.092 h -0.016 c -0.04,0 -0.076,-0.032 -0.076,-0.072 -0.004,-0.82 -0.012,-1.636 -0.016,-2.456 0,-0.052 -0.02,-0.072 -0.052,-0.072 -0.068,0 -0.192,0.092 -0.304,0.156 -0.008,0.004 -0.016,0.008 -0.024,0.008 -0.024,0 -0.048,-0.024 -0.048,-0.048 0,-0.008 0,-0.02 0.008,-0.028 0.2,-0.288 0.344,-0.608 0.476,-0.936 0.008,-0.016 0.02,-0.024 0.036,-0.024 0.016,0 0.028,0.008 0.036,0.024 0.132,0.328 0.272,0.648 0.472,0.936 0.008,0.008 0.008,0.02 0.008,0.028 0,0.024 -0.02,0.048 -0.044,0.048 -0.008,0 -0.016,-0.004 -0.024,-0.008 -0.112,-0.064 -0.24,-0.156 -0.308,-0.156 -0.032,0 -0.052,0.02 -0.052,0.072 -0.004,0.324 0,0.648 -0.004,0.972 z m -0.064,0.384 -0.356,0.08 -0.004,0.8 0.352,-0.076 z"
     id="path6725"
     inkscape:connector-curvature="0"
     style="fill:currentColor;stroke-width:0.004" />
  <a
     style="color:inherit"
     xlink:href="textedit://C:/Users/tikeda/Documents/git/LotusRoot/sco.txt:2:19:20"
     id="a6729"
     transform="translate(-6.0572192,-4.5566)">
    <path
       transform="matrix(0.004,0,0,-0.004,35.3661,11.3326)"
       d="m 212,138 c 59,0 113,-31 113,-95 0,-71 -52,-120 -99,-148 -34,-21 -73,-33 -113,-33 -59,0 -113,31 -113,95 0,71 53,120 100,148 34,21 72,33 112,33 z"
       id="path6727"
       inkscape:connector-curvature="0"
       style="fill:currentColor" />
  </a>
  <rect
     x="30.458382"
     y="2.0678"
     width="0.1514"
     height="4.5369"
     ry="0.050000001"
     id="rect6731"
     style="fill:currentColor" />
  <a
     style="color:inherit"
     xlink:href="textedit://C:/Users/tikeda/Documents/git/LotusRoot/sco.txt:3:0:1"
     id="a6735"
     transform="translate(-6.0572192,-4.5566)">
    <path
       transform="matrix(0.004,0,0,-0.004,66.3561,10.8326)"
       d="m 212,138 c 59,0 113,-31 113,-95 0,-71 -52,-120 -99,-148 -34,-21 -73,-33 -113,-33 -59,0 -113,31 -113,95 0,71 53,120 100,148 34,21 72,33 112,33 z"
       id="path6733"
       inkscape:connector-curvature="0"
       style="fill:currentColor" />
  </a>
  <rect
     x="61.44838"
     y="1.4842"
     width="0.1514"
     height="4.6205001"
     ry="0.050000001"
     id="rect6737"
     style="fill:currentColor" />
  <path
     d="m 59.223281,4.776 c 0.032,-0.02 0.072,-0.028 0.108,-0.028 0.036,0 0.072,0.008 0.104,0.028 l -0.012,0.768 0.408,-0.092 h 0.016 c 0.04,0 0.076,0.032 0.076,0.072 l 0.032,2.252 c -0.032,0.02 -0.072,0.028 -0.108,0.028 -0.036,0 -0.072,-0.008 -0.104,-0.028 l 0.008,-0.768 -0.404,0.092 h -0.016 c -0.04,0 -0.076,-0.032 -0.076,-0.072 z m 0.544,1.06 -0.348,0.076 -0.012,0.804 0.352,-0.076 z"
     id="path6739"
     inkscape:connector-curvature="0"
     style="fill:currentColor;stroke-width:0.004" />
  <path
     d="m 64.278281,5.452 h 0.016 c 0.04,0 0.076,0.032 0.076,0.072 l 0.032,2.252 c -0.032,0.02 -0.072,0.028 -0.108,0.028 -0.036,0 -0.072,-0.008 -0.104,-0.028 l 0.008,-0.768 -0.404,0.092 h -0.016 c -0.04,0 -0.076,-0.032 -0.076,-0.072 -0.004,-0.82 -0.012,-1.636 -0.016,-2.456 0,-0.052 -0.02,-0.072 -0.052,-0.072 -0.068,0 -0.192,0.092 -0.304,0.156 -0.008,0.004 -0.016,0.008 -0.024,0.008 -0.024,0 -0.048,-0.024 -0.048,-0.048 0,-0.008 0,-0.02 0.008,-0.028 0.2,-0.288 0.344,-0.608 0.476,-0.936 0.008,-0.016 0.02,-0.024 0.036,-0.024 0.016,0 0.028,0.008 0.036,0.024 0.132,0.328 0.272,0.648 0.472,0.936 0.008,0.008 0.008,0.02 0.008,0.028 0,0.024 -0.02,0.048 -0.044,0.048 -0.008,0 -0.016,-0.004 -0.024,-0.008 -0.112,-0.064 -0.24,-0.156 -0.308,-0.156 -0.032,0 -0.052,0.02 -0.052,0.072 -0.004,0.324 0,0.648 -0.004,0.972 z m -0.064,0.384 -0.356,0.08 -0.004,0.8 0.352,-0.076 z"
     id="path6741"
     inkscape:connector-curvature="0"
     style="fill:currentColor;stroke-width:0.004" />
  <rect
     x="65.895279"
     y="1.4842"
     width="0.1514"
     height="4.6205001"
     ry="0.050000001"
     id="rect6743"
     style="fill:currentColor" />
  <a
     style="color:inherit"
     xlink:href="textedit://C:/Users/tikeda/Documents/git/LotusRoot/sco.txt:3:4:5"
     id="a6747"
     transform="translate(-6.0572192,-4.5566)">
    <path
       transform="matrix(0.004,0,0,-0.004,70.8031,10.8326)"
       d="m 212,138 c 59,0 113,-31 113,-95 0,-71 -52,-120 -99,-148 -34,-21 -73,-33 -113,-33 -59,0 -113,31 -113,95 0,71 53,120 100,148 34,21 72,33 112,33 z"
       id="path6745"
       inkscape:connector-curvature="0"
       style="fill:currentColor" />
  </a>
  <a
     style="color:inherit"
     xlink:href="textedit://C:/Users/tikeda/Documents/git/LotusRoot/sco.txt:2:45:46"
     id="a6751"
     transform="translate(-6.0572192,-4.5566)">
    <path
       transform="matrix(0.004,0,0,-0.004,55.2794,11.3326)"
       d="m 212,138 c 59,0 113,-31 113,-95 0,-71 -52,-120 -99,-148 -34,-21 -73,-33 -113,-33 -59,0 -113,31 -113,95 0,71 53,120 100,148 34,21 72,33 112,33 z"
       id="path6749"
       inkscape:connector-curvature="0"
       style="fill:currentColor" />
  </a>
  <rect
     x="50.371681"
     y="2.063"
     width="0.1514"
     height="4.5416999"
     ry="0.050000001"
     id="rect6753"
     style="fill:currentColor" />
  <path
     d="m 48.072181,8.16 c -0.048,0 -0.084,-0.036 -0.084,-0.084 v -0.54 l -0.284,0.072 v 0.584 c 0,0.048 -0.032,0.084 -0.08,0.084 -0.048,0 -0.084,-0.036 -0.084,-0.084 v -0.54 l -0.14,0.036 c -0.008,0.004 -0.02,0.004 -0.028,0.004 -0.052,0 -0.1,-0.044 -0.1,-0.1 V 7.376 c 0,-0.044 0.032,-0.088 0.076,-0.1 l 0.192,-0.048 V 6.604 l -0.14,0.036 c -0.008,0.004 -0.02,0 -0.028,0 -0.052,0 -0.1,-0.044 -0.1,-0.1 V 6.324 c 0,-0.044 0.032,-0.084 0.076,-0.096 l 0.192,-0.048 V 5.596 c 0,-0.048 0.036,-0.084 0.084,-0.084 0.048,0 0.08,0.036 0.08,0.084 v 0.54 l 0.284,-0.076 V 5.476 c 0,-0.048 0.036,-0.084 0.084,-0.084 0.048,0 0.084,0.036 0.084,0.084 v 0.54 l 0.284,-0.072 V 5.36 c 0,-0.048 0.032,-0.084 0.08,-0.084 0.048,0 0.084,0.036 0.084,0.084 V 5.9 l 0.14,-0.036 c 0.008,-0.004 0.02,-0.004 0.028,-0.004 0.052,0 0.1,0.044 0.1,0.1 v 0.216 c 0,0.044 -0.032,0.088 -0.076,0.1 l -0.192,0.048 v 0.624 l 0.14,-0.036 c 0.008,-0.004 0.02,0 0.028,0 0.052,0 0.1,0.044 0.1,0.1 v 0.216 c 0,0.044 -0.032,0.084 -0.076,0.096 l -0.192,0.048 v 0.584 c 0,0.048 -0.036,0.084 -0.084,0.084 -0.048,0 -0.08,-0.036 -0.08,-0.084 v -0.54 l -0.284,0.076 v 0.584 c 0,0.048 -0.036,0.084 -0.084,0.084 z m -0.368,-1.6 v 0.624 l 0.284,-0.072 V 6.484 Z m 0.736,-0.192 -0.284,0.072 v 0.628 l 0.284,-0.076 z"
     id="path6755"
     inkscape:connector-curvature="0"
     style="fill:currentColor;stroke-width:0.004" />
  <path
     d="m 68.581181,7.524 c 0,0.048 -0.036,0.08 -0.084,0.08 -0.048,0 -0.08,-0.032 -0.08,-0.08 V 7.076 l -0.116,0.068 c -0.016,0.008 -0.036,0.016 -0.052,0.016 -0.052,0 -0.1,-0.044 -0.1,-0.104 V 6.84 c 0,-0.036 0.016,-0.064 0.048,-0.084 l 0.22,-0.132 v -0.6 l -0.116,0.068 c -0.016,0.008 -0.036,0.016 -0.052,0.016 -0.052,0 -0.1,-0.04 -0.1,-0.1 V 5.792 c 0,-0.036 0.016,-0.068 0.048,-0.088 l 0.22,-0.128 V 5.028 c 0,-0.048 0.032,-0.08 0.08,-0.08 0.048,0 0.084,0.032 0.084,0.08 v 0.448 l 0.116,-0.068 c 0.016,-0.008 0.036,-0.016 0.052,-0.016 0.052,0 0.1,0.044 0.1,0.104 v 0.216 c 0,0.036 -0.016,0.064 -0.048,0.084 l -0.22,0.132 v 0.6 l 0.116,-0.068 c 0.016,-0.008 0.036,-0.016 0.052,-0.016 0.052,0 0.1,0.04 0.1,0.1 V 6.76 c 0,0.036 -0.016,0.068 -0.048,0.088 l -0.22,0.128 z"
     id="path6757"
     inkscape:connector-curvature="0"
     style="fill:currentColor;stroke-width:0.004" />
  <a
     style="color:inherit"
     xlink:href="textedit://C:/Users/tikeda/Documents/git/LotusRoot/sco.txt:2:53:54"
     id="a6761"
     transform="translate(-6.0572192,-4.5566)">
    <path
       transform="matrix(0.004,0,0,-0.004,59.7103,10.8326)"
       d="m 212,138 c 59,0 113,-31 113,-95 0,-71 -52,-120 -99,-148 -34,-21 -73,-33 -113,-33 -59,0 -113,31 -113,95 0,71 53,120 100,148 34,21 72,33 112,33 z"
       id="path6759"
       inkscape:connector-curvature="0"
       style="fill:currentColor" />
  </a>
  <rect
     x="54.802483"
     y="1.7808"
     width="0.1514"
     height="4.3238001"
     ry="0.050000001"
     id="rect6763"
     style="fill:currentColor" />
  <a
     style="color:inherit"
     xlink:href="textedit://C:/Users/tikeda/Documents/git/LotusRoot/sco.txt:3:9:10"
     id="a6767"
     transform="translate(-6.0572192,-4.5566)">
    <path
       transform="matrix(0.004,0,0,-0.004,75.2564,10.8326)"
       d="m 212,138 c 59,0 113,-31 113,-95 0,-71 -52,-120 -99,-148 -34,-21 -73,-33 -113,-33 -59,0 -113,31 -113,95 0,71 53,120 100,148 34,21 72,33 112,33 z"
       id="path6765"
       inkscape:connector-curvature="0"
       style="fill:currentColor" />
  </a>
  <path
     d="m 52.593581,4.776 c 0.032,-0.02 0.072,-0.028 0.108,-0.028 0.036,0 0.072,0.008 0.104,0.028 l -0.012,0.768 0.408,-0.092 h 0.016 c 0.04,0 0.076,0.032 0.076,0.072 0.004,0.82 0.012,1.636 0.016,2.456 0,0.052 0.02,0.072 0.052,0.072 0.068,0 0.192,-0.092 0.304,-0.156 0.008,-0.004 0.016,-0.008 0.024,-0.008 0.024,0 0.048,0.024 0.048,0.048 0,0.008 0,0.02 -0.008,0.028 -0.2,0.288 -0.344,0.608 -0.476,0.936 -0.008,0.016 -0.02,0.024 -0.036,0.024 -0.016,0 -0.028,-0.008 -0.036,-0.024 -0.132,-0.328 -0.272,-0.648 -0.472,-0.936 -0.008,-0.008 -0.012,-0.02 -0.012,-0.028 0,-0.024 0.024,-0.048 0.048,-0.048 0.008,0 0.016,0.004 0.024,0.008 0.112,0.064 0.236,0.156 0.304,0.156 0.032,0 0.052,-0.02 0.052,-0.072 0.004,-0.324 0.004,-0.648 0.008,-0.972 l -0.416,0.092 h -0.016 c -0.04,0 -0.076,-0.032 -0.076,-0.072 z m 0.548,1.06 -0.352,0.076 -0.012,0.804 0.36,-0.08 z"
     id="path6769"
     inkscape:connector-curvature="0"
     style="fill:currentColor;stroke-width:0.004" />
  <rect
     x="70.348679"
     y="1.4842"
     width="0.1514"
     height="4.6205001"
     ry="0.050000001"
     id="rect6771"
     style="fill:currentColor" />
  <line
     x1="1.1141808"
     y1="17.775999"
     x2="136.14839"
     y2="17.775999"
     id="line6773"
     style="stroke:currentColor;stroke-width:0.1164;stroke-linecap:round;stroke-linejoin:round" />
  <line
     x1="1.1141808"
     y1="16.775999"
     x2="136.14839"
     y2="16.775999"
     id="line6775"
     style="stroke:currentColor;stroke-width:0.1164;stroke-linecap:round;stroke-linejoin:round" />
  <line
     x1="1.1141808"
     y1="15.776"
     x2="136.14839"
     y2="15.776"
     id="line6777"
     style="stroke:currentColor;stroke-width:0.1164;stroke-linecap:round;stroke-linejoin:round" />
  <line
     x1="1.1141808"
     y1="14.776"
     x2="136.14839"
     y2="14.776"
     id="line6779"
     style="stroke:currentColor;stroke-width:0.1164;stroke-linecap:round;stroke-linejoin:round" />
  <line
     x1="1.1141808"
     y1="13.776"
     x2="136.14839"
     y2="13.776"
     id="line6781"
     style="stroke:currentColor;stroke-width:0.1164;stroke-linecap:round;stroke-linejoin:round" />
  <rect
     x="48.007381"
     y="13.776"
     width="0.2212"
     height="4"
     ry="0.0000"
     id="rect6783"
     style="fill:currentColor" />
  <rect
     x="135.98538"
     y="13.776"
     width="0.2212"
     height="4"
     ry="0.0000"
     id="rect6785"
     style="fill:currentColor" />
  <rect
     x="92.150284"
     y="13.776"
     width="0.2212"
     height="4"
     ry="0.0000"
     id="rect6787"
     style="fill:currentColor" />
  <a
     style="color:inherit"
     xlink:href="textedit://C:/Users/tikeda/Documents/git/LotusRoot/sco.txt:7:0:1"
     id="a6791"
     transform="translate(-6.0572192,-4.5566)">
    <path
       transform="matrix(0.004,0,0,-0.004,101.2347,20.8326)"
       d="m 212,138 c 59,0 113,-31 113,-95 0,-71 -52,-120 -99,-148 -34,-21 -73,-33 -113,-33 -59,0 -113,31 -113,95 0,71 53,120 100,148 34,21 72,33 112,33 z"
       id="path6789"
       inkscape:connector-curvature="0"
       style="fill:currentColor" />
  </a>
  <path
     d="m 94.519481,17.592 c -0.048,0 -0.084,-0.036 -0.084,-0.084 v -0.552 l -0.316,0.12 v 0.616 c 0,0.048 -0.036,0.084 -0.084,0.084 -0.048,0 -0.084,-0.036 -0.084,-0.084 V 17.14 l -0.088,0.032 c -0.012,0.004 -0.024,0.008 -0.036,0.008 -0.052,0 -0.1,-0.044 -0.1,-0.1 v -0.216 c 0,-0.04 0.024,-0.08 0.064,-0.096 l 0.16,-0.06 v -0.62 l -0.088,0.036 c -0.012,0.004 -0.024,0.004 -0.036,0.004 -0.052,0 -0.1,-0.044 -0.1,-0.1 v -0.216 c 0,-0.04 0.024,-0.076 0.064,-0.092 l 0.16,-0.06 v -0.616 c 0,-0.048 0.036,-0.084 0.084,-0.084 0.048,0 0.084,0.036 0.084,0.084 v 0.552 l 0.316,-0.12 V 14.86 c 0,-0.048 0.036,-0.084 0.084,-0.084 0.048,0 0.084,0.036 0.084,0.084 v 0.552 l 0.088,-0.032 c 0.012,-0.004 0.024,-0.008 0.036,-0.008 0.052,0 0.1,0.044 0.1,0.1 v 0.216 c 0,0.04 -0.024,0.08 -0.064,0.096 l -0.16,0.06 v 0.62 l 0.088,-0.036 c 0.012,-0.004 0.024,-0.004 0.036,-0.004 0.052,0 0.1,0.044 0.1,0.1 v 0.216 c 0,0.04 -0.024,0.076 -0.064,0.092 l -0.16,0.06 v 0.616 c 0,0.048 -0.036,0.084 -0.084,0.084 z m -0.4,-1.564 v 0.616 l 0.316,-0.12 v -0.616 z"
     id="path6793"
     inkscape:connector-curvature="0"
     style="fill:currentColor;stroke-width:0.004" />
  <rect
     x="96.326981"
     y="11.4842"
     width="0.1514"
     height="4.6205001"
     ry="0.050000001"
     id="rect6795"
     style="fill:currentColor" />
  <rect
     x="107.56068"
     y="11.4811"
     width="0.1514"
     height="4.6234999"
     ry="0.050000001"
     id="rect6797"
     style="fill:currentColor" />
  <a
     style="color:inherit"
     xlink:href="textedit://C:/Users/tikeda/Documents/git/LotusRoot/sco.txt:7:13:14"
     id="a6801"
     transform="translate(-6.0572192,-4.5566)">
    <path
       transform="matrix(0.004,0,0,-0.004,112.4684,20.8326)"
       d="m 212,138 c 59,0 113,-31 113,-95 0,-71 -52,-120 -99,-148 -34,-21 -73,-33 -113,-33 -59,0 -113,31 -113,95 0,71 53,120 100,148 34,21 72,33 112,33 z"
       id="path6799"
       inkscape:connector-curvature="0"
       style="fill:currentColor" />
  </a>
  <path
     d="m 99.886381,17.592 c -0.048,0 -0.084,-0.036 -0.084,-0.084 v -0.552 l -0.316,0.12 v 0.616 c 0,0.048 -0.036,0.084 -0.084,0.084 -0.048,0 -0.084,-0.036 -0.084,-0.084 V 17.14 l -0.088,0.032 c -0.012,0.004 -0.024,0.008 -0.036,0.008 -0.052,0 -0.1,-0.044 -0.1,-0.1 v -0.216 c 0,-0.04 0.024,-0.08 0.064,-0.096 l 0.16,-0.06 v -0.62 l -0.088,0.036 c -0.012,0.004 -0.024,0.004 -0.036,0.004 -0.052,0 -0.1,-0.044 -0.1,-0.1 v -0.216 c 0,-0.04 0.024,-0.076 0.064,-0.092 l 0.16,-0.06 v -0.616 c 0,-0.048 0.036,-0.084 0.084,-0.084 0.048,0 0.084,0.036 0.084,0.084 v 0.552 l 0.316,-0.12 v -0.9 c 0,-0.052 -0.02,-0.076 -0.052,-0.076 -0.068,0 -0.196,0.092 -0.308,0.156 -0.04,0.024 -0.084,-0.02 -0.056,-0.06 0.204,-0.288 0.332,-0.616 0.464,-0.944 0.008,-0.016 0.024,-0.024 0.036,-0.024 0.012,0 0.024,0.008 0.032,0.024 0.131999,0.328 0.259999,0.656 0.463999,0.944 0.004,0.008 0.008,0.016 0.008,0.024 0,0.032 -0.032,0.056 -0.064,0.036 -0.112,-0.064 -0.24,-0.156 -0.308,-0.156 -0.032,0 -0.048,0.024 -0.048,0.076 v 0.836 l 0.088,-0.032 c 0.012,-0.004 0.024,-0.008 0.036,-0.008 0.052,0 0.1,0.044 0.1,0.1 v 0.216 c 0,0.04 -0.024,0.08 -0.064,0.096 l -0.159999,0.06 v 0.62 l 0.088,-0.036 c 0.012,-0.004 0.024,-0.004 0.036,-0.004 0.052,0 0.1,0.044 0.1,0.1 v 0.216 c 0,0.04 -0.024,0.076 -0.064,0.092 l -0.159998,0.06 v 0.616 c 0,0.048 -0.036,0.084 -0.084,0.084 z m -0.4,-1.564 v 0.616 l 0.316,-0.12 v -0.616 z"
     id="path6803"
     inkscape:connector-curvature="0"
     style="fill:currentColor;stroke-width:0.004" />
  <rect
     x="101.69378"
     y="11.4842"
     width="0.1514"
     height="4.6205001"
     ry="0.050000001"
     id="rect6805"
     style="fill:currentColor" />
  <a
     style="color:inherit"
     xlink:href="textedit://C:/Users/tikeda/Documents/git/LotusRoot/sco.txt:7:6:7"
     id="a6809"
     transform="translate(-6.0572192,-4.5566)">
    <path
       transform="matrix(0.004,0,0,-0.004,106.6016,20.8326)"
       d="m 212,138 c 59,0 113,-31 113,-95 0,-71 -52,-120 -99,-148 -34,-21 -73,-33 -113,-33 -59,0 -113,31 -113,95 0,71 53,120 100,148 34,21 72,33 112,33 z"
       id="path6807"
       inkscape:connector-curvature="0"
       style="fill:currentColor" />
  </a>
  <path
     d="m 71.097381,14.776 c 0.032,-0.02 0.072,-0.028 0.108,-0.028 0.036,0 0.072,0.008 0.104,0.028 l -0.012,0.768 0.408,-0.092 h 0.016 c 0.04,0 0.076,0.032 0.076,0.072 l 0.032,2.252 c -0.032,0.02 -0.072,0.028 -0.108,0.028 -0.036,0 -0.072,-0.008 -0.104,-0.028 l 0.008,-0.768 -0.404,0.092 h -0.016 c -0.04,0 -0.076,-0.032 -0.076,-0.072 z m 0.544,1.06 -0.348,0.076 -0.012,0.804 0.352,-0.076 z"
     id="path6811"
     inkscape:connector-curvature="0"
     style="fill:currentColor;stroke-width:0.004" />
  <path
     d="m 76.665881,15.452 h 0.016 c 0.04,0 0.076,0.032 0.076,0.072 l 0.032,2.252 c -0.032,0.02 -0.072,0.028 -0.108,0.028 -0.036,0 -0.072,-0.008 -0.104,-0.028 l 0.008,-0.768 -0.404,0.092 h -0.016 c -0.04,0 -0.076,-0.032 -0.076,-0.072 -0.004,-0.82 -0.012,-1.636 -0.016,-2.456 0,-0.052 -0.02,-0.072 -0.052,-0.072 -0.068,0 -0.192,0.092 -0.304,0.156 -0.008,0.004 -0.016,0.008 -0.024,0.008 -0.024,0 -0.048,-0.024 -0.048,-0.048 0,-0.008 0,-0.02 0.008,-0.028 0.2,-0.288 0.344,-0.608 0.476,-0.936 0.008,-0.016 0.02,-0.024 0.036,-0.024 0.016,0 0.028,0.008 0.036,0.024 0.132,0.328 0.272,0.648 0.472,0.936 0.008,0.008 0.008,0.02 0.008,0.028 0,0.024 -0.02,0.048 -0.044,0.048 -0.008,0 -0.016,-0.004 -0.024,-0.008 -0.112,-0.064 -0.24,-0.156 -0.308,-0.156 -0.032,0 -0.052,0.02 -0.052,0.072 -0.004,0.324 0,0.648 -0.004,0.972 z m -0.064,0.384 -0.356,0.08 -0.004,0.8 0.352,-0.076 z"
     id="path6813"
     inkscape:connector-curvature="0"
     style="fill:currentColor;stroke-width:0.004" />
  <rect
     x="78.282883"
     y="11.4842"
     width="0.1514"
     height="4.6205001"
     ry="0.050000001"
     id="rect6815"
     style="fill:currentColor" />
  <a
     style="color:inherit"
     xlink:href="textedit://C:/Users/tikeda/Documents/git/LotusRoot/sco.txt:6:30:31"
     id="a6819"
     transform="translate(-6.0572192,-4.5566)">
    <path
       transform="matrix(0.004,0,0,-0.004,83.1907,20.8326)"
       d="m 212,138 c 59,0 113,-31 113,-95 0,-71 -52,-120 -99,-148 -34,-21 -73,-33 -113,-33 -59,0 -113,31 -113,95 0,71 53,120 100,148 34,21 72,33 112,33 z"
       id="path6817"
       inkscape:connector-curvature="0"
       style="fill:currentColor" />
  </a>
  <rect
     x="73.322479"
     y="11.4842"
     width="0.1514"
     height="4.6205001"
     ry="0.050000001"
     id="rect6821"
     style="fill:currentColor" />
  <a
     style="color:inherit"
     xlink:href="textedit://C:/Users/tikeda/Documents/git/LotusRoot/sco.txt:6:26:27"
     id="a6825"
     transform="translate(-6.0572192,-4.5566)">
    <path
       transform="matrix(0.004,0,0,-0.004,78.2302,20.8326)"
       d="m 212,138 c 59,0 113,-31 113,-95 0,-71 -52,-120 -99,-148 -34,-21 -73,-33 -113,-33 -59,0 -113,31 -113,95 0,71 53,120 100,148 34,21 72,33 112,33 z"
       id="path6823"
       inkscape:connector-curvature="0"
       style="fill:currentColor" />
  </a>
  <polygon
     transform="translate(8.0054808,12.4842)"
     points="0.05,0.3 0.05,-0.3 5.4682,-0.3 5.4682,0.3 "
     id="polygon6827"
     style="fill:currentColor;stroke:currentColor;stroke-width:0.1;stroke-linecap:round;stroke-linejoin:round" />
  <a
     style="color:inherit"
     xlink:href="textedit://C:/Users/tikeda/Documents/git/LotusRoot/sco.txt:6:35:36"
     id="a6831"
     transform="translate(-6.0572192,-4.5566)">
    <path
       transform="matrix(0.004,0,0,-0.004,88.1575,20.8326)"
       d="m 212,138 c 59,0 113,-31 113,-95 0,-71 -52,-120 -99,-148 -34,-21 -73,-33 -113,-33 -59,0 -113,31 -113,95 0,71 53,120 100,148 34,21 72,33 112,33 z"
       id="path6829"
       inkscape:connector-curvature="0"
       style="fill:currentColor" />
  </a>
  <rect
     x="83.249779"
     y="11.4842"
     width="0.1514"
     height="4.6205001"
     ry="0.050000001"
     id="rect6833"
     style="fill:currentColor" />
  <path
     d="m 81.482281,17.524 c 0,0.048 -0.036,0.08 -0.084,0.08 -0.048,0 -0.08,-0.032 -0.08,-0.08 v -0.448 l -0.116,0.068 c -0.016,0.008 -0.036,0.016 -0.052,0.016 -0.052,0 -0.1,-0.044 -0.1,-0.104 V 16.84 c 0,-0.036 0.016,-0.064 0.048,-0.084 l 0.22,-0.132 v -0.6 l -0.116,0.068 c -0.016,0.008 -0.036,0.016 -0.052,0.016 -0.052,0 -0.1,-0.04 -0.1,-0.1 v -0.216 c 0,-0.036 0.016,-0.068 0.048,-0.088 l 0.22,-0.128 v -0.548 c 0,-0.048 0.032,-0.08 0.08,-0.08 0.048,0 0.084,0.032 0.084,0.08 v 0.448 l 0.116,-0.068 c 0.016,-0.008 0.036,-0.016 0.052,-0.016 0.052,0 0.1,0.044 0.1,0.104 v 0.216 c 0,0.036 -0.016,0.064 -0.048,0.084 l -0.22,0.132 v 0.6 l 0.116,-0.068 c 0.016,-0.008 0.036,-0.016 0.052,-0.016 0.052,0 0.1,0.04 0.1,0.1 v 0.216 c 0,0.036 -0.016,0.068 -0.048,0.088 l -0.22,0.128 z"
     id="path6835"
     inkscape:connector-curvature="0"
     style="fill:currentColor;stroke-width:0.004" />
  <a
     style="color:inherit"
     xlink:href="textedit://C:/Users/tikeda/Documents/git/LotusRoot/sco.txt:6:41:42"
     id="a6839"
     transform="translate(-6.0572192,-4.5566)">
    <path
       transform="matrix(0.004,0,0,-0.004,93.5244,20.8326)"
       d="m 212,138 c 59,0 113,-31 113,-95 0,-71 -52,-120 -99,-148 -34,-21 -73,-33 -113,-33 -59,0 -113,31 -113,95 0,71 53,120 100,148 34,21 72,33 112,33 z"
       id="path6837"
       inkscape:connector-curvature="0"
       style="fill:currentColor" />
  </a>
  <rect
     x="88.616577"
     y="11.4842"
     width="0.1514"
     height="4.6205001"
     ry="0.050000001"
     id="rect6841"
     style="fill:currentColor" />
  <path
     d="m 86.809181,17.592 c -0.048,0 -0.084,-0.036 -0.084,-0.084 v -0.552 l -0.316,0.12 v 0.9 c 0,0.052 0.02,0.076 0.052,0.076 0.068,0 0.196,-0.092 0.308,-0.156 0.04,-0.024 0.084,0.02 0.056,0.06 -0.204,0.288 -0.332,0.616 -0.464,0.944 -0.008,0.016 -0.024,0.024 -0.036,0.024 -0.012,0 -0.024,-0.008 -0.032,-0.024 -0.132,-0.328 -0.26,-0.656 -0.464,-0.944 -0.004,-0.008 -0.008,-0.016 -0.008,-0.024 0,-0.032 0.032,-0.056 0.064,-0.036 0.112,0.064 0.24,0.156 0.308,0.156 0.032,0 0.048,-0.024 0.048,-0.076 V 17.14 l -0.088,0.032 c -0.012,0.004 -0.024,0.008 -0.036,0.008 -0.052,0 -0.1,-0.044 -0.1,-0.1 v -0.216 c 0,-0.04 0.024,-0.08 0.064,-0.096 l 0.16,-0.06 v -0.62 l -0.088,0.036 c -0.012,0.004 -0.024,0.004 -0.036,0.004 -0.052,0 -0.1,-0.044 -0.1,-0.1 v -0.216 c 0,-0.04 0.024,-0.076 0.064,-0.092 l 0.16,-0.06 v -0.616 c 0,-0.048 0.036,-0.084 0.084,-0.084 0.048,0 0.084,0.036 0.084,0.084 v 0.552 l 0.316,-0.12 V 14.86 c 0,-0.048 0.036,-0.084 0.084,-0.084 0.048,0 0.084,0.036 0.084,0.084 v 0.552 l 0.088,-0.032 c 0.012,-0.004 0.024,-0.008 0.036,-0.008 0.052,0 0.1,0.044 0.1,0.1 v 0.216 c 0,0.04 -0.024,0.08 -0.064,0.096 l -0.16,0.06 v 0.62 l 0.088,-0.036 c 0.012,-0.004 0.024,-0.004 0.036,-0.004 0.052,0 0.1,0.044 0.1,0.1 v 0.216 c 0,0.04 -0.024,0.076 -0.064,0.092 l -0.16,0.06 v 0.616 c 0,0.048 -0.036,0.084 -0.084,0.084 z m -0.4,-1.564 v 0.616 l 0.316,-0.12 v -0.616 z"
     id="path6843"
     inkscape:connector-curvature="0"
     style="fill:currentColor;stroke-width:0.004" />
  <path
     d="m 130.14088,13.776 c 0.032,-0.02 0.072,-0.028 0.108,-0.028 0.036,0 0.072,0.008 0.104,0.028 l -0.012,0.768 0.408,-0.092 h 0.016 c 0.04,0 0.076,0.032 0.076,0.072 0.004,0.82 0.012,1.636 0.016,2.456 0,0.052 0.02,0.072 0.052,0.072 0.068,0 0.192,-0.092 0.304,-0.156 0.008,-0.004 0.016,-0.008 0.024,-0.008 0.024,0 0.048,0.024 0.048,0.048 0,0.008 0,0.02 -0.008,0.028 -0.2,0.288 -0.344,0.608 -0.476,0.936 -0.008,0.016 -0.02,0.024 -0.036,0.024 -0.016,0 -0.028,-0.008 -0.036,-0.024 -0.132,-0.328 -0.272,-0.648 -0.472,-0.936 -0.008,-0.008 -0.012,-0.02 -0.012,-0.028 0,-0.024 0.024,-0.048 0.048,-0.048 0.008,0 0.016,0.004 0.024,0.008 0.112,0.064 0.236,0.156 0.304,0.156 0.032,0 0.052,-0.02 0.052,-0.072 0.004,-0.324 0.004,-0.648 0.008,-0.972 l -0.416,0.092 h -0.016 c -0.04,0 -0.076,-0.032 -0.076,-0.072 z m 0.548,1.06 -0.352,0.076 -0.012,0.804 0.36,-0.08 z"
     id="path6845"
     inkscape:connector-curvature="0"
     style="fill:currentColor;stroke-width:0.004" />
  <rect
     x="131.63478"
     y="15.4473"
     width="0.1514"
     height="4.6233001"
     ry="0.050000001"
     id="rect6847"
     style="fill:currentColor" />
  <a
     style="color:inherit"
     xlink:href="textedit://C:/Users/tikeda/Documents/git/LotusRoot/sco.txt:7:41:42"
     id="a6851"
     transform="translate(-6.0572192,-4.5566)">
    <path
       transform="matrix(0.004,0,0,-0.004,137.6921,19.8326)"
       d="m 212,138 c 59,0 113,-31 113,-95 0,-71 -52,-120 -99,-148 -34,-21 -73,-33 -113,-33 -59,0 -113,31 -113,95 0,71 53,120 100,148 34,21 72,33 112,33 z"
       id="path6849"
       inkscape:connector-curvature="0"
       style="fill:currentColor" />
  </a>
  <path
     d="m 125.63798,17.024 c 0,0.048 -0.036,0.08 -0.084,0.08 -0.048,0 -0.08,-0.032 -0.08,-0.08 v -0.448 l -0.116,0.068 c -0.016,0.008 -0.036,0.016 -0.052,0.016 -0.052,0 -0.1,-0.044 -0.1,-0.104 V 16.34 c 0,-0.036 0.016,-0.064 0.048,-0.084 l 0.22,-0.132 v -0.6 l -0.116,0.068 c -0.016,0.008 -0.036,0.016 -0.052,0.016 -0.052,0 -0.1,-0.04 -0.1,-0.1 v -0.216 c 0,-0.036 0.016,-0.068 0.048,-0.088 l 0.22,-0.128 v -0.548 c 0,-0.048 0.032,-0.08 0.08,-0.08 0.048,0 0.084,0.032 0.084,0.08 v 0.448 l 0.116,-0.068 c 0.016,-0.008 0.036,-0.016 0.052,-0.016 0.052,0 0.1,0.044 0.1,0.104 v 0.216 c 0,0.036 -0.016,0.064 -0.048,0.084 l -0.22,0.132 v 0.6 l 0.116,-0.068 c 0.016,-0.008 0.036,-0.016 0.052,-0.016 0.052,0 0.1,0.04 0.1,0.1 v 0.216 c 0,0.036 -0.016,0.068 -0.048,0.088 l -0.22,0.128 z"
     id="path6853"
     inkscape:connector-curvature="0"
     style="fill:currentColor;stroke-width:0.004" />
  <rect
     x="39.071079"
     y="12.0678"
     width="0.1514"
     height="4.5369"
     ry="0.050000001"
     id="rect6855"
     style="fill:currentColor" />
  <polygon
     transform="translate(126.25598,20.276)"
     points="0.05,0.3 0.05,-0.3 5.4802,-0.5082 5.4802,0.0918 "
     id="polygon6857"
     style="fill:currentColor;stroke:currentColor;stroke-width:0.1;stroke-linecap:round;stroke-linejoin:round" />
  <polygon
     transform="translate(116.32238,20.4842)"
     points="0.05,0.3 0.05,-0.3 5.0682,-0.3 5.0682,0.3 "
     id="polygon6859"
     style="fill:currentColor;stroke:currentColor;stroke-width:0.1;stroke-linecap:round;stroke-linejoin:round" />
  <polygon
     transform="translate(107.56068,11.4842)"
     points="0.05,0.3 0.05,-0.3 5.0457,-0.5082 5.0457,0.0918 "
     id="polygon6861"
     style="fill:currentColor;stroke:currentColor;stroke-width:0.1;stroke-linecap:round;stroke-linejoin:round" />
  <polygon
     transform="translate(96.326981,11.4842)"
     points="0.05,0.3 0.05,-0.3 5.4682,-0.3 5.4682,0.3 "
     id="polygon6863"
     style="fill:currentColor;stroke:currentColor;stroke-width:0.1;stroke-linecap:round;stroke-linejoin:round" />
  <polygon
     transform="translate(83.249781,11.4842)"
     points="0.05,0.3 0.05,-0.3 5.4682,-0.3 5.4682,0.3 "
     id="polygon6865"
     style="fill:currentColor;stroke:currentColor;stroke-width:0.1;stroke-linecap:round;stroke-linejoin:round" />
  <polygon
     transform="translate(73.322481,11.4842)"
     points="0.05,0.3 0.05,-0.3 5.0618,-0.3 5.0618,0.3 "
     id="polygon6867"
     style="fill:currentColor;stroke:currentColor;stroke-width:0.1;stroke-linecap:round;stroke-linejoin:round" />
  <polygon
     transform="translate(63.417781,12.0678)"
     points="0.05,0.3 0.05,-0.3 5.0457,-0.5918 5.0457,0.0082 "
     id="polygon6869"
     style="fill:currentColor;stroke:currentColor;stroke-width:0.1;stroke-linecap:round;stroke-linejoin:round" />
  <polygon
     transform="translate(52.184081,12.0678)"
     points="0.05,0.3 0.05,-0.3 5.4682,-0.3 5.4682,0.3 "
     id="polygon6871"
     style="fill:currentColor;stroke:currentColor;stroke-width:0.1;stroke-linecap:round;stroke-linejoin:round" />
  <polygon
     transform="translate(39.071181,12.0678)"
     points="0.05,0.3 0.05,-0.3 5.4682,-0.3 5.4682,0.3 "
     id="polygon6873"
     style="fill:currentColor;stroke:currentColor;stroke-width:0.1;stroke-linecap:round;stroke-linejoin:round" />
  <polygon
     transform="translate(29.143881,12.0678)"
     points="0.05,0.3 0.05,-0.3 5.0618,-0.3 5.0618,0.3 "
     id="polygon6875"
     style="fill:currentColor;stroke:currentColor;stroke-width:0.1;stroke-linecap:round;stroke-linejoin:round" />
  <polygon
     transform="translate(19.239081,12.4842)"
     points="0.05,0.3 0.05,-0.3 5.0457,-0.5082 5.0457,0.0918 "
     id="polygon6877"
     style="fill:currentColor;stroke:currentColor;stroke-width:0.1;stroke-linecap:round;stroke-linejoin:round" />
  <rect
     x="116.32228"
     y="15.9473"
     width="0.1514"
     height="4.5369"
     ry="0.050000001"
     id="rect6879"
     style="fill:currentColor" />
  <a
     style="color:inherit"
     xlink:href="textedit://C:/Users/tikeda/Documents/git/LotusRoot/sco.txt:7:26:27"
     id="a6883"
     transform="translate(-6.0572192,-4.5566)">
    <path
       transform="matrix(0.004,0,0,-0.004,122.3796,20.3326)"
       d="m 212,138 c 59,0 113,-31 113,-95 0,-71 -52,-120 -99,-148 -34,-21 -73,-33 -113,-33 -59,0 -113,31 -113,95 0,71 53,120 100,148 34,21 72,33 112,33 z"
       id="path6881"
       inkscape:connector-curvature="0"
       style="fill:currentColor" />
  </a>
  <path
     d="m 110.29598,14.276 c 0.032,-0.02 0.072,-0.028 0.108,-0.028 0.036,0 0.072,0.008 0.104,0.028 l -0.012,0.768 0.408,-0.092 h 0.016 c 0.04,0 0.076,0.032 0.076,0.072 0.004,0.82 0.012,1.636 0.016,2.456 0,0.052 0.02,0.072 0.052,0.072 0.068,0 0.192,-0.092 0.304,-0.156 0.008,-0.004 0.016,-0.008 0.024,-0.008 0.024,0 0.048,0.024 0.048,0.048 0,0.008 0,0.02 -0.008,0.028 -0.2,0.288 -0.344,0.608 -0.476,0.936 -0.008,0.016 -0.02,0.024 -0.036,0.024 -0.016,0 -0.028,-0.008 -0.036,-0.024 -0.132,-0.328 -0.272,-0.648 -0.472,-0.936 -0.008,-0.008 -0.012,-0.02 -0.012,-0.028 0,-0.024 0.024,-0.048 0.048,-0.048 0.008,0 0.016,0.004 0.024,0.008 0.112,0.064 0.236,0.156 0.304,0.156 0.032,0 0.052,-0.02 0.052,-0.072 0.004,-0.324 0.004,-0.648 0.008,-0.972 l -0.416,0.092 h -0.016 c -0.04,0 -0.076,-0.032 -0.076,-0.072 z m 0.548,1.06 -0.352,0.076 -0.012,0.804 0.36,-0.08 z"
     id="path6885"
     inkscape:connector-curvature="0"
     style="fill:currentColor;stroke-width:0.004" />
  <rect
     x="112.50498"
     y="11.279099"
     width="0.1514"
     height="4.3256001"
     ry="0.050000001"
     id="rect6887"
     style="fill:currentColor" />
  <a
     style="color:inherit"
     xlink:href="textedit://C:/Users/tikeda/Documents/git/LotusRoot/sco.txt:7:21:22"
     id="a6891"
     transform="translate(-6.0572192,-4.5566)">
    <path
       transform="matrix(0.004,0,0,-0.004,117.4127,20.3326)"
       d="m 212,138 c 59,0 113,-31 113,-95 0,-71 -52,-120 -99,-148 -34,-21 -73,-33 -113,-33 -59,0 -113,31 -113,95 0,71 53,120 100,148 34,21 72,33 112,33 z"
       id="path6889"
       inkscape:connector-curvature="0"
       style="fill:currentColor" />
  </a>
  <path
     d="m 105.26118,17.66 c -0.048,0 -0.084,-0.036 -0.084,-0.084 v -0.54 l -0.284,0.072 v 0.584 c 0,0.048 -0.032,0.084 -0.08,0.084 -0.048,0 -0.084,-0.036 -0.084,-0.084 v -0.54 l -0.14,0.036 c -0.008,0.004 -0.02,0.004 -0.028,0.004 -0.052,0 -0.1,-0.044 -0.1,-0.1 v -0.216 c 0,-0.044 0.032,-0.088 0.076,-0.1 l 0.192,-0.048 v -0.624 l -0.14,0.036 c -0.008,0.004 -0.02,0 -0.028,0 -0.052,0 -0.1,-0.044 -0.1,-0.1 v -0.216 c 0,-0.044 0.032,-0.084 0.076,-0.096 l 0.192,-0.048 v -0.584 c 0,-0.048 0.036,-0.084 0.084,-0.084 0.048,0 0.08,0.036 0.08,0.084 v 0.54 l 0.284,-0.076 v -0.584 c 0,-0.048 0.036,-0.084 0.084,-0.084 0.048,0 0.084,0.036 0.084,0.084 v 0.54 l 0.284,-0.072 V 14.86 c 0,-0.048 0.032,-0.084 0.08,-0.084 0.048,0 0.084,0.036 0.084,0.084 v 0.54 l 0.14,-0.036 c 0.008,-0.004 0.02,-0.004 0.028,-0.004 0.052,0 0.1,0.044 0.1,0.1 v 0.216 c 0,0.044 -0.032,0.088 -0.076,0.1 l -0.192,0.048 v 0.624 l 0.14,-0.036 c 0.008,-0.004 0.02,0 0.028,0 0.052,0 0.1,0.044 0.1,0.1 v 0.216 c 0,0.044 -0.032,0.084 -0.076,0.096 l -0.192,0.048 v 0.584 c 0,0.048 -0.036,0.084 -0.084,0.084 -0.048,0 -0.08,-0.036 -0.08,-0.084 v -0.54 l -0.284,0.076 v 0.584 c 0,0.048 -0.036,0.084 -0.084,0.084 z m -0.368,-1.6 v 0.624 l 0.284,-0.072 v -0.628 z m 0.736,-0.192 -0.284,0.072 v 0.628 l 0.284,-0.076 z"
     id="path6893"
     inkscape:connector-curvature="0"
     style="fill:currentColor;stroke-width:0.004" />
  <path
     d="m 115.24038,14.276 c 0.032,-0.02 0.072,-0.028 0.108,-0.028 0.036,0 0.072,0.008 0.104,0.028 l -0.012,0.768 0.408,-0.092 h 0.016 c 0.04,0 0.076,0.032 0.076,0.072 l 0.032,2.252 c -0.032,0.02 -0.072,0.028 -0.108,0.028 -0.036,0 -0.072,-0.008 -0.104,-0.028 l 0.008,-0.768 -0.404,0.092 h -0.016 c -0.04,0 -0.076,-0.032 -0.076,-0.072 z m 0.544,1.06 -0.348,0.076 -0.012,0.804 0.352,-0.076 z"
     id="path6895"
     inkscape:connector-curvature="0"
     style="fill:currentColor;stroke-width:0.004" />
  <a
     style="color:inherit"
     xlink:href="textedit://C:/Users/tikeda/Documents/git/LotusRoot/sco.txt:7:30:31"
     id="a6899"
     transform="translate(-6.0572192,-4.5566)">
    <path
       transform="matrix(0.004,0,0,-0.004,127.3464,20.3326)"
       d="m 212,138 c 59,0 113,-31 113,-95 0,-71 -52,-120 -99,-148 -34,-21 -73,-33 -113,-33 -59,0 -113,31 -113,95 0,71 53,120 100,148 34,21 72,33 112,33 z"
       id="path6897"
       inkscape:connector-curvature="0"
       style="fill:currentColor" />
  </a>
  <rect
     x="121.28918"
     y="15.9473"
     width="0.1514"
     height="4.5369"
     ry="0.050000001"
     id="rect6901"
     style="fill:currentColor" />
  <path
     d="m 120.81518,14.952 h 0.016 c 0.04,0 0.076,0.032 0.076,0.072 l 0.032,2.252 c -0.032,0.02 -0.072,0.028 -0.108,0.028 -0.036,0 -0.072,-0.008 -0.104,-0.028 l 0.008,-0.768 -0.404,0.092 h -0.016 c -0.04,0 -0.076,-0.032 -0.076,-0.072 -0.004,-0.82 -0.012,-1.636 -0.016,-2.456 0,-0.052 -0.02,-0.072 -0.052,-0.072 -0.068,0 -0.192,0.092 -0.304,0.156 -0.008,0.004 -0.016,0.008 -0.024,0.008 -0.024,0 -0.048,-0.024 -0.048,-0.048 0,-0.008 0,-0.02 0.008,-0.028 0.2,-0.288 0.344,-0.608 0.476,-0.936 0.008,-0.016 0.02,-0.024 0.036,-0.024 0.016,0 0.028,0.008 0.036,0.024 0.132,0.328 0.272,0.648 0.472,0.936 0.008,0.008 0.008,0.02 0.008,0.028 0,0.024 -0.02,0.048 -0.044,0.048 -0.008,0 -0.016,-0.004 -0.024,-0.008 -0.112,-0.064 -0.24,-0.156 -0.308,-0.156 -0.032,0 -0.052,0.02 -0.052,0.072 -0.004,0.324 0,0.648 -0.004,0.972 z m -0.064,0.384 -0.356,0.08 -0.004,0.8 0.352,-0.076 z"
     id="path6903"
     inkscape:connector-curvature="0"
     style="fill:currentColor;stroke-width:0.004" />
  <a
     style="color:inherit"
     xlink:href="textedit://C:/Users/tikeda/Documents/git/LotusRoot/sco.txt:7:35:36"
     id="a6907"
     transform="translate(-6.0572192,-4.5566)">
    <path
       transform="matrix(0.004,0,0,-0.004,132.3132,20.3326)"
       d="m 212,138 c 59,0 113,-31 113,-95 0,-71 -52,-120 -99,-148 -34,-21 -73,-33 -113,-33 -59,0 -113,31 -113,95 0,71 53,120 100,148 34,21 72,33 112,33 z"
       id="path6905"
       inkscape:connector-curvature="0"
       style="fill:currentColor" />
  </a>
  <rect
     x="126.25598"
     y="15.9473"
     width="0.1514"
     height="4.3257999"
     ry="0.050000001"
     id="rect6909"
     style="fill:currentColor" />
  <rect
     x="24.18338"
     y="12.279099"
     width="0.1514"
     height="4.3256001"
     ry="0.050000001"
     id="rect6911"
     style="fill:currentColor" />
  <rect
     x="29.143881"
     y="12.0678"
     width="0.1514"
     height="4.5369"
     ry="0.050000001"
     id="rect6913"
     style="fill:currentColor" />
  <a
     style="color:inherit"
     xlink:href="textedit://C:/Users/tikeda/Documents/git/LotusRoot/sco.txt:5:26:27"
     id="a6917"
     transform="translate(-6.0572192,-4.5566)">
    <path
       transform="matrix(0.004,0,0,-0.004,34.0516,21.3326)"
       d="m 212,138 c 59,0 113,-31 113,-95 0,-71 -52,-120 -99,-148 -34,-21 -73,-33 -113,-33 -59,0 -113,31 -113,95 0,71 53,120 100,148 34,21 72,33 112,33 z"
       id="path6915"
       inkscape:connector-curvature="0"
       style="fill:currentColor" />
  </a>
  <path
     d="m 21.974481,15.276 c 0.032,-0.02 0.072,-0.028 0.108,-0.028 0.036,0 0.072,0.008 0.104,0.028 l -0.012,0.768 0.408,-0.092 h 0.016 c 0.04,0 0.076,0.032 0.076,0.072 0.004,0.82 0.012,1.636 0.016,2.456 0,0.052 0.02,0.072 0.052,0.072 0.068,0 0.192,-0.092 0.304,-0.156 0.008,-0.004 0.016,-0.008 0.024,-0.008 0.024,0 0.048,0.024 0.048,0.048 0,0.008 0,0.02 -0.008,0.028 -0.2,0.288 -0.344,0.608 -0.476,0.936 -0.008,0.016 -0.02,0.024 -0.036,0.024 -0.016,0 -0.028,-0.008 -0.036,-0.024 -0.132,-0.328 -0.272,-0.648 -0.472,-0.936 -0.008,-0.008 -0.012,-0.02 -0.012,-0.028 0,-0.024 0.024,-0.048 0.048,-0.048 0.008,0 0.016,0.004 0.024,0.008 0.112,0.064 0.236,0.156 0.304,0.156 0.032,0 0.052,-0.02 0.052,-0.072 0.004,-0.324 0.004,-0.648 0.008,-0.972 l -0.416,0.092 h -0.016 c -0.04,0 -0.076,-0.032 -0.076,-0.072 z m 0.548,1.06 -0.352,0.076 -0.012,0.804 0.36,-0.08 z"
     id="path6919"
     inkscape:connector-curvature="0"
     style="fill:currentColor;stroke-width:0.004" />
  <a
     style="color:inherit"
     xlink:href="textedit://C:/Users/tikeda/Documents/git/LotusRoot/sco.txt:5:21:22"
     id="a6923"
     transform="translate(-6.0572192,-4.5566)">
    <path
       transform="matrix(0.004,0,0,-0.004,29.0912,21.3326)"
       d="m 212,138 c 59,0 113,-31 113,-95 0,-71 -52,-120 -99,-148 -34,-21 -73,-33 -113,-33 -59,0 -113,31 -113,95 0,71 53,120 100,148 34,21 72,33 112,33 z"
       id="path6921"
       inkscape:connector-curvature="0"
       style="fill:currentColor" />
  </a>
  <path
     d="m 16.939681,18.66 c -0.048,0 -0.084,-0.036 -0.084,-0.084 v -0.54 l -0.284,0.072 v 0.584 c 0,0.048 -0.032,0.084 -0.08,0.084 -0.048,0 -0.084,-0.036 -0.084,-0.084 v -0.54 l -0.14,0.036 c -0.008,0.004 -0.02,0.004 -0.028,0.004 -0.052,0 -0.1,-0.044 -0.1,-0.1 v -0.216 c 0,-0.044 0.032,-0.088 0.076,-0.1 l 0.192,-0.048 v -0.624 l -0.14,0.036 c -0.008,0.004 -0.02,0 -0.028,0 -0.052,0 -0.1,-0.044 -0.1,-0.1 v -0.216 c 0,-0.044 0.032,-0.084 0.076,-0.096 l 0.192,-0.048 v -0.584 c 0,-0.048 0.036,-0.084 0.084,-0.084 0.048,0 0.08,0.036 0.08,0.084 v 0.54 l 0.284,-0.076 v -0.584 c 0,-0.048 0.036,-0.084 0.084,-0.084 0.048,0 0.084,0.036 0.084,0.084 v 0.54 l 0.284,-0.072 V 15.86 c 0,-0.048 0.032,-0.084 0.08,-0.084 0.048,0 0.084,0.036 0.084,0.084 v 0.54 l 0.14,-0.036 c 0.008,-0.004 0.02,-0.004 0.028,-0.004 0.052,0 0.1,0.044 0.1,0.1 v 0.216 c 0,0.044 -0.032,0.088 -0.076,0.1 l -0.192,0.048 v 0.624 l 0.14,-0.036 c 0.008,-0.004 0.02,0 0.028,0 0.052,0 0.1,0.044 0.1,0.1 v 0.216 c 0,0.044 -0.032,0.084 -0.076,0.096 l -0.192,0.048 v 0.584 c 0,0.048 -0.036,0.084 -0.084,0.084 -0.048,0 -0.08,-0.036 -0.08,-0.084 v -0.54 l -0.284,0.076 v 0.584 c 0,0.048 -0.036,0.084 -0.084,0.084 z m -0.368,-1.6 v 0.624 l 0.284,-0.072 v -0.628 z m 0.736,-0.192 -0.284,0.072 v 0.628 l 0.284,-0.076 z"
     id="path6925"
     inkscape:connector-curvature="0"
     style="fill:currentColor;stroke-width:0.004" />
  <rect
     x="19.23908"
     y="12.4811"
     width="0.1514"
     height="4.6234999"
     ry="0.050000001"
     id="rect6927"
     style="fill:currentColor" />
  <path
     d="m 26.918781,15.276 c 0.032,-0.02 0.072,-0.028 0.108,-0.028 0.036,0 0.072,0.008 0.104,0.028 l -0.012,0.768 0.408,-0.092 h 0.016 c 0.04,0 0.076,0.032 0.076,0.072 l 0.032,2.252 c -0.032,0.02 -0.072,0.028 -0.108,0.028 -0.036,0 -0.072,-0.008 -0.104,-0.028 l 0.008,-0.768 -0.404,0.092 h -0.016 c -0.04,0 -0.076,-0.032 -0.076,-0.072 z m 0.544,1.06 -0.348,0.076 -0.012,0.804 0.352,-0.076 z"
     id="path6929"
     inkscape:connector-curvature="0"
     style="fill:currentColor;stroke-width:0.004" />
  <a
     style="color:inherit"
     xlink:href="textedit://C:/Users/tikeda/Documents/git/LotusRoot/sco.txt:5:30:31"
     id="a6933"
     transform="translate(-6.0572192,-4.5566)">
    <path
       transform="matrix(0.004,0,0,-0.004,39.0121,21.3326)"
       d="m 212,138 c 59,0 113,-31 113,-95 0,-71 -52,-120 -99,-148 -34,-21 -73,-33 -113,-33 -59,0 -113,31 -113,95 0,71 53,120 100,148 34,21 72,33 112,33 z"
       id="path6931"
       inkscape:connector-curvature="0"
       style="fill:currentColor" />
  </a>
  <rect
     x="34.104282"
     y="12.0678"
     width="0.1514"
     height="4.5369"
     ry="0.050000001"
     id="rect6935"
     style="fill:currentColor" />
  <path
     d="m 66.153081,14.776 c 0.032,-0.02 0.072,-0.028 0.108,-0.028 0.036,0 0.072,0.008 0.104,0.028 l -0.012,0.768 0.408,-0.092 h 0.016 c 0.04,0 0.076,0.032 0.076,0.072 0.004,0.82 0.012,1.636 0.016,2.456 0,0.052 0.02,0.072 0.052,0.072 0.068,0 0.192,-0.092 0.304,-0.156 0.008,-0.004 0.016,-0.008 0.024,-0.008 0.024,0 0.048,0.024 0.048,0.048 0,0.008 0,0.02 -0.008,0.028 -0.2,0.288 -0.344,0.608 -0.476,0.936 -0.008,0.016 -0.02,0.024 -0.036,0.024 -0.016,0 -0.028,-0.008 -0.036,-0.024 -0.132,-0.328 -0.272,-0.648 -0.472,-0.936 -0.008,-0.008 -0.012,-0.02 -0.012,-0.028 0,-0.024 0.024,-0.048 0.048,-0.048 0.008,0 0.016,0.004 0.024,0.008 0.112,0.064 0.236,0.156 0.304,0.156 0.032,0 0.052,-0.02 0.052,-0.072 0.004,-0.324 0.004,-0.648 0.008,-0.972 l -0.416,0.092 h -0.016 c -0.04,0 -0.076,-0.032 -0.076,-0.072 z m 0.548,1.06 -0.352,0.076 -0.012,0.804 0.36,-0.08 z"
     id="path6937"
     inkscape:connector-curvature="0"
     style="fill:currentColor;stroke-width:0.004" />
  <path
     d="m 32.487281,15.952 h 0.016 c 0.04,0 0.076,0.032 0.076,0.072 l 0.032,2.252 c -0.032,0.02 -0.072,0.028 -0.108,0.028 -0.036,0 -0.072,-0.008 -0.104,-0.028 l 0.008,-0.768 -0.404,0.092 h -0.016 c -0.04,0 -0.076,-0.032 -0.076,-0.072 -0.004,-0.82 -0.012,-1.636 -0.016,-2.456 0,-0.052 -0.02,-0.072 -0.052,-0.072 -0.068,0 -0.192,0.092 -0.304,0.156 -0.008,0.004 -0.016,0.008 -0.024,0.008 -0.024,0 -0.048,-0.024 -0.048,-0.048 0,-0.008 0,-0.02 0.008,-0.028 0.2,-0.288 0.344,-0.608 0.476,-0.936 0.008,-0.016 0.02,-0.024 0.036,-0.024 0.016,0 0.028,0.008 0.036,0.024 0.132,0.328 0.272,0.648 0.472,0.936 0.008,0.008 0.008,0.02 0.008,0.028 0,0.024 -0.02,0.048 -0.044,0.048 -0.008,0 -0.016,-0.004 -0.024,-0.008 -0.112,-0.064 -0.24,-0.156 -0.308,-0.156 -0.032,0 -0.052,0.02 -0.052,0.072 -0.004,0.324 0,0.648 -0.004,0.972 z m -0.064,0.384 -0.356,0.08 -0.004,0.8 0.352,-0.076 z"
     id="path6939"
     inkscape:connector-curvature="0"
     style="fill:currentColor;stroke-width:0.004" />
  <a
     style="color:inherit"
     xlink:href="textedit://C:/Users/tikeda/Documents/git/LotusRoot/sco.txt:5:35:36"
     id="a6943"
     transform="translate(-6.0572192,-4.5566)">
    <path
       transform="matrix(0.004,0,0,-0.004,43.9789,21.3326)"
       d="m 212,138 c 59,0 113,-31 113,-95 0,-71 -52,-120 -99,-148 -34,-21 -73,-33 -113,-33 -59,0 -113,31 -113,95 0,71 53,120 100,148 34,21 72,33 112,33 z"
       id="path6941"
       inkscape:connector-curvature="0"
       style="fill:currentColor" />
  </a>
  <path
     d="m 3.3719808,15.72 c 0.012,0 0.028,-0.004 0.04,-0.004 0.628,0 1.032,0.516 1.032,1.052 0,0.308 -0.132,0.62 -0.432,0.844 -0.088,0.064 -0.184,0.116 -0.288,0.148 0.012,0.132 0.016,0.264 0.016,0.396 0,0.084 0,0.164 -0.004,0.248 -0.028,0.484 -0.364,0.916 -0.844,0.916 -0.432,0 -0.784,-0.352 -0.784,-0.788 0,-0.232 0.216,-0.412 0.452,-0.412 0.216,0 0.38,0.188 0.38,0.412 0,0.208 -0.172,0.38 -0.38,0.38 -0.036,0 -0.072,-0.004 -0.108,-0.016 0.1,0.148 0.264,0.244 0.452,0.244 0.38,0 0.624,-0.372 0.648,-0.764 0.004,-0.076 0.008,-0.152 0.008,-0.228 0,-0.116 -0.004,-0.232 -0.012,-0.348 -0.116,0.02 -0.232,0.032 -0.352,0.032 -0.756,0 -1.332,-0.692 -1.332,-1.504 0,-0.708 0.516,-1.232 0.976,-1.772 -0.08,-0.248 -0.16,-0.496 -0.192,-0.756 -0.028,-0.208 -0.028,-0.42 -0.028,-0.632 0,-0.456 0.216,-0.884 0.588,-1.152 0.016,-0.012 0.032,-0.016 0.048,-0.016 0.02,0 0.036,0.008 0.052,0.02 0.288,0.332 0.54,0.972 0.54,1.424 0,0.568 -0.336,1.02 -0.704,1.456 0.084,0.272 0.16,0.544 0.228,0.82 z m 0.336,1.86 c 0.26,-0.096 0.44,-0.376 0.44,-0.644 0,-0.352 -0.256,-0.7 -0.668,-0.752 0.096,0.456 0.176,0.908 0.228,1.396 z m -1.544,-0.904 c 0,0.532 0.512,0.972 1.044,0.972 0.108,0 0.22,-0.004 0.324,-0.02 -0.052,-0.504 -0.14,-0.976 -0.24,-1.448 -0.316,0.032 -0.496,0.24 -0.496,0.472 0,0.172 0.1,0.352 0.32,0.48 0.02,0.02 0.028,0.044 0.028,0.068 0,0.048 -0.04,0.092 -0.092,0.092 -0.012,0 -0.028,-0.004 -0.04,-0.008 -0.324,-0.172 -0.472,-0.46 -0.472,-0.744 0,-0.356 0.24,-0.708 0.652,-0.8 -0.056,-0.228 -0.12,-0.452 -0.188,-0.676 -0.42,0.488 -0.84,0.972 -0.84,1.612 z m 1.304,-4.052 c -0.396,0.184 -0.644,0.58 -0.644,1.016 0,0.284 0.084,0.52 0.156,0.752 0.312,-0.388 0.568,-0.796 0.568,-1.296 0,-0.204 -0.016,-0.288 -0.08,-0.472 z"
     id="path6945"
     inkscape:connector-curvature="0"
     style="fill:currentColor;stroke-width:0.004" />
  <path
     d="m 6.1979808,18.592 c -0.048,0 -0.084,-0.036 -0.084,-0.084 v -0.552 l -0.316,0.12 v 0.616 c 0,0.048 -0.036,0.084 -0.084,0.084 -0.048,0 -0.084,-0.036 -0.084,-0.084 V 18.14 l -0.088,0.032 c -0.012,0.004 -0.024,0.008 -0.036,0.008 -0.052,0 -0.1,-0.044 -0.1,-0.1 v -0.216 c 0,-0.04 0.024,-0.08 0.064,-0.096 l 0.16,-0.06 v -0.62 l -0.088,0.036 c -0.012,0.004 -0.024,0.004 -0.036,0.004 -0.052,0 -0.1,-0.044 -0.1,-0.1 v -0.216 c 0,-0.04 0.024,-0.076 0.064,-0.092 l 0.16,-0.06 v -0.616 c 0,-0.048 0.036,-0.084 0.084,-0.084 0.048,0 0.084,0.036 0.084,0.084 v 0.552 l 0.316,-0.12 V 15.86 c 0,-0.048 0.036,-0.084 0.084,-0.084 0.048,0 0.084,0.036 0.084,0.084 v 0.552 l 0.088,-0.032 c 0.012,-0.004 0.024,-0.008 0.036,-0.008 0.052,0 0.1,0.044 0.1,0.1 v 0.216 c 0,0.04 -0.024,0.08 -0.064,0.096 l -0.16,0.06 v 0.62 l 0.088,-0.036 c 0.012,-0.004 0.024,-0.004 0.036,-0.004 0.052,0 0.1,0.044 0.1,0.1 v 0.216 c 0,0.04 -0.024,0.076 -0.064,0.092 l -0.16,0.06 v 0.616 c 0,0.048 -0.036,0.084 -0.084,0.084 z m -0.4,-1.564 v 0.616 l 0.316,-0.12 v -0.616 z"
     id="path6947"
     inkscape:connector-curvature="0"
     style="fill:currentColor;stroke-width:0.004" />
  <text
     font-size="1.7463"
     id="text6951"
     style="font-size:1.74629998px;font-family:serif;text-anchor:start;fill:currentColor"
     x="-0.053719189"
     y="12.726">
    <tspan
       id="tspan6949">4</tspan>
  </text>
  <rect
     x="8.0053806"
     y="12.4842"
     width="0.1514"
     height="4.6205001"
     ry="0.050000001"
     id="rect6953"
     style="fill:currentColor" />
  <a
     style="color:inherit"
     xlink:href="textedit://C:/Users/tikeda/Documents/git/LotusRoot/sco.txt:5:0:1"
     id="a6957"
     transform="translate(-6.0572192,-4.5566)">
    <path
       transform="matrix(0.004,0,0,-0.004,12.9132,21.8326)"
       d="m 212,138 c 59,0 113,-31 113,-95 0,-71 -52,-120 -99,-148 -34,-21 -73,-33 -113,-33 -59,0 -113,31 -113,95 0,71 53,120 100,148 34,21 72,33 112,33 z"
       id="path6955"
       inkscape:connector-curvature="0"
       style="fill:currentColor" />
  </a>
  <a
     style="color:inherit"
     xlink:href="textedit://C:/Users/tikeda/Documents/git/LotusRoot/sco.txt:5:6:7"
     id="a6961"
     transform="translate(-6.0572192,-4.5566)">
    <path
       transform="matrix(0.004,0,0,-0.004,18.28,21.8326)"
       d="m 212,138 c 59,0 113,-31 113,-95 0,-71 -52,-120 -99,-148 -34,-21 -73,-33 -113,-33 -59,0 -113,31 -113,95 0,71 53,120 100,148 34,21 72,33 112,33 z"
       id="path6959"
       inkscape:connector-curvature="0"
       style="fill:currentColor" />
  </a>
  <rect
     x="13.372281"
     y="12.4842"
     width="0.1514"
     height="4.6205001"
     ry="0.050000001"
     id="rect6963"
     style="fill:currentColor" />
  <path
     d="m 11.564781,18.592 c -0.048,0 -0.084,-0.036 -0.084,-0.084 v -0.552 l -0.316,0.12 v 0.616 c 0,0.048 -0.036,0.084 -0.084,0.084 -0.048,0 -0.084,-0.036 -0.084,-0.084 V 18.14 l -0.088,0.032 c -0.012,0.004 -0.024,0.008 -0.036,0.008 -0.052,0 -0.1,-0.044 -0.1,-0.1 v -0.216 c 0,-0.04 0.024,-0.08 0.064,-0.096 l 0.16,-0.06 v -0.62 l -0.088,0.036 c -0.012,0.004 -0.024,0.004 -0.036,0.004 -0.052,0 -0.1,-0.044 -0.1,-0.1 v -0.216 c 0,-0.04 0.024,-0.076 0.064,-0.092 l 0.16,-0.06 v -0.616 c 0,-0.048 0.036,-0.084 0.084,-0.084 0.048,0 0.084,0.036 0.084,0.084 v 0.552 l 0.316,-0.12 v -0.9 c 0,-0.052 -0.02,-0.076 -0.052,-0.076 -0.068,0 -0.196,0.092 -0.308,0.156 -0.04,0.024 -0.084,-0.02 -0.056,-0.06 0.204,-0.288 0.332,-0.616 0.464,-0.944 0.008,-0.016 0.024,-0.024 0.036,-0.024 0.012,0 0.024,0.008 0.032,0.024 0.132,0.328 0.26,0.656 0.464,0.944 0.004,0.008 0.008,0.016 0.008,0.024 0,0.032 -0.032,0.056 -0.064,0.036 -0.112,-0.064 -0.24,-0.156 -0.308,-0.156 -0.032,0 -0.048,0.024 -0.048,0.076 v 0.836 l 0.088,-0.032 c 0.012,-0.004 0.024,-0.008 0.036,-0.008 0.052,0 0.1,0.044 0.1,0.1 v 0.216 c 0,0.04 -0.024,0.08 -0.064,0.096 l -0.16,0.06 v 0.62 l 0.088,-0.036 c 0.012,-0.004 0.024,-0.004 0.036,-0.004 0.052,0 0.1,0.044 0.1,0.1 v 0.216 c 0,0.04 -0.024,0.076 -0.064,0.092 l -0.16,0.06 v 0.616 c 0,0.048 -0.036,0.084 -0.084,0.084 z m -0.4,-1.564 v 0.616 l 0.316,-0.12 v -0.616 z"
     id="path6965"
     inkscape:connector-curvature="0"
     style="fill:currentColor;stroke-width:0.004" />
  <a
     style="color:inherit"
     xlink:href="textedit://C:/Users/tikeda/Documents/git/LotusRoot/sco.txt:5:13:14"
     id="a6969"
     transform="translate(-6.0572192,-4.5566)">
    <path
       transform="matrix(0.004,0,0,-0.004,24.1469,21.8326)"
       d="m 212,138 c 59,0 113,-31 113,-95 0,-71 -52,-120 -99,-148 -34,-21 -73,-33 -113,-33 -59,0 -113,31 -113,95 0,71 53,120 100,148 34,21 72,33 112,33 z"
       id="path6967"
       inkscape:connector-curvature="0"
       style="fill:currentColor" />
  </a>
  <path
     d="m 55.743481,18.092 c -0.048,0 -0.084,-0.036 -0.084,-0.084 v -0.552 l -0.316,0.12 v 0.616 c 0,0.048 -0.036,0.084 -0.084,0.084 -0.048,0 -0.084,-0.036 -0.084,-0.084 V 17.64 l -0.088,0.032 c -0.012,0.004 -0.024,0.008 -0.036,0.008 -0.052,0 -0.1,-0.044 -0.1,-0.1 v -0.216 c 0,-0.04 0.024,-0.08 0.064,-0.096 l 0.16,-0.06 v -0.62 l -0.088,0.036 c -0.012,0.004 -0.024,0.004 -0.036,0.004 -0.052,0 -0.1,-0.044 -0.1,-0.1 v -0.216 c 0,-0.04 0.024,-0.076 0.064,-0.092 l 0.16,-0.06 v -0.616 c 0,-0.048 0.036,-0.084 0.084,-0.084 0.048,0 0.084,0.036 0.084,0.084 v 0.552 l 0.316,-0.12 v -0.9 c 0,-0.052 -0.02,-0.076 -0.052,-0.076 -0.068,0 -0.196,0.092 -0.308,0.156 -0.04,0.024 -0.084,-0.02 -0.056,-0.06 0.204,-0.288 0.332,-0.616 0.464,-0.944 0.008,-0.016 0.024,-0.024 0.036,-0.024 0.012,0 0.024,0.008 0.032,0.024 0.132,0.328 0.26,0.656 0.464,0.944 0.004,0.008 0.008,0.016 0.008,0.024 0,0.032 -0.032,0.056 -0.064,0.036 -0.112,-0.064 -0.24,-0.156 -0.308,-0.156 -0.032,0 -0.048,0.024 -0.048,0.076 v 0.836 l 0.088,-0.032 c 0.012,-0.004 0.024,-0.008 0.036,-0.008 0.052,0 0.1,0.044 0.1,0.1 v 0.216 c 0,0.04 -0.024,0.08 -0.064,0.096 l -0.16,0.06 v 0.62 l 0.088,-0.036 c 0.012,-0.004 0.024,-0.004 0.036,-0.004 0.052,0 0.1,0.044 0.1,0.1 v 0.216 c 0,0.04 -0.024,0.076 -0.064,0.092 l -0.16,0.06 v 0.616 c 0,0.048 -0.036,0.084 -0.084,0.084 z m -0.4,-1.564 v 0.616 l 0.316,-0.12 v -0.616 z"
     id="path6971"
     inkscape:connector-curvature="0"
     style="fill:currentColor;stroke-width:0.004" />
  <path
     d="m 50.376581,18.092 c -0.048,0 -0.084,-0.036 -0.084,-0.084 v -0.552 l -0.316,0.12 v 0.616 c 0,0.048 -0.036,0.084 -0.084,0.084 -0.048,0 -0.084,-0.036 -0.084,-0.084 V 17.64 l -0.088,0.032 c -0.012,0.004 -0.024,0.008 -0.036,0.008 -0.052,0 -0.1,-0.044 -0.1,-0.1 v -0.216 c 0,-0.04 0.024,-0.08 0.064,-0.096 l 0.16,-0.06 v -0.62 l -0.088,0.036 c -0.012,0.004 -0.024,0.004 -0.036,0.004 -0.052,0 -0.1,-0.044 -0.1,-0.1 v -0.216 c 0,-0.04 0.024,-0.076 0.064,-0.092 l 0.16,-0.06 v -0.616 c 0,-0.048 0.036,-0.084 0.084,-0.084 0.048,0 0.084,0.036 0.084,0.084 v 0.552 l 0.316,-0.12 V 15.36 c 0,-0.048 0.036,-0.084 0.084,-0.084 0.048,0 0.084,0.036 0.084,0.084 v 0.552 l 0.088,-0.032 c 0.012,-0.004 0.024,-0.008 0.036,-0.008 0.052,0 0.1,0.044 0.1,0.1 v 0.216 c 0,0.04 -0.024,0.08 -0.064,0.096 l -0.16,0.06 v 0.62 l 0.088,-0.036 c 0.012,-0.004 0.024,-0.004 0.036,-0.004 0.052,0 0.1,0.044 0.1,0.1 v 0.216 c 0,0.04 -0.024,0.076 -0.064,0.092 l -0.16,0.06 v 0.616 c 0,0.048 -0.036,0.084 -0.084,0.084 z m -0.4,-1.564 v 0.616 l 0.316,-0.12 v -0.616 z"
     id="path6973"
     inkscape:connector-curvature="0"
     style="fill:currentColor;stroke-width:0.004" />
  <a
     style="color:inherit"
     xlink:href="textedit://C:/Users/tikeda/Documents/git/LotusRoot/sco.txt:6:6:7"
     id="a6977"
     transform="translate(-6.0572192,-4.5566)">
    <path
       transform="matrix(0.004,0,0,-0.004,62.4587,21.3326)"
       d="m 212,138 c 59,0 113,-31 113,-95 0,-71 -52,-120 -99,-148 -34,-21 -73,-33 -113,-33 -59,0 -113,31 -113,95 0,71 53,120 100,148 34,21 72,33 112,33 z"
       id="path6975"
       inkscape:connector-curvature="0"
       style="fill:currentColor" />
  </a>
  <rect
     x="57.55088"
     y="12.0678"
     width="0.1514"
     height="4.5369"
     ry="0.050000001"
     id="rect6979"
     style="fill:currentColor" />
  <a
     style="color:inherit"
     xlink:href="textedit://C:/Users/tikeda/Documents/git/LotusRoot/sco.txt:6:13:14"
     id="a6983"
     transform="translate(-6.0572192,-4.5566)">
    <path
       transform="matrix(0.004,0,0,-0.004,68.3255,21.3326)"
       d="m 212,138 c 59,0 113,-31 113,-95 0,-71 -52,-120 -99,-148 -34,-21 -73,-33 -113,-33 -59,0 -113,31 -113,95 0,71 53,120 100,148 34,21 72,33 112,33 z"
       id="path6981"
       inkscape:connector-curvature="0"
       style="fill:currentColor" />
  </a>
  <rect
     x="63.417683"
     y="12.063499"
     width="0.1514"
     height="4.5412002"
     ry="0.050000001"
     id="rect6985"
     style="fill:currentColor" />
  <path
     d="m 61.118281,18.16 c -0.048,0 -0.084,-0.036 -0.084,-0.084 v -0.54 l -0.284,0.072 v 0.584 c 0,0.048 -0.032,0.084 -0.08,0.084 -0.048,0 -0.084,-0.036 -0.084,-0.084 v -0.54 l -0.14,0.036 c -0.008,0.004 -0.02,0.004 -0.028,0.004 -0.052,0 -0.1,-0.044 -0.1,-0.1 v -0.216 c 0,-0.044 0.032,-0.088 0.076,-0.1 l 0.192,-0.048 v -0.624 l -0.14,0.036 c -0.008,0.004 -0.02,0 -0.028,0 -0.052,0 -0.1,-0.044 -0.1,-0.1 v -0.216 c 0,-0.044 0.032,-0.084 0.076,-0.096 l 0.192,-0.048 v -0.584 c 0,-0.048 0.036,-0.084 0.084,-0.084 0.048,0 0.08,0.036 0.08,0.084 v 0.54 l 0.284,-0.076 v -0.584 c 0,-0.048 0.036,-0.084 0.084,-0.084 0.048,0 0.084,0.036 0.084,0.084 v 0.54 l 0.284,-0.072 V 15.36 c 0,-0.048 0.032,-0.084 0.08,-0.084 0.048,0 0.084,0.036 0.084,0.084 v 0.54 l 0.14,-0.036 c 0.008,-0.004 0.02,-0.004 0.028,-0.004 0.052,0 0.1,0.044 0.1,0.1 v 0.216 c 0,0.044 -0.032,0.088 -0.076,0.1 l -0.192,0.048 v 0.624 l 0.14,-0.036 c 0.008,-0.004 0.02,0 0.028,0 0.052,0 0.1,0.044 0.1,0.1 v 0.216 c 0,0.044 -0.032,0.084 -0.076,0.096 l -0.192,0.048 v 0.584 c 0,0.048 -0.036,0.084 -0.084,0.084 -0.048,0 -0.08,-0.036 -0.08,-0.084 v -0.54 l -0.284,0.076 v 0.584 c 0,0.048 -0.036,0.084 -0.084,0.084 z m -0.368,-1.6 v 0.624 l 0.284,-0.072 v -0.628 z m 0.736,-0.192 -0.284,0.072 v 0.628 l 0.284,-0.076 z"
     id="path6987"
     inkscape:connector-curvature="0"
     style="fill:currentColor;stroke-width:0.004" />
  <a
     style="color:inherit"
     xlink:href="textedit://C:/Users/tikeda/Documents/git/LotusRoot/sco.txt:6:21:22"
     id="a6991"
     transform="translate(-6.0572192,-4.5566)">
    <path
       transform="matrix(0.004,0,0,-0.004,73.2698,20.8326)"
       d="m 212,138 c 59,0 113,-31 113,-95 0,-71 -52,-120 -99,-148 -34,-21 -73,-33 -113,-33 -59,0 -113,31 -113,95 0,71 53,120 100,148 34,21 72,33 112,33 z"
       id="path6989"
       inkscape:connector-curvature="0"
       style="fill:currentColor" />
  </a>
  <rect
     x="68.362083"
     y="11.7803"
     width="0.1514"
     height="4.3242998"
     ry="0.050000001"
     id="rect6993"
     style="fill:currentColor" />
  <path
     d="m 37.303681,18.024 c 0,0.048 -0.036,0.08 -0.084,0.08 -0.048,0 -0.08,-0.032 -0.08,-0.08 v -0.448 l -0.116,0.068 c -0.016,0.008 -0.036,0.016 -0.052,0.016 -0.052,0 -0.1,-0.044 -0.1,-0.104 V 17.34 c 0,-0.036 0.016,-0.064 0.048,-0.084 l 0.22,-0.132 v -0.6 l -0.116,0.068 c -0.016,0.008 -0.036,0.016 -0.052,0.016 -0.052,0 -0.1,-0.04 -0.1,-0.1 v -0.216 c 0,-0.036 0.016,-0.068 0.048,-0.088 l 0.22,-0.128 v -0.548 c 0,-0.048 0.032,-0.08 0.08,-0.08 0.048,0 0.084,0.032 0.084,0.08 v 0.448 l 0.116,-0.068 c 0.016,-0.008 0.036,-0.016 0.052,-0.016 0.052,0 0.1,0.044 0.1,0.104 v 0.216 c 0,0.036 -0.016,0.064 -0.048,0.084 l -0.22,0.132 v 0.6 l 0.116,-0.068 c 0.016,-0.008 0.036,-0.016 0.052,-0.016 0.052,0 0.1,0.04 0.1,0.1 v 0.216 c 0,0.036 -0.016,0.068 -0.048,0.088 l -0.22,0.128 z"
     id="path6995"
     inkscape:connector-curvature="0"
     style="fill:currentColor;stroke-width:0.004" />
  <a
     style="color:inherit"
     xlink:href="textedit://C:/Users/tikeda/Documents/git/LotusRoot/sco.txt:5:41:42"
     id="a6999"
     transform="translate(-6.0572192,-4.5566)">
    <path
       transform="matrix(0.004,0,0,-0.004,49.3457,21.3326)"
       d="m 212,138 c 59,0 113,-31 113,-95 0,-71 -52,-120 -99,-148 -34,-21 -73,-33 -113,-33 -59,0 -113,31 -113,95 0,71 53,120 100,148 34,21 72,33 112,33 z"
       id="path6997"
       inkscape:connector-curvature="0"
       style="fill:currentColor" />
  </a>
  <rect
     x="44.437981"
     y="12.0678"
     width="0.1514"
     height="4.5369"
     ry="0.050000001"
     id="rect7001"
     style="fill:currentColor" />
  <path
     d="m 42.630481,18.092 c -0.048,0 -0.084,-0.036 -0.084,-0.084 v -0.552 l -0.316,0.12 v 0.9 c 0,0.052 0.02,0.076 0.052,0.076 0.068,0 0.196,-0.092 0.308,-0.156 0.04,-0.024 0.084,0.02 0.056,0.06 -0.204,0.288 -0.332,0.616 -0.464,0.944 -0.008,0.016 -0.024,0.024 -0.036,0.024 -0.012,0 -0.024,-0.008 -0.032,-0.024 -0.132,-0.328 -0.26,-0.656 -0.464,-0.944 -0.004,-0.008 -0.008,-0.016 -0.008,-0.024 0,-0.032 0.032,-0.056 0.064,-0.036 0.112,0.064 0.24,0.156 0.308,0.156 0.032,0 0.048,-0.024 0.048,-0.076 V 17.64 l -0.088,0.032 c -0.012,0.004 -0.024,0.008 -0.036,0.008 -0.052,0 -0.1,-0.044 -0.1,-0.1 v -0.216 c 0,-0.04 0.024,-0.08 0.064,-0.096 l 0.16,-0.06 v -0.62 l -0.088,0.036 c -0.012,0.004 -0.024,0.004 -0.036,0.004 -0.052,0 -0.1,-0.044 -0.1,-0.1 v -0.216 c 0,-0.04 0.024,-0.076 0.064,-0.092 l 0.16,-0.06 v -0.616 c 0,-0.048 0.036,-0.084 0.084,-0.084 0.048,0 0.084,0.036 0.084,0.084 v 0.552 l 0.316,-0.12 V 15.36 c 0,-0.048 0.036,-0.084 0.084,-0.084 0.048,0 0.084,0.036 0.084,0.084 v 0.552 l 0.088,-0.032 c 0.012,-0.004 0.024,-0.008 0.036,-0.008 0.052,0 0.1,0.044 0.1,0.1 v 0.216 c 0,0.04 -0.024,0.08 -0.064,0.096 l -0.16,0.06 v 0.62 l 0.088,-0.036 c 0.012,-0.004 0.024,-0.004 0.036,-0.004 0.052,0 0.1,0.044 0.1,0.1 v 0.216 c 0,0.04 -0.024,0.076 -0.064,0.092 l -0.16,0.06 v 0.616 c 0,0.048 -0.036,0.084 -0.084,0.084 z m -0.4,-1.564 v 0.616 l 0.316,-0.12 v -0.616 z"
     id="path7003"
     inkscape:connector-curvature="0"
     style="fill:currentColor;stroke-width:0.004" />
  <a
     style="color:inherit"
     xlink:href="textedit://C:/Users/tikeda/Documents/git/LotusRoot/sco.txt:6:0:1"
     id="a7007"
     transform="translate(-6.0572192,-4.5566)">
    <path
       transform="matrix(0.004,0,0,-0.004,57.0918,21.3326)"
       d="m 212,138 c 59,0 113,-31 113,-95 0,-71 -52,-120 -99,-148 -34,-21 -73,-33 -113,-33 -59,0 -113,31 -113,95 0,71 53,120 100,148 34,21 72,33 112,33 z"
       id="path7005"
       inkscape:connector-curvature="0"
       style="fill:currentColor" />
  </a>
  <rect
     x="52.184082"
     y="12.0678"
     width="0.1514"
     height="4.5369"
     ry="0.050000001"
     id="rect7009"
     style="fill:currentColor" />
  <text
     font-size="2.1999"
     id="text7013"
     style="font-size:2.19989991px;font-family:serif;text-anchor:start;fill:currentColor"
     x="68.631279"
     y="202.43719">
    <tspan
       id="tspan7011" />
  </text>
</svg>
