<?xml version="1.0" encoding="UTF-8" standalone="no"?>
<svg
   xmlns:dc="http://purl.org/dc/elements/1.1/"
   xmlns:cc="http://creativecommons.org/ns#"
   xmlns:rdf="http://www.w3.org/1999/02/22-rdf-syntax-ns#"
   xmlns:svg="http://www.w3.org/2000/svg"
   xmlns="http://www.w3.org/2000/svg"
   xmlns:sodipodi="http://sodipodi.sourceforge.net/DTD/sodipodi-0.dtd"
   xmlns:inkscape="http://www.inkscape.org/namespaces/inkscape"
   version="1.2"
   width="678.62012"
   height="96.757141"
   viewBox="0 0 136.23302 19.423995"
   id="svg2"
   inkscape:version="0.48.2 r9819"
   sodipodi:docname="test.svg">
  <metadata
     id="metadata406">
    <rdf:RDF>
      <cc:Work
         rdf:about="">
        <dc:format>image/svg+xml</dc:format>
        <dc:type
           rdf:resource="http://purl.org/dc/dcmitype/StillImage" />
      </cc:Work>
    </rdf:RDF>
  </metadata>
  <defs
     id="defs404" />
  <sodipodi:namedview
     pagecolor="#ffffff"
     bordercolor="#666666"
     borderopacity="1"
     objecttolerance="10"
     gridtolerance="10"
     guidetolerance="10"
     inkscape:pageopacity="0"
     inkscape:pageshadow="2"
     inkscape:window-width="769"
     inkscape:window-height="480"
     id="namedview402"
     showgrid="false"
     fit-margin-top="0"
     fit-margin-left="0"
     fit-margin-right="0"
     fit-margin-bottom="0"
     inkscape:zoom="0.22425739"
     inkscape:cx="342.00597"
     inkscape:cy="-406.72594"
     inkscape:window-x="0"
     inkscape:window-y="0"
     inkscape:window-maximized="0"
     inkscape:current-layer="svg2" />
  <!-- Page: 1/1 -->
  <text
     font-size="2.1999"
     id="text4"
     style="font-size:2.19989991px;text-anchor:start;fill:currentColor;font-family:serif"
     x="1.082414"
     y="-1.0000272">
    <tspan
       id="tspan6" />
  </text>
  <line
     x1="11.810414"
     y1="5.7759728"
     x2="136.17482"
     y2="5.7759728"
     id="line8"
     style="stroke:currentColor;stroke-width:0.1164;stroke-linecap:round;stroke-linejoin:round" />
  <line
     x1="11.810414"
     y1="4.7759728"
     x2="136.17482"
     y2="4.7759728"
     id="line10"
     style="stroke:currentColor;stroke-width:0.1164;stroke-linecap:round;stroke-linejoin:round" />
  <line
     x1="11.810414"
     y1="3.7759728"
     x2="136.17482"
     y2="3.7759728"
     id="line12"
     style="stroke:currentColor;stroke-width:0.1164;stroke-linecap:round;stroke-linejoin:round" />
  <line
     x1="11.810414"
     y1="2.7759728"
     x2="136.17482"
     y2="2.7759728"
     id="line14"
     style="stroke:currentColor;stroke-width:0.1164;stroke-linecap:round;stroke-linejoin:round" />
  <line
     x1="11.810414"
     y1="1.7759728"
     x2="136.17482"
     y2="1.7759728"
     id="line16"
     style="stroke:currentColor;stroke-width:0.1164;stroke-linecap:round;stroke-linejoin:round" />
  <rect
     x="97.810814"
     y="1.7759728"
     width="0.2212"
     height="4"
     ry="0"
     id="rect18"
     style="fill:currentColor" />
  <rect
     x="57.897114"
     y="1.7759728"
     width="0.2212"
     height="4"
     ry="0"
     id="rect20"
     style="fill:currentColor" />
  <rect
     x="136.01181"
     y="1.7759728"
     width="0.2212"
     height="4"
     ry="0"
     id="rect22"
     style="fill:currentColor" />
  <rect
     x="49.073711"
     y="6.6677728"
     width="1.9962"
     height="0.2164"
     ry="0.1082"
     id="rect24"
     style="fill:currentColor" />
  <rect
     x="43.720314"
     y="6.6677728"
     width="1.9962"
     height="0.2164"
     ry="0.1082"
     id="rect26"
     style="fill:currentColor" />
  <rect
     x="38.867012"
     y="6.6677728"
     width="1.9962"
     height="0.2164"
     ry="0.1082"
     id="rect28"
     style="fill:currentColor" />
  <rect
     x="34.013714"
     y="6.6677728"
     width="1.9962"
     height="0.2164"
     ry="0.1082"
     id="rect30"
     style="fill:currentColor" />
  <rect
     x="29.160315"
     y="6.6677728"
     width="1.9962"
     height="0.2164"
     ry="0.1082"
     id="rect32"
     style="fill:currentColor" />
  <rect
     x="24.693514"
     y="6.6677728"
     width="2.0095999"
     height="0.2164"
     ry="0.1082"
     id="rect34"
     style="fill:currentColor" />
  <rect
     x="19.914715"
     y="6.6677728"
     width="2.3415"
     height="0.2164"
     ry="0.1082"
     id="rect36"
     style="fill:currentColor" />
  <rect
     x="101.38851"
     y="2.7759728"
     width="0.1514"
     height="2.8287001"
     ry="0.050000001"
     id="rect38"
     style="fill:currentColor" />
  <path
     d="m 101.08711,5.2239728 c 0.236,0 0.452,0.124 0.452,0.38 0,0.284 -0.208,0.48 -0.396,0.592 -0.136,0.084 -0.292,0.132 -0.452,0.132 -0.236,0 -0.452,-0.124 -0.452,-0.38 0,-0.284 0.212,-0.48 0.4,-0.592 0.136,-0.084 0.288,-0.132 0.448,-0.132 z"
     id="path40"
     inkscape:connector-curvature="0"
     style="fill:currentColor" />
  <path
     d="m 92.510214,4.2759728 c 0.032,-0.02 0.072,-0.028 0.108,-0.028 0.036,0 0.072,0.008 0.104,0.028 l -0.012,0.768 0.408,-0.092 h 0.016 c 0.04,0 0.076,0.032 0.076,0.072 0.004,0.82 0.012,1.636 0.016,2.456 0,0.052 0.02,0.072 0.052,0.072 0.068,0 0.192,-0.092 0.304,-0.156 0.008,-0.004 0.016,-0.008 0.024,-0.008 0.024,0 0.048,0.024 0.048,0.048 0,0.008 0,0.02 -0.008,0.028 -0.2,0.288 -0.344,0.608 -0.476,0.936 -0.008,0.016 -0.02,0.024 -0.036,0.024 -0.016,0 -0.028,-0.008 -0.036,-0.024 -0.132,-0.328 -0.272,-0.648 -0.472,-0.936 -0.008,-0.008 -0.012,-0.02 -0.012,-0.028 0,-0.024 0.024,-0.048 0.048,-0.048 0.008,0 0.016,0.004 0.024,0.008 0.112,0.064 0.236,0.156 0.304,0.156 0.032,0 0.052,-0.02 0.052,-0.072 0.004,-0.324 0.004,-0.648 0.008,-0.972 l -0.416,0.092 h -0.016 c -0.04,0 -0.076,-0.032 -0.076,-0.072 z m 0.548,1.06 -0.352,0.076 -0.012,0.804 0.36,-0.08 z"
     id="path42"
     inkscape:connector-curvature="0"
     style="fill:currentColor" />
  <rect
     x="94.719215"
     y="2.7807729"
     width="0.1514"
     height="2.8238001"
     ry="0.050000001"
     id="rect44"
     style="fill:currentColor" />
  <path
     d="m 94.417714,5.2239728 c 0.236,0 0.452,0.124 0.452,0.38 0,0.284 -0.208,0.48 -0.396,0.592 -0.136,0.084 -0.292,0.132 -0.452,0.132 -0.236,0 -0.452,-0.124 -0.452,-0.38 0,-0.284 0.212,-0.48 0.4,-0.592 0.136,-0.084 0.288,-0.132 0.448,-0.132 z"
     id="path46"
     inkscape:connector-curvature="0"
     style="fill:currentColor" />
  <path
     d="m 87.988914,7.6599728 c -0.048,0 -0.084,-0.036 -0.084,-0.084 v -0.54 l -0.284,0.072 v 0.584 c 0,0.048 -0.032,0.084 -0.08,0.084 -0.048,0 -0.084,-0.036 -0.084,-0.084 v -0.54 l -0.14,0.036 c -0.008,0.004 -0.02,0.004 -0.028,0.004 -0.052,0 -0.1,-0.044 -0.1,-0.1 v -0.216 c 0,-0.044 0.032,-0.088 0.076,-0.1 l 0.192,-0.048 v -0.624 l -0.14,0.036 c -0.008,0.004 -0.02,0 -0.028,0 -0.052,0 -0.1,-0.044 -0.1,-0.1 v -0.216 c 0,-0.044 0.032,-0.084 0.076,-0.096 l 0.192,-0.048 v -0.584 c 0,-0.048 0.036,-0.084 0.084,-0.084 0.048,0 0.08,0.036 0.08,0.084 v 0.54 l 0.284,-0.076 v -0.584 c 0,-0.048 0.036,-0.084 0.084,-0.084 0.048,0 0.084,0.036 0.084,0.084 v 0.54 l 0.284,-0.072 v -0.584 c 0,-0.048 0.032,-0.084 0.08,-0.084 0.048,0 0.084,0.036 0.084,0.084 v 0.54 l 0.14,-0.036 c 0.008,-0.004 0.02,-0.004 0.028,-0.004 0.052,0 0.1,0.044 0.1,0.1 v 0.216 c 0,0.044 -0.032,0.088 -0.076,0.1 l -0.192,0.048 v 0.624 l 0.14,-0.036 c 0.008,-0.004 0.02,0 0.028,0 0.052,0 0.1,0.044 0.1,0.1 v 0.216 c 0,0.044 -0.032,0.084 -0.076,0.096 l -0.192,0.048 v 0.584 c 0,0.048 -0.036,0.084 -0.084,0.084 -0.048,0 -0.08,-0.036 -0.08,-0.084 v -0.54 l -0.284,0.076 v 0.584 c 0,0.048 -0.036,0.084 -0.084,0.084 z m -0.368,-1.6 v 0.624 l 0.284,-0.072 v -0.628 z m 0.736,-0.192 -0.284,0.072 v 0.628 l 0.284,-0.076 v -0.624 z"
     id="path48"
     inkscape:connector-curvature="0"
     style="fill:currentColor" />
  <path
     d="m 99.163514,4.2759728 c 0.032,-0.02 0.072,-0.028 0.108,-0.028 0.036,0 0.072,0.008 0.104,0.028 l -0.012,0.768 0.408,-0.092 h 0.016 c 0.04,0 0.076,0.032 0.076,0.072 l 0.032,2.252 c -0.032,0.02 -0.072,0.028 -0.108,0.028 -0.036,0 -0.072,-0.008 -0.104,-0.028 l 0.008,-0.768 -0.404,0.092 h -0.016 c -0.04,0 -0.076,-0.032 -0.076,-0.072 z m 0.544,1.06 -0.348,0.076 -0.012,0.804 0.352,-0.076 z"
     id="path50"
     inkscape:connector-curvature="0"
     style="fill:currentColor" />
  <path
     d="m 105.53401,5.2239728 c 0.236,0 0.452,0.124 0.452,0.38 0,0.284 -0.208,0.48 -0.396,0.592 -0.136,0.084 -0.292,0.132 -0.452,0.132 -0.236,0 -0.452,-0.124 -0.452,-0.38 0,-0.284 0.212,-0.48 0.4,-0.592 0.136,-0.084 0.288,-0.132 0.448,-0.132 z"
     id="path52"
     inkscape:connector-curvature="0"
     style="fill:currentColor" />
  <rect
     x="105.83551"
     y="2.7759728"
     width="0.1514"
     height="2.8287001"
     ry="0.050000001"
     id="rect54"
     style="fill:currentColor" />
  <rect
     x="75.228416"
     y="3.4841728"
     width="0.1514"
     height="2.6205001"
     ry="0.050000001"
     id="rect56"
     style="fill:currentColor" />
  <path
     d="m 73.420914,7.5919728 c -0.048,0 -0.084,-0.036 -0.084,-0.084 v -0.552 l -0.316,0.12 v 0.9 c 0,0.052 0.02,0.076 0.052,0.076 0.068,0 0.196,-0.092 0.308,-0.156 0.04,-0.024 0.084,0.02 0.056,0.06 -0.204,0.288 -0.332,0.616 -0.464,0.944 -0.008,0.016 -0.024,0.024 -0.036,0.024 -0.012,0 -0.024,-0.008 -0.032,-0.024 -0.132,-0.328 -0.26,-0.656 -0.464,-0.944 -0.004,-0.008 -0.008,-0.016 -0.008,-0.024 0,-0.032 0.032,-0.056 0.064,-0.036 0.112,0.064 0.24,0.156 0.308,0.156 0.032,0 0.048,-0.024 0.048,-0.076 v -0.836 l -0.088,0.032 c -0.012,0.004 -0.024,0.008 -0.036,0.008 -0.052,0 -0.1,-0.044 -0.1,-0.1 v -0.216 c 0,-0.04 0.024,-0.08 0.064,-0.096 l 0.16,-0.06 v -0.62 l -0.088,0.036 c -0.012,0.004 -0.024,0.004 -0.036,0.004 -0.052,0 -0.1,-0.044 -0.1,-0.1 v -0.216 c 0,-0.04 0.024,-0.076 0.064,-0.092 l 0.16,-0.06 v -0.616 c 0,-0.048 0.036,-0.084 0.084,-0.084 0.048,0 0.084,0.036 0.084,0.084 v 0.552 l 0.316,-0.12 v -0.616 c 0,-0.048 0.036,-0.084 0.084,-0.084 0.048,0 0.084,0.036 0.084,0.084 v 0.552 l 0.088,-0.032 c 0.012,-0.004 0.024,-0.008 0.036,-0.008 0.052,0 0.1,0.044 0.1,0.1 v 0.216 c 0,0.04 -0.024,0.08 -0.064,0.096 l -0.16,0.06 v 0.62 l 0.088,-0.036 c 0.012,-0.004 0.024,-0.004 0.036,-0.004 0.052,0 0.1,0.044 0.1,0.1 v 0.216 c 0,0.04 -0.024,0.076 -0.064,0.092 l -0.16,0.06 v 0.616 c 0,0.048 -0.036,0.084 -0.084,0.084 z m -0.4,-1.564 v 0.616 l 0.316,-0.12 v -0.616 z"
     id="path58"
     inkscape:connector-curvature="0"
     style="fill:currentColor" />
  <polygon
     transform="translate(21.584614,3.7759728)"
     points="0.05,-0.3 4.5483,-0.3 4.5483,0.3 0.05,0.3 "
     id="polygon60"
     style="fill:currentColor;stroke:currentColor;stroke-width:0.1;stroke-linecap:round;stroke-linejoin:round" />
  <path
     d="m 79.780314,5.7239728 c 0.236,0 0.452,0.124 0.452,0.38 0,0.284 -0.208,0.48 -0.396,0.592 -0.136,0.084 -0.292,0.132 -0.452,0.132 -0.236,0 -0.452,-0.124 -0.452,-0.38 0,-0.284 0.212,-0.48 0.4,-0.592 0.136,-0.084 0.288,-0.132 0.448,-0.132 z"
     id="path62"
     inkscape:connector-curvature="0"
     style="fill:currentColor" />
  <rect
     x="80.081711"
     y="3.4841728"
     width="0.1514"
     height="2.6205001"
     ry="0.050000001"
     id="rect64"
     style="fill:currentColor" />
  <path
     d="m 78.274314,7.5919728 c -0.048,0 -0.084,-0.036 -0.084,-0.084 v -0.552 l -0.316,0.12 v 0.616 c 0,0.048 -0.036,0.084 -0.084,0.084 -0.048,0 -0.084,-0.036 -0.084,-0.084 v -0.552 l -0.088,0.032 c -0.012,0.004 -0.024,0.008 -0.036,0.008 -0.052,0 -0.1,-0.044 -0.1,-0.1 v -0.216 c 0,-0.04 0.024,-0.08 0.064,-0.096 l 0.16,-0.06 v -0.62 l -0.088,0.036 c -0.012,0.004 -0.024,0.004 -0.036,0.004 -0.052,0 -0.1,-0.044 -0.1,-0.1 v -0.216 c 0,-0.04 0.024,-0.076 0.064,-0.092 l 0.16,-0.06 v -0.616 c 0,-0.048 0.036,-0.084 0.084,-0.084 0.048,0 0.084,0.036 0.084,0.084 v 0.552 l 0.316,-0.12 v -0.616 c 0,-0.048 0.036,-0.084 0.084,-0.084 0.048,0 0.084,0.036 0.084,0.084 v 0.552 l 0.088,-0.032 c 0.012,-0.004 0.024,-0.008 0.036,-0.008 0.052,0 0.1,0.044 0.1,0.1 v 0.216 c 0,0.04 -0.024,0.08 -0.064,0.096 l -0.16,0.06 v 0.62 l 0.088,-0.036 c 0.012,-0.004 0.024,-0.004 0.036,-0.004 0.052,0 0.1,0.044 0.1,0.1 v 0.216 c 0,0.04 -0.024,0.076 -0.064,0.092 l -0.16,0.06 v 0.616 c 0,0.048 -0.036,0.084 -0.084,0.084 z m -0.4,-1.564 v 0.616 l 0.316,-0.12 v -0.616 z"
     id="path66"
     inkscape:connector-curvature="0"
     style="fill:currentColor" />
  <path
     d="m 74.926914,5.7239728 c 0.236,0 0.452,0.124 0.452,0.38 0,0.284 -0.208,0.48 -0.396,0.592 -0.136,0.084 -0.292,0.132 -0.452,0.132 -0.236,0 -0.452,-0.124 -0.452,-0.38 0,-0.284 0.212,-0.48 0.4,-0.592 0.136,-0.084 0.288,-0.132 0.448,-0.132 z"
     id="path68"
     inkscape:connector-curvature="0"
     style="fill:currentColor" />
  <path
     d="m 84.633614,5.7239728 c 0.236,0 0.452,0.124 0.452,0.38 0,0.284 -0.208,0.48 -0.396,0.592 -0.136,0.084 -0.292,0.132 -0.452,0.132 -0.236,0 -0.452,-0.124 -0.452,-0.38 0,-0.284 0.212,-0.48 0.4,-0.592 0.136,-0.084 0.288,-0.132 0.448,-0.132 z"
     id="path70"
     inkscape:connector-curvature="0"
     style="fill:currentColor" />
  <rect
     x="84.935013"
     y="3.4841728"
     width="0.1514"
     height="2.6205001"
     ry="0.050000001"
     id="rect72"
     style="fill:currentColor" />
  <path
     d="m 83.127614,7.5919728 c -0.048,0 -0.084,-0.036 -0.084,-0.084 v -0.552 l -0.316,0.12 v 0.616 c 0,0.048 -0.036,0.084 -0.084,0.084 -0.048,0 -0.084,-0.036 -0.084,-0.084 v -0.552 l -0.088,0.032 c -0.012,0.004 -0.024,0.008 -0.036,0.008 -0.052,0 -0.1,-0.044 -0.1,-0.1 v -0.216 c 0,-0.04 0.024,-0.08 0.064,-0.096 l 0.16,-0.06 v -0.62 l -0.088,0.036 c -0.012,0.004 -0.024,0.004 -0.036,0.004 -0.052,0 -0.1,-0.044 -0.1,-0.1 v -0.216 c 0,-0.04 0.024,-0.076 0.064,-0.092 l 0.16,-0.06 v -0.616 c 0,-0.048 0.036,-0.084 0.084,-0.084 0.048,0 0.084,0.036 0.084,0.084 v 0.552 l 0.316,-0.12 v -0.9 c 0,-0.052 -0.02,-0.076 -0.052,-0.076 -0.068,0 -0.196,0.092 -0.308,0.156 -0.04,0.024 -0.084,-0.02 -0.056,-0.06 0.204,-0.288 0.332,-0.616 0.464,-0.944 0.008,-0.016 0.024,-0.024 0.036,-0.024 0.012,0 0.024,0.008 0.032,0.024 0.132,0.328 0.26,0.656 0.464,0.944 0.004,0.008 0.008,0.016 0.008,0.024 0,0.032 -0.032,0.056 -0.064,0.036 -0.112,-0.064 -0.24,-0.156 -0.308,-0.156 -0.032,0 -0.048,0.024 -0.048,0.076 v 0.836 l 0.088,-0.032 c 0.012,-0.004 0.024,-0.008 0.036,-0.008 0.052,0 0.1,0.044 0.1,0.1 v 0.216 c 0,0.04 -0.024,0.08 -0.064,0.096 l -0.16,0.06 v 0.62 l 0.088,-0.036 c 0.012,-0.004 0.024,-0.004 0.036,-0.004 0.052,0 0.1,0.044 0.1,0.1 v 0.216 c 0,0.04 -0.024,0.076 -0.064,0.092 l -0.16,0.06 v 0.616 c 0,0.048 -0.036,0.084 -0.084,0.084 z m -0.4,-1.564 v 0.616 l 0.316,-0.12 v -0.616 z"
     id="path74"
     inkscape:connector-curvature="0"
     style="fill:currentColor" />
  <path
     d="m 89.986914,5.7239728 c 0.236,0 0.452,0.124 0.452,0.38 0,0.284 -0.208,0.48 -0.396,0.592 -0.136,0.084 -0.292,0.132 -0.452,0.132 -0.236,0 -0.452,-0.124 -0.452,-0.38 0,-0.284 0.212,-0.48 0.4,-0.592 0.136,-0.084 0.288,-0.132 0.448,-0.132 z"
     id="path76"
     inkscape:connector-curvature="0"
     style="fill:currentColor" />
  <rect
     x="90.288414"
     y="3.0629728"
     width="0.1514"
     height="3.0416999"
     ry="0.050000001"
     id="rect78"
     style="fill:currentColor" />
  <rect
     x="132.92012"
     y="2.4841728"
     width="0.1514"
     height="2.6205001"
     ry="0.050000001"
     id="rect80"
     style="fill:currentColor" />
  <path
     d="m 132.61871,4.7239728 c 0.236,0 0.452,0.124 0.452,0.38 0,0.284 -0.208,0.48 -0.396,0.592 -0.136,0.084 -0.292,0.132 -0.452,0.132 -0.236,0 -0.452,-0.124 -0.452,-0.38 0,-0.284 0.212,-0.48 0.4,-0.592 0.136,-0.084 0.288,-0.132 0.448,-0.132 z"
     id="path82"
     inkscape:connector-curvature="0"
     style="fill:currentColor" />
  <path
     d="m 126.29931,6.5239728 c 0,0.048 -0.036,0.08 -0.084,0.08 -0.048,0 -0.08,-0.032 -0.08,-0.08 v -0.448 l -0.116,0.068 c -0.016,0.008 -0.036,0.016 -0.052,0.016 -0.052,0 -0.1,-0.044 -0.1,-0.104 v -0.216 c 0,-0.036 0.016,-0.064 0.048,-0.084 l 0.22,-0.132 v -0.6 l -0.116,0.068 c -0.016,0.008 -0.036,0.016 -0.052,0.016 -0.052,0 -0.1,-0.04 -0.1,-0.1 v -0.216 c 0,-0.036 0.016,-0.068 0.048,-0.088 l 0.22,-0.128 v -0.548 c 0,-0.048 0.032,-0.08 0.08,-0.08 0.048,0 0.084,0.032 0.084,0.08 v 0.448 l 0.116,-0.068 c 0.016,-0.008 0.036,-0.016 0.052,-0.016 0.052,0 0.1,0.044 0.1,0.104 v 0.216 c 0,0.036 -0.016,0.064 -0.048,0.084 l -0.22,0.132 v 0.6 l 0.116,-0.068 c 0.016,-0.008 0.036,-0.016 0.052,-0.016 0.052,0 0.1,0.04 0.1,0.1 v 0.216 c 0,0.036 -0.016,0.068 -0.048,0.088 l -0.22,0.128 v 0.548 z"
     id="path84"
     inkscape:connector-curvature="0"
     style="fill:currentColor" />
  <rect
     x="128.06682"
     y="2.4841728"
     width="0.1514"
     height="2.6205001"
     ry="0.050000001"
     id="rect86"
     style="fill:currentColor" />
  <path
     d="m 127.76531,4.7239728 c 0.236,0 0.452,0.124 0.452,0.38 0,0.284 -0.208,0.48 -0.396,0.592 -0.136,0.084 -0.292,0.132 -0.452,0.132 -0.236,0 -0.452,-0.124 -0.452,-0.38 0,-0.284 0.212,-0.48 0.4,-0.592 0.136,-0.084 0.288,-0.132 0.448,-0.132 z"
     id="path88"
     inkscape:connector-curvature="0"
     style="fill:currentColor" />
  <path
     d="m 121.99641,4.4519728 h 0.016 c 0.04,0 0.076,0.032 0.076,0.072 l 0.032,2.252 c -0.032,0.02 -0.072,0.028 -0.108,0.028 -0.036,0 -0.072,-0.008 -0.104,-0.028 l 0.008,-0.768 -0.404,0.092 h -0.016 c -0.04,0 -0.076,-0.032 -0.076,-0.072 -0.004,-0.82 -0.012,-1.636 -0.016,-2.456 0,-0.052 -0.02,-0.072 -0.052,-0.072 -0.068,0 -0.192,0.092 -0.304,0.156 -0.008,0.004 -0.016,0.008 -0.024,0.008 -0.024,0 -0.048,-0.024 -0.048,-0.048 0,-0.008 0,-0.02 0.008,-0.028 0.2,-0.288 0.344,-0.608 0.476,-0.936 0.008,-0.016 0.02,-0.024 0.036,-0.024 0.016,0 0.028,0.008 0.036,0.024 0.132,0.328 0.272,0.648 0.472,0.936 0.008,0.008 0.008,0.02 0.008,0.028 0,0.024 -0.02,0.048 -0.044,0.048 -0.008,0 -0.016,-0.004 -0.024,-0.008 -0.112,-0.064 -0.24,-0.156 -0.308,-0.156 -0.032,0 -0.052,0.02 -0.052,0.072 -0.004,0.324 0,0.648 -0.004,0.972 z m -0.064,0.384 -0.356,0.08 -0.004,0.8 0.352,-0.076 z"
     id="path90"
     inkscape:connector-curvature="0"
     style="fill:currentColor" />
  <path
     d="m 131.11271,6.5919728 c -0.048,0 -0.084,-0.036 -0.084,-0.084 v -0.552 l -0.316,0.12 v 0.9 c 0,0.052 0.02,0.076 0.052,0.076 0.068,0 0.196,-0.092 0.308,-0.156 0.04,-0.024 0.084,0.02 0.056,0.06 -0.204,0.288 -0.332,0.616 -0.464,0.944 -0.008,0.016 -0.024,0.024 -0.036,0.024 -0.012,0 -0.024,-0.008 -0.032,-0.024 -0.132,-0.328 -0.26,-0.656 -0.464,-0.944 -0.004,-0.008 -0.008,-0.016 -0.008,-0.024 0,-0.032 0.032,-0.056 0.064,-0.036 0.112,0.064 0.24,0.156 0.308,0.156 0.032,0 0.048,-0.024 0.048,-0.076 v -0.836 l -0.088,0.032 c -0.012,0.004 -0.024,0.008 -0.036,0.008 -0.052,0 -0.1,-0.044 -0.1,-0.1 v -0.216 c 0,-0.04 0.024,-0.08 0.064,-0.096 l 0.16,-0.06 v -0.62 l -0.088,0.036 c -0.012,0.004 -0.024,0.004 -0.036,0.004 -0.052,0 -0.1,-0.044 -0.1,-0.1 v -0.216 c 0,-0.04 0.024,-0.076 0.064,-0.092 l 0.16,-0.06 v -0.616 c 0,-0.048 0.036,-0.084 0.084,-0.084 0.048,0 0.084,0.036 0.084,0.084 v 0.552 l 0.316,-0.12 v -0.616 c 0,-0.048 0.036,-0.084 0.084,-0.084 0.048,0 0.084,0.036 0.084,0.084 v 0.552 l 0.088,-0.032 c 0.012,-0.004 0.024,-0.008 0.036,-0.008 0.052,0 0.1,0.044 0.1,0.1 v 0.216 c 0,0.04 -0.024,0.08 -0.064,0.096 l -0.16,0.06 v 0.62 l 0.088,-0.036 c 0.012,-0.004 0.024,-0.004 0.036,-0.004 0.052,0 0.1,0.044 0.1,0.1 v 0.216 c 0,0.04 -0.024,0.076 -0.064,0.092 l -0.16,0.06 v 0.616 c 0,0.048 -0.036,0.084 -0.084,0.084 z m -0.4,-1.564 v 0.616 l 0.316,-0.12 v -0.616 z"
     id="path92"
     inkscape:connector-curvature="0"
     style="fill:currentColor" />
  <polygon
     transform="translate(128.06681,2.4841728)"
     points="0.05,-0.3 4.9547,-0.3 4.9547,0.3 0.05,0.3 "
     id="polygon94"
     style="fill:currentColor;stroke:currentColor;stroke-width:0.1;stroke-linecap:round;stroke-linejoin:round" />
  <polygon
     transform="translate(119.16661,2.4841728)"
     points="0.05,-0.3 4.5483,-0.3 4.5483,0.3 0.05,0.3 "
     id="polygon96"
     style="fill:currentColor;stroke:currentColor;stroke-width:0.1;stroke-linecap:round;stroke-linejoin:round" />
  <polygon
     transform="translate(110.28881,2.7759728)"
     points="0.05,-0.3 4.5322,-0.5918 4.5322,0.0082 0.05,0.3 "
     id="polygon98"
     style="fill:currentColor;stroke:currentColor;stroke-width:0.1;stroke-linecap:round;stroke-linejoin:round" />
  <polygon
     transform="translate(101.38861,2.7759728)"
     points="0.05,-0.3 4.5483,-0.3 4.5483,0.3 0.05,0.3 "
     id="polygon100"
     style="fill:currentColor;stroke:currentColor;stroke-width:0.1;stroke-linecap:round;stroke-linejoin:round" />
  <polygon
     transform="translate(90.288414,3.0677728)"
     points="0.05,-0.3 4.5322,-0.5918 4.5322,0.0082 0.05,0.3 "
     id="polygon102"
     style="fill:currentColor;stroke:currentColor;stroke-width:0.1;stroke-linecap:round;stroke-linejoin:round" />
  <polygon
     transform="translate(80.081714,3.4841728)"
     points="0.05,-0.3 4.9547,-0.3 4.9547,0.3 0.05,0.3 "
     id="polygon104"
     style="fill:currentColor;stroke:currentColor;stroke-width:0.1;stroke-linecap:round;stroke-linejoin:round" />
  <polygon
     transform="translate(70.375114,3.4841728)"
     points="0.05,-0.3 4.9547,-0.3 4.9547,0.3 0.05,0.3 "
     id="polygon106"
     style="fill:currentColor;stroke:currentColor;stroke-width:0.1;stroke-linecap:round;stroke-linejoin:round" />
  <polygon
     transform="translate(61.474814,3.4841728)"
     points="0.05,-0.3 4.5483,-0.3 4.5483,0.3 0.05,0.3 "
     id="polygon108"
     style="fill:currentColor;stroke:currentColor;stroke-width:0.1;stroke-linecap:round;stroke-linejoin:round" />
  <polygon
     transform="translate(50.398114,3.7759728)"
     points="0.05,-0.3 4.5322,-0.5918 4.5322,0.0082 0.05,0.3 "
     id="polygon110"
     style="fill:currentColor;stroke:currentColor;stroke-width:0.1;stroke-linecap:round;stroke-linejoin:round" />
  <polygon
     transform="translate(40.191514,3.7759728)"
     points="0.05,-0.3 4.9547,-0.3 4.9547,0.3 0.05,0.3 "
     id="polygon112"
     style="fill:currentColor;stroke:currentColor;stroke-width:0.1;stroke-linecap:round;stroke-linejoin:round" />
  <polygon
     transform="translate(30.484814,3.7759728)"
     points="0.05,-0.3 4.9547,-0.3 4.9547,0.3 0.05,0.3 "
     id="polygon114"
     style="fill:currentColor;stroke:currentColor;stroke-width:0.1;stroke-linecap:round;stroke-linejoin:round" />
  <path
     d="m 104.21841,4.9519728 h 0.016 c 0.04,0 0.076,0.032 0.076,0.072 l 0.032,2.252 c -0.032,0.02 -0.072,0.028 -0.108,0.028 -0.036,0 -0.072,-0.008 -0.104,-0.028 l 0.008,-0.768 -0.404,0.092 h -0.016 c -0.04,0 -0.076,-0.032 -0.076,-0.072 -0.004,-0.82 -0.012,-1.636 -0.016,-2.456 0,-0.052 -0.02,-0.072 -0.052,-0.072 -0.068,0 -0.192,0.092 -0.304,0.156 -0.008,0.004 -0.016,0.008 -0.024,0.008 -0.024,0 -0.048,-0.024 -0.048,-0.048 0,-0.008 0,-0.02 0.008,-0.028 0.2,-0.288 0.344,-0.608 0.476,-0.936 0.008,-0.016 0.02,-0.024 0.036,-0.024 0.016,0 0.028,0.008 0.036,0.024 0.132,0.328 0.272,0.648 0.472,0.936 0.008,0.008 0.008,0.02 0.008,0.028 0,0.024 -0.02,0.048 -0.044,0.048 -0.008,0 -0.016,-0.004 -0.024,-0.008 -0.112,-0.064 -0.24,-0.156 -0.308,-0.156 -0.032,0 -0.052,0.02 -0.052,0.072 -0.004,0.324 0,0.648 -0.004,0.972 z m -0.064,0.384 -0.356,0.08 -0.004,0.8 0.352,-0.076 z"
     id="path116"
     inkscape:connector-curvature="0"
     style="fill:currentColor" />
  <path
     d="m 109.98731,5.2239728 c 0.236,0 0.452,0.124 0.452,0.38 0,0.284 -0.208,0.48 -0.396,0.592 -0.136,0.084 -0.292,0.132 -0.452,0.132 -0.236,0 -0.452,-0.124 -0.452,-0.38 0,-0.284 0.212,-0.48 0.4,-0.592 0.136,-0.084 0.288,-0.132 0.448,-0.132 z"
     id="path118"
     inkscape:connector-curvature="0"
     style="fill:currentColor" />
  <rect
     x="110.28881"
     y="2.7711728"
     width="0.1514"
     height="2.8334999"
     ry="0.050000001"
     id="rect120"
     style="fill:currentColor" />
  <path
     d="m 108.52131,7.0239728 c 0,0.048 -0.036,0.08 -0.084,0.08 -0.048,0 -0.08,-0.032 -0.08,-0.08 v -0.448 l -0.116,0.068 c -0.016,0.008 -0.036,0.016 -0.052,0.016 -0.052,0 -0.1,-0.044 -0.1,-0.104 v -0.216 c 0,-0.036 0.016,-0.064 0.048,-0.084 l 0.22,-0.132 v -0.6 l -0.116,0.068 c -0.016,0.008 -0.036,0.016 -0.052,0.016 -0.052,0 -0.1,-0.04 -0.1,-0.1 v -0.216 c 0,-0.036 0.016,-0.068 0.048,-0.088 l 0.22,-0.128 v -0.548 c 0,-0.048 0.032,-0.08 0.08,-0.08 0.048,0 0.084,0.032 0.084,0.08 v 0.448 l 0.116,-0.068 c 0.016,-0.008 0.036,-0.016 0.052,-0.016 0.052,0 0.1,0.044 0.1,0.104 v 0.216 c 0,0.036 -0.016,0.064 -0.048,0.084 l -0.22,0.132 v 0.6 l 0.116,-0.068 c 0.016,-0.008 0.036,-0.016 0.052,-0.016 0.052,0 0.1,0.04 0.1,0.1 v 0.216 c 0,0.036 -0.016,0.068 -0.048,0.088 l -0.22,0.128 v 0.548 z"
     id="path122"
     inkscape:connector-curvature="0"
     style="fill:currentColor" />
  <path
     d="m 114.41821,4.7239728 c 0.236,0 0.452,0.124 0.452,0.38 0,0.284 -0.208,0.48 -0.396,0.592 -0.136,0.084 -0.292,0.132 -0.452,0.132 -0.236,0 -0.452,-0.124 -0.452,-0.38 0,-0.284 0.212,-0.48 0.4,-0.592 0.136,-0.084 0.288,-0.132 0.448,-0.132 z"
     id="path124"
     inkscape:connector-curvature="0"
     style="fill:currentColor" />
  <rect
     x="114.71961"
     y="2.4889729"
     width="0.1514"
     height="2.6156001"
     ry="0.050000001"
     id="rect126"
     style="fill:currentColor" />
  <path
     d="m 112.51071,3.7759728 c 0.032,-0.02 0.072,-0.028 0.108,-0.028 0.036,0 0.072,0.008 0.104,0.028 l -0.012,0.768 0.408,-0.092 h 0.016 c 0.04,0 0.076,0.032 0.076,0.072 0.004,0.82 0.012,1.636 0.016,2.456 0,0.052 0.02,0.072 0.052,0.072 0.068,0 0.192,-0.092 0.304,-0.156 0.008,-0.004 0.016,-0.008 0.024,-0.008 0.024,0 0.048,0.024 0.048,0.048 0,0.008 0,0.02 -0.008,0.028 -0.2,0.288 -0.344,0.608 -0.476,0.936 -0.008,0.016 -0.02,0.024 -0.036,0.024 -0.016,0 -0.028,-0.008 -0.036,-0.024 -0.132,-0.328 -0.272,-0.648 -0.472,-0.936 -0.008,-0.008 -0.012,-0.02 -0.012,-0.028 0,-0.024 0.024,-0.048 0.048,-0.048 0.008,0 0.016,0.004 0.024,0.008 0.112,0.064 0.236,0.156 0.304,0.156 0.032,0 0.052,-0.02 0.052,-0.072 0.004,-0.324 0.004,-0.648 0.008,-0.972 l -0.416,0.092 h -0.016 c -0.04,0 -0.076,-0.032 -0.076,-0.072 z m 0.548,1.06 -0.352,0.076 -0.012,0.804 0.36,-0.08 z"
     id="path128"
     inkscape:connector-curvature="0"
     style="fill:currentColor" />
  <path
     d="m 118.86511,4.7239728 c 0.236,0 0.452,0.124 0.452,0.38 0,0.284 -0.208,0.48 -0.396,0.592 -0.136,0.084 -0.292,0.132 -0.452,0.132 -0.236,0 -0.452,-0.124 -0.452,-0.38 0,-0.284 0.212,-0.48 0.4,-0.592 0.136,-0.084 0.288,-0.132 0.448,-0.132 z"
     id="path130"
     inkscape:connector-curvature="0"
     style="fill:currentColor" />
  <rect
     x="119.16651"
     y="2.4841728"
     width="0.1514"
     height="2.6205001"
     ry="0.050000001"
     id="rect132"
     style="fill:currentColor" />
  <path
     d="m 116.94151,3.7759728 c 0.032,-0.02 0.072,-0.028 0.108,-0.028 0.036,0 0.072,0.008 0.104,0.028 l -0.012,0.768 0.408,-0.092 h 0.016 c 0.04,0 0.076,0.032 0.076,0.072 l 0.032,2.252 c -0.032,0.02 -0.072,0.028 -0.108,0.028 -0.036,0 -0.072,-0.008 -0.104,-0.028 l 0.008,-0.768 -0.404,0.092 h -0.016 c -0.04,0 -0.076,-0.032 -0.076,-0.072 z m 0.544,1.06 -0.348,0.076 -0.012,0.804 0.352,-0.076 z"
     id="path134"
     inkscape:connector-curvature="0"
     style="fill:currentColor" />
  <path
     d="m 123.31201,4.7239728 c 0.236,0 0.452,0.124 0.452,0.38 0,0.284 -0.208,0.48 -0.396,0.592 -0.136,0.084 -0.292,0.132 -0.452,0.132 -0.236,0 -0.452,-0.124 -0.452,-0.38 0,-0.284 0.212,-0.48 0.4,-0.592 0.136,-0.084 0.288,-0.132 0.448,-0.132 z"
     id="path136"
     inkscape:connector-curvature="0"
     style="fill:currentColor" />
  <rect
     x="123.61352"
     y="2.4841728"
     width="0.1514"
     height="2.6205001"
     ry="0.050000001"
     id="rect138"
     style="fill:currentColor" />
  <rect
     x="40.191414"
     y="3.7759728"
     width="0.1514"
     height="2.8287001"
     ry="0.050000001"
     id="rect140"
     style="fill:currentColor" />
  <path
     d="m 39.890014,6.2239728 c 0.236,0 0.452,0.124 0.452,0.38 0,0.284 -0.208,0.48 -0.396,0.592 -0.136,0.084 -0.292,0.132 -0.452,0.132 -0.236,0 -0.452,-0.124 -0.452,-0.38 0,-0.284 0.212,-0.48 0.4,-0.592 0.136,-0.084 0.288,-0.132 0.448,-0.132 z"
     id="path142"
     inkscape:connector-curvature="0"
     style="fill:currentColor" />
  <path
     d="m 33.530714,8.0919728 c -0.048,0 -0.084,-0.036 -0.084,-0.084 v -0.552 l -0.316,0.12 v 0.9 c 0,0.052 0.02,0.076 0.052,0.076 0.068,0 0.196,-0.092 0.308,-0.156 0.04,-0.024 0.084,0.02 0.056,0.06 -0.204,0.288 -0.332,0.616 -0.464,0.944 -0.008,0.016 -0.024,0.024 -0.036,0.024 -0.012,0 -0.024,-0.008 -0.032,-0.024 -0.132,-0.328 -0.26,-0.656 -0.464,-0.944 -0.004,-0.008 -0.008,-0.016 -0.008,-0.024 0,-0.032 0.032,-0.056 0.064,-0.036 0.112,0.064 0.24,0.156 0.308,0.156 0.032,0 0.048,-0.024 0.048,-0.076 v -0.836 l -0.088,0.032 c -0.012,0.004 -0.024,0.008 -0.036,0.008 -0.052,0 -0.1,-0.044 -0.1,-0.1 v -0.216 c 0,-0.04 0.024,-0.08 0.064,-0.096 l 0.16,-0.06 v -0.62 l -0.088,0.036 c -0.012,0.004 -0.024,0.004 -0.036,0.004 -0.052,0 -0.1,-0.044 -0.1,-0.1 v -0.216 c 0,-0.04 0.024,-0.076 0.064,-0.092 l 0.16,-0.06 v -0.616 c 0,-0.048 0.036,-0.084 0.084,-0.084 0.048,0 0.084,0.036 0.084,0.084 v 0.552 l 0.316,-0.12 v -0.616 c 0,-0.048 0.036,-0.084 0.084,-0.084 0.048,0 0.084,0.036 0.084,0.084 v 0.552 l 0.088,-0.032 c 0.012,-0.004 0.024,-0.008 0.036,-0.008 0.052,0 0.1,0.044 0.1,0.1 v 0.216 c 0,0.04 -0.024,0.08 -0.064,0.096 l -0.16,0.06 v 0.62 l 0.088,-0.036 c 0.012,-0.004 0.024,-0.004 0.036,-0.004 0.052,0 0.1,0.044 0.1,0.1 v 0.216 c 0,0.04 -0.024,0.076 -0.064,0.092 l -0.16,0.06 v 0.616 c 0,0.048 -0.036,0.084 -0.084,0.084 z m -0.4,-1.564 v 0.616 l 0.316,-0.12 v -0.616 z"
     id="path144"
     inkscape:connector-curvature="0"
     style="fill:currentColor" />
  <rect
     x="35.338116"
     y="3.7759728"
     width="0.1514"
     height="2.8287001"
     ry="0.050000001"
     id="rect146"
     style="fill:currentColor" />
  <path
     d="m 35.036714,6.2239728 c 0.236,0 0.452,0.124 0.452,0.38 0,0.284 -0.208,0.48 -0.396,0.592 -0.136,0.084 -0.292,0.132 -0.452,0.132 -0.236,0 -0.452,-0.124 -0.452,-0.38 0,-0.284 0.212,-0.48 0.4,-0.592 0.136,-0.084 0.288,-0.132 0.448,-0.132 z"
     id="path148"
     inkscape:connector-curvature="0"
     style="fill:currentColor" />
  <path
     d="m 28.717314,8.0239728 c 0,0.048 -0.036,0.08 -0.084,0.08 -0.048,0 -0.08,-0.032 -0.08,-0.08 v -0.448 l -0.116,0.068 c -0.016,0.008 -0.036,0.016 -0.052,0.016 -0.052,0 -0.1,-0.044 -0.1,-0.104 v -0.216 c 0,-0.036 0.016,-0.064 0.048,-0.084 l 0.22,-0.132 v -0.6 l -0.116,0.068 c -0.016,0.008 -0.036,0.016 -0.052,0.016 -0.052,0 -0.1,-0.04 -0.1,-0.1 v -0.216 c 0,-0.036 0.016,-0.068 0.048,-0.088 l 0.22,-0.128 v -0.548 c 0,-0.048 0.032,-0.08 0.08,-0.08 0.048,0 0.084,0.032 0.084,0.08 v 0.448 l 0.116,-0.068 c 0.016,-0.008 0.036,-0.016 0.052,-0.016 0.052,0 0.1,0.044 0.1,0.104 v 0.216 c 0,0.036 -0.016,0.064 -0.048,0.084 l -0.22,0.132 v 0.6 l 0.116,-0.068 c 0.016,-0.008 0.036,-0.016 0.052,-0.016 0.052,0 0.1,0.04 0.1,0.1 v 0.216 c 0,0.036 -0.016,0.068 -0.048,0.088 l -0.22,0.128 v 0.548 z"
     id="path150"
     inkscape:connector-curvature="0"
     style="fill:currentColor" />
  <path
     d="m 38.384014,8.0919728 c -0.048,0 -0.084,-0.036 -0.084,-0.084 v -0.552 l -0.316,0.12 v 0.616 c 0,0.048 -0.036,0.084 -0.084,0.084 -0.048,0 -0.084,-0.036 -0.084,-0.084 v -0.552 l -0.088,0.032 c -0.012,0.004 -0.024,0.008 -0.036,0.008 -0.052,0 -0.1,-0.044 -0.1,-0.1 v -0.216 c 0,-0.04 0.024,-0.08 0.064,-0.096 l 0.16,-0.06 v -0.62 l -0.088,0.036 c -0.012,0.004 -0.024,0.004 -0.036,0.004 -0.052,0 -0.1,-0.044 -0.1,-0.1 v -0.216 c 0,-0.04 0.024,-0.076 0.064,-0.092 l 0.16,-0.06 v -0.616 c 0,-0.048 0.036,-0.084 0.084,-0.084 0.048,0 0.084,0.036 0.084,0.084 v 0.552 l 0.316,-0.12 v -0.616 c 0,-0.048 0.036,-0.084 0.084,-0.084 0.048,0 0.084,0.036 0.084,0.084 v 0.552 l 0.088,-0.032 c 0.012,-0.004 0.024,-0.008 0.036,-0.008 0.052,0 0.1,0.044 0.1,0.1 v 0.216 c 0,0.04 -0.024,0.08 -0.064,0.096 l -0.16,0.06 v 0.62 l 0.088,-0.036 c 0.012,-0.004 0.024,-0.004 0.036,-0.004 0.052,0 0.1,0.044 0.1,0.1 v 0.216 c 0,0.04 -0.024,0.076 -0.064,0.092 l -0.16,0.06 v 0.616 c 0,0.048 -0.036,0.084 -0.084,0.084 z m -0.4,-1.564 v 0.616 l 0.316,-0.12 v -0.616 z"
     id="path152"
     inkscape:connector-curvature="0"
     style="fill:currentColor" />
  <path
     d="m 44.743314,6.2239728 c 0.236,0 0.452,0.124 0.452,0.38 0,0.284 -0.208,0.48 -0.396,0.592 -0.136,0.084 -0.292,0.132 -0.452,0.132 -0.236,0 -0.452,-0.124 -0.452,-0.38 0,-0.284 0.212,-0.48 0.4,-0.592 0.136,-0.084 0.288,-0.132 0.448,-0.132 z"
     id="path154"
     inkscape:connector-curvature="0"
     style="fill:currentColor" />
  <rect
     x="45.044815"
     y="3.7759728"
     width="0.1514"
     height="2.8287001"
     ry="0.050000001"
     id="rect156"
     style="fill:currentColor" />
  <path
     d="m 43.237314,8.0919728 c -0.048,0 -0.084,-0.036 -0.084,-0.084 v -0.552 l -0.316,0.12 v 0.616 c 0,0.048 -0.036,0.084 -0.084,0.084 -0.048,0 -0.084,-0.036 -0.084,-0.084 v -0.552 l -0.088,0.032 c -0.012,0.004 -0.024,0.008 -0.036,0.008 -0.052,0 -0.1,-0.044 -0.1,-0.1 v -0.216 c 0,-0.04 0.024,-0.08 0.064,-0.096 l 0.16,-0.06 v -0.62 l -0.088,0.036 c -0.012,0.004 -0.024,0.004 -0.036,0.004 -0.052,0 -0.1,-0.044 -0.1,-0.1 v -0.216 c 0,-0.04 0.024,-0.076 0.064,-0.092 l 0.16,-0.06 v -0.616 c 0,-0.048 0.036,-0.084 0.084,-0.084 0.048,0 0.084,0.036 0.084,0.084 v 0.552 l 0.316,-0.12 v -0.9 c 0,-0.052 -0.02,-0.076 -0.052,-0.076 -0.068,0 -0.196,0.092 -0.308,0.156 -0.04,0.024 -0.084,-0.02 -0.056,-0.06 0.204,-0.288 0.332,-0.616 0.464,-0.944 0.008,-0.016 0.024,-0.024 0.036,-0.024 0.012,0 0.024,0.008 0.032,0.024 0.132,0.328 0.26,0.656 0.464,0.944 0.004,0.008 0.008,0.016 0.008,0.024 0,0.032 -0.032,0.056 -0.064,0.036 -0.112,-0.064 -0.24,-0.156 -0.308,-0.156 -0.032,0 -0.048,0.024 -0.048,0.076 v 0.836 l 0.088,-0.032 c 0.012,-0.004 0.024,-0.008 0.036,-0.008 0.052,0 0.1,0.044 0.1,0.1 v 0.216 c 0,0.04 -0.024,0.08 -0.064,0.096 l -0.16,0.06 v 0.62 l 0.088,-0.036 c 0.012,-0.004 0.024,-0.004 0.036,-0.004 0.052,0 0.1,0.044 0.1,0.1 v 0.216 c 0,0.04 -0.024,0.076 -0.064,0.092 l -0.16,0.06 v 0.616 c 0,0.048 -0.036,0.084 -0.084,0.084 z m -0.4,-1.564 v 0.616 l 0.316,-0.12 v -0.616 z"
     id="path158"
     inkscape:connector-curvature="0"
     style="fill:currentColor" />
  <path
     d="m 21.283114,6.2239728 c 0.236,0 0.452,0.124 0.452,0.38 0,0.284 -0.208,0.48 -0.396,0.592 -0.136,0.084 -0.292,0.132 -0.452,0.132 -0.236,0 -0.452,-0.124 -0.452,-0.38 0,-0.284 0.212,-0.48 0.4,-0.592 0.136,-0.084 0.288,-0.132 0.448,-0.132 z"
     id="path160"
     inkscape:connector-curvature="0"
     style="fill:currentColor" />
  <path
     d="m 14.068214,3.7199728 c 0.012,0 0.028,-0.004 0.04,-0.004 0.628,0 1.032,0.516 1.032,1.052 0,0.308 -0.132,0.62 -0.432,0.844 -0.088,0.064 -0.184,0.116 -0.288,0.148 0.012,0.132 0.016,0.264 0.016,0.396 0,0.084 0,0.164 -0.004,0.248 -0.028,0.484 -0.364,0.916 -0.844,0.916 -0.432,0 -0.784,-0.352 -0.784,-0.788 0,-0.232 0.216,-0.412 0.452,-0.412 0.216,0 0.38,0.188 0.38,0.412 0,0.208 -0.172,0.38 -0.38,0.38 -0.036,0 -0.072,-0.004 -0.108,-0.016 0.1,0.148 0.264,0.244 0.452,0.244 0.38,0 0.624,-0.372 0.648,-0.764 0.004,-0.076 0.008,-0.152 0.008,-0.228 0,-0.116 -0.004,-0.232 -0.012,-0.348 -0.116,0.02 -0.232,0.032 -0.352,0.032 -0.756,0 -1.332,-0.692 -1.332,-1.504 0,-0.708 0.516,-1.232 0.976,-1.772 -0.08,-0.248 -0.16,-0.496 -0.192,-0.756 -0.028,-0.208 -0.028,-0.42 -0.028,-0.632 0,-0.45599997 0.216,-0.88399997 0.588,-1.15199997 0.016,-0.012 0.032,-0.01600000111 0.048,-0.01600000111 0.02,0 0.036,0.0080000011 0.052,0.02000000111 0.288,0.332 0.54,0.972 0.54,1.42399997 0,0.568 -0.336,1.02 -0.704,1.456 0.084,0.272 0.16,0.544 0.228,0.82 z m 0.336,1.86 c 0.26,-0.096 0.44,-0.376 0.44,-0.644 0,-0.352 -0.256,-0.7 -0.668,-0.752 0.096,0.456 0.176,0.908 0.228,1.396 z m -1.544,-0.904 c 0,0.532 0.512,0.972 1.044,0.972 0.108,0 0.22,-0.004 0.324,-0.02 -0.052,-0.504 -0.14,-0.976 -0.24,-1.448 -0.316,0.032 -0.496,0.24 -0.496,0.472 0,0.172 0.1,0.352 0.32,0.48 0.02,0.02 0.028,0.044 0.028,0.068 0,0.048 -0.04,0.092 -0.092,0.092 -0.012,0 -0.028,-0.004 -0.04,-0.008 -0.324,-0.172 -0.472,-0.46 -0.472,-0.744 0,-0.356 0.24,-0.708 0.652,-0.8 -0.056,-0.228 -0.12,-0.452 -0.188,-0.676 -0.42,0.488 -0.84,0.972 -0.84,1.612 z m 1.304,-4.05199997 c -0.396,0.184 -0.644,0.57999997 -0.644,1.01599997 0,0.284 0.084,0.52 0.156,0.752 0.312,-0.388 0.568,-0.796 0.568,-1.296 0,-0.20399997 -0.016,-0.28799997 -0.08,-0.47199997 z"
     id="path162"
     inkscape:connector-curvature="0"
     style="fill:currentColor" />
  <path
     d="m 18.176214,3.6559728 c -0.192,0 -0.288,-0.16 -0.288,-0.288 0,-0.148 0.104,-0.3 0.28,-0.3 0.012,0 0.024,0.004 0.036,0.004 -0.104,-0.144 -0.268,-0.236 -0.452,-0.236 -0.428,0 -0.452,0.296 -0.452,0.756 0,0.06 0.004,0.12 0.004,0.184 0,0.064 -0.004,0.124 -0.004,0.184 0,0.46 0.024,0.756 0.452,0.756 0.312,0 0.532,-0.28 0.604,-0.596 0.008,-0.032 0.032,-0.044 0.056,-0.044 0.028,0 0.06,0.02 0.06,0.056 0,0.38 -0.412,0.704 -0.72,0.704 -0.272,0 -0.548,-0.08 -0.736,-0.28 -0.196,-0.208 -0.264,-0.496 -0.264,-0.78 0,-0.284 0.068,-0.572 0.264,-0.78 0.188,-0.2 0.464,-0.28 0.736,-0.28 0.344,0 0.624,0.268 0.684,0.612 0.004,0.016 0.004,0.036 0.004,0.052 0,0.152 -0.12,0.276 -0.264,0.276 z"
     id="path164"
     inkscape:connector-curvature="0"
     style="fill:currentColor" />
  <rect
     x="21.584515"
     y="3.7759728"
     width="0.1514"
     height="2.8287001"
     ry="0.050000001"
     id="rect166"
     style="fill:currentColor" />
  <path
     d="m 25.730014,6.2239728 c 0.236,0 0.452,0.124 0.452,0.38 0,0.284 -0.208,0.48 -0.396,0.592 -0.136,0.084 -0.292,0.132 -0.452,0.132 -0.236,0 -0.452,-0.124 -0.452,-0.38 0,-0.284 0.212,-0.48 0.4,-0.592 0.136,-0.084 0.288,-0.132 0.448,-0.132 z"
     id="path168"
     inkscape:connector-curvature="0"
     style="fill:currentColor" />
  <rect
     x="26.031513"
     y="3.7759728"
     width="0.1514"
     height="2.8287001"
     ry="0.050000001"
     id="rect170"
     style="fill:currentColor" />
  <path
     d="m 24.414414,5.9519728 h 0.016 c 0.04,0 0.076,0.032 0.076,0.072 l 0.032,2.252 c -0.032,0.02 -0.072,0.028 -0.108,0.028 -0.036,0 -0.072,-0.008 -0.104,-0.028 l 0.008,-0.768 -0.404,0.092 h -0.016 c -0.04,0 -0.076,-0.032 -0.076,-0.072 -0.004,-0.82 -0.012,-1.636 -0.016,-2.456 0,-0.052 -0.02,-0.072 -0.052,-0.072 -0.068,0 -0.192,0.092 -0.304,0.156 -0.008,0.004 -0.016,0.008 -0.024,0.008 -0.024,0 -0.048,-0.024 -0.048,-0.048 0,-0.008 0,-0.02 0.008,-0.028 0.2,-0.288 0.344,-0.608 0.476,-0.936 0.008,-0.016 0.02,-0.024 0.036,-0.024 0.016,0 0.028,0.008 0.036,0.024 0.132,0.328 0.272,0.648 0.472,0.936 0.008,0.008 0.008,0.02 0.008,0.028 0,0.024 -0.02,0.048 -0.044,0.048 -0.008,0 -0.016,-0.004 -0.024,-0.008 -0.112,-0.064 -0.24,-0.156 -0.308,-0.156 -0.032,0 -0.052,0.02 -0.052,0.072 -0.004,0.324 0,0.648 -0.004,0.972 z m -0.064,0.384 -0.356,0.08 -0.004,0.8 0.352,-0.076 z"
     id="path172"
     inkscape:connector-curvature="0"
     style="fill:currentColor" />
  <path
     d="m 30.183314,6.2239728 c 0.236,0 0.452,0.124 0.452,0.38 0,0.284 -0.208,0.48 -0.396,0.592 -0.136,0.084 -0.292,0.132 -0.452,0.132 -0.236,0 -0.452,-0.124 -0.452,-0.38 0,-0.284 0.212,-0.48 0.4,-0.592 0.136,-0.084 0.288,-0.132 0.448,-0.132 z"
     id="path174"
     inkscape:connector-curvature="0"
     style="fill:currentColor" />
  <rect
     x="30.484814"
     y="3.7759728"
     width="0.1514"
     height="2.8287001"
     ry="0.050000001"
     id="rect176"
     style="fill:currentColor" />
  <path
     d="m 61.173314,5.7239728 c 0.236,0 0.452,0.124 0.452,0.38 0,0.284 -0.208,0.48 -0.396,0.592 -0.136,0.084 -0.292,0.132 -0.452,0.132 -0.236,0 -0.452,-0.124 -0.452,-0.38 0,-0.284 0.212,-0.48 0.4,-0.592 0.136,-0.084 0.288,-0.132 0.448,-0.132 z"
     id="path178"
     inkscape:connector-curvature="0"
     style="fill:currentColor" />
  <rect
     x="61.474815"
     y="3.4841728"
     width="0.1514"
     height="2.6205001"
     ry="0.050000001"
     id="rect180"
     style="fill:currentColor" />
  <path
     d="m 59.249714,4.7759728 c 0.032,-0.02 0.072,-0.028 0.108,-0.028 0.036,0 0.072,0.008 0.104,0.028 l -0.012,0.768 0.408,-0.092 h 0.016 c 0.04,0 0.076,0.032 0.076,0.072 l 0.032,2.252 c -0.032,0.02 -0.072,0.028 -0.108,0.028 -0.036,0 -0.072,-0.008 -0.104,-0.028 l 0.008,-0.768 -0.404,0.092 h -0.016 c -0.04,0 -0.076,-0.032 -0.076,-0.072 z m 0.544,1.06 -0.348,0.076 -0.012,0.804 0.352,-0.076 z"
     id="path182"
     inkscape:connector-curvature="0"
     style="fill:currentColor" />
  <path
     d="m 64.304714,5.4519728 h 0.016 c 0.04,0 0.076,0.032 0.076,0.072 l 0.032,2.252 c -0.032,0.02 -0.072,0.028 -0.108,0.028 -0.036,0 -0.072,-0.008 -0.104,-0.028 l 0.008,-0.768 -0.404,0.092 h -0.016 c -0.04,0 -0.076,-0.032 -0.076,-0.072 -0.004,-0.82 -0.012,-1.636 -0.016,-2.456 0,-0.052 -0.02,-0.072 -0.052,-0.072 -0.068,0 -0.192,0.092 -0.304,0.156 -0.008,0.004 -0.016,0.008 -0.024,0.008 -0.024,0 -0.048,-0.024 -0.048,-0.048 0,-0.008 0,-0.02 0.008,-0.028 0.2,-0.288 0.344,-0.608 0.476,-0.936 0.008,-0.016 0.02,-0.024 0.036,-0.024 0.016,0 0.028,0.008 0.036,0.024 0.132,0.328 0.272,0.648 0.472,0.936 0.008,0.008 0.008,0.02 0.008,0.028 0,0.024 -0.02,0.048 -0.044,0.048 -0.008,0 -0.016,-0.004 -0.024,-0.008 -0.112,-0.064 -0.24,-0.156 -0.308,-0.156 -0.032,0 -0.052,0.02 -0.052,0.072 -0.004,0.324 0,0.648 -0.004,0.972 z m -0.064,0.384 -0.356,0.08 -0.004,0.8 0.352,-0.076 z"
     id="path184"
     inkscape:connector-curvature="0"
     style="fill:currentColor" />
  <rect
     x="65.921715"
     y="3.4841728"
     width="0.1514"
     height="2.6205001"
     ry="0.050000001"
     id="rect186"
     style="fill:currentColor" />
  <path
     d="m 65.620314,5.7239728 c 0.236,0 0.452,0.124 0.452,0.38 0,0.284 -0.208,0.48 -0.396,0.592 -0.136,0.084 -0.292,0.132 -0.452,0.132 -0.236,0 -0.452,-0.124 -0.452,-0.38 0,-0.284 0.212,-0.48 0.4,-0.592 0.136,-0.084 0.288,-0.132 0.448,-0.132 z"
     id="path188"
     inkscape:connector-curvature="0"
     style="fill:currentColor" />
  <path
     d="m 50.096614,6.2239728 c 0.236,0 0.452,0.124 0.452,0.38 0,0.284 -0.208,0.48 -0.396,0.592 -0.136,0.084 -0.292,0.132 -0.452,0.132 -0.236,0 -0.452,-0.124 -0.452,-0.38 0,-0.284 0.212,-0.48 0.4,-0.592 0.136,-0.084 0.288,-0.132 0.448,-0.132 z"
     id="path190"
     inkscape:connector-curvature="0"
     style="fill:currentColor" />
  <rect
     x="50.398113"
     y="3.7711728"
     width="0.1514"
     height="2.8334999"
     ry="0.050000001"
     id="rect192"
     style="fill:currentColor" />
  <path
     d="m 48.098614,8.1599728 c -0.048,0 -0.084,-0.036 -0.084,-0.084 v -0.54 l -0.284,0.072 v 0.584 c 0,0.048 -0.032,0.084 -0.08,0.084 -0.048,0 -0.084,-0.036 -0.084,-0.084 v -0.54 l -0.14,0.036 c -0.008,0.004 -0.02,0.004 -0.028,0.004 -0.052,0 -0.1,-0.044 -0.1,-0.1 v -0.216 c 0,-0.044 0.032,-0.088 0.076,-0.1 l 0.192,-0.048 v -0.624 l -0.14,0.036 c -0.008,0.004 -0.02,0 -0.028,0 -0.052,0 -0.1,-0.044 -0.1,-0.1 v -0.216 c 0,-0.044 0.032,-0.084 0.076,-0.096 l 0.192,-0.048 v -0.584 c 0,-0.048 0.036,-0.084 0.084,-0.084 0.048,0 0.08,0.036 0.08,0.084 v 0.54 l 0.284,-0.076 v -0.584 c 0,-0.048 0.036,-0.084 0.084,-0.084 0.048,0 0.084,0.036 0.084,0.084 v 0.54 l 0.284,-0.072 v -0.584 c 0,-0.048 0.032,-0.084 0.08,-0.084 0.048,0 0.084,0.036 0.084,0.084 v 0.54 l 0.14,-0.036 c 0.008,-0.004 0.02,-0.004 0.028,-0.004 0.052,0 0.1,0.044 0.1,0.1 v 0.216 c 0,0.044 -0.032,0.088 -0.076,0.1 l -0.192,0.048 v 0.624 l 0.14,-0.036 c 0.008,-0.004 0.02,0 0.028,0 0.052,0 0.1,0.044 0.1,0.1 v 0.216 c 0,0.044 -0.032,0.084 -0.076,0.096 l -0.192,0.048 v 0.584 c 0,0.048 -0.036,0.084 -0.084,0.084 -0.048,0 -0.08,-0.036 -0.08,-0.084 v -0.54 l -0.284,0.076 v 0.584 c 0,0.048 -0.036,0.084 -0.084,0.084 z m -0.368,-1.6 v 0.624 l 0.284,-0.072 v -0.628 z m 0.736,-0.192 -0.284,0.072 v 0.628 l 0.284,-0.076 v -0.624 z"
     id="path194"
     inkscape:connector-curvature="0"
     style="fill:currentColor" />
  <path
     d="m 68.607614,7.5239728 c 0,0.048 -0.036,0.08 -0.084,0.08 -0.048,0 -0.08,-0.032 -0.08,-0.08 v -0.448 l -0.116,0.068 c -0.016,0.008 -0.036,0.016 -0.052,0.016 -0.052,0 -0.1,-0.044 -0.1,-0.104 v -0.216 c 0,-0.036 0.016,-0.064 0.048,-0.084 l 0.22,-0.132 v -0.6 l -0.116,0.068 c -0.016,0.008 -0.036,0.016 -0.052,0.016 -0.052,0 -0.1,-0.04 -0.1,-0.1 v -0.216 c 0,-0.036 0.016,-0.068 0.048,-0.088 l 0.22,-0.128 v -0.548 c 0,-0.048 0.032,-0.08 0.08,-0.08 0.048,0 0.084,0.032 0.084,0.08 v 0.448 l 0.116,-0.068 c 0.016,-0.008 0.036,-0.016 0.052,-0.016 0.052,0 0.1,0.044 0.1,0.104 v 0.216 c 0,0.036 -0.016,0.064 -0.048,0.084 l -0.22,0.132 v 0.6 l 0.116,-0.068 c 0.016,-0.008 0.036,-0.016 0.052,-0.016 0.052,0 0.1,0.04 0.1,0.1 v 0.216 c 0,0.036 -0.016,0.068 -0.048,0.088 l -0.22,0.128 v 0.548 z"
     id="path196"
     inkscape:connector-curvature="0"
     style="fill:currentColor" />
  <path
     d="m 54.527514,5.7239728 c 0.236,0 0.452,0.124 0.452,0.38 0,0.284 -0.208,0.48 -0.396,0.592 -0.136,0.084 -0.292,0.132 -0.452,0.132 -0.236,0 -0.452,-0.124 -0.452,-0.38 0,-0.284 0.212,-0.48 0.4,-0.592 0.136,-0.084 0.288,-0.132 0.448,-0.132 z"
     id="path198"
     inkscape:connector-curvature="0"
     style="fill:currentColor" />
  <rect
     x="54.828915"
     y="3.4889729"
     width="0.1514"
     height="2.6156001"
     ry="0.050000001"
     id="rect200"
     style="fill:currentColor" />
  <path
     d="m 70.073614,5.7239728 c 0.236,0 0.452,0.124 0.452,0.38 0,0.284 -0.208,0.48 -0.396,0.592 -0.136,0.084 -0.292,0.132 -0.452,0.132 -0.236,0 -0.452,-0.124 -0.452,-0.38 0,-0.284 0.212,-0.48 0.4,-0.592 0.136,-0.084 0.288,-0.132 0.448,-0.132 z"
     id="path202"
     inkscape:connector-curvature="0"
     style="fill:currentColor" />
  <path
     d="m 52.620014,4.7759728 c 0.032,-0.02 0.072,-0.028 0.108,-0.028 0.036,0 0.072,0.008 0.104,0.028 l -0.012,0.768 0.408,-0.092 h 0.016 c 0.04,0 0.076,0.032 0.076,0.072 0.004,0.82 0.012,1.636 0.016,2.456 0,0.052 0.02,0.072 0.052,0.072 0.068,0 0.192,-0.092 0.304,-0.156 0.008,-0.004 0.016,-0.008 0.024,-0.008 0.024,0 0.048,0.024 0.048,0.048 0,0.008 0,0.02 -0.008,0.028 -0.2,0.288 -0.344,0.608 -0.476,0.936 -0.008,0.016 -0.02,0.024 -0.036,0.024 -0.016,0 -0.028,-0.008 -0.036,-0.024 -0.132,-0.328 -0.272,-0.648 -0.472,-0.936 -0.008,-0.008 -0.012,-0.02 -0.012,-0.028 0,-0.024 0.024,-0.048 0.048,-0.048 0.008,0 0.016,0.004 0.024,0.008 0.112,0.064 0.236,0.156 0.304,0.156 0.032,0 0.052,-0.02 0.052,-0.072 0.004,-0.324 0.004,-0.648 0.008,-0.972 l -0.416,0.092 h -0.016 c -0.04,0 -0.076,-0.032 -0.076,-0.072 z m 0.548,1.06 -0.352,0.076 -0.012,0.804 0.36,-0.08 z"
     id="path204"
     inkscape:connector-curvature="0"
     style="fill:currentColor" />
  <rect
     x="70.375114"
     y="3.4841728"
     width="0.1514"
     height="2.6205001"
     ry="0.050000001"
     id="rect206"
     style="fill:currentColor" />
  <line
     x1="1.140614"
     y1="17.775972"
     x2="136.17482"
     y2="17.775972"
     id="line208"
     style="stroke:currentColor;stroke-width:0.1164;stroke-linecap:round;stroke-linejoin:round" />
  <line
     x1="1.140614"
     y1="16.775972"
     x2="136.17482"
     y2="16.775972"
     id="line210"
     style="stroke:currentColor;stroke-width:0.1164;stroke-linecap:round;stroke-linejoin:round" />
  <line
     x1="1.140614"
     y1="15.775972"
     x2="136.17482"
     y2="15.775972"
     id="line212"
     style="stroke:currentColor;stroke-width:0.1164;stroke-linecap:round;stroke-linejoin:round" />
  <line
     x1="1.140614"
     y1="14.775972"
     x2="136.17482"
     y2="14.775972"
     id="line214"
     style="stroke:currentColor;stroke-width:0.1164;stroke-linecap:round;stroke-linejoin:round" />
  <line
     x1="1.140614"
     y1="13.775972"
     x2="136.17482"
     y2="13.775972"
     id="line216"
     style="stroke:currentColor;stroke-width:0.1164;stroke-linecap:round;stroke-linejoin:round" />
  <rect
     x="48.033813"
     y="13.775972"
     width="0.2212"
     height="4"
     ry="0"
     id="rect218"
     style="fill:currentColor" />
  <rect
     x="136.01181"
     y="13.775972"
     width="0.2212"
     height="4"
     ry="0"
     id="rect220"
     style="fill:currentColor" />
  <rect
     x="92.176712"
     y="13.775972"
     width="0.2212"
     height="4"
     ry="0"
     id="rect222"
     style="fill:currentColor" />
  <path
     d="m 96.051914,15.723973 c 0.236,0 0.452,0.124 0.452,0.38 0,0.284 -0.208,0.48 -0.396,0.592 -0.136,0.084 -0.292,0.132 -0.452,0.132 -0.236,0 -0.452,-0.124 -0.452,-0.38 0,-0.284 0.212,-0.48 0.4,-0.592 0.136,-0.084 0.288,-0.132 0.448,-0.132 z"
     id="path224"
     inkscape:connector-curvature="0"
     style="fill:currentColor" />
  <path
     d="m 94.545914,17.591973 c -0.048,0 -0.084,-0.036 -0.084,-0.084 v -0.552 l -0.316,0.12 v 0.616 c 0,0.048 -0.036,0.084 -0.084,0.084 -0.048,0 -0.084,-0.036 -0.084,-0.084 v -0.552 l -0.088,0.032 c -0.012,0.004 -0.024,0.008 -0.036,0.008 -0.052,0 -0.1,-0.044 -0.1,-0.1 v -0.216 c 0,-0.04 0.024,-0.08 0.064,-0.096 l 0.16,-0.06 v -0.62 l -0.088,0.036 c -0.012,0.004 -0.024,0.004 -0.036,0.004 -0.052,0 -0.1,-0.044 -0.1,-0.1 v -0.216 c 0,-0.04 0.024,-0.076 0.064,-0.092 l 0.16,-0.06 v -0.616 c 0,-0.048 0.036,-0.084 0.084,-0.084 0.048,0 0.084,0.036 0.084,0.084 v 0.552 l 0.316,-0.12 v -0.616 c 0,-0.048 0.036,-0.084 0.084,-0.084 0.048,0 0.084,0.036 0.084,0.084 v 0.552 l 0.088,-0.032 c 0.012,-0.004 0.024,-0.008 0.036,-0.008 0.052,0 0.1,0.044 0.1,0.1 v 0.216 c 0,0.04 -0.024,0.08 -0.064,0.096 l -0.16,0.06 v 0.62 l 0.088,-0.036 c 0.012,-0.004 0.024,-0.004 0.036,-0.004 0.052,0 0.1,0.044 0.1,0.1 v 0.216 c 0,0.04 -0.024,0.076 -0.064,0.092 l -0.16,0.06 v 0.616 c 0,0.048 -0.036,0.084 -0.084,0.084 z m -0.4,-1.564 v 0.616 l 0.316,-0.12 v -0.616 z"
     id="path226"
     inkscape:connector-curvature="0"
     style="fill:currentColor" />
  <rect
     x="96.353416"
     y="13.484173"
     width="0.1514"
     height="2.6205001"
     ry="0.050000001"
     id="rect228"
     style="fill:currentColor" />
  <rect
     x="107.58711"
     y="13.063473"
     width="0.1514"
     height="3.0411999"
     ry="0.050000001"
     id="rect230"
     style="fill:currentColor" />
  <path
     d="m 107.28561,15.723973 c 0.236,0 0.452,0.124 0.452,0.38 0,0.284 -0.208,0.48 -0.396,0.592 -0.136,0.084 -0.292,0.132 -0.452,0.132 -0.236,0 -0.452,-0.124 -0.452,-0.38 0,-0.284 0.212,-0.48 0.4,-0.592 0.136,-0.084 0.288,-0.132 0.448,-0.132 z"
     id="path232"
     inkscape:connector-curvature="0"
     style="fill:currentColor" />
  <path
     d="m 99.912814,17.591973 c -0.048,0 -0.084,-0.036 -0.084,-0.084 v -0.552 l -0.316,0.12 v 0.616 c 0,0.048 -0.036,0.084 -0.084,0.084 -0.048,0 -0.084,-0.036 -0.084,-0.084 v -0.552 l -0.088,0.032 c -0.012,0.004 -0.024,0.008 -0.036,0.008 -0.052,0 -0.1,-0.044 -0.1,-0.1 v -0.216 c 0,-0.04 0.024,-0.08 0.064,-0.096 l 0.16,-0.06 v -0.62 l -0.088,0.036 c -0.012,0.004 -0.024,0.004 -0.036,0.004 -0.052,0 -0.1,-0.044 -0.1,-0.1 v -0.216 c 0,-0.04 0.024,-0.076 0.064,-0.092 l 0.16,-0.06 v -0.616 c 0,-0.048 0.036,-0.084 0.084,-0.084 0.048,0 0.084,0.036 0.084,0.084 v 0.552 l 0.316,-0.12 v -0.9 c 0,-0.052 -0.02,-0.076 -0.052,-0.076 -0.068,0 -0.196,0.092 -0.308,0.156 -0.04,0.024 -0.084,-0.02 -0.056,-0.06 0.204,-0.288 0.332,-0.616 0.464,-0.944 0.008,-0.016 0.024,-0.024 0.036,-0.024 0.012,0 0.024,0.008 0.032,0.024 0.131996,0.328 0.259996,0.656 0.463996,0.944 0.004,0.008 0.008,0.016 0.008,0.024 0,0.032 -0.032,0.056 -0.064,0.036 -0.112,-0.064 -0.24,-0.156 -0.308,-0.156 -0.032,0 -0.048,0.024 -0.048,0.076 v 0.836 l 0.088,-0.032 c 0.012,-0.004 0.024,-0.008 0.036,-0.008 0.052,0 0.1,0.044 0.1,0.1 v 0.216 c 0,0.04 -0.024,0.08 -0.064,0.096 l -0.159996,0.06 v 0.62 l 0.088,-0.036 c 0.012,-0.004 0.024,-0.004 0.036,-0.004 0.052,0 0.1,0.044 0.1,0.1 v 0.216 c 0,0.04 -0.024,0.076 -0.064,0.092 l -0.159996,0.06 v 0.616 c 0,0.048 -0.036,0.084 -0.084,0.084 z m -0.4,-1.564 v 0.616 l 0.316,-0.12 v -0.616 z"
     id="path234"
     inkscape:connector-curvature="0"
     style="fill:currentColor" />
  <rect
     x="101.72021"
     y="13.484173"
     width="0.1514"
     height="2.6205001"
     ry="0.050000001"
     id="rect236"
     style="fill:currentColor" />
  <path
     d="m 101.41881,15.723973 c 0.236,0 0.452,0.124 0.452,0.38 0,0.284 -0.208,0.48 -0.396,0.592 -0.136,0.084 -0.292,0.132 -0.452,0.132 -0.236,0 -0.452,-0.124 -0.452,-0.38 0,-0.284 0.212,-0.48 0.4,-0.592 0.136,-0.084 0.288,-0.132 0.448,-0.132 z"
     id="path238"
     inkscape:connector-curvature="0"
     style="fill:currentColor" />
  <path
     d="m 71.123814,14.775973 c 0.032,-0.02 0.072,-0.028 0.108,-0.028 0.036,0 0.072,0.008 0.104,0.028 l -0.012,0.768 0.408,-0.092 h 0.016 c 0.04,0 0.076,0.032 0.076,0.072 l 0.032,2.252 c -0.032,0.02 -0.072,0.028 -0.108,0.028 -0.036,0 -0.072,-0.008 -0.104,-0.028 l 0.008,-0.768 -0.404,0.092 h -0.016 c -0.04,0 -0.076,-0.032 -0.076,-0.072 z m 0.544,1.06 -0.348,0.076 -0.012,0.804 0.352,-0.076 z"
     id="path240"
     inkscape:connector-curvature="0"
     style="fill:currentColor" />
  <path
     d="m 76.692314,15.451973 h 0.016 c 0.04,0 0.076,0.032 0.076,0.072 l 0.032,2.252 c -0.032,0.02 -0.072,0.028 -0.108,0.028 -0.036,0 -0.072,-0.008 -0.104,-0.028 l 0.008,-0.768 -0.404,0.092 h -0.016 c -0.04,0 -0.076,-0.032 -0.076,-0.072 -0.004,-0.82 -0.012,-1.636 -0.016,-2.456 0,-0.052 -0.02,-0.072 -0.052,-0.072 -0.068,0 -0.192,0.092 -0.304,0.156 -0.008,0.004 -0.016,0.008 -0.024,0.008 -0.024,0 -0.048,-0.024 -0.048,-0.048 0,-0.008 0,-0.02 0.008,-0.028 0.2,-0.288 0.344,-0.608 0.476,-0.936 0.008,-0.016 0.02,-0.024 0.036,-0.024 0.016,0 0.028,0.008 0.036,0.024 0.132,0.328 0.272,0.648 0.472,0.936 0.008,0.008 0.008,0.02 0.008,0.028 0,0.024 -0.02,0.048 -0.044,0.048 -0.008,0 -0.016,-0.004 -0.024,-0.008 -0.112,-0.064 -0.24,-0.156 -0.308,-0.156 -0.032,0 -0.052,0.02 -0.052,0.072 -0.004,0.324 0,0.648 -0.004,0.972 z m -0.064,0.384 -0.356,0.08 -0.004,0.8 0.352,-0.076 z"
     id="path242"
     inkscape:connector-curvature="0"
     style="fill:currentColor" />
  <rect
     x="78.309311"
     y="13.484173"
     width="0.1514"
     height="2.6205001"
     ry="0.050000001"
     id="rect244"
     style="fill:currentColor" />
  <path
     d="m 78.007914,15.723973 c 0.236,0 0.452,0.124 0.452,0.38 0,0.284 -0.208,0.48 -0.396,0.592 -0.136,0.084 -0.292,0.132 -0.452,0.132 -0.236,0 -0.452,-0.124 -0.452,-0.38 0,-0.284 0.212,-0.48 0.4,-0.592 0.136,-0.084 0.288,-0.132 0.448,-0.132 z"
     id="path246"
     inkscape:connector-curvature="0"
     style="fill:currentColor" />
  <rect
     x="73.348915"
     y="13.484173"
     width="0.1514"
     height="2.6205001"
     ry="0.050000001"
     id="rect248"
     style="fill:currentColor" />
  <path
     d="m 73.047414,15.723973 c 0.236,0 0.452,0.124 0.452,0.38 0,0.284 -0.208,0.48 -0.396,0.592 -0.136,0.084 -0.292,0.132 -0.452,0.132 -0.236,0 -0.452,-0.124 -0.452,-0.38 0,-0.284 0.212,-0.48 0.4,-0.592 0.136,-0.084 0.288,-0.132 0.448,-0.132 z"
     id="path250"
     inkscape:connector-curvature="0"
     style="fill:currentColor" />
  <polygon
     transform="translate(8.0319141,14.484173)"
     points="0.05,-0.3 5.4682,-0.3 5.4682,0.3 0.05,0.3 "
     id="polygon252"
     style="fill:currentColor;stroke:currentColor;stroke-width:0.1;stroke-linecap:round;stroke-linejoin:round" />
  <path
     d="m 82.974714,15.723973 c 0.236,0 0.452,0.124 0.452,0.38 0,0.284 -0.208,0.48 -0.396,0.592 -0.136,0.084 -0.292,0.132 -0.452,0.132 -0.236,0 -0.452,-0.124 -0.452,-0.38 0,-0.284 0.212,-0.48 0.4,-0.592 0.136,-0.084 0.288,-0.132 0.448,-0.132 z"
     id="path254"
     inkscape:connector-curvature="0"
     style="fill:currentColor" />
  <rect
     x="83.276215"
     y="13.484173"
     width="0.1514"
     height="2.6205001"
     ry="0.050000001"
     id="rect256"
     style="fill:currentColor" />
  <path
     d="m 81.508714,17.523973 c 0,0.048 -0.036,0.08 -0.084,0.08 -0.048,0 -0.08,-0.032 -0.08,-0.08 v -0.448 l -0.116,0.068 c -0.016,0.008 -0.036,0.016 -0.052,0.016 -0.052,0 -0.1,-0.044 -0.1,-0.104 v -0.216 c 0,-0.036 0.016,-0.064 0.048,-0.084 l 0.22,-0.132 v -0.6 l -0.116,0.068 c -0.016,0.008 -0.036,0.016 -0.052,0.016 -0.052,0 -0.1,-0.04 -0.1,-0.1 v -0.216 c 0,-0.036 0.016,-0.068 0.048,-0.088 l 0.22,-0.128 v -0.548 c 0,-0.048 0.032,-0.08 0.08,-0.08 0.048,0 0.084,0.032 0.084,0.08 v 0.448 l 0.116,-0.068 c 0.016,-0.008 0.036,-0.016 0.052,-0.016 0.052,0 0.1,0.044 0.1,0.104 v 0.216 c 0,0.036 -0.016,0.064 -0.048,0.084 l -0.22,0.132 v 0.6 l 0.116,-0.068 c 0.016,-0.008 0.036,-0.016 0.052,-0.016 0.052,0 0.1,0.04 0.1,0.1 v 0.216 c 0,0.036 -0.016,0.068 -0.048,0.088 l -0.22,0.128 v 0.548 z"
     id="path258"
     inkscape:connector-curvature="0"
     style="fill:currentColor" />
  <path
     d="m 88.341614,15.723973 c 0.236,0 0.452,0.124 0.452,0.38 0,0.284 -0.208,0.48 -0.396,0.592 -0.136,0.084 -0.292,0.132 -0.452,0.132 -0.236,0 -0.452,-0.124 -0.452,-0.38 0,-0.284 0.212,-0.48 0.4,-0.592 0.136,-0.084 0.288,-0.132 0.448,-0.132 z"
     id="path260"
     inkscape:connector-curvature="0"
     style="fill:currentColor" />
  <rect
     x="88.643013"
     y="13.484173"
     width="0.1514"
     height="2.6205001"
     ry="0.050000001"
     id="rect262"
     style="fill:currentColor" />
  <path
     d="m 86.835614,17.591973 c -0.048,0 -0.084,-0.036 -0.084,-0.084 v -0.552 l -0.316,0.12 v 0.9 c 0,0.052 0.02,0.076 0.052,0.076 0.068,0 0.196,-0.092 0.308,-0.156 0.04,-0.024 0.084,0.02 0.056,0.06 -0.204,0.288 -0.332,0.616 -0.464,0.944 -0.008,0.016 -0.024,0.024 -0.036,0.024 -0.012,0 -0.024,-0.008 -0.032,-0.024 -0.132,-0.328 -0.26,-0.656 -0.464,-0.944 -0.004,-0.008 -0.008,-0.016 -0.008,-0.024 0,-0.032 0.032,-0.056 0.064,-0.036 0.112,0.064 0.24,0.156 0.308,0.156 0.032,0 0.048,-0.024 0.048,-0.076 v -0.836 l -0.088,0.032 c -0.012,0.004 -0.024,0.008 -0.036,0.008 -0.052,0 -0.1,-0.044 -0.1,-0.1 v -0.216 c 0,-0.04 0.024,-0.08 0.064,-0.096 l 0.16,-0.06 v -0.62 l -0.088,0.036 c -0.012,0.004 -0.024,0.004 -0.036,0.004 -0.052,0 -0.1,-0.044 -0.1,-0.1 v -0.216 c 0,-0.04 0.024,-0.076 0.064,-0.092 l 0.16,-0.06 v -0.616 c 0,-0.048 0.036,-0.084 0.084,-0.084 0.048,0 0.084,0.036 0.084,0.084 v 0.552 l 0.316,-0.12 v -0.616 c 0,-0.048 0.036,-0.084 0.084,-0.084 0.048,0 0.084,0.036 0.084,0.084 v 0.552 l 0.088,-0.032 c 0.012,-0.004 0.024,-0.008 0.036,-0.008 0.052,0 0.1,0.044 0.1,0.1 v 0.216 c 0,0.04 -0.024,0.08 -0.064,0.096 l -0.16,0.06 v 0.62 l 0.088,-0.036 c 0.012,-0.004 0.024,-0.004 0.036,-0.004 0.052,0 0.1,0.044 0.1,0.1 v 0.216 c 0,0.04 -0.024,0.076 -0.064,0.092 l -0.16,0.06 v 0.616 c 0,0.048 -0.036,0.084 -0.084,0.084 z m -0.4,-1.564 v 0.616 l 0.316,-0.12 v -0.616 z"
     id="path264"
     inkscape:connector-curvature="0"
     style="fill:currentColor" />
  <path
     d="m 130.16731,13.775973 c 0.032,-0.02 0.072,-0.028 0.108,-0.028 0.036,0 0.072,0.008 0.104,0.028 l -0.012,0.768 0.408,-0.092 h 0.016 c 0.04,0 0.076,0.032 0.076,0.072 0.004,0.82 0.012,1.636 0.016,2.456 0,0.052 0.02,0.072 0.052,0.072 0.068,0 0.192,-0.092 0.304,-0.156 0.008,-0.004 0.016,-0.008 0.024,-0.008 0.024,0 0.048,0.024 0.048,0.048 0,0.008 0,0.02 -0.008,0.028 -0.2,0.288 -0.344,0.608 -0.476,0.936 -0.008,0.016 -0.02,0.024 -0.036,0.024 -0.016,0 -0.028,-0.008 -0.036,-0.024 -0.132,-0.328 -0.272,-0.648 -0.472,-0.936 -0.008,-0.008 -0.012,-0.02 -0.012,-0.028 0,-0.024 0.024,-0.048 0.048,-0.048 0.008,0 0.016,0.004 0.024,0.008 0.112,0.064 0.236,0.156 0.304,0.156 0.032,0 0.052,-0.02 0.052,-0.072 0.004,-0.324 0.004,-0.648 0.008,-0.972 l -0.416,0.092 h -0.016 c -0.04,0 -0.076,-0.032 -0.076,-0.072 z m 0.548,1.06 -0.352,0.076 -0.012,0.804 0.36,-0.08 z"
     id="path266"
     inkscape:connector-curvature="0"
     style="fill:currentColor" />
  <rect
     x="131.66121"
     y="15.447273"
     width="0.1514"
     height="3.0409"
     ry="0.050000001"
     id="rect268"
     style="fill:currentColor" />
  <path
     d="m 132.50931,14.723973 c 0.236,0 0.452,0.124 0.452,0.38 0,0.284 -0.208,0.48 -0.396,0.592 -0.136,0.084 -0.292,0.132 -0.452,0.132 -0.236,0 -0.452,-0.124 -0.452,-0.38 0,-0.284 0.212,-0.48 0.4,-0.592 0.136,-0.084 0.288,-0.132 0.448,-0.132 z"
     id="path270"
     inkscape:connector-curvature="0"
     style="fill:currentColor" />
  <path
     d="m 125.66441,17.023973 c 0,0.048 -0.036,0.08 -0.084,0.08 -0.048,0 -0.08,-0.032 -0.08,-0.08 v -0.448 l -0.116,0.068 c -0.016,0.008 -0.036,0.016 -0.052,0.016 -0.052,0 -0.1,-0.044 -0.1,-0.104 v -0.216 c 0,-0.036 0.016,-0.064 0.048,-0.084 l 0.22,-0.132 v -0.6 l -0.116,0.068 c -0.016,0.008 -0.036,0.016 -0.052,0.016 -0.052,0 -0.1,-0.04 -0.1,-0.1 v -0.216 c 0,-0.036 0.016,-0.068 0.048,-0.088 l 0.22,-0.128 v -0.548 c 0,-0.048 0.032,-0.08 0.08,-0.08 0.048,0 0.084,0.032 0.084,0.08 v 0.448 l 0.116,-0.068 c 0.016,-0.008 0.036,-0.016 0.052,-0.016 0.052,0 0.1,0.044 0.1,0.104 v 0.216 c 0,0.036 -0.016,0.064 -0.048,0.084 l -0.22,0.132 v 0.6 l 0.116,-0.068 c 0.016,-0.008 0.036,-0.016 0.052,-0.016 0.052,0 0.1,0.04 0.1,0.1 v 0.216 c 0,0.036 -0.016,0.068 -0.048,0.088 l -0.22,0.128 v 0.548 z"
     id="path272"
     inkscape:connector-curvature="0"
     style="fill:currentColor" />
  <rect
     x="39.097515"
     y="13.775972"
     width="0.1514"
     height="2.8287001"
     ry="0.050000001"
     id="rect274"
     style="fill:currentColor" />
  <polygon
     transform="translate(126.28241,18.775973)"
     points="0.05,-0.3 5.4802,-0.5918 5.4802,0.0082 0.05,0.3 "
     id="polygon276"
     style="fill:currentColor;stroke:currentColor;stroke-width:0.1;stroke-linecap:round;stroke-linejoin:round" />
  <polygon
     transform="translate(116.34881,18.775973)"
     points="0.05,-0.3 5.0682,-0.3 5.0682,0.3 0.05,0.3 "
     id="polygon278"
     style="fill:currentColor;stroke:currentColor;stroke-width:0.1;stroke-linecap:round;stroke-linejoin:round" />
  <polygon
     transform="translate(107.58711,13.067773)"
     points="0.05,-0.3 5.0457,-0.5918 5.0457,0.0082 0.05,0.3 "
     id="polygon280"
     style="fill:currentColor;stroke:currentColor;stroke-width:0.1;stroke-linecap:round;stroke-linejoin:round" />
  <polygon
     transform="translate(96.353414,13.484173)"
     points="0.05,-0.3 5.4682,-0.3 5.4682,0.3 0.05,0.3 "
     id="polygon282"
     style="fill:currentColor;stroke:currentColor;stroke-width:0.1;stroke-linecap:round;stroke-linejoin:round" />
  <polygon
     transform="translate(83.276214,13.484173)"
     points="0.05,-0.3 5.4682,-0.3 5.4682,0.3 0.05,0.3 "
     id="polygon284"
     style="fill:currentColor;stroke:currentColor;stroke-width:0.1;stroke-linecap:round;stroke-linejoin:round" />
  <polygon
     transform="translate(73.348914,13.484173)"
     points="0.05,-0.3 5.0618,-0.3 5.0618,0.3 0.05,0.3 "
     id="polygon286"
     style="fill:currentColor;stroke:currentColor;stroke-width:0.1;stroke-linecap:round;stroke-linejoin:round" />
  <polygon
     transform="translate(63.444214,13.775973)"
     points="0.05,-0.3 5.0457,-0.5918 5.0457,0.0082 0.05,0.3 "
     id="polygon288"
     style="fill:currentColor;stroke:currentColor;stroke-width:0.1;stroke-linecap:round;stroke-linejoin:round" />
  <polygon
     transform="translate(52.210514,13.775973)"
     points="0.05,-0.3 5.4682,-0.3 5.4682,0.3 0.05,0.3 "
     id="polygon290"
     style="fill:currentColor;stroke:currentColor;stroke-width:0.1;stroke-linecap:round;stroke-linejoin:round" />
  <polygon
     transform="translate(39.097614,13.775973)"
     points="0.05,-0.3 5.4682,-0.3 5.4682,0.3 0.05,0.3 "
     id="polygon292"
     style="fill:currentColor;stroke:currentColor;stroke-width:0.1;stroke-linecap:round;stroke-linejoin:round" />
  <polygon
     transform="translate(29.170314,13.775973)"
     points="0.05,-0.3 5.0618,-0.3 5.0618,0.3 0.05,0.3 "
     id="polygon294"
     style="fill:currentColor;stroke:currentColor;stroke-width:0.1;stroke-linecap:round;stroke-linejoin:round" />
  <polygon
     transform="translate(19.265514,14.067773)"
     points="0.05,-0.3 5.0457,-0.5918 5.0457,0.0082 0.05,0.3 "
     id="polygon296"
     style="fill:currentColor;stroke:currentColor;stroke-width:0.1;stroke-linecap:round;stroke-linejoin:round" />
  <rect
     x="116.34872"
     y="15.947273"
     width="0.1514"
     height="2.8287001"
     ry="0.050000001"
     id="rect298"
     style="fill:currentColor" />
  <path
     d="m 117.19681,15.223973 c 0.236,0 0.452,0.124 0.452,0.38 0,0.284 -0.208,0.48 -0.396,0.592 -0.136,0.084 -0.292,0.132 -0.452,0.132 -0.236,0 -0.452,-0.124 -0.452,-0.38 0,-0.284 0.212,-0.48 0.4,-0.592 0.136,-0.084 0.288,-0.132 0.448,-0.132 z"
     id="path300"
     inkscape:connector-curvature="0"
     style="fill:currentColor" />
  <path
     d="m 110.32241,14.275973 c 0.032,-0.02 0.072,-0.028 0.108,-0.028 0.036,0 0.072,0.008 0.104,0.028 l -0.012,0.768 0.408,-0.092 h 0.016 c 0.04,0 0.076,0.032 0.076,0.072 0.004,0.82 0.012,1.636 0.016,2.456 0,0.052 0.02,0.072 0.052,0.072 0.068,0 0.192,-0.092 0.304,-0.156 0.008,-0.004 0.016,-0.008 0.024,-0.008 0.024,0 0.048,0.024 0.048,0.048 0,0.008 0,0.02 -0.008,0.028 -0.2,0.288 -0.344,0.608 -0.476,0.936 -0.008,0.016 -0.02,0.024 -0.036,0.024 -0.016,0 -0.028,-0.008 -0.036,-0.024 -0.132,-0.328 -0.272,-0.648 -0.472,-0.936 -0.008,-0.008 -0.012,-0.02 -0.012,-0.028 0,-0.024 0.024,-0.048 0.048,-0.048 0.008,0 0.016,0.004 0.024,0.008 0.112,0.064 0.236,0.156 0.304,0.156 0.032,0 0.052,-0.02 0.052,-0.072 0.004,-0.324 0.004,-0.648 0.008,-0.972 l -0.416,0.092 h -0.016 c -0.04,0 -0.076,-0.032 -0.076,-0.072 z m 0.548,1.06 -0.352,0.076 -0.012,0.804 0.36,-0.08 z"
     id="path302"
     inkscape:connector-curvature="0"
     style="fill:currentColor" />
  <rect
     x="112.53142"
     y="12.780272"
     width="0.1514"
     height="2.8243001"
     ry="0.050000001"
     id="rect304"
     style="fill:currentColor" />
  <path
     d="m 112.22991,15.223973 c 0.236,0 0.452,0.124 0.452,0.38 0,0.284 -0.208,0.48 -0.396,0.592 -0.136,0.084 -0.292,0.132 -0.452,0.132 -0.236,0 -0.452,-0.124 -0.452,-0.38 0,-0.284 0.212,-0.48 0.4,-0.592 0.136,-0.084 0.288,-0.132 0.448,-0.132 z"
     id="path306"
     inkscape:connector-curvature="0"
     style="fill:currentColor" />
  <path
     d="m 105.28761,17.659973 c -0.048,0 -0.084,-0.036 -0.084,-0.084 v -0.54 l -0.284,0.072 v 0.584 c 0,0.048 -0.032,0.084 -0.08,0.084 -0.048,0 -0.084,-0.036 -0.084,-0.084 v -0.54 l -0.14,0.036 c -0.008,0.004 -0.02,0.004 -0.028,0.004 -0.052,0 -0.1,-0.044 -0.1,-0.1 v -0.216 c 0,-0.044 0.032,-0.088 0.076,-0.1 l 0.192,-0.048 v -0.624 l -0.14,0.036 c -0.008,0.004 -0.02,0 -0.028,0 -0.052,0 -0.1,-0.044 -0.1,-0.1 v -0.216 c 0,-0.044 0.032,-0.084 0.076,-0.096 l 0.192,-0.048 v -0.584 c 0,-0.048 0.036,-0.084 0.084,-0.084 0.048,0 0.08,0.036 0.08,0.084 v 0.54 l 0.284,-0.076 v -0.584 c 0,-0.048 0.036,-0.084 0.084,-0.084 0.048,0 0.084,0.036 0.084,0.084 v 0.54 l 0.284,-0.072 v -0.584 c 0,-0.048 0.032,-0.084 0.08,-0.084 0.048,0 0.084,0.036 0.084,0.084 v 0.54 l 0.14,-0.036 c 0.008,-0.004 0.02,-0.004 0.028,-0.004 0.052,0 0.1,0.044 0.1,0.1 v 0.216 c 0,0.044 -0.032,0.088 -0.076,0.1 l -0.192,0.048 v 0.624 l 0.14,-0.036 c 0.008,-0.004 0.02,0 0.028,0 0.052,0 0.1,0.044 0.1,0.1 v 0.216 c 0,0.044 -0.032,0.084 -0.076,0.096 l -0.192,0.048 v 0.584 c 0,0.048 -0.036,0.084 -0.084,0.084 -0.048,0 -0.08,-0.036 -0.08,-0.084 v -0.54 l -0.284,0.076 v 0.584 c 0,0.048 -0.036,0.084 -0.084,0.084 z m -0.368,-1.6 v 0.624 l 0.284,-0.072 v -0.628 z m 0.736,-0.192 -0.284,0.072 v 0.628 l 0.284,-0.076 v -0.624 z"
     id="path308"
     inkscape:connector-curvature="0"
     style="fill:currentColor" />
  <path
     d="m 115.26681,14.275973 c 0.032,-0.02 0.072,-0.028 0.108,-0.028 0.036,0 0.072,0.008 0.104,0.028 l -0.012,0.768 0.408,-0.092 h 0.016 c 0.04,0 0.076,0.032 0.076,0.072 l 0.032,2.252 c -0.032,0.02 -0.072,0.028 -0.108,0.028 -0.036,0 -0.072,-0.008 -0.104,-0.028 l 0.008,-0.768 -0.404,0.092 h -0.016 c -0.04,0 -0.076,-0.032 -0.076,-0.072 z m 0.544,1.06 -0.348,0.076 -0.012,0.804 0.352,-0.076 z"
     id="path310"
     inkscape:connector-curvature="0"
     style="fill:currentColor" />
  <path
     d="m 122.16361,15.223973 c 0.236,0 0.452,0.124 0.452,0.38 0,0.284 -0.208,0.48 -0.396,0.592 -0.136,0.084 -0.292,0.132 -0.452,0.132 -0.236,0 -0.452,-0.124 -0.452,-0.38 0,-0.284 0.212,-0.48 0.4,-0.592 0.136,-0.084 0.288,-0.132 0.448,-0.132 z"
     id="path312"
     inkscape:connector-curvature="0"
     style="fill:currentColor" />
  <rect
     x="121.31561"
     y="15.947273"
     width="0.1514"
     height="2.8287001"
     ry="0.050000001"
     id="rect314"
     style="fill:currentColor" />
  <path
     d="m 120.84161,14.951973 h 0.016 c 0.04,0 0.076,0.032 0.076,0.072 l 0.032,2.252 c -0.032,0.02 -0.072,0.028 -0.108,0.028 -0.036,0 -0.072,-0.008 -0.104,-0.028 l 0.008,-0.768 -0.404,0.092 h -0.016 c -0.04,0 -0.076,-0.032 -0.076,-0.072 -0.004,-0.82 -0.012,-1.636 -0.016,-2.456 0,-0.052 -0.02,-0.072 -0.052,-0.072 -0.068,0 -0.192,0.092 -0.304,0.156 -0.008,0.004 -0.016,0.008 -0.024,0.008 -0.024,0 -0.048,-0.024 -0.048,-0.048 0,-0.008 0,-0.02 0.008,-0.028 0.2,-0.288 0.344,-0.608 0.476,-0.936 0.008,-0.016 0.02,-0.024 0.036,-0.024 0.016,0 0.028,0.008 0.036,0.024 0.132,0.328 0.272,0.648 0.472,0.936 0.008,0.008 0.008,0.02 0.008,0.028 0,0.024 -0.02,0.048 -0.044,0.048 -0.008,0 -0.016,-0.004 -0.024,-0.008 -0.112,-0.064 -0.24,-0.156 -0.308,-0.156 -0.032,0 -0.052,0.02 -0.052,0.072 -0.004,0.324 0,0.648 -0.004,0.972 z m -0.064,0.384 -0.356,0.08 -0.004,0.8 0.352,-0.076 z"
     id="path316"
     inkscape:connector-curvature="0"
     style="fill:currentColor" />
  <path
     d="m 127.13041,15.223973 c 0.236,0 0.452,0.124 0.452,0.38 0,0.284 -0.208,0.48 -0.396,0.592 -0.136,0.084 -0.292,0.132 -0.452,0.132 -0.236,0 -0.452,-0.124 -0.452,-0.38 0,-0.284 0.212,-0.48 0.4,-0.592 0.136,-0.084 0.288,-0.132 0.448,-0.132 z"
     id="path318"
     inkscape:connector-curvature="0"
     style="fill:currentColor" />
  <rect
     x="126.28242"
     y="15.947273"
     width="0.1514"
     height="2.8247001"
     ry="0.050000001"
     id="rect320"
     style="fill:currentColor" />
  <rect
     x="24.209814"
     y="13.780272"
     width="0.1514"
     height="2.8243001"
     ry="0.050000001"
     id="rect322"
     style="fill:currentColor" />
  <rect
     x="29.170315"
     y="13.775972"
     width="0.1514"
     height="2.8287001"
     ry="0.050000001"
     id="rect324"
     style="fill:currentColor" />
  <path
     d="m 28.868814,16.223973 c 0.236,0 0.452,0.124 0.452,0.38 0,0.284 -0.208,0.48 -0.396,0.592 -0.136,0.084 -0.292,0.132 -0.452,0.132 -0.236,0 -0.452,-0.124 -0.452,-0.38 0,-0.284 0.212,-0.48 0.4,-0.592 0.136,-0.084 0.288,-0.132 0.448,-0.132 z"
     id="path326"
     inkscape:connector-curvature="0"
     style="fill:currentColor" />
  <path
     d="m 22.000914,15.275973 c 0.032,-0.02 0.072,-0.028 0.108,-0.028 0.036,0 0.072,0.008 0.104,0.028 l -0.012,0.768 0.408,-0.092 h 0.016 c 0.04,0 0.076,0.032 0.076,0.072 0.004,0.82 0.012,1.636 0.016,2.456 0,0.052 0.02,0.072 0.052,0.072 0.068,0 0.192,-0.092 0.304,-0.156 0.008,-0.004 0.016,-0.008 0.024,-0.008 0.024,0 0.048,0.024 0.048,0.048 0,0.008 0,0.02 -0.008,0.028 -0.2,0.288 -0.344,0.608 -0.476,0.936 -0.008,0.016 -0.02,0.024 -0.036,0.024 -0.016,0 -0.028,-0.008 -0.036,-0.024 -0.132,-0.328 -0.272,-0.648 -0.472,-0.936 -0.008,-0.008 -0.012,-0.02 -0.012,-0.028 0,-0.024 0.024,-0.048 0.048,-0.048 0.008,0 0.016,0.004 0.024,0.008 0.112,0.064 0.236,0.156 0.304,0.156 0.032,0 0.052,-0.02 0.052,-0.072 0.004,-0.324 0.004,-0.648 0.008,-0.972 l -0.416,0.092 h -0.016 c -0.04,0 -0.076,-0.032 -0.076,-0.072 z m 0.548,1.06 -0.352,0.076 -0.012,0.804 0.36,-0.08 z"
     id="path328"
     inkscape:connector-curvature="0"
     style="fill:currentColor" />
  <path
     d="m 23.908414,16.223973 c 0.236,0 0.452,0.124 0.452,0.38 0,0.284 -0.208,0.48 -0.396,0.592 -0.136,0.084 -0.292,0.132 -0.452,0.132 -0.236,0 -0.452,-0.124 -0.452,-0.38 0,-0.284 0.212,-0.48 0.4,-0.592 0.136,-0.084 0.288,-0.132 0.448,-0.132 z"
     id="path330"
     inkscape:connector-curvature="0"
     style="fill:currentColor" />
  <path
     d="m 16.966114,18.659973 c -0.048,0 -0.084,-0.036 -0.084,-0.084 v -0.54 l -0.284,0.072 v 0.584 c 0,0.048 -0.032,0.084 -0.08,0.084 -0.048,0 -0.084,-0.036 -0.084,-0.084 v -0.54 l -0.14,0.036 c -0.008,0.004 -0.02,0.004 -0.028,0.004 -0.052,0 -0.1,-0.044 -0.1,-0.1 v -0.216 c 0,-0.044 0.032,-0.088 0.076,-0.1 l 0.192,-0.048 v -0.624 l -0.14,0.036 c -0.008,0.004 -0.02,0 -0.028,0 -0.052,0 -0.1,-0.044 -0.1,-0.1 v -0.216 c 0,-0.044 0.032,-0.084 0.076,-0.096 l 0.192,-0.048 v -0.584 c 0,-0.048 0.036,-0.084 0.084,-0.084 0.048,0 0.08,0.036 0.08,0.084 v 0.54 l 0.284,-0.076 v -0.584 c 0,-0.048 0.036,-0.084 0.084,-0.084 0.048,0 0.084,0.036 0.084,0.084 v 0.54 l 0.284,-0.072 v -0.584 c 0,-0.048 0.032,-0.084 0.08,-0.084 0.048,0 0.084,0.036 0.084,0.084 v 0.54 l 0.14,-0.036 c 0.008,-0.004 0.02,-0.004 0.028,-0.004 0.052,0 0.1,0.044 0.1,0.1 v 0.216 c 0,0.044 -0.032,0.088 -0.076,0.1 l -0.192,0.048 v 0.624 l 0.14,-0.036 c 0.008,-0.004 0.02,0 0.028,0 0.052,0 0.1,0.044 0.1,0.1 v 0.216 c 0,0.044 -0.032,0.084 -0.076,0.096 l -0.192,0.048 v 0.584 c 0,0.048 -0.036,0.084 -0.084,0.084 -0.048,0 -0.08,-0.036 -0.08,-0.084 v -0.54 l -0.284,0.076 v 0.584 c 0,0.048 -0.036,0.084 -0.084,0.084 z m -0.368,-1.6 v 0.624 l 0.284,-0.072 v -0.628 z m 0.736,-0.192 -0.284,0.072 v 0.628 l 0.284,-0.076 v -0.624 z"
     id="path332"
     inkscape:connector-curvature="0"
     style="fill:currentColor" />
  <rect
     x="19.265514"
     y="14.063473"
     width="0.1514"
     height="3.0411999"
     ry="0.050000001"
     id="rect334"
     style="fill:currentColor" />
  <path
     d="m 26.945214,15.275973 c 0.032,-0.02 0.072,-0.028 0.108,-0.028 0.036,0 0.072,0.008 0.104,0.028 l -0.012,0.768 0.408,-0.092 h 0.016 c 0.04,0 0.076,0.032 0.076,0.072 l 0.032,2.252 c -0.032,0.02 -0.072,0.028 -0.108,0.028 -0.036,0 -0.072,-0.008 -0.104,-0.028 l 0.008,-0.768 -0.404,0.092 h -0.016 c -0.04,0 -0.076,-0.032 -0.076,-0.072 z m 0.544,1.06 -0.348,0.076 -0.012,0.804 0.352,-0.076 z"
     id="path336"
     inkscape:connector-curvature="0"
     style="fill:currentColor" />
  <path
     d="m 33.829314,16.223973 c 0.236,0 0.452,0.124 0.452,0.38 0,0.284 -0.208,0.48 -0.396,0.592 -0.136,0.084 -0.292,0.132 -0.452,0.132 -0.236,0 -0.452,-0.124 -0.452,-0.38 0,-0.284 0.212,-0.48 0.4,-0.592 0.136,-0.084 0.288,-0.132 0.448,-0.132 z"
     id="path338"
     inkscape:connector-curvature="0"
     style="fill:currentColor" />
  <rect
     x="34.130714"
     y="13.775972"
     width="0.1514"
     height="2.8287001"
     ry="0.050000001"
     id="rect340"
     style="fill:currentColor" />
  <path
     d="m 66.179514,14.775973 c 0.032,-0.02 0.072,-0.028 0.108,-0.028 0.036,0 0.072,0.008 0.104,0.028 l -0.012,0.768 0.408,-0.092 h 0.016 c 0.04,0 0.076,0.032 0.076,0.072 0.004,0.82 0.012,1.636 0.016,2.456 0,0.052 0.02,0.072 0.052,0.072 0.068,0 0.192,-0.092 0.304,-0.156 0.008,-0.004 0.016,-0.008 0.024,-0.008 0.024,0 0.048,0.024 0.048,0.048 0,0.008 0,0.02 -0.008,0.028 -0.2,0.288 -0.344,0.608 -0.476,0.936 -0.008,0.016 -0.02,0.024 -0.036,0.024 -0.016,0 -0.028,-0.008 -0.036,-0.024 -0.132,-0.328 -0.272,-0.648 -0.472,-0.936 -0.008,-0.008 -0.012,-0.02 -0.012,-0.028 0,-0.024 0.024,-0.048 0.048,-0.048 0.008,0 0.016,0.004 0.024,0.008 0.112,0.064 0.236,0.156 0.304,0.156 0.032,0 0.052,-0.02 0.052,-0.072 0.004,-0.324 0.004,-0.648 0.008,-0.972 l -0.416,0.092 h -0.016 c -0.04,0 -0.076,-0.032 -0.076,-0.072 z m 0.548,1.06 -0.352,0.076 -0.012,0.804 0.36,-0.08 z"
     id="path342"
     inkscape:connector-curvature="0"
     style="fill:currentColor" />
  <path
     d="m 32.513714,15.951973 h 0.016 c 0.04,0 0.076,0.032 0.076,0.072 l 0.032,2.252 c -0.032,0.02 -0.072,0.028 -0.108,0.028 -0.036,0 -0.072,-0.008 -0.104,-0.028 l 0.008,-0.768 -0.404,0.092 h -0.016 c -0.04,0 -0.076,-0.032 -0.076,-0.072 -0.004,-0.82 -0.012,-1.636 -0.016,-2.456 0,-0.052 -0.02,-0.072 -0.052,-0.072 -0.068,0 -0.192,0.092 -0.304,0.156 -0.008,0.004 -0.016,0.008 -0.024,0.008 -0.024,0 -0.048,-0.024 -0.048,-0.048 0,-0.008 0,-0.02 0.008,-0.028 0.2,-0.288 0.344,-0.608 0.476,-0.936 0.008,-0.016 0.02,-0.024 0.036,-0.024 0.016,0 0.028,0.008 0.036,0.024 0.132,0.328 0.272,0.648 0.472,0.936 0.008,0.008 0.008,0.02 0.008,0.028 0,0.024 -0.02,0.048 -0.044,0.048 -0.008,0 -0.016,-0.004 -0.024,-0.008 -0.112,-0.064 -0.24,-0.156 -0.308,-0.156 -0.032,0 -0.052,0.02 -0.052,0.072 -0.004,0.324 0,0.648 -0.004,0.972 z m -0.064,0.384 -0.356,0.08 -0.004,0.8 0.352,-0.076 z"
     id="path344"
     inkscape:connector-curvature="0"
     style="fill:currentColor" />
  <path
     d="m 38.796114,16.223973 c 0.236,0 0.452,0.124 0.452,0.38 0,0.284 -0.208,0.48 -0.396,0.592 -0.136,0.084 -0.292,0.132 -0.452,0.132 -0.236,0 -0.452,-0.124 -0.452,-0.38 0,-0.284 0.212,-0.48 0.4,-0.592 0.136,-0.084 0.288,-0.132 0.448,-0.132 z"
     id="path346"
     inkscape:connector-curvature="0"
     style="fill:currentColor" />
  <path
     d="m 3.3984141,15.719973 c 0.012,0 0.028,-0.004 0.04,-0.004 0.628,0 1.032,0.516 1.032,1.052 0,0.308 -0.132,0.62 -0.432,0.844 -0.088,0.064 -0.184,0.116 -0.288,0.148 0.012,0.132 0.016,0.264 0.016,0.396 0,0.084 0,0.164 -0.004,0.248 -0.028,0.484 -0.364,0.916 -0.844,0.916 -0.432,0 -0.784,-0.352 -0.784,-0.788 0,-0.232 0.216,-0.412 0.452,-0.412 0.216,0 0.38,0.188 0.38,0.412 0,0.208 -0.172,0.38 -0.38,0.38 -0.036,0 -0.072,-0.004 -0.108,-0.016 0.1,0.148 0.264,0.244 0.452,0.244 0.38,0 0.624,-0.372 0.648,-0.764 0.004,-0.076 0.008,-0.152 0.008,-0.228 0,-0.116 -0.004,-0.232 -0.012,-0.348 -0.116,0.02 -0.232,0.032 -0.352,0.032 -0.756,0 -1.332,-0.692 -1.332,-1.504 0,-0.708 0.516,-1.232 0.976,-1.772 -0.08,-0.248 -0.16,-0.496 -0.192,-0.756 -0.028,-0.208 -0.028,-0.42 -0.028,-0.632 0,-0.456 0.216,-0.884 0.588,-1.152 0.016,-0.012 0.032,-0.016 0.048,-0.016 0.02,0 0.036,0.008 0.052,0.02 0.288,0.332 0.54,0.972 0.54,1.424 0,0.568 -0.336,1.02 -0.704,1.456 0.084,0.272 0.16,0.544 0.228,0.82 z m 0.336,1.86 c 0.26,-0.096 0.44,-0.376 0.44,-0.644 0,-0.352 -0.256,-0.7 -0.668,-0.752 0.096,0.456 0.176,0.908 0.228,1.396 z m -1.544,-0.904 c 0,0.532 0.512,0.972 1.044,0.972 0.108,0 0.22,-0.004 0.324,-0.02 -0.052,-0.504 -0.14,-0.976 -0.24,-1.448 -0.316,0.032 -0.496,0.24 -0.496,0.472 0,0.172 0.1,0.352 0.32,0.48 0.02,0.02 0.028,0.044 0.028,0.068 0,0.048 -0.04,0.092 -0.092,0.092 -0.012,0 -0.028,-0.004 -0.04,-0.008 -0.324,-0.172 -0.472,-0.46 -0.472,-0.744 0,-0.356 0.24,-0.708 0.652,-0.8 -0.056,-0.228 -0.12,-0.452 -0.188,-0.676 -0.42,0.488 -0.84,0.972 -0.84,1.612 z m 1.304,-4.052 c -0.396,0.184 -0.644,0.58 -0.644,1.016 0,0.284 0.084,0.52 0.156,0.752 0.312,-0.388 0.568,-0.796 0.568,-1.296 0,-0.204 -0.016,-0.288 -0.08,-0.472 z"
     id="path348"
     inkscape:connector-curvature="0"
     style="fill:currentColor" />
  <path
     d="m 6.2244141,18.591973 c -0.048,0 -0.084,-0.036 -0.084,-0.084 v -0.552 l -0.316,0.12 v 0.616 c 0,0.048 -0.036,0.084 -0.084,0.084 -0.048,0 -0.084,-0.036 -0.084,-0.084 v -0.552 l -0.088,0.032 c -0.012,0.004 -0.024,0.008 -0.036,0.008 -0.052,0 -0.1,-0.044 -0.1,-0.1 v -0.216 c 0,-0.04 0.024,-0.08 0.064,-0.096 l 0.16,-0.06 v -0.62 l -0.088,0.036 c -0.012,0.004 -0.024,0.004 -0.036,0.004 -0.052,0 -0.1,-0.044 -0.1,-0.1 v -0.216 c 0,-0.04 0.024,-0.076 0.064,-0.092 l 0.16,-0.06 v -0.616 c 0,-0.048 0.036,-0.084 0.084,-0.084 0.048,0 0.084,0.036 0.084,0.084 v 0.552 l 0.316,-0.12 v -0.616 c 0,-0.048 0.036,-0.084 0.084,-0.084 0.048,0 0.084,0.036 0.084,0.084 v 0.552 l 0.088,-0.032 c 0.012,-0.004 0.024,-0.008 0.036,-0.008 0.052,0 0.1,0.044 0.1,0.1 v 0.216 c 0,0.04 -0.024,0.08 -0.064,0.096 l -0.16,0.06 v 0.62 l 0.088,-0.036 c 0.012,-0.004 0.024,-0.004 0.036,-0.004 0.052,0 0.1,0.044 0.1,0.1 v 0.216 c 0,0.04 -0.024,0.076 -0.064,0.092 l -0.16,0.06 v 0.616 c 0,0.048 -0.036,0.084 -0.084,0.084 z m -0.4,-1.564 v 0.616 l 0.316,-0.12 v -0.616 z"
     id="path350"
     inkscape:connector-curvature="0"
     style="fill:currentColor" />
  <text
     font-size="1.7463"
     id="text352"
     style="font-size:1.74629998px;text-anchor:start;fill:currentColor;font-family:serif"
     x="-0.027285937"
     y="12.725973">
    <tspan
       id="tspan354">4</tspan>
  </text>
  <rect
     x="8.0318136"
     y="14.484173"
     width="0.1514"
     height="2.6205001"
     ry="0.050000001"
     id="rect356"
     style="fill:currentColor" />
  <path
     d="m 7.7304141,16.723973 c 0.236,0 0.452,0.124 0.452,0.38 0,0.284 -0.208,0.48 -0.396,0.592 -0.136,0.084 -0.292,0.132 -0.452,0.132 -0.236,0 -0.452,-0.124 -0.452,-0.38 0,-0.284 0.212,-0.48 0.4,-0.592 0.136,-0.084 0.288,-0.132 0.448,-0.132 z"
     id="path358"
     inkscape:connector-curvature="0"
     style="fill:currentColor" />
  <path
     d="m 13.097214,16.723973 c 0.236,0 0.452,0.124 0.452,0.38 0,0.284 -0.208,0.48 -0.396,0.592 -0.136,0.084 -0.292,0.132 -0.452,0.132 -0.236,0 -0.452,-0.124 -0.452,-0.38 0,-0.284 0.212,-0.48 0.4,-0.592 0.136,-0.084 0.288,-0.132 0.448,-0.132 z"
     id="path360"
     inkscape:connector-curvature="0"
     style="fill:currentColor" />
  <rect
     x="13.398714"
     y="14.484173"
     width="0.1514"
     height="2.6205001"
     ry="0.050000001"
     id="rect362"
     style="fill:currentColor" />
  <path
     d="m 11.591214,18.591973 c -0.048,0 -0.084,-0.036 -0.084,-0.084 v -0.552 l -0.316,0.12 v 0.616 c 0,0.048 -0.036,0.084 -0.084,0.084 -0.048,0 -0.084,-0.036 -0.084,-0.084 v -0.552 l -0.088,0.032 c -0.012,0.004 -0.024,0.008 -0.036,0.008 -0.052,0 -0.1,-0.044 -0.1,-0.1 v -0.216 c 0,-0.04 0.024,-0.08 0.064,-0.096 l 0.16,-0.06 v -0.62 l -0.088,0.036 c -0.012,0.004 -0.024,0.004 -0.036,0.004 -0.052,0 -0.1,-0.044 -0.1,-0.1 v -0.216 c 0,-0.04 0.024,-0.076 0.064,-0.092 l 0.16,-0.06 v -0.616 c 0,-0.048 0.036,-0.084 0.084,-0.084 0.048,0 0.084,0.036 0.084,0.084 v 0.552 l 0.316,-0.12 v -0.9 c 0,-0.052 -0.02,-0.076 -0.052,-0.076 -0.068,0 -0.196,0.092 -0.308,0.156 -0.04,0.024 -0.084,-0.02 -0.056,-0.06 0.204,-0.288 0.332,-0.616 0.464,-0.944 0.008,-0.016 0.024,-0.024 0.036,-0.024 0.012,0 0.024,0.008 0.032,0.024 0.132,0.328 0.26,0.656 0.464,0.944 0.004,0.008 0.008,0.016 0.008,0.024 0,0.032 -0.032,0.056 -0.064,0.036 -0.112,-0.064 -0.24,-0.156 -0.308,-0.156 -0.032,0 -0.048,0.024 -0.048,0.076 v 0.836 l 0.088,-0.032 c 0.012,-0.004 0.024,-0.008 0.036,-0.008 0.052,0 0.1,0.044 0.1,0.1 v 0.216 c 0,0.04 -0.024,0.08 -0.064,0.096 l -0.16,0.06 v 0.62 l 0.088,-0.036 c 0.012,-0.004 0.024,-0.004 0.036,-0.004 0.052,0 0.1,0.044 0.1,0.1 v 0.216 c 0,0.04 -0.024,0.076 -0.064,0.092 l -0.16,0.06 v 0.616 c 0,0.048 -0.036,0.084 -0.084,0.084 z m -0.4,-1.564 v 0.616 l 0.316,-0.12 v -0.616 z"
     id="path364"
     inkscape:connector-curvature="0"
     style="fill:currentColor" />
  <path
     d="m 18.964114,16.723973 c 0.236,0 0.452,0.124 0.452,0.38 0,0.284 -0.208,0.48 -0.396,0.592 -0.136,0.084 -0.292,0.132 -0.452,0.132 -0.236,0 -0.452,-0.124 -0.452,-0.38 0,-0.284 0.212,-0.48 0.4,-0.592 0.136,-0.084 0.288,-0.132 0.448,-0.132 z"
     id="path366"
     inkscape:connector-curvature="0"
     style="fill:currentColor" />
  <path
     d="m 55.769914,18.091973 c -0.048,0 -0.084,-0.036 -0.084,-0.084 v -0.552 l -0.316,0.12 v 0.616 c 0,0.048 -0.036,0.084 -0.084,0.084 -0.048,0 -0.084,-0.036 -0.084,-0.084 v -0.552 l -0.088,0.032 c -0.012,0.004 -0.024,0.008 -0.036,0.008 -0.052,0 -0.1,-0.044 -0.1,-0.1 v -0.216 c 0,-0.04 0.024,-0.08 0.064,-0.096 l 0.16,-0.06 v -0.62 l -0.088,0.036 c -0.012,0.004 -0.024,0.004 -0.036,0.004 -0.052,0 -0.1,-0.044 -0.1,-0.1 v -0.216 c 0,-0.04 0.024,-0.076 0.064,-0.092 l 0.16,-0.06 v -0.616 c 0,-0.048 0.036,-0.084 0.084,-0.084 0.048,0 0.084,0.036 0.084,0.084 v 0.552 l 0.316,-0.12 v -0.9 c 0,-0.052 -0.02,-0.076 -0.052,-0.076 -0.068,0 -0.196,0.092 -0.308,0.156 -0.04,0.024 -0.084,-0.02 -0.056,-0.06 0.204,-0.288 0.332,-0.616 0.464,-0.944 0.008,-0.016 0.024,-0.024 0.036,-0.024 0.012,0 0.024,0.008 0.032,0.024 0.132,0.328 0.26,0.656 0.464,0.944 0.004,0.008 0.008,0.016 0.008,0.024 0,0.032 -0.032,0.056 -0.064,0.036 -0.112,-0.064 -0.24,-0.156 -0.308,-0.156 -0.032,0 -0.048,0.024 -0.048,0.076 v 0.836 l 0.088,-0.032 c 0.012,-0.004 0.024,-0.008 0.036,-0.008 0.052,0 0.1,0.044 0.1,0.1 v 0.216 c 0,0.04 -0.024,0.08 -0.064,0.096 l -0.16,0.06 v 0.62 l 0.088,-0.036 c 0.012,-0.004 0.024,-0.004 0.036,-0.004 0.052,0 0.1,0.044 0.1,0.1 v 0.216 c 0,0.04 -0.024,0.076 -0.064,0.092 l -0.16,0.06 v 0.616 c 0,0.048 -0.036,0.084 -0.084,0.084 z m -0.4,-1.564 v 0.616 l 0.316,-0.12 v -0.616 z"
     id="path368"
     inkscape:connector-curvature="0"
     style="fill:currentColor" />
  <path
     d="m 50.403014,18.091973 c -0.048,0 -0.084,-0.036 -0.084,-0.084 v -0.552 l -0.316,0.12 v 0.616 c 0,0.048 -0.036,0.084 -0.084,0.084 -0.048,0 -0.084,-0.036 -0.084,-0.084 v -0.552 l -0.088,0.032 c -0.012,0.004 -0.024,0.008 -0.036,0.008 -0.052,0 -0.1,-0.044 -0.1,-0.1 v -0.216 c 0,-0.04 0.024,-0.08 0.064,-0.096 l 0.16,-0.06 v -0.62 l -0.088,0.036 c -0.012,0.004 -0.024,0.004 -0.036,0.004 -0.052,0 -0.1,-0.044 -0.1,-0.1 v -0.216 c 0,-0.04 0.024,-0.076 0.064,-0.092 l 0.16,-0.06 v -0.616 c 0,-0.048 0.036,-0.084 0.084,-0.084 0.048,0 0.084,0.036 0.084,0.084 v 0.552 l 0.316,-0.12 v -0.616 c 0,-0.048 0.036,-0.084 0.084,-0.084 0.048,0 0.084,0.036 0.084,0.084 v 0.552 l 0.088,-0.032 c 0.012,-0.004 0.024,-0.008 0.036,-0.008 0.052,0 0.1,0.044 0.1,0.1 v 0.216 c 0,0.04 -0.024,0.08 -0.064,0.096 l -0.16,0.06 v 0.62 l 0.088,-0.036 c 0.012,-0.004 0.024,-0.004 0.036,-0.004 0.052,0 0.1,0.044 0.1,0.1 v 0.216 c 0,0.04 -0.024,0.076 -0.064,0.092 l -0.16,0.06 v 0.616 c 0,0.048 -0.036,0.084 -0.084,0.084 z m -0.4,-1.564 v 0.616 l 0.316,-0.12 v -0.616 z"
     id="path370"
     inkscape:connector-curvature="0"
     style="fill:currentColor" />
  <path
     d="m 57.275914,16.223973 c 0.236,0 0.452,0.124 0.452,0.38 0,0.284 -0.208,0.48 -0.396,0.592 -0.136,0.084 -0.292,0.132 -0.452,0.132 -0.236,0 -0.452,-0.124 -0.452,-0.38 0,-0.284 0.212,-0.48 0.4,-0.592 0.136,-0.084 0.288,-0.132 0.448,-0.132 z"
     id="path372"
     inkscape:connector-curvature="0"
     style="fill:currentColor" />
  <rect
     x="57.577312"
     y="13.775972"
     width="0.1514"
     height="2.8287001"
     ry="0.050000001"
     id="rect374"
     style="fill:currentColor" />
  <path
     d="m 63.142714,16.223973 c 0.236,0 0.452,0.124 0.452,0.38 0,0.284 -0.208,0.48 -0.396,0.592 -0.136,0.084 -0.292,0.132 -0.452,0.132 -0.236,0 -0.452,-0.124 -0.452,-0.38 0,-0.284 0.212,-0.48 0.4,-0.592 0.136,-0.084 0.288,-0.132 0.448,-0.132 z"
     id="path376"
     inkscape:connector-curvature="0"
     style="fill:currentColor" />
  <rect
     x="63.444115"
     y="13.771672"
     width="0.1514"
     height="2.8329999"
     ry="0.050000001"
     id="rect378"
     style="fill:currentColor" />
  <path
     d="m 61.144714,18.159973 c -0.048,0 -0.084,-0.036 -0.084,-0.084 v -0.54 l -0.284,0.072 v 0.584 c 0,0.048 -0.032,0.084 -0.08,0.084 -0.048,0 -0.084,-0.036 -0.084,-0.084 v -0.54 l -0.14,0.036 c -0.008,0.004 -0.02,0.004 -0.028,0.004 -0.052,0 -0.1,-0.044 -0.1,-0.1 v -0.216 c 0,-0.044 0.032,-0.088 0.076,-0.1 l 0.192,-0.048 v -0.624 l -0.14,0.036 c -0.008,0.004 -0.02,0 -0.028,0 -0.052,0 -0.1,-0.044 -0.1,-0.1 v -0.216 c 0,-0.044 0.032,-0.084 0.076,-0.096 l 0.192,-0.048 v -0.584 c 0,-0.048 0.036,-0.084 0.084,-0.084 0.048,0 0.08,0.036 0.08,0.084 v 0.54 l 0.284,-0.076 v -0.584 c 0,-0.048 0.036,-0.084 0.084,-0.084 0.048,0 0.084,0.036 0.084,0.084 v 0.54 l 0.284,-0.072 v -0.584 c 0,-0.048 0.032,-0.084 0.08,-0.084 0.048,0 0.084,0.036 0.084,0.084 v 0.54 l 0.14,-0.036 c 0.008,-0.004 0.02,-0.004 0.028,-0.004 0.052,0 0.1,0.044 0.1,0.1 v 0.216 c 0,0.044 -0.032,0.088 -0.076,0.1 l -0.192,0.048 v 0.624 l 0.14,-0.036 c 0.008,-0.004 0.02,0 0.028,0 0.052,0 0.1,0.044 0.1,0.1 v 0.216 c 0,0.044 -0.032,0.084 -0.076,0.096 l -0.192,0.048 v 0.584 c 0,0.048 -0.036,0.084 -0.084,0.084 -0.048,0 -0.08,-0.036 -0.08,-0.084 v -0.54 l -0.284,0.076 v 0.584 c 0,0.048 -0.036,0.084 -0.084,0.084 z m -0.368,-1.6 v 0.624 l 0.284,-0.072 v -0.628 z m 0.736,-0.192 -0.284,0.072 v 0.628 l 0.284,-0.076 v -0.624 z"
     id="path380"
     inkscape:connector-curvature="0"
     style="fill:currentColor" />
  <path
     d="m 68.087014,15.723973 c 0.236,0 0.452,0.124 0.452,0.38 0,0.284 -0.208,0.48 -0.396,0.592 -0.136,0.084 -0.292,0.132 -0.452,0.132 -0.236,0 -0.452,-0.124 -0.452,-0.38 0,-0.284 0.212,-0.48 0.4,-0.592 0.136,-0.084 0.288,-0.132 0.448,-0.132 z"
     id="path382"
     inkscape:connector-curvature="0"
     style="fill:currentColor" />
  <rect
     x="68.388512"
     y="13.488473"
     width="0.1514"
     height="2.6161001"
     ry="0.050000001"
     id="rect384"
     style="fill:currentColor" />
  <path
     d="m 37.330114,18.023973 c 0,0.048 -0.036,0.08 -0.084,0.08 -0.048,0 -0.08,-0.032 -0.08,-0.08 v -0.448 l -0.116,0.068 c -0.016,0.008 -0.036,0.016 -0.052,0.016 -0.052,0 -0.1,-0.044 -0.1,-0.104 v -0.216 c 0,-0.036 0.016,-0.064 0.048,-0.084 l 0.22,-0.132 v -0.6 l -0.116,0.068 c -0.016,0.008 -0.036,0.016 -0.052,0.016 -0.052,0 -0.1,-0.04 -0.1,-0.1 v -0.216 c 0,-0.036 0.016,-0.068 0.048,-0.088 l 0.22,-0.128 v -0.548 c 0,-0.048 0.032,-0.08 0.08,-0.08 0.048,0 0.084,0.032 0.084,0.08 v 0.448 l 0.116,-0.068 c 0.016,-0.008 0.036,-0.016 0.052,-0.016 0.052,0 0.1,0.044 0.1,0.104 v 0.216 c 0,0.036 -0.016,0.064 -0.048,0.084 l -0.22,0.132 v 0.6 l 0.116,-0.068 c 0.016,-0.008 0.036,-0.016 0.052,-0.016 0.052,0 0.1,0.04 0.1,0.1 v 0.216 c 0,0.036 -0.016,0.068 -0.048,0.088 l -0.22,0.128 v 0.548 z"
     id="path386"
     inkscape:connector-curvature="0"
     style="fill:currentColor" />
  <path
     d="m 44.162914,16.223973 c 0.236,0 0.452,0.124 0.452,0.38 0,0.284 -0.208,0.48 -0.396,0.592 -0.136,0.084 -0.292,0.132 -0.452,0.132 -0.236,0 -0.452,-0.124 -0.452,-0.38 0,-0.284 0.212,-0.48 0.4,-0.592 0.136,-0.084 0.288,-0.132 0.448,-0.132 z"
     id="path388"
     inkscape:connector-curvature="0"
     style="fill:currentColor" />
  <rect
     x="44.464413"
     y="13.775972"
     width="0.1514"
     height="2.8287001"
     ry="0.050000001"
     id="rect390"
     style="fill:currentColor" />
  <path
     d="m 42.656914,18.091973 c -0.048,0 -0.084,-0.036 -0.084,-0.084 v -0.552 l -0.316,0.12 v 0.9 c 0,0.052 0.02,0.076 0.052,0.076 0.068,0 0.196,-0.092 0.308,-0.156 0.04,-0.024 0.084,0.02 0.056,0.06 -0.204,0.288 -0.332,0.616 -0.464,0.944 -0.008,0.016 -0.024,0.024 -0.036,0.024 -0.012,0 -0.024,-0.008 -0.032,-0.024 -0.132,-0.328 -0.26,-0.656 -0.464,-0.944 -0.004,-0.008 -0.008,-0.016 -0.008,-0.024 0,-0.032 0.032,-0.056 0.064,-0.036 0.112,0.064 0.24,0.156 0.308,0.156 0.032,0 0.048,-0.024 0.048,-0.076 v -0.836 l -0.088,0.032 c -0.012,0.004 -0.024,0.008 -0.036,0.008 -0.052,0 -0.1,-0.044 -0.1,-0.1 v -0.216 c 0,-0.04 0.024,-0.08 0.064,-0.096 l 0.16,-0.06 v -0.62 l -0.088,0.036 c -0.012,0.004 -0.024,0.004 -0.036,0.004 -0.052,0 -0.1,-0.044 -0.1,-0.1 v -0.216 c 0,-0.04 0.024,-0.076 0.064,-0.092 l 0.16,-0.06 v -0.616 c 0,-0.048 0.036,-0.084 0.084,-0.084 0.048,0 0.084,0.036 0.084,0.084 v 0.552 l 0.316,-0.12 v -0.616 c 0,-0.048 0.036,-0.084 0.084,-0.084 0.048,0 0.084,0.036 0.084,0.084 v 0.552 l 0.088,-0.032 c 0.012,-0.004 0.024,-0.008 0.036,-0.008 0.052,0 0.1,0.044 0.1,0.1 v 0.216 c 0,0.04 -0.024,0.08 -0.064,0.096 l -0.16,0.06 v 0.62 l 0.088,-0.036 c 0.012,-0.004 0.024,-0.004 0.036,-0.004 0.052,0 0.1,0.044 0.1,0.1 v 0.216 c 0,0.04 -0.024,0.076 -0.064,0.092 l -0.16,0.06 v 0.616 c 0,0.048 -0.036,0.084 -0.084,0.084 z m -0.4,-1.564 v 0.616 l 0.316,-0.12 v -0.616 z"
     id="path392"
     inkscape:connector-curvature="0"
     style="fill:currentColor" />
  <path
     d="m 51.909014,16.223973 c 0.236,0 0.452,0.124 0.452,0.38 0,0.284 -0.208,0.48 -0.396,0.592 -0.136,0.084 -0.292,0.132 -0.452,0.132 -0.236,0 -0.452,-0.124 -0.452,-0.38 0,-0.284 0.212,-0.48 0.4,-0.592 0.136,-0.084 0.288,-0.132 0.448,-0.132 z"
     id="path394"
     inkscape:connector-curvature="0"
     style="fill:currentColor" />
  <rect
     x="52.210514"
     y="13.775972"
     width="0.1514"
     height="2.8287001"
     ry="0.050000001"
     id="rect396"
     style="fill:currentColor" />
  <text
     font-size="2.1999"
     id="text398"
     style="font-size:2.19989991px;text-anchor:start;fill:currentColor;font-family:serif"
     x="68.657715"
     y="202.43718">
    <tspan
       id="tspan400" />
  </text>
</svg>
