<?xml version="1.0" encoding="UTF-8" standalone="no"?>
<svg
   xmlns:dc="http://purl.org/dc/elements/1.1/"
   xmlns:cc="http://creativecommons.org/ns#"
   xmlns:rdf="http://www.w3.org/1999/02/22-rdf-syntax-ns#"
   xmlns:svg="http://www.w3.org/2000/svg"
   xmlns="http://www.w3.org/2000/svg"
   xmlns:xlink="http://www.w3.org/1999/xlink"
   xmlns:sodipodi="http://sodipodi.sourceforge.net/DTD/sodipodi-0.dtd"
   xmlns:inkscape="http://www.inkscape.org/namespaces/inkscape"
   version="1.2"
   width="119.23385"
   height="36.463253"
   viewBox="0 0 23.9362 7.3199978"
   id="svg2"
   inkscape:version="0.48.2 r9819"
   sodipodi:docname="test.svg">
  <metadata
     id="metadata54">
    <rdf:RDF>
      <cc:Work
         rdf:about="">
        <dc:format>image/svg+xml</dc:format>
        <dc:type
           rdf:resource="http://purl.org/dc/dcmitype/StillImage" />
      </cc:Work>
    </rdf:RDF>
  </metadata>
  <defs
     id="defs52" />
  <sodipodi:namedview
     pagecolor="#ffffff"
     bordercolor="#666666"
     borderopacity="1"
     objecttolerance="10"
     gridtolerance="10"
     guidetolerance="10"
     inkscape:pageopacity="0"
     inkscape:pageshadow="2"
     inkscape:window-width="769"
     inkscape:window-height="480"
     id="namedview50"
     showgrid="false"
     fit-margin-top="0"
     fit-margin-left="0"
     fit-margin-right="0"
     fit-margin-bottom="0"
     inkscape:zoom="0.22425739"
     inkscape:cx="283.46445"
     inkscape:cy="-467.01982"
     inkscape:window-x="0"
     inkscape:window-y="0"
     inkscape:window-maximized="0"
     inkscape:current-layer="svg2" />
  <!-- Page: 1/1 -->
  <text
     font-size="2.1999"
     id="text4"
     style="font-size:2.19989991px;text-anchor:start;fill:currentColor;font-family:serif"
     x="-10.6698"
     y="-1.0000272">
    <tspan
       id="tspan6" />
  </text>
  <line
     x1="0.058200002"
     y1="5.7759728"
     x2="23.878"
     y2="5.7759728"
     id="line8"
     style="stroke:currentColor;stroke-width:0.1164;stroke-linecap:round;stroke-linejoin:round" />
  <line
     x1="0.058200002"
     y1="4.7759728"
     x2="23.878"
     y2="4.7759728"
     id="line10"
     style="stroke:currentColor;stroke-width:0.1164;stroke-linecap:round;stroke-linejoin:round" />
  <line
     x1="0.058200002"
     y1="3.7759728"
     x2="23.878"
     y2="3.7759728"
     id="line12"
     style="stroke:currentColor;stroke-width:0.1164;stroke-linecap:round;stroke-linejoin:round" />
  <line
     x1="0.058200002"
     y1="2.7759728"
     x2="23.878"
     y2="2.7759728"
     id="line14"
     style="stroke:currentColor;stroke-width:0.1164;stroke-linecap:round;stroke-linejoin:round" />
  <line
     x1="0.058200002"
     y1="1.7759728"
     x2="23.878"
     y2="1.7759728"
     id="line16"
     style="stroke:currentColor;stroke-width:0.1164;stroke-linecap:round;stroke-linejoin:round" />
  <rect
     x="23.715"
     y="1.7759728"
     width="0.2212"
     height="4"
     ry="0"
     id="rect18"
     style="fill:currentColor" />
  <rect
     x="15.5437"
     y="1.7759728"
     width="0.2212"
     height="4"
     ry="0"
     id="rect20"
     style="fill:currentColor" />
  <a
     xlink:href="textedit://C:/Users/tikeda/Documents/git/LotusRoot/sco.txt:3:3:4"
     id="a22"
     transform="translate(-17.783,-4.5566272)">
    <path
       transform="matrix(0.004,0,0,-0.004,39.298,8.3326)"
       d="M 67,-250 185,76 C 152,64 119,54 84,54 38,54 -3,88 -3,133 c 0,40 33,72 73,72 25,0 49,-14 57,-37 10,-27 4,-59 33,-59 14,0 50,42 56,55 7,14 28,14 34,0 L 131,-250 c -9,-8 -21,-12 -32,-12 -11,0 -23,4 -32,12 z"
       id="path24"
       inkscape:connector-curvature="0"
       style="fill:currentColor" />
  </a>
  <a
     xlink:href="textedit://C:/Users/tikeda/Documents/git/LotusRoot/sco.txt:3:0:1"
     id="a26"
     transform="translate(-17.783,-4.5566272)">
    <path
       transform="matrix(0.004,0,0,-0.004,34.448,8.3326)"
       d="M 362,0 H 13 C 6,0 0,6 0,13 v 131 c 0,7 6,12 13,12 h 349 c 7,0 13,-5 13,-12 V 13 C 375,6 369,0 362,0 z"
       id="path28"
       inkscape:connector-curvature="0"
       style="fill:currentColor" />
  </a>
  <a
     xlink:href="textedit://C:/Users/tikeda/Documents/git/LotusRoot/sco.txt:2:10:11"
     id="a30"
     transform="translate(-17.783,-4.5566272)">
    <path
       transform="matrix(0.004,0,0,-0.004,26.2767,8.3326)"
       d="M 362,0 H 13 C 6,0 0,6 0,13 v 131 c 0,7 6,12 13,12 h 349 c 7,0 13,-5 13,-12 V 13 C 375,6 369,0 362,0 z"
       id="path32"
       inkscape:connector-curvature="0"
       style="fill:currentColor" />
  </a>
  <path
     d="m 2.316,3.7199728 c 0.012,0 0.028,-0.004 0.04,-0.004 0.628,0 1.032,0.516 1.032,1.052 0,0.308 -0.132,0.62 -0.432,0.844 -0.088,0.064 -0.184,0.116 -0.288,0.148 0.012,0.132 0.016,0.264 0.016,0.396 0,0.084 0,0.164 -0.004,0.248 -0.028,0.484 -0.364,0.916 -0.844,0.916 -0.432,0 -0.784,-0.352 -0.784,-0.788 0,-0.232 0.216,-0.412 0.452,-0.412 0.216,0 0.38,0.188 0.38,0.412 0,0.208 -0.172,0.38 -0.38,0.38 -0.036,0 -0.072,-0.004 -0.108,-0.016 0.1,0.148 0.264,0.244 0.452,0.244 0.38,0 0.624,-0.372 0.648,-0.764 0.004,-0.076 0.008,-0.152 0.008,-0.228 0,-0.116 -0.004,-0.232 -0.012,-0.348 -0.116,0.02 -0.232,0.032 -0.352,0.032 -0.756,0 -1.332,-0.692 -1.332,-1.504 0,-0.708 0.516,-1.232 0.976,-1.772 -0.08,-0.248 -0.16,-0.496 -0.192,-0.756 -0.028,-0.208 -0.028,-0.42 -0.028,-0.632 0,-0.45599997 0.216,-0.88399997 0.588,-1.15199997 0.016,-0.012 0.032,-0.01600000111 0.048,-0.01600000111 0.02,0 0.036,0.0080000011 0.052,0.02000000111 0.288,0.332 0.54,0.972 0.54,1.42399997 0,0.568 -0.336,1.02 -0.704,1.456 0.084,0.272 0.16,0.544 0.228,0.82 z m 0.336,1.86 c 0.26,-0.096 0.44,-0.376 0.44,-0.644 0,-0.352 -0.256,-0.7 -0.668,-0.752 0.096,0.456 0.176,0.908 0.228,1.396 z m -1.544,-0.904 c 0,0.532 0.512,0.972 1.044,0.972 0.108,0 0.22,-0.004 0.324,-0.02 -0.052,-0.504 -0.14,-0.976 -0.24,-1.448 -0.316,0.032 -0.496,0.24 -0.496,0.472 0,0.172 0.1,0.352 0.32,0.48 0.02,0.02 0.028,0.044 0.028,0.068 0,0.048 -0.04,0.092 -0.092,0.092 -0.012,0 -0.028,-0.004 -0.04,-0.008 -0.324,-0.172 -0.472,-0.46 -0.472,-0.744 0,-0.356 0.24,-0.708 0.652,-0.8 -0.056,-0.228 -0.12,-0.452 -0.188,-0.676 -0.42,0.488 -0.84,0.972 -0.84,1.612 z M 2.412,0.62397283 c -0.396,0.184 -0.644,0.57999997 -0.644,1.01599997 0,0.284 0.084,0.52 0.156,0.752 0.312,-0.388 0.568,-0.796 0.568,-1.296 0,-0.20399997 -0.016,-0.28799997 -0.08,-0.47199997 z"
     id="path34"
     inkscape:connector-curvature="0"
     style="fill:currentColor" />
  <a
     xlink:href="textedit://C:/Users/tikeda/Documents/git/LotusRoot/sco.txt:2:0:1"
     id="a36"
     transform="translate(-17.783,-4.5566272)">
    <path
       transform="matrix(0.004,0,0,-0.004,22.847,8.3326)"
       d="m 50,500 c 45,-8 91,-13 137,-13 46,0 92,5 137,13 h 4 c 10,0 17,-7 17,-13 0,-2 0,-3 -2,-5 C 275,414 178,385 82,385 72,385 64,377 64,367 v -86 c 28,28 66,40 105,40 116,0 187,-51 187,-161 C 356,65 264,0 163,0 80,0 0,42 0,116 c 0,35 29,64 64,64 35,0 64,-29 64,-64 0,-24 -39,-29 -39,-53 0,-31 38,-37 74,-37 56,0 71,69 71,134 0,61 -12,129 -65,129 -42,0 -84,-9 -108,-42 -3,-5 -8,-7 -13,-7 -8,0 -17,6 -17,16 v 226 c 0,10 7,18 16,18 h 3 z"
       id="path38"
       inkscape:connector-curvature="0"
       style="fill:currentColor" />
    <path
       transform="matrix(0.004,0,0,-0.004,22.783,10.3385)"
       d="m 263,292 c 25,29 45,61 45,99 0,53 -56,83 -114,83 -45,0 -72,-35 -72,-68 0,-19 9,-38 28,-49 z m 34,-20 C 351,241 378,193 378,146 378,72 311,0 186,0 90,0 0,53 0,141 c 0,50 37,85 74,120 -39,28 -58,66 -58,104 0,68 61,135 178,135 82,0 163,-37 163,-109 0,-46 -28,-85 -60,-119 z M 107,241 C 76,213 48,182 48,141 48,73 114,26 186,26 c 53,0 85,41 85,80 0,23 -11,47 -34,60 z"
       id="path40"
       inkscape:connector-curvature="0"
       style="fill:currentColor" />
  </a>
  <a
     xlink:href="textedit://C:/Users/tikeda/Documents/git/LotusRoot/sco.txt:2:13:14"
     id="a42"
     transform="translate(-17.783,-4.5566272)">
    <path
       transform="matrix(0.004,0,0,-0.004,31.1267,8.3326)"
       d="M 67,-250 185,76 C 152,64 119,54 84,54 38,54 -3,88 -3,133 c 0,40 33,72 73,72 25,0 49,-14 57,-37 10,-27 4,-59 33,-59 14,0 50,42 56,55 7,14 28,14 34,0 L 131,-250 c -9,-8 -21,-12 -32,-12 -11,0 -23,4 -32,12 z"
       id="path44"
       inkscape:connector-curvature="0"
       style="fill:currentColor" />
  </a>
  <text
     font-size="2.1999"
     id="text46"
     style="font-size:2.19989991px;text-anchor:start;fill:currentColor;font-family:serif"
     x="56.905499"
     y="202.43718">
    <tspan
       id="tspan48" />
  </text>
</svg>
