<?xml version="1.0" encoding="UTF-8" standalone="no"?>
<svg
   xmlns:dc="http://purl.org/dc/elements/1.1/"
   xmlns:cc="http://creativecommons.org/ns#"
   xmlns:rdf="http://www.w3.org/1999/02/22-rdf-syntax-ns#"
   xmlns:svg="http://www.w3.org/2000/svg"
   xmlns="http://www.w3.org/2000/svg"
   xmlns:sodipodi="http://sodipodi.sourceforge.net/DTD/sodipodi-0.dtd"
   xmlns:inkscape="http://www.inkscape.org/namespaces/inkscape"
   version="1.2"
   width="119.23385"
   height="36.463253"
   viewBox="0 0 23.9362 7.3199978"
   id="svg2"
   inkscape:version="0.48.2 r9819"
   sodipodi:docname="test.svg">
  <metadata
     id="metadata44">
    <rdf:RDF>
      <cc:Work
         rdf:about="">
        <dc:format>image/svg+xml</dc:format>
        <dc:type
           rdf:resource="http://purl.org/dc/dcmitype/StillImage" />
      </cc:Work>
    </rdf:RDF>
  </metadata>
  <defs
     id="defs42" />
  <sodipodi:namedview
     pagecolor="#ffffff"
     bordercolor="#666666"
     borderopacity="1"
     objecttolerance="10"
     gridtolerance="10"
     guidetolerance="10"
     inkscape:pageopacity="0"
     inkscape:pageshadow="2"
     inkscape:window-width="769"
     inkscape:window-height="480"
     id="namedview40"
     showgrid="false"
     fit-margin-top="0"
     fit-margin-left="0"
     fit-margin-right="0"
     fit-margin-bottom="0"
     inkscape:zoom="0.22425739"
     inkscape:cx="283.46445"
     inkscape:cy="-467.01982"
     inkscape:window-x="0"
     inkscape:window-y="0"
     inkscape:window-maximized="0"
     inkscape:current-layer="svg2" />
  <!-- Page: 1/1 -->
  <text
     font-size="2.1999"
     id="text4"
     style="font-size:2.19989991px;text-anchor:start;fill:currentColor;font-family:serif"
     x="-10.6698"
     y="-1.0000272">
    <tspan
       id="tspan6" />
  </text>
  <line
     x1="0.058200002"
     y1="5.7759728"
     x2="23.878"
     y2="5.7759728"
     id="line8"
     style="stroke:currentColor;stroke-width:0.1164;stroke-linecap:round;stroke-linejoin:round" />
  <line
     x1="0.058200002"
     y1="4.7759728"
     x2="23.878"
     y2="4.7759728"
     id="line10"
     style="stroke:currentColor;stroke-width:0.1164;stroke-linecap:round;stroke-linejoin:round" />
  <line
     x1="0.058200002"
     y1="3.7759728"
     x2="23.878"
     y2="3.7759728"
     id="line12"
     style="stroke:currentColor;stroke-width:0.1164;stroke-linecap:round;stroke-linejoin:round" />
  <line
     x1="0.058200002"
     y1="2.7759728"
     x2="23.878"
     y2="2.7759728"
     id="line14"
     style="stroke:currentColor;stroke-width:0.1164;stroke-linecap:round;stroke-linejoin:round" />
  <line
     x1="0.058200002"
     y1="1.7759728"
     x2="23.878"
     y2="1.7759728"
     id="line16"
     style="stroke:currentColor;stroke-width:0.1164;stroke-linecap:round;stroke-linejoin:round" />
  <rect
     x="23.715"
     y="1.7759728"
     width="0.2212"
     height="4"
     ry="0"
     id="rect18"
     style="fill:currentColor" />
  <rect
     x="15.5437"
     y="1.7759728"
     width="0.2212"
     height="4"
     ry="0"
     id="rect20"
     style="fill:currentColor" />
  <path
     d="m 21.783,4.7759728 0.472,-1.304 c -0.132,0.048 -0.264,0.088 -0.404,0.088 -0.184,0 -0.348,-0.136 -0.348,-0.316 0,-0.16 0.132,-0.288 0.292,-0.288 0.1,0 0.196,0.056 0.228,0.148 0.04,0.108 0.016,0.236 0.132,0.236 0.056,0 0.2,-0.168 0.224,-0.22 0.028,-0.056 0.112,-0.056 0.136,0 l -0.476,1.656 c -0.036,0.032 -0.084,0.048 -0.128,0.048 -0.044,0 -0.092,-0.016 -0.128,-0.048 z"
     id="path22"
     inkscape:connector-curvature="0"
     style="fill:currentColor" />
  <path
     d="m 18.113,3.7759728 h -1.396 c -0.028,0 -0.052,-0.024 -0.052,-0.052 v -0.524 c 0,-0.028 0.024,-0.048 0.052,-0.048 h 1.396 c 0.028,0 0.052,0.02 0.052,0.048 v 0.524 c 0,0.028 -0.024,0.052 -0.052,0.052 z"
     id="path24"
     inkscape:connector-curvature="0"
     style="fill:currentColor" />
  <path
     d="m 9.9417,3.7759728 h -1.396 c -0.028,0 -0.052,-0.024 -0.052,-0.052 v -0.524 c 0,-0.028 0.024,-0.048 0.052,-0.048 h 1.396 c 0.028,0 0.052,0.02 0.052,0.048 v 0.524 c 0,0.028 -0.024,0.052 -0.052,0.052 z"
     id="path26"
     inkscape:connector-curvature="0"
     style="fill:currentColor" />
  <path
     d="m 2.316,3.7199728 c 0.012,0 0.028,-0.004 0.04,-0.004 0.628,0 1.032,0.516 1.032,1.052 0,0.308 -0.132,0.62 -0.432,0.844 -0.088,0.064 -0.184,0.116 -0.288,0.148 0.012,0.132 0.016,0.264 0.016,0.396 0,0.084 0,0.164 -0.004,0.248 -0.028,0.484 -0.364,0.916 -0.844,0.916 -0.432,0 -0.784,-0.352 -0.784,-0.788 0,-0.232 0.216,-0.412 0.452,-0.412 0.216,0 0.38,0.188 0.38,0.412 0,0.208 -0.172,0.38 -0.38,0.38 -0.036,0 -0.072,-0.004 -0.108,-0.016 0.1,0.148 0.264,0.244 0.452,0.244 0.38,0 0.624,-0.372 0.648,-0.764 0.004,-0.076 0.008,-0.152 0.008,-0.228 0,-0.116 -0.004,-0.232 -0.012,-0.348 -0.116,0.02 -0.232,0.032 -0.352,0.032 -0.756,0 -1.332,-0.692 -1.332,-1.504 0,-0.708 0.516,-1.232 0.976,-1.772 -0.08,-0.248 -0.16,-0.496 -0.192,-0.756 -0.028,-0.208 -0.028,-0.42 -0.028,-0.632 0,-0.45599997 0.216,-0.88399997 0.588,-1.15199997 0.016,-0.012 0.032,-0.01600000111 0.048,-0.01600000111 0.02,0 0.036,0.0080000011 0.052,0.02000000111 0.288,0.332 0.54,0.972 0.54,1.42399997 0,0.568 -0.336,1.02 -0.704,1.456 0.084,0.272 0.16,0.544 0.228,0.82 z m 0.336,1.86 c 0.26,-0.096 0.44,-0.376 0.44,-0.644 0,-0.352 -0.256,-0.7 -0.668,-0.752 0.096,0.456 0.176,0.908 0.228,1.396 z m -1.544,-0.904 c 0,0.532 0.512,0.972 1.044,0.972 0.108,0 0.22,-0.004 0.324,-0.02 -0.052,-0.504 -0.14,-0.976 -0.24,-1.448 -0.316,0.032 -0.496,0.24 -0.496,0.472 0,0.172 0.1,0.352 0.32,0.48 0.02,0.02 0.028,0.044 0.028,0.068 0,0.048 -0.04,0.092 -0.092,0.092 -0.012,0 -0.028,-0.004 -0.04,-0.008 -0.324,-0.172 -0.472,-0.46 -0.472,-0.744 0,-0.356 0.24,-0.708 0.652,-0.8 -0.056,-0.228 -0.12,-0.452 -0.188,-0.676 -0.42,0.488 -0.84,0.972 -0.84,1.612 z M 2.412,0.62397283 c -0.396,0.184 -0.644,0.57999997 -0.644,1.01599997 0,0.284 0.084,0.52 0.156,0.752 0.312,-0.388 0.568,-0.796 0.568,-1.296 0,-0.20399997 -0.016,-0.28799997 -0.08,-0.47199997 z"
     id="path28"
     inkscape:connector-curvature="0"
     style="fill:currentColor" />
  <path
     d="m 5.264,1.7759728 c 0.18,0.032 0.364,0.052 0.548,0.052 0.184,0 0.368,-0.02 0.548,-0.052 h 0.016 c 0.04,0 0.068,0.028 0.068,0.052 0,0.008 0,0.012 -0.008,0.02 -0.272,0.272 -0.66,0.388 -1.044,0.388 -0.04,0 -0.072,0.032 -0.072,0.072 v 0.344 c 0.112,-0.112 0.264,-0.16 0.42,-0.16 0.464,0 0.748,0.204 0.748,0.644 0,0.38 -0.368,0.64 -0.772,0.64 -0.332,0 -0.652,-0.168 -0.652,-0.464 0,-0.14 0.116,-0.256 0.256,-0.256 0.14,0 0.256,0.116 0.256,0.256 0,0.096 -0.156,0.116 -0.156,0.212 0,0.124 0.152,0.148 0.296,0.148 0.224,0 0.284,-0.276 0.284,-0.536 0,-0.244 -0.048,-0.516 -0.26,-0.516 -0.168,0 -0.336,0.036 -0.432,0.168 -0.012,0.02 -0.032,0.028 -0.052,0.028 -0.032,0 -0.068,-0.024 -0.068,-0.064 v -0.904 c 0,-0.04 0.028,-0.072 0.064,-0.072 h 0.012 z"
     id="path30"
     inkscape:connector-curvature="0"
     style="fill:currentColor" />
  <path
     d="m 6.052,4.6138728 c 0.1,-0.116 0.18,-0.244 0.18,-0.396 0,-0.212 -0.224,-0.332 -0.456,-0.332 -0.18,0 -0.288,0.14 -0.288,0.272 0,0.076 0.036,0.152 0.112,0.196 z m 0.136,0.08 c 0.216,0.124 0.324,0.316 0.324,0.504 0,0.296 -0.268,0.584 -0.768,0.584 -0.384,0 -0.744,-0.212 -0.744,-0.564 0,-0.2 0.148,-0.34 0.296,-0.48 -0.156,-0.112 -0.232,-0.264 -0.232,-0.416 0,-0.272 0.244,-0.54 0.712,-0.54 0.328,0 0.652,0.148 0.652,0.436 0,0.184 -0.112,0.34 -0.24,0.476 z m -0.76,0.124 c -0.124,0.112 -0.236,0.236 -0.236,0.4 0,0.272 0.264,0.46 0.552,0.46 0.212,0 0.34,-0.164 0.34,-0.32 0,-0.092 -0.044,-0.188 -0.136,-0.24 z"
     id="path32"
     inkscape:connector-curvature="0"
     style="fill:currentColor" />
  <path
     d="m 13.6117,4.7759728 0.472,-1.304 c -0.132,0.048 -0.264,0.088 -0.404,0.088 -0.184,0 -0.348,-0.136 -0.348,-0.316 0,-0.16 0.132,-0.288 0.292,-0.288 0.1,0 0.196,0.056 0.228,0.148 0.04,0.108 0.016,0.236 0.132,0.236 0.056,0 0.2,-0.168 0.224,-0.22 0.028,-0.056 0.112,-0.056 0.136,0 l -0.476,1.656 c -0.036,0.032 -0.084,0.048 -0.128,0.048 -0.044,0 -0.092,-0.016 -0.128,-0.048 z"
     id="path34"
     inkscape:connector-curvature="0"
     style="fill:currentColor" />
  <text
     font-size="2.1999"
     id="text36"
     style="font-size:2.19989991px;text-anchor:start;fill:currentColor;font-family:serif"
     x="56.905499"
     y="202.43718">
    <tspan
       id="tspan38" />
  </text>
</svg>
