<?xml version="1.0" encoding="UTF-8" standalone="no"?>
<svg
   xmlns:dc="http://purl.org/dc/elements/1.1/"
   xmlns:cc="http://creativecommons.org/ns#"
   xmlns:rdf="http://www.w3.org/1999/02/22-rdf-syntax-ns#"
   xmlns:svg="http://www.w3.org/2000/svg"
   xmlns="http://www.w3.org/2000/svg"
   xmlns:xlink="http://www.w3.org/1999/xlink"
   xmlns:sodipodi="http://sodipodi.sourceforge.net/DTD/sodipodi-0.dtd"
   xmlns:inkscape="http://www.inkscape.org/namespaces/inkscape"
   version="1.2"
   width="40.012932mm"
   height="10.290742mm"
   viewBox="0 0 28.461961 7.3199988"
   id="svg52"
   sodipodi:docname="05-2.svg"
   inkscape:version="0.92.1 r15371">
  <metadata
     id="metadata58">
    <rdf:RDF>
      <cc:Work
         rdf:about="">
        <dc:format>image/svg+xml</dc:format>
        <dc:type
           rdf:resource="http://purl.org/dc/dcmitype/StillImage" />
        <dc:title></dc:title>
      </cc:Work>
    </rdf:RDF>
  </metadata>
  <defs
     id="defs56" />
  <sodipodi:namedview
     pagecolor="#ffffff"
     bordercolor="#666666"
     borderopacity="1"
     objecttolerance="10"
     gridtolerance="10"
     guidetolerance="10"
     inkscape:pageopacity="0"
     inkscape:pageshadow="2"
     inkscape:window-width="716"
     inkscape:window-height="480"
     id="namedview54"
     showgrid="false"
     fit-margin-top="0"
     fit-margin-left="0"
     fit-margin-right="0"
     fit-margin-bottom="0"
     inkscape:zoom="0.2102413"
     inkscape:cx="302.36647"
     inkscape:cy="-498.15463"
     inkscape:window-x="0"
     inkscape:window-y="0"
     inkscape:window-maximized="0"
     inkscape:current-layer="svg52" />
  <!-- Page: 1/1 -->
  <text
     font-size="2.1999"
     id="text4"
     style="font-size:2.19989991px;font-family:serif;text-anchor:start;fill:currentColor"
     x="-10.668971"
     y="-1">
    <tspan
       id="tspan2" />
  </text>
  <line
     x1="0.059028916"
     y1="5.776"
     x2="28.402929"
     y2="5.776"
     id="line6"
     style="stroke:currentColor;stroke-width:0.1164;stroke-linecap:round;stroke-linejoin:round" />
  <line
     x1="0.059028916"
     y1="4.776"
     x2="28.402929"
     y2="4.776"
     id="line8"
     style="stroke:currentColor;stroke-width:0.1164;stroke-linecap:round;stroke-linejoin:round" />
  <line
     x1="0.059028916"
     y1="3.776"
     x2="28.402929"
     y2="3.776"
     id="line10"
     style="stroke:currentColor;stroke-width:0.1164;stroke-linecap:round;stroke-linejoin:round" />
  <line
     x1="0.059028916"
     y1="2.776"
     x2="28.402929"
     y2="2.776"
     id="line12"
     style="stroke:currentColor;stroke-width:0.1164;stroke-linecap:round;stroke-linejoin:round" />
  <line
     x1="0.059028916"
     y1="1.776"
     x2="28.402929"
     y2="1.776"
     id="line14"
     style="stroke:currentColor;stroke-width:0.1164;stroke-linecap:round;stroke-linejoin:round" />
  <rect
     x="17.870628"
     y="1.776"
     width="0.2212"
     height="4"
     ry="0.0000"
     id="rect16"
     style="fill:currentColor" />
  <rect
     x="28.239929"
     y="1.776"
     width="0.2212"
     height="4"
     ry="0.0000"
     id="rect18"
     style="fill:currentColor" />
  <a
     style="color:inherit"
     xlink:href="textedit://C:/Users/tikeda/Documents/git/LotusRoot/sco.txt:3:3:4"
     id="a22"
     transform="translate(-17.782171,-4.5566)">
    <path
       transform="matrix(0.004,0,0,-0.004,40.9221,8.3326)"
       d="M 362,0 H 13 C 6,0 0,6 0,13 v 131 c 0,7 6,12 13,12 h 349 c 7,0 13,-5 13,-12 V 13 C 375,6 369,0 362,0 Z"
       id="path20"
       inkscape:connector-curvature="0"
       style="fill:currentColor" />
  </a>
  <path
     d="m 25.081329,3.276 c 0,-0.12 0.1,-0.22 0.22,-0.22 0.12,0 0.22,0.1 0.22,0.22 0,0.12 -0.1,0.22 -0.22,0.22 -0.12,0 -0.22,-0.1 -0.22,-0.22 z"
     id="path24"
     inkscape:connector-curvature="0"
     style="fill:currentColor;stroke-width:0.004" />
  <a
     style="color:inherit"
     xlink:href="textedit://C:/Users/tikeda/Documents/git/LotusRoot/sco.txt:2:10:11"
     id="a28"
     transform="translate(-17.782171,-4.5566)">
    <path
       transform="matrix(0.004,0,0,-0.004,26.4048,8.3326)"
       d="M 362,0 H 13 C 6,0 0,6 0,13 v 131 c 0,7 6,12 13,12 h 349 c 7,0 13,-5 13,-12 V 13 C 375,6 369,0 362,0 Z"
       id="path26"
       inkscape:connector-curvature="0"
       style="fill:currentColor" />
  </a>
  <path
     d="m 2.3168289,3.72 c 0.012,0 0.028,-0.004 0.04,-0.004 0.628,0 1.032,0.516 1.032,1.052 0,0.308 -0.132,0.62 -0.432,0.844 -0.088,0.064 -0.184,0.116 -0.288,0.148 0.012,0.132 0.016,0.264 0.016,0.396 0,0.084 0,0.164 -0.004,0.248 -0.028,0.484 -0.364,0.916 -0.844,0.916 -0.432,0 -0.784,-0.352 -0.784,-0.788 0,-0.232 0.216,-0.412 0.452,-0.412 0.216,0 0.38,0.188 0.38,0.412 0,0.208 -0.172,0.38 -0.38,0.38 -0.036,0 -0.072,-0.004 -0.108,-0.016 0.1,0.148 0.264,0.244 0.452,0.244 0.38,0 0.624,-0.372 0.648,-0.764 0.004,-0.076 0.008,-0.152 0.008,-0.228 0,-0.116 -0.004,-0.232 -0.012,-0.348 -0.116,0.02 -0.232,0.032 -0.352,0.032 -0.756,0 -1.33199999,-0.692 -1.33199999,-1.504 0,-0.708 0.51599999,-1.232 0.97599999,-1.772 -0.08,-0.248 -0.16,-0.496 -0.192,-0.756 -0.028,-0.208 -0.028,-0.42 -0.028,-0.632 0,-0.456 0.216,-0.884 0.588,-1.152 0.016,-0.012 0.032,-0.016 0.048,-0.016 0.02,0 0.036,0.008 0.052,0.02 0.288,0.332 0.54,0.972 0.54,1.424 0,0.568 -0.336,1.02 -0.704,1.456 0.084,0.272 0.16,0.544 0.228,0.82 z m 0.336,1.86 c 0.26,-0.096 0.44,-0.376 0.44,-0.644 0,-0.352 -0.256,-0.7 -0.668,-0.752 0.096,0.456 0.176,0.908 0.228,1.396 z m -1.544,-0.904 c 0,0.532 0.512,0.972 1.044,0.972 0.108,0 0.22,-0.004 0.324,-0.02 -0.052,-0.504 -0.14,-0.976 -0.24,-1.448 -0.316,0.032 -0.496,0.24 -0.496,0.472 0,0.172 0.1,0.352 0.32,0.48 0.02,0.02 0.028,0.044 0.028,0.068 0,0.048 -0.04,0.092 -0.092,0.092 -0.012,0 -0.028,-0.004 -0.04,-0.008 -0.324,-0.172 -0.472,-0.46 -0.472,-0.744 0,-0.356 0.24,-0.708 0.652,-0.8 -0.056,-0.228 -0.12,-0.452 -0.188,-0.676 -0.42,0.488 -0.84,0.972 -0.84,1.612 z m 1.304,-4.052 c -0.396,0.184 -0.644,0.58 -0.644,1.016 0,0.284 0.084,0.52 0.156,0.752 0.312,-0.388 0.568,-0.796 0.568,-1.296 0,-0.204 -0.016,-0.288 -0.08,-0.472 z"
     id="path30"
     inkscape:connector-curvature="0"
     style="fill:currentColor;stroke-width:0.004" />
  <a
     style="color:inherit"
     xlink:href="textedit://C:/Users/tikeda/Documents/git/LotusRoot/sco.txt:2:0:1"
     id="a36"
     transform="translate(-17.782171,-4.5566)">
    <path
       transform="matrix(0.004,0,0,-0.004,22.911,8.3326)"
       d="m 50,500 c 45,-8 91,-13 137,-13 46,0 92,5 137,13 h 4 c 10,0 17,-7 17,-13 0,-2 0,-3 -2,-5 C 275,414 178,385 82,385 72,385 64,377 64,367 v -86 c 28,28 66,40 105,40 116,0 187,-51 187,-161 C 356,65 264,0 163,0 80,0 0,42 0,116 c 0,35 29,64 64,64 35,0 64,-29 64,-64 0,-24 -39,-29 -39,-53 0,-31 38,-37 74,-37 56,0 71,69 71,134 0,61 -12,129 -65,129 -42,0 -84,-9 -108,-42 -3,-5 -8,-7 -13,-7 -8,0 -17,6 -17,16 v 226 c 0,10 7,18 16,18 z"
       id="path32"
       inkscape:connector-curvature="0"
       style="fill:currentColor" />
    <path
       transform="matrix(0.004,0,0,-0.004,22.783,10.3812)"
       d="m 201,296 c 23,15 46,29 62,51 12,16 20,35 28,52 2,4 6,6 10,6 7,0 14,-5 14,-15 V 157 h 76 c 11,0 16,-8 16,-16 0,-8 -5,-16 -16,-16 h -76 v -2 c 0,-50 30,-97 77,-97 9,0 12,-7 12,-13 C 404,7 401,0 392,0 346,0 300,13 254,13 208,13 161,0 115,0 c -9,0 -12,7 -12,13 0,6 3,13 12,13 47,0 77,47 77,97 v 2 H 32 c -26,0 -34,15 -34,25 0,3 1,6 2,7 79,91 131,205 131,325 0,10 7,18 15,18 h 3 c 24,-7 49,-13 74,-13 25,0 50,6 74,13 2,1 3,1 5,1 9,0 15,-7 15,-13 0,-2 0,-4 -2,-6 L 32,157 h 160 v 115 c 0,9 1,19 9,24 z"
       id="path34"
       inkscape:connector-curvature="0"
       style="fill:currentColor" />
  </a>
  <a
     style="color:inherit"
     xlink:href="textedit://C:/Users/tikeda/Documents/git/LotusRoot/sco.txt:3:0:1"
     id="a40"
     transform="translate(-17.782171,-4.5566)">
    <path
       transform="matrix(0.004,0,0,-0.004,36.774,8.3326)"
       d="M 362,0 H 13 C 6,0 0,6 0,13 v 131 c 0,7 6,12 13,12 h 349 c 7,0 13,-5 13,-12 V 13 C 375,6 369,0 362,0 Z"
       id="path38"
       inkscape:connector-curvature="0"
       style="fill:currentColor" />
  </a>
  <a
     style="color:inherit"
     xlink:href="textedit://C:/Users/tikeda/Documents/git/LotusRoot/sco.txt:2:13:14"
     id="a44"
     transform="translate(-17.782171,-4.5566)">
    <path
       transform="matrix(0.004,0,0,-0.004,30.5528,8.3326)"
       d="M 362,0 H 13 C 6,0 0,6 0,13 v 131 c 0,7 6,12 13,12 h 349 c 7,0 13,-5 13,-12 V 13 C 375,6 369,0 362,0 Z"
       id="path42"
       inkscape:connector-curvature="0"
       style="fill:currentColor" />
  </a>
  <path
     d="m 14.712129,3.276 c 0,-0.12 0.1,-0.22 0.22,-0.22 0.12,0 0.22,0.1 0.22,0.22 0,0.12 -0.1,0.22 -0.22,0.22 -0.12,0 -0.22,-0.1 -0.22,-0.22 z"
     id="path46"
     inkscape:connector-curvature="0"
     style="fill:currentColor;stroke-width:0.004" />
  <text
     font-size="2.1999"
     id="text50"
     style="font-size:2.19989991px;font-family:serif;text-anchor:start;fill:currentColor"
     x="56.90633"
     y="202.43719">
    <tspan
       id="tspan48" />
  </text>
</svg>
