<?xml version="1.0" encoding="UTF-8" standalone="no"?>
<svg
   xmlns:dc="http://purl.org/dc/elements/1.1/"
   xmlns:cc="http://creativecommons.org/ns#"
   xmlns:rdf="http://www.w3.org/1999/02/22-rdf-syntax-ns#"
   xmlns:svg="http://www.w3.org/2000/svg"
   xmlns="http://www.w3.org/2000/svg"
   xmlns:sodipodi="http://sodipodi.sourceforge.net/DTD/sodipodi-0.dtd"
   xmlns:inkscape="http://www.inkscape.org/namespaces/inkscape"
   version="1.2"
   width="683.26392"
   height="156.01491"
   viewBox="0 0 137.16526 31.319992"
   id="svg2"
   inkscape:version="0.48.2 r9819"
   sodipodi:docname="test.svg">
  <metadata
     id="metadata350">
    <rdf:RDF>
      <cc:Work
         rdf:about="">
        <dc:format>image/svg+xml</dc:format>
        <dc:type
           rdf:resource="http://purl.org/dc/dcmitype/StillImage" />
      </cc:Work>
    </rdf:RDF>
  </metadata>
  <defs
     id="defs348" />
  <sodipodi:namedview
     pagecolor="#ffffff"
     bordercolor="#666666"
     borderopacity="1"
     objecttolerance="10"
     gridtolerance="10"
     guidetolerance="10"
     inkscape:pageopacity="0"
     inkscape:pageshadow="2"
     inkscape:window-width="769"
     inkscape:window-height="480"
     id="namedview346"
     showgrid="false"
     fit-margin-top="0"
     fit-margin-left="0"
     fit-margin-right="0"
     fit-margin-bottom="0"
     inkscape:zoom="0.22425739"
     inkscape:cx="346.64976"
     inkscape:cy="-347.46817"
     inkscape:window-x="0"
     inkscape:window-y="0"
     inkscape:window-maximized="0"
     inkscape:current-layer="svg2" />
  <!-- Page: 1/1 -->
  <text
     font-size="2.1999"
     id="text4"
     style="font-size:2.19989991px;text-anchor:start;fill:currentColor;font-family:serif"
     x="2.0146556"
     y="-1.0000272">
    <tspan
       id="tspan6" />
  </text>
  <line
     x1="12.742656"
     y1="5.7759728"
     x2="137.10706"
     y2="5.7759728"
     id="line8"
     style="stroke:currentColor;stroke-width:0.1164;stroke-linecap:round;stroke-linejoin:round" />
  <line
     x1="12.742656"
     y1="4.7759728"
     x2="137.10706"
     y2="4.7759728"
     id="line10"
     style="stroke:currentColor;stroke-width:0.1164;stroke-linecap:round;stroke-linejoin:round" />
  <line
     x1="12.742656"
     y1="3.7759728"
     x2="137.10706"
     y2="3.7759728"
     id="line12"
     style="stroke:currentColor;stroke-width:0.1164;stroke-linecap:round;stroke-linejoin:round" />
  <line
     x1="12.742656"
     y1="2.7759728"
     x2="137.10706"
     y2="2.7759728"
     id="line14"
     style="stroke:currentColor;stroke-width:0.1164;stroke-linecap:round;stroke-linejoin:round" />
  <line
     x1="12.742656"
     y1="1.7759728"
     x2="137.10706"
     y2="1.7759728"
     id="line16"
     style="stroke:currentColor;stroke-width:0.1164;stroke-linecap:round;stroke-linejoin:round" />
  <rect
     x="34.401855"
     y="1.7759728"
     width="0.2212"
     height="4"
     ry="0"
     id="rect18"
     style="fill:currentColor" />
  <rect
     x="90.768158"
     y="1.7759728"
     width="0.2212"
     height="4"
     ry="0"
     id="rect20"
     style="fill:currentColor" />
  <rect
     x="45.452454"
     y="1.7759728"
     width="0.2212"
     height="4"
     ry="0"
     id="rect22"
     style="fill:currentColor" />
  <rect
     x="111.48556"
     y="1.7759728"
     width="0.2212"
     height="4"
     ry="0"
     id="rect24"
     style="fill:currentColor" />
  <rect
     x="24.122955"
     y="1.7759728"
     width="0.2212"
     height="4"
     ry="0"
     id="rect26"
     style="fill:currentColor" />
  <rect
     x="59.228355"
     y="1.7759728"
     width="0.2212"
     height="4"
     ry="0"
     id="rect28"
     style="fill:currentColor" />
  <rect
     x="75.509956"
     y="1.7759728"
     width="0.2212"
     height="4"
     ry="0"
     id="rect30"
     style="fill:currentColor" />
  <rect
     x="134.07225"
     y="1.7759728"
     width="0.2212"
     height="4"
     ry="0"
     id="rect32"
     style="fill:currentColor" />
  <path
     d="m 87.251955,3.2759728 c 0,-0.12 0.1,-0.22 0.22,-0.22 0.12,0 0.22,0.1 0.22,0.22 0,0.12 -0.1,0.22 -0.22,0.22 -0.12,0 -0.22,-0.1 -0.22,-0.22 z"
     id="path34"
     inkscape:connector-curvature="0"
     style="fill:currentColor" />
  <path
     d="m 96.809155,3.7759728 h -1.396 c -0.028,0 -0.052,-0.024 -0.052,-0.052 v -0.524 c 0,-0.028 0.024,-0.048 0.052,-0.048 h 1.396 c 0.028,0 0.052,0.02 0.052,0.048 v 0.524 c 0,0.028 -0.024,0.052 -0.052,0.052 z"
     id="path36"
     inkscape:connector-curvature="0"
     style="fill:currentColor" />
  <path
     d="m 92.151355,2.1599728 c -0.124,0 -0.156,0.184 -0.156,0.292 v 0.26 c 0,0.044 -0.032,0.064 -0.064,0.064 -0.032,0 -0.064,-0.02 -0.064,-0.064 v -0.872 c 0,-0.044 0.032,-0.064 0.064,-0.064 0.032,0 0.064,0.02 0.064,0.064 v 0.06 c 0,0.04 0.052,0.08 0.064,0.064 0.088,-0.124 0.204,-0.188 0.324,-0.188 0.112,0 0.232,0.052 0.332,0.156 0.048,0.048 0.104,0.072 0.164,0.072 0.116,0 0.248,-0.08 0.332,-0.2 0.016,-0.02 0.028,-0.028 0.048,-0.028 0.036,0 0.068,0.028 0.068,0.064 0,0.012 -0.004,0.024 -0.012,0.036 -0.324,0.46 -0.604,0.984 -0.604,1.524 0,0.104 0.008,0.208 0.032,0.312 0.008,0.04 -0.02,0.076 -0.056,0.076 h -0.016 c -0.1,-0.028 -0.204,-0.064 -0.308,-0.064 -0.104,0 -0.204,0.036 -0.304,0.064 h -0.02 c -0.032,0 -0.056,-0.028 -0.056,-0.056 0,-0.008 0,-0.012 0.004,-0.02 0.212,-0.5 0.524,-0.944 0.844,-1.384 -0.076,0.036 -0.148,0.056 -0.22,0.056 -0.088,0 -0.176,-0.032 -0.248,-0.108 -0.064,-0.064 -0.144,-0.116 -0.212,-0.116 z"
     id="path38"
     inkscape:connector-curvature="0"
     style="fill:currentColor" />
  <path
     d="m 92.543355,4.6405728 c 0.092,-0.06 0.184,-0.116 0.248,-0.204 0.048,-0.064 0.08,-0.14 0.112,-0.208 0.008,-0.016 0.024,-0.024 0.04,-0.024 0.028,0 0.056,0.02 0.056,0.06 v 0.932 h 0.304 c 0.044,0 0.064,0.032 0.064,0.064 0,0.032 -0.02,0.064 -0.064,0.064 h -0.304 v 0.008 c 0,0.2 0.12,0.388 0.308,0.388 0.036,0 0.048,0.028 0.048,0.052 0,0.024 -0.012,0.052 -0.048,0.052 -0.184,0 -0.368,-0.052 -0.552,-0.052 -0.184,0 -0.372,0.052 -0.556,0.052 -0.036,0 -0.048,-0.028 -0.048,-0.052 0,-0.024 0.012,-0.052 0.048,-0.052 0.188,0 0.308,-0.188 0.308,-0.388 v -0.008 h -0.64 c -0.104,0 -0.136,-0.06 -0.136,-0.1 0,-0.012 0.004,-0.024 0.008,-0.028 0.316,-0.364 0.524,-0.82 0.524,-1.3 0,-0.04 0.028,-0.072 0.06,-0.072 h 0.012 c 0.096,0.028 0.196,0.052 0.296,0.052 0.1,0 0.2,-0.024 0.296,-0.052 0.008,-0.004 0.012,-0.004 0.02,-0.004 0.036,0 0.06,0.028 0.06,0.052 0,0.008 0,0.016 -0.008,0.024 l -1.132,1.3 h 0.64 v -0.46 c 0,-0.036 0.004,-0.076 0.036,-0.096 z"
     id="path40"
     inkscape:connector-curvature="0"
     style="fill:currentColor" />
  <path
     d="m 86.758555,3.7759728 h -1.396 c -0.028,0 -0.052,-0.024 -0.052,-0.052 v -0.524 c 0,-0.028 0.024,-0.048 0.052,-0.048 h 1.396 c 0.028,0 0.052,0.02 0.052,0.048 v 0.524 c 0,0.028 -0.024,0.052 -0.052,0.052 z"
     id="path42"
     inkscape:connector-curvature="0"
     style="fill:currentColor" />
  <path
     d="m 81.550955,3.7759728 h -1.396 c -0.028,0 -0.052,-0.024 -0.052,-0.052 v -0.524 c 0,-0.028 0.024,-0.048 0.052,-0.048 h 1.396 c 0.028,0 0.052,0.02 0.052,0.048 v 0.524 c 0,0.028 -0.024,0.052 -0.052,0.052 z"
     id="path44"
     inkscape:connector-curvature="0"
     style="fill:currentColor" />
  <path
     d="m 77.301155,2.7519728 c -0.188,0 -0.2,0.148 -0.2,0.352 v 0.108 0.108 c 0,0.204 0.012,0.352 0.2,0.352 0.224,0 0.232,-0.2 0.232,-0.46 0,-0.26 -0.008,-0.46 -0.232,-0.46 z m -0.2,-0.052 c 0.064,-0.028 0.128,-0.052 0.2,-0.052 0.412,0 0.692,0.18 0.692,0.564 0,0.384 -0.28,0.564 -0.692,0.564 -0.452,0 -0.692,-0.496 -0.692,-1 0,-0.516 0.3,-1 0.776,-1 0.288,0 0.556,0.16 0.556,0.424 0,0.14 -0.116,0.256 -0.256,0.256 -0.14,0 -0.256,-0.116 -0.256,-0.256 0,-0.092 0.152,-0.1 0.152,-0.192 0,-0.088 -0.096,-0.128 -0.196,-0.128 -0.252,0 -0.292,0.236 -0.292,0.52 0,0.096 0.008,0.2 0.008,0.3 z"
     id="path46"
     inkscape:connector-curvature="0"
     style="fill:currentColor" />
  <path
     d="m 77.285155,4.6405728 c 0.092,-0.06 0.184,-0.116 0.248,-0.204 0.048,-0.064 0.08,-0.14 0.112,-0.208 0.008,-0.016 0.024,-0.024 0.04,-0.024 0.028,0 0.056,0.02 0.056,0.06 v 0.932 h 0.304 c 0.044,0 0.064,0.032 0.064,0.064 0,0.032 -0.02,0.064 -0.064,0.064 h -0.304 v 0.008 c 0,0.2 0.12,0.388 0.308,0.388 0.036,0 0.048,0.028 0.048,0.052 0,0.024 -0.012,0.052 -0.048,0.052 -0.184,0 -0.368,-0.052 -0.552,-0.052 -0.184,0 -0.372,0.052 -0.556,0.052 -0.036,0 -0.048,-0.028 -0.048,-0.052 0,-0.024 0.012,-0.052 0.048,-0.052 0.188,0 0.308,-0.188 0.308,-0.388 v -0.008 h -0.64 c -0.104,0 -0.136,-0.06 -0.136,-0.1 0,-0.012 0.004,-0.024 0.008,-0.028 0.316,-0.364 0.524,-0.82 0.524,-1.3 0,-0.04 0.028,-0.072 0.06,-0.072 h 0.012 c 0.096,0.028 0.196,0.052 0.296,0.052 0.1,0 0.2,-0.024 0.296,-0.052 0.008,-0.004 0.012,-0.004 0.02,-0.004 0.036,0 0.06,0.028 0.06,0.052 0,0.008 0,0.016 -0.008,0.024 l -1.132,1.3 h 0.64 v -0.46 c 0,-0.036 0.004,-0.076 0.036,-0.096 z"
     id="path48"
     inkscape:connector-curvature="0"
     style="fill:currentColor" />
  <path
     d="m 82.044455,3.2759728 c 0,-0.12 0.1,-0.22 0.22,-0.22 0.12,0 0.22,0.1 0.22,0.22 0,0.12 -0.1,0.22 -0.22,0.22 -0.12,0 -0.22,-0.1 -0.22,-0.22 z"
     id="path50"
     inkscape:connector-curvature="0"
     style="fill:currentColor" />
  <path
     d="m 72.597255,4.2519728 c 0,-0.124 0.056,-0.172 0.184,-0.172 0.12,0 0.276,0.036 0.424,0.092 l -0.504,-0.604 c -0.028,-0.036 -0.044,-0.068 -0.044,-0.104 0,-0.136 0.204,-0.264 0.352,-0.404 0.092,-0.088 0.144,-0.204 0.144,-0.324 0,-0.1 -0.036,-0.2 -0.104,-0.28 l -0.124,-0.148 c -0.012,-0.016 -0.016,-0.032 -0.016,-0.048 0,-0.04 0.036,-0.072 0.076,-0.072 0.02,0 0.036,0.004 0.052,0.024 l 0.596,0.712 c 0.028,0.036 0.044,0.068 0.044,0.104 0,0.136 -0.208,0.264 -0.356,0.404 -0.092,0.088 -0.14,0.204 -0.14,0.324 0,0.1 0.036,0.204 0.104,0.284 l 0.316,0.376 c 0.012,0.016 0.016,0.032 0.016,0.048 0,0.04 -0.036,0.072 -0.076,0.072 -0.02,0 -0.036,-0.008 -0.052,-0.028 -0.064,-0.076 -0.228,-0.132 -0.356,-0.132 -0.164,0 -0.22,0.092 -0.22,0.26 0,0.132 0.044,0.292 0.108,0.368 0.024,0.028 0,0.06 -0.028,0.06 -0.008,0 -0.02,-0.008 -0.028,-0.016 -0.176,-0.212 -0.368,-0.58 -0.368,-0.796 z"
     id="path52"
     inkscape:connector-curvature="0"
     style="fill:currentColor" />
  <path
     d="m 121.96246,3.7759728 h -1.396 c -0.028,0 -0.052,-0.024 -0.052,-0.052 v -0.524 c 0,-0.028 0.024,-0.048 0.052,-0.048 h 1.396 c 0.028,0 0.052,0.02 0.052,0.048 v 0.524 c 0,0.028 -0.024,0.052 -0.052,0.052 z"
     id="path54"
     inkscape:connector-curvature="0"
     style="fill:currentColor" />
  <path
     d="m 126.39836,3.7759728 h -1.396 c -0.028,0 -0.052,-0.024 -0.052,-0.052 v -0.524 c 0,-0.028 0.024,-0.048 0.052,-0.048 h 1.396 c 0.028,0 0.052,0.02 0.052,0.048 v 0.524 c 0,0.028 -0.024,0.052 -0.052,0.052 z"
     id="path56"
     inkscape:connector-curvature="0"
     style="fill:currentColor" />
  <path
     d="m 130.83436,3.7759728 h -1.396 c -0.028,0 -0.052,-0.024 -0.052,-0.052 v -0.524 c 0,-0.028 0.024,-0.048 0.052,-0.048 h 1.396 c 0.028,0 0.052,0.02 0.052,0.048 v 0.524 c 0,0.028 -0.024,0.052 -0.052,0.052 z"
     id="path58"
     inkscape:connector-curvature="0"
     style="fill:currentColor" />
  <path
     d="m 135.86346,2.7999728 c 0.188,0 0.2,-0.148 0.2,-0.352 v -0.108 -0.108 c 0,-0.204 -0.012,-0.352 -0.2,-0.352 -0.224,0 -0.232,0.2 -0.232,0.46 0,0.26 0.008,0.46 0.232,0.46 z m 0.2,0.052 c -0.064,0.028 -0.128,0.052 -0.2,0.052 -0.412,0 -0.692,-0.18 -0.692,-0.564 0,-0.384 0.28,-0.564 0.692,-0.564 0.452,0 0.692,0.496 0.692,1 0,0.516 -0.3,1 -0.776,1 -0.288,0 -0.556,-0.16 -0.556,-0.424 0,-0.14 0.116,-0.256 0.256,-0.256 0.14,0 0.256,0.116 0.256,0.256 0,0.092 -0.152,0.1 -0.152,0.192 0,0.088 0.096,0.128 0.196,0.128 0.252,0 0.292,-0.236 0.292,-0.52 0,-0.096 -0.008,-0.2 -0.008,-0.3 z"
     id="path60"
     inkscape:connector-curvature="0"
     style="fill:currentColor" />
  <path
     d="m 135.84746,4.6405728 c 0.092,-0.06 0.184,-0.116 0.248,-0.204 0.048,-0.064 0.08,-0.14 0.112,-0.208 0.008,-0.016 0.024,-0.024 0.04,-0.024 0.028,0 0.056,0.02 0.056,0.06 v 0.932 h 0.304 c 0.044,0 0.064,0.032 0.064,0.064 0,0.032 -0.02,0.064 -0.064,0.064 h -0.304 v 0.008 c 0,0.2 0.12,0.388 0.308,0.388 0.036,0 0.048,0.028 0.048,0.052 0,0.024 -0.012,0.052 -0.048,0.052 -0.184,0 -0.368,-0.052 -0.552,-0.052 -0.184,0 -0.372,0.052 -0.556,0.052 -0.036,0 -0.048,-0.028 -0.048,-0.052 0,-0.024 0.012,-0.052 0.048,-0.052 0.188,0 0.308,-0.188 0.308,-0.388 v -0.008 h -0.64 c -0.104,0 -0.136,-0.06 -0.136,-0.1 0,-0.012 0.004,-0.024 0.008,-0.028 0.316,-0.364 0.524,-0.82 0.524,-1.3 0,-0.04 0.028,-0.072 0.06,-0.072 h 0.012 c 0.096,0.028 0.196,0.052 0.296,0.052 0.1,0 0.2,-0.024 0.296,-0.052 0.008,-0.004 0.012,-0.004 0.02,-0.004 0.036,0 0.06,0.028 0.06,0.052 0,0.008 0,0.016 -0.008,0.024 l -1.132,1.3 h 0.64 v -0.46 c 0,-0.036 0.004,-0.076 0.036,-0.096 z"
     id="path62"
     inkscape:connector-curvature="0"
     style="fill:currentColor" />
  <path
     d="m 108.57286,4.2519728 c 0,-0.124 0.056,-0.172 0.184,-0.172 0.12,0 0.276,0.036 0.424,0.092 l -0.504,-0.604 c -0.028,-0.036 -0.044,-0.068 -0.044,-0.104 0,-0.136 0.204,-0.264 0.352,-0.404 0.092,-0.088 0.144,-0.204 0.144,-0.324 0,-0.1 -0.036,-0.2 -0.104,-0.28 l -0.124,-0.148 c -0.012,-0.016 -0.016,-0.032 -0.016,-0.048 0,-0.04 0.036,-0.072 0.076,-0.072 0.02,0 0.036,0.004 0.052,0.024 l 0.596,0.712 c 0.028,0.036 0.044,0.068 0.044,0.104 0,0.136 -0.208,0.264 -0.356,0.404 -0.092,0.088 -0.14,0.204 -0.14,0.324 0,0.1 0.036,0.204 0.104,0.284 l 0.316,0.376 c 0.012,0.016 0.016,0.032 0.016,0.048 0,0.04 -0.036,0.072 -0.076,0.072 -0.02,0 -0.036,-0.008 -0.052,-0.028 -0.064,-0.076 -0.228,-0.132 -0.356,-0.132 -0.164,0 -0.22,0.092 -0.22,0.26 0,0.132 0.044,0.292 0.108,0.368 0.024,0.028 0,0.06 -0.028,0.06 -0.008,0 -0.02,-0.008 -0.028,-0.016 -0.176,-0.212 -0.368,-0.58 -0.368,-0.796 z"
     id="path64"
     inkscape:connector-curvature="0"
     style="fill:currentColor" />
  <path
     d="m 101.24506,3.7759728 h -1.396005 c -0.028,0 -0.052,-0.024 -0.052,-0.052 v -0.524 c 0,-0.028 0.024,-0.048 0.052,-0.048 h 1.396005 c 0.028,0 0.052,0.02 0.052,0.048 v 0.524 c 0,0.028 -0.024,0.052 -0.052,0.052 z"
     id="path66"
     inkscape:connector-curvature="0"
     style="fill:currentColor" />
  <path
     d="m 105.68096,3.7759728 h -1.396 c -0.028,0 -0.052,-0.024 -0.052,-0.052 v -0.524 c 0,-0.028 0.024,-0.048 0.052,-0.048 h 1.396 c 0.028,0 0.052,0.02 0.052,0.048 v 0.524 c 0,0.028 -0.024,0.052 -0.052,0.052 z"
     id="path68"
     inkscape:connector-curvature="0"
     style="fill:currentColor" />
  <path
     d="m 117.52656,3.7759728 h -1.396 c -0.028,0 -0.052,-0.024 -0.052,-0.052 v -0.524 c 0,-0.028 0.024,-0.048 0.052,-0.048 h 1.396 c 0.028,0 0.052,0.02 0.052,0.048 v 0.524 c 0,0.028 -0.024,0.052 -0.052,0.052 z"
     id="path70"
     inkscape:connector-curvature="0"
     style="fill:currentColor" />
  <path
     d="m 113.57286,2.6079728 c 0.1,-0.116 0.18,-0.244 0.18,-0.396 0,-0.212 -0.224,-0.332 -0.456,-0.332 -0.18,0 -0.288,0.14 -0.288,0.272 0,0.076 0.036,0.152 0.112,0.196 z m 0.136,0.08 c 0.216,0.124 0.324,0.316 0.324,0.504 0,0.296 -0.268,0.584 -0.768,0.584 -0.384,0 -0.744,-0.212 -0.744,-0.564 0,-0.2 0.148,-0.34 0.296,-0.48 -0.156,-0.112 -0.232,-0.264 -0.232,-0.416 0,-0.272 0.244,-0.54 0.712,-0.54 0.328,0 0.652,0.148 0.652,0.436 0,0.184 -0.112,0.34 -0.24,0.476 z m -0.76,0.124 c -0.124,0.112 -0.236,0.236 -0.236,0.4 0,0.272 0.264,0.46 0.552,0.46 0.212,0 0.34,-0.164 0.34,-0.32 0,-0.092 -0.044,-0.188 -0.136,-0.24 z"
     id="path72"
     inkscape:connector-curvature="0"
     style="fill:currentColor" />
  <path
     d="m 113.26076,4.6405728 c 0.092,-0.06 0.184,-0.116 0.248,-0.204 0.048,-0.064 0.08,-0.14 0.112,-0.208 0.008,-0.016 0.024,-0.024 0.04,-0.024 0.028,0 0.056,0.02 0.056,0.06 v 0.932 h 0.304 c 0.044,0 0.064,0.032 0.064,0.064 0,0.032 -0.02,0.064 -0.064,0.064 h -0.304 v 0.008 c 0,0.2 0.12,0.388 0.308,0.388 0.036,0 0.048,0.028 0.048,0.052 0,0.024 -0.012,0.052 -0.048,0.052 -0.184,0 -0.368,-0.052 -0.552,-0.052 -0.184,0 -0.372,0.052 -0.556,0.052 -0.036,0 -0.048,-0.028 -0.048,-0.052 0,-0.024 0.012,-0.052 0.048,-0.052 0.188,0 0.308,-0.188 0.308,-0.388 v -0.008 h -0.64 c -0.104,0 -0.136,-0.06 -0.136,-0.1 0,-0.012 0.004,-0.024 0.008,-0.028 0.316,-0.364 0.524,-0.82 0.524,-1.3 0,-0.04 0.028,-0.072 0.06,-0.072 h 0.012 c 0.096,0.028 0.196,0.052 0.296,0.052 0.1,0 0.2,-0.024 0.296,-0.052 0.008,-0.004 0.012,-0.004 0.02,-0.004 0.036,0 0.06,0.028 0.06,0.052 0,0.008 0,0.016 -0.008,0.024 l -1.132,1.3 h 0.64 v -0.46 c 0,-0.036 0.004,-0.076 0.036,-0.096 z"
     id="path74"
     inkscape:connector-curvature="0"
     style="fill:currentColor" />
  <path
     d="m 41.442855,3.7759728 h -1.396 c -0.028,0 -0.052,-0.024 -0.052,-0.052 v -0.524 c 0,-0.028 0.024,-0.048 0.052,-0.048 h 1.396 c 0.028,0 0.052,0.02 0.052,0.048 v 0.524 c 0,0.028 -0.024,0.052 -0.052,0.052 z"
     id="path76"
     inkscape:connector-curvature="0"
     style="fill:currentColor" />
  <path
     d="m 36.113155,1.8799728 c -0.12,0 -0.252,0.032 -0.252,0.136 0,0.084 0.14,0.1 0.14,0.184 0,0.124 -0.1,0.224 -0.224,0.224 -0.124,0 -0.224,-0.1 -0.224,-0.224 0,-0.264 0.272,-0.424 0.56,-0.424 0.368,0 0.684,0.128 0.684,0.456 0,0.168 -0.024,0.316 -0.172,0.384 -0.04,0.02 -0.06,0.06 -0.06,0.1 0,0.04 0.02,0.076 0.06,0.096 0.164,0.076 0.232,0.224 0.232,0.404 0,0.372 -0.324,0.56 -0.728,0.56 -0.32,0 -0.628,-0.172 -0.628,-0.464 0,-0.14 0.116,-0.256 0.256,-0.256 0.14,0 0.256,0.116 0.256,0.256 0,0.096 -0.156,0.116 -0.156,0.212 0,0.116 0.14,0.148 0.272,0.148 0.188,0 0.236,-0.236 0.236,-0.456 v -0.112 c 0,-0.188 -0.008,-0.324 -0.184,-0.324 h -0.308 c -0.044,0 -0.064,-0.032 -0.064,-0.064 0,-0.032 0.02,-0.064 0.064,-0.064 h 0.308 c 0.176,0 0.184,-0.148 0.184,-0.344 v -0.076 c 0,-0.212 -0.06,-0.352 -0.252,-0.352 z"
     id="path78"
     inkscape:connector-curvature="0"
     style="fill:currentColor" />
  <path
     d="m 36.177055,4.6405728 c 0.092,-0.06 0.184,-0.116 0.248,-0.204 0.048,-0.064 0.08,-0.14 0.112,-0.208 0.008,-0.016 0.024,-0.024 0.04,-0.024 0.028,0 0.056,0.02 0.056,0.06 v 0.932 h 0.304 c 0.044,0 0.064,0.032 0.064,0.064 0,0.032 -0.02,0.064 -0.064,0.064 h -0.304 v 0.008 c 0,0.2 0.12,0.388 0.308,0.388 0.036,0 0.048,0.028 0.048,0.052 0,0.024 -0.012,0.052 -0.048,0.052 -0.184,0 -0.368,-0.052 -0.552,-0.052 -0.184,0 -0.372,0.052 -0.556,0.052 -0.036,0 -0.048,-0.028 -0.048,-0.052 0,-0.024 0.012,-0.052 0.048,-0.052 0.188,0 0.308,-0.188 0.308,-0.388 v -0.008 h -0.64 c -0.104,0 -0.136,-0.06 -0.136,-0.1 0,-0.012 0.004,-0.024 0.008,-0.028 0.316,-0.364 0.524,-0.82 0.524,-1.3 0,-0.04 0.028,-0.072 0.06,-0.072 h 0.012 c 0.096,0.028 0.196,0.052 0.296,0.052 0.1,0 0.2,-0.024 0.296,-0.052 0.008,-0.004 0.012,-0.004 0.02,-0.004 0.036,0 0.06,0.028 0.06,0.052 0,0.008 0,0.016 -0.008,0.024 l -1.132,1.3 h 0.64 v -0.46 c 0,-0.036 0.004,-0.076 0.036,-0.096 z"
     id="path80"
     inkscape:connector-curvature="0"
     style="fill:currentColor" />
  <path
     d="m 41.936355,3.2759728 c 0,-0.12 0.1,-0.22 0.22,-0.22 0.12,0 0.22,0.1 0.22,0.22 0,0.12 -0.1,0.22 -0.22,0.22 -0.12,0 -0.22,-0.1 -0.22,-0.22 z"
     id="path82"
     inkscape:connector-curvature="0"
     style="fill:currentColor" />
  <path
     d="m 21.210255,4.2519728 c 0,-0.124 0.056,-0.172 0.184,-0.172 0.12,0 0.276,0.036 0.424,0.092 l -0.504,-0.604 c -0.028,-0.036 -0.044,-0.068 -0.044,-0.104 0,-0.136 0.204,-0.264 0.352,-0.404 0.092,-0.088 0.144,-0.204 0.144,-0.324 0,-0.1 -0.036,-0.2 -0.104,-0.28 l -0.124,-0.148 c -0.012,-0.016 -0.016,-0.032 -0.016,-0.048 0,-0.04 0.036,-0.072 0.076,-0.072 0.02,0 0.036,0.004 0.052,0.024 l 0.596,0.712 c 0.028,0.036 0.044,0.068 0.044,0.104 0,0.136 -0.208,0.264 -0.356,0.404 -0.092,0.088 -0.14,0.204 -0.14,0.324 0,0.1 0.036,0.204 0.104,0.284 l 0.316,0.376 c 0.012,0.016 0.016,0.032 0.016,0.048 0,0.04 -0.036,0.072 -0.076,0.072 -0.02,0 -0.036,-0.008 -0.052,-0.028 -0.064,-0.076 -0.228,-0.132 -0.356,-0.132 -0.164,0 -0.22,0.092 -0.22,0.26 0,0.132 0.044,0.292 0.108,0.368 0.024,0.028 0,0.06 -0.028,0.06 -0.008,0 -0.02,-0.008 -0.028,-0.016 -0.176,-0.212 -0.368,-0.58 -0.368,-0.796 z"
     id="path84"
     inkscape:connector-curvature="0"
     style="fill:currentColor" />
  <path
     d="m 15.000455,3.7199728 c 0.012,0 0.028,-0.004 0.04,-0.004 0.628,0 1.032,0.516 1.032,1.052 0,0.308 -0.132,0.62 -0.432,0.844 -0.088,0.064 -0.184,0.116 -0.288,0.148 0.012,0.132 0.016,0.264 0.016,0.396 0,0.084 0,0.164 -0.004,0.248 -0.028,0.484 -0.364,0.916 -0.844,0.916 -0.432,0 -0.784,-0.352 -0.784,-0.788 0,-0.232 0.216,-0.412 0.452,-0.412 0.216,0 0.38,0.188 0.38,0.412 0,0.208 -0.172,0.38 -0.38,0.38 -0.036,0 -0.072,-0.004 -0.108,-0.016 0.1,0.148 0.264,0.244 0.452,0.244 0.38,0 0.624,-0.372 0.648,-0.764 0.004,-0.076 0.008,-0.152 0.008,-0.228 0,-0.116 -0.004,-0.232 -0.012,-0.348 -0.116,0.02 -0.232,0.032 -0.352,0.032 -0.756,0 -1.332,-0.692 -1.332,-1.504 0,-0.708 0.516,-1.232 0.976,-1.772 -0.08,-0.248 -0.16,-0.496 -0.192,-0.756 -0.028,-0.208 -0.028,-0.42 -0.028,-0.632 0,-0.45599997 0.216,-0.88399997 0.588,-1.15199997 0.016,-0.012 0.032,-0.01600000111 0.048,-0.01600000111 0.02,0 0.036,0.0080000011 0.052,0.02000000111 0.288,0.332 0.54,0.972 0.54,1.42399997 0,0.568 -0.336,1.02 -0.704,1.456 0.084,0.272 0.16,0.544 0.228,0.82 z m 0.336,1.86 c 0.26,-0.096 0.44,-0.376 0.44,-0.644 0,-0.352 -0.256,-0.7 -0.668,-0.752 0.096,0.456 0.176,0.908 0.228,1.396 z m -1.544,-0.904 c 0,0.532 0.512,0.972 1.044,0.972 0.108,0 0.22,-0.004 0.324,-0.02 -0.052,-0.504 -0.14,-0.976 -0.24,-1.448 -0.316,0.032 -0.496,0.24 -0.496,0.472 0,0.172 0.1,0.352 0.32,0.48 0.02,0.02 0.028,0.044 0.028,0.068 0,0.048 -0.04,0.092 -0.092,0.092 -0.012,0 -0.028,-0.004 -0.04,-0.008 -0.324,-0.172 -0.472,-0.46 -0.472,-0.744 0,-0.356 0.24,-0.708 0.652,-0.8 -0.056,-0.228 -0.12,-0.452 -0.188,-0.676 -0.42,0.488 -0.84,0.972 -0.84,1.612 z m 1.304,-4.05199997 c -0.396,0.184 -0.644,0.57999997 -0.644,1.01599997 0,0.284 0.084,0.52 0.156,0.752 0.312,-0.388 0.568,-0.796 0.568,-1.296 0,-0.20399997 -0.016,-0.28799997 -0.08,-0.47199997 z"
     id="path86"
     inkscape:connector-curvature="0"
     style="fill:currentColor" />
  <path
     d="m 18.349755,1.7639728 c 0.076,0 0.14,0.064 0.22,0.064 0.06,0 0.116,-0.028 0.172,-0.052 0.004,-0.004 0.012,-0.004 0.016,-0.004 0.032,0 0.056,0.036 0.056,0.076 v 1.436 c 0,0.2 0.12,0.388 0.308,0.388 0.036,0 0.052,0.028 0.052,0.052 0,0.024 -0.016,0.052 -0.052,0.052 -0.184,0 -0.368,-0.052 -0.552,-0.052 -0.184,0 -0.368,0.052 -0.552,0.052 -0.036,0 -0.052,-0.028 -0.052,-0.052 0,-0.024 0.016,-0.052 0.052,-0.052 0.188,0 0.308,-0.188 0.308,-0.388 v -0.924 c 0,-0.056 -0.04,-0.08 -0.072,-0.08 -0.02,0 -0.036,0.008 -0.044,0.024 l -0.26,0.528 c -0.012,0.024 -0.036,0.036 -0.056,0.036 -0.032,0 -0.068,-0.024 -0.068,-0.06 0,-0.008 0.004,-0.02 0.008,-0.032 l 0.492,-1 c 0.004,-0.012 0.012,-0.012 0.024,-0.012 z"
     id="path88"
     inkscape:connector-curvature="0"
     style="fill:currentColor" />
  <path
     d="m 18.488455,4.6405728 c 0.092,-0.06 0.184,-0.116 0.248,-0.204 0.048,-0.064 0.08,-0.14 0.112,-0.208 0.008,-0.016 0.024,-0.024 0.04,-0.024 0.028,0 0.056,0.02 0.056,0.06 v 0.932 h 0.304 c 0.044,0 0.064,0.032 0.064,0.064 0,0.032 -0.02,0.064 -0.064,0.064 h -0.304 v 0.008 c 0,0.2 0.12,0.388 0.308,0.388 0.036,0 0.048,0.028 0.048,0.052 0,0.024 -0.012,0.052 -0.048,0.052 -0.184,0 -0.368,-0.052 -0.552,-0.052 -0.184,0 -0.372,0.052 -0.556,0.052 -0.036,0 -0.048,-0.028 -0.048,-0.052 0,-0.024 0.012,-0.052 0.048,-0.052 0.188,0 0.308,-0.188 0.308,-0.388 v -0.008 h -0.64 c -0.104,0 -0.136,-0.06 -0.136,-0.1 0,-0.012 0.004,-0.024 0.008,-0.028 0.316,-0.364 0.524,-0.82 0.524,-1.3 0,-0.04 0.028,-0.072 0.06,-0.072 h 0.012 c 0.096,0.028 0.196,0.052 0.296,0.052 0.1,0 0.2,-0.024 0.296,-0.052 0.008,-0.004 0.012,-0.004 0.02,-0.004 0.036,0 0.06,0.028 0.06,0.052 0,0.008 0,0.016 -0.008,0.024 l -1.132,1.3 h 0.64 v -0.46 c 0,-0.036 0.004,-0.076 0.036,-0.096 z"
     id="path90"
     inkscape:connector-curvature="0"
     style="fill:currentColor" />
  <path
     d="m 31.163955,3.7759728 h -1.396 c -0.028,0 -0.052,-0.024 -0.052,-0.052 v -0.524 c 0,-0.028 0.024,-0.048 0.052,-0.048 h 1.396 c 0.028,0 0.052,0.02 0.052,0.048 v 0.524 c 0,0.028 -0.024,0.052 -0.052,0.052 z"
     id="path92"
     inkscape:connector-curvature="0"
     style="fill:currentColor" />
  <path
     d="m 25.262155,3.7279728 c -0.004,0.032 -0.028,0.048 -0.052,0.048 -0.028,0 -0.052,-0.02 -0.052,-0.052 0,-0.696 0.936,-0.656 0.936,-1.368 0,-0.232 -0.064,-0.476 -0.264,-0.476 -0.112,0 -0.22,0.052 -0.22,0.152 0,0.108 0.14,0.16 0.14,0.268 0,0.148 -0.124,0.268 -0.272,0.268 -0.148,0 -0.268,-0.12 -0.268,-0.268 0,-0.308 0.292,-0.524 0.62,-0.524 0.388,0 0.756,0.224 0.756,0.58 0,0.592 -0.576,0.632 -0.968,0.852 0.024,-0.004 0.044,-0.004 0.068,-0.004 0.136,0 0.288,0.048 0.432,0.152 0.08,0.056 0.172,0.088 0.252,0.088 0.088,0 0.16,-0.04 0.18,-0.12 0.008,-0.028 0.028,-0.04 0.048,-0.04 0.028,0 0.052,0.02 0.052,0.052 v 0.016 c -0.072,0.268 -0.324,0.424 -0.568,0.424 -0.148,0 -0.292,-0.056 -0.392,-0.18 -0.048,-0.06 -0.116,-0.092 -0.184,-0.092 -0.116,0 -0.232,0.084 -0.244,0.224 z"
     id="path94"
     inkscape:connector-curvature="0"
     style="fill:currentColor" />
  <path
     d="m 25.898155,4.6405728 c 0.092,-0.06 0.184,-0.116 0.248,-0.204 0.048,-0.064 0.08,-0.14 0.112,-0.208 0.008,-0.016 0.024,-0.024 0.04,-0.024 0.028,0 0.056,0.02 0.056,0.06 v 0.932 h 0.304 c 0.044,0 0.064,0.032 0.064,0.064 0,0.032 -0.02,0.064 -0.064,0.064 h -0.304 v 0.008 c 0,0.2 0.12,0.388 0.308,0.388 0.036,0 0.048,0.028 0.048,0.052 0,0.024 -0.012,0.052 -0.048,0.052 -0.184,0 -0.368,-0.052 -0.552,-0.052 -0.184,0 -0.372,0.052 -0.556,0.052 -0.036,0 -0.048,-0.028 -0.048,-0.052 0,-0.024 0.012,-0.052 0.048,-0.052 0.188,0 0.308,-0.188 0.308,-0.388 v -0.008 h -0.64 c -0.104,0 -0.136,-0.06 -0.136,-0.1 0,-0.012 0.004,-0.024 0.008,-0.028 0.316,-0.364 0.524,-0.82 0.524,-1.3 0,-0.04 0.028,-0.072 0.06,-0.072 h 0.012 c 0.096,0.028 0.196,0.052 0.296,0.052 0.1,0 0.2,-0.024 0.296,-0.052 0.008,-0.004 0.012,-0.004 0.02,-0.004 0.036,0 0.06,0.028 0.06,0.052 0,0.008 0,0.016 -0.008,0.024 l -1.132,1.3 h 0.64 v -0.46 c 0,-0.036 0.004,-0.076 0.036,-0.096 z"
     id="path96"
     inkscape:connector-curvature="0"
     style="fill:currentColor" />
  <path
     d="m 55.990455,3.7759728 h -1.396 c -0.028,0 -0.052,-0.024 -0.052,-0.052 v -0.524 c 0,-0.028 0.024,-0.048 0.052,-0.048 h 1.396 c 0.028,0 0.052,0.02 0.052,0.048 v 0.524 c 0,0.028 -0.024,0.052 -0.052,0.052 z"
     id="path98"
     inkscape:connector-curvature="0"
     style="fill:currentColor" />
  <path
     d="m 51.554555,3.7759728 h -1.396 c -0.028,0 -0.052,-0.024 -0.052,-0.052 v -0.524 c 0,-0.028 0.024,-0.048 0.052,-0.048 h 1.396 c 0.028,0 0.052,0.02 0.052,0.048 v 0.524 c 0,0.028 -0.024,0.052 -0.052,0.052 z"
     id="path100"
     inkscape:connector-curvature="0"
     style="fill:currentColor" />
  <path
     d="m 65.269455,3.7759728 h -1.396 c -0.028,0 -0.052,-0.024 -0.052,-0.052 v -0.524 c 0,-0.028 0.024,-0.048 0.052,-0.048 h 1.396 c 0.028,0 0.052,0.02 0.052,0.048 v 0.524 c 0,0.028 -0.024,0.052 -0.052,0.052 z"
     id="path102"
     inkscape:connector-curvature="0"
     style="fill:currentColor" />
  <path
     d="m 60.527655,1.7759728 c 0.18,0.032 0.364,0.052 0.548,0.052 0.184,0 0.368,-0.02 0.548,-0.052 h 0.016 c 0.04,0 0.068,0.028 0.068,0.052 0,0.008 0,0.012 -0.008,0.02 -0.272,0.272 -0.66,0.388 -1.044,0.388 -0.04,0 -0.072,0.032 -0.072,0.072 v 0.344 c 0.112,-0.112 0.264,-0.16 0.42,-0.16 0.464,0 0.748,0.204 0.748,0.644 0,0.38 -0.368,0.64 -0.772,0.64 -0.332,0 -0.652,-0.168 -0.652,-0.464 0,-0.14 0.116,-0.256 0.256,-0.256 0.14,0 0.256,0.116 0.256,0.256 0,0.096 -0.156,0.116 -0.156,0.212 0,0.124 0.152,0.148 0.296,0.148 0.224,0 0.284,-0.276 0.284,-0.536 0,-0.244 -0.048,-0.516 -0.26,-0.516 -0.168,0 -0.336,0.036 -0.432,0.168 -0.012,0.02 -0.032,0.028 -0.052,0.028 -0.032,0 -0.068,-0.024 -0.068,-0.064 v -0.904 c 0,-0.04 0.028,-0.072 0.064,-0.072 h 0.012 z"
     id="path104"
     inkscape:connector-curvature="0"
     style="fill:currentColor" />
  <path
     d="m 61.003655,4.6405728 c 0.092,-0.06 0.184,-0.116 0.248,-0.204 0.048,-0.064 0.08,-0.14 0.112,-0.208 0.008,-0.016 0.024,-0.024 0.04,-0.024 0.028,0 0.056,0.02 0.056,0.06 v 0.932 h 0.304 c 0.044,0 0.064,0.032 0.064,0.064 0,0.032 -0.02,0.064 -0.064,0.064 h -0.304 v 0.008 c 0,0.2 0.12,0.388 0.308,0.388 0.036,0 0.048,0.028 0.048,0.052 0,0.024 -0.012,0.052 -0.048,0.052 -0.184,0 -0.368,-0.052 -0.552,-0.052 -0.184,0 -0.372,0.052 -0.556,0.052 -0.036,0 -0.048,-0.028 -0.048,-0.052 0,-0.024 0.012,-0.052 0.048,-0.052 0.188,0 0.308,-0.188 0.308,-0.388 v -0.008 h -0.64 c -0.104,0 -0.136,-0.06 -0.136,-0.1 0,-0.012 0.004,-0.024 0.008,-0.028 0.316,-0.364 0.524,-0.82 0.524,-1.3 0,-0.04 0.028,-0.072 0.06,-0.072 h 0.012 c 0.096,0.028 0.196,0.052 0.296,0.052 0.1,0 0.2,-0.024 0.296,-0.052 0.008,-0.004 0.012,-0.004 0.02,-0.004 0.036,0 0.06,0.028 0.06,0.052 0,0.008 0,0.016 -0.008,0.024 l -1.132,1.3 h 0.64 v -0.46 c 0,-0.036 0.004,-0.076 0.036,-0.096 z"
     id="path106"
     inkscape:connector-curvature="0"
     style="fill:currentColor" />
  <path
     d="m 69.705355,3.7759728 h -1.396 c -0.028,0 -0.052,-0.024 -0.052,-0.052 v -0.524 c 0,-0.028 0.024,-0.048 0.052,-0.048 h 1.396 c 0.028,0 0.052,0.02 0.052,0.048 v 0.524 c 0,0.028 -0.024,0.052 -0.052,0.052 z"
     id="path108"
     inkscape:connector-curvature="0"
     style="fill:currentColor" />
  <path
     d="m 47.847655,3.6559728 c -0.192,0 -0.288,-0.16 -0.288,-0.288 0,-0.148 0.104,-0.3 0.28,-0.3 0.012,0 0.024,0.004 0.036,0.004 -0.104,-0.144 -0.268,-0.236 -0.452,-0.236 -0.428,0 -0.452,0.296 -0.452,0.756 0,0.06 0.004,0.12 0.004,0.184 0,0.064 -0.004,0.124 -0.004,0.184 0,0.46 0.024,0.756 0.452,0.756 0.312,0 0.532,-0.28 0.604,-0.596 0.008,-0.032 0.032,-0.044 0.056,-0.044 0.028,0 0.06,0.02 0.06,0.056 0,0.38 -0.412,0.704 -0.72,0.704 -0.272,0 -0.548,-0.08 -0.736,-0.28 -0.196,-0.208 -0.264,-0.496 -0.264,-0.78 0,-0.284 0.068,-0.572 0.264,-0.78 0.188,-0.2 0.464,-0.28 0.736,-0.28 0.344,0 0.624,0.268 0.684,0.612 0.004,0.016 0.004,0.036 0.004,0.052 0,0.152 -0.12,0.276 -0.264,0.276 z"
     id="path110"
     inkscape:connector-curvature="0"
     style="fill:currentColor" />
  <line
     x1="2.0728555"
     y1="17.775972"
     x2="137.10706"
     y2="17.775972"
     id="line112"
     style="stroke:currentColor;stroke-width:0.1164;stroke-linecap:round;stroke-linejoin:round" />
  <line
     x1="2.0728555"
     y1="16.775972"
     x2="137.10706"
     y2="16.775972"
     id="line114"
     style="stroke:currentColor;stroke-width:0.1164;stroke-linecap:round;stroke-linejoin:round" />
  <line
     x1="2.0728555"
     y1="15.775972"
     x2="137.10706"
     y2="15.775972"
     id="line116"
     style="stroke:currentColor;stroke-width:0.1164;stroke-linecap:round;stroke-linejoin:round" />
  <line
     x1="2.0728555"
     y1="14.775972"
     x2="137.10706"
     y2="14.775972"
     id="line118"
     style="stroke:currentColor;stroke-width:0.1164;stroke-linecap:round;stroke-linejoin:round" />
  <line
     x1="2.0728555"
     y1="13.775972"
     x2="137.10706"
     y2="13.775972"
     id="line120"
     style="stroke:currentColor;stroke-width:0.1164;stroke-linecap:round;stroke-linejoin:round" />
  <rect
     x="77.288757"
     y="13.775972"
     width="0.2212"
     height="4"
     ry="0"
     id="rect122"
     style="fill:currentColor" />
  <rect
     x="132.74916"
     y="13.775972"
     width="0.2212"
     height="4"
     ry="0"
     id="rect124"
     style="fill:currentColor" />
  <rect
     x="24.412756"
     y="13.775972"
     width="0.2212"
     height="4"
     ry="0"
     id="rect126"
     style="fill:currentColor" />
  <rect
     x="49.817554"
     y="13.775972"
     width="0.2212"
     height="4"
     ry="0"
     id="rect128"
     style="fill:currentColor" />
  <rect
     x="101.36195"
     y="13.775972"
     width="0.2212"
     height="4"
     ry="0"
     id="rect130"
     style="fill:currentColor" />
  <path
     d="m 93.542355,15.775973 h -1.396 c -0.028,0 -0.052,-0.024 -0.052,-0.052 v -0.524 c 0,-0.028 0.024,-0.048 0.052,-0.048 h 1.396 c 0.028,0 0.052,0.02 0.052,0.048 v 0.524 c 0,0.028 -0.024,0.052 -0.052,0.052 z"
     id="path132"
     inkscape:connector-curvature="0"
     style="fill:currentColor" />
  <path
     d="m 94.035855,15.275973 c 0,-0.12 0.1,-0.22 0.22,-0.22 0.12,0 0.22,0.1 0.22,0.22 0,0.12 -0.1,0.22 -0.22,0.22 -0.12,0 -0.22,-0.1 -0.22,-0.22 z"
     id="path134"
     inkscape:connector-curvature="0"
     style="fill:currentColor" />
  <path
     d="m 98.051155,15.775973 h -1.396 c -0.028,0 -0.052,-0.024 -0.052,-0.052 v -0.524 c 0,-0.028 0.024,-0.048 0.052,-0.048 h 1.396 c 0.028,0 0.052,0.02 0.052,0.048 v 0.524 c 0,0.028 -0.024,0.052 -0.052,0.052 z"
     id="path136"
     inkscape:connector-curvature="0"
     style="fill:currentColor" />
  <path
     d="m 98.544555,15.275973 c 0,-0.12 0.1,-0.22 0.22,-0.22 0.12,0 0.22,0.1 0.22,0.22 0,0.12 -0.1,0.22 -0.22,0.22 -0.12,0 -0.22,-0.1 -0.22,-0.22 z"
     id="path138"
     inkscape:connector-curvature="0"
     style="fill:currentColor" />
  <path
     d="m 108.46996,15.775973 h -1.396 c -0.028,0 -0.052,-0.024 -0.052,-0.052 v -0.524 c 0,-0.028 0.024,-0.048 0.052,-0.048 h 1.396 c 0.028,0 0.052,0.02 0.052,0.048 v 0.524 c 0,0.028 -0.024,0.052 -0.052,0.052 z"
     id="path140"
     inkscape:connector-curvature="0"
     style="fill:currentColor" />
  <g
     transform="translate(102.33316,15.775973)"
     id="g142">
    <path
       transform="scale(0.004,-0.004)"
       d="m 129,503 c 19,0 35,-16 55,-16 15,0 29,7 43,13 1,1 3,1 4,1 8,0 14,-9 14,-19 V 123 c 0,-50 30,-97 77,-97 9,0 13,-7 13,-13 C 335,7 331,0 322,0 276,0 230,13 184,13 138,13 92,0 46,0 37,0 33,7 33,13 c 0,6 4,13 13,13 47,0 77,47 77,97 v 231 c 0,14 -10,20 -18,20 -5,0 -9,-2 -11,-6 L 29,236 c -3,-6 -9,-9 -14,-9 -8,0 -17,6 -17,15 0,2 1,5 2,8 l 123,250 c 1,3 3,3 6,3 z"
       id="path144"
       inkscape:connector-curvature="0"
       style="fill:currentColor" />
    <path
       transform="matrix(0.004,0,0,-0.004,1.3231,0)"
       d="m 153,474 c -30,0 -63,-8 -63,-34 0,-21 35,-25 35,-46 0,-31 -25,-56 -56,-56 -31,0 -56,25 -56,56 0,66 68,106 140,106 92,0 171,-32 171,-114 0,-42 -6,-79 -43,-96 -10,-5 -15,-15 -15,-25 0,-10 5,-19 15,-24 41,-19 58,-56 58,-101 C 339,47 258,0 157,0 77,0 0,43 0,116 c 0,35 29,64 64,64 35,0 64,-29 64,-64 0,-24 -39,-29 -39,-53 0,-29 35,-37 68,-37 47,0 59,59 59,114 v 28 c 0,47 -2,81 -46,81 H 93 c -11,0 -16,8 -16,16 0,8 5,16 16,16 h 77 c 44,0 46,37 46,86 v 19 c 0,53 -15,88 -63,88 z"
       id="path146"
       inkscape:connector-curvature="0"
       style="fill:currentColor" />
  </g>
  <path
     d="m 103.67066,16.640573 c 0.092,-0.06 0.184,-0.116 0.248,-0.204 0.048,-0.064 0.08,-0.14 0.112,-0.208 0.008,-0.016 0.024,-0.024 0.04,-0.024 0.028,0 0.056,0.02 0.056,0.06 v 0.932 h 0.304 c 0.044,0 0.064,0.032 0.064,0.064 0,0.032 -0.02,0.064 -0.064,0.064 h -0.304 v 0.008 c 0,0.2 0.12,0.388 0.308,0.388 0.036,0 0.048,0.028 0.048,0.052 0,0.024 -0.012,0.052 -0.048,0.052 -0.184,0 -0.368,-0.052 -0.552,-0.052 -0.184,0 -0.372,0.052 -0.556,0.052 -0.036,0 -0.048,-0.028 -0.048,-0.052 0,-0.024 0.012,-0.052 0.048,-0.052 0.188,0 0.308,-0.188 0.308,-0.388 v -0.008 h -0.64 c -0.104,0 -0.136,-0.06 -0.136,-0.1 0,-0.012 0.004,-0.024 0.008,-0.028 0.316,-0.364 0.524,-0.82 0.524,-1.3 0,-0.04 0.028,-0.072 0.06,-0.072 h 0.012 c 0.096,0.028 0.196,0.052 0.296,0.052 0.1,0 0.2,-0.024 0.296,-0.052 0.008,-0.004 0.012,-0.004 0.02,-0.004 0.036,0 0.06,0.028 0.06,0.052 0,0.008 0,0.016 -0.008,0.024 l -1.132,1.3 h 0.64 v -0.46 c 0,-0.036 0.004,-0.076 0.036,-0.096 z"
     id="path148"
     inkscape:connector-curvature="0"
     style="fill:currentColor" />
  <path
     d="m 74.705655,16.251973 c 0,-0.124 0.056,-0.172 0.184,-0.172 0.12,0 0.276,0.036 0.424,0.092 l -0.504,-0.604 c -0.028,-0.036 -0.044,-0.068 -0.044,-0.104 0,-0.136 0.204,-0.264 0.352,-0.404 0.092,-0.088 0.144,-0.204 0.144,-0.324 0,-0.1 -0.036,-0.2 -0.104,-0.28 l -0.124,-0.148 c -0.012,-0.016 -0.016,-0.032 -0.016,-0.048 0,-0.04 0.036,-0.072 0.076,-0.072 0.02,0 0.036,0.004 0.052,0.024 l 0.596,0.712 c 0.028,0.036 0.044,0.068 0.044,0.104 0,0.136 -0.208,0.264 -0.356,0.404 -0.092,0.088 -0.14,0.204 -0.14,0.324 0,0.1 0.036,0.204 0.104,0.284 l 0.316,0.376 c 0.012,0.016 0.016,0.032 0.016,0.048 0,0.04 -0.036,0.072 -0.076,0.072 -0.02,0 -0.036,-0.008 -0.052,-0.028 -0.064,-0.076 -0.228,-0.132 -0.356,-0.132 -0.164,0 -0.22,0.092 -0.22,0.26 0,0.132 0.044,0.292 0.108,0.368 0.024,0.028 0,0.06 -0.028,0.06 -0.008,0 -0.02,-0.008 -0.028,-0.016 -0.176,-0.212 -0.368,-0.58 -0.368,-0.796 z"
     id="path150"
     inkscape:connector-curvature="0"
     style="fill:currentColor" />
  <path
     d="m 84.524855,15.775973 h -1.396 c -0.028,0 -0.052,-0.024 -0.052,-0.052 v -0.524 c 0,-0.028 0.024,-0.048 0.052,-0.048 h 1.396 c 0.028,0 0.052,0.02 0.052,0.048 v 0.524 c 0,0.028 -0.024,0.052 -0.052,0.052 z"
     id="path152"
     inkscape:connector-curvature="0"
     style="fill:currentColor" />
  <g
     transform="translate(78.259955,15.775973)"
     id="g154">
    <path
       transform="scale(0.004,-0.004)"
       d="m 129,503 c 19,0 35,-16 55,-16 15,0 29,7 43,13 1,1 3,1 4,1 8,0 14,-9 14,-19 V 123 c 0,-50 30,-97 77,-97 9,0 13,-7 13,-13 C 335,7 331,0 322,0 276,0 230,13 184,13 138,13 92,0 46,0 37,0 33,7 33,13 c 0,6 4,13 13,13 47,0 77,47 77,97 v 231 c 0,14 -10,20 -18,20 -5,0 -9,-2 -11,-6 L 29,236 c -3,-6 -9,-9 -14,-9 -8,0 -17,6 -17,15 0,2 1,5 2,8 l 123,250 c 1,3 3,3 6,3 z"
       id="path156"
       inkscape:connector-curvature="0"
       style="fill:currentColor" />
    <path
       transform="matrix(0.004,0,0,-0.004,1.3231,0)"
       d="M 26,12 C 25,4 19,0 13,0 6,0 0,5 0,13 c 0,174 234,164 234,342 0,58 -16,119 -66,119 -28,0 -55,-13 -55,-38 0,-27 35,-40 35,-67 0,-37 -31,-67 -68,-67 -37,0 -67,30 -67,67 0,77 73,131 155,131 97,0 189,-56 189,-145 0,-148 -144,-158 -242,-213 6,1 11,1 17,1 34,0 72,-12 108,-38 20,-14 43,-22 63,-22 22,0 40,10 45,30 2,7 7,10 12,10 7,0 13,-5 13,-13 v -4 C 355,39 292,0 231,0 194,0 158,14 133,45 121,60 104,68 87,68 58,68 29,47 26,12 z"
       id="path158"
       inkscape:connector-curvature="0"
       style="fill:currentColor" />
  </g>
  <path
     d="m 79.661555,16.640573 c 0.092,-0.06 0.184,-0.116 0.248,-0.204 0.048,-0.064 0.08,-0.14 0.112,-0.208 0.008,-0.016 0.024,-0.024 0.04,-0.024 0.028,0 0.056,0.02 0.056,0.06 v 0.932 h 0.304 c 0.044,0 0.064,0.032 0.064,0.064 0,0.032 -0.02,0.064 -0.064,0.064 h -0.304 v 0.008 c 0,0.2 0.12,0.388 0.308,0.388 0.036,0 0.048,0.028 0.048,0.052 0,0.024 -0.012,0.052 -0.048,0.052 -0.184,0 -0.368,-0.052 -0.552,-0.052 -0.184,0 -0.372,0.052 -0.556,0.052 -0.036,0 -0.048,-0.028 -0.048,-0.052 0,-0.024 0.012,-0.052 0.048,-0.052 0.188,0 0.308,-0.188 0.308,-0.388 v -0.008 h -0.64 c -0.104,0 -0.136,-0.06 -0.136,-0.1 0,-0.012 0.004,-0.024 0.008,-0.028 0.316,-0.364 0.524,-0.82 0.524,-1.3 0,-0.04 0.028,-0.072 0.06,-0.072 h 0.012 c 0.096,0.028 0.196,0.052 0.296,0.052 0.1,0 0.2,-0.024 0.296,-0.052 0.008,-0.004 0.012,-0.004 0.02,-0.004 0.036,0 0.06,0.028 0.06,0.052 0,0.008 0,0.016 -0.008,0.024 l -1.132,1.3 h 0.64 v -0.46 c 0,-0.036 0.004,-0.076 0.036,-0.096 z"
     id="path160"
     inkscape:connector-curvature="0"
     style="fill:currentColor" />
  <path
     d="m 85.018255,15.275973 c 0,-0.12 0.1,-0.22 0.22,-0.22 0.12,0 0.22,0.1 0.22,0.22 0,0.12 -0.1,0.22 -0.22,0.22 -0.12,0 -0.22,-0.1 -0.22,-0.22 z"
     id="path162"
     inkscape:connector-curvature="0"
     style="fill:currentColor" />
  <path
     d="m 89.033555,15.775973 h -1.396 c -0.028,0 -0.052,-0.024 -0.052,-0.052 v -0.524 c 0,-0.028 0.024,-0.048 0.052,-0.048 h 1.396 c 0.028,0 0.052,0.02 0.052,0.048 v 0.524 c 0,0.028 -0.024,0.052 -0.052,0.052 z"
     id="path164"
     inkscape:connector-curvature="0"
     style="fill:currentColor" />
  <path
     d="m 89.527055,15.275973 c 0,-0.12 0.1,-0.22 0.22,-0.22 0.12,0 0.22,0.1 0.22,0.22 0,0.12 -0.1,0.22 -0.22,0.22 -0.12,0 -0.22,-0.1 -0.22,-0.22 z"
     id="path166"
     inkscape:connector-curvature="0"
     style="fill:currentColor" />
  <path
     d="m 130.16606,16.251973 c 0,-0.124 0.056,-0.172 0.184,-0.172 0.12,0 0.276,0.036 0.424,0.092 l -0.504,-0.604 c -0.028,-0.036 -0.044,-0.068 -0.044,-0.104 0,-0.136 0.204,-0.264 0.352,-0.404 0.092,-0.088 0.144,-0.204 0.144,-0.324 0,-0.1 -0.036,-0.2 -0.104,-0.28 l -0.124,-0.148 c -0.012,-0.016 -0.016,-0.032 -0.016,-0.048 0,-0.04 0.036,-0.072 0.076,-0.072 0.02,0 0.036,0.004 0.052,0.024 l 0.596,0.712 c 0.028,0.036 0.044,0.068 0.044,0.104 0,0.136 -0.208,0.264 -0.356,0.404 -0.092,0.088 -0.14,0.204 -0.14,0.324 0,0.1 0.036,0.204 0.104,0.284 l 0.316,0.376 c 0.012,0.016 0.016,0.032 0.016,0.048 0,0.04 -0.036,0.072 -0.076,0.072 -0.02,0 -0.036,-0.008 -0.052,-0.028 -0.064,-0.076 -0.228,-0.132 -0.356,-0.132 -0.164,0 -0.22,0.092 -0.22,0.26 0,0.132 0.044,0.292 0.108,0.368 0.024,0.028 0,0.06 -0.028,0.06 -0.008,0 -0.02,-0.008 -0.028,-0.016 -0.176,-0.212 -0.368,-0.58 -0.368,-0.796 z"
     id="path168"
     inkscape:connector-curvature="0"
     style="fill:currentColor" />
  <g
     transform="translate(133.72036,15.775973)"
     id="g170">
    <path
       transform="scale(0.004,-0.004)"
       d="m 129,503 c 19,0 35,-16 55,-16 15,0 29,7 43,13 1,1 3,1 4,1 8,0 14,-9 14,-19 V 123 c 0,-50 30,-97 77,-97 9,0 13,-7 13,-13 C 335,7 331,0 322,0 276,0 230,13 184,13 138,13 92,0 46,0 37,0 33,7 33,13 c 0,6 4,13 13,13 47,0 77,47 77,97 v 231 c 0,14 -10,20 -18,20 -5,0 -9,-2 -11,-6 L 29,236 c -3,-6 -9,-9 -14,-9 -8,0 -17,6 -17,15 0,2 1,5 2,8 l 123,250 c 1,3 3,3 6,3 z"
       id="path172"
       inkscape:connector-curvature="0"
       style="fill:currentColor" />
    <path
       transform="matrix(0.004,0,0,-0.004,1.3231,0)"
       d="m 201,296 c 23,15 46,29 62,51 12,16 20,35 28,52 2,4 6,6 10,6 7,0 14,-5 14,-15 V 157 h 76 c 11,0 16,-8 16,-16 0,-8 -5,-16 -16,-16 h -76 v -2 c 0,-50 30,-97 77,-97 9,0 12,-7 12,-13 C 404,7 401,0 392,0 346,0 300,13 254,13 208,13 161,0 115,0 c -9,0 -12,7 -12,13 0,6 3,13 12,13 47,0 77,47 77,97 v 2 H 32 c -26,0 -34,15 -34,25 0,3 1,6 2,7 79,91 131,205 131,325 0,10 7,18 15,18 h 3 c 24,-7 49,-13 74,-13 25,0 50,6 74,13 2,1 3,1 5,1 9,0 15,-7 15,-13 0,-2 0,-4 -2,-6 L 32,157 h 160 v 115 c 0,9 1,19 9,24 z"
       id="path174"
       inkscape:connector-curvature="0"
       style="fill:currentColor" />
  </g>
  <path
     d="m 135.18586,16.640573 c 0.092,-0.06 0.184,-0.116 0.248,-0.204 0.048,-0.064 0.08,-0.14 0.112,-0.208 0.008,-0.016 0.024,-0.024 0.04,-0.024 0.028,0 0.056,0.02 0.056,0.06 v 0.932 h 0.304 c 0.044,0 0.064,0.032 0.064,0.064 0,0.032 -0.02,0.064 -0.064,0.064 h -0.304 v 0.008 c 0,0.2 0.12,0.388 0.308,0.388 0.036,0 0.048,0.028 0.048,0.052 0,0.024 -0.012,0.052 -0.048,0.052 -0.184,0 -0.368,-0.052 -0.552,-0.052 -0.184,0 -0.372,0.052 -0.556,0.052 -0.036,0 -0.048,-0.028 -0.048,-0.052 0,-0.024 0.012,-0.052 0.048,-0.052 0.188,0 0.308,-0.188 0.308,-0.388 v -0.008 h -0.64 c -0.104,0 -0.136,-0.06 -0.136,-0.1 0,-0.012 0.004,-0.024 0.008,-0.028 0.316,-0.364 0.524,-0.82 0.524,-1.3 0,-0.04 0.028,-0.072 0.06,-0.072 h 0.012 c 0.096,0.028 0.196,0.052 0.296,0.052 0.1,0 0.2,-0.024 0.296,-0.052 0.008,-0.004 0.012,-0.004 0.02,-0.004 0.036,0 0.06,0.028 0.06,0.052 0,0.008 0,0.016 -0.008,0.024 l -1.132,1.3 h 0.64 v -0.46 c 0,-0.036 0.004,-0.076 0.036,-0.096 z"
     id="path176"
     inkscape:connector-curvature="0"
     style="fill:currentColor" />
  <path
     d="m 17.086655,15.275973 c 0,-0.12 0.1,-0.22 0.22,-0.22 0.12,0 0.22,0.1 0.22,0.22 0,0.12 -0.1,0.22 -0.22,0.22 -0.12,0 -0.22,-0.1 -0.22,-0.22 z"
     id="path178"
     inkscape:connector-curvature="0"
     style="fill:currentColor" />
  <path
     d="m 16.593255,15.775973 h -1.396 c -0.028,0 -0.052,-0.024 -0.052,-0.052 v -0.524 c 0,-0.028 0.024,-0.048 0.052,-0.048 h 1.396 c 0.028,0 0.052,0.02 0.052,0.048 v 0.524 c 0,0.028 -0.024,0.052 -0.052,0.052 z"
     id="path180"
     inkscape:connector-curvature="0"
     style="fill:currentColor" />
  <path
     d="m 12.577855,15.275973 c 0,-0.12 0.1,-0.22 0.22,-0.22 0.12,0 0.22,0.1 0.22,0.22 0,0.12 -0.1,0.22 -0.22,0.22 -0.12,0 -0.22,-0.1 -0.22,-0.22 z"
     id="path182"
     inkscape:connector-curvature="0"
     style="fill:currentColor" />
  <path
     d="m 12.084455,15.775973 h -1.396 c -0.028,0 -0.052,-0.024 -0.052,-0.052 v -0.524 c 0,-0.028 0.024,-0.048 0.052,-0.048 h 1.396 c 0.028,0 0.052,0.02 0.052,0.048 v 0.524 c 0,0.028 -0.024,0.052 -0.052,0.052 z"
     id="path184"
     inkscape:connector-curvature="0"
     style="fill:currentColor" />
  <path
     d="m 112.34326,15.775973 h -1.396 c -0.028,0 -0.052,-0.024 -0.052,-0.052 v -0.524 c 0,-0.028 0.024,-0.048 0.052,-0.048 h 1.396 c 0.028,0 0.052,0.02 0.052,0.048 v 0.524 c 0,0.028 -0.024,0.052 -0.052,0.052 z"
     id="path186"
     inkscape:connector-curvature="0"
     style="fill:currentColor" />
  <path
     d="m 116.21666,15.775973 h -1.396 c -0.028,0 -0.052,-0.024 -0.052,-0.052 v -0.524 c 0,-0.028 0.024,-0.048 0.052,-0.048 h 1.396 c 0.028,0 0.052,0.02 0.052,0.048 v 0.524 c 0,0.028 -0.024,0.052 -0.052,0.052 z"
     id="path188"
     inkscape:connector-curvature="0"
     style="fill:currentColor" />
  <path
     d="m 120.08996,15.775973 h -1.396 c -0.028,0 -0.052,-0.024 -0.052,-0.052 v -0.524 c 0,-0.028 0.024,-0.048 0.052,-0.048 h 1.396 c 0.028,0 0.052,0.02 0.052,0.048 v 0.524 c 0,0.028 -0.024,0.052 -0.052,0.052 z"
     id="path190"
     inkscape:connector-curvature="0"
     style="fill:currentColor" />
  <path
     d="m 123.96336,15.775973 h -1.396 c -0.028,0 -0.052,-0.024 -0.052,-0.052 v -0.524 c 0,-0.028 0.024,-0.048 0.052,-0.048 h 1.396 c 0.028,0 0.052,0.02 0.052,0.048 v 0.524 c 0,0.028 -0.024,0.052 -0.052,0.052 z"
     id="path192"
     inkscape:connector-curvature="0"
     style="fill:currentColor" />
  <path
     d="m 127.83676,15.775973 h -1.396 c -0.028,0 -0.052,-0.024 -0.052,-0.052 v -0.524 c 0,-0.028 0.024,-0.048 0.052,-0.048 h 1.396 c 0.028,0 0.052,0.02 0.052,0.048 v 0.524 c 0,0.028 -0.024,0.052 -0.052,0.052 z"
     id="path194"
     inkscape:connector-curvature="0"
     style="fill:currentColor" />
  <g
     transform="translate(25.383955,15.775973)"
     id="g196">
    <path
       transform="scale(0.004,-0.004)"
       d="m 129,503 c 19,0 35,-16 55,-16 15,0 29,7 43,13 1,1 3,1 4,1 8,0 14,-9 14,-19 V 123 c 0,-50 30,-97 77,-97 9,0 13,-7 13,-13 C 335,7 331,0 322,0 276,0 230,13 184,13 138,13 92,0 46,0 37,0 33,7 33,13 c 0,6 4,13 13,13 47,0 77,47 77,97 v 231 c 0,14 -10,20 -18,20 -5,0 -9,-2 -11,-6 L 29,236 c -3,-6 -9,-9 -14,-9 -8,0 -17,6 -17,15 0,2 1,5 2,8 l 123,250 c 1,3 3,3 6,3 z"
       id="path198"
       inkscape:connector-curvature="0"
       style="fill:currentColor" />
    <path
       transform="matrix(0.004,0,0,-0.004,1.3231,0)"
       d="m 186,468 c -58,0 -64,-79 -64,-154 0,-22 1,-45 1,-64 0,-19 -1,-42 -1,-64 0,-75 6,-154 64,-154 58,0 65,79 65,154 0,22 -1,45 -1,64 0,19 1,42 1,64 0,75 -7,154 -65,154 z m 0,32 C 303,500 373,378 373,250 373,122 303,0 186,0 69,0 0,122 0,250 0,378 69,500 186,500 z"
       id="path200"
       inkscape:connector-curvature="0"
       style="fill:currentColor" />
  </g>
  <path
     d="m 26.785455,16.640573 c 0.092,-0.06 0.184,-0.116 0.248,-0.204 0.048,-0.064 0.08,-0.14 0.112,-0.208 0.008,-0.016 0.024,-0.024 0.04,-0.024 0.028,0 0.056,0.02 0.056,0.06 v 0.932 h 0.304 c 0.044,0 0.064,0.032 0.064,0.064 0,0.032 -0.02,0.064 -0.064,0.064 h -0.304 v 0.008 c 0,0.2 0.12,0.388 0.308,0.388 0.036,0 0.048,0.028 0.048,0.052 0,0.024 -0.012,0.052 -0.048,0.052 -0.184,0 -0.368,-0.052 -0.552,-0.052 -0.184,0 -0.372,0.052 -0.556,0.052 -0.036,0 -0.048,-0.028 -0.048,-0.052 0,-0.024 0.012,-0.052 0.048,-0.052 0.188,0 0.308,-0.188 0.308,-0.388 v -0.008 h -0.64 c -0.104,0 -0.136,-0.06 -0.136,-0.1 0,-0.012 0.004,-0.024 0.008,-0.028 0.316,-0.364 0.524,-0.82 0.524,-1.3 0,-0.04 0.028,-0.072 0.06,-0.072 h 0.012 c 0.096,0.028 0.196,0.052 0.296,0.052 0.1,0 0.2,-0.024 0.296,-0.052 0.008,-0.004 0.012,-0.004 0.02,-0.004 0.036,0 0.06,0.028 0.06,0.052 0,0.008 0,0.016 -0.008,0.024 l -1.132,1.3 h 0.64 v -0.46 c 0,-0.036 0.004,-0.076 0.036,-0.096 z"
     id="path202"
     inkscape:connector-curvature="0"
     style="fill:currentColor" />
  <path
     d="m 31.648855,15.775973 h -1.396 c -0.028,0 -0.052,-0.024 -0.052,-0.052 v -0.524 c 0,-0.028 0.024,-0.048 0.052,-0.048 h 1.396 c 0.028,0 0.052,0.02 0.052,0.048 v 0.524 c 0,0.028 -0.024,0.052 -0.052,0.052 z"
     id="path204"
     inkscape:connector-curvature="0"
     style="fill:currentColor" />
  <path
     d="m 35.522155,15.775973 h -1.396 c -0.028,0 -0.052,-0.024 -0.052,-0.052 v -0.524 c 0,-0.028 0.024,-0.048 0.052,-0.048 h 1.396 c 0.028,0 0.052,0.02 0.052,0.048 v 0.524 c 0,0.028 -0.024,0.052 -0.052,0.052 z"
     id="path206"
     inkscape:connector-curvature="0"
     style="fill:currentColor" />
  <path
     d="m 39.395555,15.775973 h -1.396 c -0.028,0 -0.052,-0.024 -0.052,-0.052 v -0.524 c 0,-0.028 0.024,-0.048 0.052,-0.048 h 1.396 c 0.028,0 0.052,0.02 0.052,0.048 v 0.524 c 0,0.028 -0.024,0.052 -0.052,0.052 z"
     id="path208"
     inkscape:connector-curvature="0"
     style="fill:currentColor" />
  <path
     d="m 43.268855,15.775973 h -1.396 c -0.028,0 -0.052,-0.024 -0.052,-0.052 v -0.524 c 0,-0.028 0.024,-0.048 0.052,-0.048 h 1.396 c 0.028,0 0.052,0.02 0.052,0.048 v 0.524 c 0,0.028 -0.024,0.052 -0.052,0.052 z"
     id="path210"
     inkscape:connector-curvature="0"
     style="fill:currentColor" />
  <path
     d="m 7.8346555,14.799973 c 0.188,0 0.2,-0.148 0.2,-0.352 v -0.108 -0.108 c 0,-0.204 -0.012,-0.352 -0.2,-0.352 -0.224,0 -0.232,0.2 -0.232,0.46 0,0.26 0.008,0.46 0.232,0.46 z m 0.2,0.052 c -0.064,0.028 -0.128,0.052 -0.2,0.052 -0.412,0 -0.692,-0.18 -0.692,-0.564 0,-0.384 0.28,-0.564 0.692,-0.564 0.452,0 0.692,0.496 0.692,1 0,0.516 -0.3,1 -0.776,1 -0.288,0 -0.556,-0.16 -0.556,-0.424 0,-0.14 0.116,-0.256 0.256,-0.256 0.14,0 0.256,0.116 0.256,0.256 0,0.092 -0.152,0.1 -0.152,0.192 0,0.088 0.096,0.128 0.196,0.128 0.252,0 0.292,-0.236 0.292,-0.52 0,-0.096 -0.008,-0.2 -0.008,-0.3 z"
     id="path212"
     inkscape:connector-curvature="0"
     style="fill:currentColor" />
  <path
     d="m 7.8186555,16.640573 c 0.092,-0.06 0.184,-0.116 0.248,-0.204 0.048,-0.064 0.08,-0.14 0.112,-0.208 0.008,-0.016 0.024,-0.024 0.04,-0.024 0.028,0 0.056,0.02 0.056,0.06 v 0.932 h 0.304 c 0.044,0 0.064,0.032 0.064,0.064 0,0.032 -0.02,0.064 -0.064,0.064 h -0.304 v 0.008 c 0,0.2 0.12,0.388 0.308,0.388 0.036,0 0.048,0.028 0.048,0.052 0,0.024 -0.012,0.052 -0.048,0.052 -0.184,0 -0.368,-0.052 -0.552,-0.052 -0.184,0 -0.372,0.052 -0.556,0.052 -0.036,0 -0.048,-0.028 -0.048,-0.052 0,-0.024 0.012,-0.052 0.048,-0.052 0.188,0 0.308,-0.188 0.308,-0.388 v -0.008 h -0.64 c -0.104,0 -0.136,-0.06 -0.136,-0.1 0,-0.012 0.004,-0.024 0.008,-0.028 0.316,-0.364 0.524,-0.82 0.524,-1.3 0,-0.04 0.028,-0.072 0.06,-0.072 h 0.012 c 0.096,0.028 0.196,0.052 0.296,0.052 0.1,0 0.2,-0.024 0.296,-0.052 0.008,-0.004 0.012,-0.004 0.02,-0.004 0.036,0 0.06,0.028 0.06,0.052 0,0.008 0,0.016 -0.008,0.024 l -1.132,1.3 h 0.64 v -0.46 c 0,-0.036 0.004,-0.076 0.036,-0.096 z"
     id="path214"
     inkscape:connector-curvature="0"
     style="fill:currentColor" />
  <text
     font-size="1.7463"
     id="text216"
     style="font-size:1.74629998px;text-anchor:start;fill:currentColor;font-family:serif"
     x="0.90495545"
     y="12.683272">
    <tspan
       id="tspan218">9</tspan>
  </text>
  <path
     d="m 4.3306555,15.719973 c 0.012,0 0.028,-0.004 0.04,-0.004 0.628,0 1.032,0.516 1.032,1.052 0,0.308 -0.132,0.62 -0.432,0.844 -0.088,0.064 -0.184,0.116 -0.288,0.148 0.012,0.132 0.016,0.264 0.016,0.396 0,0.084 0,0.164 -0.004,0.248 -0.028,0.484 -0.364,0.916 -0.844,0.916 -0.432,0 -0.784,-0.352 -0.784,-0.788 0,-0.232 0.216,-0.412 0.452,-0.412 0.216,0 0.38,0.188 0.38,0.412 0,0.208 -0.172,0.38 -0.38,0.38 -0.036,0 -0.072,-0.004 -0.108,-0.016 0.1,0.148 0.264,0.244 0.452,0.244 0.38,0 0.624,-0.372 0.648,-0.764 0.004,-0.076 0.008,-0.152 0.008,-0.228 0,-0.116 -0.004,-0.232 -0.012,-0.348 -0.116,0.02 -0.232,0.032 -0.352,0.032 -0.756,0 -1.332,-0.692 -1.332,-1.504 0,-0.708 0.516,-1.232 0.976,-1.772 -0.08,-0.248 -0.16,-0.496 -0.192,-0.756 -0.028,-0.208 -0.028,-0.42 -0.028,-0.632 0,-0.456 0.216,-0.884 0.588,-1.152 0.016,-0.012 0.032,-0.016 0.048,-0.016 0.02,0 0.036,0.008 0.052,0.02 0.288,0.332 0.54,0.972 0.54,1.424 0,0.568 -0.336,1.02 -0.704,1.456 0.084,0.272 0.16,0.544 0.228,0.82 z m 0.336,1.86 c 0.26,-0.096 0.44,-0.376 0.44,-0.644 0,-0.352 -0.256,-0.7 -0.668,-0.752 0.096,0.456 0.176,0.908 0.228,1.396 z m -1.544,-0.904 c 0,0.532 0.512,0.972 1.044,0.972 0.108,0 0.22,-0.004 0.324,-0.02 -0.052,-0.504 -0.14,-0.976 -0.24,-1.448 -0.316,0.032 -0.496,0.24 -0.496,0.472 0,0.172 0.1,0.352 0.32,0.48 0.02,0.02 0.028,0.044 0.028,0.068 0,0.048 -0.04,0.092 -0.092,0.092 -0.012,0 -0.028,-0.004 -0.04,-0.008 -0.324,-0.172 -0.472,-0.46 -0.472,-0.744 0,-0.356 0.24,-0.708 0.652,-0.8 -0.056,-0.228 -0.12,-0.452 -0.188,-0.676 -0.42,0.488 -0.84,0.972 -0.84,1.612 z m 1.304,-4.052 c -0.396,0.184 -0.644,0.58 -0.644,1.016 0,0.284 0.084,0.52 0.156,0.752 0.312,-0.388 0.568,-0.796 0.568,-1.296 0,-0.204 -0.016,-0.288 -0.08,-0.472 z"
     id="path220"
     inkscape:connector-curvature="0"
     style="fill:currentColor" />
  <path
     d="m 21.101955,15.775973 h -1.396 c -0.028,0 -0.052,-0.024 -0.052,-0.052 v -0.524 c 0,-0.028 0.024,-0.048 0.052,-0.048 h 1.396 c 0.028,0 0.052,0.02 0.052,0.048 v 0.524 c 0,0.028 -0.024,0.052 -0.052,0.052 z"
     id="path222"
     inkscape:connector-curvature="0"
     style="fill:currentColor" />
  <path
     d="m 21.595455,15.275973 c 0,-0.12 0.1,-0.22 0.22,-0.22 0.12,0 0.22,0.1 0.22,0.22 0,0.12 -0.1,0.22 -0.22,0.22 -0.12,0 -0.22,-0.1 -0.22,-0.22 z"
     id="path224"
     inkscape:connector-curvature="0"
     style="fill:currentColor" />
  <path
     d="m 60.756255,15.775973 h -1.396 c -0.028,0 -0.052,-0.024 -0.052,-0.052 v -0.524 c 0,-0.028 0.024,-0.048 0.052,-0.048 h 1.396 c 0.028,0 0.052,0.02 0.052,0.048 v 0.524 c 0,0.028 -0.024,0.052 -0.052,0.052 z"
     id="path226"
     inkscape:connector-curvature="0"
     style="fill:currentColor" />
  <path
     d="m 64.629655,15.775973 h -1.396 c -0.028,0 -0.052,-0.024 -0.052,-0.052 v -0.524 c 0,-0.028 0.024,-0.048 0.052,-0.048 h 1.396 c 0.028,0 0.052,0.02 0.052,0.048 v 0.524 c 0,0.028 -0.024,0.052 -0.052,0.052 z"
     id="path228"
     inkscape:connector-curvature="0"
     style="fill:currentColor" />
  <path
     d="m 68.502955,15.775973 h -1.396 c -0.028,0 -0.052,-0.024 -0.052,-0.052 v -0.524 c 0,-0.028 0.024,-0.048 0.052,-0.048 h 1.396 c 0.028,0 0.052,0.02 0.052,0.048 v 0.524 c 0,0.028 -0.024,0.052 -0.052,0.052 z"
     id="path230"
     inkscape:connector-curvature="0"
     style="fill:currentColor" />
  <path
     d="m 72.376355,15.775973 h -1.396 c -0.028,0 -0.052,-0.024 -0.052,-0.052 v -0.524 c 0,-0.028 0.024,-0.048 0.052,-0.048 h 1.396 c 0.028,0 0.052,0.02 0.052,0.048 v 0.524 c 0,0.028 -0.024,0.052 -0.052,0.052 z"
     id="path232"
     inkscape:connector-curvature="0"
     style="fill:currentColor" />
  <path
     d="m 56.882955,15.775973 h -1.396 c -0.028,0 -0.052,-0.024 -0.052,-0.052 v -0.524 c 0,-0.028 0.024,-0.048 0.052,-0.048 h 1.396 c 0.028,0 0.052,0.02 0.052,0.048 v 0.524 c 0,0.028 -0.024,0.052 -0.052,0.052 z"
     id="path234"
     inkscape:connector-curvature="0"
     style="fill:currentColor" />
  <g
     transform="translate(50.788855,15.775973)"
     id="g236">
    <path
       transform="scale(0.004,-0.004)"
       d="m 129,503 c 19,0 35,-16 55,-16 15,0 29,7 43,13 1,1 3,1 4,1 8,0 14,-9 14,-19 V 123 c 0,-50 30,-97 77,-97 9,0 13,-7 13,-13 C 335,7 331,0 322,0 276,0 230,13 184,13 138,13 92,0 46,0 37,0 33,7 33,13 c 0,6 4,13 13,13 47,0 77,47 77,97 v 231 c 0,14 -10,20 -18,20 -5,0 -9,-2 -11,-6 L 29,236 c -3,-6 -9,-9 -14,-9 -8,0 -17,6 -17,15 0,2 1,5 2,8 l 123,250 c 1,3 3,3 6,3 z"
       id="path238"
       inkscape:connector-curvature="0"
       style="fill:currentColor" />
    <path
       transform="matrix(0.004,0,0,-0.004,1.3231,0)"
       d="m 129,503 c 19,0 35,-16 55,-16 15,0 29,7 43,13 1,1 3,1 4,1 8,0 14,-9 14,-19 V 123 c 0,-50 30,-97 77,-97 9,0 13,-7 13,-13 C 335,7 331,0 322,0 276,0 230,13 184,13 138,13 92,0 46,0 37,0 33,7 33,13 c 0,6 4,13 13,13 47,0 77,47 77,97 v 231 c 0,14 -10,20 -18,20 -5,0 -9,-2 -11,-6 L 29,236 c -3,-6 -9,-9 -14,-9 -8,0 -17,6 -17,15 0,2 1,5 2,8 l 123,250 c 1,3 3,3 6,3 z"
       id="path240"
       inkscape:connector-curvature="0"
       style="fill:currentColor" />
  </g>
  <path
     d="m 52.104955,16.640573 c 0.092,-0.06 0.184,-0.116 0.248,-0.204 0.048,-0.064 0.08,-0.14 0.112,-0.208 0.008,-0.016 0.024,-0.024 0.04,-0.024 0.028,0 0.056,0.02 0.056,0.06 v 0.932 h 0.304 c 0.044,0 0.064,0.032 0.064,0.064 0,0.032 -0.02,0.064 -0.064,0.064 h -0.304 v 0.008 c 0,0.2 0.12,0.388 0.308,0.388 0.036,0 0.048,0.028 0.048,0.052 0,0.024 -0.012,0.052 -0.048,0.052 -0.184,0 -0.368,-0.052 -0.552,-0.052 -0.184,0 -0.372,0.052 -0.556,0.052 -0.036,0 -0.048,-0.028 -0.048,-0.052 0,-0.024 0.012,-0.052 0.048,-0.052 0.188,0 0.308,-0.188 0.308,-0.388 v -0.008 h -0.64 c -0.104,0 -0.136,-0.06 -0.136,-0.1 0,-0.012 0.004,-0.024 0.008,-0.028 0.316,-0.364 0.524,-0.82 0.524,-1.3 0,-0.04 0.028,-0.072 0.06,-0.072 h 0.012 c 0.096,0.028 0.196,0.052 0.296,0.052 0.1,0 0.2,-0.024 0.296,-0.052 0.008,-0.004 0.012,-0.004 0.02,-0.004 0.036,0 0.06,0.028 0.06,0.052 0,0.008 0,0.016 -0.008,0.024 l -1.132,1.3 h 0.64 v -0.46 c 0,-0.036 0.004,-0.076 0.036,-0.096 z"
     id="path242"
     inkscape:connector-curvature="0"
     style="fill:currentColor" />
  <path
     d="m 47.142255,15.775973 h -1.396 c -0.028,0 -0.052,-0.024 -0.052,-0.052 v -0.524 c 0,-0.028 0.024,-0.048 0.052,-0.048 h 1.396 c 0.028,0 0.052,0.02 0.052,0.048 v 0.524 c 0,0.028 -0.024,0.052 -0.052,0.052 z"
     id="path244"
     inkscape:connector-curvature="0"
     style="fill:currentColor" />
  <line
     x1="2.0728555"
     y1="29.775972"
     x2="137.10706"
     y2="29.775972"
     id="line246"
     style="stroke:currentColor;stroke-width:0.1164;stroke-linecap:round;stroke-linejoin:round" />
  <line
     x1="2.0728555"
     y1="28.775972"
     x2="137.10706"
     y2="28.775972"
     id="line248"
     style="stroke:currentColor;stroke-width:0.1164;stroke-linecap:round;stroke-linejoin:round" />
  <line
     x1="2.0728555"
     y1="27.775972"
     x2="137.10706"
     y2="27.775972"
     id="line250"
     style="stroke:currentColor;stroke-width:0.1164;stroke-linecap:round;stroke-linejoin:round" />
  <line
     x1="2.0728555"
     y1="26.775972"
     x2="137.10706"
     y2="26.775972"
     id="line252"
     style="stroke:currentColor;stroke-width:0.1164;stroke-linecap:round;stroke-linejoin:round" />
  <line
     x1="2.0728555"
     y1="25.775972"
     x2="137.10706"
     y2="25.775972"
     id="line254"
     style="stroke:currentColor;stroke-width:0.1164;stroke-linecap:round;stroke-linejoin:round" />
  <rect
     x="49.972755"
     y="25.775972"
     width="0.2212"
     height="4"
     ry="0"
     id="rect256"
     style="fill:currentColor" />
  <rect
     x="136.94406"
     y="25.775972"
     width="0.2212"
     height="4"
     ry="0"
     id="rect258"
     style="fill:currentColor" />
  <rect
     x="87.876053"
     y="25.775972"
     width="0.2212"
     height="4"
     ry="0"
     id="rect260"
     style="fill:currentColor" />
  <path
     d="m 63.972855,27.275973 c 0,-0.12 0.1,-0.22 0.22,-0.22 0.12,0 0.22,0.1 0.22,0.22 0,0.12 -0.1,0.22 -0.22,0.22 -0.12,0 -0.22,-0.1 -0.22,-0.22 z"
     id="path262"
     inkscape:connector-curvature="0"
     style="fill:currentColor" />
  <path
     d="m 63.479355,27.775973 h -1.396 c -0.028,0 -0.052,-0.024 -0.052,-0.052 v -0.524 c 0,-0.028 0.024,-0.048 0.052,-0.048 h 1.396 c 0.028,0 0.052,0.02 0.052,0.048 v 0.524 c 0,0.028 -0.024,0.052 -0.052,0.052 z"
     id="path264"
     inkscape:connector-curvature="0"
     style="fill:currentColor" />
  <path
     d="m 69.878055,27.775973 h -1.396 c -0.028,0 -0.052,-0.024 -0.052,-0.052 v -0.524 c 0,-0.028 0.024,-0.048 0.052,-0.048 h 1.396 c 0.028,0 0.052,0.02 0.052,0.048 v 0.524 c 0,0.028 -0.024,0.052 -0.052,0.052 z"
     id="path266"
     inkscape:connector-curvature="0"
     style="fill:currentColor" />
  <path
     d="m 94.984055,27.775973 h -1.396 c -0.028,0 -0.052,-0.024 -0.052,-0.052 v -0.524 c 0,-0.028 0.024,-0.048 0.052,-0.048 h 1.396 c 0.028,0 0.052,0.02 0.052,0.048 v 0.524 c 0,0.028 -0.024,0.052 -0.052,0.052 z"
     id="path268"
     inkscape:connector-curvature="0"
     style="fill:currentColor" />
  <path
     d="m 83.168855,27.275973 c 0,-0.12 0.1,-0.22 0.22,-0.22 0.12,0 0.22,0.1 0.22,0.22 0,0.12 -0.1,0.22 -0.22,0.22 -0.12,0 -0.22,-0.1 -0.22,-0.22 z"
     id="path270"
     inkscape:connector-curvature="0"
     style="fill:currentColor" />
  <path
     d="m 82.675355,27.775973 h -1.396 c -0.028,0 -0.052,-0.024 -0.052,-0.052 v -0.524 c 0,-0.028 0.024,-0.048 0.052,-0.048 h 1.396 c 0.028,0 0.052,0.02 0.052,0.048 v 0.524 c 0,0.028 -0.024,0.052 -0.052,0.052 z"
     id="path272"
     inkscape:connector-curvature="0"
     style="fill:currentColor" />
  <path
     d="m 76.770155,27.275973 c 0,-0.12 0.1,-0.22 0.22,-0.22 0.12,0 0.22,0.1 0.22,0.22 0,0.12 -0.1,0.22 -0.22,0.22 -0.12,0 -0.22,-0.1 -0.22,-0.22 z"
     id="path274"
     inkscape:connector-curvature="0"
     style="fill:currentColor" />
  <path
     d="m 76.276755,27.775973 h -1.396 c -0.028,0 -0.052,-0.024 -0.052,-0.052 v -0.524 c 0,-0.028 0.024,-0.048 0.052,-0.048 h 1.396 c 0.028,0 0.052,0.02 0.052,0.048 v 0.524 c 0,0.028 -0.024,0.052 -0.052,0.052 z"
     id="path276"
     inkscape:connector-curvature="0"
     style="fill:currentColor" />
  <path
     d="m 70.371455,27.275973 c 0,-0.12 0.1,-0.22 0.22,-0.22 0.12,0 0.22,0.1 0.22,0.22 0,0.12 -0.1,0.22 -0.22,0.22 -0.12,0 -0.22,-0.1 -0.22,-0.22 z"
     id="path278"
     inkscape:connector-curvature="0"
     style="fill:currentColor" />
  <path
     d="m 24.196955,27.775973 h -1.396 c -0.028,0 -0.052,-0.024 -0.052,-0.052 v -0.524 c 0,-0.028 0.024,-0.048 0.052,-0.048 h 1.396 c 0.028,0 0.052,0.02 0.052,0.048 v 0.524 c 0,0.028 -0.024,0.052 -0.052,0.052 z"
     id="path280"
     inkscape:connector-curvature="0"
     style="fill:currentColor" />
  <path
     d="m 34.986455,27.775973 h -1.396 c -0.028,0 -0.052,-0.024 -0.052,-0.052 v -0.524 c 0,-0.028 0.024,-0.048 0.052,-0.048 h 1.396 c 0.028,0 0.052,0.02 0.052,0.048 v 0.524 c 0,0.028 -0.024,0.052 -0.052,0.052 z"
     id="path282"
     inkscape:connector-curvature="0"
     style="fill:currentColor" />
  <path
     d="m 29.591755,27.775973 h -1.396 c -0.028,0 -0.052,-0.024 -0.052,-0.052 v -0.524 c 0,-0.028 0.024,-0.048 0.052,-0.048 h 1.396 c 0.028,0 0.052,0.02 0.052,0.048 v 0.524 c 0,0.028 -0.024,0.052 -0.052,0.052 z"
     id="path284"
     inkscape:connector-curvature="0"
     style="fill:currentColor" />
  <path
     d="m 18.802255,27.775973 h -1.396 c -0.028,0 -0.052,-0.024 -0.052,-0.052 v -0.524 c 0,-0.028 0.024,-0.048 0.052,-0.048 h 1.396 c 0.028,0 0.052,0.02 0.052,0.048 v 0.524 c 0,0.028 -0.024,0.052 -0.052,0.052 z"
     id="path286"
     inkscape:connector-curvature="0"
     style="fill:currentColor" />
  <path
     d="m 13.407455,27.775973 h -1.396 c -0.028,0 -0.052,-0.024 -0.052,-0.052 v -0.524 c 0,-0.028 0.024,-0.048 0.052,-0.048 h 1.396 c 0.028,0 0.052,0.02 0.052,0.048 v 0.524 c 0,0.028 -0.024,0.052 -0.052,0.052 z"
     id="path288"
     inkscape:connector-curvature="0"
     style="fill:currentColor" />
  <path
     d="m 57.574155,27.275973 c 0,-0.12 0.1,-0.22 0.22,-0.22 0.12,0 0.22,0.1 0.22,0.22 0,0.12 -0.1,0.22 -0.22,0.22 -0.12,0 -0.22,-0.1 -0.22,-0.22 z"
     id="path290"
     inkscape:connector-curvature="0"
     style="fill:currentColor" />
  <g
     transform="translate(50.943955,27.775973)"
     id="g292">
    <path
       transform="scale(0.004,-0.004)"
       d="m 129,503 c 19,0 35,-16 55,-16 15,0 29,7 43,13 1,1 3,1 4,1 8,0 14,-9 14,-19 V 123 c 0,-50 30,-97 77,-97 9,0 13,-7 13,-13 C 335,7 331,0 322,0 276,0 230,13 184,13 138,13 92,0 46,0 37,0 33,7 33,13 c 0,6 4,13 13,13 47,0 77,47 77,97 v 231 c 0,14 -10,20 -18,20 -5,0 -9,-2 -11,-6 L 29,236 c -3,-6 -9,-9 -14,-9 -8,0 -17,6 -17,15 0,2 1,5 2,8 l 123,250 c 1,3 3,3 6,3 z"
       id="path294"
       inkscape:connector-curvature="0"
       style="fill:currentColor" />
    <path
       transform="matrix(0.004,0,0,-0.004,1.3231,0)"
       d="m 50,500 c 45,-8 91,-13 137,-13 46,0 92,5 137,13 h 4 c 10,0 17,-7 17,-13 0,-2 0,-3 -2,-5 C 275,414 178,385 82,385 72,385 64,377 64,367 v -86 c 28,28 66,40 105,40 116,0 187,-51 187,-161 C 356,65 264,0 163,0 80,0 0,42 0,116 c 0,35 29,64 64,64 35,0 64,-29 64,-64 0,-24 -39,-29 -39,-53 0,-31 38,-37 74,-37 56,0 71,69 71,134 0,61 -12,129 -65,129 -42,0 -84,-9 -108,-42 -3,-5 -8,-7 -13,-7 -8,0 -17,6 -17,16 v 226 c 0,10 7,18 16,18 h 3 z"
       id="path296"
       inkscape:connector-curvature="0"
       style="fill:currentColor" />
  </g>
  <path
     d="m 52.281455,28.640573 c 0.092,-0.06 0.184,-0.116 0.248,-0.204 0.048,-0.064 0.08,-0.14 0.112,-0.208 0.008,-0.016 0.024,-0.024 0.04,-0.024 0.028,0 0.056,0.02 0.056,0.06 v 0.932 h 0.304 c 0.044,0 0.064,0.032 0.064,0.064 0,0.032 -0.02,0.064 -0.064,0.064 h -0.304 v 0.008 c 0,0.2 0.12,0.388 0.308,0.388 0.036,0 0.048,0.028 0.048,0.052 0,0.024 -0.012,0.052 -0.048,0.052 -0.184,0 -0.368,-0.052 -0.552,-0.052 -0.184,0 -0.372,0.052 -0.556,0.052 -0.036,0 -0.048,-0.028 -0.048,-0.052 0,-0.024 0.012,-0.052 0.048,-0.052 0.188,0 0.308,-0.188 0.308,-0.388 v -0.008 h -0.64 c -0.104,0 -0.136,-0.06 -0.136,-0.1 0,-0.012 0.004,-0.024 0.008,-0.028 0.316,-0.364 0.524,-0.82 0.524,-1.3 0,-0.04 0.028,-0.072 0.06,-0.072 h 0.012 c 0.096,0.028 0.196,0.052 0.296,0.052 0.1,0 0.2,-0.024 0.296,-0.052 0.008,-0.004 0.012,-0.004 0.02,-0.004 0.036,0 0.06,0.028 0.06,0.052 0,0.008 0,0.016 -0.008,0.024 l -1.132,1.3 h 0.64 v -0.46 c 0,-0.036 0.004,-0.076 0.036,-0.096 z"
     id="path298"
     inkscape:connector-curvature="0"
     style="fill:currentColor" />
  <path
     d="m 57.080755,27.775973 h -1.396 c -0.028,0 -0.052,-0.024 -0.052,-0.052 v -0.524 c 0,-0.028 0.024,-0.048 0.052,-0.048 h 1.396 c 0.028,0 0.052,0.02 0.052,0.048 v 0.524 c 0,0.028 -0.024,0.052 -0.052,0.052 z"
     id="path300"
     inkscape:connector-curvature="0"
     style="fill:currentColor" />
  <path
     d="m 45.775955,27.775973 h -1.396 c -0.028,0 -0.052,-0.024 -0.052,-0.052 v -0.524 c 0,-0.028 0.024,-0.048 0.052,-0.048 h 1.396 c 0.028,0 0.052,0.02 0.052,0.048 v 0.524 c 0,0.028 -0.024,0.052 -0.052,0.052 z"
     id="path302"
     inkscape:connector-curvature="0"
     style="fill:currentColor" />
  <path
     d="m 40.381255,27.775973 h -1.396 c -0.028,0 -0.052,-0.024 -0.052,-0.052 v -0.524 c 0,-0.028 0.024,-0.048 0.052,-0.048 h 1.396 c 0.028,0 0.052,0.02 0.052,0.048 v 0.524 c 0,0.028 -0.024,0.052 -0.052,0.052 z"
     id="path304"
     inkscape:connector-curvature="0"
     style="fill:currentColor" />
  <path
     d="m 132.74726,27.775973 h -1.396 c -0.028,0 -0.052,-0.024 -0.052,-0.052 v -0.524 c 0,-0.028 0.024,-0.048 0.052,-0.048 h 1.396 c 0.028,0 0.052,0.02 0.052,0.048 v 0.524 c 0,0.028 -0.024,0.052 -0.052,0.052 z"
     id="path306"
     inkscape:connector-curvature="0"
     style="fill:currentColor" />
  <path
     d="m 127.35256,27.775973 h -1.396 c -0.028,0 -0.052,-0.024 -0.052,-0.052 v -0.524 c 0,-0.028 0.024,-0.048 0.052,-0.048 h 1.396 c 0.028,0 0.052,0.02 0.052,0.048 v 0.524 c 0,0.028 -0.024,0.052 -0.052,0.052 z"
     id="path308"
     inkscape:connector-curvature="0"
     style="fill:currentColor" />
  <g
     transform="translate(88.847255,27.775973)"
     id="g310">
    <path
       transform="scale(0.004,-0.004)"
       d="m 129,503 c 19,0 35,-16 55,-16 15,0 29,7 43,13 1,1 3,1 4,1 8,0 14,-9 14,-19 V 123 c 0,-50 30,-97 77,-97 9,0 13,-7 13,-13 C 335,7 331,0 322,0 276,0 230,13 184,13 138,13 92,0 46,0 37,0 33,7 33,13 c 0,6 4,13 13,13 47,0 77,47 77,97 v 231 c 0,14 -10,20 -18,20 -5,0 -9,-2 -11,-6 L 29,236 c -3,-6 -9,-9 -14,-9 -8,0 -17,6 -17,15 0,2 1,5 2,8 l 123,250 c 1,3 3,3 6,3 z"
       id="path312"
       inkscape:connector-curvature="0"
       style="fill:currentColor" />
    <path
       transform="matrix(0.004,0,0,-0.004,1.3231,0)"
       d="m 173,256 c -47,0 -50,-37 -50,-88 v -27 -27 c 0,-51 3,-88 50,-88 56,0 58,50 58,115 0,65 -2,115 -58,115 z m -50,13 c 16,7 32,13 50,13 103,0 173,-45 173,-141 C 346,45 276,0 173,0 60,0 0,124 0,250 c 0,129 75,250 194,250 72,0 139,-40 139,-106 0,-35 -29,-64 -64,-64 -35,0 -64,29 -64,64 0,23 38,25 38,48 0,22 -24,32 -49,32 -63,0 -73,-59 -73,-130 0,-24 2,-50 2,-75 z"
       id="path314"
       inkscape:connector-curvature="0"
       style="fill:currentColor" />
  </g>
  <path
     d="m 90.184755,28.640573 c 0.092,-0.06 0.184,-0.116 0.248,-0.204 0.048,-0.064 0.08,-0.14 0.112,-0.208 0.008,-0.016 0.024,-0.024 0.04,-0.024 0.028,0 0.056,0.02 0.056,0.06 v 0.932 h 0.304 c 0.044,0 0.064,0.032 0.064,0.064 0,0.032 -0.02,0.064 -0.064,0.064 h -0.304 v 0.008 c 0,0.2 0.12,0.388 0.308,0.388 0.036,0 0.048,0.028 0.048,0.052 0,0.024 -0.012,0.052 -0.048,0.052 -0.184,0 -0.368,-0.052 -0.552,-0.052 -0.184,0 -0.372,0.052 -0.556,0.052 -0.036,0 -0.048,-0.028 -0.048,-0.052 0,-0.024 0.012,-0.052 0.048,-0.052 0.188,0 0.308,-0.188 0.308,-0.388 v -0.008 h -0.64 c -0.104,0 -0.136,-0.06 -0.136,-0.1 0,-0.012 0.004,-0.024 0.008,-0.028 0.316,-0.364 0.524,-0.82 0.524,-1.3 0,-0.04 0.028,-0.072 0.06,-0.072 h 0.012 c 0.096,0.028 0.196,0.052 0.296,0.052 0.1,0 0.2,-0.024 0.296,-0.052 0.008,-0.004 0.012,-0.004 0.02,-0.004 0.036,0 0.06,0.028 0.06,0.052 0,0.008 0,0.016 -0.008,0.024 l -1.132,1.3 h 0.64 v -0.46 c 0,-0.036 0.004,-0.076 0.036,-0.096 z"
     id="path316"
     inkscape:connector-curvature="0"
     style="fill:currentColor" />
  <path
     d="m 121.95776,27.775973 h -1.396 c -0.028,0 -0.052,-0.024 -0.052,-0.052 v -0.524 c 0,-0.028 0.024,-0.048 0.052,-0.048 h 1.396 c 0.028,0 0.052,0.02 0.052,0.048 v 0.524 c 0,0.028 -0.024,0.052 -0.052,0.052 z"
     id="path318"
     inkscape:connector-curvature="0"
     style="fill:currentColor" />
  <g
     transform="translate(7.0146555,27.775973)"
     id="g320">
    <path
       transform="scale(0.004,-0.004)"
       d="m 129,503 c 19,0 35,-16 55,-16 15,0 29,7 43,13 1,1 3,1 4,1 8,0 14,-9 14,-19 V 123 c 0,-50 30,-97 77,-97 9,0 13,-7 13,-13 C 335,7 331,0 322,0 276,0 230,13 184,13 138,13 92,0 46,0 37,0 33,7 33,13 c 0,6 4,13 13,13 47,0 77,47 77,97 v 231 c 0,14 -10,20 -18,20 -5,0 -9,-2 -11,-6 L 29,236 c -3,-6 -9,-9 -14,-9 -8,0 -17,6 -17,15 0,2 1,5 2,8 l 123,250 c 1,3 3,3 6,3 z"
       id="path322"
       inkscape:connector-curvature="0"
       style="fill:currentColor" />
    <path
       transform="matrix(0.004,0,0,-0.004,1.3231,0)"
       d="m 201,296 c 23,15 46,29 62,51 12,16 20,35 28,52 2,4 6,6 10,6 7,0 14,-5 14,-15 V 157 h 76 c 11,0 16,-8 16,-16 0,-8 -5,-16 -16,-16 h -76 v -2 c 0,-50 30,-97 77,-97 9,0 12,-7 12,-13 C 404,7 401,0 392,0 346,0 300,13 254,13 208,13 161,0 115,0 c -9,0 -12,7 -12,13 0,6 3,13 12,13 47,0 77,47 77,97 v 2 H 32 c -26,0 -34,15 -34,25 0,3 1,6 2,7 79,91 131,205 131,325 0,10 7,18 15,18 h 3 c 24,-7 49,-13 74,-13 25,0 50,6 74,13 2,1 3,1 5,1 9,0 15,-7 15,-13 0,-2 0,-4 -2,-6 L 32,157 h 160 v 115 c 0,9 1,19 9,24 z"
       id="path324"
       inkscape:connector-curvature="0"
       style="fill:currentColor" />
  </g>
  <path
     d="m 8.4801555,28.640573 c 0.092,-0.06 0.184,-0.116 0.248,-0.204 0.048,-0.064 0.08,-0.14 0.112,-0.208 0.008,-0.016 0.024,-0.024 0.04,-0.024 0.028,0 0.056,0.02 0.056,0.06 v 0.932 h 0.304 c 0.044,0 0.064,0.032 0.064,0.064 0,0.032 -0.02,0.064 -0.064,0.064 h -0.304 v 0.008 c 0,0.2 0.12,0.388 0.308,0.388 0.036,0 0.048,0.028 0.048,0.052 0,0.024 -0.012,0.052 -0.048,0.052 -0.184,0 -0.368,-0.052 -0.552,-0.052 -0.184,0 -0.372,0.052 -0.556,0.052 -0.036,0 -0.048,-0.028 -0.048,-0.052 0,-0.024 0.012,-0.052 0.048,-0.052 0.188,0 0.308,-0.188 0.308,-0.388 v -0.008 h -0.64 c -0.104,0 -0.136,-0.06 -0.136,-0.1 0,-0.012 0.004,-0.024 0.008,-0.028 0.316,-0.364 0.524,-0.82 0.524,-1.3 0,-0.04 0.028,-0.072 0.06,-0.072 h 0.012 c 0.096,0.028 0.196,0.052 0.296,0.052 0.1,0 0.2,-0.024 0.296,-0.052 0.008,-0.004 0.012,-0.004 0.02,-0.004 0.036,0 0.06,0.028 0.06,0.052 0,0.008 0,0.016 -0.008,0.024 l -1.132,1.3 h 0.64 v -0.46 c 0,-0.036 0.004,-0.076 0.036,-0.096 z"
     id="path326"
     inkscape:connector-curvature="0"
     style="fill:currentColor" />
  <text
     font-size="1.7463"
     id="text328"
     style="font-size:1.74629998px;text-anchor:start;fill:currentColor;font-family:serif"
     x="-0.20464453"
     y="24.725973">
    <tspan
       id="tspan330">14</tspan>
  </text>
  <path
     d="m 4.3306555,27.719973 c 0.012,0 0.028,-0.004 0.04,-0.004 0.628,0 1.032,0.516 1.032,1.052 0,0.308 -0.132,0.62 -0.432,0.844 -0.088,0.064 -0.184,0.116 -0.288,0.148 0.012,0.132 0.016,0.264 0.016,0.396 0,0.084 0,0.164 -0.004,0.248 -0.028,0.484 -0.364,0.916 -0.844,0.916 -0.432,0 -0.784,-0.352 -0.784,-0.788 0,-0.232 0.216,-0.412 0.452,-0.412 0.216,0 0.38,0.188 0.38,0.412 0,0.208 -0.172,0.38 -0.38,0.38 -0.036,0 -0.072,-0.004 -0.108,-0.016 0.1,0.148 0.264,0.244 0.452,0.244 0.38,0 0.624,-0.372 0.648,-0.764 0.004,-0.076 0.008,-0.152 0.008,-0.228 0,-0.116 -0.004,-0.232 -0.012,-0.348 -0.116,0.02 -0.232,0.032 -0.352,0.032 -0.756,0 -1.332,-0.692 -1.332,-1.504 0,-0.708 0.516,-1.232 0.976,-1.772 -0.08,-0.248 -0.16,-0.496 -0.192,-0.756 -0.028,-0.208 -0.028,-0.42 -0.028,-0.632 0,-0.456 0.216,-0.884 0.588,-1.152 0.016,-0.012 0.032,-0.016 0.048,-0.016 0.02,0 0.036,0.008 0.052,0.02 0.288,0.332 0.54,0.972 0.54,1.424 0,0.568 -0.336,1.02 -0.704,1.456 0.084,0.272 0.16,0.544 0.228,0.82 z m 0.336,1.86 c 0.26,-0.096 0.44,-0.376 0.44,-0.644 0,-0.352 -0.256,-0.7 -0.668,-0.752 0.096,0.456 0.176,0.908 0.228,1.396 z m -1.544,-0.904 c 0,0.532 0.512,0.972 1.044,0.972 0.108,0 0.22,-0.004 0.324,-0.02 -0.052,-0.504 -0.14,-0.976 -0.24,-1.448 -0.316,0.032 -0.496,0.24 -0.496,0.472 0,0.172 0.1,0.352 0.32,0.48 0.02,0.02 0.028,0.044 0.028,0.068 0,0.048 -0.04,0.092 -0.092,0.092 -0.012,0 -0.028,-0.004 -0.04,-0.008 -0.324,-0.172 -0.472,-0.46 -0.472,-0.744 0,-0.356 0.24,-0.708 0.652,-0.8 -0.056,-0.228 -0.12,-0.452 -0.188,-0.676 -0.42,0.488 -0.84,0.972 -0.84,1.612 z m 1.304,-4.052 c -0.396,0.184 -0.644,0.58 -0.644,1.016 0,0.284 0.084,0.52 0.156,0.752 0.312,-0.388 0.568,-0.796 0.568,-1.296 0,-0.204 -0.016,-0.288 -0.08,-0.472 z"
     id="path332"
     inkscape:connector-curvature="0"
     style="fill:currentColor" />
  <path
     d="m 105.77356,27.775973 h -1.396 c -0.028,0 -0.052,-0.024 -0.052,-0.052 v -0.524 c 0,-0.028 0.024,-0.048 0.052,-0.048 h 1.396 c 0.028,0 0.052,0.02 0.052,0.048 v 0.524 c 0,0.028 -0.024,0.052 -0.052,0.052 z"
     id="path334"
     inkscape:connector-curvature="0"
     style="fill:currentColor" />
  <path
     d="m 100.37886,27.775973 h -1.396005 c -0.028,0 -0.052,-0.024 -0.052,-0.052 v -0.524 c 0,-0.028 0.024,-0.048 0.052,-0.048 h 1.396005 c 0.028,0 0.052,0.02 0.052,0.048 v 0.524 c 0,0.028 -0.024,0.052 -0.052,0.052 z"
     id="path336"
     inkscape:connector-curvature="0"
     style="fill:currentColor" />
  <path
     d="m 111.16826,27.775973 h -1.396 c -0.028,0 -0.052,-0.024 -0.052,-0.052 v -0.524 c 0,-0.028 0.024,-0.048 0.052,-0.048 h 1.396 c 0.028,0 0.052,0.02 0.052,0.048 v 0.524 c 0,0.028 -0.024,0.052 -0.052,0.052 z"
     id="path338"
     inkscape:connector-curvature="0"
     style="fill:currentColor" />
  <path
     d="m 116.56306,27.775973 h -1.396 c -0.028,0 -0.052,-0.024 -0.052,-0.052 v -0.524 c 0,-0.028 0.024,-0.048 0.052,-0.048 h 1.396 c 0.028,0 0.052,0.02 0.052,0.048 v 0.524 c 0,0.028 -0.024,0.052 -0.052,0.052 z"
     id="path340"
     inkscape:connector-curvature="0"
     style="fill:currentColor" />
  <text
     font-size="2.1999"
     id="text342"
     style="font-size:2.19989991px;text-anchor:start;fill:currentColor;font-family:serif"
     x="69.589958"
     y="202.43718">
    <tspan
       id="tspan344" />
  </text>
</svg>
