<?xml version="1.0" encoding="UTF-8" standalone="no"?>
<svg
   xmlns:dc="http://purl.org/dc/elements/1.1/"
   xmlns:cc="http://creativecommons.org/ns#"
   xmlns:rdf="http://www.w3.org/1999/02/22-rdf-syntax-ns#"
   xmlns:svg="http://www.w3.org/2000/svg"
   xmlns="http://www.w3.org/2000/svg"
   xmlns:sodipodi="http://sodipodi.sourceforge.net/DTD/sodipodi-0.dtd"
   xmlns:inkscape="http://www.inkscape.org/namespaces/inkscape"
   version="1.2"
   width="449.90329"
   height="61.688656"
   viewBox="0 0 90.318105 12.383997"
   id="svg2"
   inkscape:version="0.48.2 r9819"
   sodipodi:docname="test.svg">
  <metadata
     id="metadata226">
    <rdf:RDF>
      <cc:Work
         rdf:about="">
        <dc:format>image/svg+xml</dc:format>
        <dc:type
           rdf:resource="http://purl.org/dc/dcmitype/StillImage" />
      </cc:Work>
    </rdf:RDF>
  </metadata>
  <defs
     id="defs224" />
  <sodipodi:namedview
     pagecolor="#ffffff"
     bordercolor="#666666"
     borderopacity="1"
     objecttolerance="10"
     gridtolerance="10"
     guidetolerance="10"
     inkscape:pageopacity="0"
     inkscape:pageshadow="2"
     inkscape:window-width="769"
     inkscape:window-height="480"
     id="namedview222"
     showgrid="false"
     fit-margin-top="0"
     fit-margin-left="0"
     fit-margin-right="0"
     fit-margin-bottom="0"
     inkscape:zoom="0.22425739"
     inkscape:cx="283.46445"
     inkscape:cy="-441.79442"
     inkscape:window-x="0"
     inkscape:window-y="0"
     inkscape:window-maximized="0"
     inkscape:current-layer="svg2" />
  <!-- Page: 1/1 -->
  <text
     font-size="2.1999"
     id="text4"
     style="font-size:2.19989991px;text-anchor:start;fill:currentColor;font-family:serif"
     x="-10.6698"
     y="-1.0000272">
    <tspan
       id="tspan6" />
  </text>
  <line
     x1="0.058200002"
     y1="10.831973"
     x2="90.259903"
     y2="10.831973"
     id="line8"
     style="stroke:currentColor;stroke-width:0.1164;stroke-linecap:round;stroke-linejoin:round" />
  <line
     x1="0.058200002"
     y1="9.8319731"
     x2="90.259903"
     y2="9.8319731"
     id="line10"
     style="stroke:currentColor;stroke-width:0.1164;stroke-linecap:round;stroke-linejoin:round" />
  <line
     x1="0.058200002"
     y1="8.8319731"
     x2="90.259903"
     y2="8.8319731"
     id="line12"
     style="stroke:currentColor;stroke-width:0.1164;stroke-linecap:round;stroke-linejoin:round" />
  <line
     x1="0.058200002"
     y1="7.8319726"
     x2="90.259903"
     y2="7.8319726"
     id="line14"
     style="stroke:currentColor;stroke-width:0.1164;stroke-linecap:round;stroke-linejoin:round" />
  <line
     x1="0.058200002"
     y1="6.8319726"
     x2="90.259903"
     y2="6.8319726"
     id="line16"
     style="stroke:currentColor;stroke-width:0.1164;stroke-linecap:round;stroke-linejoin:round" />
  <rect
     x="90.096901"
     y="6.8319726"
     width="0.2212"
     height="4"
     ry="0"
     id="rect18"
     style="fill:currentColor" />
  <rect
     x="76.8162"
     y="6.8319726"
     width="0.2212"
     height="4"
     ry="0"
     id="rect20"
     style="fill:currentColor" />
  <rect
     x="35.6297"
     y="6.8319726"
     width="0.2212"
     height="4"
     ry="0"
     id="rect22"
     style="fill:currentColor" />
  <rect
     x="49.026699"
     y="6.8319726"
     width="0.2212"
     height="4"
     ry="0"
     id="rect24"
     style="fill:currentColor" />
  <rect
     x="21.3011"
     y="6.8319726"
     width="0.2212"
     height="4"
     ry="0"
     id="rect26"
     style="fill:currentColor" />
  <rect
     x="87.065903"
     y="1.7237729"
     width="1.9962"
     height="0.2164"
     ry="0.1082"
     id="rect28"
     style="fill:currentColor" />
  <rect
     x="86.720497"
     y="2.7237728"
     width="2.3415"
     height="0.2164"
     ry="0.1082"
     id="rect30"
     style="fill:currentColor" />
  <rect
     x="86.720497"
     y="3.7237728"
     width="2.3415"
     height="0.2164"
     ry="0.1082"
     id="rect32"
     style="fill:currentColor" />
  <rect
     x="86.720497"
     y="4.723773"
     width="2.3415"
     height="0.2164"
     ry="0.1082"
     id="rect34"
     style="fill:currentColor" />
  <rect
     x="86.720497"
     y="5.723773"
     width="2.3415"
     height="0.2164"
     ry="0.1082"
     id="rect36"
     style="fill:currentColor" />
  <rect
     x="83.529198"
     y="2.7237728"
     width="2.3415"
     height="0.2164"
     ry="0.1082"
     id="rect38"
     style="fill:currentColor" />
  <rect
     x="83.529198"
     y="3.7237728"
     width="2.3415"
     height="0.2164"
     ry="0.1082"
     id="rect40"
     style="fill:currentColor" />
  <rect
     x="83.529198"
     y="4.723773"
     width="2.3415"
     height="0.2164"
     ry="0.1082"
     id="rect42"
     style="fill:currentColor" />
  <rect
     x="83.529198"
     y="5.723773"
     width="2.3415"
     height="0.2164"
     ry="0.1082"
     id="rect44"
     style="fill:currentColor" />
  <rect
     x="80.530304"
     y="2.7237728"
     width="2.3415"
     height="0.2164"
     ry="0.1082"
     id="rect46"
     style="fill:currentColor" />
  <rect
     x="80.530304"
     y="3.7237728"
     width="2.3415"
     height="0.2164"
     ry="0.1082"
     id="rect48"
     style="fill:currentColor" />
  <rect
     x="80.530304"
     y="4.723773"
     width="2.3415"
     height="0.2164"
     ry="0.1082"
     id="rect50"
     style="fill:currentColor" />
  <rect
     x="80.530304"
     y="5.723773"
     width="2.3415"
     height="0.2164"
     ry="0.1082"
     id="rect52"
     style="fill:currentColor" />
  <rect
     x="77.876801"
     y="3.7237728"
     width="1.9962"
     height="0.2164"
     ry="0.1082"
     id="rect54"
     style="fill:currentColor" />
  <rect
     x="77.531403"
     y="4.723773"
     width="2.3415"
     height="0.2164"
     ry="0.1082"
     id="rect56"
     style="fill:currentColor" />
  <rect
     x="77.531403"
     y="5.723773"
     width="2.3415"
     height="0.2164"
     ry="0.1082"
     id="rect58"
     style="fill:currentColor" />
  <rect
     x="73.7686"
     y="3.7237728"
     width="2.0128"
     height="0.2164"
     ry="0.1082"
     id="rect60"
     style="fill:currentColor" />
  <rect
     x="73.439903"
     y="4.723773"
     width="2.3415"
     height="0.2164"
     ry="0.1082"
     id="rect62"
     style="fill:currentColor" />
  <rect
     x="73.439903"
     y="5.723773"
     width="2.3415"
     height="0.2164"
     ry="0.1082"
     id="rect64"
     style="fill:currentColor" />
  <rect
     x="70.786301"
     y="3.7237728"
     width="1.9962"
     height="0.2164"
     ry="0.1082"
     id="rect66"
     style="fill:currentColor" />
  <rect
     x="70.441002"
     y="4.723773"
     width="2.3415"
     height="0.2164"
     ry="0.1082"
     id="rect68"
     style="fill:currentColor" />
  <rect
     x="70.441002"
     y="5.723773"
     width="2.3415"
     height="0.2164"
     ry="0.1082"
     id="rect70"
     style="fill:currentColor" />
  <rect
     x="67.595001"
     y="4.723773"
     width="1.9962"
     height="0.2164"
     ry="0.1082"
     id="rect72"
     style="fill:currentColor" />
  <rect
     x="67.249603"
     y="5.723773"
     width="2.3415"
     height="0.2164"
     ry="0.1082"
     id="rect74"
     style="fill:currentColor" />
  <rect
     x="64.058304"
     y="4.723773"
     width="2.3415"
     height="0.2164"
     ry="0.1082"
     id="rect76"
     style="fill:currentColor" />
  <rect
     x="64.058304"
     y="5.723773"
     width="2.3415"
     height="0.2164"
     ry="0.1082"
     id="rect78"
     style="fill:currentColor" />
  <rect
     x="60.312103"
     y="5.723773"
     width="1.9962"
     height="0.2164"
     ry="0.1082"
     id="rect80"
     style="fill:currentColor" />
  <rect
     x="56.775398"
     y="5.723773"
     width="2.3415"
     height="0.2164"
     ry="0.1082"
     id="rect82"
     style="fill:currentColor" />
  <rect
     x="8.1625004"
     y="11.723773"
     width="2.3415"
     height="0.2164"
     ry="0.1082"
     id="rect84"
     style="fill:currentColor" />
  <rect
     x="63.343102"
     y="6.8319726"
     width="0.2212"
     height="4"
     ry="0"
     id="rect86"
     style="fill:currentColor" />
  <rect
     x="54.296799"
     y="6.5032725"
     width="0.1514"
     height="3.3287001"
     ry="0.050000001"
     id="rect88"
     style="fill:currentColor" />
  <path
     d="m 58.1437,5.2799728 c 0.236,0 0.452,0.124 0.452,0.38 0,0.284 -0.208,0.48 -0.396,0.592 -0.136,0.084 -0.292,0.132 -0.452,0.132 -0.236,0 -0.452,-0.124 -0.452,-0.38 0,-0.284 0.212,-0.48 0.4,-0.592 0.136,-0.084 0.288,-0.132 0.448,-0.132 z"
     id="path90"
     inkscape:connector-curvature="0"
     style="fill:currentColor" />
  <rect
     x="57.2957"
     y="6.0032725"
     width="0.1514"
     height="3.3287001"
     ry="0.050000001"
     id="rect92"
     style="fill:currentColor" />
  <path
     d="m 61.3351,4.7799728 c 0.236,0 0.452,0.124 0.452,0.38 0,0.284 -0.208,0.48 -0.396,0.592 -0.136,0.084 -0.292,0.132 -0.452,0.132 -0.236,0 -0.452,-0.124 -0.452,-0.38 0,-0.284 0.212,-0.48 0.4,-0.592 0.136,-0.084 0.288,-0.132 0.448,-0.132 z"
     id="path94"
     inkscape:connector-curvature="0"
     style="fill:currentColor" />
  <rect
     x="60.487099"
     y="5.5032725"
     width="0.1514"
     height="3.3287001"
     ry="0.050000001"
     id="rect96"
     style="fill:currentColor" />
  <path
     d="m 59.4611,5.1839728 -0.008,0.248 v 0.044 c 0,0.088 0.008,0.172 0.02,0.256 0.172,-0.152 0.356,-0.32 0.356,-0.548 0,-0.128 -0.056,-0.26 -0.168,-0.26 -0.124,0 -0.196,0.128 -0.2,0.26 z m -0.188,0.708 -0.056,-2.36 c 0.036,-0.02 0.08,-0.032 0.12,-0.032 0.04,0 0.084,0.012 0.12,0.032 l -0.032,1.36 c 0.1,-0.096 0.236,-0.152 0.376,-0.152 0.2,0 0.336,0.2 0.336,0.416 0,0.312 -0.332,0.468 -0.564,0.676 -0.068,0.06 -0.1,0.176 -0.196,0.176 -0.06,0 -0.104,-0.052 -0.104,-0.116 z"
     id="path98"
     inkscape:connector-curvature="0"
     style="fill:currentColor" />
  <path
     d="m 65.4266,4.2799728 c 0.236,0 0.452,0.124 0.452,0.38 0,0.284 -0.208,0.48 -0.396,0.592 -0.136,0.084 -0.292,0.132 -0.452,0.132 -0.236,0 -0.452,-0.124 -0.452,-0.38 0,-0.284 0.212,-0.48 0.4,-0.592 0.136,-0.084 0.288,-0.132 0.448,-0.132 z"
     id="path100"
     inkscape:connector-curvature="0"
     style="fill:currentColor" />
  <rect
     x="64.578598"
     y="5.0032725"
     width="0.1514"
     height="3.8287001"
     ry="0.050000001"
     id="rect102"
     style="fill:currentColor" />
  <path
     d="m 42.2407,7.1839728 -0.008,0.248 v 0.044 c 0,0.088 0.008,0.172 0.02,0.256 0.172,-0.152 0.356,-0.32 0.356,-0.548 0,-0.128 -0.056,-0.26 -0.168,-0.26 -0.124,0 -0.196,0.128 -0.2,0.26 z m -0.188,0.708 -0.056,-2.36 c 0.036,-0.02 0.08,-0.032 0.12,-0.032 0.04,0 0.084,0.012 0.12,0.032 l -0.032,1.36 c 0.1,-0.096 0.236,-0.152 0.376,-0.152 0.2,0 0.336,0.2 0.336,0.416 0,0.312 -0.332,0.468 -0.564,0.676 -0.068,0.06 -0.1,0.176 -0.196,0.176 -0.06,0 -0.104,-0.052 -0.104,-0.116 z"
     id="path104"
     inkscape:connector-curvature="0"
     style="fill:currentColor" />
  <path
     d="m 47.1136,6.7799728 c 0.236,0 0.452,0.124 0.452,0.38 0,0.284 -0.208,0.48 -0.396,0.592 -0.136,0.084 -0.292,0.132 -0.452,0.132 -0.236,0 -0.452,-0.124 -0.452,-0.38 0,-0.284 0.212,-0.48 0.4,-0.592 0.136,-0.084 0.288,-0.132 0.448,-0.132 z"
     id="path106"
     inkscape:connector-curvature="0"
     style="fill:currentColor" />
  <rect
     x="46.265598"
     y="7.503273"
     width="0.1514"
     height="3.3287001"
     ry="0.050000001"
     id="rect108"
     style="fill:currentColor" />
  <path
     d="m 45.1836,5.8319728 c 0.032,-0.02 0.072,-0.028 0.108,-0.028 0.036,0 0.072,0.008 0.104,0.028 l -0.012,0.768 0.408,-0.092 h 0.016 c 0.04,0 0.076,0.032 0.076,0.072 l 0.032,2.252 c -0.032,0.02 -0.072,0.028 -0.108,0.028 -0.036,0 -0.072,-0.008 -0.104,-0.028 l 0.008,-0.768 -0.404,0.092 h -0.016 c -0.04,0 -0.076,-0.032 -0.076,-0.072 z m 0.544,1.06 -0.348,0.076 -0.012,0.804 0.352,-0.076 z"
     id="path110"
     inkscape:connector-curvature="0"
     style="fill:currentColor" />
  <path
     d="m 52.146,6.2799728 c 0.236,0 0.452,0.124 0.452,0.38 0,0.284 -0.208,0.48 -0.396,0.592 -0.136,0.084 -0.292,0.132 -0.452,0.132 -0.236,0 -0.452,-0.124 -0.452,-0.38 0,-0.284 0.212,-0.48 0.4,-0.592 0.136,-0.084 0.288,-0.132 0.448,-0.132 z"
     id="path112"
     inkscape:connector-curvature="0"
     style="fill:currentColor" />
  <rect
     x="51.297901"
     y="7.003273"
     width="0.1514"
     height="3.3287001"
     ry="0.050000001"
     id="rect114"
     style="fill:currentColor" />
  <path
     d="m 55.1448,5.7799728 c 0.236,0 0.452,0.124 0.452,0.38 0,0.284 -0.208,0.48 -0.396,0.592 -0.136,0.084 -0.292,0.132 -0.452,0.132 -0.236,0 -0.452,-0.124 -0.452,-0.38 0,-0.284 0.212,-0.48 0.4,-0.592 0.136,-0.084 0.288,-0.132 0.448,-0.132 z"
     id="path116"
     inkscape:connector-curvature="0"
     style="fill:currentColor" />
  <path
     d="m 50.64,8.1479728 c -0.048,0 -0.084,-0.036 -0.084,-0.084 v -0.552 l -0.316,0.12 v 0.616 c 0,0.048 -0.036,0.084 -0.084,0.084 -0.048,0 -0.084,-0.036 -0.084,-0.084 v -0.552 l -0.088,0.032 c -0.012,0.004 -0.024,0.008 -0.036,0.008 -0.052,0 -0.1,-0.044 -0.1,-0.1 v -0.216 c 0,-0.04 0.024,-0.08 0.064,-0.096 l 0.16,-0.06 v -0.62 l -0.088,0.036 c -0.012,0.004 -0.024,0.004 -0.036,0.004 -0.052,0 -0.1,-0.044 -0.1,-0.1 v -0.216 c 0,-0.04 0.024,-0.076 0.064,-0.092 l 0.16,-0.06 v -0.616 c 0,-0.048 0.036,-0.084 0.084,-0.084 0.048,0 0.084,0.036 0.084,0.084 v 0.552 l 0.316,-0.12 v -0.616 c 0,-0.048 0.036,-0.084 0.084,-0.084 0.048,0 0.084,0.036 0.084,0.084 v 0.552 l 0.088,-0.032 c 0.012,-0.004 0.024,-0.008 0.036,-0.008 0.052,0 0.1,0.044 0.1,0.1 v 0.216 c 0,0.04 -0.024,0.08 -0.064,0.096 l -0.16,0.06 v 0.62 l 0.088,-0.036 c 0.012,-0.004 0.024,-0.004 0.036,-0.004 0.052,0 0.1,0.044 0.1,0.1 v 0.216 c 0,0.04 -0.024,0.076 -0.064,0.092 l -0.16,0.06 v 0.616 c 0,0.048 -0.036,0.084 -0.084,0.084 z m -0.4,-1.564 v 0.616 l 0.316,-0.12 v -0.616 z"
     id="path118"
     inkscape:connector-curvature="0"
     style="fill:currentColor" />
  <rect
     x="81.050598"
     y="3.0032728"
     width="0.1514"
     height="5.8287001"
     ry="0.050000001"
     id="rect120"
     style="fill:currentColor" />
  <path
     d="m 77.3937,4.6479728 c -0.048,0 -0.084,-0.036 -0.084,-0.084 v -0.552 l -0.316,0.12 v 0.616 c 0,0.048 -0.036,0.084 -0.084,0.084 -0.048,0 -0.084,-0.036 -0.084,-0.084 v -0.552 l -0.088,0.032 c -0.012,0.004 -0.024,0.008 -0.036,0.008 -0.052,0 -0.1,-0.044 -0.1,-0.1 v -0.216 c 0,-0.04 0.024,-0.08 0.064,-0.096 l 0.16,-0.06 v -0.62 l -0.088,0.036 c -0.012,0.004 -0.024,0.004 -0.036,0.004 -0.052,0 -0.1,-0.044 -0.1,-0.1 v -0.216 c 0,-0.04 0.024,-0.076 0.064,-0.092 l 0.16,-0.06 v -0.616 c 0,-0.048 0.036,-0.084 0.084,-0.084 0.048,0 0.084,0.036 0.084,0.084 v 0.552 l 0.316,-0.12 v -0.616 c 0,-0.048 0.036,-0.084 0.084,-0.084 0.048,0 0.084,0.036 0.084,0.084 v 0.552 l 0.088,-0.032 c 0.012,-0.004 0.024,-0.008 0.036,-0.008 0.052,0 0.1,0.044 0.1,0.1 v 0.216 c 0,0.04 -0.024,0.08 -0.064,0.096 l -0.16,0.06 v 0.62 l 0.088,-0.036 c 0.012,-0.004 0.024,-0.004 0.036,-0.004 0.052,0 0.1,0.044 0.1,0.1 v 0.216 c 0,0.04 -0.024,0.076 -0.064,0.092 l -0.16,0.06 v 0.616 c 0,0.048 -0.036,0.084 -0.084,0.084 z m -0.4,-1.564 v 0.616 l 0.316,-0.12 v -0.616 z"
     id="path122"
     inkscape:connector-curvature="0"
     style="fill:currentColor" />
  <path
     d="m 81.8986,2.2799728 c 0.236,0 0.452,0.124 0.452,0.38 0,0.284 -0.208,0.48 -0.396,0.592 -0.136,0.084 -0.292,0.132 -0.452,0.132 -0.236,0 -0.452,-0.124 -0.452,-0.38 0,-0.284 0.212,-0.48 0.4,-0.592 0.136,-0.084 0.288,-0.132 0.448,-0.132 z"
     id="path124"
     inkscape:connector-curvature="0"
     style="fill:currentColor" />
  <path
     d="m 84.8975,1.7799728 c 0.236,0 0.452,0.124 0.452,0.38 0,0.284 -0.208,0.48 -0.396,0.592 -0.136,0.084 -0.292,0.132 -0.452,0.132 -0.236,0 -0.452,-0.124 -0.452,-0.38 0,-0.284 0.212,-0.48 0.4,-0.592 0.136,-0.084 0.288,-0.132 0.448,-0.132 z"
     id="path126"
     inkscape:connector-curvature="0"
     style="fill:currentColor" />
  <rect
     x="84.0495"
     y="2.5032728"
     width="0.1514"
     height="6.3287001"
     ry="0.050000001"
     id="rect128"
     style="fill:currentColor" />
  <path
     d="m 88.0889,1.2799728 c 0.236,0 0.452,0.124 0.452,0.38 0,0.284 -0.208,0.48 -0.396,0.592 -0.136,0.084 -0.292,0.132 -0.452,0.132 -0.236,0 -0.452,-0.124 -0.452,-0.38 0,-0.284 0.212,-0.48 0.4,-0.592 0.136,-0.084 0.288,-0.132 0.448,-0.132 z"
     id="path130"
     inkscape:connector-curvature="0"
     style="fill:currentColor" />
  <rect
     x="87.240799"
     y="2.0032728"
     width="0.1514"
     height="6.8287001"
     ry="0.050000001"
     id="rect132"
     style="fill:currentColor" />
  <path
     d="m 86.2149,1.6839728 -0.008,0.248 v 0.044 c 0,0.088 0.008,0.172 0.02,0.256 0.172,-0.152 0.356,-0.32 0.356,-0.548 0,-0.128 -0.056,-0.26 -0.168,-0.26 -0.124,0 -0.196,0.128 -0.2,0.26 z m -0.188,0.708 -0.056,-2.35999997 c 0.036,-0.02 0.08,-0.03200000111 0.12,-0.03200000111 0.04,0 0.084,0.01200000111 0.12,0.03200000111 l -0.032,1.35999997 c 0.1,-0.096 0.236,-0.152 0.376,-0.152 0.2,0 0.336,0.2 0.336,0.416 0,0.312 -0.332,0.468 -0.564,0.676 -0.068,0.06 -0.1,0.176 -0.196,0.176 -0.06,0 -0.104,-0.052 -0.104,-0.116 z"
     id="path134"
     inkscape:connector-curvature="0"
     style="fill:currentColor" />
  <path
     d="m 68.618,3.7799728 c 0.236,0 0.452,0.124 0.452,0.38 0,0.284 -0.208,0.48 -0.396,0.592 -0.136,0.084 -0.292,0.132 -0.452,0.132 -0.236,0 -0.452,-0.124 -0.452,-0.38 0,-0.284 0.212,-0.48 0.4,-0.592 0.136,-0.084 0.288,-0.132 0.448,-0.132 z"
     id="path136"
     inkscape:connector-curvature="0"
     style="fill:currentColor" />
  <rect
     x="67.769897"
     y="4.5032725"
     width="0.1514"
     height="4.3287001"
     ry="0.050000001"
     id="rect138"
     style="fill:currentColor" />
  <path
     d="m 66.744,4.1839728 -0.008,0.248 v 0.044 c 0,0.088 0.008,0.172 0.02,0.256 0.172,-0.152 0.356,-0.32 0.356,-0.548 0,-0.128 -0.056,-0.26 -0.168,-0.26 -0.124,0 -0.196,0.128 -0.2,0.26 z m -0.188,0.708 -0.056,-2.36 c 0.036,-0.02 0.08,-0.032 0.12,-0.032 0.04,0 0.084,0.012 0.12,0.032 l -0.032,1.36 c 0.1,-0.096 0.236,-0.152 0.376,-0.152 0.2,0 0.336,0.2 0.336,0.416 0,0.312 -0.332,0.468 -0.564,0.676 -0.068,0.06 -0.1,0.176 -0.196,0.176 -0.06,0 -0.104,-0.052 -0.104,-0.116 z"
     id="path140"
     inkscape:connector-curvature="0"
     style="fill:currentColor" />
  <path
     d="m 71.8093,3.2799728 c 0.236,0 0.452,0.124 0.452,0.38 0,0.284 -0.208,0.48 -0.396,0.592 -0.136,0.084 -0.292,0.132 -0.452,0.132 -0.236,0 -0.452,-0.124 -0.452,-0.38 0,-0.284 0.212,-0.48 0.4,-0.592 0.136,-0.084 0.288,-0.132 0.448,-0.132 z"
     id="path142"
     inkscape:connector-curvature="0"
     style="fill:currentColor" />
  <rect
     x="70.961304"
     y="4.0032725"
     width="0.1514"
     height="4.8287001"
     ry="0.050000001"
     id="rect144"
     style="fill:currentColor" />
  <path
     d="m 69.9353,3.6839728 -0.008,0.248 v 0.044 c 0,0.088 0.008,0.172 0.02,0.256 0.172,-0.152 0.356,-0.32 0.356,-0.548 0,-0.128 -0.056,-0.26 -0.168,-0.26 -0.124,0 -0.196,0.128 -0.2,0.26 z m -0.188,0.708 -0.056,-2.36 c 0.036,-0.02 0.08,-0.032 0.12,-0.032 0.04,0 0.084,0.012 0.12,0.032 l -0.032,1.36 c 0.1,-0.096 0.236,-0.152 0.376,-0.152 0.2,0 0.336,0.2 0.336,0.416 0,0.312 -0.332,0.468 -0.564,0.676 -0.068,0.06 -0.1,0.176 -0.196,0.176 -0.06,0 -0.104,-0.052 -0.104,-0.116 z"
     id="path146"
     inkscape:connector-curvature="0"
     style="fill:currentColor" />
  <path
     d="m 74.8082,3.2799728 c 0.236,0 0.452,0.124 0.452,0.38 0,0.284 -0.208,0.48 -0.396,0.592 -0.136,0.084 -0.292,0.132 -0.452,0.132 -0.236,0 -0.452,-0.124 -0.452,-0.38 0,-0.284 0.212,-0.48 0.4,-0.592 0.136,-0.084 0.288,-0.132 0.448,-0.132 z"
     id="path148"
     inkscape:connector-curvature="0"
     style="fill:currentColor" />
  <rect
     x="73.960197"
     y="4.0032725"
     width="0.1514"
     height="4.8287001"
     ry="0.050000001"
     id="rect150"
     style="fill:currentColor" />
  <path
     d="m 72.8782,2.3319728 c 0.032,-0.02 0.072,-0.028 0.108,-0.028 0.036,0 0.072,0.008 0.104,0.028 l -0.012,0.768 0.408,-0.092 h 0.016 c 0.04,0 0.076,0.032 0.076,0.072 l 0.032,2.252 c -0.032,0.02 -0.072,0.028 -0.108,0.028 -0.036,0 -0.072,-0.008 -0.104,-0.028 l 0.008,-0.768 -0.404,0.092 h -0.016 c -0.04,0 -0.076,-0.032 -0.076,-0.072 z m 0.544,1.06 -0.348,0.076 -0.012,0.804 0.352,-0.076 z"
     id="path152"
     inkscape:connector-curvature="0"
     style="fill:currentColor" />
  <path
     d="m 78.8997,2.7799728 c 0.236,0 0.452,0.124 0.452,0.38 0,0.284 -0.208,0.48 -0.396,0.592 -0.136,0.084 -0.292,0.132 -0.452,0.132 -0.236,0 -0.452,-0.124 -0.452,-0.38 0,-0.284 0.212,-0.48 0.4,-0.592 0.136,-0.084 0.288,-0.132 0.448,-0.132 z"
     id="path154"
     inkscape:connector-curvature="0"
     style="fill:currentColor" />
  <rect
     x="78.051697"
     y="3.5032728"
     width="0.1514"
     height="5.3287001"
     ry="0.050000001"
     id="rect156"
     style="fill:currentColor" />
  <path
     d="m 14.0396,10.683973 -0.008,0.248 v 0.044 c 0,0.088 0.008,0.172 0.02,0.256 0.172,-0.152 0.356,-0.32 0.356,-0.548 0,-0.128 -0.056,-0.26 -0.168,-0.26 -0.124,0 -0.196,0.128 -0.2,0.26 z m -0.188,0.708 -0.056,-2.3600002 c 0.036,-0.02 0.08,-0.032 0.12,-0.032 0.04,0 0.084,0.012 0.12,0.032 l -0.032,1.3600002 c 0.1,-0.096 0.236,-0.152 0.376,-0.152 0.2,0 0.336,0.2 0.336,0.416 0,0.312 -0.332,0.468 -0.564,0.676 -0.068,0.06 -0.1,0.176 -0.196,0.176 -0.06,0 -0.104,-0.052 -0.104,-0.116 z"
     id="path158"
     inkscape:connector-curvature="0"
     style="fill:currentColor" />
  <path
     d="m 18.9125,10.279973 c 0.236,0 0.452,0.124 0.452,0.38 0,0.284 -0.208,0.48 -0.396,0.592 -0.136,0.084 -0.292,0.132 -0.452,0.132 -0.236,0 -0.452,-0.124 -0.452,-0.38 0,-0.284 0.212,-0.48 0.4,-0.592 0.136,-0.084 0.288,-0.132 0.448,-0.132 z"
     id="path160"
     inkscape:connector-curvature="0"
     style="fill:currentColor" />
  <rect
     x="19.2139"
     y="7.3319726"
     width="0.1514"
     height="3.3287001"
     ry="0.050000001"
     id="rect162"
     style="fill:currentColor" />
  <path
     d="m 16.9889,9.3319728 c 0.032,-0.02 0.072,-0.028 0.108,-0.028 0.036,0 0.072,0.008 0.104,0.028 l -0.012,0.7680002 0.408,-0.092 h 0.016 c 0.04,0 0.076,0.032 0.076,0.072 l 0.032,2.252 c -0.032,0.02 -0.072,0.028 -0.108,0.028 -0.036,0 -0.072,-0.008 -0.104,-0.028 l 0.008,-0.768 -0.404,0.092 h -0.016 c -0.04,0 -0.076,-0.032 -0.076,-0.072 z m 0.544,1.0600002 -0.348,0.076 -0.012,0.804 0.352,-0.076 z"
     id="path164"
     inkscape:connector-curvature="0"
     style="fill:currentColor" />
  <path
     d="m 24.4203,9.7799728 c 0.236,0 0.452,0.124 0.452,0.3800002 0,0.284 -0.208,0.48 -0.396,0.592 -0.136,0.084 -0.292,0.132 -0.452,0.132 -0.236,0 -0.452,-0.124 -0.452,-0.38 0,-0.284 0.212,-0.48 0.4,-0.5920002 0.136,-0.084 0.288,-0.132 0.448,-0.132 z"
     id="path166"
     inkscape:connector-curvature="0"
     style="fill:currentColor" />
  <rect
     x="24.7218"
     y="6.8319726"
     width="0.1514"
     height="3.3287001"
     ry="0.050000001"
     id="rect168"
     style="fill:currentColor" />
  <path
     d="m 22.9143,11.647973 c -0.048,0 -0.084,-0.036 -0.084,-0.084 v -0.552 l -0.316,0.12 v 0.616 c 0,0.048 -0.036,0.084 -0.084,0.084 -0.048,0 -0.084,-0.036 -0.084,-0.084 v -0.552 l -0.088,0.032 c -0.012,0.004 -0.024,0.008 -0.036,0.008 -0.052,0 -0.1,-0.044 -0.1,-0.1 v -0.216 c 0,-0.04 0.024,-0.08 0.064,-0.096 l 0.16,-0.06 v -0.62 l -0.088,0.036 c -0.012,0.004 -0.024,0.004 -0.036,0.004 -0.052,0 -0.1,-0.044 -0.1,-0.1 V 9.8679728 c 0,-0.04 0.024,-0.076 0.064,-0.092 l 0.16,-0.06 v -0.616 c 0,-0.048 0.036,-0.084 0.084,-0.084 0.048,0 0.084,0.036 0.084,0.084 v 0.552 l 0.316,-0.12 v -0.616 c 0,-0.048 0.036,-0.084 0.084,-0.084 0.048,0 0.084,0.036 0.084,0.084 v 0.552 l 0.088,-0.032 c 0.012,-0.004 0.024,-0.008 0.036,-0.008 0.052,0 0.1,0.044 0.1,0.1 v 0.216 c 0,0.04 -0.024,0.08 -0.064,0.096 l -0.16,0.06 v 0.6200002 l 0.088,-0.036 c 0.012,-0.004 0.024,-0.004 0.036,-0.004 0.052,0 0.1,0.044 0.1,0.1 v 0.216 c 0,0.04 -0.024,0.076 -0.064,0.092 l -0.16,0.06 v 0.616 c 0,0.048 -0.036,0.084 -0.084,0.084 z m -0.4,-1.564 v 0.616 l 0.316,-0.12 V 9.9639728 z"
     id="path170"
     inkscape:connector-curvature="0"
     style="fill:currentColor" />
  <path
     d="m 27.4192,9.2799728 c 0.236,0 0.452,0.124 0.452,0.38 0,0.284 -0.208,0.4800002 -0.396,0.5920002 -0.136,0.084 -0.292,0.132 -0.452,0.132 -0.236,0 -0.452,-0.124 -0.452,-0.38 0,-0.2840002 0.212,-0.4800002 0.4,-0.5920002 0.136,-0.084 0.288,-0.132 0.448,-0.132 z"
     id="path172"
     inkscape:connector-curvature="0"
     style="fill:currentColor" />
  <path
     d="m 9.5309,11.279973 c 0.236,0 0.452,0.124 0.452,0.38 0,0.284 -0.208,0.48 -0.396,0.592 -0.136,0.084 -0.292,0.132 -0.452,0.132 -0.236,0 -0.452,-0.124 -0.452,-0.38 0,-0.284 0.212,-0.48 0.4,-0.592 0.136,-0.084 0.288,-0.132 0.448,-0.132 z"
     id="path174"
     inkscape:connector-curvature="0"
     style="fill:currentColor" />
  <path
     d="m 2.316,8.7759728 c 0.012,0 0.028,-0.004 0.04,-0.004 0.628,0 1.032,0.516 1.032,1.052 0,0.3080002 -0.132,0.6200002 -0.432,0.8440002 -0.088,0.064 -0.184,0.116 -0.288,0.148 0.012,0.132 0.016,0.264 0.016,0.396 0,0.084 0,0.164 -0.004,0.248 -0.028,0.484 -0.364,0.916 -0.844,0.916 -0.432,0 -0.784,-0.352 -0.784,-0.788 0,-0.232 0.216,-0.412 0.452,-0.412 0.216,0 0.38,0.188 0.38,0.412 0,0.208 -0.172,0.38 -0.38,0.38 -0.036,0 -0.072,-0.004 -0.108,-0.016 0.1,0.148 0.264,0.244 0.452,0.244 0.38,0 0.624,-0.372 0.648,-0.764 0.004,-0.076 0.008,-0.152 0.008,-0.228 0,-0.116 -0.004,-0.232 -0.012,-0.348 -0.116,0.02 -0.232,0.032 -0.352,0.032 -0.756,0 -1.332,-0.692 -1.332,-1.5040002 0,-0.708 0.516,-1.232 0.976,-1.772 -0.08,-0.248 -0.16,-0.496 -0.192,-0.756 -0.028,-0.208 -0.028,-0.42 -0.028,-0.632 0,-0.456 0.216,-0.884 0.588,-1.152 0.016,-0.012 0.032,-0.016 0.048,-0.016 0.02,0 0.036,0.008 0.052,0.02 0.288,0.332 0.54,0.972 0.54,1.424 0,0.568 -0.336,1.02 -0.704,1.456 0.084,0.272 0.16,0.544 0.228,0.82 z m 0.336,1.8600002 c 0.26,-0.096 0.44,-0.376 0.44,-0.6440002 0,-0.352 -0.256,-0.7 -0.668,-0.752 0.096,0.456 0.176,0.9080002 0.228,1.3960002 z M 1.108,9.7319728 c 0,0.5320002 0.512,0.9720002 1.044,0.9720002 0.108,0 0.22,-0.004 0.324,-0.02 -0.052,-0.504 -0.14,-0.9760002 -0.24,-1.4480002 -0.316,0.032 -0.496,0.24 -0.496,0.472 0,0.172 0.1,0.3520002 0.32,0.4800002 0.02,0.02 0.028,0.044 0.028,0.068 0,0.048 -0.04,0.092 -0.092,0.092 -0.012,0 -0.028,-0.004 -0.04,-0.008 -0.324,-0.172 -0.472,-0.4600002 -0.472,-0.7440002 0,-0.356 0.24,-0.708 0.652,-0.8 -0.056,-0.228 -0.12,-0.452 -0.188,-0.676 -0.42,0.488 -0.84,0.972 -0.84,1.612 z m 1.304,-4.052 c -0.396,0.184 -0.644,0.58 -0.644,1.016 0,0.284 0.084,0.52 0.156,0.752 0.312,-0.388 0.568,-0.796 0.568,-1.296 0,-0.204 -0.016,-0.288 -0.08,-0.472 z"
     id="path176"
     inkscape:connector-curvature="0"
     style="fill:currentColor" />
  <path
     d="m 6.424,8.7119728 c -0.192,0 -0.288,-0.16 -0.288,-0.288 0,-0.148 0.104,-0.3 0.28,-0.3 0.012,0 0.024,0.004 0.036,0.004 -0.104,-0.144 -0.268,-0.236 -0.452,-0.236 -0.428,0 -0.452,0.296 -0.452,0.756 0,0.06 0.004,0.12 0.004,0.184 0,0.064 -0.004,0.124 -0.004,0.184 0,0.46 0.024,0.756 0.452,0.756 0.312,0 0.532,-0.28 0.604,-0.596 0.008,-0.032 0.032,-0.044 0.056,-0.044 0.028,0 0.06,0.02 0.06,0.056 0,0.38 -0.412,0.704 -0.72,0.704 -0.272,0 -0.548,-0.08 -0.736,-0.28 -0.196,-0.208 -0.264,-0.496 -0.264,-0.78 0,-0.284 0.068,-0.572 0.264,-0.78 0.188,-0.2 0.464,-0.28 0.736,-0.28 0.344,0 0.624,0.268 0.684,0.612 0.004,0.016 0.004,0.036 0.004,0.052 0,0.152 -0.12,0.276 -0.264,0.276 z"
     id="path178"
     inkscape:connector-curvature="0"
     style="fill:currentColor" />
  <rect
     x="9.8323002"
     y="8.3319731"
     width="0.1514"
     height="3.3287001"
     ry="0.050000001"
     id="rect180"
     style="fill:currentColor" />
  <path
     d="m 12.7222,10.779973 c 0.236,0 0.452,0.124 0.452,0.38 0,0.284 -0.208,0.48 -0.396,0.592 -0.136,0.084 -0.292,0.132 -0.452,0.132 -0.236,0 -0.452,-0.124 -0.452,-0.38 0,-0.284 0.212,-0.48 0.4,-0.592 0.136,-0.084 0.288,-0.132 0.448,-0.132 z"
     id="path182"
     inkscape:connector-curvature="0"
     style="fill:currentColor" />
  <rect
     x="13.0237"
     y="7.8319726"
     width="0.1514"
     height="3.3287001"
     ry="0.050000001"
     id="rect184"
     style="fill:currentColor" />
  <path
     d="m 10.8482,11.183973 -0.008,0.248 v 0.044 c 0,0.088 0.008,0.172 0.02,0.256 0.172,-0.152 0.356,-0.32 0.356,-0.548 0,-0.128 -0.056,-0.26 -0.168,-0.26 -0.124,0 -0.196,0.128 -0.2,0.26 z m -0.188,0.708 -0.056,-2.3600002 c 0.036,-0.02 0.08,-0.032 0.12,-0.032 0.04,0 0.084,0.012 0.12,0.032 l -0.032,1.3600002 c 0.1,-0.096 0.236,-0.152 0.376,-0.152 0.2,0 0.336,0.2 0.336,0.416 0,0.312 -0.332,0.468 -0.564,0.676 -0.068,0.06 -0.1,0.176 -0.196,0.176 -0.06,0 -0.104,-0.052 -0.104,-0.116 z"
     id="path186"
     inkscape:connector-curvature="0"
     style="fill:currentColor" />
  <path
     d="m 15.9136,10.279973 c 0.236,0 0.452,0.124 0.452,0.38 0,0.284 -0.208,0.48 -0.396,0.592 -0.136,0.084 -0.292,0.132 -0.452,0.132 -0.236,0 -0.452,-0.124 -0.452,-0.38 0,-0.284 0.212,-0.48 0.4,-0.592 0.136,-0.084 0.288,-0.132 0.448,-0.132 z"
     id="path188"
     inkscape:connector-curvature="0"
     style="fill:currentColor" />
  <rect
     x="16.215099"
     y="7.3319726"
     width="0.1514"
     height="3.3287001"
     ry="0.050000001"
     id="rect190"
     style="fill:currentColor" />
  <path
     d="m 37.732,7.7799728 c 0.236,0 0.452,0.124 0.452,0.38 0,0.284 -0.208,0.48 -0.396,0.592 -0.136,0.084 -0.292,0.132 -0.452,0.132 -0.236,0 -0.452,-0.124 -0.452,-0.38 0,-0.284 0.212,-0.48 0.4,-0.592 0.136,-0.084 0.288,-0.132 0.448,-0.132 z"
     id="path192"
     inkscape:connector-curvature="0"
     style="fill:currentColor" />
  <rect
     x="27.720699"
     y="6.3319726"
     width="0.1514"
     height="3.3287001"
     ry="0.050000001"
     id="rect194"
     style="fill:currentColor" />
  <rect
     x="36.883999"
     y="8.503273"
     width="0.1514"
     height="3.3287001"
     ry="0.050000001"
     id="rect196"
     style="fill:currentColor" />
  <path
     d="m 40.9234,7.2799728 c 0.236,0 0.452,0.124 0.452,0.38 0,0.284 -0.208,0.48 -0.396,0.592 -0.136,0.084 -0.292,0.132 -0.452,0.132 -0.236,0 -0.452,-0.124 -0.452,-0.38 0,-0.284 0.212,-0.48 0.4,-0.592 0.136,-0.084 0.288,-0.132 0.448,-0.132 z"
     id="path198"
     inkscape:connector-curvature="0"
     style="fill:currentColor" />
  <rect
     x="40.075401"
     y="8.003273"
     width="0.1514"
     height="3.3287001"
     ry="0.050000001"
     id="rect200"
     style="fill:currentColor" />
  <path
     d="m 39.0494,7.6839728 -0.008,0.248 v 0.044 c 0,0.088 0.008,0.172 0.02,0.256 0.172,-0.152 0.356,-0.32 0.356,-0.548 0,-0.128 -0.056,-0.26 -0.168,-0.26 -0.124,0 -0.196,0.128 -0.2,0.26 z m -0.188,0.708 -0.056,-2.36 c 0.036,-0.02 0.08,-0.032 0.12,-0.032 0.04,0 0.084,0.012 0.12,0.032 l -0.032,1.36 c 0.1,-0.096 0.236,-0.152 0.376,-0.152 0.2,0 0.336,0.2 0.336,0.416 0,0.312 -0.332,0.468 -0.564,0.676 -0.068,0.06 -0.1,0.176 -0.196,0.176 -0.06,0 -0.104,-0.052 -0.104,-0.116 z"
     id="path202"
     inkscape:connector-curvature="0"
     style="fill:currentColor" />
  <path
     d="m 44.1147,6.7799728 c 0.236,0 0.452,0.124 0.452,0.38 0,0.284 -0.208,0.48 -0.396,0.592 -0.136,0.084 -0.292,0.132 -0.452,0.132 -0.236,0 -0.452,-0.124 -0.452,-0.38 0,-0.284 0.212,-0.48 0.4,-0.592 0.136,-0.084 0.288,-0.132 0.448,-0.132 z"
     id="path204"
     inkscape:connector-curvature="0"
     style="fill:currentColor" />
  <rect
     x="43.266701"
     y="7.503273"
     width="0.1514"
     height="3.3287001"
     ry="0.050000001"
     id="rect206"
     style="fill:currentColor" />
  <path
     d="m 31.7355,8.6839728 -0.008,0.248 v 0.044 c 0,0.088 0.008,0.172 0.02,0.256 0.172,-0.152 0.356,-0.32 0.356,-0.548 0,-0.128 -0.056,-0.26 -0.168,-0.26 -0.124,0 -0.196,0.128 -0.2,0.26 z m -0.188,0.708 -0.056,-2.36 c 0.036,-0.02 0.08,-0.032 0.12,-0.032 0.04,0 0.084,0.012 0.12,0.032 l -0.032,1.36 c 0.1,-0.096 0.236,-0.152 0.376,-0.152 0.2,0 0.336,0.2 0.336,0.416 0,0.312 -0.332,0.468 -0.564,0.676 -0.068,0.06 -0.1,0.176 -0.196,0.176 -0.06,0 -0.104,-0.052 -0.104,-0.116 z"
     id="path208"
     inkscape:connector-curvature="0"
     style="fill:currentColor" />
  <path
     d="m 33.6095,8.2799728 c 0.236,0 0.452,0.124 0.452,0.38 0,0.284 -0.208,0.48 -0.396,0.592 -0.136,0.084 -0.292,0.132 -0.452,0.132 -0.236,0 -0.452,-0.124 -0.452,-0.38 0,-0.284 0.212,-0.48 0.4,-0.592 0.136,-0.084 0.288,-0.132 0.448,-0.132 z"
     id="path210"
     inkscape:connector-curvature="0"
     style="fill:currentColor" />
  <rect
     x="32.761398"
     y="9.003273"
     width="0.1514"
     height="3.1619999"
     ry="0.050000001"
     id="rect212"
     style="fill:currentColor" />
  <path
     d="m 30.4181,8.7799728 c 0.236,0 0.452,0.124 0.452,0.38 0,0.284 -0.208,0.48 -0.396,0.592 -0.136,0.084 -0.292,0.132 -0.452,0.132 -0.236,0 -0.452,-0.124 -0.452,-0.38 0,-0.284 0.212,-0.48 0.4,-0.592 0.136,-0.084 0.288,-0.132 0.448,-0.132 z"
     id="path214"
     inkscape:connector-curvature="0"
     style="fill:currentColor" />
  <rect
     x="30.719601"
     y="5.8319726"
     width="0.1514"
     height="3.3287001"
     ry="0.050000001"
     id="rect216"
     style="fill:currentColor" />
  <text
     font-size="2.1999"
     id="text218"
     style="font-size:2.19989991px;text-anchor:start;fill:currentColor;font-family:serif"
     x="56.905499"
     y="202.43718">
    <tspan
       id="tspan220" />
  </text>
</svg>
