<?xml version="1.0" encoding="UTF-8" standalone="no"?>
<svg
   xmlns:dc="http://purl.org/dc/elements/1.1/"
   xmlns:cc="http://creativecommons.org/ns#"
   xmlns:rdf="http://www.w3.org/1999/02/22-rdf-syntax-ns#"
   xmlns:svg="http://www.w3.org/2000/svg"
   xmlns="http://www.w3.org/2000/svg"
   xmlns:xlink="http://www.w3.org/1999/xlink"
   xmlns:sodipodi="http://sodipodi.sourceforge.net/DTD/sodipodi-0.dtd"
   xmlns:inkscape="http://www.inkscape.org/namespaces/inkscape"
   version="1.2"
   width="126.97505mm"
   height="17.409912mm"
   viewBox="0 0 90.319773 12.383999"
   id="svg270"
   sodipodi:docname="07-1.svg"
   inkscape:version="0.92.1 r15371">
  <metadata
     id="metadata276">
    <rdf:RDF>
      <cc:Work
         rdf:about="">
        <dc:format>image/svg+xml</dc:format>
        <dc:type
           rdf:resource="http://purl.org/dc/dcmitype/StillImage" />
        <dc:title></dc:title>
      </cc:Work>
    </rdf:RDF>
  </metadata>
  <defs
     id="defs274" />
  <sodipodi:namedview
     pagecolor="#ffffff"
     bordercolor="#666666"
     borderopacity="1"
     objecttolerance="10"
     gridtolerance="10"
     guidetolerance="10"
     inkscape:pageopacity="0"
     inkscape:pageshadow="2"
     inkscape:window-width="716"
     inkscape:window-height="480"
     id="namedview272"
     showgrid="false"
     fit-margin-top="0"
     fit-margin-left="0"
     fit-margin-right="0"
     fit-margin-bottom="0"
     inkscape:zoom="0.2102413"
     inkscape:cx="302.36647"
     inkscape:cy="-471.24753"
     inkscape:window-x="0"
     inkscape:window-y="0"
     inkscape:window-maximized="0"
     inkscape:current-layer="svg270" />
  <!-- Page: 1/1 -->
  <text
     font-size="2.1999"
     id="text4"
     style="font-size:2.19989991px;font-family:serif;text-anchor:start;fill:currentColor"
     x="-10.668971"
     y="-1">
    <tspan
       id="tspan2" />
  </text>
  <line
     x1="0.059028916"
     y1="10.832"
     x2="90.260735"
     y2="10.832"
     id="line6"
     style="stroke:currentColor;stroke-width:0.1164;stroke-linecap:round;stroke-linejoin:round" />
  <line
     x1="0.059028916"
     y1="9.8319998"
     x2="90.260735"
     y2="9.8319998"
     id="line8"
     style="stroke:currentColor;stroke-width:0.1164;stroke-linecap:round;stroke-linejoin:round" />
  <line
     x1="0.059028916"
     y1="8.8319998"
     x2="90.260735"
     y2="8.8319998"
     id="line10"
     style="stroke:currentColor;stroke-width:0.1164;stroke-linecap:round;stroke-linejoin:round" />
  <line
     x1="0.059028916"
     y1="7.8319998"
     x2="90.260735"
     y2="7.8319998"
     id="line12"
     style="stroke:currentColor;stroke-width:0.1164;stroke-linecap:round;stroke-linejoin:round" />
  <line
     x1="0.059028916"
     y1="6.8319998"
     x2="90.260735"
     y2="6.8319998"
     id="line14"
     style="stroke:currentColor;stroke-width:0.1164;stroke-linecap:round;stroke-linejoin:round" />
  <rect
     x="90.097733"
     y="6.8319998"
     width="0.2212"
     height="4"
     ry="0.0000"
     id="rect16"
     style="fill:currentColor" />
  <rect
     x="76.817032"
     y="6.8319998"
     width="0.2212"
     height="4"
     ry="0.0000"
     id="rect18"
     style="fill:currentColor" />
  <rect
     x="35.630527"
     y="6.8319998"
     width="0.2212"
     height="4"
     ry="0.0000"
     id="rect20"
     style="fill:currentColor" />
  <rect
     x="49.027531"
     y="6.8319998"
     width="0.2212"
     height="4"
     ry="0.0000"
     id="rect22"
     style="fill:currentColor" />
  <rect
     x="21.301929"
     y="6.8319998"
     width="0.2212"
     height="4"
     ry="0.0000"
     id="rect24"
     style="fill:currentColor" />
  <rect
     x="87.066734"
     y="1.7237999"
     width="1.9962"
     height="0.2164"
     ry="0.1082"
     id="rect26"
     style="fill:currentColor" />
  <rect
     x="86.721329"
     y="2.7237999"
     width="2.3415"
     height="0.2164"
     ry="0.1082"
     id="rect28"
     style="fill:currentColor" />
  <rect
     x="86.721329"
     y="3.7237999"
     width="2.3415"
     height="0.2164"
     ry="0.1082"
     id="rect30"
     style="fill:currentColor" />
  <rect
     x="86.721329"
     y="4.7238002"
     width="2.3415"
     height="0.2164"
     ry="0.1082"
     id="rect32"
     style="fill:currentColor" />
  <rect
     x="86.721329"
     y="5.7238002"
     width="2.3415"
     height="0.2164"
     ry="0.1082"
     id="rect34"
     style="fill:currentColor" />
  <rect
     x="83.530029"
     y="2.7237999"
     width="2.3415"
     height="0.2164"
     ry="0.1082"
     id="rect36"
     style="fill:currentColor" />
  <rect
     x="83.530029"
     y="3.7237999"
     width="2.3415"
     height="0.2164"
     ry="0.1082"
     id="rect38"
     style="fill:currentColor" />
  <rect
     x="83.530029"
     y="4.7238002"
     width="2.3415"
     height="0.2164"
     ry="0.1082"
     id="rect40"
     style="fill:currentColor" />
  <rect
     x="83.530029"
     y="5.7238002"
     width="2.3415"
     height="0.2164"
     ry="0.1082"
     id="rect42"
     style="fill:currentColor" />
  <rect
     x="80.531136"
     y="2.7237999"
     width="2.3415"
     height="0.2164"
     ry="0.1082"
     id="rect44"
     style="fill:currentColor" />
  <rect
     x="80.531136"
     y="3.7237999"
     width="2.3415"
     height="0.2164"
     ry="0.1082"
     id="rect46"
     style="fill:currentColor" />
  <rect
     x="80.531136"
     y="4.7238002"
     width="2.3415"
     height="0.2164"
     ry="0.1082"
     id="rect48"
     style="fill:currentColor" />
  <rect
     x="80.531136"
     y="5.7238002"
     width="2.3415"
     height="0.2164"
     ry="0.1082"
     id="rect50"
     style="fill:currentColor" />
  <rect
     x="77.877632"
     y="3.7237999"
     width="1.9962"
     height="0.2164"
     ry="0.1082"
     id="rect52"
     style="fill:currentColor" />
  <rect
     x="77.532234"
     y="4.7238002"
     width="2.3415"
     height="0.2164"
     ry="0.1082"
     id="rect54"
     style="fill:currentColor" />
  <rect
     x="77.532234"
     y="5.7238002"
     width="2.3415"
     height="0.2164"
     ry="0.1082"
     id="rect56"
     style="fill:currentColor" />
  <rect
     x="73.769432"
     y="3.7237999"
     width="2.0128"
     height="0.2164"
     ry="0.1082"
     id="rect58"
     style="fill:currentColor" />
  <rect
     x="73.440735"
     y="4.7238002"
     width="2.3415"
     height="0.2164"
     ry="0.1082"
     id="rect60"
     style="fill:currentColor" />
  <rect
     x="73.440735"
     y="5.7238002"
     width="2.3415"
     height="0.2164"
     ry="0.1082"
     id="rect62"
     style="fill:currentColor" />
  <rect
     x="70.787132"
     y="3.7237999"
     width="1.9962"
     height="0.2164"
     ry="0.1082"
     id="rect64"
     style="fill:currentColor" />
  <rect
     x="70.441833"
     y="4.7238002"
     width="2.3415"
     height="0.2164"
     ry="0.1082"
     id="rect66"
     style="fill:currentColor" />
  <rect
     x="70.441833"
     y="5.7238002"
     width="2.3415"
     height="0.2164"
     ry="0.1082"
     id="rect68"
     style="fill:currentColor" />
  <rect
     x="67.595833"
     y="4.7238002"
     width="1.9962"
     height="0.2164"
     ry="0.1082"
     id="rect70"
     style="fill:currentColor" />
  <rect
     x="67.250435"
     y="5.7238002"
     width="2.3415"
     height="0.2164"
     ry="0.1082"
     id="rect72"
     style="fill:currentColor" />
  <rect
     x="64.059135"
     y="4.7238002"
     width="2.3415"
     height="0.2164"
     ry="0.1082"
     id="rect74"
     style="fill:currentColor" />
  <rect
     x="64.059135"
     y="5.7238002"
     width="2.3415"
     height="0.2164"
     ry="0.1082"
     id="rect76"
     style="fill:currentColor" />
  <rect
     x="60.312931"
     y="5.7238002"
     width="1.9962"
     height="0.2164"
     ry="0.1082"
     id="rect78"
     style="fill:currentColor" />
  <rect
     x="56.776226"
     y="5.7238002"
     width="2.3415"
     height="0.2164"
     ry="0.1082"
     id="rect80"
     style="fill:currentColor" />
  <rect
     x="8.1633291"
     y="11.7238"
     width="2.3415"
     height="0.2164"
     ry="0.1082"
     id="rect82"
     style="fill:currentColor" />
  <rect
     x="63.343929"
     y="6.8319998"
     width="0.2212"
     height="4"
     ry="0.0000"
     id="rect84"
     style="fill:currentColor" />
  <rect
     x="54.29763"
     y="6.5032997"
     width="0.1514"
     height="3.3287001"
     ry="0.050000001"
     id="rect86"
     style="fill:currentColor" />
  <a
     style="color:inherit"
     xlink:href="textedit://C:/Users/tikeda/Documents/git/LotusRoot/sco.txt:5:12:13"
     id="a90"
     transform="translate(-17.782171,-4.5566)">
    <path
       transform="matrix(0.004,0,0,-0.004,75.0787,10.3886)"
       d="m 212,138 c 59,0 113,-31 113,-95 0,-71 -52,-120 -99,-148 -34,-21 -73,-33 -113,-33 -59,0 -113,31 -113,95 0,71 53,120 100,148 34,21 72,33 112,33 z"
       id="path88"
       inkscape:connector-curvature="0"
       style="fill:currentColor" />
  </a>
  <rect
     x="57.296528"
     y="6.0032997"
     width="0.1514"
     height="3.3287001"
     ry="0.050000001"
     id="rect92"
     style="fill:currentColor" />
  <a
     style="color:inherit"
     xlink:href="textedit://C:/Users/tikeda/Documents/git/LotusRoot/sco.txt:5:17:18"
     id="a96"
     transform="translate(-17.782171,-4.5566)">
    <path
       transform="matrix(0.004,0,0,-0.004,78.2701,9.8886)"
       d="m 212,138 c 59,0 113,-31 113,-95 0,-71 -52,-120 -99,-148 -34,-21 -73,-33 -113,-33 -59,0 -113,31 -113,95 0,71 53,120 100,148 34,21 72,33 112,33 z"
       id="path94"
       inkscape:connector-curvature="0"
       style="fill:currentColor" />
  </a>
  <rect
     x="60.48793"
     y="5.5032997"
     width="0.1514"
     height="3.3287001"
     ry="0.050000001"
     id="rect98"
     style="fill:currentColor" />
  <path
     d="m 59.461929,5.184 -0.008,0.248 v 0.044 c 0,0.088 0.008,0.172 0.02,0.256 0.172,-0.152 0.356,-0.32 0.356,-0.548 0,-0.128 -0.056,-0.26 -0.168,-0.26 -0.124,0 -0.196,0.128 -0.2,0.26 z m -0.188,0.708 -0.056,-2.36 c 0.036,-0.02 0.08,-0.032 0.12,-0.032 0.04,0 0.084,0.012 0.12,0.032 l -0.032,1.36 c 0.1,-0.096 0.236,-0.152 0.376,-0.152 0.2,0 0.336,0.2 0.336,0.416 0,0.312 -0.332,0.468 -0.564,0.676 -0.068,0.06 -0.1,0.176 -0.196,0.176 -0.06,0 -0.104,-0.052 -0.104,-0.116 z"
     id="path100"
     inkscape:connector-curvature="0"
     style="fill:currentColor;stroke-width:0.004" />
  <a
     style="color:inherit"
     xlink:href="textedit://C:/Users/tikeda/Documents/git/LotusRoot/sco.txt:6:0:1"
     id="a104"
     transform="translate(-17.782171,-4.5566)">
    <path
       transform="matrix(0.004,0,0,-0.004,82.3616,9.3886)"
       d="m 212,138 c 59,0 113,-31 113,-95 0,-71 -52,-120 -99,-148 -34,-21 -73,-33 -113,-33 -59,0 -113,31 -113,95 0,71 53,120 100,148 34,21 72,33 112,33 z"
       id="path102"
       inkscape:connector-curvature="0"
       style="fill:currentColor" />
  </a>
  <rect
     x="64.57943"
     y="5.0032997"
     width="0.1514"
     height="3.8287001"
     ry="0.050000001"
     id="rect106"
     style="fill:currentColor" />
  <path
     d="m 42.241529,7.184 -0.008,0.248 v 0.044 c 0,0.088 0.008,0.172 0.02,0.256 0.172,-0.152 0.356,-0.32 0.356,-0.548 0,-0.128 -0.056,-0.26 -0.168,-0.26 -0.124,0 -0.196,0.128 -0.2,0.26 z m -0.188,0.708 -0.056,-2.36 c 0.036,-0.02 0.08,-0.032 0.12,-0.032 0.04,0 0.084,0.012 0.12,0.032 l -0.032,1.36 c 0.1,-0.096 0.236,-0.152 0.376,-0.152 0.2,0 0.336,0.2 0.336,0.416 0,0.312 -0.332,0.468 -0.564,0.676 -0.068,0.06 -0.1,0.176 -0.196,0.176 -0.06,0 -0.104,-0.052 -0.104,-0.116 z"
     id="path108"
     inkscape:connector-curvature="0"
     style="fill:currentColor;stroke-width:0.004" />
  <a
     style="color:inherit"
     xlink:href="textedit://C:/Users/tikeda/Documents/git/LotusRoot/sco.txt:4:19:20"
     id="a112"
     transform="translate(-17.782171,-4.5566)">
    <path
       transform="matrix(0.004,0,0,-0.004,64.0486,11.8886)"
       d="m 212,138 c 59,0 113,-31 113,-95 0,-71 -52,-120 -99,-148 -34,-21 -73,-33 -113,-33 -59,0 -113,31 -113,95 0,71 53,120 100,148 34,21 72,33 112,33 z"
       id="path110"
       inkscape:connector-curvature="0"
       style="fill:currentColor" />
  </a>
  <rect
     x="46.26643"
     y="7.5033002"
     width="0.1514"
     height="3.3287001"
     ry="0.050000001"
     id="rect114"
     style="fill:currentColor" />
  <path
     d="m 45.184429,5.832 c 0.032,-0.02 0.072,-0.028 0.108,-0.028 0.036,0 0.072,0.008 0.104,0.028 l -0.012,0.768 0.408,-0.092 h 0.016 c 0.04,0 0.076,0.032 0.076,0.072 l 0.032,2.252 c -0.032,0.02 -0.072,0.028 -0.108,0.028 -0.036,0 -0.072,-0.008 -0.104,-0.028 l 0.008,-0.768 -0.404,0.092 h -0.016 c -0.04,0 -0.076,-0.032 -0.076,-0.072 z m 0.544,1.06 -0.348,0.076 -0.012,0.804 0.352,-0.076 z"
     id="path116"
     inkscape:connector-curvature="0"
     style="fill:currentColor;stroke-width:0.004" />
  <a
     style="color:inherit"
     xlink:href="textedit://C:/Users/tikeda/Documents/git/LotusRoot/sco.txt:5:0:1"
     id="a120"
     transform="translate(-17.782171,-4.5566)">
    <path
       transform="matrix(0.004,0,0,-0.004,69.081,11.3886)"
       d="m 212,138 c 59,0 113,-31 113,-95 0,-71 -52,-120 -99,-148 -34,-21 -73,-33 -113,-33 -59,0 -113,31 -113,95 0,71 53,120 100,148 34,21 72,33 112,33 z"
       id="path118"
       inkscape:connector-curvature="0"
       style="fill:currentColor" />
  </a>
  <rect
     x="51.298729"
     y="7.0033002"
     width="0.1514"
     height="3.3287001"
     ry="0.050000001"
     id="rect122"
     style="fill:currentColor" />
  <a
     style="color:inherit"
     xlink:href="textedit://C:/Users/tikeda/Documents/git/LotusRoot/sco.txt:5:7:8"
     id="a126"
     transform="translate(-17.782171,-4.5566)">
    <path
       transform="matrix(0.004,0,0,-0.004,72.0798,10.8886)"
       d="m 212,138 c 59,0 113,-31 113,-95 0,-71 -52,-120 -99,-148 -34,-21 -73,-33 -113,-33 -59,0 -113,31 -113,95 0,71 53,120 100,148 34,21 72,33 112,33 z"
       id="path124"
       inkscape:connector-curvature="0"
       style="fill:currentColor" />
  </a>
  <path
     d="m 50.640829,8.148 c -0.048,0 -0.084,-0.036 -0.084,-0.084 V 7.512 l -0.316,0.12 v 0.616 c 0,0.048 -0.036,0.084 -0.084,0.084 -0.048,0 -0.084,-0.036 -0.084,-0.084 V 7.696 l -0.088,0.032 c -0.012,0.004 -0.024,0.008 -0.036,0.008 -0.052,0 -0.1,-0.044 -0.1,-0.1 V 7.42 c 0,-0.04 0.024,-0.08 0.064,-0.096 l 0.16,-0.06 v -0.62 l -0.088,0.036 c -0.012,0.004 -0.024,0.004 -0.036,0.004 -0.052,0 -0.1,-0.044 -0.1,-0.1 V 6.368 c 0,-0.04 0.024,-0.076 0.064,-0.092 l 0.16,-0.06 V 5.6 c 0,-0.048 0.036,-0.084 0.084,-0.084 0.048,0 0.084,0.036 0.084,0.084 v 0.552 l 0.316,-0.12 V 5.416 c 0,-0.048 0.036,-0.084 0.084,-0.084 0.048,0 0.084,0.036 0.084,0.084 v 0.552 l 0.088,-0.032 c 0.012,-0.004 0.024,-0.008 0.036,-0.008 0.052,0 0.1,0.044 0.1,0.1 v 0.216 c 0,0.04 -0.024,0.08 -0.064,0.096 l -0.16,0.06 v 0.62 l 0.088,-0.036 c 0.012,-0.004 0.024,-0.004 0.036,-0.004 0.052,0 0.1,0.044 0.1,0.1 v 0.216 c 0,0.04 -0.024,0.076 -0.064,0.092 l -0.16,0.06 v 0.616 c 0,0.048 -0.036,0.084 -0.084,0.084 z m -0.4,-1.564 V 7.2 l 0.316,-0.12 V 6.464 Z"
     id="path128"
     inkscape:connector-curvature="0"
     style="fill:currentColor;stroke-width:0.004" />
  <rect
     x="81.05143"
     y="3.0033"
     width="0.1514"
     height="5.8287001"
     ry="0.050000001"
     id="rect130"
     style="fill:currentColor" />
  <path
     d="m 77.394529,4.648 c -0.048,0 -0.084,-0.036 -0.084,-0.084 V 4.012 l -0.316,0.12 v 0.616 c 0,0.048 -0.036,0.084 -0.084,0.084 -0.048,0 -0.084,-0.036 -0.084,-0.084 V 4.196 l -0.088,0.032 c -0.012,0.004 -0.024,0.008 -0.036,0.008 -0.052,0 -0.1,-0.044 -0.1,-0.1 V 3.92 c 0,-0.04 0.024,-0.08 0.064,-0.096 l 0.16,-0.06 v -0.62 l -0.088,0.036 c -0.012,0.004 -0.024,0.004 -0.036,0.004 -0.052,0 -0.1,-0.044 -0.1,-0.1 V 2.868 c 0,-0.04 0.024,-0.076 0.064,-0.092 l 0.16,-0.06 V 2.1 c 0,-0.048 0.036,-0.084 0.084,-0.084 0.048,0 0.084,0.036 0.084,0.084 v 0.552 l 0.316,-0.12 V 1.916 c 0,-0.048 0.036,-0.084 0.084,-0.084 0.048,0 0.084,0.036 0.084,0.084 v 0.552 l 0.088,-0.032 c 0.012,-0.004 0.024,-0.008 0.036,-0.008 0.052,0 0.1,0.044 0.1,0.1 v 0.216 c 0,0.04 -0.024,0.08 -0.064,0.096 l -0.16,0.06 v 0.62 l 0.088,-0.036 c 0.012,-0.004 0.024,-0.004 0.036,-0.004 0.052,0 0.1,0.044 0.1,0.1 v 0.216 c 0,0.04 -0.024,0.076 -0.064,0.092 l -0.16,0.06 v 0.616 c 0,0.048 -0.036,0.084 -0.084,0.084 z m -0.4,-1.564 V 3.7 l 0.316,-0.12 V 2.964 Z"
     id="path132"
     inkscape:connector-curvature="0"
     style="fill:currentColor;stroke-width:0.004" />
  <a
     style="color:inherit"
     xlink:href="textedit://C:/Users/tikeda/Documents/git/LotusRoot/sco.txt:7:8:9"
     id="a136"
     transform="translate(-17.782171,-4.5566)">
    <path
       transform="matrix(0.004,0,0,-0.004,98.8336,7.3886)"
       d="m 212,138 c 59,0 113,-31 113,-95 0,-71 -52,-120 -99,-148 -34,-21 -73,-33 -113,-33 -59,0 -113,31 -113,95 0,71 53,120 100,148 34,21 72,33 112,33 z"
       id="path134"
       inkscape:connector-curvature="0"
       style="fill:currentColor" />
  </a>
  <a
     style="color:inherit"
     xlink:href="textedit://C:/Users/tikeda/Documents/git/LotusRoot/sco.txt:7:14:15"
     id="a140"
     transform="translate(-17.782171,-4.5566)">
    <path
       transform="matrix(0.004,0,0,-0.004,101.8325,6.8886)"
       d="m 212,138 c 59,0 113,-31 113,-95 0,-71 -52,-120 -99,-148 -34,-21 -73,-33 -113,-33 -59,0 -113,31 -113,95 0,71 53,120 100,148 34,21 72,33 112,33 z"
       id="path138"
       inkscape:connector-curvature="0"
       style="fill:currentColor" />
  </a>
  <rect
     x="84.050331"
     y="2.5033"
     width="0.1514"
     height="6.3287001"
     ry="0.050000001"
     id="rect142"
     style="fill:currentColor" />
  <a
     style="color:inherit"
     xlink:href="textedit://C:/Users/tikeda/Documents/git/LotusRoot/sco.txt:7:20:21"
     id="a146"
     transform="translate(-17.782171,-4.5566)">
    <path
       transform="matrix(0.004,0,0,-0.004,105.0239,6.3886)"
       d="m 212,138 c 59,0 113,-31 113,-95 0,-71 -52,-120 -99,-148 -34,-21 -73,-33 -113,-33 -59,0 -113,31 -113,95 0,71 53,120 100,148 34,21 72,33 112,33 z"
       id="path144"
       inkscape:connector-curvature="0"
       style="fill:currentColor" />
  </a>
  <rect
     x="87.241631"
     y="2.0033"
     width="0.1514"
     height="6.8287001"
     ry="0.050000001"
     id="rect148"
     style="fill:currentColor" />
  <path
     d="m 86.215729,1.684 -0.008,0.248 v 0.044 c 0,0.088 0.008,0.172 0.02,0.256 0.172,-0.152 0.356,-0.32 0.356,-0.548 0,-0.128 -0.056,-0.26 -0.168,-0.26 -0.124,0 -0.196,0.128 -0.2,0.26 z m -0.188,0.708 -0.056,-2.36 c 0.036,-0.02 0.08,-0.032 0.12,-0.032 0.04,0 0.084,0.012 0.12,0.032 l -0.032,1.36 c 0.1,-0.096 0.236,-0.152 0.376,-0.152 0.2,0 0.336,0.2 0.336,0.416 0,0.312 -0.332,0.468 -0.564,0.676 -0.068,0.06 -0.1,0.176 -0.196,0.176 -0.06,0 -0.104,-0.052 -0.104,-0.116 z"
     id="path150"
     inkscape:connector-curvature="0"
     style="fill:currentColor;stroke-width:0.004" />
  <a
     style="color:inherit"
     xlink:href="textedit://C:/Users/tikeda/Documents/git/LotusRoot/sco.txt:6:6:7"
     id="a154"
     transform="translate(-17.782171,-4.5566)">
    <path
       transform="matrix(0.004,0,0,-0.004,85.553,8.8886)"
       d="m 212,138 c 59,0 113,-31 113,-95 0,-71 -52,-120 -99,-148 -34,-21 -73,-33 -113,-33 -59,0 -113,31 -113,95 0,71 53,120 100,148 34,21 72,33 112,33 z"
       id="path152"
       inkscape:connector-curvature="0"
       style="fill:currentColor" />
  </a>
  <rect
     x="67.770729"
     y="4.5032997"
     width="0.1514"
     height="4.3287001"
     ry="0.050000001"
     id="rect156"
     style="fill:currentColor" />
  <path
     d="m 66.744829,4.184 -0.008,0.248 v 0.044 c 0,0.088 0.008,0.172 0.02,0.256 0.172,-0.152 0.356,-0.32 0.356,-0.548 0,-0.128 -0.056,-0.26 -0.168,-0.26 -0.124,0 -0.196,0.128 -0.2,0.26 z m -0.188,0.708 -0.056,-2.36 c 0.036,-0.02 0.08,-0.032 0.12,-0.032 0.04,0 0.084,0.012 0.12,0.032 l -0.032,1.36 c 0.1,-0.096 0.236,-0.152 0.376,-0.152 0.2,0 0.336,0.2 0.336,0.416 0,0.312 -0.332,0.468 -0.564,0.676 -0.068,0.06 -0.1,0.176 -0.196,0.176 -0.06,0 -0.104,-0.052 -0.104,-0.116 z"
     id="path158"
     inkscape:connector-curvature="0"
     style="fill:currentColor;stroke-width:0.004" />
  <a
     style="color:inherit"
     xlink:href="textedit://C:/Users/tikeda/Documents/git/LotusRoot/sco.txt:6:14:15"
     id="a162"
     transform="translate(-17.782171,-4.5566)">
    <path
       transform="matrix(0.004,0,0,-0.004,88.7443,8.3886)"
       d="m 212,138 c 59,0 113,-31 113,-95 0,-71 -52,-120 -99,-148 -34,-21 -73,-33 -113,-33 -59,0 -113,31 -113,95 0,71 53,120 100,148 34,21 72,33 112,33 z"
       id="path160"
       inkscape:connector-curvature="0"
       style="fill:currentColor" />
  </a>
  <rect
     x="70.962128"
     y="4.0032997"
     width="0.1514"
     height="4.8287001"
     ry="0.050000001"
     id="rect164"
     style="fill:currentColor" />
  <path
     d="m 69.936129,3.684 -0.008,0.248 v 0.044 c 0,0.088 0.008,0.172 0.02,0.256 0.172,-0.152 0.356,-0.32 0.356,-0.548 0,-0.128 -0.056,-0.26 -0.168,-0.26 -0.124,0 -0.196,0.128 -0.2,0.26 z m -0.188,0.708 -0.056,-2.36 c 0.036,-0.02 0.08,-0.032 0.12,-0.032 0.04,0 0.084,0.012 0.12,0.032 l -0.032,1.36 c 0.1,-0.096 0.236,-0.152 0.376,-0.152 0.2,0 0.336,0.2 0.336,0.416 0,0.312 -0.332,0.468 -0.564,0.676 -0.068,0.06 -0.1,0.176 -0.196,0.176 -0.06,0 -0.104,-0.052 -0.104,-0.116 z"
     id="path166"
     inkscape:connector-curvature="0"
     style="fill:currentColor;stroke-width:0.004" />
  <a
     style="color:inherit"
     xlink:href="textedit://C:/Users/tikeda/Documents/git/LotusRoot/sco.txt:6:22:23"
     id="a170"
     transform="translate(-17.782171,-4.5566)">
    <path
       transform="matrix(0.004,0,0,-0.004,91.7432,8.3886)"
       d="m 212,138 c 59,0 113,-31 113,-95 0,-71 -52,-120 -99,-148 -34,-21 -73,-33 -113,-33 -59,0 -113,31 -113,95 0,71 53,120 100,148 34,21 72,33 112,33 z"
       id="path168"
       inkscape:connector-curvature="0"
       style="fill:currentColor" />
  </a>
  <rect
     x="73.961029"
     y="4.0032997"
     width="0.1514"
     height="4.8287001"
     ry="0.050000001"
     id="rect172"
     style="fill:currentColor" />
  <path
     d="m 72.879029,2.332 c 0.032,-0.02 0.072,-0.028 0.108,-0.028 0.036,0 0.072,0.008 0.104,0.028 l -0.012,0.768 0.408,-0.092 h 0.016 c 0.04,0 0.076,0.032 0.076,0.072 l 0.032,2.252 c -0.032,0.02 -0.072,0.028 -0.108,0.028 -0.036,0 -0.072,-0.008 -0.104,-0.028 l 0.008,-0.768 -0.404,0.092 h -0.016 c -0.04,0 -0.076,-0.032 -0.076,-0.072 z m 0.544,1.06 -0.348,0.076 -0.012,0.804 0.352,-0.076 z"
     id="path174"
     inkscape:connector-curvature="0"
     style="fill:currentColor;stroke-width:0.004" />
  <a
     style="color:inherit"
     xlink:href="textedit://C:/Users/tikeda/Documents/git/LotusRoot/sco.txt:7:0:1"
     id="a178"
     transform="translate(-17.782171,-4.5566)">
    <path
       transform="matrix(0.004,0,0,-0.004,95.8347,7.8886)"
       d="m 212,138 c 59,0 113,-31 113,-95 0,-71 -52,-120 -99,-148 -34,-21 -73,-33 -113,-33 -59,0 -113,31 -113,95 0,71 53,120 100,148 34,21 72,33 112,33 z"
       id="path176"
       inkscape:connector-curvature="0"
       style="fill:currentColor" />
  </a>
  <rect
     x="78.052528"
     y="3.5033"
     width="0.1514"
     height="5.3287001"
     ry="0.050000001"
     id="rect180"
     style="fill:currentColor" />
  <path
     d="m 14.040429,10.684 -0.008,0.248 v 0.044 c 0,0.088 0.008,0.172 0.02,0.256 0.172,-0.152 0.356,-0.32 0.356,-0.548 0,-0.128 -0.056,-0.26 -0.168,-0.26 -0.124,0 -0.196,0.128 -0.2,0.26 z m -0.188,0.708 -0.056,-2.36 c 0.036,-0.02 0.08,-0.032 0.12,-0.032 0.04,0 0.084,0.012 0.12,0.032 l -0.032,1.36 c 0.1,-0.096 0.236,-0.152 0.376,-0.152 0.2,0 0.336,0.2 0.336,0.416 0,0.312 -0.332,0.468 -0.564,0.676 -0.068,0.06 -0.1,0.176 -0.196,0.176 -0.06,0 -0.104,-0.052 -0.104,-0.116 z"
     id="path182"
     inkscape:connector-curvature="0"
     style="fill:currentColor;stroke-width:0.004" />
  <a
     style="color:inherit"
     xlink:href="textedit://C:/Users/tikeda/Documents/git/LotusRoot/sco.txt:2:26:27"
     id="a186"
     transform="translate(-17.782171,-4.5566)">
    <path
       transform="matrix(0.004,0,0,-0.004,35.8475,15.3886)"
       d="m 212,138 c 59,0 113,-31 113,-95 0,-71 -52,-120 -99,-148 -34,-21 -73,-33 -113,-33 -59,0 -113,31 -113,95 0,71 53,120 100,148 34,21 72,33 112,33 z"
       id="path184"
       inkscape:connector-curvature="0"
       style="fill:currentColor" />
  </a>
  <rect
     x="19.214729"
     y="7.3319998"
     width="0.1514"
     height="3.3287001"
     ry="0.050000001"
     id="rect188"
     style="fill:currentColor" />
  <path
     d="m 16.989729,9.332 c 0.032,-0.02 0.072,-0.028 0.108,-0.028 0.036,0 0.072,0.008 0.104,0.028 l -0.012,0.768 0.408,-0.092 h 0.016 c 0.04,0 0.076,0.032 0.076,0.072 l 0.032,2.252 c -0.032,0.02 -0.072,0.028 -0.108,0.028 -0.036,0 -0.072,-0.008 -0.104,-0.028 l 0.008,-0.768 -0.404,0.092 h -0.016 c -0.04,0 -0.076,-0.032 -0.076,-0.072 z m 0.544,1.06 -0.348,0.076 -0.012,0.804 0.352,-0.076 z"
     id="path190"
     inkscape:connector-curvature="0"
     style="fill:currentColor;stroke-width:0.004" />
  <a
     style="color:inherit"
     xlink:href="textedit://C:/Users/tikeda/Documents/git/LotusRoot/sco.txt:3:0:1"
     id="a194"
     transform="translate(-17.782171,-4.5566)">
    <path
       transform="matrix(0.004,0,0,-0.004,41.3553,14.8886)"
       d="m 212,138 c 59,0 113,-31 113,-95 0,-71 -52,-120 -99,-148 -34,-21 -73,-33 -113,-33 -59,0 -113,31 -113,95 0,71 53,120 100,148 34,21 72,33 112,33 z"
       id="path192"
       inkscape:connector-curvature="0"
       style="fill:currentColor" />
  </a>
  <rect
     x="24.72263"
     y="6.8319998"
     width="0.1514"
     height="3.3287001"
     ry="0.050000001"
     id="rect196"
     style="fill:currentColor" />
  <path
     d="m 22.915129,11.648 c -0.048,0 -0.084,-0.036 -0.084,-0.084 v -0.552 l -0.316,0.12 v 0.616 c 0,0.048 -0.036,0.084 -0.084,0.084 -0.048,0 -0.084,-0.036 -0.084,-0.084 v -0.552 l -0.088,0.032 c -0.012,0.004 -0.024,0.008 -0.036,0.008 -0.052,0 -0.1,-0.044 -0.1,-0.1 V 10.92 c 0,-0.04 0.024,-0.08 0.064,-0.096 l 0.16,-0.06 v -0.62 l -0.088,0.036 c -0.012,0.004 -0.024,0.004 -0.036,0.004 -0.052,0 -0.1,-0.044 -0.1,-0.1 V 9.868 c 0,-0.04 0.024,-0.076 0.064,-0.092 l 0.16,-0.06 V 9.1 c 0,-0.048 0.036,-0.084 0.084,-0.084 0.048,0 0.084,0.036 0.084,0.084 v 0.552 l 0.316,-0.12 V 8.916 c 0,-0.048 0.036,-0.084 0.084,-0.084 0.048,0 0.084,0.036 0.084,0.084 v 0.552 l 0.088,-0.032 c 0.012,-0.004 0.024,-0.008 0.036,-0.008 0.052,0 0.1,0.044 0.1,0.1 v 0.216 c 0,0.04 -0.024,0.08 -0.064,0.096 l -0.16,0.06 v 0.62 l 0.088,-0.036 c 0.012,-0.004 0.024,-0.004 0.036,-0.004 0.052,0 0.1,0.044 0.1,0.1 v 0.216 c 0,0.04 -0.024,0.076 -0.064,0.092 l -0.16,0.06 v 0.616 c 0,0.048 -0.036,0.084 -0.084,0.084 z m -0.4,-1.564 V 10.7 l 0.316,-0.12 V 9.964 Z"
     id="path198"
     inkscape:connector-curvature="0"
     style="fill:currentColor;stroke-width:0.004" />
  <a
     style="color:inherit"
     xlink:href="textedit://C:/Users/tikeda/Documents/git/LotusRoot/sco.txt:3:6:7"
     id="a202"
     transform="translate(-17.782171,-4.5566)">
    <path
       transform="matrix(0.004,0,0,-0.004,44.3542,14.3886)"
       d="m 212,138 c 59,0 113,-31 113,-95 0,-71 -52,-120 -99,-148 -34,-21 -73,-33 -113,-33 -59,0 -113,31 -113,95 0,71 53,120 100,148 34,21 72,33 112,33 z"
       id="path200"
       inkscape:connector-curvature="0"
       style="fill:currentColor" />
  </a>
  <a
     style="color:inherit"
     xlink:href="textedit://C:/Users/tikeda/Documents/git/LotusRoot/sco.txt:2:10:11"
     id="a206"
     transform="translate(-17.782171,-4.5566)">
    <path
       transform="matrix(0.004,0,0,-0.004,26.4659,16.3886)"
       d="m 212,138 c 59,0 113,-31 113,-95 0,-71 -52,-120 -99,-148 -34,-21 -73,-33 -113,-33 -59,0 -113,31 -113,95 0,71 53,120 100,148 34,21 72,33 112,33 z"
       id="path204"
       inkscape:connector-curvature="0"
       style="fill:currentColor" />
  </a>
  <path
     d="m 2.3168289,8.776 c 0.012,0 0.028,-0.004 0.04,-0.004 0.628,0 1.032,0.516 1.032,1.052 0,0.308 -0.132,0.62 -0.432,0.844 -0.088,0.064 -0.184,0.116 -0.288,0.148 0.012,0.132 0.016,0.264 0.016,0.396 0,0.084 0,0.164 -0.004,0.248 -0.028,0.484 -0.364,0.916 -0.844,0.916 -0.432,0 -0.784,-0.352 -0.784,-0.788 0,-0.232 0.216,-0.412 0.452,-0.412 0.216,0 0.38,0.188 0.38,0.412 0,0.208 -0.172,0.38 -0.38,0.38 -0.036,0 -0.072,-0.004 -0.108,-0.016 0.1,0.148 0.264,0.244 0.452,0.244 0.38,0 0.624,-0.372 0.648,-0.764 0.004,-0.076 0.008,-0.152 0.008,-0.228 0,-0.116 -0.004,-0.232 -0.012,-0.348 -0.116,0.02 -0.232,0.032 -0.352,0.032 -0.756,0 -1.33199999,-0.692 -1.33199999,-1.504 0,-0.708 0.51599999,-1.232 0.97599999,-1.772 -0.08,-0.248 -0.16,-0.496 -0.192,-0.756 -0.028,-0.208 -0.028,-0.42 -0.028,-0.632 0,-0.456 0.216,-0.884 0.588,-1.152 0.016,-0.012 0.032,-0.016 0.048,-0.016 0.02,0 0.036,0.008 0.052,0.02 0.288,0.332 0.54,0.972 0.54,1.424 0,0.568 -0.336,1.02 -0.704,1.456 0.084,0.272 0.16,0.544 0.228,0.82 z m 0.336,1.86 c 0.26,-0.096 0.44,-0.376 0.44,-0.644 0,-0.352 -0.256,-0.7 -0.668,-0.752 0.096,0.456 0.176,0.908 0.228,1.396 z m -1.544,-0.904 c 0,0.532 0.512,0.972 1.044,0.972 0.108,0 0.22,-0.004 0.324,-0.02 -0.052,-0.504 -0.14,-0.976 -0.24,-1.448 -0.316,0.032 -0.496,0.24 -0.496,0.472 0,0.172 0.1,0.352 0.32,0.48 0.02,0.02 0.028,0.044 0.028,0.068 0,0.048 -0.04,0.092 -0.092,0.092 -0.012,0 -0.028,-0.004 -0.04,-0.008 -0.324,-0.172 -0.472,-0.46 -0.472,-0.744 0,-0.356 0.24,-0.708 0.652,-0.8 -0.056,-0.228 -0.12,-0.452 -0.188,-0.676 -0.42,0.488 -0.84,0.972 -0.84,1.612 z m 1.304,-4.052 c -0.396,0.184 -0.644,0.58 -0.644,1.016 0,0.284 0.084,0.52 0.156,0.752 0.312,-0.388 0.568,-0.796 0.568,-1.296 0,-0.204 -0.016,-0.288 -0.08,-0.472 z"
     id="path208"
     inkscape:connector-curvature="0"
     style="fill:currentColor;stroke-width:0.004" />
  <a
     style="color:inherit"
     xlink:href="textedit://C:/Users/tikeda/Documents/git/LotusRoot/sco.txt:2:0:1"
     id="a212"
     transform="translate(-17.782171,-4.5566)">
    <path
       transform="matrix(0.004,0,0,-0.004,22.783,13.3886)"
       d="m 356,30 c -48,0 -72,40 -72,72 0,37 26,75 70,75 3,0 6,-1 9,-1 -26,36 -67,59 -113,59 -107,0 -113,-74 -113,-189 0,-15 1,-30 1,-46 0,-16 -1,-31 -1,-46 0,-115 6,-189 113,-189 78,0 133,70 151,149 2,8 8,11 14,11 7,0 15,-5 15,-14 0,-95 -103,-176 -180,-176 -68,0 -137,20 -184,70 C 17,-143 0,-71 0,0 c 0,71 17,143 66,195 47,50 116,70 184,70 86,0 156,-67 171,-153 1,-4 1,-9 1,-13 0,-38 -30,-69 -66,-69 z"
       id="path210"
       inkscape:connector-curvature="0"
       style="fill:currentColor" />
  </a>
  <rect
     x="9.8331289"
     y="8.3319998"
     width="0.1514"
     height="3.3287001"
     ry="0.050000001"
     id="rect214"
     style="fill:currentColor" />
  <a
     style="color:inherit"
     xlink:href="textedit://C:/Users/tikeda/Documents/git/LotusRoot/sco.txt:2:14:15"
     id="a218"
     transform="translate(-17.782171,-4.5566)">
    <path
       transform="matrix(0.004,0,0,-0.004,29.6572,15.8886)"
       d="m 212,138 c 59,0 113,-31 113,-95 0,-71 -52,-120 -99,-148 -34,-21 -73,-33 -113,-33 -59,0 -113,31 -113,95 0,71 53,120 100,148 34,21 72,33 112,33 z"
       id="path216"
       inkscape:connector-curvature="0"
       style="fill:currentColor" />
  </a>
  <rect
     x="13.024529"
     y="7.8319998"
     width="0.1514"
     height="3.3287001"
     ry="0.050000001"
     id="rect220"
     style="fill:currentColor" />
  <path
     d="m 10.849029,11.184 -0.008,0.248 v 0.044 c 0,0.088 0.008,0.172 0.02,0.256 0.172,-0.152 0.356,-0.32 0.356,-0.548 0,-0.128 -0.056,-0.26 -0.168,-0.26 -0.124,0 -0.196,0.128 -0.2,0.26 z m -0.188,0.708 -0.056,-2.36 c 0.036,-0.02 0.08,-0.032 0.12,-0.032 0.04,0 0.084,0.012 0.12,0.032 l -0.032,1.36 c 0.1,-0.096 0.236,-0.152 0.376,-0.152 0.2,0 0.336,0.2 0.336,0.416 0,0.312 -0.332,0.468 -0.564,0.676 -0.068,0.06 -0.1,0.176 -0.196,0.176 -0.06,0 -0.104,-0.052 -0.104,-0.116 z"
     id="path222"
     inkscape:connector-curvature="0"
     style="fill:currentColor;stroke-width:0.004" />
  <a
     style="color:inherit"
     xlink:href="textedit://C:/Users/tikeda/Documents/git/LotusRoot/sco.txt:2:20:21"
     id="a226"
     transform="translate(-17.782171,-4.5566)">
    <path
       transform="matrix(0.004,0,0,-0.004,32.8486,15.3886)"
       d="m 212,138 c 59,0 113,-31 113,-95 0,-71 -52,-120 -99,-148 -34,-21 -73,-33 -113,-33 -59,0 -113,31 -113,95 0,71 53,120 100,148 34,21 72,33 112,33 z"
       id="path224"
       inkscape:connector-curvature="0"
       style="fill:currentColor" />
  </a>
  <rect
     x="16.215929"
     y="7.3319998"
     width="0.1514"
     height="3.3287001"
     ry="0.050000001"
     id="rect228"
     style="fill:currentColor" />
  <a
     style="color:inherit"
     xlink:href="textedit://C:/Users/tikeda/Documents/git/LotusRoot/sco.txt:4:0:1"
     id="a232"
     transform="translate(-17.782171,-4.5566)">
    <path
       transform="matrix(0.004,0,0,-0.004,54.667,12.8886)"
       d="m 212,138 c 59,0 113,-31 113,-95 0,-71 -52,-120 -99,-148 -34,-21 -73,-33 -113,-33 -59,0 -113,31 -113,95 0,71 53,120 100,148 34,21 72,33 112,33 z"
       id="path230"
       inkscape:connector-curvature="0"
       style="fill:currentColor" />
  </a>
  <rect
     x="27.721529"
     y="6.3319998"
     width="0.1514"
     height="3.3287001"
     ry="0.050000001"
     id="rect234"
     style="fill:currentColor" />
  <rect
     x="36.88483"
     y="8.5032997"
     width="0.1514"
     height="3.3287001"
     ry="0.050000001"
     id="rect236"
     style="fill:currentColor" />
  <a
     style="color:inherit"
     xlink:href="textedit://C:/Users/tikeda/Documents/git/LotusRoot/sco.txt:4:5:6"
     id="a240"
     transform="translate(-17.782171,-4.5566)">
    <path
       transform="matrix(0.004,0,0,-0.004,57.8584,12.3886)"
       d="m 212,138 c 59,0 113,-31 113,-95 0,-71 -52,-120 -99,-148 -34,-21 -73,-33 -113,-33 -59,0 -113,31 -113,95 0,71 53,120 100,148 34,21 72,33 112,33 z"
       id="path238"
       inkscape:connector-curvature="0"
       style="fill:currentColor" />
  </a>
  <rect
     x="40.076229"
     y="8.0032997"
     width="0.1514"
     height="3.3287001"
     ry="0.050000001"
     id="rect242"
     style="fill:currentColor" />
  <path
     d="m 39.050229,7.684 -0.008,0.248 v 0.044 c 0,0.088 0.008,0.172 0.02,0.256 0.172,-0.152 0.356,-0.32 0.356,-0.548 0,-0.128 -0.056,-0.26 -0.168,-0.26 -0.124,0 -0.196,0.128 -0.2,0.26 z m -0.188,0.708 -0.056,-2.36 c 0.036,-0.02 0.08,-0.032 0.12,-0.032 0.04,0 0.084,0.012 0.12,0.032 l -0.032,1.36 c 0.1,-0.096 0.236,-0.152 0.376,-0.152 0.2,0 0.336,0.2 0.336,0.416 0,0.312 -0.332,0.468 -0.564,0.676 -0.068,0.06 -0.1,0.176 -0.196,0.176 -0.06,0 -0.104,-0.052 -0.104,-0.116 z"
     id="path244"
     inkscape:connector-curvature="0"
     style="fill:currentColor;stroke-width:0.004" />
  <a
     style="color:inherit"
     xlink:href="textedit://C:/Users/tikeda/Documents/git/LotusRoot/sco.txt:4:12:13"
     id="a248"
     transform="translate(-17.782171,-4.5566)">
    <path
       transform="matrix(0.004,0,0,-0.004,61.0497,11.8886)"
       d="m 212,138 c 59,0 113,-31 113,-95 0,-71 -52,-120 -99,-148 -34,-21 -73,-33 -113,-33 -59,0 -113,31 -113,95 0,71 53,120 100,148 34,21 72,33 112,33 z"
       id="path246"
       inkscape:connector-curvature="0"
       style="fill:currentColor" />
  </a>
  <rect
     x="43.267529"
     y="7.5033002"
     width="0.1514"
     height="3.3287001"
     ry="0.050000001"
     id="rect250"
     style="fill:currentColor" />
  <path
     d="m 31.736329,8.684 -0.008,0.248 v 0.044 c 0,0.088 0.008,0.172 0.02,0.256 0.172,-0.152 0.356,-0.32 0.356,-0.548 0,-0.128 -0.056,-0.26 -0.168,-0.26 -0.124,0 -0.196,0.128 -0.2,0.26 z m -0.188,0.708 -0.056,-2.36 c 0.036,-0.02 0.08,-0.032 0.12,-0.032 0.04,0 0.084,0.012 0.12,0.032 l -0.032,1.36 c 0.1,-0.096 0.236,-0.152 0.376,-0.152 0.2,0 0.336,0.2 0.336,0.416 0,0.312 -0.332,0.468 -0.564,0.676 -0.068,0.06 -0.1,0.176 -0.196,0.176 -0.06,0 -0.104,-0.052 -0.104,-0.116 z"
     id="path252"
     inkscape:connector-curvature="0"
     style="fill:currentColor;stroke-width:0.004" />
  <a
     style="color:inherit"
     xlink:href="textedit://C:/Users/tikeda/Documents/git/LotusRoot/sco.txt:3:14:15"
     id="a256"
     transform="translate(-17.782171,-4.5566)">
    <path
       transform="matrix(0.004,0,0,-0.004,50.5445,13.3886)"
       d="m 212,138 c 59,0 113,-31 113,-95 0,-71 -52,-120 -99,-148 -34,-21 -73,-33 -113,-33 -59,0 -113,31 -113,95 0,71 53,120 100,148 34,21 72,33 112,33 z"
       id="path254"
       inkscape:connector-curvature="0"
       style="fill:currentColor" />
  </a>
  <rect
     x="32.76223"
     y="9.0032997"
     width="0.1514"
     height="3.1619999"
     ry="0.050000001"
     id="rect258"
     style="fill:currentColor" />
  <a
     style="color:inherit"
     xlink:href="textedit://C:/Users/tikeda/Documents/git/LotusRoot/sco.txt:3:10:11"
     id="a262"
     transform="translate(-17.782171,-4.5566)">
    <path
       transform="matrix(0.004,0,0,-0.004,47.3531,13.8886)"
       d="m 212,138 c 59,0 113,-31 113,-95 0,-71 -52,-120 -99,-148 -34,-21 -73,-33 -113,-33 -59,0 -113,31 -113,95 0,71 53,120 100,148 34,21 72,33 112,33 z"
       id="path260"
       inkscape:connector-curvature="0"
       style="fill:currentColor" />
  </a>
  <rect
     x="30.720428"
     y="5.8319998"
     width="0.1514"
     height="3.3287001"
     ry="0.050000001"
     id="rect264"
     style="fill:currentColor" />
  <text
     font-size="2.1999"
     id="text268"
     style="font-size:2.19989991px;font-family:serif;text-anchor:start;fill:currentColor"
     x="56.90633"
     y="202.43719">
    <tspan
       id="tspan266" />
  </text>
</svg>
