<?xml version="1.0" encoding="UTF-8" standalone="no"?>
<svg
   xmlns:dc="http://purl.org/dc/elements/1.1/"
   xmlns:cc="http://creativecommons.org/ns#"
   xmlns:rdf="http://www.w3.org/1999/02/22-rdf-syntax-ns#"
   xmlns:svg="http://www.w3.org/2000/svg"
   xmlns="http://www.w3.org/2000/svg"
   xmlns:xlink="http://www.w3.org/1999/xlink"
   xmlns:sodipodi="http://sodipodi.sourceforge.net/DTD/sodipodi-0.dtd"
   xmlns:inkscape="http://www.inkscape.org/namespaces/inkscape"
   version="1.2"
   width="128.28937mm"
   height="16.240253mm"
   viewBox="0 0 91.254671 11.551998"
   id="svg266"
   sodipodi:docname="07-2.svg"
   inkscape:version="0.92.1 r15371">
  <metadata
     id="metadata272">
    <rdf:RDF>
      <cc:Work
         rdf:about="">
        <dc:format>image/svg+xml</dc:format>
        <dc:type
           rdf:resource="http://purl.org/dc/dcmitype/StillImage" />
        <dc:title></dc:title>
      </cc:Work>
    </rdf:RDF>
  </metadata>
  <defs
     id="defs270" />
  <sodipodi:namedview
     pagecolor="#ffffff"
     bordercolor="#666666"
     borderopacity="1"
     objecttolerance="10"
     gridtolerance="10"
     guidetolerance="10"
     inkscape:pageopacity="0"
     inkscape:pageshadow="2"
     inkscape:window-width="716"
     inkscape:window-height="480"
     id="namedview268"
     showgrid="false"
     fit-margin-top="0"
     fit-margin-left="0"
     fit-margin-right="0"
     fit-margin-bottom="0"
     inkscape:zoom="0.2102413"
     inkscape:cx="302.36647"
     inkscape:cy="-475.66828"
     inkscape:window-x="0"
     inkscape:window-y="0"
     inkscape:window-maximized="0"
     inkscape:current-layer="svg266" />
  <!-- Page: 1/1 -->
  <text
     font-size="2.1999"
     id="text4"
     style="font-size:2.19989991px;font-family:serif;text-anchor:start;fill:currentColor"
     x="-10.668971"
     y="-1">
    <tspan
       id="tspan2" />
  </text>
  <rect
     x="21.301929"
     y="6"
     width="0.2212"
     height="4"
     ry="0.0000"
     id="rect6"
     style="fill:currentColor" />
  <rect
     x="49.802929"
     y="6"
     width="0.2212"
     height="4"
     ry="0.0000"
     id="rect8"
     style="fill:currentColor" />
  <rect
     x="36.087029"
     y="6"
     width="0.2212"
     height="4"
     ry="0.0000"
     id="rect10"
     style="fill:currentColor" />
  <rect
     x="77.59243"
     y="6"
     width="0.2212"
     height="4"
     ry="0.0000"
     id="rect12"
     style="fill:currentColor" />
  <rect
     x="64.119331"
     y="6"
     width="0.2212"
     height="4"
     ry="0.0000"
     id="rect14"
     style="fill:currentColor" />
  <rect
     x="91.032532"
     y="6"
     width="0.2212"
     height="4"
     ry="0.0000"
     id="rect16"
     style="fill:currentColor" />
  <rect
     x="88.001534"
     y="1.8918"
     width="1.9962"
     height="0.2164"
     ry="0.1082"
     id="rect18"
     style="fill:currentColor" />
  <rect
     x="87.656235"
     y="2.8917999"
     width="2.3415"
     height="0.2164"
     ry="0.1082"
     id="rect20"
     style="fill:currentColor" />
  <rect
     x="87.656235"
     y="3.8917999"
     width="2.3415"
     height="0.2164"
     ry="0.1082"
     id="rect22"
     style="fill:currentColor" />
  <rect
     x="87.656235"
     y="4.8917999"
     width="2.3415"
     height="0.2164"
     ry="0.1082"
     id="rect24"
     style="fill:currentColor" />
  <rect
     x="84.305328"
     y="1.8918"
     width="2.3415"
     height="0.2164"
     ry="0.1082"
     id="rect26"
     style="fill:currentColor" />
  <rect
     x="84.305328"
     y="2.8917999"
     width="2.3415"
     height="0.2164"
     ry="0.1082"
     id="rect28"
     style="fill:currentColor" />
  <rect
     x="84.305328"
     y="3.8917999"
     width="2.3415"
     height="0.2164"
     ry="0.1082"
     id="rect30"
     style="fill:currentColor" />
  <rect
     x="84.305328"
     y="4.8917999"
     width="2.3415"
     height="0.2164"
     ry="0.1082"
     id="rect32"
     style="fill:currentColor" />
  <rect
     x="81.306534"
     y="1.8918"
     width="2.3415"
     height="0.2164"
     ry="0.1082"
     id="rect34"
     style="fill:currentColor" />
  <rect
     x="81.306534"
     y="2.8917999"
     width="2.3415"
     height="0.2164"
     ry="0.1082"
     id="rect36"
     style="fill:currentColor" />
  <rect
     x="81.306534"
     y="3.8917999"
     width="2.3415"
     height="0.2164"
     ry="0.1082"
     id="rect38"
     style="fill:currentColor" />
  <rect
     x="81.306534"
     y="4.8917999"
     width="2.3415"
     height="0.2164"
     ry="0.1082"
     id="rect40"
     style="fill:currentColor" />
  <rect
     x="78.652931"
     y="2.8917999"
     width="1.9962"
     height="0.2164"
     ry="0.1082"
     id="rect42"
     style="fill:currentColor" />
  <rect
     x="78.307632"
     y="3.8917999"
     width="2.3415"
     height="0.2164"
     ry="0.1082"
     id="rect44"
     style="fill:currentColor" />
  <rect
     x="78.307632"
     y="4.8917999"
     width="2.3415"
     height="0.2164"
     ry="0.1082"
     id="rect46"
     style="fill:currentColor" />
  <rect
     x="74.544731"
     y="2.8917999"
     width="2.0128"
     height="0.2164"
     ry="0.1082"
     id="rect48"
     style="fill:currentColor" />
  <rect
     x="74.216133"
     y="3.8917999"
     width="2.3415"
     height="0.2164"
     ry="0.1082"
     id="rect50"
     style="fill:currentColor" />
  <rect
     x="74.216133"
     y="4.8917999"
     width="2.3415"
     height="0.2164"
     ry="0.1082"
     id="rect52"
     style="fill:currentColor" />
  <rect
     x="71.562531"
     y="2.8917999"
     width="1.9962"
     height="0.2164"
     ry="0.1082"
     id="rect54"
     style="fill:currentColor" />
  <rect
     x="71.217232"
     y="3.8917999"
     width="2.3415"
     height="0.2164"
     ry="0.1082"
     id="rect56"
     style="fill:currentColor" />
  <rect
     x="71.217232"
     y="4.8917999"
     width="2.3415"
     height="0.2164"
     ry="0.1082"
     id="rect58"
     style="fill:currentColor" />
  <rect
     x="68.371231"
     y="3.8917999"
     width="1.9962"
     height="0.2164"
     ry="0.1082"
     id="rect60"
     style="fill:currentColor" />
  <rect
     x="68.025833"
     y="4.8917999"
     width="2.3415"
     height="0.2164"
     ry="0.1082"
     id="rect62"
     style="fill:currentColor" />
  <rect
     x="64.834534"
     y="3.8917999"
     width="2.3415"
     height="0.2164"
     ry="0.1082"
     id="rect64"
     style="fill:currentColor" />
  <rect
     x="64.834534"
     y="4.8917999"
     width="2.3415"
     height="0.2164"
     ry="0.1082"
     id="rect66"
     style="fill:currentColor" />
  <rect
     x="61.088329"
     y="4.8917999"
     width="1.9962"
     height="0.2164"
     ry="0.1082"
     id="rect68"
     style="fill:currentColor" />
  <rect
     x="57.551624"
     y="4.8917999"
     width="2.3415"
     height="0.2164"
     ry="0.1082"
     id="rect70"
     style="fill:currentColor" />
  <rect
     x="8.1633291"
     y="10.8918"
     width="2.3415"
     height="0.2164"
     ry="0.1082"
     id="rect72"
     style="fill:currentColor" />
  <line
     x1="0.059028916"
     y1="10"
     x2="91.195633"
     y2="10"
     id="line74"
     style="stroke:currentColor;stroke-width:0.1164;stroke-linecap:round;stroke-linejoin:round" />
  <line
     x1="0.059028916"
     y1="9"
     x2="91.195633"
     y2="9"
     id="line76"
     style="stroke:currentColor;stroke-width:0.1164;stroke-linecap:round;stroke-linejoin:round" />
  <line
     x1="0.059028916"
     y1="8"
     x2="91.195633"
     y2="8"
     id="line78"
     style="stroke:currentColor;stroke-width:0.1164;stroke-linecap:round;stroke-linejoin:round" />
  <line
     x1="0.059028916"
     y1="7"
     x2="91.195633"
     y2="7"
     id="line80"
     style="stroke:currentColor;stroke-width:0.1164;stroke-linecap:round;stroke-linejoin:round" />
  <line
     x1="0.059028916"
     y1="6"
     x2="91.195633"
     y2="6"
     id="line82"
     style="stroke:currentColor;stroke-width:0.1164;stroke-linecap:round;stroke-linejoin:round" />
  <a
     style="color:inherit"
     xlink:href="textedit://C:/Users/tikeda/Documents/git/LotusRoot/sco.txt:5:12:13"
     id="a86"
     transform="translate(-17.782171,-4.5566)">
    <path
       transform="matrix(0.004,0,0,-0.004,75.8541,9.5566)"
       d="m 212,138 c 59,0 113,-31 113,-95 0,-71 -52,-120 -99,-148 -34,-21 -73,-33 -113,-33 -59,0 -113,31 -113,95 0,71 53,120 100,148 34,21 72,33 112,33 z"
       id="path84"
       inkscape:connector-curvature="0"
       style="fill:currentColor" />
  </a>
  <rect
     x="58.07193"
     y="5.1712999"
     width="0.1514"
     height="3.3287001"
     ry="0.050000001"
     id="rect88"
     style="fill:currentColor" />
  <a
     style="color:inherit"
     xlink:href="textedit://C:/Users/tikeda/Documents/git/LotusRoot/sco.txt:5:17:18"
     id="a92"
     transform="translate(-17.782171,-4.5566)">
    <path
       transform="matrix(0.004,0,0,-0.004,79.0455,9.0566)"
       d="m 212,138 c 59,0 113,-31 113,-95 0,-71 -52,-120 -99,-148 -34,-21 -73,-33 -113,-33 -59,0 -113,31 -113,95 0,71 53,120 100,148 34,21 72,33 112,33 z"
       id="path90"
       inkscape:connector-curvature="0"
       style="fill:currentColor" />
  </a>
  <rect
     x="61.263229"
     y="4.6712999"
     width="0.1514"
     height="3.3287001"
     ry="0.050000001"
     id="rect94"
     style="fill:currentColor" />
  <path
     d="m 60.237329,4.352 -0.008,0.248 v 0.044 c 0,0.088 0.008,0.172 0.02,0.256 0.172,-0.152 0.356,-0.32 0.356,-0.548 0,-0.128 -0.056,-0.26 -0.168,-0.26 -0.124,0 -0.196,0.128 -0.2,0.26 z m -0.188,0.708 -0.056,-2.36 c 0.036,-0.02 0.08,-0.032 0.12,-0.032 0.04,0 0.084,0.012 0.12,0.032 l -0.032,1.36 c 0.1,-0.096 0.236,-0.152 0.376,-0.152 0.2,0 0.336,0.2 0.336,0.416 0,0.312 -0.332,0.468 -0.564,0.676 -0.068,0.06 -0.1,0.176 -0.196,0.176 -0.06,0 -0.104,-0.052 -0.104,-0.116 z"
     id="path96"
     inkscape:connector-curvature="0"
     style="fill:currentColor;stroke-width:0.004" />
  <a
     style="color:inherit"
     xlink:href="textedit://C:/Users/tikeda/Documents/git/LotusRoot/sco.txt:6:0:1"
     id="a100"
     transform="translate(-17.782171,-4.5566)">
    <path
       transform="matrix(0.004,0,0,-0.004,83.137,8.5566)"
       d="m 212,138 c 59,0 113,-31 113,-95 0,-71 -52,-120 -99,-148 -34,-21 -73,-33 -113,-33 -59,0 -113,31 -113,95 0,71 53,120 100,148 34,21 72,33 112,33 z"
       id="path98"
       inkscape:connector-curvature="0"
       style="fill:currentColor" />
  </a>
  <rect
     x="65.354828"
     y="4.1712999"
     width="0.1514"
     height="3.8287001"
     ry="0.050000001"
     id="rect102"
     style="fill:currentColor" />
  <path
     d="m 43.384929,8.316 c -0.048,0 -0.084,-0.036 -0.084,-0.084 V 7.68 l -0.316,0.12 v 0.616 c 0,0.048 -0.036,0.084 -0.084,0.084 -0.048,0 -0.084,-0.036 -0.084,-0.084 V 7.864 l -0.088,0.032 c -0.012,0.004 -0.024,0.008 -0.036,0.008 -0.052,0 -0.1,-0.044 -0.1,-0.1 V 7.588 c 0,-0.04 0.024,-0.08 0.064,-0.096 l 0.16,-0.06 v -0.62 l -0.088,0.036 c -0.012,0.004 -0.024,0.004 -0.036,0.004 -0.052,0 -0.1,-0.044 -0.1,-0.1 V 6.536 c 0,-0.04 0.024,-0.076 0.064,-0.092 l 0.16,-0.06 V 5.768 c 0,-0.048 0.036,-0.084 0.084,-0.084 0.048,0 0.084,0.036 0.084,0.084 V 6.32 l 0.316,-0.12 V 5.584 c 0,-0.048 0.036,-0.084 0.084,-0.084 0.048,0 0.084,0.036 0.084,0.084 v 0.552 l 0.088,-0.032 c 0.012,-0.004 0.024,-0.008 0.036,-0.008 0.052,0 0.1,0.044 0.1,0.1 v 0.216 c 0,0.04 -0.024,0.08 -0.064,0.096 l -0.16,0.06 v 0.62 l 0.088,-0.036 c 0.012,-0.004 0.024,-0.004 0.036,-0.004 0.052,0 0.1,0.044 0.1,0.1 v 0.216 c 0,0.04 -0.024,0.076 -0.064,0.092 l -0.16,0.06 v 0.616 c 0,0.048 -0.036,0.084 -0.084,0.084 z m -0.4,-1.564 v 0.616 l 0.316,-0.12 V 6.632 Z"
     id="path104"
     inkscape:connector-curvature="0"
     style="fill:currentColor;stroke-width:0.004" />
  <a
     style="color:inherit"
     xlink:href="textedit://C:/Users/tikeda/Documents/git/LotusRoot/sco.txt:4:19:20"
     id="a108"
     transform="translate(-17.782171,-4.5566)">
    <path
       transform="matrix(0.004,0,0,-0.004,64.824,11.0566)"
       d="m 212,138 c 59,0 113,-31 113,-95 0,-71 -52,-120 -99,-148 -34,-21 -73,-33 -113,-33 -59,0 -113,31 -113,95 0,71 53,120 100,148 34,21 72,33 112,33 z"
       id="path106"
       inkscape:connector-curvature="0"
       style="fill:currentColor" />
  </a>
  <rect
     x="47.041828"
     y="6.6712999"
     width="0.1514"
     height="3.3287001"
     ry="0.050000001"
     id="rect110"
     style="fill:currentColor" />
  <a
     style="color:inherit"
     xlink:href="textedit://C:/Users/tikeda/Documents/git/LotusRoot/sco.txt:5:0:1"
     id="a114"
     transform="translate(-17.782171,-4.5566)">
    <path
       transform="matrix(0.004,0,0,-0.004,69.8563,10.5566)"
       d="m 212,138 c 59,0 113,-31 113,-95 0,-71 -52,-120 -99,-148 -34,-21 -73,-33 -113,-33 -59,0 -113,31 -113,95 0,71 53,120 100,148 34,21 72,33 112,33 z"
       id="path112"
       inkscape:connector-curvature="0"
       style="fill:currentColor" />
  </a>
  <rect
     x="52.074127"
     y="6.1712999"
     width="0.1514"
     height="3.3287001"
     ry="0.050000001"
     id="rect116"
     style="fill:currentColor" />
  <rect
     x="55.073029"
     y="5.6712999"
     width="0.1514"
     height="3.3287001"
     ry="0.050000001"
     id="rect118"
     style="fill:currentColor" />
  <path
     d="m 51.416129,7.316 c -0.048,0 -0.084,-0.036 -0.084,-0.084 V 6.68 l -0.316,0.12 v 0.616 c 0,0.048 -0.036,0.084 -0.084,0.084 -0.048,0 -0.084,-0.036 -0.084,-0.084 V 6.864 l -0.088,0.032 c -0.012,0.004 -0.024,0.008 -0.036,0.008 -0.052,0 -0.1,-0.044 -0.1,-0.1 V 6.588 c 0,-0.04 0.024,-0.08 0.064,-0.096 l 0.16,-0.06 v -0.62 l -0.088,0.036 c -0.012,0.004 -0.024,0.004 -0.036,0.004 -0.052,0 -0.1,-0.044 -0.1,-0.1 V 5.536 c 0,-0.04 0.024,-0.076 0.064,-0.092 l 0.16,-0.06 V 4.768 c 0,-0.048 0.036,-0.084 0.084,-0.084 0.048,0 0.084,0.036 0.084,0.084 V 5.32 l 0.316,-0.12 V 4.584 c 0,-0.048 0.036,-0.084 0.084,-0.084 0.048,0 0.084,0.036 0.084,0.084 v 0.552 l 0.088,-0.032 c 0.012,-0.004 0.024,-0.008 0.036,-0.008 0.052,0 0.1,0.044 0.1,0.1 v 0.216 c 0,0.04 -0.024,0.08 -0.064,0.096 l -0.16,0.06 v 0.62 l 0.088,-0.036 c 0.012,-0.004 0.024,-0.004 0.036,-0.004 0.052,0 0.1,0.044 0.1,0.1 v 0.216 c 0,0.04 -0.024,0.076 -0.064,0.092 l -0.16,0.06 v 0.616 c 0,0.048 -0.036,0.084 -0.084,0.084 z m -0.4,-1.564 v 0.616 l 0.316,-0.12 V 5.632 Z"
     id="path120"
     inkscape:connector-curvature="0"
     style="fill:currentColor;stroke-width:0.004" />
  <a
     style="color:inherit"
     xlink:href="textedit://C:/Users/tikeda/Documents/git/LotusRoot/sco.txt:5:7:8"
     id="a124"
     transform="translate(-17.782171,-4.5566)">
    <path
       transform="matrix(0.004,0,0,-0.004,72.8552,10.0566)"
       d="m 212,138 c 59,0 113,-31 113,-95 0,-71 -52,-120 -99,-148 -34,-21 -73,-33 -113,-33 -59,0 -113,31 -113,95 0,71 53,120 100,148 34,21 72,33 112,33 z"
       id="path122"
       inkscape:connector-curvature="0"
       style="fill:currentColor" />
  </a>
  <rect
     x="81.826828"
     y="2.1712999"
     width="0.1514"
     height="5.8287001"
     ry="0.050000001"
     id="rect126"
     style="fill:currentColor" />
  <path
     d="m 78.169929,3.816 c -0.048,0 -0.084,-0.036 -0.084,-0.084 V 3.18 l -0.316,0.12 v 0.616 c 0,0.048 -0.036,0.084 -0.084,0.084 -0.048,0 -0.084,-0.036 -0.084,-0.084 V 3.364 l -0.088,0.032 c -0.012,0.004 -0.024,0.008 -0.036,0.008 -0.052,0 -0.1,-0.044 -0.1,-0.1 V 3.088 c 0,-0.04 0.024,-0.08 0.064,-0.096 l 0.16,-0.06 v -0.62 l -0.088,0.036 c -0.012,0.004 -0.024,0.004 -0.036,0.004 -0.052,0 -0.1,-0.044 -0.1,-0.1 V 2.036 c 0,-0.04 0.024,-0.076 0.064,-0.092 l 0.16,-0.06 V 1.268 c 0,-0.048 0.036,-0.084 0.084,-0.084 0.048,0 0.084,0.036 0.084,0.084 V 1.82 l 0.316,-0.12 V 1.084 c 0,-0.048 0.036,-0.084 0.084,-0.084 0.048,0 0.084,0.036 0.084,0.084 v 0.552 l 0.088,-0.032 c 0.012,-0.004 0.024,-0.008 0.036,-0.008 0.052,0 0.1,0.044 0.1,0.1 v 0.216 c 0,0.04 -0.024,0.08 -0.064,0.096 l -0.16,0.06 v 0.62 l 0.088,-0.036 c 0.012,-0.004 0.024,-0.004 0.036,-0.004 0.052,0 0.1,0.044 0.1,0.1 v 0.216 c 0,0.04 -0.024,0.076 -0.064,0.092 l -0.16,0.06 v 0.616 c 0,0.048 -0.036,0.084 -0.084,0.084 z m -0.4,-1.564 v 0.616 l 0.316,-0.12 V 2.132 Z"
     id="path128"
     inkscape:connector-curvature="0"
     style="fill:currentColor;stroke-width:0.004" />
  <a
     style="color:inherit"
     xlink:href="textedit://C:/Users/tikeda/Documents/git/LotusRoot/sco.txt:7:8:9"
     id="a132"
     transform="translate(-17.782171,-4.5566)">
    <path
       transform="matrix(0.004,0,0,-0.004,99.609,6.5566)"
       d="m 212,138 c 59,0 113,-31 113,-95 0,-71 -52,-120 -99,-148 -34,-21 -73,-33 -113,-33 -59,0 -113,31 -113,95 0,71 53,120 100,148 34,21 72,33 112,33 z"
       id="path130"
       inkscape:connector-curvature="0"
       style="fill:currentColor" />
  </a>
  <a
     style="color:inherit"
     xlink:href="textedit://C:/Users/tikeda/Documents/git/LotusRoot/sco.txt:7:14:15"
     id="a136"
     transform="translate(-17.782171,-4.5566)">
    <path
       transform="matrix(0.004,0,0,-0.004,102.6079,6.0566)"
       d="m 212,138 c 59,0 113,-31 113,-95 0,-71 -52,-120 -99,-148 -34,-21 -73,-33 -113,-33 -59,0 -113,31 -113,95 0,71 53,120 100,148 34,21 72,33 112,33 z"
       id="path134"
       inkscape:connector-curvature="0"
       style="fill:currentColor" />
  </a>
  <rect
     x="84.825729"
     y="1.6712999"
     width="0.1514"
     height="6.3287001"
     ry="0.050000001"
     id="rect138"
     style="fill:currentColor" />
  <a
     style="color:inherit"
     xlink:href="textedit://C:/Users/tikeda/Documents/git/LotusRoot/sco.txt:7:20:21"
     id="a142"
     transform="translate(-17.782171,-4.5566)">
    <path
       transform="matrix(0.004,0,0,-0.004,105.9587,6.0566)"
       d="m 212,138 c 59,0 113,-31 113,-95 0,-71 -52,-120 -99,-148 -34,-21 -73,-33 -113,-33 -59,0 -113,31 -113,95 0,71 53,120 100,148 34,21 72,33 112,33 z"
       id="path140"
       inkscape:connector-curvature="0"
       style="fill:currentColor" />
  </a>
  <rect
     x="88.176529"
     y="1.6712999"
     width="0.1514"
     height="6.3287001"
     ry="0.050000001"
     id="rect144"
     style="fill:currentColor" />
  <path
     d="m 87.518529,2.816 c -0.048,0 -0.084,-0.036 -0.084,-0.084 V 2.18 l -0.316,0.12 v 0.616 c 0,0.048 -0.036,0.084 -0.084,0.084 -0.048,0 -0.084,-0.036 -0.084,-0.084 V 2.364 l -0.088,0.032 c -0.012,0.004 -0.024,0.008 -0.036,0.008 -0.052,0 -0.1,-0.044 -0.1,-0.1 V 2.088 c 0,-0.04 0.024,-0.08 0.064,-0.096 l 0.16,-0.06 v -0.62 l -0.088,0.036 c -0.012,0.004 -0.024,0.004 -0.036,0.004 -0.052,0 -0.1,-0.044 -0.1,-0.1 V 1.036 c 0,-0.04 0.024,-0.076 0.064,-0.092 l 0.16,-0.06 V 0.268 c 0,-0.048 0.036,-0.084 0.084,-0.084 0.048,0 0.084,0.036 0.084,0.084 V 0.82 l 0.316,-0.12 V 0.084 c 0,-0.048 0.036,-0.084 0.084,-0.084 0.048,0 0.084,0.036 0.084,0.084 v 0.552 l 0.088,-0.032 c 0.012,-0.004 0.024,-0.008 0.036,-0.008 0.052,0 0.1,0.044 0.1,0.1 v 0.216 c 0,0.04 -0.024,0.08 -0.064,0.096 l -0.16,0.06 v 0.62 l 0.088,-0.036 c 0.012,-0.004 0.024,-0.004 0.036,-0.004 0.052,0 0.1,0.044 0.1,0.1 v 0.216 c 0,0.04 -0.024,0.076 -0.064,0.092 l -0.16,0.06 v 0.616 c 0,0.048 -0.036,0.084 -0.084,0.084 z m -0.4,-1.564 v 0.616 l 0.316,-0.12 V 1.132 Z"
     id="path146"
     inkscape:connector-curvature="0"
     style="fill:currentColor;stroke-width:0.004" />
  <a
     style="color:inherit"
     xlink:href="textedit://C:/Users/tikeda/Documents/git/LotusRoot/sco.txt:6:6:7"
     id="a150"
     transform="translate(-17.782171,-4.5566)">
    <path
       transform="matrix(0.004,0,0,-0.004,86.3283,8.0566)"
       d="m 212,138 c 59,0 113,-31 113,-95 0,-71 -52,-120 -99,-148 -34,-21 -73,-33 -113,-33 -59,0 -113,31 -113,95 0,71 53,120 100,148 34,21 72,33 112,33 z"
       id="path148"
       inkscape:connector-curvature="0"
       style="fill:currentColor" />
  </a>
  <rect
     x="68.546127"
     y="3.6712999"
     width="0.1514"
     height="4.3287001"
     ry="0.050000001"
     id="rect152"
     style="fill:currentColor" />
  <path
     d="m 67.520129,3.352 -0.008,0.248 v 0.044 c 0,0.088 0.008,0.172 0.02,0.256 0.172,-0.152 0.356,-0.32 0.356,-0.548 0,-0.128 -0.056,-0.26 -0.168,-0.26 -0.124,0 -0.196,0.128 -0.2,0.26 z m -0.188,0.708 -0.056,-2.36 c 0.036,-0.02 0.08,-0.032 0.12,-0.032 0.04,0 0.084,0.012 0.12,0.032 l -0.032,1.36 c 0.1,-0.096 0.236,-0.152 0.376,-0.152 0.2,0 0.336,0.2 0.336,0.416 0,0.312 -0.332,0.468 -0.564,0.676 -0.068,0.06 -0.1,0.176 -0.196,0.176 -0.06,0 -0.104,-0.052 -0.104,-0.116 z"
     id="path154"
     inkscape:connector-curvature="0"
     style="fill:currentColor;stroke-width:0.004" />
  <a
     style="color:inherit"
     xlink:href="textedit://C:/Users/tikeda/Documents/git/LotusRoot/sco.txt:6:14:15"
     id="a158"
     transform="translate(-17.782171,-4.5566)">
    <path
       transform="matrix(0.004,0,0,-0.004,89.5197,7.5566)"
       d="m 212,138 c 59,0 113,-31 113,-95 0,-71 -52,-120 -99,-148 -34,-21 -73,-33 -113,-33 -59,0 -113,31 -113,95 0,71 53,120 100,148 34,21 72,33 112,33 z"
       id="path156"
       inkscape:connector-curvature="0"
       style="fill:currentColor" />
  </a>
  <rect
     x="71.737526"
     y="3.1712999"
     width="0.1514"
     height="4.8287001"
     ry="0.050000001"
     id="rect160"
     style="fill:currentColor" />
  <path
     d="m 70.711529,2.852 -0.008,0.248 v 0.044 c 0,0.088 0.008,0.172 0.02,0.256 0.172,-0.152 0.356,-0.32 0.356,-0.548 0,-0.128 -0.056,-0.26 -0.168,-0.26 -0.124,0 -0.196,0.128 -0.2,0.26 z m -0.188,0.708 -0.056,-2.36 c 0.036,-0.02 0.08,-0.032 0.12,-0.032 0.04,0 0.084,0.012 0.12,0.032 l -0.032,1.36 c 0.1,-0.096 0.236,-0.152 0.376,-0.152 0.2,0 0.336,0.2 0.336,0.416 0,0.312 -0.332,0.468 -0.564,0.676 -0.068,0.06 -0.1,0.176 -0.196,0.176 -0.06,0 -0.104,-0.052 -0.104,-0.116 z"
     id="path162"
     inkscape:connector-curvature="0"
     style="fill:currentColor;stroke-width:0.004" />
  <a
     style="color:inherit"
     xlink:href="textedit://C:/Users/tikeda/Documents/git/LotusRoot/sco.txt:6:22:23"
     id="a166"
     transform="translate(-17.782171,-4.5566)">
    <path
       transform="matrix(0.004,0,0,-0.004,92.5186,7.5566)"
       d="m 212,138 c 59,0 113,-31 113,-95 0,-71 -52,-120 -99,-148 -34,-21 -73,-33 -113,-33 -59,0 -113,31 -113,95 0,71 53,120 100,148 34,21 72,33 112,33 z"
       id="path164"
       inkscape:connector-curvature="0"
       style="fill:currentColor" />
  </a>
  <rect
     x="74.736427"
     y="3.1712999"
     width="0.1514"
     height="4.8287001"
     ry="0.050000001"
     id="rect168"
     style="fill:currentColor" />
  <path
     d="m 73.654429,1.5 c 0.032,-0.02 0.072,-0.028 0.108,-0.028 0.036,0 0.072,0.008 0.104,0.028 l -0.012,0.768 0.408,-0.092 h 0.016 c 0.04,0 0.076,0.032 0.076,0.072 l 0.032,2.252 c -0.032,0.02 -0.072,0.028 -0.108,0.028 -0.036,0 -0.072,-0.008 -0.104,-0.028 l 0.008,-0.768 -0.404,0.092 h -0.016 c -0.04,0 -0.076,-0.032 -0.076,-0.072 z m 0.544,1.06 -0.348,0.076 -0.012,0.804 0.352,-0.076 z"
     id="path170"
     inkscape:connector-curvature="0"
     style="fill:currentColor;stroke-width:0.004" />
  <a
     style="color:inherit"
     xlink:href="textedit://C:/Users/tikeda/Documents/git/LotusRoot/sco.txt:7:0:1"
     id="a174"
     transform="translate(-17.782171,-4.5566)">
    <path
       transform="matrix(0.004,0,0,-0.004,96.6101,7.0566)"
       d="m 212,138 c 59,0 113,-31 113,-95 0,-71 -52,-120 -99,-148 -34,-21 -73,-33 -113,-33 -59,0 -113,31 -113,95 0,71 53,120 100,148 34,21 72,33 112,33 z"
       id="path172"
       inkscape:connector-curvature="0"
       style="fill:currentColor" />
  </a>
  <rect
     x="78.827927"
     y="2.6712999"
     width="0.1514"
     height="5.3287001"
     ry="0.050000001"
     id="rect176"
     style="fill:currentColor" />
  <path
     d="m 14.040429,9.852 -0.008,0.248 v 0.044 c 0,0.088 0.008,0.172 0.02,0.256 0.172,-0.152 0.356,-0.32 0.356,-0.548 0,-0.128 -0.056,-0.26 -0.168,-0.26 -0.124,0 -0.196,0.128 -0.2,0.26 z m -0.188,0.708 -0.056,-2.36 c 0.036,-0.02 0.08,-0.032 0.12,-0.032 0.04,0 0.084,0.012 0.12,0.032 l -0.032,1.36 c 0.1,-0.096 0.236,-0.152 0.376,-0.152 0.2,0 0.336,0.2 0.336,0.416 0,0.312 -0.332,0.468 -0.564,0.676 -0.068,0.06 -0.1,0.176 -0.196,0.176 -0.06,0 -0.104,-0.052 -0.104,-0.116 z"
     id="path178"
     inkscape:connector-curvature="0"
     style="fill:currentColor;stroke-width:0.004" />
  <a
     style="color:inherit"
     xlink:href="textedit://C:/Users/tikeda/Documents/git/LotusRoot/sco.txt:2:26:27"
     id="a182"
     transform="translate(-17.782171,-4.5566)">
    <path
       transform="matrix(0.004,0,0,-0.004,35.8475,14.5566)"
       d="m 212,138 c 59,0 113,-31 113,-95 0,-71 -52,-120 -99,-148 -34,-21 -73,-33 -113,-33 -59,0 -113,31 -113,95 0,71 53,120 100,148 34,21 72,33 112,33 z"
       id="path180"
       inkscape:connector-curvature="0"
       style="fill:currentColor" />
  </a>
  <rect
     x="19.214729"
     y="6.5"
     width="0.1514"
     height="3.3287001"
     ry="0.050000001"
     id="rect184"
     style="fill:currentColor" />
  <path
     d="m 16.989729,8.5 c 0.032,-0.02 0.072,-0.028 0.108,-0.028 0.036,0 0.072,0.008 0.104,0.028 l -0.012,0.768 0.408,-0.092 h 0.016 c 0.04,0 0.076,0.032 0.076,0.072 l 0.032,2.252 c -0.032,0.02 -0.072,0.028 -0.108,0.028 -0.036,0 -0.072,-0.008 -0.104,-0.028 l 0.008,-0.768 -0.404,0.092 h -0.016 c -0.04,0 -0.076,-0.032 -0.076,-0.072 z m 0.544,1.06 -0.348,0.076 -0.012,0.804 0.352,-0.076 z"
     id="path186"
     inkscape:connector-curvature="0"
     style="fill:currentColor;stroke-width:0.004" />
  <a
     style="color:inherit"
     xlink:href="textedit://C:/Users/tikeda/Documents/git/LotusRoot/sco.txt:3:0:1"
     id="a190"
     transform="translate(-17.782171,-4.5566)">
    <path
       transform="matrix(0.004,0,0,-0.004,41.3553,14.0566)"
       d="m 212,138 c 59,0 113,-31 113,-95 0,-71 -52,-120 -99,-148 -34,-21 -73,-33 -113,-33 -59,0 -113,31 -113,95 0,71 53,120 100,148 34,21 72,33 112,33 z"
       id="path188"
       inkscape:connector-curvature="0"
       style="fill:currentColor" />
  </a>
  <rect
     x="24.72263"
     y="6"
     width="0.1514"
     height="3.3287001"
     ry="0.050000001"
     id="rect192"
     style="fill:currentColor" />
  <path
     d="m 22.915129,10.816 c -0.048,0 -0.084,-0.036 -0.084,-0.084 V 10.18 l -0.316,0.12 v 0.616 c 0,0.048 -0.036,0.084 -0.084,0.084 -0.048,0 -0.084,-0.036 -0.084,-0.084 v -0.552 l -0.088,0.032 c -0.012,0.004 -0.024,0.008 -0.036,0.008 -0.052,0 -0.1,-0.044 -0.1,-0.1 v -0.216 c 0,-0.04 0.024,-0.08 0.064,-0.096 l 0.16,-0.06 v -0.62 l -0.088,0.036 c -0.012,0.004 -0.024,0.004 -0.036,0.004 -0.052,0 -0.1,-0.044 -0.1,-0.1 V 9.036 c 0,-0.04 0.024,-0.076 0.064,-0.092 l 0.16,-0.06 V 8.268 c 0,-0.048 0.036,-0.084 0.084,-0.084 0.048,0 0.084,0.036 0.084,0.084 V 8.82 l 0.316,-0.12 V 8.084 c 0,-0.048 0.036,-0.084 0.084,-0.084 0.048,0 0.084,0.036 0.084,0.084 v 0.552 l 0.088,-0.032 c 0.012,-0.004 0.024,-0.008 0.036,-0.008 0.052,0 0.1,0.044 0.1,0.1 v 0.216 c 0,0.04 -0.024,0.08 -0.064,0.096 l -0.16,0.06 v 0.62 l 0.088,-0.036 c 0.012,-0.004 0.024,-0.004 0.036,-0.004 0.052,0 0.1,0.044 0.1,0.1 v 0.216 c 0,0.04 -0.024,0.076 -0.064,0.092 l -0.16,0.06 v 0.616 c 0,0.048 -0.036,0.084 -0.084,0.084 z m -0.4,-1.564 v 0.616 l 0.316,-0.12 V 9.132 Z"
     id="path194"
     inkscape:connector-curvature="0"
     style="fill:currentColor;stroke-width:0.004" />
  <a
     style="color:inherit"
     xlink:href="textedit://C:/Users/tikeda/Documents/git/LotusRoot/sco.txt:2:10:11"
     id="a198"
     transform="translate(-17.782171,-4.5566)">
    <path
       transform="matrix(0.004,0,0,-0.004,26.4659,15.5566)"
       d="m 212,138 c 59,0 113,-31 113,-95 0,-71 -52,-120 -99,-148 -34,-21 -73,-33 -113,-33 -59,0 -113,31 -113,95 0,71 53,120 100,148 34,21 72,33 112,33 z"
       id="path196"
       inkscape:connector-curvature="0"
       style="fill:currentColor" />
  </a>
  <path
     d="m 2.3168289,7.944 c 0.012,0 0.028,-0.004 0.04,-0.004 0.628,0 1.032,0.516 1.032,1.052 0,0.308 -0.132,0.62 -0.432,0.844 -0.088,0.064 -0.184,0.116 -0.288,0.148 0.012,0.132 0.016,0.264 0.016,0.396 0,0.084 0,0.164 -0.004,0.248 -0.028,0.484 -0.364,0.916 -0.844,0.916 -0.432,0 -0.784,-0.352 -0.784,-0.788 0,-0.232 0.216,-0.412 0.452,-0.412 0.216,0 0.38,0.188 0.38,0.412 0,0.208 -0.172,0.38 -0.38,0.38 -0.036,0 -0.072,-0.004 -0.108,-0.016 0.1,0.148 0.264,0.244 0.452,0.244 0.38,0 0.624,-0.372 0.648,-0.764 0.004,-0.076 0.008,-0.152 0.008,-0.228 0,-0.116 -0.004,-0.232 -0.012,-0.348 -0.116,0.02 -0.232,0.032 -0.352,0.032 -0.756,0 -1.33199999,-0.692 -1.33199999,-1.504 0,-0.708 0.51599999,-1.232 0.97599999,-1.772 -0.08,-0.248 -0.16,-0.496 -0.192,-0.756 -0.028,-0.208 -0.028,-0.42 -0.028,-0.632 0,-0.456 0.216,-0.884 0.588,-1.152 0.016,-0.012 0.032,-0.016 0.048,-0.016 0.02,0 0.036,0.008 0.052,0.02 0.288,0.332 0.54,0.972 0.54,1.424 0,0.568 -0.336,1.02 -0.704,1.456 0.084,0.272 0.16,0.544 0.228,0.82 z m 0.336,1.86 c 0.26,-0.096 0.44,-0.376 0.44,-0.644 0,-0.352 -0.256,-0.7 -0.668,-0.752 0.096,0.456 0.176,0.908 0.228,1.396 z m -1.544,-0.904 c 0,0.532 0.512,0.972 1.044,0.972 0.108,0 0.22,-0.004 0.324,-0.02 -0.052,-0.504 -0.14,-0.976 -0.24,-1.448 -0.316,0.032 -0.496,0.24 -0.496,0.472 0,0.172 0.1,0.352 0.32,0.48 0.02,0.02 0.028,0.044 0.028,0.068 0,0.048 -0.04,0.092 -0.092,0.092 -0.012,0 -0.028,-0.004 -0.04,-0.008 -0.324,-0.172 -0.472,-0.46 -0.472,-0.744 0,-0.356 0.24,-0.708 0.652,-0.8 -0.056,-0.228 -0.12,-0.452 -0.188,-0.676 -0.42,0.488 -0.84,0.972 -0.84,1.612 z m 1.304,-4.052 c -0.396,0.184 -0.644,0.58 -0.644,1.016 0,0.284 0.084,0.52 0.156,0.752 0.312,-0.388 0.568,-0.796 0.568,-1.296 0,-0.204 -0.016,-0.288 -0.08,-0.472 z"
     id="path200"
     inkscape:connector-curvature="0"
     style="fill:currentColor;stroke-width:0.004" />
  <a
     style="color:inherit"
     xlink:href="textedit://C:/Users/tikeda/Documents/git/LotusRoot/sco.txt:2:0:1"
     id="a204"
     transform="translate(-17.782171,-4.5566)">
    <path
       transform="matrix(0.004,0,0,-0.004,22.783,12.5566)"
       d="m 356,30 c -48,0 -72,40 -72,72 0,37 26,75 70,75 3,0 6,-1 9,-1 -26,36 -67,59 -113,59 -107,0 -113,-74 -113,-189 0,-15 1,-30 1,-46 0,-16 -1,-31 -1,-46 0,-115 6,-189 113,-189 78,0 133,70 151,149 2,8 8,11 14,11 7,0 15,-5 15,-14 0,-95 -103,-176 -180,-176 -68,0 -137,20 -184,70 C 17,-143 0,-71 0,0 c 0,71 17,143 66,195 47,50 116,70 184,70 86,0 156,-67 171,-153 1,-4 1,-9 1,-13 0,-38 -30,-69 -66,-69 z"
       id="path202"
       inkscape:connector-curvature="0"
       style="fill:currentColor" />
  </a>
  <rect
     x="9.8331289"
     y="7.5"
     width="0.1514"
     height="3.3287001"
     ry="0.050000001"
     id="rect206"
     style="fill:currentColor" />
  <a
     style="color:inherit"
     xlink:href="textedit://C:/Users/tikeda/Documents/git/LotusRoot/sco.txt:2:14:15"
     id="a210"
     transform="translate(-17.782171,-4.5566)">
    <path
       transform="matrix(0.004,0,0,-0.004,29.6572,15.0566)"
       d="m 212,138 c 59,0 113,-31 113,-95 0,-71 -52,-120 -99,-148 -34,-21 -73,-33 -113,-33 -59,0 -113,31 -113,95 0,71 53,120 100,148 34,21 72,33 112,33 z"
       id="path208"
       inkscape:connector-curvature="0"
       style="fill:currentColor" />
  </a>
  <rect
     x="13.024529"
     y="7"
     width="0.1514"
     height="3.3287001"
     ry="0.050000001"
     id="rect212"
     style="fill:currentColor" />
  <path
     d="m 10.849029,10.352 -0.008,0.248 v 0.044 c 0,0.088 0.008,0.172 0.02,0.256 0.172,-0.152 0.356,-0.32 0.356,-0.548 0,-0.128 -0.056,-0.26 -0.168,-0.26 -0.124,0 -0.196,0.128 -0.2,0.26 z m -0.188,0.708 -0.056,-2.36 c 0.036,-0.02 0.08,-0.032 0.12,-0.032 0.04,0 0.084,0.012 0.12,0.032 l -0.032,1.36 c 0.1,-0.096 0.236,-0.152 0.376,-0.152 0.2,0 0.336,0.2 0.336,0.416 0,0.312 -0.332,0.468 -0.564,0.676 -0.068,0.06 -0.1,0.176 -0.196,0.176 -0.06,0 -0.104,-0.052 -0.104,-0.116 z"
     id="path214"
     inkscape:connector-curvature="0"
     style="fill:currentColor;stroke-width:0.004" />
  <a
     style="color:inherit"
     xlink:href="textedit://C:/Users/tikeda/Documents/git/LotusRoot/sco.txt:2:20:21"
     id="a218"
     transform="translate(-17.782171,-4.5566)">
    <path
       transform="matrix(0.004,0,0,-0.004,32.8486,14.5566)"
       d="m 212,138 c 59,0 113,-31 113,-95 0,-71 -52,-120 -99,-148 -34,-21 -73,-33 -113,-33 -59,0 -113,31 -113,95 0,71 53,120 100,148 34,21 72,33 112,33 z"
       id="path216"
       inkscape:connector-curvature="0"
       style="fill:currentColor" />
  </a>
  <rect
     x="16.215929"
     y="6.5"
     width="0.1514"
     height="3.3287001"
     ry="0.050000001"
     id="rect220"
     style="fill:currentColor" />
  <path
     d="m 32.263729,9.816 c -0.048,0 -0.084,-0.036 -0.084,-0.084 V 9.18 l -0.316,0.12 v 0.616 c 0,0.048 -0.036,0.084 -0.084,0.084 -0.048,0 -0.084,-0.036 -0.084,-0.084 V 9.364 l -0.088,0.032 c -0.012,0.004 -0.024,0.008 -0.036,0.008 -0.052,0 -0.1,-0.044 -0.1,-0.1 V 9.088 c 0,-0.04 0.024,-0.08 0.064,-0.096 l 0.16,-0.06 v -0.62 l -0.088,0.036 c -0.012,0.004 -0.024,0.004 -0.036,0.004 -0.052,0 -0.1,-0.044 -0.1,-0.1 V 8.036 c 0,-0.04 0.024,-0.076 0.064,-0.092 l 0.16,-0.06 V 7.268 c 0,-0.048 0.036,-0.084 0.084,-0.084 0.048,0 0.084,0.036 0.084,0.084 V 7.82 l 0.316,-0.12 V 7.084 c 0,-0.048 0.036,-0.084 0.084,-0.084 0.048,0 0.084,0.036 0.084,0.084 v 0.552 l 0.088,-0.032 c 0.012,-0.004 0.024,-0.008 0.036,-0.008 0.052,0 0.1,0.044 0.1,0.1 v 0.216 c 0,0.04 -0.024,0.08 -0.064,0.096 l -0.16,0.06 v 0.62 l 0.088,-0.036 c 0.012,-0.004 0.024,-0.004 0.036,-0.004 0.052,0 0.1,0.044 0.1,0.1 v 0.216 c 0,0.04 -0.024,0.076 -0.064,0.092 l -0.16,0.06 v 0.616 c 0,0.048 -0.036,0.084 -0.084,0.084 z m -0.4,-1.564 v 0.616 l 0.316,-0.12 V 8.132 Z"
     id="path222"
     inkscape:connector-curvature="0"
     style="fill:currentColor;stroke-width:0.004" />
  <a
     style="color:inherit"
     xlink:href="textedit://C:/Users/tikeda/Documents/git/LotusRoot/sco.txt:3:6:7"
     id="a226"
     transform="translate(-17.782171,-4.5566)">
    <path
       transform="matrix(0.004,0,0,-0.004,44.3542,13.5566)"
       d="m 212,138 c 59,0 113,-31 113,-95 0,-71 -52,-120 -99,-148 -34,-21 -73,-33 -113,-33 -59,0 -113,31 -113,95 0,71 53,120 100,148 34,21 72,33 112,33 z"
       id="path224"
       inkscape:connector-curvature="0"
       style="fill:currentColor" />
  </a>
  <rect
     x="37.341228"
     y="7.6712999"
     width="0.1514"
     height="3.3287001"
     ry="0.050000001"
     id="rect228"
     style="fill:currentColor" />
  <a
     style="color:inherit"
     xlink:href="textedit://C:/Users/tikeda/Documents/git/LotusRoot/sco.txt:4:0:1"
     id="a232"
     transform="translate(-17.782171,-4.5566)">
    <path
       transform="matrix(0.004,0,0,-0.004,55.1234,12.0566)"
       d="m 212,138 c 59,0 113,-31 113,-95 0,-71 -52,-120 -99,-148 -34,-21 -73,-33 -113,-33 -59,0 -113,31 -113,95 0,71 53,120 100,148 34,21 72,33 112,33 z"
       id="path230"
       inkscape:connector-curvature="0"
       style="fill:currentColor" />
  </a>
  <a
     style="color:inherit"
     xlink:href="textedit://C:/Users/tikeda/Documents/git/LotusRoot/sco.txt:4:5:6"
     id="a236"
     transform="translate(-17.782171,-4.5566)">
    <path
       transform="matrix(0.004,0,0,-0.004,58.4743,12.0566)"
       d="m 212,138 c 59,0 113,-31 113,-95 0,-71 -52,-120 -99,-148 -34,-21 -73,-33 -113,-33 -59,0 -113,31 -113,95 0,71 53,120 100,148 34,21 72,33 112,33 z"
       id="path234"
       inkscape:connector-curvature="0"
       style="fill:currentColor" />
  </a>
  <rect
     x="40.692127"
     y="7.6712999"
     width="0.1514"
     height="3.3287001"
     ry="0.050000001"
     id="rect238"
     style="fill:currentColor" />
  <path
     d="m 40.034129,8.816 c -0.048,0 -0.084,-0.036 -0.084,-0.084 V 8.18 l -0.316,0.12 v 0.616 c 0,0.048 -0.036,0.084 -0.084,0.084 -0.048,0 -0.084,-0.036 -0.084,-0.084 V 8.364 l -0.088,0.032 c -0.012,0.004 -0.024,0.008 -0.036,0.008 -0.052,0 -0.1,-0.044 -0.1,-0.1 V 8.088 c 0,-0.04 0.024,-0.08 0.064,-0.096 l 0.16,-0.06 v -0.62 l -0.088,0.036 c -0.012,0.004 -0.024,0.004 -0.036,0.004 -0.052,0 -0.1,-0.044 -0.1,-0.1 V 7.036 c 0,-0.04 0.024,-0.076 0.064,-0.092 l 0.16,-0.06 V 6.268 c 0,-0.048 0.036,-0.084 0.084,-0.084 0.048,0 0.084,0.036 0.084,0.084 V 6.82 l 0.316,-0.12 V 6.084 c 0,-0.048 0.036,-0.084 0.084,-0.084 0.048,0 0.084,0.036 0.084,0.084 v 0.552 l 0.088,-0.032 c 0.012,-0.004 0.024,-0.008 0.036,-0.008 0.052,0 0.1,0.044 0.1,0.1 v 0.216 c 0,0.04 -0.024,0.08 -0.064,0.096 l -0.16,0.06 v 0.62 l 0.088,-0.036 c 0.012,-0.004 0.024,-0.004 0.036,-0.004 0.052,0 0.1,0.044 0.1,0.1 v 0.216 c 0,0.04 -0.024,0.076 -0.064,0.092 l -0.16,0.06 v 0.616 c 0,0.048 -0.036,0.084 -0.084,0.084 z m -0.4,-1.564 v 0.616 l 0.316,-0.12 V 7.132 Z"
     id="path240"
     inkscape:connector-curvature="0"
     style="fill:currentColor;stroke-width:0.004" />
  <a
     style="color:inherit"
     xlink:href="textedit://C:/Users/tikeda/Documents/git/LotusRoot/sco.txt:4:12:13"
     id="a244"
     transform="translate(-17.782171,-4.5566)">
    <path
       transform="matrix(0.004,0,0,-0.004,61.8251,11.5566)"
       d="m 212,138 c 59,0 113,-31 113,-95 0,-71 -52,-120 -99,-148 -34,-21 -73,-33 -113,-33 -59,0 -113,31 -113,95 0,71 53,120 100,148 34,21 72,33 112,33 z"
       id="path242"
       inkscape:connector-curvature="0"
       style="fill:currentColor" />
  </a>
  <rect
     x="44.042931"
     y="7.1712999"
     width="0.1514"
     height="3.3287001"
     ry="0.050000001"
     id="rect246"
     style="fill:currentColor" />
  <a
     style="color:inherit"
     xlink:href="textedit://C:/Users/tikeda/Documents/git/LotusRoot/sco.txt:3:10:11"
     id="a250"
     transform="translate(-17.782171,-4.5566)">
    <path
       transform="matrix(0.004,0,0,-0.004,47.3531,13.0566)"
       d="m 212,138 c 59,0 113,-31 113,-95 0,-71 -52,-120 -99,-148 -34,-21 -73,-33 -113,-33 -59,0 -113,31 -113,95 0,71 53,120 100,148 34,21 72,33 112,33 z"
       id="path248"
       inkscape:connector-curvature="0"
       style="fill:currentColor" />
  </a>
  <a
     style="color:inherit"
     xlink:href="textedit://C:/Users/tikeda/Documents/git/LotusRoot/sco.txt:3:14:15"
     id="a254"
     transform="translate(-17.782171,-4.5566)">
    <path
       transform="matrix(0.004,0,0,-0.004,50.7039,13.0566)"
       d="m 212,138 c 59,0 113,-31 113,-95 0,-71 -52,-120 -99,-148 -34,-21 -73,-33 -113,-33 -59,0 -113,31 -113,95 0,71 53,120 100,148 34,21 72,33 112,33 z"
       id="path252"
       inkscape:connector-curvature="0"
       style="fill:currentColor" />
  </a>
  <rect
     x="34.071228"
     y="5"
     width="0.1514"
     height="3.3287001"
     ry="0.050000001"
     id="rect256"
     style="fill:currentColor" />
  <rect
     x="30.720428"
     y="5"
     width="0.1514"
     height="3.3287001"
     ry="0.050000001"
     id="rect258"
     style="fill:currentColor" />
  <rect
     x="27.721529"
     y="5.5"
     width="0.1514"
     height="3.3287001"
     ry="0.050000001"
     id="rect260"
     style="fill:currentColor" />
  <text
     font-size="2.1999"
     id="text264"
     style="font-size:2.19989991px;font-family:serif;text-anchor:start;fill:currentColor"
     x="56.90633"
     y="202.43719">
    <tspan
       id="tspan262" />
  </text>
</svg>
