<?xml version="1.0" encoding="UTF-8" standalone="no"?>
<svg
   xmlns:dc="http://purl.org/dc/elements/1.1/"
   xmlns:cc="http://creativecommons.org/ns#"
   xmlns:rdf="http://www.w3.org/1999/02/22-rdf-syntax-ns#"
   xmlns:svg="http://www.w3.org/2000/svg"
   xmlns="http://www.w3.org/2000/svg"
   xmlns:sodipodi="http://sodipodi.sourceforge.net/DTD/sodipodi-0.dtd"
   xmlns:inkscape="http://www.inkscape.org/namespaces/inkscape"
   version="1.2"
   width="454.5603"
   height="57.544197"
   viewBox="0 0 91.253001 11.551997"
   id="svg2"
   inkscape:version="0.48.2 r9819"
   sodipodi:docname="test.svg">
  <metadata
     id="metadata222">
    <rdf:RDF>
      <cc:Work
         rdf:about="">
        <dc:format>image/svg+xml</dc:format>
        <dc:type
           rdf:resource="http://purl.org/dc/dcmitype/StillImage" />
      </cc:Work>
    </rdf:RDF>
  </metadata>
  <defs
     id="defs220" />
  <sodipodi:namedview
     pagecolor="#ffffff"
     bordercolor="#666666"
     borderopacity="1"
     objecttolerance="10"
     gridtolerance="10"
     guidetolerance="10"
     inkscape:pageopacity="0"
     inkscape:pageshadow="2"
     inkscape:window-width="769"
     inkscape:window-height="480"
     id="namedview218"
     showgrid="false"
     fit-margin-top="0"
     fit-margin-left="0"
     fit-margin-right="0"
     fit-margin-bottom="0"
     inkscape:zoom="0.22425739"
     inkscape:cx="283.46445"
     inkscape:cy="-445.93888"
     inkscape:window-x="0"
     inkscape:window-y="0"
     inkscape:window-maximized="0"
     inkscape:current-layer="svg2" />
  <!-- Page: 1/1 -->
  <text
     font-size="2.1999"
     id="text4"
     style="font-size:2.19989991px;text-anchor:start;fill:currentColor;font-family:serif"
     x="-10.6698"
     y="-1.0000272">
    <tspan
       id="tspan6" />
  </text>
  <rect
     x="21.3011"
     y="5.9999728"
     width="0.2212"
     height="4"
     ry="0"
     id="rect8"
     style="fill:currentColor" />
  <rect
     x="49.802101"
     y="5.9999728"
     width="0.2212"
     height="4"
     ry="0"
     id="rect10"
     style="fill:currentColor" />
  <rect
     x="36.086201"
     y="5.9999728"
     width="0.2212"
     height="4"
     ry="0"
     id="rect12"
     style="fill:currentColor" />
  <rect
     x="77.591599"
     y="5.9999728"
     width="0.2212"
     height="4"
     ry="0"
     id="rect14"
     style="fill:currentColor" />
  <rect
     x="64.1185"
     y="5.9999728"
     width="0.2212"
     height="4"
     ry="0"
     id="rect16"
     style="fill:currentColor" />
  <rect
     x="91.0317"
     y="5.9999728"
     width="0.2212"
     height="4"
     ry="0"
     id="rect18"
     style="fill:currentColor" />
  <rect
     x="88.000702"
     y="1.8917729"
     width="1.9962"
     height="0.2164"
     ry="0.1082"
     id="rect20"
     style="fill:currentColor" />
  <rect
     x="87.655403"
     y="2.8917727"
     width="2.3415"
     height="0.2164"
     ry="0.1082"
     id="rect22"
     style="fill:currentColor" />
  <rect
     x="87.655403"
     y="3.8917727"
     width="2.3415"
     height="0.2164"
     ry="0.1082"
     id="rect24"
     style="fill:currentColor" />
  <rect
     x="87.655403"
     y="4.8917727"
     width="2.3415"
     height="0.2164"
     ry="0.1082"
     id="rect26"
     style="fill:currentColor" />
  <rect
     x="84.304497"
     y="1.8917729"
     width="2.3415"
     height="0.2164"
     ry="0.1082"
     id="rect28"
     style="fill:currentColor" />
  <rect
     x="84.304497"
     y="2.8917727"
     width="2.3415"
     height="0.2164"
     ry="0.1082"
     id="rect30"
     style="fill:currentColor" />
  <rect
     x="84.304497"
     y="3.8917727"
     width="2.3415"
     height="0.2164"
     ry="0.1082"
     id="rect32"
     style="fill:currentColor" />
  <rect
     x="84.304497"
     y="4.8917727"
     width="2.3415"
     height="0.2164"
     ry="0.1082"
     id="rect34"
     style="fill:currentColor" />
  <rect
     x="81.305702"
     y="1.8917729"
     width="2.3415"
     height="0.2164"
     ry="0.1082"
     id="rect36"
     style="fill:currentColor" />
  <rect
     x="81.305702"
     y="2.8917727"
     width="2.3415"
     height="0.2164"
     ry="0.1082"
     id="rect38"
     style="fill:currentColor" />
  <rect
     x="81.305702"
     y="3.8917727"
     width="2.3415"
     height="0.2164"
     ry="0.1082"
     id="rect40"
     style="fill:currentColor" />
  <rect
     x="81.305702"
     y="4.8917727"
     width="2.3415"
     height="0.2164"
     ry="0.1082"
     id="rect42"
     style="fill:currentColor" />
  <rect
     x="78.6521"
     y="2.8917727"
     width="1.9962"
     height="0.2164"
     ry="0.1082"
     id="rect44"
     style="fill:currentColor" />
  <rect
     x="78.306801"
     y="3.8917727"
     width="2.3415"
     height="0.2164"
     ry="0.1082"
     id="rect46"
     style="fill:currentColor" />
  <rect
     x="78.306801"
     y="4.8917727"
     width="2.3415"
     height="0.2164"
     ry="0.1082"
     id="rect48"
     style="fill:currentColor" />
  <rect
     x="74.5439"
     y="2.8917727"
     width="2.0128"
     height="0.2164"
     ry="0.1082"
     id="rect50"
     style="fill:currentColor" />
  <rect
     x="74.215302"
     y="3.8917727"
     width="2.3415"
     height="0.2164"
     ry="0.1082"
     id="rect52"
     style="fill:currentColor" />
  <rect
     x="74.215302"
     y="4.8917727"
     width="2.3415"
     height="0.2164"
     ry="0.1082"
     id="rect54"
     style="fill:currentColor" />
  <rect
     x="71.561699"
     y="2.8917727"
     width="1.9962"
     height="0.2164"
     ry="0.1082"
     id="rect56"
     style="fill:currentColor" />
  <rect
     x="71.2164"
     y="3.8917727"
     width="2.3415"
     height="0.2164"
     ry="0.1082"
     id="rect58"
     style="fill:currentColor" />
  <rect
     x="71.2164"
     y="4.8917727"
     width="2.3415"
     height="0.2164"
     ry="0.1082"
     id="rect60"
     style="fill:currentColor" />
  <rect
     x="68.370399"
     y="3.8917727"
     width="1.9962"
     height="0.2164"
     ry="0.1082"
     id="rect62"
     style="fill:currentColor" />
  <rect
     x="68.025002"
     y="4.8917727"
     width="2.3415"
     height="0.2164"
     ry="0.1082"
     id="rect64"
     style="fill:currentColor" />
  <rect
     x="64.833702"
     y="3.8917727"
     width="2.3415"
     height="0.2164"
     ry="0.1082"
     id="rect66"
     style="fill:currentColor" />
  <rect
     x="64.833702"
     y="4.8917727"
     width="2.3415"
     height="0.2164"
     ry="0.1082"
     id="rect68"
     style="fill:currentColor" />
  <rect
     x="61.087502"
     y="4.8917727"
     width="1.9962"
     height="0.2164"
     ry="0.1082"
     id="rect70"
     style="fill:currentColor" />
  <rect
     x="57.550797"
     y="4.8917727"
     width="2.3415"
     height="0.2164"
     ry="0.1082"
     id="rect72"
     style="fill:currentColor" />
  <rect
     x="8.1625004"
     y="10.891773"
     width="2.3415"
     height="0.2164"
     ry="0.1082"
     id="rect74"
     style="fill:currentColor" />
  <line
     x1="0.058200002"
     y1="9.9999733"
     x2="91.194801"
     y2="9.9999733"
     id="line76"
     style="stroke:currentColor;stroke-width:0.1164;stroke-linecap:round;stroke-linejoin:round" />
  <line
     x1="0.058200002"
     y1="8.9999733"
     x2="91.194801"
     y2="8.9999733"
     id="line78"
     style="stroke:currentColor;stroke-width:0.1164;stroke-linecap:round;stroke-linejoin:round" />
  <line
     x1="0.058200002"
     y1="7.9999728"
     x2="91.194801"
     y2="7.9999728"
     id="line80"
     style="stroke:currentColor;stroke-width:0.1164;stroke-linecap:round;stroke-linejoin:round" />
  <line
     x1="0.058200002"
     y1="6.9999728"
     x2="91.194801"
     y2="6.9999728"
     id="line82"
     style="stroke:currentColor;stroke-width:0.1164;stroke-linecap:round;stroke-linejoin:round" />
  <line
     x1="0.058200002"
     y1="5.9999728"
     x2="91.194801"
     y2="5.9999728"
     id="line84"
     style="stroke:currentColor;stroke-width:0.1164;stroke-linecap:round;stroke-linejoin:round" />
  <path
     d="m 58.9191,4.4479728 c 0.236,0 0.452,0.124 0.452,0.38 0,0.284 -0.208,0.48 -0.396,0.592 -0.136,0.084 -0.292,0.132 -0.452,0.132 -0.236,0 -0.452,-0.124 -0.452,-0.38 0,-0.284 0.212,-0.48 0.4,-0.592 0.136,-0.084 0.288,-0.132 0.448,-0.132 z"
     id="path86"
     inkscape:connector-curvature="0"
     style="fill:currentColor" />
  <rect
     x="58.071098"
     y="5.1712728"
     width="0.1514"
     height="3.3287001"
     ry="0.050000001"
     id="rect88"
     style="fill:currentColor" />
  <path
     d="m 62.1105,3.9479728 c 0.236,0 0.452,0.124 0.452,0.38 0,0.284 -0.208,0.48 -0.396,0.592 -0.136,0.084 -0.292,0.132 -0.452,0.132 -0.236,0 -0.452,-0.124 -0.452,-0.38 0,-0.284 0.212,-0.48 0.4,-0.592 0.136,-0.084 0.288,-0.132 0.448,-0.132 z"
     id="path90"
     inkscape:connector-curvature="0"
     style="fill:currentColor" />
  <rect
     x="61.262402"
     y="4.6712728"
     width="0.1514"
     height="3.3287001"
     ry="0.050000001"
     id="rect92"
     style="fill:currentColor" />
  <path
     d="m 60.2365,4.3519728 -0.008,0.248 v 0.044 c 0,0.088 0.008,0.172 0.02,0.256 0.172,-0.152 0.356,-0.32 0.356,-0.548 0,-0.128 -0.056,-0.26 -0.168,-0.26 -0.124,0 -0.196,0.128 -0.2,0.26 z m -0.188,0.708 -0.056,-2.36 c 0.036,-0.02 0.08,-0.032 0.12,-0.032 0.04,0 0.084,0.012 0.12,0.032 l -0.032,1.36 c 0.1,-0.096 0.236,-0.152 0.376,-0.152 0.2,0 0.336,0.2 0.336,0.416 0,0.312 -0.332,0.468 -0.564,0.676 -0.068,0.06 -0.1,0.176 -0.196,0.176 -0.06,0 -0.104,-0.052 -0.104,-0.116 z"
     id="path94"
     inkscape:connector-curvature="0"
     style="fill:currentColor" />
  <path
     d="m 66.202,3.4479728 c 0.236,0 0.452,0.124 0.452,0.38 0,0.284 -0.208,0.48 -0.396,0.592 -0.136,0.084 -0.292,0.132 -0.452,0.132 -0.236,0 -0.452,-0.124 -0.452,-0.38 0,-0.284 0.212,-0.48 0.4,-0.592 0.136,-0.084 0.288,-0.132 0.448,-0.132 z"
     id="path96"
     inkscape:connector-curvature="0"
     style="fill:currentColor" />
  <rect
     x="65.353996"
     y="4.1712728"
     width="0.1514"
     height="3.8287001"
     ry="0.050000001"
     id="rect98"
     style="fill:currentColor" />
  <path
     d="m 43.3841,8.3159728 c -0.048,0 -0.084,-0.036 -0.084,-0.084 v -0.552 l -0.316,0.12 v 0.616 c 0,0.048 -0.036,0.084 -0.084,0.084 -0.048,0 -0.084,-0.036 -0.084,-0.084 v -0.552 l -0.088,0.032 c -0.012,0.004 -0.024,0.008 -0.036,0.008 -0.052,0 -0.1,-0.044 -0.1,-0.1 v -0.216 c 0,-0.04 0.024,-0.08 0.064,-0.096 l 0.16,-0.06 v -0.62 l -0.088,0.036 c -0.012,0.004 -0.024,0.004 -0.036,0.004 -0.052,0 -0.1,-0.044 -0.1,-0.1 v -0.216 c 0,-0.04 0.024,-0.076 0.064,-0.092 l 0.16,-0.06 v -0.616 c 0,-0.048 0.036,-0.084 0.084,-0.084 0.048,0 0.084,0.036 0.084,0.084 v 0.552 l 0.316,-0.12 v -0.616 c 0,-0.048 0.036,-0.084 0.084,-0.084 0.048,0 0.084,0.036 0.084,0.084 v 0.552 l 0.088,-0.032 c 0.012,-0.004 0.024,-0.008 0.036,-0.008 0.052,0 0.1,0.044 0.1,0.1 v 0.216 c 0,0.04 -0.024,0.08 -0.064,0.096 l -0.16,0.06 v 0.62 l 0.088,-0.036 c 0.012,-0.004 0.024,-0.004 0.036,-0.004 0.052,0 0.1,0.044 0.1,0.1 v 0.216 c 0,0.04 -0.024,0.076 -0.064,0.092 l -0.16,0.06 v 0.616 c 0,0.048 -0.036,0.084 -0.084,0.084 z m -0.4,-1.564 v 0.616 l 0.316,-0.12 v -0.616 z"
     id="path100"
     inkscape:connector-curvature="0"
     style="fill:currentColor" />
  <path
     d="m 47.889,5.9479728 c 0.236,0 0.452,0.124 0.452,0.38 0,0.284 -0.208,0.48 -0.396,0.592 -0.136,0.084 -0.292,0.132 -0.452,0.132 -0.236,0 -0.452,-0.124 -0.452,-0.38 0,-0.284 0.212,-0.48 0.4,-0.592 0.136,-0.084 0.288,-0.132 0.448,-0.132 z"
     id="path102"
     inkscape:connector-curvature="0"
     style="fill:currentColor" />
  <rect
     x="47.041"
     y="6.6712728"
     width="0.1514"
     height="3.3287001"
     ry="0.050000001"
     id="rect104"
     style="fill:currentColor" />
  <path
     d="m 52.9213,5.4479728 c 0.236,0 0.452,0.124 0.452,0.38 0,0.284 -0.208,0.48 -0.396,0.592 -0.136,0.084 -0.292,0.132 -0.452,0.132 -0.236,0 -0.452,-0.124 -0.452,-0.38 0,-0.284 0.212,-0.48 0.4,-0.592 0.136,-0.084 0.288,-0.132 0.448,-0.132 z"
     id="path106"
     inkscape:connector-curvature="0"
     style="fill:currentColor" />
  <rect
     x="52.073299"
     y="6.1712728"
     width="0.1514"
     height="3.3287001"
     ry="0.050000001"
     id="rect108"
     style="fill:currentColor" />
  <rect
     x="55.072201"
     y="5.6712728"
     width="0.1514"
     height="3.3287001"
     ry="0.050000001"
     id="rect110"
     style="fill:currentColor" />
  <path
     d="m 51.4153,7.3159728 c -0.048,0 -0.084,-0.036 -0.084,-0.084 v -0.552 l -0.316,0.12 v 0.616 c 0,0.048 -0.036,0.084 -0.084,0.084 -0.048,0 -0.084,-0.036 -0.084,-0.084 v -0.552 l -0.088,0.032 c -0.012,0.004 -0.024,0.008 -0.036,0.008 -0.052,0 -0.1,-0.044 -0.1,-0.1 v -0.216 c 0,-0.04 0.024,-0.08 0.064,-0.096 l 0.16,-0.06 v -0.62 l -0.088,0.036 c -0.012,0.004 -0.024,0.004 -0.036,0.004 -0.052,0 -0.1,-0.044 -0.1,-0.1 v -0.216 c 0,-0.04 0.024,-0.076 0.064,-0.092 l 0.16,-0.06 v -0.616 c 0,-0.048 0.036,-0.084 0.084,-0.084 0.048,0 0.084,0.036 0.084,0.084 v 0.552 l 0.316,-0.12 v -0.616 c 0,-0.048 0.036,-0.084 0.084,-0.084 0.048,0 0.084,0.036 0.084,0.084 v 0.552 l 0.088,-0.032 c 0.012,-0.004 0.024,-0.008 0.036,-0.008 0.052,0 0.1,0.044 0.1,0.1 v 0.216 c 0,0.04 -0.024,0.08 -0.064,0.096 l -0.16,0.06 v 0.62 l 0.088,-0.036 c 0.012,-0.004 0.024,-0.004 0.036,-0.004 0.052,0 0.1,0.044 0.1,0.1 v 0.216 c 0,0.04 -0.024,0.076 -0.064,0.092 l -0.16,0.06 v 0.616 c 0,0.048 -0.036,0.084 -0.084,0.084 z m -0.4,-1.564 v 0.616 l 0.316,-0.12 v -0.616 z"
     id="path112"
     inkscape:connector-curvature="0"
     style="fill:currentColor" />
  <path
     d="m 55.9202,4.9479728 c 0.236,0 0.452,0.124 0.452,0.38 0,0.284 -0.208,0.48 -0.396,0.592 -0.136,0.084 -0.292,0.132 -0.452,0.132 -0.236,0 -0.452,-0.124 -0.452,-0.38 0,-0.284 0.212,-0.48 0.4,-0.592 0.136,-0.084 0.288,-0.132 0.448,-0.132 z"
     id="path114"
     inkscape:connector-curvature="0"
     style="fill:currentColor" />
  <rect
     x="81.825996"
     y="2.1712728"
     width="0.1514"
     height="5.8287001"
     ry="0.050000001"
     id="rect116"
     style="fill:currentColor" />
  <path
     d="m 78.1691,3.8159728 c -0.048,0 -0.084,-0.036 -0.084,-0.084 v -0.552 l -0.316,0.12 v 0.616 c 0,0.048 -0.036,0.084 -0.084,0.084 -0.048,0 -0.084,-0.036 -0.084,-0.084 v -0.552 l -0.088,0.032 c -0.012,0.004 -0.024,0.008 -0.036,0.008 -0.052,0 -0.1,-0.044 -0.1,-0.1 v -0.216 c 0,-0.04 0.024,-0.08 0.064,-0.096 l 0.16,-0.06 v -0.62 l -0.088,0.036 c -0.012,0.004 -0.024,0.004 -0.036,0.004 -0.052,0 -0.1,-0.044 -0.1,-0.1 v -0.216 c 0,-0.04 0.024,-0.076 0.064,-0.092 l 0.16,-0.06 v -0.616 c 0,-0.048 0.036,-0.084 0.084,-0.084 0.048,0 0.084,0.036 0.084,0.084 v 0.552 l 0.316,-0.12 v -0.616 c 0,-0.048 0.036,-0.084 0.084,-0.084 0.048,0 0.084,0.036 0.084,0.084 v 0.552 l 0.088,-0.032 c 0.012,-0.004 0.024,-0.008 0.036,-0.008 0.052,0 0.1,0.044 0.1,0.1 v 0.216 c 0,0.04 -0.024,0.08 -0.064,0.096 l -0.16,0.06 v 0.62 l 0.088,-0.036 c 0.012,-0.004 0.024,-0.004 0.036,-0.004 0.052,0 0.1,0.044 0.1,0.1 v 0.216 c 0,0.04 -0.024,0.076 -0.064,0.092 l -0.16,0.06 v 0.616 c 0,0.048 -0.036,0.084 -0.084,0.084 z m -0.4,-1.564 v 0.616 l 0.316,-0.12 v -0.616 z"
     id="path118"
     inkscape:connector-curvature="0"
     style="fill:currentColor" />
  <path
     d="m 82.674,1.4479728 c 0.236,0 0.452,0.124 0.452,0.38 0,0.284 -0.208,0.48 -0.396,0.592 -0.136,0.084 -0.292,0.132 -0.452,0.132 -0.236,0 -0.452,-0.124 -0.452,-0.38 0,-0.284 0.212,-0.48 0.4,-0.592 0.136,-0.084 0.288,-0.132 0.448,-0.132 z"
     id="path120"
     inkscape:connector-curvature="0"
     style="fill:currentColor" />
  <path
     d="m 85.6729,0.94797283 c 0.236,0 0.452,0.12399997 0.452,0.37999997 0,0.284 -0.208,0.48 -0.396,0.592 -0.136,0.084 -0.292,0.132 -0.452,0.132 -0.236,0 -0.452,-0.124 -0.452,-0.38 0,-0.284 0.212,-0.48 0.4,-0.592 0.136,-0.084 0.288,-0.13199997 0.448,-0.13199997 z"
     id="path122"
     inkscape:connector-curvature="0"
     style="fill:currentColor" />
  <rect
     x="84.824898"
     y="1.6712728"
     width="0.1514"
     height="6.3287001"
     ry="0.050000001"
     id="rect124"
     style="fill:currentColor" />
  <path
     d="m 89.0237,0.94797283 c 0.236,0 0.452,0.12399997 0.452,0.37999997 0,0.284 -0.208,0.48 -0.396,0.592 -0.136,0.084 -0.292,0.132 -0.452,0.132 -0.236,0 -0.452,-0.124 -0.452,-0.38 0,-0.284 0.212,-0.48 0.4,-0.592 0.136,-0.084 0.288,-0.13199997 0.448,-0.13199997 z"
     id="path126"
     inkscape:connector-curvature="0"
     style="fill:currentColor" />
  <rect
     x="88.175697"
     y="1.6712728"
     width="0.1514"
     height="6.3287001"
     ry="0.050000001"
     id="rect128"
     style="fill:currentColor" />
  <path
     d="m 87.5177,2.8159728 c -0.048,0 -0.084,-0.036 -0.084,-0.084 v -0.552 l -0.316,0.12 v 0.616 c 0,0.048 -0.036,0.084 -0.084,0.084 -0.048,0 -0.084,-0.036 -0.084,-0.084 v -0.552 l -0.088,0.032 c -0.012,0.004 -0.024,0.008 -0.036,0.008 -0.052,0 -0.1,-0.044 -0.1,-0.1 v -0.216 c 0,-0.04 0.024,-0.08 0.064,-0.096 l 0.16,-0.06 v -0.62 l -0.088,0.036 c -0.012,0.004 -0.024,0.004 -0.036,0.004 -0.052,0 -0.1,-0.044 -0.1,-0.1 v -0.216 c 0,-0.04 0.024,-0.076 0.064,-0.092 l 0.16,-0.06 v -0.616 c 0,-0.048 0.036,-0.084 0.084,-0.084 0.048,0 0.084,0.036 0.084,0.084 v 0.552 l 0.316,-0.12 v -0.616 c 0,-0.048 0.036,-0.08400000111 0.084,-0.08400000111 0.048,0 0.084,0.03600000111 0.084,0.08400000111 v 0.552 l 0.088,-0.032 c 0.012,-0.004 0.024,-0.008 0.036,-0.008 0.052,0 0.1,0.044 0.1,0.1 v 0.216 c 0,0.04 -0.024,0.08 -0.064,0.096 l -0.16,0.06 v 0.62 l 0.088,-0.036 c 0.012,-0.004 0.024,-0.004 0.036,-0.004 0.052,0 0.1,0.044 0.1,0.1 v 0.216 c 0,0.04 -0.024,0.076 -0.064,0.092 l -0.16,0.06 v 0.616 c 0,0.048 -0.036,0.084 -0.084,0.084 z m -0.4,-1.564 v 0.616 l 0.316,-0.12 v -0.616 z"
     id="path130"
     inkscape:connector-curvature="0"
     style="fill:currentColor" />
  <path
     d="m 69.3933,2.9479728 c 0.236,0 0.452,0.124 0.452,0.38 0,0.284 -0.208,0.48 -0.396,0.592 -0.136,0.084 -0.292,0.132 -0.452,0.132 -0.236,0 -0.452,-0.124 -0.452,-0.38 0,-0.284 0.212,-0.48 0.4,-0.592 0.136,-0.084 0.288,-0.132 0.448,-0.132 z"
     id="path132"
     inkscape:connector-curvature="0"
     style="fill:currentColor" />
  <rect
     x="68.545303"
     y="3.6712728"
     width="0.1514"
     height="4.3287001"
     ry="0.050000001"
     id="rect134"
     style="fill:currentColor" />
  <path
     d="m 67.5193,3.3519728 -0.008,0.248 v 0.044 c 0,0.088 0.008,0.172 0.02,0.256 0.172,-0.152 0.356,-0.32 0.356,-0.548 0,-0.128 -0.056,-0.26 -0.168,-0.26 -0.124,0 -0.196,0.128 -0.2,0.26 z m -0.188,0.708 -0.056,-2.36 c 0.036,-0.02 0.08,-0.032 0.12,-0.032 0.04,0 0.084,0.012 0.12,0.032 l -0.032,1.36 c 0.1,-0.096 0.236,-0.152 0.376,-0.152 0.2,0 0.336,0.2 0.336,0.416 0,0.312 -0.332,0.468 -0.564,0.676 -0.068,0.06 -0.1,0.176 -0.196,0.176 -0.06,0 -0.104,-0.052 -0.104,-0.116 z"
     id="path136"
     inkscape:connector-curvature="0"
     style="fill:currentColor" />
  <path
     d="m 72.5847,2.4479728 c 0.236,0 0.452,0.124 0.452,0.38 0,0.284 -0.208,0.48 -0.396,0.592 -0.136,0.084 -0.292,0.132 -0.452,0.132 -0.236,0 -0.452,-0.124 -0.452,-0.38 0,-0.284 0.212,-0.48 0.4,-0.592 0.136,-0.084 0.288,-0.132 0.448,-0.132 z"
     id="path138"
     inkscape:connector-curvature="0"
     style="fill:currentColor" />
  <rect
     x="71.736702"
     y="3.1712728"
     width="0.1514"
     height="4.8287001"
     ry="0.050000001"
     id="rect140"
     style="fill:currentColor" />
  <path
     d="m 70.7107,2.8519728 -0.008,0.248 v 0.044 c 0,0.088 0.008,0.172 0.02,0.256 0.172,-0.152 0.356,-0.32 0.356,-0.548 0,-0.128 -0.056,-0.26 -0.168,-0.26 -0.124,0 -0.196,0.128 -0.2,0.26 z m -0.188,0.708 -0.056,-2.36 c 0.036,-0.02 0.08,-0.032 0.12,-0.032 0.04,0 0.084,0.012 0.12,0.032 l -0.032,1.36 c 0.1,-0.096 0.236,-0.152 0.376,-0.152 0.2,0 0.336,0.2 0.336,0.416 0,0.312 -0.332,0.468 -0.564,0.676 -0.068,0.06 -0.1,0.176 -0.196,0.176 -0.06,0 -0.104,-0.052 -0.104,-0.116 z"
     id="path142"
     inkscape:connector-curvature="0"
     style="fill:currentColor" />
  <path
     d="m 75.5836,2.4479728 c 0.236,0 0.452,0.124 0.452,0.38 0,0.284 -0.208,0.48 -0.396,0.592 -0.136,0.084 -0.292,0.132 -0.452,0.132 -0.236,0 -0.452,-0.124 -0.452,-0.38 0,-0.284 0.212,-0.48 0.4,-0.592 0.136,-0.084 0.288,-0.132 0.448,-0.132 z"
     id="path144"
     inkscape:connector-curvature="0"
     style="fill:currentColor" />
  <rect
     x="74.735603"
     y="3.1712728"
     width="0.1514"
     height="4.8287001"
     ry="0.050000001"
     id="rect146"
     style="fill:currentColor" />
  <path
     d="m 73.6536,1.4999728 c 0.032,-0.02 0.072,-0.028 0.108,-0.028 0.036,0 0.072,0.008 0.104,0.028 l -0.012,0.768 0.408,-0.092 h 0.016 c 0.04,0 0.076,0.032 0.076,0.072 l 0.032,2.252 c -0.032,0.02 -0.072,0.028 -0.108,0.028 -0.036,0 -0.072,-0.008 -0.104,-0.028 l 0.008,-0.768 -0.404,0.092 h -0.016 c -0.04,0 -0.076,-0.032 -0.076,-0.072 z m 0.544,1.06 -0.348,0.076 -0.012,0.804 0.352,-0.076 z"
     id="path148"
     inkscape:connector-curvature="0"
     style="fill:currentColor" />
  <path
     d="m 79.6751,1.9479728 c 0.236,0 0.452,0.124 0.452,0.38 0,0.284 -0.208,0.48 -0.396,0.592 -0.136,0.084 -0.292,0.132 -0.452,0.132 -0.236,0 -0.452,-0.124 -0.452,-0.38 0,-0.284 0.212,-0.48 0.4,-0.592 0.136,-0.084 0.288,-0.132 0.448,-0.132 z"
     id="path150"
     inkscape:connector-curvature="0"
     style="fill:currentColor" />
  <rect
     x="78.827103"
     y="2.6712728"
     width="0.1514"
     height="5.3287001"
     ry="0.050000001"
     id="rect152"
     style="fill:currentColor" />
  <path
     d="m 14.0396,9.8519728 -0.008,0.2480002 v 0.044 c 0,0.088 0.008,0.172 0.02,0.256 0.172,-0.152 0.356,-0.32 0.356,-0.5480002 0,-0.128 -0.056,-0.26 -0.168,-0.26 -0.124,0 -0.196,0.128 -0.2,0.26 z m -0.188,0.7080002 -0.056,-2.3600002 c 0.036,-0.02 0.08,-0.032 0.12,-0.032 0.04,0 0.084,0.012 0.12,0.032 l -0.032,1.36 c 0.1,-0.096 0.236,-0.152 0.376,-0.152 0.2,0 0.336,0.2 0.336,0.416 0,0.3120002 -0.332,0.4680002 -0.564,0.6760002 -0.068,0.06 -0.1,0.176 -0.196,0.176 -0.06,0 -0.104,-0.052 -0.104,-0.116 z"
     id="path154"
     inkscape:connector-curvature="0"
     style="fill:currentColor" />
  <path
     d="m 18.9125,9.4479728 c 0.236,0 0.452,0.124 0.452,0.38 0,0.2840002 -0.208,0.4800002 -0.396,0.5920002 -0.136,0.084 -0.292,0.132 -0.452,0.132 -0.236,0 -0.452,-0.124 -0.452,-0.38 0,-0.2840002 0.212,-0.4800002 0.4,-0.5920002 0.136,-0.084 0.288,-0.132 0.448,-0.132 z"
     id="path156"
     inkscape:connector-curvature="0"
     style="fill:currentColor" />
  <rect
     x="19.2139"
     y="6.4999728"
     width="0.1514"
     height="3.3287001"
     ry="0.050000001"
     id="rect158"
     style="fill:currentColor" />
  <path
     d="m 16.9889,8.4999728 c 0.032,-0.02 0.072,-0.028 0.108,-0.028 0.036,0 0.072,0.008 0.104,0.028 l -0.012,0.768 0.408,-0.092 h 0.016 c 0.04,0 0.076,0.032 0.076,0.072 l 0.032,2.2520002 c -0.032,0.02 -0.072,0.028 -0.108,0.028 -0.036,0 -0.072,-0.008 -0.104,-0.028 l 0.008,-0.768 -0.404,0.092 h -0.016 c -0.04,0 -0.076,-0.032 -0.076,-0.072 z m 0.544,1.06 -0.348,0.076 -0.012,0.8040002 0.352,-0.076 z"
     id="path160"
     inkscape:connector-curvature="0"
     style="fill:currentColor" />
  <path
     d="m 24.4203,8.9479728 c 0.236,0 0.452,0.124 0.452,0.38 0,0.284 -0.208,0.48 -0.396,0.592 -0.136,0.084 -0.292,0.1320002 -0.452,0.1320002 -0.236,0 -0.452,-0.1240002 -0.452,-0.3800002 0,-0.284 0.212,-0.48 0.4,-0.592 0.136,-0.084 0.288,-0.132 0.448,-0.132 z"
     id="path162"
     inkscape:connector-curvature="0"
     style="fill:currentColor" />
  <rect
     x="24.7218"
     y="5.9999728"
     width="0.1514"
     height="3.3287001"
     ry="0.050000001"
     id="rect164"
     style="fill:currentColor" />
  <path
     d="m 22.9143,10.815973 c -0.048,0 -0.084,-0.036 -0.084,-0.084 v -0.552 l -0.316,0.12 v 0.616 c 0,0.048 -0.036,0.084 -0.084,0.084 -0.048,0 -0.084,-0.036 -0.084,-0.084 v -0.552 l -0.088,0.032 c -0.012,0.004 -0.024,0.008 -0.036,0.008 -0.052,0 -0.1,-0.044 -0.1,-0.1 v -0.216 c 0,-0.04 0.024,-0.08 0.064,-0.096 l 0.16,-0.06 v -0.62 l -0.088,0.036 c -0.012,0.004 -0.024,0.004 -0.036,0.004 -0.052,0 -0.1,-0.044 -0.1,-0.1 v -0.216 c 0,-0.04 0.024,-0.076 0.064,-0.092 l 0.16,-0.06 v -0.616 c 0,-0.048 0.036,-0.084 0.084,-0.084 0.048,0 0.084,0.036 0.084,0.084 v 0.552 l 0.316,-0.12 v -0.616 c 0,-0.048 0.036,-0.084 0.084,-0.084 0.048,0 0.084,0.036 0.084,0.084 v 0.552 l 0.088,-0.032 c 0.012,-0.004 0.024,-0.008 0.036,-0.008 0.052,0 0.1,0.044 0.1,0.1 v 0.216 c 0,0.04 -0.024,0.08 -0.064,0.096 l -0.16,0.06 v 0.62 l 0.088,-0.036 c 0.012,-0.004 0.024,-0.004 0.036,-0.004 0.052,0 0.1,0.044 0.1,0.1 v 0.216 c 0,0.04 -0.024,0.076 -0.064,0.092 l -0.16,0.06 v 0.616 c 0,0.048 -0.036,0.084 -0.084,0.084 z m -0.4,-1.5640002 v 0.616 l 0.316,-0.12 v -0.616 z"
     id="path166"
     inkscape:connector-curvature="0"
     style="fill:currentColor" />
  <path
     d="m 9.5309,10.447973 c 0.236,0 0.452,0.124 0.452,0.38 0,0.284 -0.208,0.48 -0.396,0.592 -0.136,0.084 -0.292,0.132 -0.452,0.132 -0.236,0 -0.452,-0.124 -0.452,-0.38 0,-0.284 0.212,-0.48 0.4,-0.592 0.136,-0.084 0.288,-0.132 0.448,-0.132 z"
     id="path168"
     inkscape:connector-curvature="0"
     style="fill:currentColor" />
  <path
     d="m 2.316,7.9439728 c 0.012,0 0.028,-0.004 0.04,-0.004 0.628,0 1.032,0.516 1.032,1.052 0,0.308 -0.132,0.62 -0.432,0.844 -0.088,0.064 -0.184,0.116 -0.288,0.148 0.012,0.1320002 0.016,0.2640002 0.016,0.3960002 0,0.084 0,0.164 -0.004,0.248 -0.028,0.484 -0.364,0.916 -0.844,0.916 -0.432,0 -0.784,-0.352 -0.784,-0.788 0,-0.232 0.216,-0.412 0.452,-0.412 0.216,0 0.38,0.188 0.38,0.412 0,0.208 -0.172,0.38 -0.38,0.38 -0.036,0 -0.072,-0.004 -0.108,-0.016 0.1,0.148 0.264,0.244 0.452,0.244 0.38,0 0.624,-0.372 0.648,-0.764 0.004,-0.076 0.008,-0.152 0.008,-0.228 0,-0.116 -0.004,-0.232 -0.012,-0.348 -0.116,0.02 -0.232,0.032 -0.352,0.032 -0.756,0 -1.332,-0.6920002 -1.332,-1.5040002 0,-0.708 0.516,-1.232 0.976,-1.772 -0.08,-0.248 -0.16,-0.496 -0.192,-0.756 -0.028,-0.208 -0.028,-0.42 -0.028,-0.632 0,-0.456 0.216,-0.884 0.588,-1.152 0.016,-0.012 0.032,-0.016 0.048,-0.016 0.02,0 0.036,0.008 0.052,0.02 0.288,0.332 0.54,0.972 0.54,1.424 0,0.568 -0.336,1.02 -0.704,1.456 0.084,0.272 0.16,0.544 0.228,0.82 z m 0.336,1.86 c 0.26,-0.096 0.44,-0.376 0.44,-0.644 0,-0.352 -0.256,-0.7 -0.668,-0.752 0.096,0.456 0.176,0.908 0.228,1.396 z m -1.544,-0.904 c 0,0.532 0.512,0.972 1.044,0.972 0.108,0 0.22,-0.004 0.324,-0.02 -0.052,-0.504 -0.14,-0.976 -0.24,-1.448 -0.316,0.032 -0.496,0.24 -0.496,0.472 0,0.172 0.1,0.352 0.32,0.48 0.02,0.02 0.028,0.044 0.028,0.068 0,0.048 -0.04,0.092 -0.092,0.092 -0.012,0 -0.028,-0.004 -0.04,-0.008 -0.324,-0.172 -0.472,-0.46 -0.472,-0.744 0,-0.356 0.24,-0.708 0.652,-0.8 -0.056,-0.228 -0.12,-0.452 -0.188,-0.676 -0.42,0.488 -0.84,0.972 -0.84,1.612 z m 1.304,-4.052 c -0.396,0.184 -0.644,0.58 -0.644,1.016 0,0.284 0.084,0.52 0.156,0.752 0.312,-0.388 0.568,-0.796 0.568,-1.296 0,-0.204 -0.016,-0.288 -0.08,-0.472 z"
     id="path170"
     inkscape:connector-curvature="0"
     style="fill:currentColor" />
  <path
     d="m 6.424,7.8799728 c -0.192,0 -0.288,-0.16 -0.288,-0.288 0,-0.148 0.104,-0.3 0.28,-0.3 0.012,0 0.024,0.004 0.036,0.004 -0.104,-0.144 -0.268,-0.236 -0.452,-0.236 -0.428,0 -0.452,0.296 -0.452,0.756 0,0.06 0.004,0.12 0.004,0.184 0,0.064 -0.004,0.124 -0.004,0.184 0,0.46 0.024,0.756 0.452,0.756 0.312,0 0.532,-0.28 0.604,-0.596 0.008,-0.032 0.032,-0.044 0.056,-0.044 0.028,0 0.06,0.02 0.06,0.056 0,0.38 -0.412,0.704 -0.72,0.704 -0.272,0 -0.548,-0.08 -0.736,-0.28 -0.196,-0.208 -0.264,-0.496 -0.264,-0.78 0,-0.284 0.068,-0.572 0.264,-0.78 0.188,-0.2 0.464,-0.28 0.736,-0.28 0.344,0 0.624,0.268 0.684,0.612 0.004,0.016 0.004,0.036 0.004,0.052 0,0.152 -0.12,0.276 -0.264,0.276 z"
     id="path172"
     inkscape:connector-curvature="0"
     style="fill:currentColor" />
  <rect
     x="9.8323002"
     y="7.4999728"
     width="0.1514"
     height="3.3287001"
     ry="0.050000001"
     id="rect174"
     style="fill:currentColor" />
  <path
     d="m 12.7222,9.9479728 c 0.236,0 0.452,0.1240002 0.452,0.3800002 0,0.284 -0.208,0.48 -0.396,0.592 -0.136,0.084 -0.292,0.132 -0.452,0.132 -0.236,0 -0.452,-0.124 -0.452,-0.38 0,-0.284 0.212,-0.48 0.4,-0.592 0.136,-0.084 0.288,-0.1320002 0.448,-0.1320002 z"
     id="path176"
     inkscape:connector-curvature="0"
     style="fill:currentColor" />
  <rect
     x="13.0237"
     y="6.9999728"
     width="0.1514"
     height="3.3287001"
     ry="0.050000001"
     id="rect178"
     style="fill:currentColor" />
  <path
     d="m 10.8482,10.351973 -0.008,0.248 v 0.044 c 0,0.088 0.008,0.172 0.02,0.256 0.172,-0.152 0.356,-0.32 0.356,-0.548 0,-0.128 -0.056,-0.26 -0.168,-0.26 -0.124,0 -0.196,0.128 -0.2,0.26 z m -0.188,0.708 -0.056,-2.3600002 c 0.036,-0.02 0.08,-0.032 0.12,-0.032 0.04,0 0.084,0.012 0.12,0.032 l -0.032,1.3600002 c 0.1,-0.096 0.236,-0.1520002 0.376,-0.1520002 0.2,0 0.336,0.2000002 0.336,0.4160002 0,0.312 -0.332,0.468 -0.564,0.676 -0.068,0.06 -0.1,0.176 -0.196,0.176 -0.06,0 -0.104,-0.052 -0.104,-0.116 z"
     id="path180"
     inkscape:connector-curvature="0"
     style="fill:currentColor" />
  <path
     d="m 15.9136,9.4479728 c 0.236,0 0.452,0.124 0.452,0.38 0,0.2840002 -0.208,0.4800002 -0.396,0.5920002 -0.136,0.084 -0.292,0.132 -0.452,0.132 -0.236,0 -0.452,-0.124 -0.452,-0.38 0,-0.2840002 0.212,-0.4800002 0.4,-0.5920002 0.136,-0.084 0.288,-0.132 0.448,-0.132 z"
     id="path182"
     inkscape:connector-curvature="0"
     style="fill:currentColor" />
  <rect
     x="16.215099"
     y="6.4999728"
     width="0.1514"
     height="3.3287001"
     ry="0.050000001"
     id="rect184"
     style="fill:currentColor" />
  <path
     d="m 32.2629,9.8159728 c -0.048,0 -0.084,-0.036 -0.084,-0.084 v -0.552 l -0.316,0.12 v 0.616 c 0,0.048 -0.036,0.084 -0.084,0.084 -0.048,0 -0.084,-0.036 -0.084,-0.084 v -0.552 l -0.088,0.032 c -0.012,0.004 -0.024,0.008 -0.036,0.008 -0.052,0 -0.1,-0.044 -0.1,-0.1 v -0.216 c 0,-0.04 0.024,-0.08 0.064,-0.096 l 0.16,-0.06 v -0.62 l -0.088,0.036 c -0.012,0.004 -0.024,0.004 -0.036,0.004 -0.052,0 -0.1,-0.044 -0.1,-0.1 v -0.216 c 0,-0.04 0.024,-0.076 0.064,-0.092 l 0.16,-0.06 v -0.616 c 0,-0.048 0.036,-0.084 0.084,-0.084 0.048,0 0.084,0.036 0.084,0.084 v 0.552 l 0.316,-0.12 v -0.616 c 0,-0.048 0.036,-0.084 0.084,-0.084 0.048,0 0.084,0.036 0.084,0.084 v 0.552 l 0.088,-0.032 c 0.012,-0.004 0.024,-0.008 0.036,-0.008 0.052,0 0.1,0.044 0.1,0.1 v 0.216 c 0,0.04 -0.024,0.08 -0.064,0.096 l -0.16,0.06 v 0.62 l 0.088,-0.036 c 0.012,-0.004 0.024,-0.004 0.036,-0.004 0.052,0 0.1,0.044 0.1,0.1 v 0.216 c 0,0.04 -0.024,0.076 -0.064,0.092 l -0.16,0.06 v 0.616 c 0,0.048 -0.036,0.084 -0.084,0.084 z m -0.4,-1.564 v 0.616 l 0.316,-0.12 v -0.616 z"
     id="path186"
     inkscape:connector-curvature="0"
     style="fill:currentColor" />
  <path
     d="m 27.4192,8.4479728 c 0.236,0 0.452,0.124 0.452,0.38 0,0.284 -0.208,0.48 -0.396,0.592 -0.136,0.084 -0.292,0.132 -0.452,0.132 -0.236,0 -0.452,-0.124 -0.452,-0.38 0,-0.284 0.212,-0.48 0.4,-0.592 0.136,-0.084 0.288,-0.132 0.448,-0.132 z"
     id="path188"
     inkscape:connector-curvature="0"
     style="fill:currentColor" />
  <rect
     x="37.340401"
     y="7.6712728"
     width="0.1514"
     height="3.3287001"
     ry="0.050000001"
     id="rect190"
     style="fill:currentColor" />
  <path
     d="m 38.1884,6.9479728 c 0.236,0 0.452,0.124 0.452,0.38 0,0.284 -0.208,0.48 -0.396,0.592 -0.136,0.084 -0.292,0.132 -0.452,0.132 -0.236,0 -0.452,-0.124 -0.452,-0.38 0,-0.284 0.212,-0.48 0.4,-0.592 0.136,-0.084 0.288,-0.132 0.448,-0.132 z"
     id="path192"
     inkscape:connector-curvature="0"
     style="fill:currentColor" />
  <path
     d="m 41.5393,6.9479728 c 0.236,0 0.452,0.124 0.452,0.38 0,0.284 -0.208,0.48 -0.396,0.592 -0.136,0.084 -0.292,0.132 -0.452,0.132 -0.236,0 -0.452,-0.124 -0.452,-0.38 0,-0.284 0.212,-0.48 0.4,-0.592 0.136,-0.084 0.288,-0.132 0.448,-0.132 z"
     id="path194"
     inkscape:connector-curvature="0"
     style="fill:currentColor" />
  <rect
     x="40.691299"
     y="7.6712728"
     width="0.1514"
     height="3.3287001"
     ry="0.050000001"
     id="rect196"
     style="fill:currentColor" />
  <path
     d="m 40.0333,8.8159728 c -0.048,0 -0.084,-0.036 -0.084,-0.084 v -0.552 l -0.316,0.12 v 0.616 c 0,0.048 -0.036,0.084 -0.084,0.084 -0.048,0 -0.084,-0.036 -0.084,-0.084 v -0.552 l -0.088,0.032 c -0.012,0.004 -0.024,0.008 -0.036,0.008 -0.052,0 -0.1,-0.044 -0.1,-0.1 v -0.216 c 0,-0.04 0.024,-0.08 0.064,-0.096 l 0.16,-0.06 v -0.62 l -0.088,0.036 c -0.012,0.004 -0.024,0.004 -0.036,0.004 -0.052,0 -0.1,-0.044 -0.1,-0.1 v -0.216 c 0,-0.04 0.024,-0.076 0.064,-0.092 l 0.16,-0.06 v -0.616 c 0,-0.048 0.036,-0.084 0.084,-0.084 0.048,0 0.084,0.036 0.084,0.084 v 0.552 l 0.316,-0.12 v -0.616 c 0,-0.048 0.036,-0.084 0.084,-0.084 0.048,0 0.084,0.036 0.084,0.084 v 0.552 l 0.088,-0.032 c 0.012,-0.004 0.024,-0.008 0.036,-0.008 0.052,0 0.1,0.044 0.1,0.1 v 0.216 c 0,0.04 -0.024,0.08 -0.064,0.096 l -0.16,0.06 v 0.62 l 0.088,-0.036 c 0.012,-0.004 0.024,-0.004 0.036,-0.004 0.052,0 0.1,0.044 0.1,0.1 v 0.216 c 0,0.04 -0.024,0.076 -0.064,0.092 l -0.16,0.06 v 0.616 c 0,0.048 -0.036,0.084 -0.084,0.084 z m -0.4,-1.564 v 0.616 l 0.316,-0.12 v -0.616 z"
     id="path198"
     inkscape:connector-curvature="0"
     style="fill:currentColor" />
  <path
     d="m 44.8901,6.4479728 c 0.236,0 0.452,0.124 0.452,0.38 0,0.284 -0.208,0.48 -0.396,0.592 -0.136,0.084 -0.292,0.132 -0.452,0.132 -0.236,0 -0.452,-0.124 -0.452,-0.38 0,-0.284 0.212,-0.48 0.4,-0.592 0.136,-0.084 0.288,-0.132 0.448,-0.132 z"
     id="path200"
     inkscape:connector-curvature="0"
     style="fill:currentColor" />
  <rect
     x="44.042099"
     y="7.1712728"
     width="0.1514"
     height="3.3287001"
     ry="0.050000001"
     id="rect202"
     style="fill:currentColor" />
  <path
     d="m 30.4181,7.9479728 c 0.236,0 0.452,0.124 0.452,0.38 0,0.284 -0.208,0.48 -0.396,0.592 -0.136,0.084 -0.292,0.132 -0.452,0.132 -0.236,0 -0.452,-0.124 -0.452,-0.38 0,-0.284 0.212,-0.48 0.4,-0.592 0.136,-0.084 0.288,-0.132 0.448,-0.132 z"
     id="path204"
     inkscape:connector-curvature="0"
     style="fill:currentColor" />
  <path
     d="m 33.7689,7.9479728 c 0.236,0 0.452,0.124 0.452,0.38 0,0.284 -0.208,0.48 -0.396,0.592 -0.136,0.084 -0.292,0.132 -0.452,0.132 -0.236,0 -0.452,-0.124 -0.452,-0.38 0,-0.284 0.212,-0.48 0.4,-0.592 0.136,-0.084 0.288,-0.132 0.448,-0.132 z"
     id="path206"
     inkscape:connector-curvature="0"
     style="fill:currentColor" />
  <rect
     x="34.0704"
     y="4.9999728"
     width="0.1514"
     height="3.3287001"
     ry="0.050000001"
     id="rect208"
     style="fill:currentColor" />
  <rect
     x="30.719601"
     y="4.9999728"
     width="0.1514"
     height="3.3287001"
     ry="0.050000001"
     id="rect210"
     style="fill:currentColor" />
  <rect
     x="27.720699"
     y="5.4999728"
     width="0.1514"
     height="3.3287001"
     ry="0.050000001"
     id="rect212"
     style="fill:currentColor" />
  <text
     font-size="2.1999"
     id="text214"
     style="font-size:2.19989991px;text-anchor:start;fill:currentColor;font-family:serif"
     x="56.905499"
     y="202.43718">
    <tspan
       id="tspan216" />
  </text>
</svg>
