<?xml version="1.0" encoding="UTF-8" standalone="no"?>
<svg
   xmlns:dc="http://purl.org/dc/elements/1.1/"
   xmlns:cc="http://creativecommons.org/ns#"
   xmlns:rdf="http://www.w3.org/1999/02/22-rdf-syntax-ns#"
   xmlns:svg="http://www.w3.org/2000/svg"
   xmlns="http://www.w3.org/2000/svg"
   xmlns:xlink="http://www.w3.org/1999/xlink"
   xmlns:sodipodi="http://sodipodi.sourceforge.net/DTD/sodipodi-0.dtd"
   xmlns:inkscape="http://www.inkscape.org/namespaces/inkscape"
   version="1.2"
   width="48.375145mm"
   height="10.290742mm"
   viewBox="0 0 34.410162 7.3199988"
   id="svg90"
   sodipodi:docname="09-0.svg"
   inkscape:version="0.92.1 r15371">
  <metadata
     id="metadata96">
    <rdf:RDF>
      <cc:Work
         rdf:about="">
        <dc:format>image/svg+xml</dc:format>
        <dc:type
           rdf:resource="http://purl.org/dc/dcmitype/StillImage" />
        <dc:title></dc:title>
      </cc:Work>
    </rdf:RDF>
  </metadata>
  <defs
     id="defs94" />
  <sodipodi:namedview
     pagecolor="#ffffff"
     bordercolor="#666666"
     borderopacity="1"
     objecttolerance="10"
     gridtolerance="10"
     guidetolerance="10"
     inkscape:pageopacity="0"
     inkscape:pageshadow="2"
     inkscape:window-width="716"
     inkscape:window-height="480"
     id="namedview92"
     showgrid="false"
     fit-margin-top="0"
     fit-margin-left="0"
     fit-margin-right="0"
     fit-margin-bottom="0"
     inkscape:zoom="0.2102413"
     inkscape:cx="302.36647"
     inkscape:cy="-498.15463"
     inkscape:window-x="0"
     inkscape:window-y="0"
     inkscape:window-maximized="0"
     inkscape:current-layer="svg90" />
  <!-- Page: 1/1 -->
  <text
     font-size="2.1999"
     id="text4"
     style="font-size:2.19989991px;font-family:serif;text-anchor:start;fill:currentColor"
     x="-10.668971"
     y="-1">
    <tspan
       id="tspan2" />
  </text>
  <line
     x1="0.059028916"
     y1="5.776"
     x2="34.351128"
     y2="5.776"
     id="line6"
     style="stroke:currentColor;stroke-width:0.1164;stroke-linecap:round;stroke-linejoin:round" />
  <line
     x1="0.059028916"
     y1="4.776"
     x2="34.351128"
     y2="4.776"
     id="line8"
     style="stroke:currentColor;stroke-width:0.1164;stroke-linecap:round;stroke-linejoin:round" />
  <line
     x1="0.059028916"
     y1="3.776"
     x2="34.351128"
     y2="3.776"
     id="line10"
     style="stroke:currentColor;stroke-width:0.1164;stroke-linecap:round;stroke-linejoin:round" />
  <line
     x1="0.059028916"
     y1="2.776"
     x2="34.351128"
     y2="2.776"
     id="line12"
     style="stroke:currentColor;stroke-width:0.1164;stroke-linecap:round;stroke-linejoin:round" />
  <line
     x1="0.059028916"
     y1="1.776"
     x2="34.351128"
     y2="1.776"
     id="line14"
     style="stroke:currentColor;stroke-width:0.1164;stroke-linecap:round;stroke-linejoin:round" />
  <rect
     x="22.854429"
     y="1.776"
     width="0.2212"
     height="4"
     ry="0.0000"
     id="rect16"
     style="fill:currentColor" />
  <rect
     x="14.708429"
     y="1.776"
     width="0.2212"
     height="4"
     ry="0.0000"
     id="rect18"
     style="fill:currentColor" />
  <rect
     x="34.18803"
     y="1.776"
     width="0.2212"
     height="4"
     ry="0.0000"
     id="rect20"
     style="fill:currentColor" />
  <rect
     x="28.38633"
     y="3.4473"
     width="0.1514"
     height="3.3287001"
     ry="0.050000001"
     id="rect22"
     style="fill:currentColor" />
  <path
     d="m 30.128629,3.276 c 0,-0.12 0.1,-0.22 0.22,-0.22 0.12,0 0.22,0.1 0.22,0.22 0,0.12 -0.1,0.22 -0.22,0.22 -0.12,0 -0.22,-0.1 -0.22,-0.22 z"
     id="path24"
     inkscape:connector-curvature="0"
     style="fill:currentColor;stroke-width:0.004" />
  <a
     style="color:inherit"
     xlink:href="textedit://C:/Users/tikeda/Documents/git/LotusRoot/sco.txt:4:24:25"
     id="a28"
     transform="translate(-17.782171,-4.5566)">
    <path
       transform="matrix(0.004,0,0,-0.004,46.819,5.5424)"
       d="M 0,133 C 74,133 133,74 133,0 133,-74 74,-133 0,-133 c -74,0 -133,59 -133,133 0,74 59,133 133,133 z m 0,-25 c -60,0 -108,-48 -108,-108 0,-60 48,-108 108,-108 60,0 108,48 108,108 0,60 -48,108 -108,108 z"
       id="path26"
       inkscape:connector-curvature="0"
       style="fill:currentColor" />
  </a>
  <a
     style="color:inherit"
     xlink:href="textedit://C:/Users/tikeda/Documents/git/LotusRoot/sco.txt:4:18:19"
     id="a32"
     transform="translate(-17.782171,-4.5566)">
    <path
       transform="matrix(0.004,0,0,-0.004,46.1686,7.8326)"
       d="m 212,138 c 59,0 113,-31 113,-95 0,-71 -52,-120 -99,-148 -34,-21 -73,-33 -113,-33 -59,0 -113,31 -113,95 0,71 53,120 100,148 34,21 72,33 112,33 z"
       id="path30"
       inkscape:connector-curvature="0"
       style="fill:currentColor" />
  </a>
  <a
     style="color:inherit"
     xlink:href="textedit://C:/Users/tikeda/Documents/git/LotusRoot/sco.txt:2:26:27"
     id="a36"
     transform="translate(-17.782171,-4.5566)">
    <path
       transform="translate(26.4659,8.3326)"
       d="m 1.1634,-1.225 c 1.1108,-0.9158 6.6351,-0.9158 7.7459,0 v 0 c -1.1108,-0.7761 -6.6351,-0.7761 -7.7459,0 z"
       id="path34"
       inkscape:connector-curvature="0"
       style="fill:currentColor;stroke:currentColor;stroke-width:0.0931;stroke-linecap:round;stroke-linejoin:round" />
  </a>
  <a
     style="color:inherit"
     xlink:href="textedit://C:/Users/tikeda/Documents/git/LotusRoot/sco.txt:3:16:17"
     id="a40"
     transform="translate(-17.782171,-4.5566)">
    <path
       transform="translate(34.6118,8.3326)"
       d="m 1.1634,-1.1886 c 1.0315,-0.8905 5.5718,-0.8905 6.6033,0 v 0 c -1.0315,-0.7508 -5.5718,-0.7508 -6.6033,0 z"
       id="path38"
       inkscape:connector-curvature="0"
       style="fill:currentColor;stroke:currentColor;stroke-width:0.0931;stroke-linecap:round;stroke-linejoin:round" />
  </a>
  <a
     style="color:inherit"
     xlink:href="textedit://C:/Users/tikeda/Documents/git/LotusRoot/sco.txt:4:16:17"
     id="a44"
     transform="translate(-17.782171,-4.5566)">
    <path
       transform="translate(41.8866,8.3326)"
       d="m 0.8919,-1.225 c 0.765,-0.7758 3.0754,-0.7758 3.8404,0 v 0 c -0.765,-0.6361 -3.0754,-0.6361 -3.8404,0 z"
       id="path42"
       inkscape:connector-curvature="0"
       style="fill:currentColor;stroke:currentColor;stroke-width:0.0931;stroke-linecap:round;stroke-linejoin:round" />
  </a>
  <path
     d="m 32.238629,6.726 h -0.076 v -1 h 0.076 c 0.38,-0.236 0.88,-0.596 0.88,-1.036 0,-0.224 -0.064,-0.444 -0.164,-0.644 -0.012,-0.072 0.048,-0.12 0.104,-0.12 0.032,0 0.068,0.016 0.088,0.052 0.1,0.224 0.16,0.464 0.16,0.712 0,0.812 -1.068,1.224 -1.068,2.036 z"
     id="path46"
     inkscape:connector-curvature="0"
     style="fill:currentColor;stroke-width:0.004" />
  <rect
     x="32.087231"
     y="3.4473"
     width="0.1514"
     height="3.3287001"
     ry="0.050000001"
     id="rect48"
     style="fill:currentColor" />
  <a
     style="color:inherit"
     xlink:href="textedit://C:/Users/tikeda/Documents/git/LotusRoot/sco.txt:4:35:36"
     id="a52"
     transform="translate(-17.782171,-4.5566)">
    <path
       transform="matrix(0.004,0,0,-0.004,49.8694,7.8326)"
       d="m 212,138 c 59,0 113,-31 113,-95 0,-71 -52,-120 -99,-148 -34,-21 -73,-33 -113,-33 -59,0 -113,31 -113,95 0,71 53,120 100,148 34,21 72,33 112,33 z"
       id="path50"
       inkscape:connector-curvature="0"
       style="fill:currentColor" />
  </a>
  <a
     style="color:inherit"
     xlink:href="textedit://C:/Users/tikeda/Documents/git/LotusRoot/sco.txt:3:5:6"
     id="a56"
     transform="translate(-17.782171,-4.5566)">
    <path
       transform="matrix(0.004,0,0,-0.004,35.5752,5.5424)"
       d="M 0,133 C 74,133 133,74 133,0 133,-74 74,-133 0,-133 c -74,0 -133,59 -133,133 0,74 59,133 133,133 z m 0,-25 c -60,0 -108,-48 -108,-108 0,-60 48,-108 108,-108 60,0 108,48 108,108 0,60 -48,108 -108,108 z"
       id="path54"
       inkscape:connector-curvature="0"
       style="fill:currentColor" />
  </a>
  <a
     style="color:inherit"
     xlink:href="textedit://C:/Users/tikeda/Documents/git/LotusRoot/sco.txt:3:0:1"
     id="a60"
     transform="translate(-17.782171,-4.5566)">
    <path
       transform="matrix(0.004,0,0,-0.004,34.6118,7.8326)"
       d="m 210,110 c -49,0 -67,-43 -67,-88 0,-74 56,-132 129,-132 49,0 67,43 67,88 0,74 -56,132 -129,132 z M 482,0 c 0,-43 -33,-76 -71,-98 -51,-30 -111,-40 -170,-40 -59,0 -119,10 -170,40 -38,22 -71,55 -71,98 0,43 33,76 71,98 51,30 111,40 170,40 59,0 119,-10 170,-40 38,-22 71,-55 71,-98 z"
       id="path58"
       inkscape:connector-curvature="0"
       style="fill:currentColor" />
  </a>
  <a
     style="color:inherit"
     xlink:href="textedit://C:/Users/tikeda/Documents/git/LotusRoot/sco.txt:2:0:1"
     id="a64"
     transform="translate(-17.782171,-4.5566)">
    <path
       transform="matrix(0.004,0,0,-0.004,22.783,8.3326)"
       d="m 356,30 c -48,0 -72,40 -72,72 0,37 26,75 70,75 3,0 6,-1 9,-1 -26,36 -67,59 -113,59 -107,0 -113,-74 -113,-189 0,-15 1,-30 1,-46 0,-16 -1,-31 -1,-46 0,-115 6,-189 113,-189 78,0 133,70 151,149 2,8 8,11 14,11 7,0 15,-5 15,-14 0,-95 -103,-176 -180,-176 -68,0 -137,20 -184,70 C 17,-143 0,-71 0,0 c 0,71 17,143 66,195 47,50 116,70 184,70 86,0 156,-67 171,-153 1,-4 1,-9 1,-13 0,-38 -30,-69 -66,-69 z"
       id="path62"
       inkscape:connector-curvature="0"
       style="fill:currentColor" />
  </a>
  <path
     d="m 2.3168289,3.72 c 0.012,0 0.028,-0.004 0.04,-0.004 0.628,0 1.032,0.516 1.032,1.052 0,0.308 -0.132,0.62 -0.432,0.844 -0.088,0.064 -0.184,0.116 -0.288,0.148 0.012,0.132 0.016,0.264 0.016,0.396 0,0.084 0,0.164 -0.004,0.248 -0.028,0.484 -0.364,0.916 -0.844,0.916 -0.432,0 -0.784,-0.352 -0.784,-0.788 0,-0.232 0.216,-0.412 0.452,-0.412 0.216,0 0.38,0.188 0.38,0.412 0,0.208 -0.172,0.38 -0.38,0.38 -0.036,0 -0.072,-0.004 -0.108,-0.016 0.1,0.148 0.264,0.244 0.452,0.244 0.38,0 0.624,-0.372 0.648,-0.764 0.004,-0.076 0.008,-0.152 0.008,-0.228 0,-0.116 -0.004,-0.232 -0.012,-0.348 -0.116,0.02 -0.232,0.032 -0.352,0.032 -0.756,0 -1.33199999,-0.692 -1.33199999,-1.504 0,-0.708 0.51599999,-1.232 0.97599999,-1.772 -0.08,-0.248 -0.16,-0.496 -0.192,-0.756 -0.028,-0.208 -0.028,-0.42 -0.028,-0.632 0,-0.456 0.216,-0.884 0.588,-1.152 0.016,-0.012 0.032,-0.016 0.048,-0.016 0.02,0 0.036,0.008 0.052,0.02 0.288,0.332 0.54,0.972 0.54,1.424 0,0.568 -0.336,1.02 -0.704,1.456 0.084,0.272 0.16,0.544 0.228,0.82 z m 0.336,1.86 c 0.26,-0.096 0.44,-0.376 0.44,-0.644 0,-0.352 -0.256,-0.7 -0.668,-0.752 0.096,0.456 0.176,0.908 0.228,1.396 z m -1.544,-0.904 c 0,0.532 0.512,0.972 1.044,0.972 0.108,0 0.22,-0.004 0.324,-0.02 -0.052,-0.504 -0.14,-0.976 -0.24,-1.448 -0.316,0.032 -0.496,0.24 -0.496,0.472 0,0.172 0.1,0.352 0.32,0.48 0.02,0.02 0.028,0.044 0.028,0.068 0,0.048 -0.04,0.092 -0.092,0.092 -0.012,0 -0.028,-0.004 -0.04,-0.008 -0.324,-0.172 -0.472,-0.46 -0.472,-0.744 0,-0.356 0.24,-0.708 0.652,-0.8 -0.056,-0.228 -0.12,-0.452 -0.188,-0.676 -0.42,0.488 -0.84,0.972 -0.84,1.612 z m 1.304,-4.052 c -0.396,0.184 -0.644,0.58 -0.644,1.016 0,0.284 0.084,0.52 0.156,0.752 0.312,-0.388 0.568,-0.796 0.568,-1.296 0,-0.204 -0.016,-0.288 -0.08,-0.472 z"
     id="path66"
     inkscape:connector-curvature="0"
     style="fill:currentColor;stroke-width:0.004" />
  <a
     style="color:inherit"
     xlink:href="textedit://C:/Users/tikeda/Documents/git/LotusRoot/sco.txt:2:15:16"
     id="a70"
     transform="translate(-17.782171,-4.5566)">
    <path
       transform="matrix(0.004,0,0,-0.004,27.4292,5.5424)"
       d="M 0,133 C 74,133 133,74 133,0 133,-74 74,-133 0,-133 c -74,0 -133,59 -133,133 0,74 59,133 133,133 z m 0,-25 c -60,0 -108,-48 -108,-108 0,-60 48,-108 108,-108 60,0 108,48 108,108 0,60 -48,108 -108,108 z"
       id="path68"
       inkscape:connector-curvature="0"
       style="fill:currentColor" />
  </a>
  <a
     style="color:inherit"
     xlink:href="textedit://C:/Users/tikeda/Documents/git/LotusRoot/sco.txt:2:10:11"
     id="a74"
     transform="translate(-17.782171,-4.5566)">
    <path
       transform="matrix(0.004,0,0,-0.004,26.4659,7.8326)"
       d="m 210,110 c -49,0 -67,-43 -67,-88 0,-74 56,-132 129,-132 49,0 67,43 67,88 0,74 -56,132 -129,132 z M 482,0 c 0,-43 -33,-76 -71,-98 -51,-30 -111,-40 -170,-40 -59,0 -119,10 -170,40 -38,22 -71,55 -71,98 0,43 33,76 71,98 51,30 111,40 170,40 59,0 119,-10 170,-40 38,-22 71,-55 71,-98 z"
       id="path72"
       inkscape:connector-curvature="0"
       style="fill:currentColor" />
  </a>
  <rect
     x="24.104429"
     y="3.5216"
     width="0.1514"
     height="3.2544"
     ry="0.050000001"
     id="rect76"
     style="fill:currentColor" />
  <a
     style="color:inherit"
     xlink:href="textedit://C:/Users/tikeda/Documents/git/LotusRoot/sco.txt:4:5:6"
     id="a80"
     transform="translate(-17.782171,-4.5566)">
    <path
       transform="matrix(0.004,0,0,-0.004,42.5786,5.5424)"
       d="M 0,133 C 74,133 133,74 133,0 133,-74 74,-133 0,-133 c -74,0 -133,59 -133,133 0,74 59,133 133,133 z m 0,-25 c -60,0 -108,-48 -108,-108 0,-60 48,-108 108,-108 60,0 108,48 108,108 0,60 -48,108 -108,108 z"
       id="path78"
       inkscape:connector-curvature="0"
       style="fill:currentColor" />
  </a>
  <a
     style="color:inherit"
     xlink:href="textedit://C:/Users/tikeda/Documents/git/LotusRoot/sco.txt:4:0:1"
     id="a84"
     transform="translate(-17.782171,-4.5566)">
    <path
       transform="matrix(0.004,0,0,-0.004,41.8866,7.8326)"
       d="m 310,63 c 0,23 -19,40 -40,40 -4,0 -8,-1 -12,-2 C 228,93 183,63 147,40 111,17 66,-12 46,-36 39,-44 36,-53 36,-63 c 0,-23 19,-40 40,-40 4,0 8,1 12,2 30,8 75,38 111,61 36,23 81,52 101,76 7,8 10,17 10,27 z m -54,75 c 50,0 90,-22 90,-77 0,-18 -5,-37 -10,-55 -11,-38 -30,-74 -63,-96 -53,-35 -111,-48 -183,-48 -50,0 -90,22 -90,77 0,18 5,37 10,55 11,38 30,74 63,96 53,36 111,48 183,48 z"
       id="path82"
       inkscape:connector-curvature="0"
       style="fill:currentColor" />
  </a>
  <text
     font-size="2.1999"
     id="text88"
     style="font-size:2.19989991px;font-family:serif;text-anchor:start;fill:currentColor"
     x="56.90633"
     y="202.43719">
    <tspan
       id="tspan86" />
  </text>
</svg>
