<?xml version="1.0" encoding="UTF-8" standalone="no"?>
<svg
   xmlns:dc="http://purl.org/dc/elements/1.1/"
   xmlns:cc="http://creativecommons.org/ns#"
   xmlns:rdf="http://www.w3.org/1999/02/22-rdf-syntax-ns#"
   xmlns:svg="http://www.w3.org/2000/svg"
   xmlns="http://www.w3.org/2000/svg"
   xmlns:sodipodi="http://sodipodi.sourceforge.net/DTD/sodipodi-0.dtd"
   xmlns:inkscape="http://www.inkscape.org/namespaces/inkscape"
   version="1.2"
   width="171.39972"
   height="36.463253"
   viewBox="0 0 34.408501 7.3199978"
   id="svg2"
   inkscape:version="0.48.2 r9819"
   sodipodi:docname="test.svg">
  <metadata
     id="metadata70">
    <rdf:RDF>
      <cc:Work
         rdf:about="">
        <dc:format>image/svg+xml</dc:format>
        <dc:type
           rdf:resource="http://purl.org/dc/dcmitype/StillImage" />
      </cc:Work>
    </rdf:RDF>
  </metadata>
  <defs
     id="defs68" />
  <sodipodi:namedview
     pagecolor="#ffffff"
     bordercolor="#666666"
     borderopacity="1"
     objecttolerance="10"
     gridtolerance="10"
     guidetolerance="10"
     inkscape:pageopacity="0"
     inkscape:pageshadow="2"
     inkscape:window-width="769"
     inkscape:window-height="480"
     id="namedview66"
     showgrid="false"
     fit-margin-top="0"
     fit-margin-left="0"
     fit-margin-right="0"
     fit-margin-bottom="0"
     inkscape:zoom="0.22425739"
     inkscape:cx="283.46445"
     inkscape:cy="-467.01982"
     inkscape:window-x="0"
     inkscape:window-y="0"
     inkscape:window-maximized="0"
     inkscape:current-layer="svg2" />
  <!-- Page: 1/1 -->
  <text
     font-size="2.1999"
     id="text4"
     style="font-size:2.19989991px;text-anchor:start;fill:currentColor;font-family:serif"
     x="-10.6698"
     y="-1.0000272">
    <tspan
       id="tspan6" />
  </text>
  <line
     x1="0.058200002"
     y1="5.7759728"
     x2="34.3503"
     y2="5.7759728"
     id="line8"
     style="stroke:currentColor;stroke-width:0.1164;stroke-linecap:round;stroke-linejoin:round" />
  <line
     x1="0.058200002"
     y1="4.7759728"
     x2="34.3503"
     y2="4.7759728"
     id="line10"
     style="stroke:currentColor;stroke-width:0.1164;stroke-linecap:round;stroke-linejoin:round" />
  <line
     x1="0.058200002"
     y1="3.7759728"
     x2="34.3503"
     y2="3.7759728"
     id="line12"
     style="stroke:currentColor;stroke-width:0.1164;stroke-linecap:round;stroke-linejoin:round" />
  <line
     x1="0.058200002"
     y1="2.7759728"
     x2="34.3503"
     y2="2.7759728"
     id="line14"
     style="stroke:currentColor;stroke-width:0.1164;stroke-linecap:round;stroke-linejoin:round" />
  <line
     x1="0.058200002"
     y1="1.7759728"
     x2="34.3503"
     y2="1.7759728"
     id="line16"
     style="stroke:currentColor;stroke-width:0.1164;stroke-linecap:round;stroke-linejoin:round" />
  <rect
     x="22.8536"
     y="1.7759728"
     width="0.2212"
     height="4"
     ry="0"
     id="rect18"
     style="fill:currentColor" />
  <rect
     x="14.7076"
     y="1.7759728"
     width="0.2212"
     height="4"
     ry="0"
     id="rect20"
     style="fill:currentColor" />
  <rect
     x="34.187199"
     y="1.7759728"
     width="0.2212"
     height="4"
     ry="0"
     id="rect22"
     style="fill:currentColor" />
  <rect
     x="28.3855"
     y="3.4472728"
     width="0.1514"
     height="3.3287001"
     ry="0.050000001"
     id="rect24"
     style="fill:currentColor" />
  <path
     d="m 30.1278,3.2759728 c 0,-0.12 0.1,-0.22 0.22,-0.22 0.12,0 0.22,0.1 0.22,0.22 0,0.12 -0.1,0.22 -0.22,0.22 -0.12,0 -0.22,-0.1 -0.22,-0.22 z"
     id="path26"
     inkscape:connector-curvature="0"
     style="fill:currentColor" />
  <path
     d="m 29.036,0.45377283 c 0.296,0 0.532,0.236 0.532,0.532 0,0.29599997 -0.236,0.53199997 -0.532,0.53199997 -0.296,0 -0.532,-0.236 -0.532,-0.53199997 0,-0.296 0.236,-0.532 0.532,-0.532 z m 0,0.1 c -0.24,0 -0.432,0.192 -0.432,0.432 0,0.23999997 0.192,0.43199997 0.432,0.43199997 0.24,0 0.432,-0.192 0.432,-0.43199997 0,-0.24 -0.192,-0.432 -0.432,-0.432 z"
     id="path28"
     inkscape:connector-curvature="0"
     style="fill:currentColor" />
  <path
     d="m 29.2336,2.7239728 c 0.236,0 0.452,0.124 0.452,0.38 0,0.284 -0.208,0.48 -0.396,0.592 -0.136,0.084 -0.292,0.132 -0.452,0.132 -0.236,0 -0.452,-0.124 -0.452,-0.38 0,-0.284 0.212,-0.48 0.4,-0.592 0.136,-0.084 0.288,-0.132 0.448,-0.132 z"
     id="path30"
     inkscape:connector-curvature="0"
     style="fill:currentColor" />
  <path
     d="m 9.8463,2.5509728 c 1.1108,-0.9158 6.6351,-0.9158 7.7459,0 l 0,0 c -1.1108,-0.7761 -6.6351,-0.7761 -7.7459,0 z"
     id="path32"
     inkscape:connector-curvature="0"
     style="fill:currentColor;stroke:currentColor;stroke-width:0.0931;stroke-linecap:round;stroke-linejoin:round" />
  <path
     d="m 17.9922,2.5873728 c 1.0315,-0.8905 5.5718,-0.8905 6.6033,0 l 0,0 c -1.0315,-0.7508 -5.5718,-0.7508 -6.6033,0 z"
     id="path34"
     inkscape:connector-curvature="0"
     style="fill:currentColor;stroke:currentColor;stroke-width:0.0931;stroke-linecap:round;stroke-linejoin:round" />
  <path
     d="m 24.9955,2.5509728 c 0.765,-0.7758 3.0754,-0.7758 3.8404,0 l 0,0 c -0.765,-0.6361 -3.0754,-0.6361 -3.8404,0 z"
     id="path36"
     inkscape:connector-curvature="0"
     style="fill:currentColor;stroke:currentColor;stroke-width:0.0931;stroke-linecap:round;stroke-linejoin:round" />
  <path
     d="m 32.2378,6.7259728 h -0.076 v -1 h 0.076 c 0.38,-0.236 0.88,-0.596 0.88,-1.036 0,-0.224 -0.064,-0.444 -0.164,-0.644 -0.012,-0.072 0.048,-0.12 0.104,-0.12 0.032,0 0.068,0.016 0.088,0.052 0.1,0.224 0.16,0.464 0.16,0.712 0,0.812 -1.068,1.224 -1.068,2.036 z"
     id="path38"
     inkscape:connector-curvature="0"
     style="fill:currentColor" />
  <rect
     x="32.086399"
     y="3.4472728"
     width="0.1514"
     height="3.3287001"
     ry="0.050000001"
     id="rect40"
     style="fill:currentColor" />
  <path
     d="m 32.9344,2.7239728 c 0.236,0 0.452,0.124 0.452,0.38 0,0.284 -0.208,0.48 -0.396,0.592 -0.136,0.084 -0.292,0.132 -0.452,0.132 -0.236,0 -0.452,-0.124 -0.452,-0.38 0,-0.284 0.212,-0.48 0.4,-0.592 0.136,-0.084 0.288,-0.132 0.448,-0.132 z"
     id="path42"
     inkscape:connector-curvature="0"
     style="fill:currentColor" />
  <path
     d="m 17.7922,0.45377283 c 0.296,0 0.532,0.236 0.532,0.532 0,0.29599997 -0.236,0.53199997 -0.532,0.53199997 -0.296,0 -0.532,-0.236 -0.532,-0.53199997 0,-0.296 0.236,-0.532 0.532,-0.532 z m 0,0.1 c -0.24,0 -0.432,0.192 -0.432,0.432 0,0.23999997 0.192,0.43199997 0.432,0.43199997 0.24,0 0.432,-0.192 0.432,-0.43199997 0,-0.24 -0.192,-0.432 -0.432,-0.432 z"
     id="path44"
     inkscape:connector-curvature="0"
     style="fill:currentColor" />
  <path
     d="m 17.6688,2.8359728 c -0.196,0 -0.268,0.172 -0.268,0.352 0,0.296 0.224,0.528 0.516,0.528 0.196,0 0.268,-0.172 0.268,-0.352 0,-0.296 -0.224,-0.528 -0.516,-0.528 z m 1.088,0.44 c 0,0.172 -0.132,0.304 -0.284,0.392 -0.204,0.12 -0.444,0.16 -0.68,0.16 -0.236,0 -0.476,-0.04 -0.68,-0.16 -0.152,-0.088 -0.284,-0.22 -0.284,-0.392 0,-0.172 0.132,-0.304 0.284,-0.392 0.204,-0.12 0.444,-0.16 0.68,-0.16 0.236,0 0.476,0.04 0.68,0.16 0.152,0.088 0.284,0.22 0.284,0.392 z"
     id="path46"
     inkscape:connector-curvature="0"
     style="fill:currentColor" />
  <path
     d="m 6.424,3.6559728 c -0.192,0 -0.288,-0.16 -0.288,-0.288 0,-0.148 0.104,-0.3 0.28,-0.3 0.012,0 0.024,0.004 0.036,0.004 -0.104,-0.144 -0.268,-0.236 -0.452,-0.236 -0.428,0 -0.452,0.296 -0.452,0.756 0,0.06 0.004,0.12 0.004,0.184 0,0.064 -0.004,0.124 -0.004,0.184 0,0.46 0.024,0.756 0.452,0.756 0.312,0 0.532,-0.28 0.604,-0.596 0.008,-0.032 0.032,-0.044 0.056,-0.044 0.028,0 0.06,0.02 0.06,0.056 0,0.38 -0.412,0.704 -0.72,0.704 -0.272,0 -0.548,-0.08 -0.736,-0.28 -0.196,-0.208 -0.264,-0.496 -0.264,-0.78 0,-0.284 0.068,-0.572 0.264,-0.78 0.188,-0.2 0.464,-0.28 0.736,-0.28 0.344,0 0.624,0.268 0.684,0.612 0.004,0.016 0.004,0.036 0.004,0.052 0,0.152 -0.12,0.276 -0.264,0.276 z"
     id="path48"
     inkscape:connector-curvature="0"
     style="fill:currentColor" />
  <path
     d="m 2.316,3.7199728 c 0.012,0 0.028,-0.004 0.04,-0.004 0.628,0 1.032,0.516 1.032,1.052 0,0.308 -0.132,0.62 -0.432,0.844 -0.088,0.064 -0.184,0.116 -0.288,0.148 0.012,0.132 0.016,0.264 0.016,0.396 0,0.084 0,0.164 -0.004,0.248 -0.028,0.484 -0.364,0.916 -0.844,0.916 -0.432,0 -0.784,-0.352 -0.784,-0.788 0,-0.232 0.216,-0.412 0.452,-0.412 0.216,0 0.38,0.188 0.38,0.412 0,0.208 -0.172,0.38 -0.38,0.38 -0.036,0 -0.072,-0.004 -0.108,-0.016 0.1,0.148 0.264,0.244 0.452,0.244 0.38,0 0.624,-0.372 0.648,-0.764 0.004,-0.076 0.008,-0.152 0.008,-0.228 0,-0.116 -0.004,-0.232 -0.012,-0.348 -0.116,0.02 -0.232,0.032 -0.352,0.032 -0.756,0 -1.332,-0.692 -1.332,-1.504 0,-0.708 0.516,-1.232 0.976,-1.772 -0.08,-0.248 -0.16,-0.496 -0.192,-0.756 -0.028,-0.208 -0.028,-0.42 -0.028,-0.632 0,-0.45599997 0.216,-0.88399997 0.588,-1.15199997 0.016,-0.012 0.032,-0.01600000111 0.048,-0.01600000111 0.02,0 0.036,0.0080000011 0.052,0.02000000111 0.288,0.332 0.54,0.972 0.54,1.42399997 0,0.568 -0.336,1.02 -0.704,1.456 0.084,0.272 0.16,0.544 0.228,0.82 z m 0.336,1.86 c 0.26,-0.096 0.44,-0.376 0.44,-0.644 0,-0.352 -0.256,-0.7 -0.668,-0.752 0.096,0.456 0.176,0.908 0.228,1.396 z m -1.544,-0.904 c 0,0.532 0.512,0.972 1.044,0.972 0.108,0 0.22,-0.004 0.324,-0.02 -0.052,-0.504 -0.14,-0.976 -0.24,-1.448 -0.316,0.032 -0.496,0.24 -0.496,0.472 0,0.172 0.1,0.352 0.32,0.48 0.02,0.02 0.028,0.044 0.028,0.068 0,0.048 -0.04,0.092 -0.092,0.092 -0.012,0 -0.028,-0.004 -0.04,-0.008 -0.324,-0.172 -0.472,-0.46 -0.472,-0.744 0,-0.356 0.24,-0.708 0.652,-0.8 -0.056,-0.228 -0.12,-0.452 -0.188,-0.676 -0.42,0.488 -0.84,0.972 -0.84,1.612 z M 2.412,0.62397283 c -0.396,0.184 -0.644,0.57999997 -0.644,1.01599997 0,0.284 0.084,0.52 0.156,0.752 0.312,-0.388 0.568,-0.796 0.568,-1.296 0,-0.20399997 -0.016,-0.28799997 -0.08,-0.47199997 z"
     id="path50"
     inkscape:connector-curvature="0"
     style="fill:currentColor" />
  <path
     d="m 9.6462,0.45377283 c 0.296,0 0.532,0.236 0.532,0.532 0,0.29599997 -0.236,0.53199997 -0.532,0.53199997 -0.296,0 -0.532,-0.236 -0.532,-0.53199997 0,-0.296 0.236,-0.532 0.532,-0.532 z m 0,0.1 c -0.24,0 -0.432,0.192 -0.432,0.432 0,0.23999997 0.192,0.43199997 0.432,0.43199997 0.24,0 0.432,-0.192 0.432,-0.43199997 0,-0.24 -0.192,-0.432 -0.432,-0.432 z"
     id="path52"
     inkscape:connector-curvature="0"
     style="fill:currentColor" />
  <path
     d="m 9.5229,2.8359728 c -0.196,0 -0.268,0.172 -0.268,0.352 0,0.296 0.224,0.528 0.516,0.528 0.196,0 0.268,-0.172 0.268,-0.352 0,-0.296 -0.224,-0.528 -0.516,-0.528 z m 1.088,0.44 c 0,0.172 -0.132,0.304 -0.284,0.392 -0.204,0.12 -0.444,0.16 -0.68,0.16 -0.236,0 -0.476,-0.04 -0.68,-0.16 -0.152,-0.088 -0.284,-0.22 -0.284,-0.392 0,-0.172 0.132,-0.304 0.284,-0.392 0.204,-0.12 0.444,-0.16 0.68,-0.16 0.236,0 0.476,0.04 0.68,0.16 0.152,0.088 0.284,0.22 0.284,0.392 z"
     id="path54"
     inkscape:connector-curvature="0"
     style="fill:currentColor" />
  <rect
     x="24.1036"
     y="3.5215728"
     width="0.1514"
     height="3.2544"
     ry="0.050000001"
     id="rect56"
     style="fill:currentColor" />
  <path
     d="m 24.7956,0.45377283 c 0.296,0 0.532,0.236 0.532,0.532 0,0.29599997 -0.236,0.53199997 -0.532,0.53199997 -0.296,0 -0.532,-0.236 -0.532,-0.53199997 0,-0.296 0.236,-0.532 0.532,-0.532 z m 0,0.1 c -0.24,0 -0.432,0.192 -0.432,0.432 0,0.23999997 0.192,0.43199997 0.432,0.43199997 0.24,0 0.432,-0.192 0.432,-0.43199997 0,-0.24 -0.192,-0.432 -0.432,-0.432 z"
     id="path58"
     inkscape:connector-curvature="0"
     style="fill:currentColor" />
  <path
     d="m 25.3436,3.0239728 c 0,-0.092 -0.076,-0.16 -0.16,-0.16 -0.016,0 -0.032,0.004 -0.048,0.008 -0.12,0.032 -0.3,0.152 -0.444,0.244 -0.144,0.092 -0.324,0.208 -0.404,0.304 -0.028,0.032 -0.04,0.068 -0.04,0.108 0,0.092 0.076,0.16 0.16,0.16 0.016,0 0.032,-0.004 0.048,-0.008 0.12,-0.032 0.3,-0.152 0.444,-0.244 0.144,-0.092 0.324,-0.208 0.404,-0.304 0.028,-0.032 0.04,-0.068 0.04,-0.108 z m -0.216,-0.3 c 0.2,0 0.36,0.088 0.36,0.308 0,0.072 -0.02,0.148 -0.04,0.22 -0.044,0.152 -0.12,0.296 -0.252,0.384 -0.212,0.14 -0.444,0.192 -0.732,0.192 -0.2,0 -0.36,-0.088 -0.36,-0.308 0,-0.072 0.02,-0.148 0.04,-0.22 0.044,-0.152 0.12,-0.296 0.252,-0.384 0.212,-0.144 0.444,-0.192 0.732,-0.192 z"
     id="path60"
     inkscape:connector-curvature="0"
     style="fill:currentColor" />
  <text
     font-size="2.1999"
     id="text62"
     style="font-size:2.19989991px;text-anchor:start;fill:currentColor;font-family:serif"
     x="56.905499"
     y="202.43718">
    <tspan
       id="tspan64" />
  </text>
</svg>
