<?xml version="1.0" encoding="UTF-8" standalone="no"?>
<svg
   xmlns:dc="http://purl.org/dc/elements/1.1/"
   xmlns:cc="http://creativecommons.org/ns#"
   xmlns:rdf="http://www.w3.org/1999/02/22-rdf-syntax-ns#"
   xmlns:svg="http://www.w3.org/2000/svg"
   xmlns="http://www.w3.org/2000/svg"
   xmlns:sodipodi="http://sodipodi.sourceforge.net/DTD/sodipodi-0.dtd"
   xmlns:inkscape="http://www.inkscape.org/namespaces/inkscape"
   version="1.2"
   width="172.1245"
   height="47.06699"
   viewBox="0 0 34.554 9.4486979"
   id="svg2"
   inkscape:version="0.48.2 r9819"
   sodipodi:docname="test.svg">
  <metadata
     id="metadata114">
    <rdf:RDF>
      <cc:Work
         rdf:about="">
        <dc:format>image/svg+xml</dc:format>
        <dc:type
           rdf:resource="http://purl.org/dc/dcmitype/StillImage" />
      </cc:Work>
    </rdf:RDF>
  </metadata>
  <defs
     id="defs112" />
  <sodipodi:namedview
     pagecolor="#ffffff"
     bordercolor="#666666"
     borderopacity="1"
     objecttolerance="10"
     gridtolerance="10"
     guidetolerance="10"
     inkscape:pageopacity="0"
     inkscape:pageshadow="2"
     inkscape:window-width="769"
     inkscape:window-height="480"
     id="namedview110"
     showgrid="false"
     fit-margin-top="0"
     fit-margin-left="0"
     fit-margin-right="0"
     fit-margin-bottom="0"
     inkscape:zoom="0.22425739"
     inkscape:cx="283.46445"
     inkscape:cy="-456.41609"
     inkscape:window-x="0"
     inkscape:window-y="0"
     inkscape:window-maximized="0"
     inkscape:current-layer="svg2" />
  <!-- Page: 1/1 -->
  <text
     font-size="2.1999"
     id="text4"
     style="font-size:2.19989991px;text-anchor:start;fill:currentColor;font-family:serif"
     x="-10.6698"
     y="-1.0000272">
    <tspan
       id="tspan6" />
  </text>
  <line
     x1="0.058200002"
     y1="5.7759728"
     x2="34.4958"
     y2="5.7759728"
     id="line8"
     style="stroke:currentColor;stroke-width:0.1164;stroke-linecap:round;stroke-linejoin:round" />
  <line
     x1="0.058200002"
     y1="4.7759728"
     x2="34.4958"
     y2="4.7759728"
     id="line10"
     style="stroke:currentColor;stroke-width:0.1164;stroke-linecap:round;stroke-linejoin:round" />
  <line
     x1="0.058200002"
     y1="3.7759728"
     x2="34.4958"
     y2="3.7759728"
     id="line12"
     style="stroke:currentColor;stroke-width:0.1164;stroke-linecap:round;stroke-linejoin:round" />
  <line
     x1="0.058200002"
     y1="2.7759728"
     x2="34.4958"
     y2="2.7759728"
     id="line14"
     style="stroke:currentColor;stroke-width:0.1164;stroke-linecap:round;stroke-linejoin:round" />
  <line
     x1="0.058200002"
     y1="1.7759728"
     x2="34.4958"
     y2="1.7759728"
     id="line16"
     style="stroke:currentColor;stroke-width:0.1164;stroke-linecap:round;stroke-linejoin:round" />
  <rect
     x="22.8536"
     y="1.7759728"
     width="0.2212"
     height="4"
     ry="0"
     id="rect18"
     style="fill:currentColor" />
  <rect
     x="14.7076"
     y="1.7759728"
     width="0.2212"
     height="4"
     ry="0"
     id="rect20"
     style="fill:currentColor" />
  <rect
     x="34.332699"
     y="1.7759728"
     width="0.2212"
     height="4"
     ry="0"
     id="rect22"
     style="fill:currentColor" />
  <path
     d="m 33.0799,2.7239728 c 0.236,0 0.452,0.124 0.452,0.38 0,0.284 -0.208,0.48 -0.396,0.592 -0.136,0.084 -0.292,0.132 -0.452,0.132 -0.236,0 -0.452,-0.124 -0.452,-0.38 0,-0.284 0.212,-0.48 0.4,-0.592 0.136,-0.084 0.288,-0.132 0.448,-0.132 z"
     id="path24"
     inkscape:connector-curvature="0"
     style="fill:currentColor" />
  <polygon
     transform="translate(27.8567,4.6584728)"
     points="0.05,-0.19 1.45,-0.565 1.45,-0.185 0.05,0.19 "
     id="polygon26"
     style="fill:currentColor;stroke:currentColor;stroke-width:0.1;stroke-linecap:round;stroke-linejoin:round" />
  <polygon
     transform="translate(27.8567,5.4684728)"
     points="0.05,-0.19 1.45,-0.565 1.45,-0.185 0.05,0.19 "
     id="polygon28"
     style="fill:currentColor;stroke:currentColor;stroke-width:0.1;stroke-linecap:round;stroke-linejoin:round" />
  <polygon
     transform="translate(27.8567,6.2784728)"
     points="0.05,-0.19 1.45,-0.565 1.45,-0.185 0.05,0.19 "
     id="polygon30"
     style="fill:currentColor;stroke:currentColor;stroke-width:0.1;stroke-linecap:round;stroke-linejoin:round" />
  <rect
     x="28.531"
     y="3.4472728"
     width="0.1514"
     height="3.4537001"
     ry="0.050000001"
     id="rect32"
     style="fill:currentColor" />
  <path
     d="m 30.2733,3.2759728 c 0,-0.12 0.1,-0.22 0.22,-0.22 0.12,0 0.22,0.1 0.22,0.22 0,0.12 -0.1,0.22 -0.22,0.22 -0.12,0 -0.22,-0.1 -0.22,-0.22 z"
     id="path34"
     inkscape:connector-curvature="0"
     style="fill:currentColor" />
  <path
     d="m 29.1815,0.45377283 c 0.296,0 0.532,0.236 0.532,0.532 0,0.29599997 -0.236,0.53199997 -0.532,0.53199997 -0.296,0 -0.532,-0.236 -0.532,-0.53199997 0,-0.296 0.236,-0.532 0.532,-0.532 z m 0,0.1 c -0.24,0 -0.432,0.192 -0.432,0.432 0,0.23999997 0.192,0.43199997 0.432,0.43199997 0.24,0 0.432,-0.192 0.432,-0.43199997 0,-0.24 -0.192,-0.432 -0.432,-0.432 z"
     id="path36"
     inkscape:connector-curvature="0"
     style="fill:currentColor" />
  <path
     d="m 29.3791,2.7239728 c 0.236,0 0.452,0.124 0.452,0.38 0,0.284 -0.208,0.48 -0.396,0.592 -0.136,0.084 -0.292,0.132 -0.452,0.132 -0.236,0 -0.452,-0.124 -0.452,-0.38 0,-0.284 0.212,-0.48 0.4,-0.592 0.136,-0.084 0.288,-0.132 0.448,-0.132 z"
     id="path38"
     inkscape:connector-curvature="0"
     style="fill:currentColor" />
  <line
     x1="12.0973"
     y1="8.136673"
     x2="31.2421"
     y2="8.8032732"
     id="line40"
     style="stroke:currentColor;stroke-width:0.1164;stroke-linecap:round;stroke-linejoin:round" />
  <line
     x1="12.0973"
     y1="8.136673"
     x2="31.2421"
     y2="7.4700727"
     id="line42"
     style="stroke:currentColor;stroke-width:0.1164;stroke-linecap:round;stroke-linejoin:round" />
  <path
     d="m 9.8463,2.5509728 c 1.1108,-0.9158 6.6351,-0.9158 7.7459,0 l 0,0 c -1.1108,-0.7761 -6.6351,-0.7761 -7.7459,0 z"
     id="path44"
     inkscape:connector-curvature="0"
     style="fill:currentColor;stroke:currentColor;stroke-width:0.0931;stroke-linecap:round;stroke-linejoin:round" />
  <path
     d="m 17.9922,2.5509728 c 1.0423,-0.8941 5.7064,-0.8941 6.7488,0 l 0,0 c -1.0424,-0.7544 -5.7065,-0.7544 -6.7488,0 z"
     id="path46"
     inkscape:connector-curvature="0"
     style="fill:currentColor;stroke:currentColor;stroke-width:0.0931;stroke-linecap:round;stroke-linejoin:round" />
  <path
     d="m 25.141,2.5509728 c 0.765,-0.7758 3.0754,-0.7758 3.8404,0 l 0,0 c -0.765,-0.6361 -3.0754,-0.6361 -3.8404,0 z"
     id="path48"
     inkscape:connector-curvature="0"
     style="fill:currentColor;stroke:currentColor;stroke-width:0.0931;stroke-linecap:round;stroke-linejoin:round" />
  <path
     d="m 29.3815,2.5509728 c 0.6949,-0.7357 2.606,-0.7357 3.3009,0 l 0,0 c -0.6949,-0.5959 -2.606,-0.5959 -3.3009,0 z"
     id="path50"
     inkscape:connector-curvature="0"
     style="fill:currentColor;stroke:currentColor;stroke-width:0.0931;stroke-linecap:round;stroke-linejoin:round" />
  <path
     d="m 33.2501,7.7886728 -0.196,0.64 c -0.12,0.396 -0.484,1.02 -0.872,1.02 -0.184,0 -0.348,-0.128 -0.348,-0.304 0,-0.156 0.068,-0.308 0.208,-0.308 0.096,0 0.176,0.08 0.176,0.176 0,0.12 -0.152,0.1 -0.152,0.22 0,0.04 0.044,0.04 0.092,0.04 h 0.024 c 0.184,0 0.244,-0.216 0.292,-0.408 l 0.268,-1.076 h -0.18 c -0.048,0 -0.088,-0.04 -0.088,-0.088 0,-0.048 0.04,-0.092 0.088,-0.092 h 0.232 c 0.128,-0.38 0.472,-0.748 0.848,-0.748 0.184,0 0.348,0.124 0.348,0.3 0,0.156 -0.068,0.312 -0.208,0.312 -0.096,0 -0.176,-0.08 -0.176,-0.176 0,-0.12 0.152,-0.1 0.152,-0.22 0,-0.04 -0.04,-0.044 -0.088,-0.044 h -0.028 c -0.232,0 -0.276,0.324 -0.34,0.576 h 0.2 c 0.048,0 0.092,0.044 0.092,0.092 0,0.048 -0.044,0.088 -0.092,0.088 h -0.252 z"
     id="path52"
     inkscape:connector-curvature="0"
     style="fill:currentColor" />
  <path
     d="m 32.3832,7.2559728 h -0.076 v -1 h 0.076 c 0.38,-0.236 0.88,-0.596 0.88,-1.036 0,-0.224 -0.064,-0.444 -0.164,-0.644 -0.012,-0.072 0.048,-0.12 0.104,-0.12 0.032,0 0.068,0.016 0.088,0.052 0.1,0.224 0.16,0.464 0.16,0.712 0,0.812 -1.068,1.224 -1.068,2.036 z"
     id="path54"
     inkscape:connector-curvature="0"
     style="fill:currentColor" />
  <polygon
     transform="translate(31.5576,5.1759728)"
     points="0.05,-0.19 1.45,-0.79 1.45,-0.41 0.05,0.19 "
     id="polygon56"
     style="fill:currentColor;stroke:currentColor;stroke-width:0.1;stroke-linecap:round;stroke-linejoin:round" />
  <polygon
     transform="translate(31.5576,5.9859728)"
     points="0.05,-0.19 1.45,-0.79 1.45,-0.41 0.05,0.19 "
     id="polygon58"
     style="fill:currentColor;stroke:currentColor;stroke-width:0.1;stroke-linecap:round;stroke-linejoin:round" />
  <rect
     x="32.231899"
     y="3.4472728"
     width="0.1514"
     height="3.8587"
     ry="0.050000001"
     id="rect60"
     style="fill:currentColor" />
  <path
     d="m 32.8823,0.45377283 c 0.296,0 0.532,0.236 0.532,0.532 0,0.29599997 -0.236,0.53199997 -0.532,0.53199997 -0.296,0 -0.532,-0.236 -0.532,-0.53199997 0,-0.296 0.236,-0.532 0.532,-0.532 z m 0,0.1 c -0.24,0 -0.432,0.192 -0.432,0.432 0,0.23999997 0.192,0.43199997 0.432,0.43199997 0.24,0 0.432,-0.192 0.432,-0.43199997 0,-0.24 -0.192,-0.432 -0.432,-0.432 z"
     id="path62"
     inkscape:connector-curvature="0"
     style="fill:currentColor" />
  <polygon
     transform="translate(8.8962,6.5834728)"
     points="0.05,-0.19 1.45,-0.565 1.45,-0.185 0.05,0.19 "
     id="polygon64"
     style="fill:currentColor;stroke:currentColor;stroke-width:0.1;stroke-linecap:round;stroke-linejoin:round" />
  <polygon
     transform="translate(8.8962,5.7734728)"
     points="0.05,-0.19 1.45,-0.565 1.45,-0.185 0.05,0.19 "
     id="polygon66"
     style="fill:currentColor;stroke:currentColor;stroke-width:0.1;stroke-linecap:round;stroke-linejoin:round" />
  <polygon
     transform="translate(8.8962,4.9634728)"
     points="0.05,-0.19 1.45,-0.565 1.45,-0.185 0.05,0.19 "
     id="polygon68"
     style="fill:currentColor;stroke:currentColor;stroke-width:0.1;stroke-linecap:round;stroke-linejoin:round" />
  <path
     d="m 17.6688,2.8359728 c -0.196,0 -0.268,0.172 -0.268,0.352 0,0.296 0.224,0.528 0.516,0.528 0.196,0 0.268,-0.172 0.268,-0.352 0,-0.296 -0.224,-0.528 -0.516,-0.528 z m 1.088,0.44 c 0,0.172 -0.132,0.304 -0.284,0.392 -0.204,0.12 -0.444,0.16 -0.68,0.16 -0.236,0 -0.476,-0.04 -0.68,-0.16 -0.152,-0.088 -0.284,-0.22 -0.284,-0.392 0,-0.172 0.132,-0.304 0.284,-0.392 0.204,-0.12 0.444,-0.16 0.68,-0.16 0.236,0 0.476,0.04 0.68,0.16 0.152,0.088 0.284,0.22 0.284,0.392 z"
     id="path70"
     inkscape:connector-curvature="0"
     style="fill:currentColor" />
  <path
     d="m 17.7922,0.45377283 c 0.296,0 0.532,0.236 0.532,0.532 0,0.29599997 -0.236,0.53199997 -0.532,0.53199997 -0.296,0 -0.532,-0.236 -0.532,-0.53199997 0,-0.296 0.236,-0.532 0.532,-0.532 z m 0,0.1 c -0.24,0 -0.432,0.192 -0.432,0.432 0,0.23999997 0.192,0.43199997 0.432,0.43199997 0.24,0 0.432,-0.192 0.432,-0.43199997 0,-0.24 -0.192,-0.432 -0.432,-0.432 z"
     id="path72"
     inkscape:connector-curvature="0"
     style="fill:currentColor" />
  <path
     d="m 6.424,3.6559728 c -0.192,0 -0.288,-0.16 -0.288,-0.288 0,-0.148 0.104,-0.3 0.28,-0.3 0.012,0 0.024,0.004 0.036,0.004 -0.104,-0.144 -0.268,-0.236 -0.452,-0.236 -0.428,0 -0.452,0.296 -0.452,0.756 0,0.06 0.004,0.12 0.004,0.184 0,0.064 -0.004,0.124 -0.004,0.184 0,0.46 0.024,0.756 0.452,0.756 0.312,0 0.532,-0.28 0.604,-0.596 0.008,-0.032 0.032,-0.044 0.056,-0.044 0.028,0 0.06,0.02 0.06,0.056 0,0.38 -0.412,0.704 -0.72,0.704 -0.272,0 -0.548,-0.08 -0.736,-0.28 -0.196,-0.208 -0.264,-0.496 -0.264,-0.78 0,-0.284 0.068,-0.572 0.264,-0.78 0.188,-0.2 0.464,-0.28 0.736,-0.28 0.344,0 0.624,0.268 0.684,0.612 0.004,0.016 0.004,0.036 0.004,0.052 0,0.152 -0.12,0.276 -0.264,0.276 z"
     id="path74"
     inkscape:connector-curvature="0"
     style="fill:currentColor" />
  <path
     d="m 2.316,3.7199728 c 0.012,0 0.028,-0.004 0.04,-0.004 0.628,0 1.032,0.516 1.032,1.052 0,0.308 -0.132,0.62 -0.432,0.844 -0.088,0.064 -0.184,0.116 -0.288,0.148 0.012,0.132 0.016,0.264 0.016,0.396 0,0.084 0,0.164 -0.004,0.248 -0.028,0.484 -0.364,0.916 -0.844,0.916 -0.432,0 -0.784,-0.352 -0.784,-0.788 0,-0.232 0.216,-0.412 0.452,-0.412 0.216,0 0.38,0.188 0.38,0.412 0,0.208 -0.172,0.38 -0.38,0.38 -0.036,0 -0.072,-0.004 -0.108,-0.016 0.1,0.148 0.264,0.244 0.452,0.244 0.38,0 0.624,-0.372 0.648,-0.764 0.004,-0.076 0.008,-0.152 0.008,-0.228 0,-0.116 -0.004,-0.232 -0.012,-0.348 -0.116,0.02 -0.232,0.032 -0.352,0.032 -0.756,0 -1.332,-0.692 -1.332,-1.504 0,-0.708 0.516,-1.232 0.976,-1.772 -0.08,-0.248 -0.16,-0.496 -0.192,-0.756 -0.028,-0.208 -0.028,-0.42 -0.028,-0.632 0,-0.45599997 0.216,-0.88399997 0.588,-1.15199997 0.016,-0.012 0.032,-0.01600000111 0.048,-0.01600000111 0.02,0 0.036,0.0080000011 0.052,0.02000000111 0.288,0.332 0.54,0.972 0.54,1.42399997 0,0.568 -0.336,1.02 -0.704,1.456 0.084,0.272 0.16,0.544 0.228,0.82 z m 0.336,1.86 c 0.26,-0.096 0.44,-0.376 0.44,-0.644 0,-0.352 -0.256,-0.7 -0.668,-0.752 0.096,0.456 0.176,0.908 0.228,1.396 z m -1.544,-0.904 c 0,0.532 0.512,0.972 1.044,0.972 0.108,0 0.22,-0.004 0.324,-0.02 -0.052,-0.504 -0.14,-0.976 -0.24,-1.448 -0.316,0.032 -0.496,0.24 -0.496,0.472 0,0.172 0.1,0.352 0.32,0.48 0.02,0.02 0.028,0.044 0.028,0.068 0,0.048 -0.04,0.092 -0.092,0.092 -0.012,0 -0.028,-0.004 -0.04,-0.008 -0.324,-0.172 -0.472,-0.46 -0.472,-0.744 0,-0.356 0.24,-0.708 0.652,-0.8 -0.056,-0.228 -0.12,-0.452 -0.188,-0.676 -0.42,0.488 -0.84,0.972 -0.84,1.612 z M 2.412,0.62397283 c -0.396,0.184 -0.644,0.57999997 -0.644,1.01599997 0,0.284 0.084,0.52 0.156,0.752 0.312,-0.388 0.568,-0.796 0.568,-1.296 0,-0.20399997 -0.016,-0.28799997 -0.08,-0.47199997 z"
     id="path76"
     inkscape:connector-curvature="0"
     style="fill:currentColor" />
  <path
     d="m 9.6462,0.45377283 c 0.296,0 0.532,0.236 0.532,0.532 0,0.29599997 -0.236,0.53199997 -0.532,0.53199997 -0.296,0 -0.532,-0.236 -0.532,-0.53199997 0,-0.296 0.236,-0.532 0.532,-0.532 z m 0,0.1 c -0.24,0 -0.432,0.192 -0.432,0.432 0,0.23999997 0.192,0.43199997 0.432,0.43199997 0.24,0 0.432,-0.192 0.432,-0.43199997 0,-0.24 -0.192,-0.432 -0.432,-0.432 z"
     id="path78"
     inkscape:connector-curvature="0"
     style="fill:currentColor" />
  <g
     transform="translate(8.1951,8.7366728)"
     id="g80">
    <path
       transform="scale(0.004,-0.004)"
       d="M 233,243 C 177,243 130,134 130,68 c 0,-22 9,-38 31,-38 63,0 97,128 97,180 0,18 -7,33 -25,33 z M 110,-146 c -37,0 -75,5 -113,5 -38,0 -77,-5 -113,-5 -10,0 -16,8 -16,16 0,20 30,18 49,19 23,1 48,9 55,30 l 99,290 c 3,8 5,16 5,22 0,7 -2,12 -10,12 -33,0 -58,-61 -74,-97 -6,-14 -19,-20 -29,-20 -9,0 -16,5 -16,14 0,3 0,6 2,10 30,68 73,142 134,142 35,0 57,-22 64,-52 29,31 67,52 103,52 69,0 107,-49 107,-114 0,-21 -4,-44 -12,-67 C 325,53 254,-10 198,-10 171,-10 146,-4 125,8 115,14 101,11 98,2 L 73,-72 c -1,-3 -2,-7 -2,-10 0,-22 17,-30 40,-32 10,-1 15,-8 15,-16 0,-8 -6,-16 -16,-16 z"
       id="path82"
       inkscape:connector-curvature="0"
       style="fill:currentColor" />
    <path
       transform="matrix(0.004,0,0,-0.004,1.4511,0)"
       d="M 233,243 C 177,243 130,134 130,68 c 0,-22 9,-38 31,-38 63,0 97,128 97,180 0,18 -7,33 -25,33 z M 110,-146 c -37,0 -75,5 -113,5 -38,0 -77,-5 -113,-5 -10,0 -16,8 -16,16 0,20 30,18 49,19 23,1 48,9 55,30 l 99,290 c 3,8 5,16 5,22 0,7 -2,12 -10,12 -33,0 -58,-61 -74,-97 -6,-14 -19,-20 -29,-20 -9,0 -16,5 -16,14 0,3 0,6 2,10 30,68 73,142 134,142 35,0 57,-22 64,-52 29,31 67,52 103,52 69,0 107,-49 107,-114 0,-21 -4,-44 -12,-67 C 325,53 254,-10 198,-10 171,-10 146,-4 125,8 115,14 101,11 98,2 L 73,-72 c -1,-3 -2,-7 -2,-10 0,-22 17,-30 40,-32 10,-1 15,-8 15,-16 0,-8 -6,-16 -16,-16 z"
       id="path84"
       inkscape:connector-curvature="0"
       style="fill:currentColor" />
  </g>
  <path
     d="m 9.5229,2.8359728 c -0.196,0 -0.268,0.172 -0.268,0.352 0,0.296 0.224,0.528 0.516,0.528 0.196,0 0.268,-0.172 0.268,-0.352 0,-0.296 -0.224,-0.528 -0.516,-0.528 z m 1.088,0.44 c 0,0.172 -0.132,0.304 -0.284,0.392 -0.204,0.12 -0.444,0.16 -0.68,0.16 -0.236,0 -0.476,-0.04 -0.68,-0.16 -0.152,-0.088 -0.284,-0.22 -0.284,-0.392 0,-0.172 0.132,-0.304 0.284,-0.392 0.204,-0.12 0.444,-0.16 0.68,-0.16 0.236,0 0.476,0.04 0.68,0.16 0.152,0.088 0.284,0.22 0.284,0.392 z"
     id="path86"
     inkscape:connector-curvature="0"
     style="fill:currentColor" />
  <polygon
     transform="translate(23.5748,4.6584728)"
     points="0.05,-0.19 1.45,-0.565 1.45,-0.185 0.05,0.19 "
     id="polygon88"
     style="fill:currentColor;stroke:currentColor;stroke-width:0.1;stroke-linecap:round;stroke-linejoin:round" />
  <polygon
     transform="translate(23.5748,5.4684728)"
     points="0.05,-0.19 1.45,-0.565 1.45,-0.185 0.05,0.19 "
     id="polygon90"
     style="fill:currentColor;stroke:currentColor;stroke-width:0.1;stroke-linecap:round;stroke-linejoin:round" />
  <polygon
     transform="translate(23.5748,6.2784728)"
     points="0.05,-0.19 1.45,-0.565 1.45,-0.185 0.05,0.19 "
     id="polygon92"
     style="fill:currentColor;stroke:currentColor;stroke-width:0.1;stroke-linecap:round;stroke-linejoin:round" />
  <rect
     x="24.2491"
     y="3.5215728"
     width="0.1514"
     height="3.3794"
     ry="0.050000001"
     id="rect94"
     style="fill:currentColor" />
  <path
     d="m 24.9411,0.45377283 c 0.296,0 0.532,0.236 0.532,0.532 0,0.29599997 -0.236,0.53199997 -0.532,0.53199997 -0.296,0 -0.532,-0.236 -0.532,-0.53199997 0,-0.296 0.236,-0.532 0.532,-0.532 z m 0,0.1 c -0.24,0 -0.432,0.192 -0.432,0.432 0,0.23999997 0.192,0.43199997 0.432,0.43199997 0.24,0 0.432,-0.192 0.432,-0.43199997 0,-0.24 -0.192,-0.432 -0.432,-0.432 z"
     id="path96"
     inkscape:connector-curvature="0"
     style="fill:currentColor" />
  <path
     d="m 25.4891,3.0239728 c 0,-0.092 -0.076,-0.16 -0.16,-0.16 -0.016,0 -0.032,0.004 -0.048,0.008 -0.12,0.032 -0.3,0.152 -0.444,0.244 -0.144,0.092 -0.324,0.208 -0.404,0.304 -0.028,0.032 -0.04,0.068 -0.04,0.108 0,0.092 0.076,0.16 0.16,0.16 0.016,0 0.032,-0.004 0.048,-0.008 0.12,-0.032 0.3,-0.152 0.444,-0.244 0.144,-0.092 0.324,-0.208 0.404,-0.304 0.028,-0.032 0.04,-0.068 0.04,-0.108 z m -0.216,-0.3 c 0.2,0 0.36,0.088 0.36,0.308 0,0.072 -0.02,0.148 -0.04,0.22 -0.044,0.152 -0.12,0.296 -0.252,0.384 -0.212,0.14 -0.444,0.192 -0.732,0.192 -0.2,0 -0.36,-0.088 -0.36,-0.308 0,-0.072 0.02,-0.148 0.04,-0.22 0.044,-0.152 0.12,-0.296 0.252,-0.384 0.212,-0.144 0.444,-0.192 0.732,-0.192 z"
     id="path98"
     inkscape:connector-curvature="0"
     style="fill:currentColor" />
  <polygon
     transform="translate(17.0422,6.5834728)"
     points="0.05,-0.19 1.45,-0.565 1.45,-0.185 0.05,0.19 "
     id="polygon100"
     style="fill:currentColor;stroke:currentColor;stroke-width:0.1;stroke-linecap:round;stroke-linejoin:round" />
  <polygon
     transform="translate(17.0422,5.7734728)"
     points="0.05,-0.19 1.45,-0.565 1.45,-0.185 0.05,0.19 "
     id="polygon102"
     style="fill:currentColor;stroke:currentColor;stroke-width:0.1;stroke-linecap:round;stroke-linejoin:round" />
  <polygon
     transform="translate(17.0422,4.9634728)"
     points="0.05,-0.19 1.45,-0.565 1.45,-0.185 0.05,0.19 "
     id="polygon104"
     style="fill:currentColor;stroke:currentColor;stroke-width:0.1;stroke-linecap:round;stroke-linejoin:round" />
  <text
     font-size="2.1999"
     id="text106"
     style="font-size:2.19989991px;text-anchor:start;fill:currentColor;font-family:serif"
     x="56.905499"
     y="202.43718">
    <tspan
       id="tspan108" />
  </text>
</svg>
