<?xml version="1.0" encoding="UTF-8" standalone="no"?>
<svg
   xmlns:dc="http://purl.org/dc/elements/1.1/"
   xmlns:cc="http://creativecommons.org/ns#"
   xmlns:rdf="http://www.w3.org/1999/02/22-rdf-syntax-ns#"
   xmlns:svg="http://www.w3.org/2000/svg"
   xmlns="http://www.w3.org/2000/svg"
   xmlns:xlink="http://www.w3.org/1999/xlink"
   xmlns:sodipodi="http://sodipodi.sourceforge.net/DTD/sodipodi-0.dtd"
   xmlns:inkscape="http://www.inkscape.org/namespaces/inkscape"
   version="1.2"
   width="94.481926"
   height="42.414192"
   viewBox="0 0 18.967251 8.5146488"
   id="svg2"
   inkscape:version="0.48.2 r9819"
   sodipodi:docname="14-0.svg">
  <metadata
     id="metadata80">
    <rdf:RDF>
      <cc:Work
         rdf:about="">
        <dc:format>image/svg+xml</dc:format>
        <dc:type
           rdf:resource="http://purl.org/dc/dcmitype/StillImage" />
      </cc:Work>
    </rdf:RDF>
  </metadata>
  <defs
     id="defs78" />
  <sodipodi:namedview
     pagecolor="#ffffff"
     bordercolor="#666666"
     borderopacity="1"
     objecttolerance="10"
     gridtolerance="10"
     guidetolerance="10"
     inkscape:pageopacity="0"
     inkscape:pageshadow="2"
     inkscape:window-width="769"
     inkscape:window-height="480"
     id="namedview76"
     showgrid="false"
     fit-margin-top="0"
     fit-margin-left="0"
     fit-margin-right="0"
     fit-margin-bottom="0"
     inkscape:zoom="0.22425739"
     inkscape:cx="283.46445"
     inkscape:cy="-460.18296"
     inkscape:window-x="0"
     inkscape:window-y="0"
     inkscape:window-maximized="0"
     inkscape:current-layer="svg2" />
  <!-- Page: 1/1 -->
  <text
     font-size="2.1999"
     id="text4"
     style="font-size:2.19989991px;text-anchor:start;fill:currentColor;font-family:serif"
     x="-10.6698"
     y="-1.1778761">
    <tspan
       id="tspan6" />
  </text>
  <rect
     x="15.253099"
     y="7.854424"
     width="2.3415"
     height="0.2164"
     ry="0.1082"
     id="rect8"
     style="fill:currentColor" />
  <rect
     x="10.602301"
     y="7.854424"
     width="2.3415"
     height="0.2164"
     ry="0.1082"
     id="rect10"
     style="fill:currentColor" />
  <rect
     x="8.1014996"
     y="7.854424"
     width="2.3415"
     height="0.2164"
     ry="0.1082"
     id="rect12"
     style="fill:currentColor" />
  <line
     x1="0.058200002"
     y1="6.9626241"
     x2="18.6159"
     y2="6.9626241"
     id="line14"
     style="stroke:currentColor;stroke-width:0.1164;stroke-linecap:round;stroke-linejoin:round" />
  <line
     x1="0.058200002"
     y1="5.9626241"
     x2="18.6159"
     y2="5.9626241"
     id="line16"
     style="stroke:currentColor;stroke-width:0.1164;stroke-linecap:round;stroke-linejoin:round" />
  <line
     x1="0.058200002"
     y1="4.9626241"
     x2="18.6159"
     y2="4.9626241"
     id="line18"
     style="stroke:currentColor;stroke-width:0.1164;stroke-linecap:round;stroke-linejoin:round" />
  <line
     x1="0.058200002"
     y1="3.9626238"
     x2="18.6159"
     y2="3.9626238"
     id="line20"
     style="stroke:currentColor;stroke-width:0.1164;stroke-linecap:round;stroke-linejoin:round" />
  <line
     x1="0.058200002"
     y1="2.9626238"
     x2="18.6159"
     y2="2.9626238"
     id="line22"
     style="stroke:currentColor;stroke-width:0.1164;stroke-linecap:round;stroke-linejoin:round" />
  <rect
     x="18.4529"
     y="2.9626238"
     width="0.2212"
     height="4"
     ry="0"
     id="rect24"
     style="fill:currentColor" />
  <a
     xlink:href="textedit://C:/Users/tikeda/Documents/git/LotusRoot/sco.txt:2:31:32"
     id="a26"
     transform="translate(-17.783,-4.7344761)">
    <path
       transform="matrix(0.004,0,0,-0.004,31.4065,9.6971)"
       d="m -24,-119 c 0,31 14,43 46,43 30,0 69,-9 106,-23 L 2,52 c -7,9 -11,17 -11,26 0,34 51,66 88,101 23,22 36,51 36,81 0,25 -9,50 -26,70 l -31,37 c -3,4 -4,8 -4,12 0,10 9,18 19,18 5,0 9,-1 13,-6 L 235,213 c 7,-9 11,-17 11,-26 0,-34 -52,-66 -89,-101 -23,-22 -35,-51 -35,-81 0,-25 9,-51 26,-71 l 79,-94 c 3,-4 4,-8 4,-12 0,-10 -9,-18 -19,-18 -5,0 -9,2 -13,7 -16,19 -57,33 -89,33 -41,0 -55,-23 -55,-65 0,-33 11,-73 27,-92 6,-7 0,-15 -7,-15 -2,0 -5,2 -7,4 -44,53 -92,145 -92,199 z"
       id="path28"
       inkscape:connector-curvature="0"
       style="fill:currentColor" />
  </a>
  <a
     xlink:href="textedit://C:/Users/tikeda/Documents/git/LotusRoot/sco.txt:2:34:35"
     id="a30"
     transform="translate(-17.783,-4.7344761)">
    <path
       transform="matrix(0.004,0,0,-0.004,33.5565,12.6971)"
       d="m 212,138 c 59,0 113,-31 113,-95 0,-71 -52,-120 -99,-148 -34,-21 -73,-33 -113,-33 -59,0 -113,31 -113,95 0,71 53,120 100,148 34,21 72,33 112,33 z"
       id="path32"
       inkscape:connector-curvature="0"
       style="fill:currentColor" />
  </a>
  <rect
     x="16.922899"
     y="4.4626241"
     width="0.1514"
     height="3.3287001"
     ry="0.050000001"
     id="rect34"
     style="fill:currentColor" />
  <rect
     x="12.2721"
     y="4.4626241"
     width="0.1514"
     height="3.3287001"
     ry="0.050000001"
     id="rect36"
     style="fill:currentColor" />
  <a
     xlink:href="textedit://C:/Users/tikeda/Documents/git/LotusRoot/sco.txt:2:10:11"
     id="a38"
     transform="translate(-17.783,-4.7344761)">
    <text
       transform="translate(31.2374,6.2211)"
       font-weight="bold"
       font-style="italic"
       font-size="2.1999"
       id="text40"
       style="font-size:2.19989991px;font-style:italic;font-weight:bold;text-anchor:start;fill:currentColor;font-family:serif">
      <tspan
         id="tspan42">4</tspan>
    </text>
  </a>
  <a
     xlink:href="textedit://C:/Users/tikeda/Documents/git/LotusRoot/sco.txt:2:23:24"
     id="a44"
     transform="translate(-17.783,-4.7344761)">
    <path
       transform="matrix(0.004,0,0,-0.004,26.4048,12.6971)"
       d="m 212,138 c 59,0 113,-31 113,-95 0,-71 -52,-120 -99,-148 -34,-21 -73,-33 -113,-33 -59,0 -113,31 -113,95 0,71 53,120 100,148 34,21 72,33 112,33 z"
       id="path46"
       inkscape:connector-curvature="0"
       style="fill:currentColor" />
  </a>
  <path
     d="m 2.316,4.9066239 c 0.012,0 0.028,-0.004 0.04,-0.004 0.628,0 1.032,0.516 1.032,1.052 0,0.308 -0.132,0.62 -0.432,0.844 -0.088,0.064 -0.184,0.116 -0.288,0.148 0.012,0.132 0.016,0.264 0.016,0.396 0,0.084 0,0.164 -0.004,0.248 -0.028,0.484 -0.364,0.916 -0.844,0.916 -0.432,0 -0.784,-0.352 -0.784,-0.788 0,-0.232 0.216,-0.412 0.452,-0.412 0.216,0 0.38,0.188 0.38,0.412 0,0.208 -0.172,0.38 -0.38,0.38 -0.036,0 -0.072,-0.004 -0.108,-0.016 0.1,0.148 0.264,0.244 0.452,0.244 0.38,0 0.624,-0.372 0.648,-0.764 0.004,-0.076 0.008,-0.152 0.008,-0.228 0,-0.116 -0.004,-0.232 -0.012,-0.348 -0.116,0.02 -0.232,0.032 -0.352,0.032 -0.756,0 -1.332,-0.692 -1.332,-1.504 0,-0.708 0.516,-1.232 0.976,-1.772 -0.08,-0.248 -0.16,-0.496 -0.192,-0.756 -0.028,-0.208 -0.028,-0.42 -0.028,-0.632 0,-0.456 0.216,-0.884 0.588,-1.152 0.016,-0.012 0.032,-0.016 0.048,-0.016 0.02,0 0.036,0.008 0.052,0.02 0.288,0.332 0.54,0.972 0.54,1.424 0,0.568 -0.336,1.02 -0.704,1.456 0.084,0.272 0.16,0.544 0.228,0.82 z m 0.336,1.86 c 0.26,-0.096 0.44,-0.376 0.44,-0.644 0,-0.352 -0.256,-0.7 -0.668,-0.752 0.096,0.456 0.176,0.908 0.228,1.396 z m -1.544,-0.904 c 0,0.532 0.512,0.972 1.044,0.972 0.108,0 0.22,-0.004 0.324,-0.02 -0.052,-0.504 -0.14,-0.976 -0.24,-1.448 -0.316,0.032 -0.496,0.24 -0.496,0.472 0,0.172 0.1,0.352 0.32,0.48 0.02,0.02 0.028,0.044 0.028,0.068 0,0.048 -0.04,0.092 -0.092,0.092 -0.012,0 -0.028,-0.004 -0.04,-0.008 -0.324,-0.172 -0.472,-0.46 -0.472,-0.744 0,-0.356 0.24,-0.708 0.652,-0.8 -0.056,-0.228 -0.12,-0.452 -0.188,-0.676 -0.42,0.488 -0.84,0.972 -0.84,1.612 z m 1.304,-4.052 c -0.396,0.184 -0.644,0.58 -0.644,1.016 0,0.284 0.084,0.52 0.156,0.752 0.312,-0.388 0.568,-0.796 0.568,-1.296 0,-0.204 -0.016,-0.288 -0.08,-0.472 z"
     id="path48"
     inkscape:connector-curvature="0"
     style="fill:currentColor" />
  <a
     xlink:href="textedit://C:/Users/tikeda/Documents/git/LotusRoot/sco.txt:2:0:1"
     id="a50"
     transform="translate(-17.783,-4.7344761)">
    <path
       transform="matrix(0.004,0,0,-0.004,22.911,9.6971)"
       d="m 153,474 c -30,0 -63,-8 -63,-34 0,-21 35,-25 35,-46 0,-31 -25,-56 -56,-56 -31,0 -56,25 -56,56 0,66 68,106 140,106 92,0 171,-32 171,-114 0,-42 -6,-79 -43,-96 -10,-5 -15,-15 -15,-25 0,-10 5,-19 15,-24 41,-19 58,-56 58,-101 C 339,47 258,0 157,0 77,0 0,43 0,116 c 0,35 29,64 64,64 35,0 64,-29 64,-64 0,-24 -39,-29 -39,-53 0,-29 35,-37 68,-37 47,0 59,59 59,114 v 28 c 0,47 -2,81 -46,81 H 93 c -11,0 -16,8 -16,16 0,8 5,16 16,16 h 77 c 44,0 46,37 46,86 v 19 c 0,53 -15,88 -63,88 z"
       id="path52"
       inkscape:connector-curvature="0"
       style="fill:currentColor" />
    <path
       transform="matrix(0.004,0,0,-0.004,22.783,11.7457)"
       d="m 201,296 c 23,15 46,29 62,51 12,16 20,35 28,52 2,4 6,6 10,6 7,0 14,-5 14,-15 V 157 h 76 c 11,0 16,-8 16,-16 0,-8 -5,-16 -16,-16 h -76 v -2 c 0,-50 30,-97 77,-97 9,0 12,-7 12,-13 C 404,7 401,0 392,0 346,0 300,13 254,13 208,13 161,0 115,0 c -9,0 -12,7 -12,13 0,6 3,13 12,13 47,0 77,47 77,97 v 2 H 32 c -26,0 -34,15 -34,25 0,3 1,6 2,7 79,91 131,205 131,325 0,10 7,18 15,18 h 3 c 24,-7 49,-13 74,-13 25,0 50,6 74,13 2,1 3,1 5,1 9,0 15,-7 15,-13 0,-2 0,-4 -2,-6 L 32,157 h 160 v 115 c 0,9 1,19 9,24 z"
       id="path54"
       inkscape:connector-curvature="0"
       style="fill:currentColor" />
  </a>
  <rect
     x="9.7712002"
     y="4.4626241"
     width="0.1514"
     height="3.3287001"
     ry="0.050000001"
     id="rect56"
     style="fill:currentColor" />
  <a
     xlink:href="textedit://C:/Users/tikeda/Documents/git/LotusRoot/sco.txt:2:10:11"
     id="a58"
     transform="translate(-17.783,-4.7344761)">
    <line
       transform="translate(27.5543,5.3888)"
       x1="9.1028004"
       y1="0"
       x2="9.1028004"
       y2="0.69999999"
       id="line60"
       style="stroke:currentColor;stroke-width:0.18629999;stroke-linecap:round;stroke-linejoin:round" />
    <line
       transform="translate(27.5543,5.3888)"
       x1="-0.2"
       y1="0"
       x2="-0.2"
       y2="0.69999999"
       id="line62"
       style="stroke:currentColor;stroke-width:0.18629999;stroke-linecap:round;stroke-linejoin:round" />
    <line
       transform="translate(27.5543,5.3888)"
       x1="9.1028004"
       y1="0"
       x2="5.8196001"
       y2="0"
       id="line64"
       style="stroke:currentColor;stroke-width:0.18629999;stroke-linecap:round;stroke-linejoin:round" />
    <line
       transform="translate(27.5543,5.3888)"
       x1="-0.2"
       y1="0"
       x2="3.2832"
       y2="0"
       id="line66"
       style="stroke:currentColor;stroke-width:0.18629999;stroke-linecap:round;stroke-linejoin:round" />
  </a>
  <a
     xlink:href="textedit://C:/Users/tikeda/Documents/git/LotusRoot/sco.txt:2:27:28"
     id="a68"
     transform="translate(-17.783,-4.7344761)">
    <path
       transform="matrix(0.004,0,0,-0.004,28.9056,12.6971)"
       d="m 212,138 c 59,0 113,-31 113,-95 0,-71 -52,-120 -99,-148 -34,-21 -73,-33 -113,-33 -59,0 -113,31 -113,95 0,71 53,120 100,148 34,21 72,33 112,33 z"
       id="path70"
       inkscape:connector-curvature="0"
       style="fill:currentColor" />
  </a>
  <text
     font-size="2.1999"
     id="text72"
     style="font-size:2.19989991px;text-anchor:start;fill:currentColor;font-family:serif"
     x="56.905499"
     y="202.25932">
    <tspan
       id="tspan74" />
  </text>
</svg>
