<?xml version="1.0" encoding="UTF-8"?>

<svg version="1.2" baseProfile="tiny" width="100.01mm" height="100.01mm" viewBox="0 0 10001 10001" preserveAspectRatio="xMidYMid" fill-rule="evenodd" stroke-width="28.222" stroke-linejoin="round" xmlns="http://www.w3.org/2000/svg" xmlns:ooo="http://xml.openoffice.org/svg/export" xmlns:xlink="http://www.w3.org/1999/xlink" xml:space="preserve">
 <defs class="ClipPathGroup">
  <clipPath id="presentation_clip_path" clipPathUnits="userSpaceOnUse">
   <rect x="0" y="0" width="10001" height="10001"/>
  </clipPath>
 </defs>
 <defs class="TextShapeIndex">
  <g ooo:slide="id1" ooo:id-list="id3 id4 id5 id6 id7 id8 id9 id10 id11 id12"/>
 </defs>
 <defs class="EmbeddedBulletChars">
  <g id="bullet-char-template(57356)" transform="scale(0.00048828125,-0.00048828125)">
   <path d="M 580,1141 L 1163,571 580,0 -4,571 580,1141 Z"/>
  </g>
  <g id="bullet-char-template(57354)" transform="scale(0.00048828125,-0.00048828125)">
   <path d="M 8,1128 L 1137,1128 1137,0 8,0 8,1128 Z"/>
  </g>
  <g id="bullet-char-template(10146)" transform="scale(0.00048828125,-0.00048828125)">
   <path d="M 174,0 L 602,739 174,1481 1456,739 174,0 Z M 1358,739 L 309,1346 659,739 1358,739 Z"/>
  </g>
  <g id="bullet-char-template(10132)" transform="scale(0.00048828125,-0.00048828125)">
   <path d="M 2015,739 L 1276,0 717,0 1260,543 174,543 174,936 1260,936 717,1481 1274,1481 2015,739 Z"/>
  </g>
  <g id="bullet-char-template(10007)" transform="scale(0.00048828125,-0.00048828125)">
   <path d="M 0,-2 C -7,14 -16,27 -25,37 L 356,567 C 262,823 215,952 215,954 215,979 228,992 255,992 264,992 276,990 289,987 310,991 331,999 354,1012 L 381,999 492,748 772,1049 836,1024 860,1049 C 881,1039 901,1025 922,1006 886,937 835,863 770,784 769,783 710,716 594,584 L 774,223 C 774,196 753,168 711,139 L 727,119 C 717,90 699,76 672,76 641,76 570,178 457,381 L 164,-76 C 142,-110 111,-127 72,-127 30,-127 9,-110 8,-76 1,-67 -2,-52 -2,-32 -2,-23 -1,-13 0,-2 Z"/>
  </g>
  <g id="bullet-char-template(10004)" transform="scale(0.00048828125,-0.00048828125)">
   <path d="M 285,-33 C 182,-33 111,30 74,156 52,228 41,333 41,471 41,549 55,616 82,672 116,743 169,778 240,778 293,778 328,747 346,684 L 369,508 C 377,444 397,411 428,410 L 1163,1116 C 1174,1127 1196,1133 1229,1133 1271,1133 1292,1118 1292,1087 L 1292,965 C 1292,929 1282,901 1262,881 L 442,47 C 390,-6 338,-33 285,-33 Z"/>
  </g>
  <g id="bullet-char-template(9679)" transform="scale(0.00048828125,-0.00048828125)">
   <path d="M 813,0 C 632,0 489,54 383,161 276,268 223,411 223,592 223,773 276,916 383,1023 489,1130 632,1184 813,1184 992,1184 1136,1130 1245,1023 1353,916 1407,772 1407,592 1407,412 1353,268 1245,161 1136,54 992,0 813,0 Z"/>
  </g>
  <g id="bullet-char-template(8226)" transform="scale(0.00048828125,-0.00048828125)">
   <path d="M 346,457 C 273,457 209,483 155,535 101,586 74,649 74,723 74,796 101,859 155,911 209,963 273,989 346,989 419,989 480,963 531,910 582,859 608,796 608,723 608,648 583,586 532,535 482,483 420,457 346,457 Z"/>
  </g>
  <g id="bullet-char-template(8211)" transform="scale(0.00048828125,-0.00048828125)">
   <path d="M -4,459 L 1135,459 1135,606 -4,606 -4,459 Z"/>
  </g>
 </defs>
 <defs class="TextEmbeddedBitmaps"/>
 <g>
  <g id="id2" class="Master_Slide">
   <g id="bg-id2" class="Background"/>
   <g id="bo-id2" class="BackgroundObjects"/>
  </g>
 </g>
 <g class="SlideGroup">
  <g>
   <g id="id1" class="Slide" clip-path="url(#presentation_clip_path)">
    <g class="Page">
     <g class="com.sun.star.drawing.PolyPolygonShape">
      <g id="id3">
       <path fill="rgb(192,192,192)" stroke="none" d="M 5002,10002 L 0,10002 0,0 10002,0 10002,10002 5002,10002 Z"/>
      </g>
     </g>
     <g class="com.sun.star.drawing.ClosedBezierShape">
      <g id="id4">
       <path fill="rgb(192,192,192)" stroke="none" d="M 5000,500 C 7553,500 9502,2449 9502,5000 9502,7553 7553,9502 5000,9502 2449,9502 500,7553 500,5000 500,2449 2449,500 5000,500 Z M 500,500 L 500,500 Z M 9503,9503 L 9503,9503 Z"/>
      </g>
     </g>
     <g class="com.sun.star.drawing.ClosedBezierShape">
      <g id="id5">
       <path fill="none" stroke="rgb(255,255,0)" stroke-width="200" stroke-linejoin="round" d="M 5002,500 C 7553,500 9502,2449 9502,5002 9502,7553 7553,9502 5002,9502 2449,9502 500,7553 500,5002 500,2449 2449,500 5002,500 Z"/>
      </g>
     </g>
     <g class="com.sun.star.drawing.ClosedBezierShape">
      <g id="id6">
       <path fill="rgb(255,255,0)" stroke="none" d="M 5000,1376 C 5426,1376 5751,1863 5751,2500 5751,3139 5426,3626 5000,3626 4576,3626 4251,3139 4251,2500 4251,1863 4576,1376 5000,1376 Z M 4251,1376 L 4251,1376 Z M 5751,3626 L 5751,3626 Z"/>
      </g>
     </g>
     <g class="com.sun.star.drawing.ClosedBezierShape">
      <g id="id7">
       <path fill="rgb(255,255,0)" stroke="none" d="M 5000,6376 C 5426,6376 5751,6863 5751,7500 5751,8139 5426,8626 5000,8626 4576,8626 4251,8139 4251,7500 4251,6863 4576,6376 5000,6376 Z M 4251,6376 L 4251,6376 Z M 5751,8626 L 5751,8626 Z"/>
      </g>
     </g>
     <g class="com.sun.star.drawing.ClosedBezierShape">
      <g id="id8">
       <path fill="rgb(255,255,0)" stroke="none" d="M 5000,4750 C 5144,4750 5252,4858 5252,5000 5252,5144 5144,5252 5000,5252 4858,5252 4750,5144 4750,5000 4750,4858 4858,4750 5000,4750 Z M 4750,4750 L 4750,4750 Z M 5253,5253 L 5253,5253 Z"/>
      </g>
     </g>
     <g class="com.sun.star.drawing.ClosedBezierShape">
      <g id="id9">
       <path fill="rgb(255,255,0)" stroke="none" d="M 1863,3188 C 2076,2819 2660,2781 3212,3100 3765,3419 4024,3943 3811,4312 3599,4680 3015,4717 2462,4398 1911,4080 1651,3555 1863,3188 Z M 1489,3836 L 1489,3836 Z M 4187,3662 L 4187,3662 Z"/>
      </g>
     </g>
     <g class="com.sun.star.drawing.ClosedBezierShape">
      <g id="id10">
       <path fill="rgb(255,255,0)" stroke="none" d="M 6193,5688 C 6407,5319 6990,5281 7542,5600 8095,5919 8354,6443 8141,6812 7929,7180 7345,7217 6792,6898 6241,6580 5981,6055 6193,5688 Z M 5819,6336 L 5819,6336 Z M 8518,6162 L 8518,6162 Z"/>
      </g>
     </g>
     <g class="com.sun.star.drawing.ClosedBezierShape">
      <g id="id11">
       <path fill="rgb(255,255,0)" stroke="none" d="M 1862,6810 C 1649,6441 1909,5917 2460,5598 3013,5279 3597,5317 3810,5686 4022,6053 3763,6578 3210,6897 2658,7215 2074,7178 1862,6810 Z M 2237,7459 L 2237,7459 Z M 3435,5035 L 3435,5035 Z"/>
      </g>
     </g>
     <g class="com.sun.star.drawing.ClosedBezierShape">
      <g id="id12">
       <path fill="rgb(255,255,0)" stroke="none" d="M 6192,4310 C 5979,3941 6239,3417 6790,3098 7343,2779 7927,2817 8140,3186 8352,3553 8093,4078 7540,4397 6988,4715 6405,4678 6192,4310 Z M 6567,4959 L 6567,4959 Z M 7765,2535 L 7765,2535 Z"/>
      </g>
     </g>
    </g>
   </g>
  </g>
 </g>
</svg>